<svg width="114" height="38" viewBox="0 0 114 38" fill="none" xmlns="http://www.w3.org/2000/svg">
<path d="M27.8203 13.6931H14.4992V17.6461H23.9485C23.4792 23.1875 18.8674 25.5521 14.5173 25.5521C11.7168 25.5521 9.03094 24.4396 7.05067 22.4593C5.0704 20.4791 3.95789 17.7933 3.95789 14.9927C3.95789 12.1922 5.0704 9.50639 7.05067 7.52612C9.03094 5.54585 11.7168 4.43334 14.5173 4.43334C17.1718 4.42922 19.7244 5.45479 21.6381 7.2943L24.4088 4.42432C21.7326 1.83691 18.1401 0.415486 14.418 0.471311C12.511 0.484941 10.6254 0.874045 8.8688 1.61641C7.1122 2.35877 5.51901 3.43985 4.18021 4.79793C2.84141 6.15601 1.78321 7.76448 1.06603 9.53152C0.348853 11.2986 -0.0132588 13.1895 0.000370931 15.0965C0.0140007 17.0035 0.403105 18.8891 1.14547 20.6457C1.88783 22.4023 2.96891 23.9955 4.32699 25.3343C5.68507 26.6731 7.29354 27.7313 9.06058 28.4485C10.8276 29.1657 12.7186 29.5278 14.6256 29.5142C22.3962 29.5142 28.0911 24.1893 28.0911 16.3104C28.1072 15.4316 28.0254 14.5538 27.8474 13.6931H27.8203Z" fill="#6B7280"/>
<path d="M38.7314 10.8322C36.8888 10.8393 35.0895 11.3918 33.5604 12.42C32.0313 13.4481 30.8408 14.9059 30.139 16.6096C29.4372 18.3133 29.2554 20.1867 29.6166 21.9935C29.9779 23.8004 30.8659 25.4599 32.1688 26.7628C33.4717 28.0657 35.1312 28.9538 36.9381 29.315C38.7449 29.6762 40.6183 29.4945 42.322 28.7926C44.0257 28.0908 45.4835 26.9003 46.5117 25.3712C47.5398 23.8421 48.0923 22.0429 48.0994 20.2003C48.1189 18.9647 47.8899 17.7377 47.4261 16.5923C46.9622 15.4469 46.2729 14.4064 45.399 13.5326C44.5252 12.6588 43.4847 11.9695 42.3393 11.5056C41.1939 11.0417 39.967 10.8127 38.7314 10.8322ZM38.7855 14.4964C39.9213 14.4295 41.0509 14.7054 42.028 15.2883C43.005 15.8712 43.7844 16.7343 44.2649 17.7656C44.7455 18.7968 44.9051 19.9487 44.7231 21.0717C44.541 22.1948 44.0257 23.2373 43.244 24.0639C42.4622 24.8905 41.4501 25.4632 40.339 25.7076C39.2278 25.952 38.0688 25.8569 37.0124 25.4347C35.9559 25.0124 35.0507 24.2824 34.4142 23.3394C33.7777 22.3964 33.4392 21.2838 33.4426 20.1461C33.4048 19.42 33.5147 18.6938 33.7659 18.0115C34.017 17.3291 34.4041 16.7049 34.9037 16.1766C35.4033 15.6483 36.0049 15.227 36.6722 14.9382C37.3395 14.6494 38.0584 14.4991 38.7855 14.4964Z" fill="#6B7280"/>
<path d="M59.1466 10.8321C57.3036 10.8374 55.5035 11.3884 53.9732 12.4154C52.4429 13.4425 51.251 14.8997 50.5478 16.6033C49.8446 18.3068 49.6616 20.1805 50.0218 21.9879C50.382 23.7954 51.2693 25.4557 52.5719 26.7595C53.8745 28.0633 55.5339 28.9523 57.341 29.3142C59.1481 29.6762 61.022 29.495 62.7262 28.7934C64.4304 28.0918 65.8888 26.9013 66.9173 25.372C67.9459 23.8427 68.4985 22.0431 68.5057 20.2001C68.5252 18.9653 68.2964 17.7391 67.8331 16.5943C67.3698 15.4495 66.6813 14.4094 65.8084 13.5357C64.9356 12.6621 63.8961 11.9725 62.7518 11.5081C61.6075 11.0437 60.3815 10.8138 59.1466 10.8321ZM59.2008 14.4963C60.3365 14.4293 61.4662 14.7052 62.4433 15.2882C63.4203 15.8711 64.1997 16.7342 64.6802 17.7654C65.1608 18.7967 65.3204 19.9485 65.1383 21.0716C64.9563 22.1947 64.441 23.2371 63.6592 24.0638C62.8775 24.8904 61.8654 25.4631 60.7543 25.7075C59.6431 25.9519 58.4841 25.8568 57.4276 25.4345C56.3712 25.0122 55.466 24.2823 54.8295 23.3392C54.1929 22.3962 53.8545 21.2837 53.8579 20.146C53.82 19.4199 53.93 18.6937 54.1811 18.0113C54.4323 17.329 54.8194 16.7048 55.319 16.1765C55.8185 15.6482 56.4202 15.2269 57.0875 14.9381C57.7547 14.6492 58.4737 14.4989 59.2008 14.4963V14.4963Z" fill="#6B7280"/>
<path d="M79.1564 10.841C74.1384 10.841 70.1944 15.2362 70.1944 20.1639C70.1575 22.572 71.0656 24.8986 72.7241 26.6449C74.3826 28.3911 76.6594 29.4179 79.0661 29.5049C80.0373 29.5578 81.0073 29.3802 81.8967 28.9865C82.786 28.5928 83.5696 27.9942 84.1834 27.2396V29.0447C84.1834 32.2666 82.2249 34.189 79.2737 34.189C78.2445 34.1805 77.2412 33.865 76.3923 33.283C75.5434 32.701 74.8874 31.8788 74.5085 30.9219L70.8984 32.4201C71.5966 34.0639 72.7669 35.4636 74.261 36.442C75.7551 37.4204 77.5059 37.9335 79.2918 37.9164C84.2827 37.9164 88.0822 34.7756 88.0822 28.1873V11.4005H84.1924V12.9799C83.5545 12.2844 82.7749 11.7336 81.9062 11.3646C81.0376 10.9956 80.0999 10.8171 79.1564 10.841V10.841ZM79.5174 14.4962C81.9813 14.4962 84.4993 16.599 84.4993 20.182C84.4993 23.765 81.9813 25.8407 79.4632 25.8407C78.7512 25.8226 78.0501 25.6614 77.4017 25.3666C76.7532 25.0717 76.1708 24.6494 75.6891 24.1247C75.2074 23.6 74.8362 22.9838 74.5977 22.3126C74.3592 21.6414 74.2582 20.9291 74.3009 20.2181C74.3009 16.608 76.8821 14.4962 79.5174 14.4962V14.4962Z" fill="#6B7280"/>
<path d="M105.507 10.8135C100.778 10.8135 96.7976 14.577 96.7976 20.1364C96.7508 21.3616 96.9542 22.5835 97.3954 23.7275C97.8365 24.8716 98.5061 25.9137 99.3633 26.7903C100.221 27.667 101.247 28.3598 102.381 28.8264C103.515 29.2931 104.732 29.5238 105.958 29.5045C107.496 29.5075 109.011 29.136 110.373 28.4221C111.734 27.7082 112.902 26.6734 113.774 25.4071L110.543 23.2591C110.075 24.0534 109.405 24.7097 108.601 25.1614C107.798 25.6132 106.889 25.8443 105.967 25.8313C105.01 25.8708 104.062 25.623 103.247 25.1195C102.431 24.6161 101.785 23.8802 101.391 23.0064L113.909 17.817L113.259 16.2917C112.663 14.7073 111.604 13.3387 110.22 12.3634C108.836 11.3882 107.191 10.8513 105.498 10.8225L105.507 10.8135ZM105.669 14.4235C106.375 14.3931 107.076 14.5645 107.688 14.9178C108.3 15.271 108.799 15.7915 109.126 16.4181L100.769 19.9108C100.727 19.2281 100.821 18.5439 101.046 17.8978C101.27 17.2516 101.62 16.6563 102.076 16.1461C102.531 15.636 103.083 15.2211 103.7 14.9255C104.317 14.6298 104.986 14.4592 105.669 14.4235V14.4235Z" fill="#6B7280"/>
<path d="M90.834 28.9541H94.9494V1.43652H90.834V28.9541Z" fill="#6B7280"/>
</svg>
