<svg width="108" height="48" viewBox="0 0 108 48" fill="none" xmlns="http://www.w3.org/2000/svg">
<g clip-path="url(#clip0_107_370767)">
<path d="M15.2142 37.056C13.6044 37.3386 11.9664 37.4234 10.2719 37.6491L5.10342 22.5114V38.2988C3.49367 38.4682 2.0251 38.6941 0.5 38.9201V10H4.79294L10.6672 26.409V10H15.2142V37.056ZM24.1105 20.5909C25.8617 20.5909 28.5447 20.5061 30.1544 20.5061V25.0248C28.1491 25.0248 25.8051 25.0248 24.1105 25.1095V31.8313C26.7654 31.6619 29.4202 31.4358 32.1031 31.351V35.7001L19.5917 36.6888V10H32.1031V14.5188H24.1105V20.5909V20.5909ZM48.9072 14.5189H44.219V35.3051C42.6939 35.3051 41.1688 35.3051 39.7005 35.3615V14.5189H35.0123V10H48.9074L48.9072 14.5189V14.5189ZM56.2501 20.2803H62.4353V24.7989H56.2501V35.051H51.8158V10H64.4405V14.5188H56.2501V20.2803V20.2803ZM71.7834 31.097C74.3535 31.1533 76.9516 31.3513 79.4653 31.4923V35.9546C75.4268 35.7003 71.3881 35.4464 67.2647 35.3615V10H71.7834V31.097ZM83.278 36.2653C84.7183 36.3502 86.2434 36.4349 87.712 36.6041V10H83.278V36.2653V36.2653ZM107.51 10L101.777 23.754L107.51 38.9201C105.815 38.6941 104.121 38.3835 102.426 38.101L99.1785 29.7415L95.8744 37.4234C94.2361 37.1407 92.6545 37.056 91.0168 36.83L96.8346 23.5844L91.5814 10H96.4389L99.4043 17.5972L102.568 10H107.51V10Z" fill="#D81F26"/>
</g>
<defs>
<clipPath id="clip0_107_370767">
<rect width="107" height="48" fill="white" transform="translate(0.5)"/>
</clipPath>
</defs>
</svg>
