<svg width="91" height="45" viewBox="0 0 91 45" fill="none" xmlns="http://www.w3.org/2000/svg">
<path d="M0.910156 0V44.3865H46.2504L90.6284 0.00528007H0.910156V0Z" fill="#6B7280"/>
<path d="M55.6386 20.6563H53.7477V13.7426H55.6405C58.167 13.7426 60.1775 14.5741 60.1775 17.1571C60.1775 19.8249 58.166 20.6601 55.6405 20.6601L55.6386 20.6563ZM35.2722 25.6086C34.3334 25.6123 33.4012 25.4485 32.5198 25.1236L35.2449 16.529H35.3014L37.972 25.1481C37.1059 25.4559 36.1933 25.6126 35.2741 25.6114L35.2722 25.6086ZM55.1395 8.12087H46.5421V28.5588L39.0342 8.12087H31.595L25.1823 25.2046C24.5043 20.904 20.0455 19.4115 16.5378 18.2965C14.2269 17.5432 11.7664 16.4603 11.788 15.2502C11.8068 14.2615 13.1101 13.3424 15.6771 13.4799C17.4079 13.5675 18.9475 13.7059 21.9637 15.1721L24.961 9.97219C22.1953 8.55969 18.3637 7.67264 15.227 7.66699H15.1968C11.5394 7.66699 8.49218 8.8582 6.60225 10.8122C5.29565 12.1559 4.55852 13.9523 4.54471 15.8265C4.49575 18.4594 5.46566 20.3277 7.4959 21.8221C9.21255 23.0811 11.4038 23.89 13.3389 24.4983C15.7261 25.231 17.6744 25.8769 17.6518 27.2508C17.6376 27.7518 17.4352 28.2283 17.0849 28.5861C16.4916 29.1982 15.5782 29.4336 14.3136 29.4637C11.8775 29.5127 10.0732 29.1342 7.19456 27.4335L4.53906 32.7012C7.50343 34.3849 10.8511 35.2748 14.2599 35.287H14.7091C17.7224 35.2305 20.1594 34.3689 22.1049 32.8048L22.4213 32.5317L21.571 34.8294H29.3727L30.6835 30.8424C33.6281 31.7953 36.7968 31.8085 39.7499 30.88L41.0117 34.8313H53.7459V26.5917H56.5257C63.235 26.5917 67.2079 23.1772 67.2079 17.4462C67.2079 11.0664 63.3471 8.13971 55.1358 8.13971" fill="white"/>
</svg>
