<svg width="944" height="591" viewBox="0 0 944 591" fill="none" xmlns="http://www.w3.org/2000/svg">
<path d="M223.605 0.664705C249.4 21.1645 263.4 26.1005 229.9 9.66455C233.295 10.6005 219.9 2.16469 223.605 0.664705L233.4 5.16455C237.863 6.96655 230.745 4.00855 234.4 7.16455C237.81 10.1095 230.319 -0.493451 232.9 3.16455L256.14 20.1847C270.497 20.1487 285.056 19.8137 299.384 20.8547C305.085 21.2687 311.013 21.7927 316.65 22.7487C318.213 23.0147 321.459 24.2637 322.886 24.1137C324.425 23.9527 327.035 22.5447 328.613 21.9657L342.107 17.4527C346.129 15.9407 349.811 13.4277 354.095 12.6917C359.39 11.7817 365.075 12.2587 370.431 12.4067C376.602 12.5767 382.826 12.6487 388.939 13.5927C398.015 14.9947 407.332 17.7437 416.182 20.1707C448.228 28.9577 477.607 42.6957 507.63 56.5957L529.786 66.8287C534.85 69.1687 540.193 71.4037 544.942 74.3407C566.153 87.4587 583.98 105.223 604.689 119.085C612.111 115.02 618.567 111.095 626.846 108.932C632.072 110.02 638.414 113.86 641.692 118.082C645.852 123.44 646.713 130.852 645.792 137.415C645.21 141.565 643.38 145.315 639.933 147.76L639.453 148.09C644.786 152.924 649.986 158.501 655.767 162.749C671.82 174.542 692.094 181.39 709.817 190.293L780.412 225.731C809.823 240.538 840.488 255.637 866.557 275.923C880.883 287.071 892.877 299.25 901.263 315.526C904.494 321.797 907.157 328.02 908.011 335.072C908.127 336.033 911.411 337.565 912.4 338.177C917.473 341.316 923.926 346.394 926.108 352.139C927.454 355.682 927.327 360.344 927.407 364.101C927.623 374.215 927.461 384.224 925.352 394.165C924.795 396.792 924.048 399.378 923.279 401.949C923.117 402.489 922.29 404.583 922.343 405.009C922.404 405.509 923.129 405.64 923.519 405.958L928.467 410.282C933.425 414.742 939.032 418.917 942.125 424.945C943.553 427.726 943.794 430.613 942.758 433.568C941.444 437.315 938.928 440.193 936.391 443.165C929.42 451.33 921.488 458.09 913.45 465.163C893.334 482.86 872.892 499.97 851.035 515.529C829.476 530.877 806.225 544.21 782.855 556.573L740.197 578.079L733.719 581.045L718.32 587.567C715.472 588.725 712.199 590.296 709.136 590.739C705.393 591.28 699.525 589.333 695.763 588.524C671.529 583.314 646.86 576.783 623.747 567.807L619.698 543.634C613.167 547.191 606.57 550.971 599.569 553.528C585.005 558.847 565.449 559.866 550.491 555.524C536.866 551.568 521.609 540.596 513.941 528.604C511.42 524.663 509.301 520.399 507.313 516.169L504.43 509.701C504.332 509.473 503.85 508.083 503.68 507.943C502.128 506.656 496.255 505.867 494.009 505.128C485.08 502.191 476.451 498.906 467.945 494.901L400.37 462.241L258.062 393.981L176.509 355.163L168.667 351.119C168.073 350.802 166.764 349.859 166.22 349.804C165.782 349.76 164.604 350.295 164.103 350.438C162.043 351.025 159.967 351.573 157.856 351.945C147.481 353.776 133.879 351.968 124.375 347.44C102.595 337.064 87.6818 315.719 79.8108 293.487L75.2458 292.585C64.9828 289.952 58.5348 282.417 56.6178 272.05C56.0698 269.089 55.8615 264.778 54.3172 262.194C52.5608 259.254 48.5105 256.522 45.8764 254.315L26.6508 238.23C21.4164 233.842 15.4391 229.512 11.9328 223.522C8.84444 218.245 7.28663 212.093 5.61123 206.254C2.63173 195.871 -1.91856 181.681 0.869436 170.915C1.88344 166.999 3.61884 163.53 6.38624 160.551C7.86504 158.959 9.80503 157.348 10.7968 155.415C12.374 152.341 13.0444 148.075 14.1207 144.743L21.2219 123.609C24.2949 114.442 26.9174 104.234 34.4239 97.5417C36.5757 95.6237 39.2525 94.1907 41.7256 92.7277C51.0176 113.861 34.187 90.5937 42.6278 94.1647C44.2212 91.5937 38.627 93.1067 41.7256 92.7277C43.0847 92.5617 56.1151 84.4287 57.3999 84.1647C59.9332 83.6437 73.0568 73.9877 75.3999 72.6647L161.9 29.1647L214.9 2.16469C234.079 -7.82331 249.4 21.1645 223.605 0.664705Z" fill="#6B7280"/>
<path d="M273.069 123.415C273.453 123.87 273.598 123.905 273.538 124.665C273.411 126.301 272.085 128.87 271.511 130.457L266.378 145.526C262.444 158.639 259.655 171.603 258.04 185.201L256.549 199.934C256.392 201.765 256.519 204.106 255.15 205.491C252.61 201.54 256.49 181.243 257.381 175.884C258.851 167.035 266.802 127.887 273.069 123.415Z" fill="white"/>
<path d="M21.6331 153.207C20.3 152.237 19.3127 151.154 18.2322 149.915C18.3802 145.037 20.5921 139.784 22.2143 135.221L30.008 113.966L33.2215 119.619C32.193 122.794 31.3786 126.016 30.1091 129.107C27.0164 136.636 22.0433 144.95 21.6331 153.207Z" fill="#4B5563"/>
<path d="M33.2215 119.619C36.352 124.332 39.3262 128.47 38.3138 134.415C36.9347 142.513 32.1701 150.649 27.9819 157.607L21.6331 153.207C22.0433 144.95 27.0164 136.636 30.1091 129.107C31.3786 126.016 32.193 122.794 33.2215 119.619Z" fill="#4B5563"/>
<path d="M72.6409 225.036L73.1749 224.541C74.5069 223.271 75.3999 221.631 76.6499 220.292C80.0839 216.615 86.8019 213.3 91.8999 213.165C92.5079 213.149 93.0989 213.273 93.6919 213.382C93.0089 215.567 87.7189 219.66 86.0179 221.748C75.6889 234.432 73.1569 249.334 70.9249 265.034C68.4189 254.268 67.1719 244.776 69.7169 233.795C70.3159 231.211 72.2739 228.208 72.2939 225.639L72.6409 225.036Z" fill="#D1D5DB"/>
<path d="M194.264 311.996L361.954 393.353L419.473 420.028L433.507 426.479C435.697 427.481 438.519 428.411 440.451 429.765L460.017 438.707L458.055 440.222L452.744 438.139L452.342 437.912C448.379 435.433 443.651 433.374 439.334 431.555L192.813 312.864L194.264 311.996Z" fill="#D1D5DB"/>
<path d="M617.809 131.895L610.087 125.395C614.181 120.211 618.958 115.531 625.593 113.973C630.861 115.256 635.33 117.766 638.2 122.518C640.655 126.581 641.044 132.095 639.872 136.658C639.16 139.431 637.278 143.08 634.612 144.433C633.973 144.757 633.527 144.386 632.898 144.17C631.22 143.957 629.813 142.553 628.57 141.508L617.809 131.895Z" fill="white"/>
<path d="M690.496 433.657C691.334 433.603 691.975 433.479 692.753 433.875C694.003 434.512 695.978 438.54 696.757 439.845C702.297 449.121 708.569 459.739 711.448 470.149C704.512 473.662 695.714 475.151 688.023 475.856C682.36 476.45 673.291 476.557 668.229 473.914C666.606 470.985 666.904 463.913 667.713 460.7C668.595 457.198 669.134 453.764 670.514 450.383C674.383 440.902 681.623 437.315 690.496 433.657Z" fill="#D1D5DB"/>
<path d="M864.519 334.415L865.125 334.534C866.112 336.576 866.207 339.439 866.448 341.685L867.778 355.052L870.582 377.897L871.011 382.415C871.097 384.941 871.6 386.997 869.811 388.915C869.561 388.802 869.258 388.767 869.062 388.575C868.807 388.326 868.4 382.173 868.261 381.202C867.632 376.775 866.504 372.462 865.619 368.089C865.096 365.505 864.791 361.955 863.274 359.81C859.186 359.147 853.843 361.648 850.126 363.352C842.424 366.883 835.456 371.538 828.308 376.03L791.003 400.741C785.615 404.489 779.56 407.801 774.702 412.217C773.024 413.741 771.885 415.184 771.108 417.309C771.35 420.634 772.977 423.303 774.501 426.193C777.222 431.354 780.024 436.227 783.571 440.878C785.116 442.643 787.479 444.748 788.349 446.915C787.15 447.864 786.641 447.763 785.088 447.694C781.822 447.55 776.822 445.374 774.226 443.307C771.511 441.146 769.144 436.425 766.785 433.649L746.728 411.474C748.176 409.827 750.978 408.673 752.867 407.544L765.735 399.491L828.844 358.73L864.519 334.415Z" fill="white"/>
<path d="M80.64 92.7976L70.385 80.8126C73.312 78.4526 76.711 76.7006 79.918 74.7546L101.931 62.3926L209.82 8.57861C211.662 8.73661 213.496 9.77861 215.195 10.5036L237.746 20.6256L236.788 20.8846C226.85 23.5206 217.185 25.1816 207.4 28.6836C180.396 38.3486 155.141 52.7776 129.979 66.3636L80.64 92.7976Z" fill="#D1D5DB"/>
<path d="M72.2939 225.639C64.4499 238.496 67.4348 252.002 70.5828 265.639L75.6228 287.477C72.2418 285.752 68.5508 283.965 66.0248 281.053C62.5868 277.088 61.9458 271.212 61.3048 266.184C61.1258 264.775 60.9688 262.032 60.2048 260.843C58.2588 257.812 53.2014 254.605 50.3998 252.193L32.3897 236.3C28.3111 232.722 23.9646 229.314 20.2614 225.342C14.373 219.025 12.574 211.42 10.2363 203.391C7.39563 193.635 5.12334 185.167 5.51594 174.926C5.89074 176.206 6.23273 176.876 7.24373 177.773C16.4612 185.95 28.5179 191.966 38.8998 198.635C48.1825 204.597 57.0978 211.393 66.7748 216.699L74.8608 220.788C74.1078 222.167 73.2169 223.58 72.6409 225.036L72.2939 225.639Z" fill="white"/>
<path d="M192.344 344.393C197.798 345.09 202.838 346.352 207.994 348.293C223.894 354.279 239.516 362.03 255.108 368.853L380.397 425.959L444.433 455.956C458.038 462.373 472.325 468.213 484.917 476.459L483.811 488.261L194.9 348.754C193.143 347.734 192.828 346.265 192.344 344.393Z" fill="#D1D5DB"/>
<path d="M669.012 183.567C665.488 179.094 661.191 175.748 656.826 172.15L592.949 119.524L564.758 97.5934C558.007 92.3184 551.083 87.5815 545.383 81.1265C556.018 86.4215 565.55 95.3305 574.806 102.773L636.598 152.645C646.207 160.415 655.799 169.977 666.439 176.222C667.886 177.071 668.984 177.281 670.65 176.941L806.697 245.444C819.81 252.689 833.339 259.503 845.892 267.689C860.745 277.377 877.744 288.974 887.708 303.894L873.962 321.643C871.078 325.4 868.706 329.66 864.996 332.663C860.568 324.268 851.975 316.958 845.326 310.263C821.276 286.045 795.325 264.392 767.336 244.859L714.756 210.556L682.134 189.342C678.776 187.076 674.727 185.021 671.906 182.138C671.253 181.471 671.196 181.224 670.301 180.914L669.012 183.567Z" fill="white"/>
<path d="M906.892 400.844C908.34 402.133 909.742 403.249 910.658 404.99L903.23 414.596C901.673 416.558 899.807 418.623 898.947 421.005C897.513 424.974 897.312 429.921 897.067 434.112C906.411 427.79 912.473 419.634 918.323 410.201C922.654 412.748 926.071 415.951 929.651 419.446L925.657 427.966L918.638 436.789C912.963 443.296 906.262 449.827 899.774 455.526C896.775 458.159 893.392 461.347 889.716 463C888.055 463.747 887.787 464.096 886.083 463.48C884.873 460.826 886.088 456.037 886.616 453.17L893.566 422.785C894.489 421.904 895.363 417.257 895.748 415.798C896.867 412.829 898.996 410.385 900.896 407.883C901.485 407.653 902.07 406.629 902.476 406.115C903.741 404.252 905.419 402.554 906.892 400.844Z" fill="#FEFEFE"/>
<path d="M181.245 310.003L180.226 305.458L194.264 311.996L192.813 312.864L439.334 431.555C443.651 433.374 448.379 435.433 452.342 437.912L452.744 438.139L458.055 440.222L460.017 438.707L485.96 451.633C486.964 453.878 486.282 457.237 486.176 459.661C485.961 464.597 486.155 469.845 485.109 474.693L485.06 474.75L484.917 476.459C472.325 468.213 458.038 462.373 444.433 455.956L380.397 425.959L255.108 368.853C239.516 362.03 223.894 354.279 207.994 348.293C202.838 346.352 197.798 345.09 192.344 344.393L186.126 322.961L181.245 310.003Z" fill="#D1D5DB"/>
<path d="M458.055 440.222L460.017 438.707L485.96 451.633L485.808 452.816L485.15 453.264C480.21 452.075 476.341 449.235 471.93 446.915L458.055 440.222Z" fill="#D1D5DB"/>
<path d="M530.702 422.266C539.975 421.606 549.18 424.205 557.071 429.09C572.347 438.548 584.313 456.12 588.177 473.598C592.03 491.019 589.915 512.911 580.081 528.048C574.738 536.271 567.452 541.52 557.911 543.563C547.25 543.949 538.725 540.358 530.118 534.33C515.054 523.781 503.029 500.668 500.034 482.907C497.501 467.889 498.817 448.993 508.012 436.282C513.544 428.636 521.357 423.653 530.702 422.266Z" fill="#9CA3AF"/>
<path d="M113.702 220.266C122.975 219.606 132.18 222.205 140.071 227.09C155.347 236.548 167.313 254.12 171.177 271.598C175.03 289.019 172.915 310.911 163.081 326.048C157.738 334.271 150.452 339.52 140.911 341.563C130.25 341.949 121.725 338.358 113.118 332.33C98.0545 321.781 86.0294 298.668 83.0344 280.907C80.5014 265.889 81.8175 246.993 91.0125 234.282C96.5445 226.636 104.357 221.653 113.702 220.266Z" fill="#9CA3AF"/>
<path d="M902.476 406.115C901.196 404.333 899.779 403.08 898.113 401.681L908.418 388.647C910.652 385.76 913.535 380.628 916.9 379.193L917.827 379.695C918.298 380.495 918.609 381.129 918.769 382.06C919.782 387.945 910.354 396.662 906.892 400.844C905.419 402.554 903.741 404.252 902.476 406.115Z" fill="#4B5563"/>
<path d="M716.334 508.867L740.612 500.161L764.75 490.169C771.716 487.167 779.942 482.313 787.445 481.274C780.702 486.301 770.229 491.133 762.21 493.589C762.305 497.51 762.222 501.36 763.215 505.172C763.587 506.598 763.623 508.696 762.794 509.939C761.565 511.783 759.502 512.659 757.472 513.312C759.184 511.989 760.808 510.737 762.273 509.13C762.458 507.54 762.467 506.611 762.037 505.071L761.15 504.638L717.187 523.18L716.334 508.867Z" fill="#4B5563"/>
<path d="M452.561 339.865L667.053 446.475C666.714 449.695 665.755 453.542 666.259 456.734L667.267 457.638C667.381 458.3 667.043 459.61 666.938 460.289C666.234 464.835 666.388 469.394 666.393 473.985C646.809 468.232 628.068 460.307 609.39 452.151C603.427 449.547 596.883 447.272 591.269 444.042C586.752 441.444 582.814 436.154 579.097 432.482C566.578 420.11 550.975 410.63 533.498 407.634C523.156 405.861 508.253 407.386 499.602 413.834C489.817 421.128 488.866 431.419 487.279 442.586C482.721 440.896 478.569 438.252 474.228 436.084L446.966 422.583C449.423 407.496 450.611 392.657 451.673 377.436C452.516 365.354 453.472 352.581 452.61 340.485L452.561 339.865Z" fill="#D1D5DB"/>
<path d="M41.3715 129.165C46.0799 131.144 50.495 133.853 55.0386 136.189L84.573 151.36L184.9 204.058L210.648 217.99L221.755 224.364C223.338 225.173 225.032 225.569 226.635 226.367C224.643 232.026 224.339 238.159 224.094 244.101C222.982 271.058 230.313 296.273 239.153 321.432C236.392 321.236 232.28 318.592 229.666 317.343L190.245 298.825C187.581 297.611 180.929 295.946 179.023 293.959C177.713 292.593 177.336 288.375 176.911 286.54C175.953 282.403 174.842 278.236 173.466 274.218C169.001 261.187 161.772 247.949 152.583 237.629C140.986 224.606 124.262 211.996 106.211 210.892C103.379 210.719 100.513 210.99 97.705 211.34C96.637 211.472 94.331 211.936 93.309 211.635C91.89 211.218 89.502 209.119 88.186 208.258L73.938 199.289L27.4 170.962L26.8305 171.29C41.2672 181.613 57.332 190.436 72.54 199.615C78.842 203.419 85.831 206.949 91.444 211.661C84.935 213.85 80.027 215.966 74.861 220.663L66.775 216.574C57.098 211.268 48.1827 204.472 38.9 198.51C28.5181 191.841 16.4614 185.825 7.24391 177.648C6.23291 176.751 5.89091 176.081 5.51611 174.801C6.40491 169.863 8.18491 165.455 11.2293 161.466L19.4 166.117L20.0519 165.79L13.9365 161.025L17.1429 151.107C21.0674 154.21 24.5223 157.196 29.2973 158.951C31.4913 155.588 32.7967 151.701 34.3858 148.04C37.1097 141.764 40.0454 135.939 41.3715 129.165Z" fill="#D1D5DB"/>
<path d="M593.12 449.565L591.955 447.164L592.4 446.695L638.113 465.159C648.841 469.513 660.463 474.858 671.978 476.51C682.767 478.058 693.509 477.123 704.013 474.268C715.499 471.146 727.567 465.002 738.361 459.988L772.77 443.248C776.956 446.124 782.383 450.076 787.797 448.519C789.956 447.898 792.289 445.833 794.079 444.523L804.966 436.781L856.337 400.953C861.808 396.916 866.731 392.248 872.32 388.334C871.997 384.789 870.09 377.569 872.407 374.938C874.608 372.44 877.486 370.324 879.941 368.053C889.427 359.275 899.217 351.344 906.869 340.792C912.373 344.527 917.462 348.145 921.635 353.414C909.036 372.821 894.506 391.941 877.416 407.714C866.528 417.763 853.974 426.28 841.509 434.219C828.825 442.298 815.837 449.992 802.463 456.876L774.607 470.246C770.134 472.32 764.951 474.175 760.802 476.812C759.255 476.858 758.734 477.23 757.4 477.919L755.431 478.661L714.996 495.287C715.317 497.508 715.674 499.742 715.761 501.987C715.848 504.233 715.605 506.731 716.334 508.867L717.187 523.18L761.15 504.638L762.037 505.071C762.467 506.611 762.458 507.54 762.273 509.13C760.808 510.737 759.184 511.989 757.472 513.312C756.567 513.557 756.138 513.827 755.439 514.448C753.173 519.232 752.829 525.527 752.226 530.771L760.862 527.988C765.759 526.659 770.937 527.457 775.967 526.857C778.747 526.526 782.155 525.85 783.972 523.558L787.143 521.797L791.389 526.414C791.319 527.709 791.155 528.897 790.921 530.167L752.019 550.414C739.914 556.433 728.222 561.982 715.564 566.811L710.812 568.021L709.771 567.294C709.162 563.608 709.874 559.073 709.871 555.279L709.15 551.089C708.414 549.511 706.595 549.106 705.065 548.584C699.389 546.65 693.345 545.427 687.528 543.953L652.135 534.42C639.159 530.344 627.678 524.315 615.568 518.292C612.599 494.45 603.157 471.16 593.12 449.565Z" fill="white"/>
<path d="M755.439 514.448C753.173 519.232 752.829 525.527 752.226 530.771C750.148 531.371 747.225 533.544 745.157 534.557L717.309 548.065L717.259 530.425C730.614 526.457 742.914 520.431 755.439 514.448Z" fill="#4B5563"/>
<path d="M452.033 339.256L450.454 381.138C449.764 394.787 448.254 408.177 445.658 421.599L241.282 322.698C237.814 315.342 235.527 307.912 233.221 300.137C226.434 277.248 222.338 250.746 227.524 227.171C230.071 228.953 232.573 230.694 235.4 232.003C236.425 232.477 237.275 233.044 238.417 233.119C240.291 232.289 240.822 231.919 242.863 232.682C245.699 233.742 248.505 235.225 251.245 236.524C257.239 239.365 262.953 241.694 265.998 247.958C267.592 248.311 268.469 248.683 269.9 249.505C280.648 255.679 292.559 260.666 303.686 266.185L380.345 304.08L425.9 326.989C434.18 331.176 443.066 336.981 452.033 339.256Z" fill="#D1D5DB"/>
<path d="M238.417 233.244C240.291 232.414 240.822 232.044 242.863 232.807C245.699 233.867 248.505 235.35 251.245 236.649C257.239 239.49 262.953 241.819 265.998 248.083C265.996 249.415 265.854 250.774 265.588 252.08C265.233 253.818 264.574 255.126 263.15 256.136C257.974 255.501 253.891 253.3 249.275 251.111C246.923 249.995 244.445 249.098 242.213 247.747C239.142 245.889 237.187 243.768 236.393 240.247L236.042 239.227L236.9 238.553C241.037 239.567 244.617 241.997 248.441 243.769C251.876 245.361 255.526 246.552 258.9 248.262C259.631 248.633 263.288 251.073 263.888 251.051C264.211 251.04 264.454 250.739 264.736 250.583C264.7 249.305 264.556 247.483 263.572 246.612C261.62 244.886 257.01 244.495 254.478 243.535C250.434 242.001 246.988 239.918 243.234 237.843C241.315 236.782 239.196 236.063 237.596 234.526L238.417 233.244Z" fill="#4B5563"/>
<path d="M236.393 240.247L236.042 239.227L236.9 238.553C241.037 239.567 244.617 241.997 248.441 243.769C251.876 245.361 255.526 246.552 258.9 248.262C259.631 248.633 263.288 251.073 263.888 251.051C264.211 251.04 264.454 250.739 264.736 250.583C264.582 251.968 264.208 252.619 263.418 253.711C263.1 254.152 263.212 254.153 262.571 254.167C260.646 254.207 257.783 252.372 256.053 251.49C250.024 248.415 242.375 245.024 237.277 240.527L236.928 240.207L236.393 240.247Z" fill="#D1D5DB"/>
<path d="M366.092 20.1065C369.217 19.3495 373.514 17.5095 376.637 17.5295C384.305 17.5785 392.983 20.1555 400.425 21.9965C410.695 24.5365 420.965 27.1514 431.005 30.5034C448.544 36.3584 465.665 43.8914 482.513 51.4734L544.149 80.4115C534.077 89.1905 520.609 95.3025 508.9 101.665L472.093 121.617L437.775 137.137L379.474 162.514C369.52 152.467 360.108 143.998 347.73 136.974C333.701 129.014 318.175 122.801 303.343 116.408L262.886 98.9535L247.997 93.0155C244.604 91.7395 240.913 90.7144 237.65 89.1544C236.532 88.6194 235.542 88.1744 234.903 87.1034C246.356 77.3774 259.753 69.6744 272.811 62.3274C302.994 45.3464 333.354 31.4325 366.092 20.1065Z" fill="white"/>
<path d="M315.651 28.0659L341.19 19.0199C348.497 16.4569 354.912 15.3849 362.663 15.2519C364.408 15.2229 366.407 14.9109 367.994 15.6749L366.93 16.406C359.325 18.369 351.921 21.5119 344.599 24.3329C321.643 33.1749 299.765 43.5759 278.215 55.4319C263.037 63.7809 247.931 72.719 234.273 83.41L234.261 83.447L230.229 86.3769C240.3 91.8239 250.872 95.354 261.418 99.684L299.136 115.894C321.483 125.491 345.814 134.533 364.651 150.278C376.232 159.958 384.475 172.775 392.398 185.434L409.718 213.263L437.908 258.88C444.054 269.09 449.184 280.35 457.208 289.267C460.504 292.929 464.61 295.683 468.875 298.085C469.532 297.877 469.779 297.124 470.15 297.016C471.351 296.668 474.858 297.488 476.38 297.457L477.186 297.487C481.136 297.607 484.735 296.762 488.576 295.973C496.165 294.415 503.564 292.213 510.882 289.684C531.86 282.435 553.023 273.421 572.739 263.139L596.131 249.762C616.876 237.773 637.858 224.531 655.231 207.878C659.602 203.688 664.085 199.149 667.042 193.813C669.016 190.25 670.298 186.28 671.878 182.53L731.793 222.47L783.678 256.588C793.089 263.35 801.951 270.853 810.743 278.393L842.767 307.847C850.36 315.555 857.923 322.893 864.111 331.817C856.856 337.592 848.503 343.809 840.435 348.359L833.623 353.185L768.798 394.874C766.613 396.308 761.501 400.57 759.165 400.754L758.66 401.454L732.4 415.86C720.893 421.549 708.823 426.012 696.723 430.238L696.028 429.571L675.426 413.562C659.181 401.422 641.195 391.186 623.544 381.266L586.075 360.508L488.65 308.203L488.457 308.777L585.664 362.969L671.672 413.407C671.818 413.498 673.624 414.668 673.709 414.652C681.014 419.371 688.414 424.139 694.661 430.233C685.049 433.266 675.831 436.469 670.93 446.063C669.233 449.387 668.2 452.934 667.267 456.532L666.259 455.629C665.755 452.437 666.714 448.59 667.053 445.37L452.561 338.76C452.386 337.923 452.336 337.265 452.442 336.414C452.807 333.465 452.796 330.413 451.979 327.523L452.033 338.15C443.066 335.875 434.18 330.07 425.9 325.883L380.345 302.974L303.686 265.079C292.559 259.56 280.648 254.573 269.9 248.399C268.469 247.577 267.592 247.205 265.998 246.852C262.953 240.588 257.239 238.259 251.245 235.418C248.505 234.119 245.699 232.636 242.863 231.576C240.822 230.813 240.291 231.183 238.417 232.013C237.275 231.938 236.425 231.371 235.4 230.897C232.573 229.588 230.071 227.847 227.524 226.065C229.137 222.812 232.375 220.185 234.898 217.622L249.309 202.959L308.306 233.633L354.077 256.36L364.62 261.646C366.17 262.429 368.125 263.111 369.288 264.434C368.781 265.274 368.283 265.698 367.501 266.283C370.218 265.573 372.672 264.125 375.347 263.26C381.37 261.311 387.69 259.968 393.821 258.379C397.091 257.532 402.468 255.381 405.857 256.1C406.548 256.246 407.611 256.999 408.271 257.385C412.656 259.953 414.95 264.915 416.177 269.682C417.421 274.517 418.13 280.519 416.826 285.386C416.404 286.953 415.665 288.356 416.38 289.934C416.777 290.809 417.931 292.684 418.791 293.077L418.415 290.934L418.9 290.612L435.283 298.768C436.761 299.355 439.497 300.552 440.909 299.934C441.121 297.635 440.205 295.604 439.281 293.549C425.844 263.649 408.623 234.769 391.275 206.99C381.436 191.235 372.347 174.073 357.919 161.949C342.33 148.848 321.988 140.241 303.461 132.068L275.658 120.26L275.17 120.113C266.535 117.436 258.222 113.397 249.65 110.454C239.05 106.814 227.435 104.757 216.258 105.904C200.994 107.469 187.906 117.656 176.641 127.3C171.773 131.468 166.565 135.927 162.518 140.912C161.146 142.601 159.298 145.214 159.67 147.542C159.906 149.015 160.608 150.52 161.25 151.86C170.152 159.327 180.549 164.053 190.581 169.725L233.072 193.827L243.661 199.804C245.127 200.632 247.004 201.396 248.117 202.655C240.9 210.123 233.093 217.16 226.635 225.261C225.032 224.463 223.338 224.067 221.755 223.258L210.648 216.884L184.9 202.952L84.573 150.254L55.0386 135.083C50.495 132.747 46.0799 130.038 41.3715 128.059C38.1629 122.036 33.4181 116.28 29.5491 110.611C33.752 102.554 39.5558 97.5129 47.5756 93.4799L50.7522 94.8979L66.65 100.461C71.838 102.237 78.482 105.347 84.041 104.556C87.589 104.05 90.987 101.379 94.007 99.573L107.312 91.684L126.959 80.547C156.255 64.095 186.558 50.12 217.348 36.75L217.15 36.3989C192.574 45.4739 168.648 57.4599 145.4 69.5099L110.626 88.703L95.264 97.9319C93.573 98.9029 90.88 100.671 88.949 100.713L80.64 91.5669L129.979 65.133C155.141 51.547 180.396 37.118 207.4 27.453C217.185 23.951 226.85 22.29 236.788 19.654L237.746 19.3949L245.843 22.4109C247.535 23.1949 249.551 24.3099 251.408 24.5459C256.085 25.1389 261.725 24 266.502 23.913C277.445 23.715 288.437 24.356 299.331 25.366C304.06 25.804 309.445 26.057 314.016 27.357L315.651 28.0659Z" fill="white"/>
<path d="M578.66 266.684C579.488 266.52 580.306 266.577 581.15 266.579C581.492 266.963 581.866 267.332 582.08 267.812C582.676 269.147 582.278 270.389 581.888 271.684C580.851 272.945 580.152 273.318 578.65 273.963C577.7 274.229 577.184 274.228 576.218 274.184C575.631 273.067 575.388 272.787 575.483 271.54C575.671 269.086 576.883 268.161 578.66 266.684Z" fill="#4B5563"/>
<path d="M653.433 219.914C654.707 219.462 654.907 219.53 656.241 219.831C657.152 221.123 657.361 221.42 657.322 222.997C657.273 224.963 656.017 226.174 654.65 227.419C653.518 228.026 653.29 228.091 652.007 228.062C651.18 226.865 650.896 226.051 650.971 224.57C651.071 222.564 652.053 221.267 653.433 219.914Z" fill="#4B5563"/>
<path d="M768.798 396.104L768.568 393.414C774.354 388.479 780.643 384.284 786.931 380.026L819.217 359.479C822.201 357.666 825.965 354.477 829.15 353.425C830.825 352.872 832.093 353.789 833.623 354.415L768.798 396.104Z" fill="#D1D5DB"/>
<path d="M420.122 296.167C420.468 297.348 420.645 298.449 420.806 299.664C420.037 302.204 418.333 303.52 416.453 305.266C415.034 304.995 411.882 304.748 410.747 304.039C408.923 302.9 406.951 297.113 406.207 295.005C406.123 294.767 405.571 293.014 405.501 292.956C405.322 292.81 405.041 292.996 404.811 293.016C396.012 293.804 386.496 296.583 377.654 295.727C375.389 295.507 373.26 294.75 371.315 293.57C366.817 290.841 364.983 287.061 363.873 282.083C363.262 279.343 362.393 273.372 363.937 270.938L364.324 271.671C363.807 275.973 364.24 282.138 367.012 285.628C368.536 287.547 370.129 288.469 372.4 289.256L373.146 289.519C378.962 291.471 386.035 290.865 392.045 290.328L409.332 288.63C409.469 288.616 409.634 288.502 409.743 288.586C411.365 289.831 413.509 293.917 414.504 295.836C415.205 297.19 415.699 298.534 415.97 300.04L417.46 299.914L417.092 300.649C416.586 301.733 416.73 301.29 416.65 302.518C418.207 302.368 418.691 301.478 419.797 300.414L420.122 296.167Z" fill="#4B5563"/>
<path d="M364.324 271.671C364.742 272.387 364.851 272.941 365.622 273.287C370.768 275.594 374.948 278.336 380.619 279.392C387.044 280.59 393.866 280.207 400.381 280.156C404.001 280.127 408.069 279.568 411.4 281.148L412.023 281.435C414.283 282.522 415.215 283.702 416.382 285.841L416.826 286.617C416.404 288.184 415.665 289.587 416.38 291.165C416.777 292.04 417.931 293.915 418.791 294.308L420.122 296.167L419.797 300.414C418.691 301.478 418.207 302.368 416.65 302.518C416.73 301.29 416.586 301.733 417.092 300.649L417.46 299.914L415.97 300.04C415.699 298.534 415.205 297.19 414.504 295.836C413.509 293.917 411.365 289.831 409.743 288.586C409.634 288.502 409.469 288.616 409.332 288.63L392.045 290.328C386.035 290.865 378.962 291.471 373.146 289.519L372.4 289.256C370.129 288.469 368.536 287.547 367.012 285.628C364.24 282.138 363.807 275.973 364.324 271.671Z" fill="#D1D5DB"/>
<path d="M722.956 285.173C719.99 284.474 717.96 284.613 715.114 285.779C711.523 287.251 708.084 289.722 704.777 291.759L687.044 302.764C679.941 307.194 672.005 311.328 665.284 316.274C663.955 317.252 662.829 318.441 662.237 320.001C661.749 321.29 662.144 320.564 661.4 321.68C659.766 320.838 658.45 319.381 657.122 318.121C662.273 309.691 704.766 285.344 714.772 282.039C718.722 280.735 721.524 282.073 724.934 283.915L722.956 285.173Z" fill="white"/>
<path d="M161.25 153.09L58.9409 108.46C65.3119 108.96 71.3369 110.526 77.5479 111.914L99.8529 116.307C107.631 117.768 115.448 119.308 123.4 119.138C143.755 118.702 163.177 111.835 182.225 105.4C193.129 101.717 202.818 97.9565 214.423 97.3185C231.569 96.3755 248.995 103.049 264.032 110.66C267.242 112.286 271.338 113.955 273.976 116.433C275.724 118.076 275.617 119.205 275.658 121.49L275.17 121.343C266.535 118.666 258.222 114.627 249.65 111.684C239.05 108.044 227.435 105.987 216.258 107.134C200.994 108.699 187.906 118.886 176.641 128.53C171.773 132.698 166.565 137.157 162.518 142.142C161.146 143.831 159.298 146.444 159.67 148.772C159.906 150.245 160.608 151.75 161.25 153.09Z" fill="#D1D5DB"/>
</svg>
