<svg width="513" height="439" viewBox="0 0 513 439" fill="none" xmlns="http://www.w3.org/2000/svg">
<path d="M0.915283 47.5513H385.224V253.834C385.224 255.741 383.318 257.286 380.966 257.286H5.17355C2.82177 257.286 0.915283 255.741 0.915283 253.834V47.5513Z" fill="#E1EFFE"/>
<path d="M0.915283 47.5513H385.224V253.834C385.224 255.741 383.318 257.286 380.966 257.286H5.17355C2.82177 257.286 0.915283 255.741 0.915283 253.834V47.5513Z" fill="url(#paint0_linear_7583_142043)"/>
<path d="M0.915527 38.211C0.915527 36.3351 2.82202 34.8145 5.1738 34.8145H380.966C383.318 34.8145 385.225 36.3351 385.225 38.211V47.5514H0.915527V38.211Z" fill="#E1EFFE"/>
<path fill-rule="evenodd" clip-rule="evenodd" d="M0.915527 47.5513H385.225V49.2495H0.915527V47.5513Z" fill="#A4CAFE"/>
<path d="M13.0006 40.6087C13.0006 41.9801 11.9185 43.0918 10.5837 43.0918C9.24883 43.0918 8.16675 41.9801 8.16675 40.6087C8.16675 39.2372 9.24883 38.1255 10.5837 38.1255C11.9185 38.1255 13.0006 39.2372 13.0006 40.6087Z" fill="#F9FAFB"/>
<path d="M21.8631 40.6087C21.8631 41.9801 20.781 43.0918 19.4462 43.0918C18.1114 43.0918 17.0293 41.9801 17.0293 40.6087C17.0293 39.2372 18.1114 38.1255 19.4462 38.1255C20.781 38.1255 21.8631 39.2372 21.8631 40.6087Z" fill="#F9FAFB"/>
<path d="M30.7237 40.6087C30.7237 41.9801 29.6416 43.0918 28.3068 43.0918C26.972 43.0918 25.8899 41.9801 25.8899 40.6087C25.8899 39.2372 26.972 38.1255 28.3068 38.1255C29.6416 38.1255 30.7237 39.2372 30.7237 40.6087Z" fill="#F9FAFB"/>
<path d="M50.5973 88.3087C28.8524 89.6816 49.5108 135.748 61.9898 150.645C69.1965 138.558 86.8048 113.059 99.5844 107.767C115.559 101.152 117.846 81.984 86.4387 76.5968C61.3128 72.2871 52.0762 79.2073 50.5973 88.3087Z" fill="#111928"/>
<path d="M43.8878 177.892L65.7069 128.669L85.6933 139.547L72.8142 186.383L43.8878 177.892Z" fill="#FDBA8C"/>
<path d="M43.8878 177.892L65.7069 128.669L85.6933 139.547L72.8142 186.383L43.8878 177.892Z" fill="url(#paint1_linear_7583_142043)"/>
<path d="M89.9261 153.683C103.472 152.43 103.811 117.324 102.287 99.9267C92.6462 96.7831 80.4096 122.995 76.5312 115.624C72.6529 108.254 63.3644 107.406 61.3634 115.258C59.3623 123.11 72.9936 155.249 89.9261 153.683Z" fill="#FDBA8C"/>
<path d="M93.5426 121.282C93.232 122.204 93.7083 123.211 94.6063 123.53C95.5043 123.849 96.4841 123.36 96.7946 122.437C97.1052 121.515 96.6289 120.508 95.7309 120.189C94.8329 119.87 93.8531 120.359 93.5426 121.282Z" fill="#111928"/>
<path fill-rule="evenodd" clip-rule="evenodd" d="M97.5205 115.608C98.6649 116.031 99.4304 116.861 100.077 117.877C100.327 118.27 100.839 118.38 101.222 118.123C101.604 117.867 101.712 117.34 101.462 116.947C100.715 115.773 99.6986 114.606 98.0805 114.008C96.4709 113.413 94.402 113.431 91.6426 114.322C91.2067 114.463 90.9644 114.94 91.1014 115.388C91.2383 115.836 91.7027 116.084 92.1386 115.944C94.6936 115.119 96.3676 115.182 97.5205 115.608Z" fill="#111928"/>
<path fill-rule="evenodd" clip-rule="evenodd" d="M102.043 121.811C101.586 121.803 101.21 122.177 101.202 122.646L101.01 134.339C101.006 134.547 100.816 134.7 100.618 134.653L95.8661 133.532C95.4208 133.426 94.9769 133.712 94.8746 134.17C94.7723 134.627 95.0503 135.083 95.4956 135.188L100.248 136.31C101.471 136.599 102.643 135.657 102.664 134.367L102.856 122.675C102.864 122.206 102.5 121.819 102.043 121.811Z" fill="#111928"/>
<path fill-rule="evenodd" clip-rule="evenodd" d="M93.0591 140.006C92.0881 139.586 91.1145 138.966 89.6413 137.978C89.2587 137.721 88.7461 137.832 88.4963 138.225C88.2464 138.618 88.354 139.144 88.7365 139.401C90.197 140.381 91.2887 141.085 92.4171 141.573C93.5666 142.07 94.7207 142.331 96.309 142.49C96.7637 142.536 97.1684 142.194 97.2129 141.727C97.2575 141.26 96.9249 140.844 96.4702 140.798C94.9883 140.649 94.0089 140.417 93.0591 140.006Z" fill="#111928"/>
<path fill-rule="evenodd" clip-rule="evenodd" d="M66.0844 120.103C65.8028 118.887 66.0602 117.775 66.5343 116.663C66.7176 116.233 66.527 115.732 66.1085 115.543C65.69 115.355 65.2021 115.551 65.0188 115.981C64.4712 117.265 64.0766 118.778 64.4748 120.497C64.8709 122.206 66.0177 123.976 68.2534 125.861C68.6066 126.159 69.1279 126.106 69.4177 125.743C69.7076 125.381 69.6563 124.845 69.3032 124.547C67.2331 122.801 66.3681 121.328 66.0844 120.103Z" fill="#111928"/>
<path d="M4.63284 257.286H179.018C151.745 226.718 75.7094 176.619 49.6755 171.1C28.8484 166.684 8.21422 193.602 0.500488 207.612V253.041C0.500488 255.385 2.3506 257.286 4.63284 257.286Z" fill="#F9FAFB"/>
<path d="M4.63284 257.286H179.018C151.745 226.718 75.7094 176.619 49.6755 171.1C28.8484 166.684 8.21422 193.602 0.500488 207.612V253.041C0.500488 255.385 2.3506 257.286 4.63284 257.286Z" fill="url(#paint2_linear_7583_142043)"/>
<path d="M194.139 173.184C194.529 171.703 195.837 170.675 197.33 170.675H347.845C350.022 170.675 351.605 172.799 351.036 174.958L330.018 254.777C329.628 256.258 328.32 257.286 326.827 257.286H176.312C174.135 257.286 172.553 255.162 173.121 253.003L194.139 173.184Z" fill="#F9FAFB"/>
<path fill-rule="evenodd" clip-rule="evenodd" d="M312.311 189.355H223.874C223.126 189.355 222.472 189.871 222.278 190.612L210.25 236.465C209.967 237.544 210.758 238.605 211.846 238.605H300.283C301.03 238.605 301.685 238.09 301.879 237.349L313.907 191.496C314.19 190.416 313.399 189.355 312.311 189.355ZM223.874 187.657C222.379 187.657 221.07 188.687 220.682 190.17L208.654 236.023C208.088 238.181 209.67 240.303 211.846 240.303H300.283C301.778 240.303 303.086 239.273 303.475 237.791L315.503 191.938C316.069 189.779 314.486 187.657 312.311 187.657H223.874Z" fill="#A4CAFE"/>
<path fill-rule="evenodd" clip-rule="evenodd" d="M79.6603 0C78.1631 0 76.9495 1.24695 76.9495 2.78514V57.0953C76.9495 58.6335 78.1631 59.8805 79.6603 59.8805H96.6029V68.36C96.6029 69.4094 97.6898 70.0817 98.5925 69.5907L116.445 59.8805H221.978C223.475 59.8805 224.689 58.6335 224.689 57.0953V2.78514C224.689 1.24695 223.475 0 221.978 0H79.6603Z" fill="#A4CAFE"/>
<path d="M113.398 29.9556C113.398 29.1865 114.005 28.563 114.754 28.563H186.055C186.804 28.563 187.41 29.1865 187.41 29.9556V29.9556C187.41 30.7247 186.804 31.3481 186.055 31.3481H114.754C114.005 31.3481 113.398 30.7247 113.398 29.9556V29.9556Z" fill="#76A9FA"/>
<path d="M113.315 229.265H497.624V435.548C497.624 437.454 495.718 439 493.366 439H117.573C115.222 439 113.315 437.454 113.315 435.548V229.265Z" fill="#E1EFFE"/>
<path d="M113.315 229.265H497.624V435.548C497.624 437.454 495.718 439 493.366 439H117.573C115.222 439 113.315 437.454 113.315 435.548V229.265Z" fill="url(#paint3_linear_7583_142043)"/>
<path d="M113.316 219.925C113.316 218.049 115.223 216.528 117.574 216.528H493.367C495.719 216.528 497.625 218.049 497.625 219.925V229.265H113.316V219.925Z" fill="#E1EFFE"/>
<path d="M113.316 219.925C113.316 218.049 115.223 216.528 117.574 216.528H493.367C495.719 216.528 497.625 218.049 497.625 219.925V229.265H113.316V219.925Z" fill="url(#paint4_linear_7583_142043)"/>
<path fill-rule="evenodd" clip-rule="evenodd" d="M113.316 228.416H497.625V230.114H113.316V228.416Z" fill="#A4CAFE"/>
<path d="M125.4 222.323C125.4 223.694 124.318 224.806 122.983 224.806C121.648 224.806 120.566 223.694 120.566 222.323C120.566 220.951 121.648 219.839 122.983 219.839C124.318 219.839 125.4 220.951 125.4 222.323Z" fill="#A4CAFE"/>
<path d="M134.262 222.323C134.262 223.694 133.18 224.806 131.845 224.806C130.511 224.806 129.428 223.694 129.428 222.323C129.428 220.951 130.511 219.839 131.845 219.839C133.18 219.839 134.262 220.951 134.262 222.323Z" fill="#A4CAFE"/>
<path d="M143.125 222.323C143.125 223.694 142.043 224.806 140.708 224.806C139.373 224.806 138.291 223.694 138.291 222.323C138.291 220.951 139.373 219.839 140.708 219.839C142.043 219.839 143.125 220.951 143.125 222.323Z" fill="#A4CAFE"/>
<path d="M512.5 371.07L453.82 439H483.322C502.255 416.623 510.663 384.39 512.5 371.07Z" fill="#E1EFFE"/>
<path d="M512.5 371.07L453.82 439H483.322C502.255 416.623 510.663 384.39 512.5 371.07Z" fill="url(#paint5_linear_7583_142043)"/>
<path d="M499.69 352.389L424.895 439H462.499C486.632 410.47 497.348 369.372 499.69 352.389Z" fill="#E1EFFE"/>
<path d="M499.69 352.389L424.895 439H462.499C486.632 410.47 497.348 369.372 499.69 352.389Z" fill="url(#paint6_linear_7583_142043)"/>
<path d="M173.807 395.742H219.248L211.251 439H165.809L173.807 395.742Z" fill="#A4CAFE"/>
<path d="M173.807 395.742H219.248L211.251 439H165.809L173.807 395.742Z" fill="url(#paint7_linear_7583_142043)"/>
<path d="M271.172 435.604C271.172 434.666 270.432 433.905 269.519 433.905H181.087C180.174 433.905 179.434 434.666 179.434 435.604V437.302C179.434 438.24 180.174 439 181.087 439H269.519C270.432 439 271.172 438.24 271.172 437.302V435.604Z" fill="#E1EFFE"/>
<path d="M282.959 277.637C282.572 276.151 281.262 275.118 279.766 275.118H62.4282C60.2551 275.118 58.6731 277.236 59.2347 279.392L89.956 397.383C90.3428 398.868 91.6529 399.901 93.1496 399.901H310.487C312.66 399.901 314.242 397.784 313.681 395.627L282.959 277.637Z" fill="#F9FAFB"/>
<path fill-rule="evenodd" clip-rule="evenodd" d="M136.106 304.269H224.735C225.483 304.269 226.139 304.786 226.332 305.529L238.403 351.977C238.683 353.055 237.892 354.113 236.806 354.113H148.178C147.429 354.113 146.774 353.596 146.581 352.853L134.51 306.405C134.229 305.327 135.02 304.269 136.106 304.269ZM224.735 302.57C226.232 302.57 227.542 303.604 227.929 305.091L240 351.538C240.56 353.695 238.978 355.811 236.806 355.811H148.178C146.68 355.811 145.37 354.777 144.984 353.291L132.913 306.843C132.352 304.687 133.934 302.57 136.106 302.57H224.735Z" fill="#A4CAFE"/>
<path fill-rule="evenodd" clip-rule="evenodd" d="M309.703 380.353H85.5217L85.9549 382.016H310.137L309.703 380.353Z" fill="#A4CAFE"/>
<path fill-rule="evenodd" clip-rule="evenodd" d="M336.857 222.472C338.354 222.472 339.567 223.719 339.567 225.257V279.568C339.567 281.106 338.354 282.353 336.857 282.353H319.914V290.832C319.914 291.882 318.827 292.554 317.924 292.063L300.072 282.353H194.539C193.041 282.353 191.828 281.106 191.828 279.568V225.257C191.828 223.719 193.041 222.472 194.539 222.472H336.857Z" fill="#A4CAFE"/>
<path d="M303.118 246.079C303.118 245.31 302.511 244.687 301.763 244.687H230.461C229.713 244.687 229.106 245.31 229.106 246.079V246.079C229.106 246.848 229.713 247.472 230.461 247.472H301.763C302.511 247.472 303.118 246.848 303.118 246.079V246.079Z" fill="#76A9FA"/>
<path d="M290.761 258.774C290.761 258.005 290.154 257.381 289.406 257.381H230.248C229.5 257.381 228.893 258.005 228.893 258.774V258.774C228.893 259.543 229.5 260.166 230.248 260.166H289.406C290.154 260.166 290.761 259.543 290.761 258.774V258.774Z" fill="#76A9FA"/>
<path d="M390.596 191.479C376.381 197.933 369.521 212.566 367.868 219.076L378.612 235.209L407.539 276.816C408.365 280.213 410.431 291.676 423.655 291.676C436.878 291.676 448.862 298.894 451.755 304.838C454.372 302.715 458.615 294.309 454.648 277.666C449.689 256.862 425.721 245.824 426.548 225.444C427.374 205.065 408.365 183.413 390.596 191.479Z" fill="#111928"/>
<path d="M398.859 292.526L384.396 258.56C387.564 247.239 394.396 229.096 396.38 247.097C398.363 265.099 410.705 280.072 416.628 285.308L398.859 292.526Z" fill="#FDBA8C"/>
<path d="M398.859 292.526L384.396 258.56C387.564 247.239 394.396 229.096 396.38 247.097C398.363 265.099 410.705 280.072 416.628 285.308L398.859 292.526Z" fill="url(#paint8_linear_7583_142043)"/>
<path d="M373.24 261.532C362.991 253.38 365.388 229.831 367.867 219.075C374.066 210.16 378.198 217.802 385.637 226.718C393.075 235.633 397.207 229.265 400.1 227.991C402.993 226.718 407.125 229.689 404.232 237.332C401.34 244.974 386.05 271.721 373.24 261.532Z" fill="#FDBA8C"/>
<path d="M375.458 232.623C375.87 233.467 375.537 234.494 374.716 234.917C373.894 235.34 372.894 234.999 372.483 234.154C372.071 233.31 372.403 232.283 373.225 231.86C374.046 231.437 375.046 231.779 375.458 232.623Z" fill="#111928"/>
<path fill-rule="evenodd" clip-rule="evenodd" d="M372.479 226.955C371.335 227.237 370.513 227.952 369.787 228.858C369.506 229.209 369.002 229.259 368.661 228.97C368.319 228.682 368.271 228.164 368.551 227.813C369.39 226.766 370.488 225.755 372.105 225.356C373.714 224.96 375.701 225.202 378.262 226.359C378.666 226.542 378.85 227.027 378.672 227.443C378.494 227.858 378.022 228.047 377.618 227.864C375.247 226.793 373.631 226.671 372.479 226.955Z" fill="#111928"/>
<path fill-rule="evenodd" clip-rule="evenodd" d="M367.302 234.114C367.742 234.146 368.074 234.539 368.043 234.992L367.265 246.274C367.251 246.475 367.421 246.639 367.616 246.611L372.287 245.944C372.724 245.881 373.129 246.195 373.189 246.645C373.25 247.095 372.945 247.51 372.507 247.572L367.836 248.24C366.634 248.411 365.583 247.402 365.668 246.158L366.447 234.876C366.478 234.423 366.861 234.082 367.302 234.114Z" fill="#111928"/>
<path fill-rule="evenodd" clip-rule="evenodd" d="M370.722 258.915C369.253 256.949 368.168 254.554 367.391 251.904L378.495 250.12C378.068 254.994 374.549 257.907 370.722 258.915Z" fill="white"/>
<path fill-rule="evenodd" clip-rule="evenodd" d="M400.634 235.661C400.754 234.459 400.369 233.426 399.778 232.421C399.549 232.033 399.67 231.527 400.048 231.292C400.426 231.057 400.918 231.181 401.146 231.57C401.83 232.73 402.395 234.129 402.226 235.829C402.057 237.52 401.176 239.365 399.265 241.465C398.963 241.796 398.457 241.814 398.134 241.504C397.812 241.194 397.795 240.673 398.096 240.342C399.866 238.398 400.513 236.872 400.634 235.661Z" fill="#111928"/>
<path d="M448.579 432.774L437.291 427.537H387.703C370.512 372.853 386.601 318.424 396.794 298.045V291.588C396.794 290.876 397.226 290.24 397.877 289.994L416.223 283.07C416.736 282.876 417.309 282.956 417.753 283.282L422.828 287.006C450.101 294.224 459.606 304.413 463.738 348.143C466.926 381.878 456.793 417.008 450.755 431.909C450.401 432.782 449.417 433.163 448.579 432.774Z" fill="#F9FAFB"/>
<path fill-rule="evenodd" clip-rule="evenodd" d="M405.885 427.537H387.703C380.285 403.941 379.064 380.393 380.891 359.607H418.696L403.406 412.253L405.885 413.527V427.537Z" fill="url(#paint9_linear_7583_142043)"/>
<path fill-rule="evenodd" clip-rule="evenodd" d="M421.855 286.292L422.828 287.006C422.897 287.024 422.966 287.042 423.035 287.061L396.615 298.404C396.675 298.283 396.735 298.163 396.794 298.045V297.052L421.855 286.292Z" fill="#A4CAFE"/>
<path d="M400.513 421.593L405.885 413.526L439.357 428.386C432.084 436.198 425.307 438.859 422.828 439H248.856C249.82 436.594 253.98 430.764 262.906 428.386C271.832 426.009 290.042 427.395 298.031 428.386L400.513 421.593Z" fill="#FDBA8C"/>
<path d="M400.513 421.593L405.885 413.526L439.357 428.386C432.084 436.198 425.307 438.859 422.828 439H248.856C249.82 436.594 253.98 430.764 262.906 428.386C271.832 426.009 290.042 427.395 298.031 428.386L400.513 421.593Z" fill="url(#paint10_linear_7583_142043)"/>
<defs>
<linearGradient id="paint0_linear_7583_142043" x1="193.07" y1="415.235" x2="193.07" y2="36.7624" gradientUnits="userSpaceOnUse">
<stop stop-color="#A4CAFE"/>
<stop offset="1" stop-color="#A4CAFE" stop-opacity="0"/>
</linearGradient>
<linearGradient id="paint1_linear_7583_142043" x1="115.917" y1="123.125" x2="65.7036" y2="171.482" gradientUnits="userSpaceOnUse">
<stop stop-color="#7F270F"/>
<stop offset="1" stop-color="#7F270F" stop-opacity="0"/>
</linearGradient>
<linearGradient id="paint2_linear_7583_142043" x1="74.8829" y1="401.638" x2="33.3194" y2="192.787" gradientUnits="userSpaceOnUse">
<stop stop-color="#A4CAFE"/>
<stop offset="1" stop-color="#A4CAFE" stop-opacity="0"/>
</linearGradient>
<linearGradient id="paint3_linear_7583_142043" x1="305.47" y1="596.949" x2="305.47" y2="218.476" gradientUnits="userSpaceOnUse">
<stop stop-color="#A4CAFE"/>
<stop offset="1" stop-color="#A4CAFE" stop-opacity="0"/>
</linearGradient>
<linearGradient id="paint4_linear_7583_142043" x1="77.7779" y1="179.591" x2="333.513" y2="308.114" gradientUnits="userSpaceOnUse">
<stop stop-color="#F9FAFB"/>
<stop offset="1" stop-color="#F9FAFB" stop-opacity="0"/>
</linearGradient>
<linearGradient id="paint5_linear_7583_142043" x1="445.969" y1="450.039" x2="494.273" y2="408.962" gradientUnits="userSpaceOnUse">
<stop stop-color="#A4CAFE"/>
<stop offset="1" stop-color="#A4CAFE" stop-opacity="0"/>
</linearGradient>
<linearGradient id="paint6_linear_7583_142043" x1="364.975" y1="423.716" x2="408.675" y2="360.643" gradientUnits="userSpaceOnUse">
<stop stop-color="#A4CAFE"/>
<stop offset="1" stop-color="#A4CAFE" stop-opacity="0"/>
</linearGradient>
<linearGradient id="paint7_linear_7583_142043" x1="173.646" y1="311.631" x2="164.12" y2="416.721" gradientUnits="userSpaceOnUse">
<stop stop-color="#1C64F2"/>
<stop offset="1" stop-color="#1C64F2" stop-opacity="0"/>
</linearGradient>
<linearGradient id="paint8_linear_7583_142043" x1="426.133" y1="221.198" x2="403.153" y2="295.673" gradientUnits="userSpaceOnUse">
<stop stop-color="#7F270F"/>
<stop offset="1" stop-color="#7F270F" stop-opacity="0"/>
</linearGradient>
<linearGradient id="paint9_linear_7583_142043" x1="382.184" y1="454.285" x2="349.736" y2="394.727" gradientUnits="userSpaceOnUse">
<stop stop-color="#A4CAFE"/>
<stop offset="1" stop-color="#A4CAFE" stop-opacity="0"/>
</linearGradient>
<linearGradient id="paint10_linear_7583_142043" x1="682.34" y1="426.263" x2="668.783" y2="487.401" gradientUnits="userSpaceOnUse">
<stop stop-color="#7F270F"/>
<stop offset="1" stop-color="#7F270F" stop-opacity="0"/>
</linearGradient>
</defs>
</svg>
