<svg width="513" height="439" viewBox="0 0 513 439" fill="none" xmlns="http://www.w3.org/2000/svg">
<path d="M0.913086 47.5513H385.223V253.834C385.223 255.741 383.317 257.286 380.965 257.286H5.17136C2.81958 257.286 0.913086 255.741 0.913086 253.834V47.5513Z" fill="#1E2936"/>
<path d="M0.913086 38.211C0.913086 36.3351 2.81958 34.8145 5.17137 34.8145H380.965C383.317 34.8145 385.223 36.3351 385.223 38.211V47.5514H0.913086V38.211Z" fill="#1E2936"/>
<path fill-rule="evenodd" clip-rule="evenodd" d="M0.913086 47.5513H385.223V49.2495H0.913086V47.5513Z" fill="#374151"/>
<path d="M12.9989 40.6087C12.9989 41.9801 11.9168 43.0918 10.582 43.0918C9.24713 43.0918 8.16504 41.9801 8.16504 40.6087C8.16504 39.2372 9.24713 38.1255 10.582 38.1255C11.9168 38.1255 12.9989 39.2372 12.9989 40.6087Z" fill="#374151"/>
<path d="M21.8602 40.6087C21.8602 41.9801 20.7781 43.0918 19.4433 43.0918C18.1085 43.0918 17.0264 41.9801 17.0264 40.6087C17.0264 39.2372 18.1085 38.1255 19.4433 38.1255C20.7781 38.1255 21.8602 39.2372 21.8602 40.6087Z" fill="#374151"/>
<path d="M30.7235 40.6087C30.7235 41.9801 29.6414 43.0918 28.3066 43.0918C26.9717 43.0918 25.8896 41.9801 25.8896 40.6087C25.8896 39.2372 26.9717 38.1255 28.3066 38.1255C29.6414 38.1255 30.7235 39.2372 30.7235 40.6087Z" fill="#374151"/>
<path d="M50.5986 88.3087C28.8536 89.6816 49.5121 135.748 61.9912 150.645C69.1978 138.558 86.8062 113.059 99.5859 107.767C115.561 101.152 117.847 81.984 86.4401 76.5968C61.3141 72.2871 52.0775 79.2073 50.5986 88.3087Z" fill="#111928"/>
<path d="M43.8895 177.892L65.7086 128.669L85.6951 139.547L72.816 186.383L43.8895 177.892Z" fill="#FDBA8C"/>
<path d="M43.8895 177.892L65.7086 128.669L85.6951 139.547L72.816 186.383L43.8895 177.892Z" fill="url(#paint0_linear_7585_144458)"/>
<path d="M89.924 153.683C103.47 152.43 103.809 117.324 102.285 99.9267C92.6441 96.7831 80.4074 122.995 76.5291 115.624C72.6507 108.254 63.3622 107.406 61.3612 115.258C59.3601 123.11 72.9914 155.249 89.924 153.683Z" fill="#FDBA8C"/>
<path d="M93.5421 121.281C93.2315 122.204 93.7078 123.211 94.6058 123.53C95.5038 123.849 96.4836 123.359 96.7941 122.437C97.1047 121.514 96.6285 120.507 95.7304 120.188C94.8324 119.869 93.8526 120.359 93.5421 121.281Z" fill="#111928"/>
<path fill-rule="evenodd" clip-rule="evenodd" d="M97.5187 115.607C98.6631 116.03 99.4287 116.86 100.075 117.876C100.325 118.269 100.838 118.38 101.22 118.123C101.603 117.866 101.71 117.339 101.46 116.946C100.713 115.773 99.6969 114.606 98.0788 114.008C96.4692 113.413 94.4003 113.431 91.6409 114.322C91.205 114.462 90.9626 114.939 91.0996 115.387C91.2366 115.835 91.701 116.084 92.1368 115.943C94.6919 115.118 96.3659 115.181 97.5187 115.607Z" fill="#111928"/>
<path fill-rule="evenodd" clip-rule="evenodd" d="M102.041 121.811C101.584 121.803 101.208 122.177 101.2 122.646L101.008 134.339C101.005 134.547 100.815 134.7 100.617 134.653L95.8644 133.532C95.4191 133.426 94.9752 133.712 94.8729 134.17C94.7706 134.627 95.0486 135.083 95.4939 135.188L100.246 136.31C101.47 136.599 102.641 135.657 102.662 134.367L102.854 122.675C102.862 122.206 102.498 121.819 102.041 121.811Z" fill="#111928"/>
<path fill-rule="evenodd" clip-rule="evenodd" d="M93.0579 140.006C92.0869 139.586 91.1133 138.966 89.6401 137.978C89.2575 137.721 88.7449 137.832 88.495 138.225C88.2452 138.618 88.3528 139.144 88.7353 139.401C90.1958 140.381 91.2875 141.085 92.4159 141.573C93.5654 142.07 94.7194 142.331 96.3078 142.49C96.7625 142.536 97.1672 142.194 97.2117 141.727C97.2563 141.26 96.9237 140.844 96.469 140.798C94.9871 140.649 94.0077 140.417 93.0579 140.006Z" fill="#111928"/>
<path fill-rule="evenodd" clip-rule="evenodd" d="M66.0822 120.102C65.8006 118.887 66.0581 117.774 66.5321 116.662C66.7154 116.232 66.5248 115.731 66.1063 115.543C65.6878 115.354 65.1999 115.55 65.0166 115.98C64.469 117.265 64.0744 118.777 64.4726 120.496C64.8687 122.206 66.0155 123.975 68.2512 125.861C68.6044 126.158 69.1257 126.106 69.4156 125.743C69.7054 125.38 69.6542 124.845 69.301 124.547C67.2309 122.801 66.3659 121.327 66.0822 120.102Z" fill="#111928"/>
<path d="M4.63334 257.286H179.019C151.746 226.717 75.71 176.619 49.6761 171.099C28.849 166.684 8.21472 193.601 0.500977 207.612V253.04C0.500977 255.385 2.35109 257.286 4.63334 257.286Z" fill="#F9FAFB"/>
<path d="M4.63334 257.286H179.019C151.746 226.717 75.71 176.619 49.6761 171.099C28.849 166.684 8.21472 193.601 0.500977 207.612V253.04C0.500977 255.385 2.35109 257.286 4.63334 257.286Z" fill="url(#paint1_linear_7585_144458)"/>
<path d="M194.139 173.184C194.529 171.703 195.837 170.675 197.33 170.675H347.846C350.023 170.675 351.605 172.799 351.037 174.958L330.019 254.777C329.629 256.258 328.321 257.286 326.828 257.286H176.313C174.136 257.286 172.553 255.162 173.121 253.003L194.139 173.184Z" fill="#374151"/>
<path fill-rule="evenodd" clip-rule="evenodd" d="M312.311 189.355H223.873C223.126 189.355 222.472 189.871 222.277 190.612L210.25 236.465C209.967 237.544 210.758 238.605 211.846 238.605H300.283C301.03 238.605 301.685 238.09 301.879 237.349L313.907 191.496C314.19 190.416 313.399 189.355 312.311 189.355ZM223.873 187.657C222.379 187.657 221.07 188.687 220.681 190.17L208.654 236.023C208.088 238.181 209.67 240.303 211.846 240.303H300.283C301.778 240.303 303.086 239.273 303.475 237.791L315.503 191.938C316.069 189.779 314.486 187.657 312.311 187.657H223.873Z" fill="#6B7280"/>
<path fill-rule="evenodd" clip-rule="evenodd" d="M79.661 0C78.1639 0 76.9502 1.24695 76.9502 2.78514V57.0953C76.9502 58.6335 78.1639 59.8805 79.661 59.8805H96.6037V68.36C96.6037 69.4094 97.6906 70.0817 98.5933 69.5907L116.445 59.8805H221.979C223.476 59.8805 224.69 58.6335 224.69 57.0953V2.78514C224.69 1.24695 223.476 0 221.979 0H79.661Z" fill="#374151"/>
<path d="M113.397 29.9556C113.397 29.1865 114.004 28.563 114.753 28.563H186.054C186.803 28.563 187.41 29.1865 187.41 29.9556V29.9556C187.41 30.7247 186.803 31.3481 186.054 31.3481H114.753C114.004 31.3481 113.397 30.7247 113.397 29.9556V29.9556Z" fill="#6B7280"/>
<path d="M113.313 229.265H497.623V435.548C497.623 437.454 495.717 439 493.365 439H117.572C115.22 439 113.313 437.454 113.313 435.548V229.265Z" fill="#1E2936"/>
<path d="M113.313 219.925C113.313 218.049 115.22 216.528 117.572 216.528H493.365C495.717 216.528 497.623 218.049 497.623 219.925V229.265H113.313V219.925Z" fill="#1E2936"/>
<path fill-rule="evenodd" clip-rule="evenodd" d="M113.313 228.416H497.623V230.114H113.313V228.416Z" fill="#374151"/>
<path d="M125.399 222.323C125.399 223.694 124.317 224.806 122.982 224.806C121.648 224.806 120.565 223.694 120.565 222.323C120.565 220.951 121.648 219.839 122.982 219.839C124.317 219.839 125.399 220.951 125.399 222.323Z" fill="#374151"/>
<path d="M134.261 222.323C134.261 223.694 133.178 224.806 131.844 224.806C130.509 224.806 129.427 223.694 129.427 222.323C129.427 220.951 130.509 219.839 131.844 219.839C133.178 219.839 134.261 220.951 134.261 222.323Z" fill="#374151"/>
<path d="M143.124 222.323C143.124 223.694 142.042 224.806 140.707 224.806C139.372 224.806 138.29 223.694 138.29 222.323C138.29 220.951 139.372 219.839 140.707 219.839C142.042 219.839 143.124 220.951 143.124 222.323Z" fill="#374151"/>
<path d="M512.499 371.07L453.819 439.001H483.321C502.254 416.624 510.662 384.39 512.499 371.07Z" fill="#1E2936"/>
<path d="M499.689 352.389L424.894 439H462.498C486.631 410.47 497.348 369.372 499.689 352.389Z" fill="#374151"/>
<path d="M173.805 395.742H219.247L211.25 439H165.808L173.805 395.742Z" fill="#A4CAFE"/>
<path d="M173.805 395.742H219.247L211.25 439H165.808L173.805 395.742Z" fill="url(#paint2_linear_7585_144458)"/>
<path d="M271.169 435.604C271.169 434.666 270.429 433.905 269.516 433.905H181.083C180.17 433.905 179.43 434.666 179.43 435.604V437.302C179.43 438.24 180.17 439 181.083 439H269.516C270.429 439 271.169 438.24 271.169 437.302V435.604Z" fill="#E1EFFE"/>
<path d="M282.956 277.637C282.57 276.151 281.26 275.118 279.763 275.118H62.4249C60.2518 275.118 58.6698 277.236 59.2314 279.392L89.9528 397.383C90.3396 398.868 91.6497 399.901 93.1464 399.901H310.484C312.657 399.901 314.239 397.784 313.678 395.627L282.956 277.637Z" fill="#374151"/>
<path fill-rule="evenodd" clip-rule="evenodd" d="M136.105 304.269H224.734C225.482 304.269 226.137 304.786 226.331 305.529L238.402 351.977C238.682 353.055 237.891 354.113 236.805 354.113H148.176C147.427 354.113 146.772 353.596 146.579 352.853L134.508 306.405C134.228 305.327 135.019 304.269 136.105 304.269ZM224.734 302.571C226.231 302.571 227.541 303.605 227.928 305.091L239.999 351.539C240.559 353.695 238.977 355.812 236.805 355.812H148.176C146.679 355.812 145.368 354.778 144.982 353.291L132.911 306.844C132.351 304.687 133.933 302.571 136.105 302.571H224.734Z" fill="#4A5463"/>
<path fill-rule="evenodd" clip-rule="evenodd" d="M309.701 380.353H85.5186L85.9518 382.016H310.134L309.701 380.353Z" fill="#6B7280"/>
<path fill-rule="evenodd" clip-rule="evenodd" d="M336.859 222.472C338.356 222.472 339.569 223.719 339.569 225.257V279.568C339.569 281.106 338.356 282.353 336.859 282.353H319.916V290.832C319.916 291.882 318.829 292.554 317.926 292.063L300.074 282.353H194.54C193.043 282.353 191.829 281.106 191.829 279.568V225.257C191.829 223.719 193.043 222.472 194.54 222.472H336.859Z" fill="#374151"/>
<path d="M303.118 246.079C303.118 245.31 302.511 244.687 301.763 244.687H230.461C229.713 244.687 229.106 245.31 229.106 246.079V246.079C229.106 246.848 229.713 247.472 230.461 247.472H301.763C302.511 247.472 303.118 246.848 303.118 246.079V246.079Z" fill="#6B7280"/>
<path d="M290.765 258.774C290.765 258.005 290.158 257.382 289.409 257.382H230.252C229.503 257.382 228.896 258.005 228.896 258.774V258.774C228.896 259.543 229.503 260.167 230.252 260.167H289.409C290.158 260.167 290.765 259.543 290.765 258.774V258.774Z" fill="#6B7280"/>
<path d="M390.596 191.479C376.381 197.933 369.521 212.566 367.868 219.076L378.612 235.209L407.539 276.816C408.365 280.213 410.432 291.676 423.655 291.676C436.879 291.676 448.863 298.894 451.755 304.838C454.372 302.715 458.615 294.309 454.648 277.666C449.689 256.862 425.721 245.824 426.548 225.444C427.374 205.065 408.365 183.413 390.596 191.479Z" fill="#374151"/>
<path d="M398.861 292.526L384.397 258.56C387.566 247.239 394.398 229.096 396.381 247.097C398.365 265.099 410.707 280.072 416.63 285.308L398.861 292.526Z" fill="#FDBA8C"/>
<path d="M398.861 292.526L384.397 258.56C387.566 247.239 394.398 229.096 396.381 247.097C398.365 265.099 410.707 280.072 416.63 285.308L398.861 292.526Z" fill="url(#paint3_linear_7585_144458)"/>
<path d="M373.239 261.532C362.991 253.38 365.388 229.831 367.867 219.075C374.065 210.16 378.198 217.802 385.636 226.718C393.075 235.633 397.207 229.265 400.1 227.991C402.992 226.718 407.125 229.689 404.232 237.332C401.339 244.974 386.049 271.721 373.239 261.532Z" fill="#FDBA8C"/>
<path d="M375.458 232.623C375.87 233.467 375.538 234.494 374.716 234.917C373.894 235.34 372.894 234.999 372.483 234.154C372.071 233.31 372.403 232.283 373.225 231.86C374.047 231.437 375.046 231.779 375.458 232.623Z" fill="#111928"/>
<path fill-rule="evenodd" clip-rule="evenodd" d="M372.478 226.955C371.334 227.237 370.512 227.952 369.786 228.858C369.505 229.209 369.001 229.259 368.66 228.97C368.319 228.682 368.27 228.164 368.551 227.813C369.39 226.766 370.487 225.755 372.104 225.356C373.713 224.96 375.7 225.202 378.261 226.359C378.666 226.542 378.849 227.027 378.671 227.443C378.494 227.858 378.021 228.047 377.617 227.864C375.246 226.793 373.63 226.671 372.478 226.955Z" fill="#111928"/>
<path fill-rule="evenodd" clip-rule="evenodd" d="M367.302 234.114C367.742 234.146 368.074 234.539 368.043 234.992L367.265 246.274C367.251 246.475 367.421 246.639 367.616 246.611L372.287 245.944C372.724 245.881 373.129 246.195 373.189 246.645C373.25 247.095 372.945 247.51 372.507 247.572L367.836 248.24C366.634 248.411 365.583 247.402 365.668 246.158L366.447 234.876C366.478 234.423 366.861 234.082 367.302 234.114Z" fill="#111928"/>
<path fill-rule="evenodd" clip-rule="evenodd" d="M370.722 258.916C369.253 256.95 368.168 254.555 367.392 251.904L378.495 250.12C378.068 254.995 374.549 257.908 370.722 258.916Z" fill="white"/>
<path fill-rule="evenodd" clip-rule="evenodd" d="M400.634 235.661C400.754 234.459 400.37 233.426 399.778 232.421C399.549 232.033 399.67 231.527 400.048 231.292C400.426 231.057 400.918 231.181 401.147 231.57C401.83 232.73 402.395 234.129 402.226 235.829C402.057 237.52 401.176 239.365 399.265 241.465C398.964 241.796 398.457 241.814 398.135 241.504C397.812 241.194 397.795 240.673 398.097 240.342C399.866 238.398 400.513 236.872 400.634 235.661Z" fill="#111928"/>
<path d="M448.579 432.774L437.292 427.537H387.703C370.513 372.853 386.601 318.424 396.794 298.045V291.588C396.794 290.876 397.227 290.24 397.877 289.994L416.223 283.07C416.736 282.876 417.309 282.956 417.754 283.282L422.828 287.006C450.102 294.224 459.606 304.413 463.739 348.143C466.927 381.878 456.794 417.008 450.755 431.909C450.402 432.782 449.418 433.163 448.579 432.774Z" fill="#F9FAFB"/>
<path fill-rule="evenodd" clip-rule="evenodd" d="M405.886 427.537H387.703C380.286 403.941 379.064 380.393 380.892 359.607H418.696L403.406 412.253L405.886 413.527V427.537Z" fill="url(#paint4_linear_7585_144458)"/>
<path fill-rule="evenodd" clip-rule="evenodd" d="M421.856 286.292L422.829 287.006C422.898 287.025 422.967 287.043 423.036 287.061L396.616 298.405C396.676 298.284 396.736 298.164 396.795 298.045V297.053L421.856 286.292Z" fill="#A4CAFE"/>
<path d="M400.514 421.593L405.886 413.526L439.358 428.386C432.085 436.198 425.308 438.859 422.829 439H248.856C249.821 436.594 253.981 430.764 262.906 428.386C271.832 426.009 290.042 427.395 298.032 428.386L400.514 421.593Z" fill="#FDBA8C"/>
<path d="M400.514 421.593L405.886 413.526L439.358 428.386C432.085 436.198 425.308 438.859 422.829 439H248.856C249.821 436.594 253.981 430.764 262.906 428.386C271.832 426.009 290.042 427.395 298.032 428.386L400.514 421.593Z" fill="url(#paint5_linear_7585_144458)"/>
<defs>
<linearGradient id="paint0_linear_7585_144458" x1="115.918" y1="123.125" x2="65.7055" y2="171.482" gradientUnits="userSpaceOnUse">
<stop stop-color="#7F270F"/>
<stop offset="1" stop-color="#7F270F" stop-opacity="0"/>
</linearGradient>
<linearGradient id="paint1_linear_7585_144458" x1="74.8835" y1="401.638" x2="33.3202" y2="192.786" gradientUnits="userSpaceOnUse">
<stop stop-color="#A4CAFE"/>
<stop offset="1" stop-color="#A4CAFE" stop-opacity="0"/>
</linearGradient>
<linearGradient id="paint2_linear_7585_144458" x1="173.645" y1="311.631" x2="164.119" y2="416.721" gradientUnits="userSpaceOnUse">
<stop stop-color="#1C64F2"/>
<stop offset="1" stop-color="#1C64F2" stop-opacity="0"/>
</linearGradient>
<linearGradient id="paint3_linear_7585_144458" x1="426.134" y1="221.198" x2="403.155" y2="295.673" gradientUnits="userSpaceOnUse">
<stop stop-color="#7F270F"/>
<stop offset="1" stop-color="#7F270F" stop-opacity="0"/>
</linearGradient>
<linearGradient id="paint4_linear_7585_144458" x1="382.184" y1="454.285" x2="349.737" y2="394.727" gradientUnits="userSpaceOnUse">
<stop stop-color="#A4CAFE"/>
<stop offset="1" stop-color="#A4CAFE" stop-opacity="0"/>
</linearGradient>
<linearGradient id="paint5_linear_7585_144458" x1="682.341" y1="426.263" x2="668.785" y2="487.401" gradientUnits="userSpaceOnUse">
<stop stop-color="#7F270F"/>
<stop offset="1" stop-color="#7F270F" stop-opacity="0"/>
</linearGradient>
</defs>
</svg>
