<svg width="608" height="495" viewBox="0 0 608 495" fill="none" xmlns="http://www.w3.org/2000/svg">
<path fill-rule="evenodd" clip-rule="evenodd" d="M583.698 275.388C583.698 277.731 583.272 279.974 582.492 282.044C581.844 283.766 582.288 285.782 583.694 286.97C590.056 292.342 594.097 300.378 594.097 309.357C594.097 312.534 593.591 315.594 592.655 318.459C592.169 319.946 592.578 321.602 593.741 322.65C602.472 330.517 607.961 341.913 607.961 354.591C607.961 378.328 588.718 397.571 564.981 397.571C541.243 397.571 522 378.328 522 354.591C522 342.031 527.387 330.73 535.977 322.871C537.131 321.815 537.528 320.155 537.03 318.672C536.049 315.746 535.518 312.613 535.518 309.357C535.518 300.378 539.559 292.342 545.921 286.97C547.327 285.782 547.771 283.766 547.122 282.044C546.343 279.974 545.917 277.731 545.917 275.388C545.917 264.955 554.374 256.498 564.807 256.498C575.24 256.498 583.698 264.955 583.698 275.388Z" fill="#1F2A37"/>
<path fill-rule="evenodd" clip-rule="evenodd" d="M564.634 274.215C565.186 274.215 565.634 274.663 565.634 275.215L565.634 441.245C565.634 441.798 565.186 442.245 564.634 442.245C564.082 442.245 563.634 441.798 563.634 441.245L563.634 275.215C563.634 274.663 564.082 274.215 564.634 274.215Z" fill="#374151"/>
<path fill-rule="evenodd" clip-rule="evenodd" d="M584.28 349.271C584.729 349.592 584.833 350.217 584.512 350.666L565.448 377.356C565.127 377.805 564.502 377.909 564.053 377.588C563.604 377.267 563.5 376.643 563.821 376.193L582.885 349.504C583.206 349.054 583.83 348.95 584.28 349.271Z" fill="#374151"/>
<path fill-rule="evenodd" clip-rule="evenodd" d="M544.989 308.023C544.54 308.344 544.435 308.969 544.757 309.418L563.821 336.108C564.142 336.557 564.766 336.661 565.215 336.34C565.665 336.019 565.769 335.395 565.448 334.945L546.384 308.256C546.063 307.806 545.438 307.702 544.989 308.023Z" fill="#374151"/>
<path d="M537.689 417.336C537.64 416.199 538.549 415.249 539.688 415.249H589.927C591.066 415.249 591.975 416.199 591.925 417.336L588.635 492.365C588.588 493.435 587.707 494.278 586.637 494.278H542.978C541.908 494.278 541.027 493.435 540.98 492.365L537.689 417.336Z" fill="#374151"/>
<path d="M537.689 417.336C537.64 416.199 538.549 415.249 539.688 415.249H589.927C591.066 415.249 591.975 416.199 591.925 417.336L588.635 492.365C588.588 493.435 587.707 494.278 586.637 494.278H542.978C541.908 494.278 541.027 493.435 540.98 492.365L537.689 417.336Z" fill="url(#paint0_linear_182_7947)"/>
<path fill-rule="evenodd" clip-rule="evenodd" d="M24.2629 275.388C24.2629 277.731 24.6893 279.974 25.4687 282.044C26.1171 283.766 25.673 285.782 24.2672 286.97C17.905 292.342 13.8644 300.378 13.8644 309.357C13.8644 312.534 14.3703 315.594 15.306 318.459C15.7918 319.946 15.3825 321.602 14.2203 322.65C5.48885 330.517 -0.000366211 341.913 -0.000366211 354.591C-0.000366211 378.328 19.2427 397.571 42.9803 397.571C66.7179 397.571 85.9609 378.328 85.9609 354.591C85.9609 342.031 80.5739 330.73 71.9843 322.871C70.83 321.815 70.4334 320.155 70.9307 318.672C71.9115 315.746 72.4428 312.613 72.4428 309.357C72.4428 300.378 68.4022 292.342 62.04 286.97C60.6342 285.782 60.1901 283.766 60.8385 282.044C61.6179 279.974 62.0443 277.731 62.0443 275.388C62.0443 264.955 53.5867 256.498 43.1536 256.498C32.7205 256.498 24.2629 264.955 24.2629 275.388Z" fill="#1F2A37"/>
<path fill-rule="evenodd" clip-rule="evenodd" d="M43.3271 274.215C42.7749 274.215 42.3271 274.663 42.3271 275.215L42.3271 441.245C42.3271 441.798 42.7749 442.245 43.3271 442.245C43.8794 442.245 44.3271 441.798 44.3271 441.245L44.3271 275.215C44.3271 274.663 43.8794 274.215 43.3271 274.215Z" fill="#374151"/>
<path fill-rule="evenodd" clip-rule="evenodd" d="M23.6814 349.271C23.232 349.592 23.1279 350.217 23.4489 350.666L42.5129 377.356C42.8339 377.805 43.4584 377.909 43.9079 377.588C44.3573 377.267 44.4614 376.643 44.1404 376.193L25.0764 349.504C24.7553 349.054 24.1308 348.95 23.6814 349.271Z" fill="#374151"/>
<path fill-rule="evenodd" clip-rule="evenodd" d="M62.9719 308.023C63.4213 308.344 63.5254 308.969 63.2044 309.418L44.1404 336.108C43.8194 336.557 43.1949 336.661 42.7455 336.34C42.2961 336.019 42.192 335.395 42.513 334.945L61.577 308.256C61.898 307.806 62.5225 307.702 62.9719 308.023Z" fill="#374151"/>
<path d="M70.2715 417.336C70.3214 416.199 69.4124 415.249 68.2734 415.249H18.0336C16.8947 415.249 15.9856 416.199 16.0355 417.336L19.3263 492.365C19.3732 493.435 20.2539 494.278 21.3244 494.278H64.9827C66.0531 494.278 66.9338 493.435 66.9807 492.365L70.2715 417.336Z" fill="#374151"/>
<path d="M70.2715 417.336C70.3214 416.199 69.4124 415.249 68.2734 415.249H18.0336C16.8947 415.249 15.9856 416.199 16.0355 417.336L19.3263 492.365C19.3732 493.435 20.2539 494.278 21.3244 494.278H64.9827C66.0531 494.278 66.9338 493.435 66.9807 492.365L70.2715 417.336Z" fill="url(#paint1_linear_182_7947)"/>
<path d="M147.659 6.00001C147.659 2.68631 150.345 0 153.659 0H466.787C470.101 0 472.787 2.68629 472.787 6V310.809C472.787 314.123 470.101 316.809 466.787 316.809H153.659C150.345 316.809 147.659 314.123 147.659 310.809V6.00001Z" fill="#1F2A37"/>
<path d="M355.284 78.162C355.284 102.952 335.187 123.049 310.397 123.049C285.606 123.049 265.51 102.952 265.51 78.162C265.51 53.3715 285.606 33.2749 310.397 33.2749C335.187 33.2749 355.284 53.3715 355.284 78.162Z" fill="#374151"/>
<path d="M220.103 153.086C220.103 151.429 221.446 150.086 223.103 150.086H397.691C399.347 150.086 400.691 151.429 400.691 153.086V175.508C400.691 177.165 399.347 178.508 397.691 178.508H223.103C221.446 178.508 220.103 177.165 220.103 175.508V153.086Z" fill="#374151"/>
<path d="M220.103 197.799C220.103 196.142 221.446 194.799 223.103 194.799H397.691C399.347 194.799 400.691 196.142 400.691 197.799V220.222C400.691 221.879 399.347 223.222 397.691 223.222H223.103C221.446 223.222 220.103 221.879 220.103 220.222V197.799Z" fill="#374151"/>
<path fill-rule="evenodd" clip-rule="evenodd" d="M269.322 164.297C269.322 163.531 269.943 162.91 270.709 162.91H350.084C350.85 162.91 351.471 163.531 351.471 164.297C351.471 165.063 350.85 165.683 350.084 165.683H270.709C269.943 165.683 269.322 165.063 269.322 164.297Z" fill="#1F2A37"/>
<path d="M254.765 209.009C254.765 210.732 253.368 212.129 251.645 212.129C249.922 212.129 248.525 210.732 248.525 209.009C248.525 207.286 249.922 205.89 251.645 205.89C253.368 205.89 254.765 207.286 254.765 209.009Z" fill="#1F2A37"/>
<path d="M266.55 209.009C266.55 210.732 265.153 212.129 263.43 212.129C261.707 212.129 260.311 210.732 260.311 209.009C260.311 207.286 261.707 205.89 263.43 205.89C265.153 205.89 266.55 207.286 266.55 209.009Z" fill="#1F2A37"/>
<path d="M278.335 209.009C278.335 210.732 276.938 212.129 275.215 212.129C273.492 212.129 272.096 210.732 272.096 209.009C272.096 207.286 273.492 205.89 275.215 205.89C276.938 205.89 278.335 207.286 278.335 209.009Z" fill="#1F2A37"/>
<path d="M290.12 209.009C290.12 210.732 288.723 212.129 287 212.129C285.278 212.129 283.881 210.732 283.881 209.009C283.881 207.286 285.278 205.89 287 205.89C288.723 205.89 290.12 207.286 290.12 209.009Z" fill="#1F2A37"/>
<path d="M301.904 209.009C301.904 210.732 300.507 212.129 298.785 212.129C297.062 212.129 295.665 210.732 295.665 209.009C295.665 207.286 297.062 205.89 298.785 205.89C300.507 205.89 301.904 207.286 301.904 209.009Z" fill="#1F2A37"/>
<path d="M313.689 209.009C313.689 210.732 312.293 212.129 310.57 212.129C308.847 212.129 307.45 210.732 307.45 209.009C307.45 207.286 308.847 205.89 310.57 205.89C312.293 205.89 313.689 207.286 313.689 209.009Z" fill="#1F2A37"/>
<path d="M325.474 209.009C325.474 210.732 324.078 212.129 322.355 212.129C320.632 212.129 319.235 210.732 319.235 209.009C319.235 207.286 320.632 205.89 322.355 205.89C324.078 205.89 325.474 207.286 325.474 209.009Z" fill="#1F2A37"/>
<path d="M337.26 209.009C337.26 210.732 335.863 212.129 334.14 212.129C332.417 212.129 331.021 210.732 331.021 209.009C331.021 207.286 332.417 205.89 334.14 205.89C335.863 205.89 337.26 207.286 337.26 209.009Z" fill="#1F2A37"/>
<path d="M349.045 209.009C349.045 210.732 347.648 212.129 345.925 212.129C344.202 212.129 342.806 210.732 342.806 209.009C342.806 207.286 344.202 205.89 345.925 205.89C347.648 205.89 349.045 207.286 349.045 209.009Z" fill="#1F2A37"/>
<path d="M360.83 209.009C360.83 210.732 359.433 212.129 357.71 212.129C355.987 212.129 354.591 210.732 354.591 209.009C354.591 207.286 355.987 205.89 357.71 205.89C359.433 205.89 360.83 207.286 360.83 209.009Z" fill="#1F2A37"/>
<path d="M372.615 209.009C372.615 210.732 371.218 212.129 369.496 212.129C367.773 212.129 366.376 210.732 366.376 209.009C366.376 207.286 367.773 205.89 369.496 205.89C371.218 205.89 372.615 207.286 372.615 209.009Z" fill="#1F2A37"/>
<path d="M310.137 76.3858C313.906 76.3858 316.961 73.3305 316.961 69.5617C316.961 65.7929 313.906 62.7377 310.137 62.7377C306.368 62.7377 303.313 65.7929 303.313 69.5617C303.313 73.3305 306.368 76.3858 310.137 76.3858Z" fill="#1F2A37"/>
<path d="M306.237 82.2349H314.036C316.105 82.2349 318.088 83.0566 319.551 84.5192C321.014 85.9818 321.835 87.9655 321.835 90.0338V93.9333H298.438V90.0338C298.438 87.9655 299.26 85.9818 300.723 84.5192C302.185 83.0566 304.169 82.2349 306.237 82.2349Z" fill="#1F2A37"/>
<path d="M254.418 435.699L250.259 478.506H234.314V432.579L254.418 435.699Z" fill="#FDBA8C"/>
<path d="M254.418 435.699L250.259 478.506H234.314V432.579L254.418 435.699Z" fill="url(#paint2_linear_182_7947)"/>
<path d="M253.562 445.057H233.935C232.87 445.057 231.993 444.238 231.945 443.175C231.111 424.639 229.918 366.35 232.036 338.992L269.47 339.859C268.927 358.206 260.123 415.466 255.531 443.404C255.373 444.37 254.541 445.057 253.562 445.057Z" fill="#1C64F2"/>
<path d="M253.562 445.057H233.935C232.87 445.057 231.993 444.238 231.945 443.175C231.111 424.639 229.918 366.35 232.036 338.992L269.47 339.859C268.927 358.206 260.123 415.466 255.531 443.404C255.373 444.37 254.541 445.057 253.562 445.057Z" fill="url(#paint3_linear_182_7947)"/>
<path fill-rule="evenodd" clip-rule="evenodd" d="M249.673 445.058H255.259C256.895 435.156 259.144 421.043 261.371 406.185C260.886 406.177 260.396 406.479 260.318 407.094L259.055 417.06C258.931 418.037 257.644 418.31 257.134 417.468L251.926 408.878C251.293 407.833 249.689 408.547 250.041 409.717L252.941 419.335C253.225 420.278 252.161 421.051 251.352 420.489L243.101 414.76C242.097 414.063 240.922 415.368 241.72 416.293L248.281 423.9C248.924 424.646 248.266 425.785 247.299 425.601L237.431 423.723C236.23 423.495 235.688 425.165 236.793 425.685L245.88 429.967C246.771 430.386 246.634 431.694 245.675 431.919L235.896 434.218C234.707 434.497 234.89 436.243 236.112 436.27L246.155 436.484C247.139 436.506 247.546 437.756 246.762 438.352L238.763 444.429C238.53 444.606 238.403 444.829 238.36 445.058H242.553L249.057 442.327C249.965 441.946 250.845 442.923 250.371 443.787L249.673 445.058Z" fill="#A4CAFE" fill-opacity="0.2"/>
<path fill-rule="evenodd" clip-rule="evenodd" d="M231.174 357.009L232.524 359.236C233.035 360.078 234.321 359.805 234.445 358.828L235.709 348.862C235.862 347.65 237.618 347.65 237.772 348.862L239.035 358.828C239.159 359.805 240.445 360.078 240.956 359.236L246.164 350.646C246.797 349.601 248.401 350.315 248.048 351.485L245.149 361.103C244.865 362.046 245.929 362.819 246.738 362.257L254.989 356.528C255.993 355.831 257.168 357.136 256.37 358.061L249.809 365.668C249.166 366.414 249.824 367.553 250.791 367.369L260.659 365.491C261.86 365.263 262.402 366.933 261.297 367.453L252.21 371.734C251.319 372.154 251.456 373.462 252.415 373.687L262.194 375.986C263.383 376.265 263.2 378.011 261.978 378.038L251.935 378.252C250.95 378.273 250.544 379.524 251.328 380.12L259.327 386.197C260.3 386.936 259.422 388.457 258.295 387.984L249.033 384.095C248.125 383.714 247.245 384.691 247.719 385.554L252.555 394.359C253.143 395.43 251.722 396.462 250.885 395.572L244.006 388.253C243.331 387.535 242.13 388.07 242.212 389.051L243.048 399.062C243.15 400.279 241.432 400.644 241.03 399.491L237.722 390.006C237.398 389.076 236.083 389.076 235.758 390.006L232.45 399.491C232.201 400.206 231.445 400.337 230.932 400.043C230.91 397.95 230.893 395.836 230.879 393.711L231.268 389.051C231.302 388.652 231.123 388.327 230.853 388.13C230.823 377.383 230.908 366.582 231.174 357.009Z" fill="#A4CAFE" fill-opacity="0.2"/>
<path d="M197.919 490.118H251.991V492.278C251.991 493.382 251.096 494.278 249.991 494.278H199.919C198.814 494.278 197.919 493.382 197.919 492.278V490.118Z" fill="#1C64F2"/>
<path d="M198.004 489.919L197.919 490.118H251.906L251.68 477.775C251.663 476.831 250.715 476.162 249.775 476.254C244.706 476.75 237.602 473.548 236.087 471.166C235.432 470.136 234.608 469.499 233.83 469.121C232.553 468.501 231.138 469.115 229.984 469.943C223.039 474.93 213.356 479.297 206.178 482.117C202.532 483.549 199.536 486.313 198.004 489.919Z" fill="#1F2A37"/>
<path fill-rule="evenodd" clip-rule="evenodd" d="M214.502 478.678L214.912 479.59C215.69 481.318 216.455 483.038 217.025 484.615C217.589 486.174 218 487.693 218 489V490H216V489C216 488.054 215.691 486.806 215.145 485.295C214.604 483.801 213.87 482.148 213.088 480.41L212.678 479.498L214.502 478.678Z" fill="#374151"/>
<path d="M202.945 435.699L176.602 478.506H158.578L180.068 432.579L202.945 435.699Z" fill="#FDBA8C"/>
<path d="M202.945 435.699L176.602 478.506H158.578L180.068 432.579L202.945 435.699Z" fill="url(#paint4_linear_182_7947)"/>
<path d="M379.2 384.052C426.895 395.283 450.141 356.381 455.803 335.526C433.792 320.101 298.091 305.37 263.429 301.73C236.056 298.856 192.02 387.167 176.667 434.395C176.331 435.426 176.9 436.5 177.925 436.854L200.27 444.553C201.13 444.85 202.083 444.528 202.587 443.769L266.896 346.965C287.346 354.013 331.505 372.822 379.2 384.052Z" fill="#1C64F2"/>
<path fill-rule="evenodd" clip-rule="evenodd" d="M256.545 362.549L249.101 367.718C248.292 368.279 247.228 367.506 247.512 366.563L251.485 353.383C251.838 352.214 250.234 351.499 249.6 352.544L242.464 364.316C241.953 365.158 240.667 364.884 240.543 363.907L238.812 350.251C238.658 349.039 236.902 349.039 236.749 350.251L235.017 363.907C234.893 364.884 233.607 365.158 233.096 364.316L225.96 352.544C225.327 351.499 223.723 352.214 224.075 353.383L228.048 366.563C228.332 367.506 227.268 368.279 226.459 367.718L215.152 359.866C214.149 359.169 212.974 360.474 213.772 361.4L222.762 371.824C223.405 372.57 222.747 373.709 221.78 373.525L208.257 370.951C207.057 370.723 206.514 372.393 207.619 372.914L220.072 378.78C220.963 379.2 220.826 380.508 219.867 380.733L206.466 383.883C205.277 384.162 205.461 385.909 206.682 385.935L220.445 386.229C221.429 386.25 221.836 387.501 221.051 388.097L210.09 396.424C209.118 397.163 209.996 398.684 211.122 398.211L223.814 392.882C224.723 392.501 225.603 393.478 225.128 394.342L218.502 406.408C217.914 407.479 219.335 408.511 220.171 407.62L229.599 397.59C230.274 396.872 231.475 397.407 231.393 398.389L231.2 400.701L256.545 362.549Z" fill="#A4CAFE" fill-opacity="0.4"/>
<path fill-rule="evenodd" clip-rule="evenodd" d="M300.736 305.873L287.351 306.16C286.366 306.181 285.96 307.432 286.744 308.027L297.705 316.355C298.678 317.094 297.8 318.615 296.673 318.142L283.981 312.813C283.073 312.432 282.193 313.409 282.667 314.272L289.293 326.338C289.881 327.409 288.461 328.441 287.624 327.551L278.196 317.521C277.522 316.803 276.32 317.338 276.402 318.319L277.548 332.037C277.65 333.255 275.932 333.62 275.53 332.466L270.997 319.468C270.673 318.538 269.358 318.538 269.033 319.468L264.5 332.466C264.098 333.62 262.381 333.255 262.482 332.037L263.628 318.319C263.71 317.338 262.509 316.803 261.834 317.521L252.406 327.551C251.57 328.441 250.149 327.409 250.737 326.338L257.363 314.272C257.837 313.409 256.957 312.432 256.049 312.813L243.357 318.142C242.23 318.615 241.353 317.094 242.325 316.355L253.286 308.027C254.071 307.432 253.664 306.181 252.68 306.16L250.199 306.107C254.88 302.908 259.341 301.303 263.429 301.732C271.396 302.569 284.701 303.991 300.736 305.873Z" fill="#A4CAFE" fill-opacity="0.4"/>
<path fill-rule="evenodd" clip-rule="evenodd" d="M373.153 382.588C373.433 382.17 373.434 381.564 372.922 381.175L361.961 372.847C361.177 372.251 361.583 371 362.568 370.979L376.33 370.685C377.552 370.659 377.735 368.912 376.546 368.633L363.145 365.484C362.187 365.258 362.049 363.95 362.94 363.531L375.393 357.664C376.498 357.143 375.956 355.473 374.755 355.702L361.232 358.275C360.265 358.459 359.607 357.32 360.25 356.574L369.241 346.15C370.039 345.224 368.864 343.92 367.86 344.616L356.553 352.468C355.744 353.029 354.68 352.256 354.964 351.313L358.937 338.133C359.29 336.964 357.686 336.249 357.052 337.294L349.916 349.066C349.405 349.908 348.119 349.635 347.995 348.658L346.264 335.001C346.11 333.789 344.354 333.789 344.2 335.001L342.469 348.658C342.345 349.635 341.059 349.908 340.548 349.066L333.412 337.294C332.779 336.249 331.175 336.964 331.527 338.133L335.5 351.313C335.784 352.256 334.72 353.029 333.911 352.468L322.604 344.616C321.6 343.92 320.426 345.224 321.224 346.15L330.214 356.574C330.857 357.32 330.199 358.459 329.232 358.275L315.709 355.702C314.509 355.473 313.966 357.143 315.071 357.664L327.524 363.531C328.415 363.95 328.278 365.258 327.319 365.484L321.257 366.908C332.626 370.845 344.937 374.839 357.758 378.475C357.831 377.84 358.506 377.342 359.198 377.633L367.625 381.171C369.46 381.652 371.303 382.125 373.153 382.588Z" fill="#A4CAFE" fill-opacity="0.4"/>
<path fill-rule="evenodd" clip-rule="evenodd" d="M435.843 327.79C435.91 327.916 436.007 328.033 436.137 328.131L447.098 336.459C448.071 337.198 447.193 338.719 446.066 338.246L433.374 332.917C432.466 332.536 431.586 333.513 432.06 334.376L438.686 346.442C439.274 347.513 437.854 348.545 437.017 347.655L427.589 337.625C426.915 336.907 425.713 337.442 425.795 338.423L426.941 352.141C427.043 353.359 425.325 353.724 424.923 352.57L420.39 339.572C420.066 338.642 418.751 338.642 418.426 339.572L413.893 352.57C413.491 353.724 411.774 353.359 411.875 352.141L413.021 338.423C413.103 337.442 411.902 336.907 411.227 337.625L401.799 347.655C400.963 348.545 399.542 347.513 400.13 346.442L406.756 334.376C407.231 333.513 406.351 332.536 405.442 332.917L392.75 338.246C391.623 338.719 390.746 337.198 391.718 336.459L402.679 328.131C403.464 327.536 403.057 326.285 402.073 326.264L388.31 325.969C387.089 325.943 386.905 324.197 388.094 323.918L401.495 320.768C401.752 320.708 401.95 320.57 402.085 320.392C414.89 322.751 426.505 325.234 435.843 327.79Z" fill="#A4CAFE" fill-opacity="0.4"/>
<path fill-rule="evenodd" clip-rule="evenodd" d="M188.098 440.361L187.001 438.362C186.527 437.499 187.407 436.522 188.315 436.903L201.007 442.232C202.134 442.705 203.012 441.184 202.039 440.445L191.078 432.117C190.293 431.522 190.7 430.271 191.684 430.25L205.447 429.955C206.669 429.929 206.852 428.183 205.663 427.903L192.262 424.754C191.303 424.529 191.166 423.221 192.057 422.801L204.51 416.934C205.615 416.414 205.072 414.744 203.872 414.972L190.349 417.545C189.382 417.73 188.724 416.591 189.367 415.845L198.357 405.42C199.155 404.495 197.981 403.19 196.977 403.887L185.67 411.738C185.427 411.907 185.161 411.955 184.916 411.915C181.37 420.727 178.367 428.998 176.082 436.221L188.098 440.361Z" fill="#A4CAFE" fill-opacity="0.4"/>
<path d="M126.169 490.118H179.202V492.278C179.202 493.382 178.306 494.278 177.202 494.278H128.169C127.064 494.278 126.169 493.382 126.169 492.278V490.118Z" fill="#1C64F2"/>
<path d="M126.254 489.918L126.169 490.118H179.116L179.782 477.927C179.836 476.942 178.852 476.191 177.866 476.242C173.084 476.49 167.216 472.82 165.724 470.473C165.068 469.443 164.244 468.806 163.466 468.428C162.19 467.807 160.774 468.422 159.62 469.247C152.502 474.337 141.959 479.113 134.421 482.102C130.779 483.546 127.786 486.313 126.254 489.918Z" fill="#1F2A37"/>
<path fill-rule="evenodd" clip-rule="evenodd" d="M143.002 478.678L143.412 479.59C144.19 481.318 144.955 483.038 145.525 484.615C146.089 486.174 146.5 487.693 146.5 489V490H144.5V489C144.5 488.054 144.191 486.806 143.645 485.295C143.104 483.801 142.37 482.148 141.588 480.41L141.178 479.498L143.002 478.678Z" fill="#374151"/>
<path d="M236.452 248.609C235.902 247.242 236.908 245.752 238.382 245.752H299.737C301.434 245.752 302.961 246.783 303.595 248.358L323.343 297.398H256.099L236.452 248.609Z" fill="#424D60"/>
<path d="M254.224 257.87C253.96 257.213 254.444 256.497 255.152 256.497H291.503C292.319 256.497 293.054 256.994 293.358 257.752L304.421 285.28C304.685 285.937 304.201 286.653 303.493 286.653H267.143C266.326 286.653 265.591 286.157 265.287 285.399L254.224 257.87Z" fill="#374151"/>
<path d="M265.554 264.374C265.289 263.716 265.773 263 266.481 263H285.8C286.616 263 287.35 263.496 287.655 264.252L293.447 278.626C293.712 279.283 293.228 280 292.519 280H273.201C272.385 280 271.651 279.504 271.346 278.747L265.554 264.374Z" fill="#424D60"/>
<path d="M318.837 308.143H386.08L323.343 297.398H256.099L318.837 308.143Z" fill="#374151"/>
<path d="M318.837 308.143H386.081L387.121 311.263H319.877L318.837 308.143Z" fill="#111928"/>
<path d="M318.837 308.143L256.099 297.398L257.138 299.651L319.876 311.263L318.837 308.143Z" fill="#111928"/>
<path d="M497.314 151.736C500.809 157.113 498.177 165.024 491.435 169.405C484.694 173.787 476.396 172.98 472.901 167.603C469.406 162.226 472.038 154.315 478.78 149.933C485.521 145.552 493.819 146.359 497.314 151.736Z" fill="#374151"/>
<path d="M470.246 189.977C460.811 190.729 455.311 179.964 453.741 174.488C451.604 176.818 451.179 183.593 451.234 186.689C445.757 171.971 457.342 155.248 478.861 170.24C500.379 185.233 490.664 197.422 506.675 232.857C515.457 252.293 496.5 258.933 493 257.933C494.107 234.482 484.896 226.264 480.726 222.544L480.666 222.49C476.525 218.796 470.423 204.536 474.259 200.196C478.095 195.856 477.907 188.506 474.77 187.63C472.262 186.929 470.709 188.903 470.246 189.977Z" fill="#374151"/>
<path d="M465.727 206.912L468.646 224.171C474.143 225.913 478.455 223.626 479.924 222.264C474.731 214.002 474.098 204.442 474.43 200.167C476.191 198.112 479.355 191.46 476.34 188.595C473.324 185.73 470.982 188.095 470.188 189.635C461.185 189.611 455.472 179.527 453.741 174.488C452.535 174.634 450.406 178.884 451.538 194.723C452.67 210.562 461.469 209.448 465.727 206.912Z" fill="#FDBA8C"/>
<path d="M465.727 206.912L468.646 224.171C474.143 225.913 478.455 223.626 479.924 222.264C474.731 214.002 474.098 204.442 474.43 200.167C476.191 198.112 479.355 191.46 476.34 188.595C473.324 185.73 470.982 188.095 470.188 189.635C461.185 189.611 455.472 179.527 453.741 174.488C452.535 174.634 450.406 178.884 451.538 194.723C452.67 210.562 461.469 209.448 465.727 206.912Z" fill="url(#paint5_linear_182_7947)"/>
<path fill-rule="evenodd" clip-rule="evenodd" d="M474.374 200.084C472.251 202.83 467.42 205.996 465.728 206.915L465.728 206.919L468.216 221.632C472.26 222.189 475.984 221.062 478.538 219.804C474.915 212.598 474.222 204.342 474.374 200.084Z" fill="url(#paint6_linear_182_7947)"/>
<path d="M457.981 191.304C458.077 191.87 457.695 192.407 457.129 192.502C456.563 192.598 456.026 192.217 455.93 191.651C455.834 191.084 456.216 190.548 456.782 190.452C457.348 190.356 457.885 190.738 457.981 191.304Z" fill="#111928"/>
<path fill-rule="evenodd" clip-rule="evenodd" d="M456.159 187.616C455.436 187.747 454.899 188.153 454.415 188.678C454.228 188.881 453.912 188.894 453.709 188.707C453.506 188.52 453.493 188.204 453.68 188.001C454.239 187.394 454.958 186.818 455.98 186.632C456.997 186.447 458.229 186.663 459.788 187.455C460.034 187.58 460.132 187.881 460.007 188.127C459.882 188.373 459.581 188.471 459.335 188.346C457.892 187.613 456.888 187.483 456.159 187.616Z" fill="#111928"/>
<path fill-rule="evenodd" clip-rule="evenodd" d="M474.767 192.749C474.808 192.015 474.54 191.398 474.142 190.805C473.989 190.576 474.05 190.265 474.279 190.111C474.509 189.958 474.819 190.019 474.973 190.249C475.432 190.934 475.824 191.768 475.765 192.805C475.707 193.838 475.208 194.984 474.074 196.315C473.895 196.525 473.579 196.55 473.369 196.37C473.159 196.191 473.134 195.876 473.313 195.666C474.363 194.434 474.725 193.488 474.767 192.749Z" fill="#111928"/>
<path fill-rule="evenodd" clip-rule="evenodd" d="M452.862 190.765C453.135 190.806 453.324 191.06 453.283 191.334L452.265 198.137C452.247 198.258 452.345 198.366 452.468 198.358L455.409 198.181C455.685 198.164 455.922 198.374 455.939 198.649C455.955 198.925 455.745 199.162 455.47 199.179L452.528 199.357C451.771 199.402 451.164 198.739 451.276 197.989L452.294 191.186C452.335 190.912 452.589 190.724 452.862 190.765Z" fill="#111928"/>
<path fill-rule="evenodd" clip-rule="evenodd" d="M457.464 202.018C458.165 201.613 458.654 200.938 458.973 200.061C459.067 199.801 459.354 199.667 459.613 199.762C459.873 199.856 460.007 200.143 459.912 200.402C459.538 201.432 458.924 202.329 457.964 202.884C457.003 203.439 455.765 203.612 454.221 203.327C453.949 203.277 453.77 203.016 453.82 202.745C453.87 202.473 454.131 202.294 454.402 202.344C455.783 202.599 456.764 202.423 457.464 202.018Z" fill="#111928"/>
<path d="M298.213 303.291C304.452 306.202 319.703 308.317 329.582 309.876L332.355 295.145C316.179 296.647 291.974 300.379 298.213 303.291Z" fill="#FDBA8C"/>
<path d="M298.213 303.291C304.452 306.202 319.703 308.317 329.582 309.876L332.355 295.145C316.179 296.647 291.974 300.379 298.213 303.291Z" fill="url(#paint7_linear_182_7947)"/>
<path d="M477.64 216.35C473.236 217.645 469.396 217.327 467.591 216.95C467.399 216.91 467.207 217.03 467.167 217.222L466.61 219.867C466.574 220.037 466.668 220.207 466.832 220.261C471.142 221.702 476.995 221.236 479.199 220.163L477.64 216.35Z" fill="#1C64F2"/>
<path d="M456.238 336L408.049 320.855C407.529 315.307 410.927 296.057 428.677 263.437C446.427 230.818 461.727 220.887 467.158 220H479.292C514.376 239.572 478.541 305.488 456.238 336Z" fill="#F9FAFB"/>
<path d="M456.238 336L408.049 320.855C407.529 315.307 410.927 296.057 428.677 263.437C446.427 230.818 461.727 220.887 467.158 220H479.292C514.376 239.572 478.541 305.488 456.238 336Z" fill="url(#paint8_linear_182_7947)"/>
<path d="M328.195 312.956L329.928 293.932C351.5 293.932 380.72 294.506 402.73 294.506C418.559 272.553 445 234.5 456.5 226.5C463.5 221.63 480.813 231.982 477 245.5C473.187 259.018 437.085 327.9 414.902 330.327C397.155 332.268 353.036 319.888 328.195 312.956Z" fill="#F9FAFB"/>
<path fill-rule="evenodd" clip-rule="evenodd" d="M429.214 322.176C424.684 315.585 417.092 311.263 408.49 311.263C397.728 311.263 388.546 318.028 384.965 327.537C385.431 327.619 385.895 327.7 386.357 327.779C389.806 318.925 398.415 312.65 408.49 312.65C416.678 312.65 423.898 316.795 428.166 323.1C428.514 322.8 428.863 322.492 429.214 322.176Z" fill="#76A9FA"/>
<path d="M472.787 441.938L472.787 447.83L289.079 447.83L289.079 441.938L472.787 441.938Z" fill="#E1EFFE"/>
<path d="M472.787 308.143H478.68V492.277C478.68 493.382 477.784 494.277 476.68 494.277H474.787C473.683 494.277 472.787 493.382 472.787 492.277V308.143Z" fill="#E1EFFE"/>
<path d="M442.631 395.145H282.62C280.445 395.145 278.681 393.381 278.681 391.205C278.681 389.436 279.857 387.882 281.569 387.44C297.01 383.459 331.065 376.774 364.815 376.774C400.864 376.774 431.828 384.4 442.804 388.212L442.631 395.145Z" fill="#76A9FA"/>
<path d="M504.587 262.278L442.632 395.144L436.701 392.117C438.537 379.136 445.694 345.69 459.629 315.749C472.513 288.07 489.624 266.75 498.22 257.755C499.367 256.555 501.145 256.264 502.651 256.965C504.653 257.897 505.52 260.276 504.587 262.278Z" fill="#76A9FA"/>
<path d="M283.533 395.144H289.426V492.277C289.426 493.382 288.53 494.277 287.426 494.277H285.533C284.429 494.277 283.533 493.382 283.533 492.277V395.144Z" fill="#E1EFFE"/>
<path fill-rule="evenodd" clip-rule="evenodd" d="M324.236 375.299C306.206 398.289 294.594 426.237 289.504 445.799L283.802 444.316C289.053 424.132 300.976 395.409 319.599 371.663C338.215 347.924 363.863 328.767 396.531 328.767H478.16V334.66H396.531C366.392 334.66 342.271 352.302 324.236 375.299Z" fill="#E1EFFE"/>
<defs>
<linearGradient id="paint0_linear_182_7947" x1="657.32" y1="468.867" x2="499.764" y2="468.867" gradientUnits="userSpaceOnUse">
<stop stop-color="#1F2A37"/>
<stop offset="1" stop-color="#1F2A37" stop-opacity="0"/>
</linearGradient>
<linearGradient id="paint1_linear_182_7947" x1="-49.3589" y1="468.867" x2="108.197" y2="468.867" gradientUnits="userSpaceOnUse">
<stop stop-color="#1F2A37"/>
<stop offset="1" stop-color="#1F2A37" stop-opacity="0"/>
</linearGradient>
<linearGradient id="paint2_linear_182_7947" x1="273.656" y1="471.747" x2="238.994" y2="471.747" gradientUnits="userSpaceOnUse">
<stop stop-color="#B43403"/>
<stop offset="1" stop-color="#B43403" stop-opacity="0"/>
</linearGradient>
<linearGradient id="paint3_linear_182_7947" x1="189.613" y1="392.057" x2="275.414" y2="458.596" gradientUnits="userSpaceOnUse">
<stop stop-color="#111928"/>
<stop offset="1" stop-color="#111928" stop-opacity="0"/>
</linearGradient>
<linearGradient id="paint4_linear_182_7947" x1="196.706" y1="470.361" x2="173.136" y2="457.536" gradientUnits="userSpaceOnUse">
<stop stop-color="#B43403"/>
<stop offset="1" stop-color="#B43403" stop-opacity="0"/>
</linearGradient>
<linearGradient id="paint5_linear_182_7947" x1="506.597" y1="211.329" x2="461.689" y2="218.923" gradientUnits="userSpaceOnUse">
<stop stop-color="#B43403"/>
<stop offset="1" stop-color="#B43403" stop-opacity="0"/>
</linearGradient>
<linearGradient id="paint6_linear_182_7947" x1="465.693" y1="175.279" x2="473.524" y2="221.588" gradientUnits="userSpaceOnUse">
<stop stop-color="#B43403"/>
<stop offset="1" stop-color="#B43403" stop-opacity="0"/>
</linearGradient>
<linearGradient id="paint7_linear_182_7947" x1="322.476" y1="314.036" x2="320.743" y2="299.478" gradientUnits="userSpaceOnUse">
<stop stop-color="#B43403"/>
<stop offset="1" stop-color="#B43403" stop-opacity="0"/>
</linearGradient>
<linearGradient id="paint8_linear_182_7947" x1="444.797" y1="338.996" x2="472.932" y2="269.441" gradientUnits="userSpaceOnUse">
<stop stop-color="#A4CAFE"/>
<stop offset="1" stop-color="#A4CAFE" stop-opacity="0"/>
</linearGradient>
</defs>
</svg>
