<svg width="288" height="398" viewBox="0 0 288 398" fill="none" xmlns="http://www.w3.org/2000/svg">
<path fill-rule="evenodd" clip-rule="evenodd" d="M150.299 192.196H122.074C121.509 192.196 121.052 192.644 121.052 193.196V201.017C121.052 201.569 121.509 202.017 122.074 202.017H150.299C150.864 202.017 151.322 201.569 151.322 201.017V193.196C151.322 192.644 150.864 192.196 150.299 192.196ZM122.074 190.896C120.775 190.896 119.722 191.925 119.722 193.196V201.017C119.722 202.287 120.775 203.317 122.074 203.317H150.299C151.598 203.317 152.651 202.287 152.651 201.017V193.196C152.651 191.925 151.598 190.896 150.299 190.896H122.074Z" fill="#E1EFFE"/>
<path fill-rule="evenodd" clip-rule="evenodd" d="M186.992 192.196H158.767C158.202 192.196 157.744 192.643 157.744 193.196V201.017C157.744 201.569 158.202 202.017 158.767 202.017H186.992C187.557 202.017 188.015 201.569 188.015 201.017V193.196C188.015 192.643 187.557 192.196 186.992 192.196ZM158.767 190.896C157.468 190.896 156.415 191.925 156.415 193.196V201.017C156.415 202.287 157.468 203.317 158.767 203.317H186.992C188.291 203.317 189.344 202.287 189.344 201.017V193.196C189.344 191.925 188.291 190.896 186.992 190.896H158.767Z" fill="#E1EFFE"/>
<path fill-rule="evenodd" clip-rule="evenodd" d="M168.646 208.298H140.421C139.856 208.298 139.398 208.745 139.398 209.298V217.119C139.398 217.671 139.856 218.119 140.421 218.119H168.646C169.211 218.119 169.668 217.671 169.668 217.119V209.298C169.668 208.745 169.211 208.298 168.646 208.298ZM140.421 206.998C139.122 206.998 138.068 208.027 138.068 209.298V217.119C138.068 218.389 139.122 219.419 140.421 219.419H168.646C169.945 219.419 170.998 218.389 170.998 217.119V209.298C170.998 208.027 169.945 206.998 168.646 206.998H140.421Z" fill="#E1EFFE"/>
<path fill-rule="evenodd" clip-rule="evenodd" d="M218.98 1.96188H190.755C190.19 1.96188 189.732 2.40962 189.732 2.96193V10.7829C189.732 11.3352 190.19 11.783 190.755 11.783H218.98C219.545 11.783 220.003 11.3352 220.003 10.7829V2.96193C220.003 2.40962 219.545 1.96188 218.98 1.96188ZM190.755 0.661652C189.456 0.661652 188.403 1.69152 188.403 2.96193V10.7829C188.403 12.0533 189.456 13.0832 190.755 13.0832H218.98C220.279 13.0832 221.332 12.0533 221.332 10.7829V2.96193C221.332 1.69152 220.279 0.661652 218.98 0.661652H190.755Z" fill="#E1EFFE"/>
<path fill-rule="evenodd" clip-rule="evenodd" d="M200.634 18.0639H172.409C171.844 18.0639 171.386 18.5116 171.386 19.0639V26.8849C171.386 27.4372 171.844 27.8849 172.409 27.8849H200.634C201.199 27.8849 201.656 27.4372 201.656 26.8849V19.0639C201.656 18.5116 201.199 18.0639 200.634 18.0639ZM172.409 16.7636C171.11 16.7636 170.056 17.7935 170.056 19.0639V26.8849C170.056 28.1553 171.11 29.1852 172.409 29.1852H200.634C201.933 29.1852 202.986 28.1553 202.986 26.8849V19.0639C202.986 17.7935 201.933 16.7636 200.634 16.7636H172.409Z" fill="#E1EFFE"/>
<path fill-rule="evenodd" clip-rule="evenodd" d="M237.326 18.0639H209.101C208.536 18.0639 208.079 18.5116 208.079 19.0639V26.8849C208.079 27.4372 208.536 27.8849 209.101 27.8849H237.326C237.891 27.8849 238.349 27.4372 238.349 26.8849V19.0639C238.349 18.5116 237.891 18.0639 237.326 18.0639ZM209.101 16.7636C207.802 16.7636 206.749 17.7935 206.749 19.0639V26.8849C206.749 28.1553 207.802 29.1852 209.101 29.1852H237.326C238.625 29.1852 239.679 28.1553 239.679 26.8849V19.0639C239.679 17.7935 238.625 16.7636 237.326 16.7636H209.101Z" fill="#E1EFFE"/>
<path d="M82.0888 41.8269C82.0888 39.6726 83.8745 37.9262 86.0774 37.9262H202.056C204.259 37.9262 206.045 39.6726 206.045 41.8269V177.793C206.045 179.947 204.259 181.694 202.056 181.694H86.0774C83.8745 181.694 82.0888 179.947 82.0888 177.793V41.8269Z" fill="#E1EFFE"/>
<path d="M89.1447 49.4279C89.1447 47.5223 90.7243 45.9775 92.6729 45.9775H195.46C197.408 45.9775 198.988 47.5223 198.988 49.4279V170.193C198.988 172.098 197.408 173.643 195.46 173.643H92.6729C90.7243 173.643 89.1447 172.098 89.1447 170.193V49.4279Z" fill="white"/>
<path d="M77.3842 40.9923C77.3842 39.193 76.1258 37.6272 74.3381 37.202L4.93098 20.6968C2.41992 20.0996 2.88324e-05 21.9597 2.88324e-05 24.487V195.134C2.88324e-05 197.661 2.41992 199.521 4.93098 198.924L74.3381 182.419C76.1258 181.993 77.3842 180.428 77.3842 178.628V40.9923Z" fill="#E1EFFE"/>
<path d="M77.3842 40.9923C77.3842 39.193 76.1258 37.6272 74.3381 37.202L4.93098 20.6968C2.41992 20.0996 2.88324e-05 21.9597 2.88324e-05 24.487V195.134C2.88324e-05 197.661 2.41992 199.521 4.93098 198.924L74.3381 182.419C76.1258 181.993 77.3842 180.428 77.3842 178.628V40.9923Z" fill="url(#paint0_linear_7752_229984)"/>
<path fill-rule="evenodd" clip-rule="evenodd" d="M169.298 100.094L155.185 151.16L156.469 151.5L170.581 100.433L169.298 100.094Z" fill="#E1EFFE"/>
<path fill-rule="evenodd" clip-rule="evenodd" d="M119.07 100.094L133.183 151.16L131.899 151.5L117.786 100.433L119.07 100.094Z" fill="#E1EFFE"/>
<path d="M156.65 148.8C156.65 155.533 151.069 160.992 144.184 160.992C137.299 160.992 131.718 155.533 131.718 148.8C131.718 142.067 137.299 136.609 144.184 136.609C151.069 136.609 156.65 142.067 156.65 148.8Z" fill="#C3DDFD"/>
<path d="M171.468 93.1332C171.468 107.87 159.253 119.816 144.184 119.816C129.115 119.816 116.9 107.87 116.9 93.1332C116.9 78.3964 129.115 66.4499 144.184 66.4499C159.253 66.4499 171.468 78.3964 171.468 93.1332Z" fill="#C3DDFD"/>
<path fill-rule="evenodd" clip-rule="evenodd" d="M144.184 108.625C152.933 108.625 160.025 101.689 160.025 93.1328C160.025 84.5769 152.933 77.641 144.184 77.641C135.435 77.641 128.343 84.5769 128.343 93.1328C128.343 101.689 135.435 108.625 144.184 108.625ZM144.184 109.925C153.667 109.925 161.354 102.407 161.354 93.1328C161.354 83.8588 153.667 76.3408 144.184 76.3408C134.701 76.3408 127.014 83.8588 127.014 93.1328C127.014 102.407 134.701 109.925 144.184 109.925Z" fill="#E1EFFE"/>
<path d="M150.064 148.8C150.064 151.976 147.431 154.551 144.184 154.551C140.936 154.551 138.304 151.976 138.304 148.8C138.304 145.624 140.936 143.049 144.184 143.049C147.431 143.049 150.064 145.624 150.064 148.8Z" fill="white"/>
<path d="M154.063 93.1329C154.063 98.4686 149.64 102.794 144.184 102.794C138.728 102.794 134.305 98.4686 134.305 93.1329C134.305 87.7972 138.728 83.4717 144.184 83.4717C149.64 83.4717 154.063 87.7972 154.063 93.1329Z" fill="white"/>
<path d="M144.183 88.3026L148.461 90.7178V95.5484L144.183 97.9637L139.906 95.5484V90.7178L144.183 88.3026Z" fill="#C3DDFD"/>
<path fill-rule="evenodd" clip-rule="evenodd" d="M93.9018 328.454L102.373 354.231V397.231H79.1062C78.3719 397.231 77.7767 396.648 77.7767 395.93V354.231L86.2476 328.454C86.7836 326.823 88.3295 325.718 90.0747 325.718C91.8199 325.718 93.3658 326.823 93.9018 328.454Z" fill="#E1EFFE"/>
<path fill-rule="evenodd" clip-rule="evenodd" d="M93.9018 328.454L102.373 354.231V397.231H79.1062C78.3719 397.231 77.7767 396.648 77.7767 395.93V354.231L86.2476 328.454C86.7836 326.823 88.3295 325.718 90.0747 325.718C91.8199 325.718 93.3658 326.823 93.9018 328.454Z" fill="url(#paint1_linear_7752_229984)"/>
<path d="M90.0856 333.168C90.0856 331.961 91.0861 330.982 92.3201 330.982H162.648C163.882 330.982 164.882 331.961 164.882 333.168C164.882 334.375 163.882 335.353 162.648 335.353H92.3201C91.0861 335.353 90.0856 334.375 90.0856 333.168Z" fill="#E1EFFE"/>
<path fill-rule="evenodd" clip-rule="evenodd" d="M168.843 328.428L177.349 354.215V395.93C177.349 396.648 176.753 397.23 176.019 397.23H152.651V354.215L161.157 328.428C161.695 326.797 163.248 325.692 165 325.692C166.752 325.692 168.305 326.797 168.843 328.428Z" fill="#E1EFFE"/>
<path fill-rule="evenodd" clip-rule="evenodd" d="M168.843 328.428L177.349 354.215V395.93C177.349 396.648 176.753 397.23 176.019 397.23H152.651V354.215L161.157 328.428C161.695 326.797 163.248 325.692 165 325.692C166.752 325.692 168.305 326.797 168.843 328.428Z" fill="url(#paint2_linear_7752_229984)"/>
<path d="M104.415 325.586L109.483 324.394L121.376 372.767L116.309 373.959L104.415 325.586Z" fill="#76A9FA"/>
<path fill-rule="evenodd" clip-rule="evenodd" d="M125.121 379.906C125.182 380.153 125.436 380.305 125.689 380.246L125.739 380.234C125.953 380.183 126.103 379.995 126.1 379.781L126.095 379.409C126.068 377.292 126.088 375.001 124.707 373.37C123.224 371.617 120.797 370.726 118.362 371.299C116.102 371.83 114.434 373.482 113.802 375.493C113.068 377.825 114.418 380.181 115.639 382.308C115.729 382.465 115.914 382.544 116.093 382.502L116.207 382.475C116.459 382.416 116.615 382.168 116.554 381.92L115.487 377.582L119.176 374.156L124.055 375.567L125.121 379.906Z" fill="#76A9FA"/>
<path fill-rule="evenodd" clip-rule="evenodd" d="M100.671 318.23C100.61 317.983 100.356 317.831 100.104 317.89L100.053 317.902C99.8396 317.952 99.69 318.141 99.6928 318.355L99.6975 318.727C99.7244 320.844 99.7047 323.134 101.085 324.766C102.568 326.519 104.996 327.409 107.43 326.837C109.69 326.306 111.359 324.654 111.991 322.643C112.724 320.311 111.374 317.954 110.154 315.827C110.064 315.671 109.878 315.592 109.7 315.634L109.586 315.661C109.333 315.72 109.178 315.968 109.238 316.215L110.305 320.554L106.616 323.98L101.738 322.569L100.671 318.23Z" fill="#76A9FA"/>
<path d="M118.138 331.432L122.491 331.405L122.757 372.963L118.404 372.99L118.138 331.432Z" fill="#76A9FA"/>
<path fill-rule="evenodd" clip-rule="evenodd" d="M124.415 379.443C124.416 379.669 124.604 379.85 124.834 379.849C125.029 379.847 125.198 379.713 125.24 379.527C125.67 377.619 126.201 375.528 125.216 373.828C124.307 372.26 122.581 371.197 120.591 371.209C118.65 371.221 116.971 372.254 116.066 373.772C115.016 375.532 115.656 377.7 116.235 379.657C116.278 379.801 116.413 379.9 116.566 379.899L116.63 379.899C116.866 379.897 117.056 379.709 117.054 379.479L117.031 375.785L120.698 373.684L124.391 375.74L124.415 379.443Z" fill="#76A9FA"/>
<path fill-rule="evenodd" clip-rule="evenodd" d="M116.523 324.777C116.522 324.551 116.334 324.37 116.104 324.371C115.909 324.373 115.741 324.507 115.699 324.693C115.268 326.601 114.737 328.692 115.722 330.392C116.631 331.96 118.357 333.023 120.347 333.011C122.288 332.999 123.967 331.966 124.872 330.448C125.922 328.688 125.283 326.52 124.703 324.563C124.661 324.419 124.525 324.32 124.372 324.321L124.308 324.321C124.072 324.323 123.882 324.511 123.884 324.741L123.907 328.435L120.24 330.536L116.547 328.48L116.523 324.777Z" fill="#76A9FA"/>
<path d="M136.96 324.511L141.603 325.249L131.559 385.643L126.916 384.904L136.96 324.511Z" fill="#76A9FA"/>
<path d="M130.211 319.242C130.273 318.866 130.636 318.61 131.021 318.672L145.713 321.009C145.851 321.031 145.98 321.093 146.082 321.187L150.365 325.116C150.537 325.273 150.617 325.504 150.579 325.73L150.312 327.334C150.25 327.71 149.887 327.965 149.503 327.904L130.001 324.802C129.616 324.741 129.355 324.386 129.418 324.01L130.211 319.242Z" fill="#76A9FA"/>
<path d="M77.7767 354.323H152.809V397.338H79.1062C78.3719 397.338 77.7767 396.756 77.7767 396.038V354.323Z" fill="#E1EFFE"/>
<path d="M264.141 362.957C258.773 373.378 247.456 382.909 240.247 386.863C238.17 388.002 236.621 390.071 236.621 392.4H287.662L285.192 359.506L264.141 362.957Z" fill="#1F2A37"/>
<path d="M236.621 392.4H287.662L287.994 395.807C288.068 396.571 287.454 397.231 286.67 397.231H237.951C237.217 397.231 236.621 396.649 236.621 395.931V392.4Z" fill="#1A56DB"/>
<path fill-rule="evenodd" clip-rule="evenodd" d="M278.019 382.758C279.622 382.758 280.923 381.486 280.923 379.917C280.923 378.349 279.622 377.077 278.019 377.077C276.415 377.077 275.114 378.349 275.114 379.917C275.114 381.486 276.415 382.758 278.019 382.758ZM278.019 384.058C280.357 384.058 282.252 382.204 282.252 379.917C282.252 377.631 280.357 375.777 278.019 375.777C275.68 375.777 273.785 377.631 273.785 379.917C273.785 382.204 275.68 384.058 278.019 384.058Z" fill="#374151"/>
<path d="M239.444 367.097C234.114 377.445 223.407 384.042 216.355 387.086C214.176 388.027 212.63 390.071 212.63 392.4H263.67V367.097H239.444Z" fill="#374151"/>
<path d="M212.63 392.4H263.67V395.931C263.67 396.649 263.075 397.231 262.341 397.231H213.959C213.225 397.231 212.63 396.649 212.63 395.931V392.4Z" fill="#1C64F2"/>
<path fill-rule="evenodd" clip-rule="evenodd" d="M252.145 382.819C253.749 382.819 255.049 381.547 255.049 379.978C255.049 378.41 253.749 377.138 252.145 377.138C250.541 377.138 249.241 378.41 249.241 379.978C249.241 381.547 250.541 382.819 252.145 382.819ZM252.145 384.119C254.483 384.119 256.379 382.265 256.379 379.978C256.379 377.691 254.483 375.838 252.145 375.838C249.807 375.838 247.911 377.691 247.911 379.978C247.911 382.265 249.807 384.119 252.145 384.119Z" fill="#6B7280"/>
<path d="M159.707 123.497C167.079 124.939 193.46 125.529 205.103 125.912C212.394 124.379 225.331 123.497 221.097 134.538C215.805 148.34 183.111 132.584 162.297 133.734C151.12 134.351 146.371 128.168 147.832 125.223C149.828 121.197 152.651 122.117 159.707 123.497Z" fill="#FDBA8C"/>
<path d="M159.707 123.497C167.079 124.939 193.46 125.529 205.103 125.912C212.394 124.379 225.331 123.497 221.097 134.538C215.805 148.34 183.111 132.584 162.297 133.734C151.12 134.351 146.371 128.168 147.832 125.223C149.828 121.197 152.651 122.117 159.707 123.497Z" fill="url(#paint3_linear_7752_229984)"/>
<path d="M220.628 135.229L204.986 125.913C214.596 111.475 233.163 77.6977 241.091 84.7376C249.018 91.7776 231.389 122.711 220.628 135.229Z" fill="#F9FAFB"/>
<path d="M220.628 135.229L204.986 125.913C214.596 111.475 233.163 77.6977 241.091 84.7376C249.018 91.7776 231.389 122.711 220.628 135.229Z" fill="url(#paint4_linear_7752_229984)"/>
<path d="M286.344 362.635L255.151 365.918C254.406 365.997 253.743 365.459 253.683 364.729L238.974 183.994L267.669 176.173L287.524 361.206C287.6 361.919 287.072 362.558 286.344 362.635Z" fill="#1C64F2"/>
<path d="M286.344 362.635L255.151 365.918C254.406 365.997 253.743 365.459 253.683 364.729L238.974 183.994L267.669 176.173L287.524 361.206C287.6 361.919 287.072 362.558 286.344 362.635Z" fill="url(#paint5_linear_7752_229984)"/>
<path d="M254.262 91.9831C252.851 83.8861 247.48 81.5552 244.971 81.4018L236.857 84.0472C225.661 87.7276 227.605 131.203 230.271 152.366C247.394 152.366 259.123 145.771 262.847 142.474C260.574 129.018 255.673 100.08 254.262 91.9831Z" fill="#F9FAFB"/>
<path d="M254.262 91.9831C252.851 83.8861 247.48 81.5552 244.971 81.4018L236.857 84.0472C225.661 87.7276 227.605 131.203 230.271 152.366C247.394 152.366 259.123 145.771 262.847 142.474C260.574 129.018 255.673 100.08 254.262 91.9831Z" fill="url(#paint6_linear_7752_229984)"/>
<path d="M237.798 83.8171C231.588 87.9577 229.409 105.555 229.095 112.916L226.037 120.392C226.194 116.558 227.025 106.705 229.095 97.9639C231.165 89.2228 234.505 84.5839 236.269 83.3571L237.798 83.8171Z" fill="#1C64F2"/>
<path d="M237.798 83.8171C231.588 87.9577 229.409 105.555 229.095 112.916L226.037 120.392C226.194 116.558 227.025 106.705 229.095 97.9639C231.165 89.2228 234.505 84.5839 236.269 83.3571L237.798 83.8171Z" fill="url(#paint7_linear_7752_229984)"/>
<path d="M256.85 113.146C256.944 123.451 246.148 128.481 240.738 129.708L228.742 134.078L226.052 368.428C226.044 369.151 226.642 369.742 227.382 369.742H266.702C267.433 369.742 268.026 369.198 268.032 368.484C268.462 310.107 269.05 189.989 268.022 166.512C266.729 136.954 255.909 92.5583 254.498 89.568C253.086 86.5776 250.617 80.022 242.267 85.6577C235.587 90.1662 233.838 100.61 234.27 103.83L236.504 100.034C236.974 91.178 245.912 83.7021 249.676 85.1973C253.439 86.6925 256.732 100.264 256.85 113.146Z" fill="#1C64F2"/>
<path d="M256.85 113.146C256.944 123.451 246.148 128.481 240.738 129.708L228.742 134.078L226.052 368.428C226.044 369.151 226.642 369.742 227.382 369.742H266.702C267.433 369.742 268.026 369.198 268.032 368.484C268.462 310.107 269.05 189.989 268.022 166.512C266.729 136.954 255.909 92.5583 254.498 89.568C253.086 86.5776 250.617 80.022 242.267 85.6577C235.587 90.1662 233.838 100.61 234.27 103.83L236.504 100.034C236.974 91.178 245.912 83.7021 249.676 85.1973C253.439 86.6925 256.732 100.264 256.85 113.146Z" fill="url(#paint8_linear_7752_229984)"/>
<path fill-rule="evenodd" clip-rule="evenodd" d="M268.14 360.156H226.037V358.856H268.14V360.156Z" fill="#E1EFFE"/>
<path fill-rule="evenodd" clip-rule="evenodd" d="M255.812 172.535C246.299 172.079 241.211 167.01 239.792 164.276L240.978 163.688C242.179 166.003 246.837 170.803 255.877 171.236C256.956 171.288 257.863 172.153 257.841 173.255L254.221 359.403L252.892 359.378L256.512 173.23C256.519 172.876 256.22 172.554 255.812 172.535Z" fill="#E1EFFE"/>
<path fill-rule="evenodd" clip-rule="evenodd" d="M227.218 266.803C227.295 266.804 227.371 266.805 227.448 266.805C234.593 266.805 240.385 261.14 240.385 254.153C240.385 247.186 234.625 241.534 227.509 241.502L227.218 266.803Z" fill="url(#paint9_linear_7752_229984)"/>
<path d="M218.151 57.3926C216.672 58.5496 217.535 59.6423 218.151 60.044L226.286 65.4674C230.765 66.5521 238.208 68.037 238.268 66.91C238.366 65.0698 238.613 64.3827 238.366 59.803C238.169 56.1392 236.23 52.8931 235.285 51.7281C230.19 53.1342 219.63 56.2356 218.151 57.3926Z" fill="#111928"/>
<path d="M143.509 102.021L149.015 100.726L161.938 153.285L156.432 154.58L143.509 102.021Z" fill="#76A9FA"/>
<path fill-rule="evenodd" clip-rule="evenodd" d="M166.017 161.079C166.077 161.326 166.331 161.478 166.584 161.419L166.71 161.389C166.924 161.339 167.073 161.151 167.071 160.936L167.062 160.226C167.035 158.108 167.043 155.84 165.732 154.154C164.141 152.108 161.407 151.044 158.663 151.689C156.208 152.266 154.395 154.061 153.708 156.246C152.911 158.779 154.378 161.34 155.704 163.651C155.802 163.821 156.003 163.907 156.197 163.861L156.361 163.823C156.613 163.764 156.769 163.515 156.708 163.268L155.54 158.515L159.548 154.793L164.848 156.326L166.017 161.079Z" fill="#76A9FA"/>
<path fill-rule="evenodd" clip-rule="evenodd" d="M139.432 93.9894C139.371 93.7423 139.117 93.5902 138.865 93.6496L138.739 93.6793C138.525 93.7295 138.375 93.9176 138.378 94.1323L138.387 94.8428C138.414 96.9605 138.406 99.2281 139.717 100.914C141.308 102.96 144.042 104.025 146.785 103.38C149.241 102.802 151.054 101.007 151.741 98.8224C152.537 96.2892 151.071 93.7285 149.744 91.4175C149.647 91.2474 149.445 91.1614 149.252 91.2071L149.088 91.2455C148.835 91.3049 148.68 91.5533 148.741 91.8004L149.909 96.553L145.901 100.275L140.601 98.742L139.432 93.9894Z" fill="#76A9FA"/>
<path d="M147.359 125.797C146.7 120.645 151.632 120.66 154.18 121.312L153.357 118.091C155.239 118.666 161.119 125.107 165.235 125.797C168.528 126.349 202.751 133.388 219.451 136.839L220.039 135.228L242.854 133.618C240.62 139.254 234.904 151.353 229.918 154.666C223.685 158.806 174.408 138.219 163.001 135.458C151.593 132.698 148.182 132.238 147.359 125.797Z" fill="#FDBA8C"/>
<path d="M147.359 125.797C146.7 120.645 151.632 120.66 154.18 121.312L153.357 118.091C155.239 118.666 161.119 125.107 165.235 125.797C168.528 126.349 202.751 133.388 219.451 136.839L220.039 135.228L242.854 133.618C240.62 139.254 234.904 151.353 229.918 154.666C223.685 158.806 174.408 138.219 163.001 135.458C151.593 132.698 148.182 132.238 147.359 125.797Z" fill="url(#paint10_linear_7752_229984)"/>
<path d="M238.972 142.423L220.039 135.228C225.88 117.439 240.149 83.1497 250.499 88.3023C260.522 93.2925 248.998 124.864 241.353 141.476C240.945 142.362 239.898 142.775 238.972 142.423Z" fill="#F9FAFB"/>
<path d="M244.854 81.4175L238.268 66.9257C235.542 68.7331 230.385 72.9886 231.564 75.5518L236.856 87.0532C240.22 86.3953 243.144 84.3254 244.854 81.4175Z" fill="#FDBA8C"/>
<path d="M244.854 81.4175L238.268 66.9257C235.542 68.7331 230.385 72.9886 231.564 75.5518L236.856 87.0532C240.22 86.3953 243.144 84.3254 244.854 81.4175Z" fill="url(#paint11_linear_7752_229984)"/>
<path d="M225.194 59.4101C222.727 57.956 219.397 59.2889 218.04 60.1371C218.246 61.9951 219.15 67.2622 221.124 73.4663C223.097 79.6705 228.689 77.7478 231.238 76.011C232.964 74.7646 236.788 71.2021 238.268 66.9229C237.199 66.721 235.555 65.9536 234.568 64.4995C233.335 62.6819 235.761 59.33 233.458 58.1984C231.978 57.4713 230.621 58.3196 230.004 60.1371C229.388 61.9547 228.277 61.2277 225.194 59.4101Z" fill="#FDBA8C"/>
<path d="M225.194 59.4101C222.727 57.956 219.397 59.2889 218.04 60.1371C218.246 61.9951 219.15 67.2622 221.124 73.4663C223.097 79.6705 228.689 77.7478 231.238 76.011C232.964 74.7646 236.788 71.2021 238.268 66.9229C237.199 66.721 235.555 65.9536 234.568 64.4995C233.335 62.6819 235.761 59.33 233.458 58.1984C231.978 57.4713 230.621 58.3196 230.004 60.1371C229.388 61.9547 228.277 61.2277 225.194 59.4101Z" fill="url(#paint12_linear_7752_229984)"/>
<path d="M227.51 72.6285L221.549 73.9802C221.378 74.0191 221.194 73.9982 221.053 73.8946C220.143 73.2237 220.361 72.1222 220.606 71.6232C222.736 71.2835 225.711 71.7792 227.516 72.2046C227.752 72.2602 227.746 72.575 227.51 72.6285Z" fill="#111928"/>
<path d="M223.946 65.2996C223.946 65.8077 223.572 66.2197 223.11 66.2197C222.648 66.2197 222.273 65.8077 222.273 65.2996C222.273 64.7914 222.648 64.3794 223.11 64.3794C223.572 64.3794 223.946 64.7914 223.946 65.2996Z" fill="#111928"/>
<path fill-rule="evenodd" clip-rule="evenodd" d="M222.399 62.4581C221.757 62.5925 221.29 62.969 220.88 63.4402C220.761 63.577 220.552 63.5935 220.412 63.4772C220.272 63.3608 220.255 63.1557 220.374 63.0189C220.831 62.4943 221.416 61.9992 222.26 61.8224C223.101 61.6462 224.138 61.7984 225.478 62.4395C225.642 62.5185 225.711 62.7132 225.63 62.8744C225.549 63.0357 225.35 63.1024 225.185 63.0234C223.925 62.4198 223.044 62.323 222.399 62.4581Z" fill="#111928"/>
<path fill-rule="evenodd" clip-rule="evenodd" d="M233.032 61.0243C233.06 60.5352 232.877 60.1244 232.607 59.73C232.505 59.5809 232.546 59.379 232.698 59.2791C232.851 59.1792 233.057 59.2191 233.16 59.3682C233.471 59.8224 233.736 60.3743 233.696 61.0609C233.656 61.7439 233.319 62.5036 232.55 63.3856C232.431 63.5222 232.221 63.5385 232.081 63.422C231.942 63.3055 231.925 63.1003 232.044 62.9638C232.757 62.1458 233.004 61.5169 233.032 61.0243Z" fill="#111928"/>
<path fill-rule="evenodd" clip-rule="evenodd" d="M223.801 74.9084C224.108 74.7762 224.393 74.5547 224.726 74.1743C224.846 74.038 225.056 74.0222 225.195 74.139C225.334 74.2559 225.351 74.4611 225.231 74.5974C224.859 75.022 224.497 75.3187 224.069 75.5033C223.642 75.6873 223.178 75.7472 222.625 75.7472C222.441 75.7472 222.292 75.6017 222.292 75.4222C222.292 75.2426 222.441 75.0971 222.625 75.0971C223.132 75.0971 223.492 75.0413 223.801 74.9084Z" fill="#111928"/>
<path fill-rule="evenodd" clip-rule="evenodd" d="M219.484 64.8154C219.666 64.7923 219.833 64.918 219.856 65.096L220.456 69.6234C220.467 69.7085 220.556 69.7619 220.638 69.7334L222.525 69.0853C222.698 69.0258 222.888 69.1149 222.949 69.2843C223.01 69.4537 222.919 69.6392 222.746 69.6987L220.859 70.3468C220.377 70.5122 219.862 70.2019 219.797 69.7069L219.197 65.1795C219.173 65.0015 219.302 64.8384 219.484 64.8154Z" fill="#111928"/>
<path d="M223.717 48.2517C217.062 50.6453 216.678 57.3939 217.318 60.469L236.386 53.2385C235.021 50.4958 230.371 45.8582 223.717 48.2517Z" fill="#E1EFFE"/>
<path d="M223.717 48.2517C217.062 50.6453 216.678 57.3939 217.318 60.469L236.386 53.2385C235.021 50.4958 230.371 45.8582 223.717 48.2517Z" fill="url(#paint13_linear_7752_229984)"/>
<path fill-rule="evenodd" clip-rule="evenodd" d="M236.903 52.8884C237.035 53.2234 236.865 53.5997 236.522 53.7291L208.421 64.3421C208.079 64.4715 207.694 64.3048 207.561 63.9699C207.429 63.6349 207.6 63.2585 207.942 63.1292L236.043 52.5162C236.386 52.3868 236.771 52.5535 236.903 52.8884Z" fill="#111928"/>
<defs>
<linearGradient id="paint0_linear_7752_229984" x1="262.965" y1="142.035" x2="30.5774" y2="142.035" gradientUnits="userSpaceOnUse">
<stop stop-color="#76A9FA"/>
<stop offset="1" stop-color="#76A9FA" stop-opacity="0"/>
</linearGradient>
<linearGradient id="paint1_linear_7752_229984" x1="131.888" y1="374.236" x2="60.6766" y2="374.236" gradientUnits="userSpaceOnUse">
<stop stop-color="#76A9FA"/>
<stop offset="1" stop-color="#76A9FA" stop-opacity="0"/>
</linearGradient>
<linearGradient id="paint2_linear_7752_229984" x1="206.985" y1="374.228" x2="135.481" y2="374.228" gradientUnits="userSpaceOnUse">
<stop stop-color="#76A9FA"/>
<stop offset="1" stop-color="#76A9FA" stop-opacity="0"/>
</linearGradient>
<linearGradient id="paint3_linear_7752_229984" x1="226.154" y1="169.043" x2="193.314" y2="108.156" gradientUnits="userSpaceOnUse">
<stop stop-color="#7F270F"/>
<stop offset="1" stop-color="#7F270F" stop-opacity="0"/>
</linearGradient>
<linearGradient id="paint4_linear_7752_229984" x1="241.443" y1="130.743" x2="228.018" y2="97.6857" gradientUnits="userSpaceOnUse">
<stop stop-color="#A4CAFE"/>
<stop offset="1" stop-color="#A4CAFE" stop-opacity="0"/>
</linearGradient>
<linearGradient id="paint5_linear_7752_229984" x1="186.992" y1="271.175" x2="320.419" y2="344.034" gradientUnits="userSpaceOnUse">
<stop stop-color="#111928"/>
<stop offset="1" stop-color="#111928" stop-opacity="0"/>
</linearGradient>
<linearGradient id="paint6_linear_7752_229984" x1="250.734" y1="134.308" x2="265.046" y2="105.416" gradientUnits="userSpaceOnUse">
<stop stop-color="#A4CAFE"/>
<stop offset="1" stop-color="#A4CAFE" stop-opacity="0"/>
</linearGradient>
<linearGradient id="paint7_linear_7752_229984" x1="231.042" y1="80.9058" x2="225.597" y2="139.477" gradientUnits="userSpaceOnUse">
<stop stop-color="#111928"/>
<stop offset="1" stop-color="#111928" stop-opacity="0"/>
</linearGradient>
<linearGradient id="paint8_linear_7752_229984" x1="244.148" y1="64.4949" x2="252.36" y2="223.119" gradientUnits="userSpaceOnUse">
<stop stop-color="#111928"/>
<stop offset="1" stop-color="#111928" stop-opacity="0"/>
</linearGradient>
<linearGradient id="paint9_linear_7752_229984" x1="233.801" y1="213.668" x2="233.801" y2="279.801" gradientUnits="userSpaceOnUse">
<stop stop-color="#E1EFFE"/>
<stop offset="1" stop-color="#E1EFFE" stop-opacity="0"/>
</linearGradient>
<linearGradient id="paint10_linear_7752_229984" x1="250.776" y1="213.472" x2="229.995" y2="119.387" gradientUnits="userSpaceOnUse">
<stop stop-color="#7F270F"/>
<stop offset="1" stop-color="#7F270F" stop-opacity="0"/>
</linearGradient>
<linearGradient id="paint11_linear_7752_229984" x1="221.097" y1="75.7654" x2="240.122" y2="72.2829" gradientUnits="userSpaceOnUse">
<stop stop-color="#7F270F"/>
<stop offset="1" stop-color="#7F270F" stop-opacity="0"/>
</linearGradient>
<linearGradient id="paint12_linear_7752_229984" x1="242.737" y1="47.2424" x2="229.183" y2="70.1756" gradientUnits="userSpaceOnUse">
<stop stop-color="#7F270F"/>
<stop offset="1" stop-color="#7F270F" stop-opacity="0"/>
</linearGradient>
<linearGradient id="paint13_linear_7752_229984" x1="255.179" y1="33.7336" x2="222.378" y2="30.6465" gradientUnits="userSpaceOnUse">
<stop stop-color="#1C64F2"/>
<stop offset="1" stop-color="#1C64F2" stop-opacity="0"/>
</linearGradient>
</defs>
</svg>
