<svg width="536" height="340" viewBox="0 0 536 340" fill="none" xmlns="http://www.w3.org/2000/svg">
<rect width="536" height="340" fill="#111928"/>
<rect x="198" y="56" width="140" height="140" rx="70" fill="#374151"/>
<path fill-rule="evenodd" clip-rule="evenodd" d="M277.365 119.242C279.113 119.242 280.53 117.758 280.53 115.928C280.53 114.097 279.113 112.613 277.365 112.613C275.617 112.613 274.2 114.097 274.2 115.928C274.2 117.758 275.617 119.242 277.365 119.242ZM268.605 139.314H249.711C248.934 139.314 248.454 138.466 248.853 137.799L261.67 116.433C262.053 115.795 262.969 115.777 263.367 116.405C265.131 119.18 269.275 125.713 272.813 131.365L276.632 124.961C276.999 124.345 277.862 124.325 278.272 124.923L287.042 137.732C287.501 138.402 287.054 139.319 286.265 139.327L277.751 139.414L268.605 139.314Z" fill="#6B7280"/>
<rect x="211.5" y="214" width="113" height="10" rx="5" fill="#1C64F2"/>
<rect x="175.5" y="240" width="185" height="8" rx="4" fill="#4B5563"/>
<rect x="160.5" y="254" width="215" height="8" rx="4" fill="#4B5563"/>
<rect x="204" y="278" width="20" height="6" rx="3" fill="#4B5563"/>
<rect x="240" y="278" width="20" height="6" rx="3" fill="#4B5563"/>
<rect x="276" y="278" width="20" height="6" rx="3" fill="#4B5563"/>
<rect x="312" y="278" width="20" height="6" rx="3" fill="#4B5563"/>
</svg>
