<svg width="472" height="224" viewBox="0 0 472 224" fill="none" xmlns="http://www.w3.org/2000/svg">
<rect x="98" width="276" height="10" rx="5" fill="#6B7280"/>
<rect x="127" y="20" width="218" height="10" rx="5" fill="#6B7280"/>
<rect x="109.5" y="46" width="253" height="8" rx="4" fill="#4B5563"/>
<rect y="86" width="94" height="29" rx="4" fill="#374151"/>
<rect x="30.5" y="94" width="33" height="5" rx="2.5" fill="#6B7280"/>
<rect x="14" y="103" width="66" height="4" rx="2" fill="#6B7280"/>
<rect x="126" y="86" width="94" height="29" rx="4" fill="#374151"/>
<rect x="156.5" y="94" width="33" height="5" rx="2.5" fill="#6B7280"/>
<rect x="144" y="103" width="58" height="4" rx="2" fill="#6B7280"/>
<rect x="252" y="86" width="94" height="29" rx="4" fill="#374151"/>
<rect x="282.5" y="94" width="33" height="5" rx="2.5" fill="#6B7280"/>
<rect x="277.5" y="103" width="43" height="4" rx="2" fill="#6B7280"/>
<rect x="378" y="86" width="94" height="29" rx="4" fill="#374151"/>
<rect x="408.5" y="94" width="33" height="5" rx="2.5" fill="#6B7280"/>
<rect x="391.5" y="103" width="67" height="4" rx="2" fill="#6B7280"/>
<rect x="191" y="147" width="47" height="5" rx="2.5" fill="#6B7280"/>
<rect x="248" y="147" width="33" height="5" rx="2.5" fill="#4B5563"/>
<rect x="97.5" y="171.5" width="127" height="17" rx="4.5" fill="#374151"/>
<rect x="97.5" y="171.5" width="127" height="17" rx="4.5" stroke="#4B5563"/>
<rect x="105" y="179" width="35" height="2" rx="1" fill="#6B7280"/>
<rect x="247.5" y="171.5" width="127" height="17" rx="4.5" fill="#374151"/>
<rect x="247.5" y="171.5" width="127" height="17" rx="4.5" stroke="#4B5563"/>
<rect x="255" y="179" width="30" height="2" rx="1" fill="#6B7280"/>
<rect x="201.5" y="208" width="69" height="16" rx="2" fill="#1A56DB"/>
<rect x="217.5" y="214" width="37" height="4" rx="1" fill="white"/>
</svg>
