<svg width="472" height="144" viewBox="0 0 472 144" fill="none" xmlns="http://www.w3.org/2000/svg">
<rect y="0.565094" width="224" height="10" rx="5" fill="#6B7280"/>
<rect y="26.5651" width="224" height="8" rx="4" fill="#4B5563"/>
<rect y="40.5651" width="162" height="8" rx="4" fill="#4B5563"/>
<rect y="54.5651" width="194" height="8" rx="4" fill="#4B5563"/>
<rect y="86.5651" width="65" height="16" rx="2" fill="#1A56DB"/>
<rect x="16" y="92.5651" width="33" height="4" rx="1" fill="white"/>
<rect x="72" y="86.5651" width="65" height="16" rx="2" stroke="#4B5563"/>
<rect x="88" y="92.5651" width="33" height="4" rx="1" fill="#4B5563"/>
<path d="M5.64961 138.959C7.3064 138.959 8.55488 138.417 9.5322 137.398C10.5383 136.391 10.8506 134.981 10.8506 133.84C10.8506 133.486 10.8235 133.161 10.7691 132.888H5.64961V134.409H9.28889C9.18025 135.265 8.89393 135.89 8.46117 136.324C7.93064 136.853 7.10315 137.438 5.64961 137.438C3.40921 137.438 1.65702 135.631 1.65702 133.391C1.65702 131.15 3.40921 129.343 5.64961 129.343C6.85735 129.343 7.74153 129.819 8.39225 130.43L9.46543 129.357C8.55488 128.489 7.34714 127.823 5.64961 127.823C2.57991 127.823 0 130.32 0 133.391C0 136.46 2.57991 138.959 5.64961 138.959ZM14.9937 138.959C16.9753 138.959 18.5914 137.438 18.5914 135.372C18.5914 133.296 16.9753 131.788 14.9937 131.788C13.0087 131.788 11.3927 133.296 11.3927 135.372C11.3927 137.438 13.0087 138.959 14.9937 138.959ZM14.9937 137.546C13.9062 137.546 12.968 136.65 12.968 135.372C12.968 134.083 13.9062 133.202 14.9937 133.202C16.079 133.202 17.0161 134.083 17.0161 135.372C17.0161 136.65 16.079 137.546 14.9937 137.546ZM22.842 138.959C24.8247 138.959 26.4407 137.438 26.4407 135.372C26.4407 133.296 24.8247 131.788 22.842 131.788C20.8581 131.788 19.2421 133.296 19.2421 135.372C19.2421 137.438 20.8581 138.959 22.842 138.959ZM22.842 137.546C21.7556 137.546 20.8174 136.65 20.8174 135.372C20.8174 134.083 21.7556 133.202 22.842 133.202C23.9284 133.202 24.8654 134.083 24.8654 135.372C24.8654 136.65 23.9284 137.546 22.842 137.546ZM30.5556 142.177C32.4013 142.177 33.9653 141.092 33.9653 138.443V132.006H32.4704V132.59H32.416C32.0618 132.169 31.3828 131.788 30.5295 131.788C28.7358 131.788 27.0937 133.364 27.0937 135.387C27.0937 137.398 28.7358 138.959 30.5295 138.959C31.3828 138.959 32.0618 138.578 32.416 138.144H32.4704V138.66C32.4704 140.033 31.737 140.765 30.5556 140.765C29.5925 140.765 28.9938 140.073 28.7483 139.487L27.3778 140.059C27.7727 141.01 28.8173 142.177 30.5556 142.177ZM30.6631 137.546C29.5778 137.546 28.6668 136.638 28.6668 135.387C28.6668 134.124 29.5778 133.202 30.6631 133.202C31.737 133.202 32.579 134.124 32.579 135.387C32.579 136.638 31.737 137.546 30.6631 137.546ZM36.6259 128.203H35.0506V138.741H36.6259V128.203ZM40.9444 138.959C42.5865 138.959 43.5383 137.955 43.9321 137.37L42.7087 136.556C42.3025 137.151 41.7457 137.546 40.9444 137.546C40.1432 137.546 39.5717 137.18 39.2062 136.46L44 134.476L43.837 134.07C43.5383 133.269 42.6273 131.788 40.7679 131.788C38.921 131.788 37.3864 133.242 37.3864 135.372C37.3864 137.383 38.9074 138.959 40.9444 138.959ZM38.9482 135.265C38.9074 133.881 40.021 133.173 40.8222 133.173C41.4469 133.173 41.9765 133.486 42.1542 133.934L38.9482 135.265Z" fill="#6B7280"/>
<g clip-path="url(#clip0_4385_59297)">
<path d="M119.991 134.549V133.493H118.68V131.853L118.636 131.867L117.405 132.242H117.382V133.484H115.439V132.79C115.439 132.472 115.514 132.223 115.655 132.059C115.796 131.895 116.002 131.813 116.255 131.813C116.443 131.813 116.639 131.86 116.827 131.944L116.874 131.963V130.856L116.855 130.847C116.677 130.784 116.433 130.751 116.133 130.751C115.754 130.751 115.407 130.835 115.102 131.001C114.797 131.16 114.558 131.4 114.394 131.7C114.225 132 114.141 132.346 114.141 132.726V133.485H113.232V134.54H114.146V138.984H115.454V134.54H117.397V137.362C117.397 138.525 117.944 139.115 119.029 139.115C119.207 139.115 119.394 139.093 119.582 139.054C119.776 139.012 119.91 138.97 119.985 138.928L120.004 138.918V137.854L119.951 137.89C119.88 137.937 119.791 137.977 119.688 138.006C119.585 138.034 119.496 138.052 119.429 138.052C119.176 138.052 118.989 137.987 118.874 137.852C118.754 137.719 118.695 137.482 118.695 137.149V134.552H119.999L119.996 134.546L119.991 134.549ZM110.292 138.055C109.817 138.055 109.442 137.897 109.176 137.587C108.913 137.275 108.778 136.83 108.778 136.265C108.778 135.682 108.913 135.224 109.178 134.907C109.442 134.592 109.814 134.432 110.282 134.432C110.737 134.432 111.093 134.585 111.356 134.887C111.618 135.19 111.749 135.643 111.749 136.233C111.749 136.83 111.628 137.289 111.384 137.595C111.14 137.9 110.774 138.055 110.296 138.055L110.292 138.055ZM110.353 133.361C109.448 133.361 108.727 133.627 108.213 134.151C107.702 134.676 107.441 135.4 107.441 136.307C107.441 137.169 107.694 137.861 108.197 138.365C108.698 138.871 109.381 139.133 110.225 139.133C111.103 139.133 111.809 138.862 112.321 138.334C112.837 137.804 113.093 137.085 113.093 136.2C113.093 135.325 112.849 134.627 112.366 134.128C111.884 133.625 111.207 133.371 110.351 133.371L110.353 133.361ZM105.326 133.371C104.707 133.371 104.199 133.528 103.807 133.839C103.417 134.152 103.216 134.561 103.216 135.058C103.216 135.318 103.26 135.546 103.346 135.742C103.43 135.937 103.561 136.108 103.737 136.252C103.91 136.393 104.177 136.543 104.534 136.697C104.834 136.819 105.054 136.922 105.196 137.006C105.337 137.085 105.436 137.166 105.487 137.244C105.543 137.319 105.571 137.427 105.571 137.553C105.571 137.925 105.296 138.105 104.728 138.105C104.516 138.105 104.275 138.06 104.011 137.973C103.746 137.887 103.499 137.762 103.277 137.602L103.221 137.565V138.821L103.239 138.83C103.427 138.915 103.658 138.99 103.933 139.046C104.207 139.107 104.458 139.135 104.674 139.135C105.344 139.135 105.883 138.975 106.277 138.664C106.671 138.349 106.872 137.928 106.872 137.415C106.872 137.045 106.764 136.726 106.551 136.471C106.34 136.215 105.974 135.982 105.462 135.775C105.058 135.611 104.796 135.475 104.684 135.372C104.581 135.271 104.533 135.128 104.533 134.948C104.533 134.789 104.598 134.661 104.732 134.557C104.866 134.452 105.053 134.4 105.288 134.4C105.506 134.4 105.728 134.432 105.953 134.5C106.174 134.57 106.368 134.66 106.53 134.77L106.585 134.808V133.608L106.566 133.598C106.414 133.533 106.216 133.478 105.975 133.434C105.736 133.389 105.519 133.369 105.331 133.369L105.326 133.371ZM99.7996 138.061C99.3262 138.061 98.9512 137.904 98.6887 137.592C98.4215 137.283 98.2879 136.837 98.2879 136.27C98.2879 135.689 98.422 135.23 98.6882 134.914C98.9507 134.599 99.3229 134.439 99.7898 134.439C100.244 134.439 100.605 134.592 100.866 134.894C101.124 135.198 101.259 135.651 101.259 136.241C101.259 136.837 101.133 137.295 100.889 137.602C100.65 137.907 100.284 138.062 99.8015 138.062L99.7996 138.061ZM99.8671 133.37C98.9577 133.37 98.2359 133.634 97.7249 134.158C97.2107 134.683 96.9515 135.407 96.9515 136.314C96.9515 137.177 97.2046 137.868 97.7029 138.372C98.2054 138.878 98.887 139.141 99.7302 139.141C100.611 139.141 101.315 138.869 101.83 138.339C102.343 137.808 102.604 137.089 102.604 136.204C102.604 135.329 102.36 134.631 101.882 134.132C101.399 133.628 100.721 133.374 99.8662 133.374L99.8671 133.37ZM94.9734 134.456V133.5H93.6796V138.998H94.9734V136.186C94.9734 135.708 95.0812 135.314 95.2954 135.016C95.5063 134.72 95.7876 134.576 96.1298 134.576C96.247 134.576 96.3782 134.595 96.5226 134.632C96.6632 134.67 96.7645 134.707 96.8226 134.754L96.8788 134.791V133.488L96.8582 133.479C96.7363 133.425 96.5676 133.398 96.352 133.398C96.0285 133.398 95.7379 133.503 95.4885 133.708C95.2682 133.89 95.1102 134.137 94.9893 134.446H94.9659L94.9776 134.456L94.9734 134.456ZM91.3546 133.369C90.7593 133.369 90.2296 133.493 89.7796 133.744C89.3259 133.997 88.9781 134.353 88.739 134.812C88.5046 135.267 88.3827 135.799 88.3827 136.392C88.3827 136.912 88.5009 137.388 88.7296 137.809C88.9612 138.231 89.2874 138.559 89.6999 138.788C90.1096 139.015 90.5859 139.131 91.1127 139.131C91.7277 139.131 92.2518 139.009 92.6737 138.765L92.6924 138.756V137.569L92.6362 137.608C92.4454 137.748 92.2331 137.858 92.0034 137.938C91.7746 138.018 91.5665 138.058 91.3846 138.058C90.8756 138.058 90.4687 137.899 90.1724 137.587C89.8724 137.268 89.7224 136.828 89.7224 136.275C89.7224 135.712 89.8818 135.262 90.1893 134.934C90.4987 134.596 90.9056 134.428 91.4034 134.428C91.8252 134.428 92.241 134.573 92.6329 134.854L92.6891 134.892V133.645L92.6737 133.635C92.526 133.551 92.3254 133.485 92.0737 133.432C91.8271 133.38 91.5843 133.355 91.3527 133.355L91.3546 133.369ZM87.4949 133.486H86.2031V138.99H87.4968V133.486H87.4949ZM86.8574 131.147C86.6446 131.147 86.459 131.22 86.3062 131.363C86.1534 131.507 86.0756 131.688 86.0756 131.902C86.0756 132.113 86.1538 132.291 86.3052 132.432C86.4552 132.572 86.6427 132.642 86.8584 132.642C87.074 132.642 87.2615 132.571 87.4138 132.431C87.5676 132.29 87.6454 132.112 87.6454 131.901C87.6454 131.695 87.5704 131.517 87.4204 131.367C87.2704 131.226 87.0829 131.151 86.8579 131.151L86.8574 131.147ZM83.6282 133.087V138.993H84.9501V131.325H83.122L80.8049 137.024L78.5502 131.324H76.6499V138.998H77.8921V133.095H77.9343L80.3155 139H81.2507L83.5945 133.095H83.639L83.632 133.092L83.6282 133.087ZM66.7204 135.473H72.8048V141.562H66.711L66.7195 135.477L66.7204 135.473ZM59.9999 135.477H66.0834V141.562H59.998L59.9999 135.477V135.477ZM66.7209 128.756H72.8052V134.841H66.7171L66.7209 128.754V128.756ZM59.9999 128.755H66.0834V134.841H59.998L59.9999 128.754V128.755Z" fill="#6B7280"/>
</g>
<path d="M157.747 134.221C159.39 134.62 160.06 135.241 160.06 136.362C160.06 137.689 159.047 138.546 157.478 138.546C156.369 138.546 155.341 138.152 154.505 137.406C154.488 137.391 154.477 137.369 154.476 137.346C154.474 137.324 154.482 137.301 154.497 137.283L155.235 136.405C155.242 136.396 155.252 136.389 155.262 136.383C155.273 136.378 155.284 136.375 155.296 136.374C155.307 136.373 155.319 136.374 155.33 136.378C155.341 136.382 155.352 136.388 155.36 136.395C156.079 137.017 156.721 137.282 157.508 137.282C158.216 137.282 158.657 136.975 158.657 136.482C158.657 136.036 158.439 135.788 157.148 135.49C155.633 135.124 154.755 134.649 154.755 133.309C154.755 132.058 155.772 131.185 157.228 131.185C158.218 131.185 159.066 131.478 159.818 132.082C159.854 132.111 159.862 132.164 159.835 132.202L159.176 133.13C159.169 133.139 159.16 133.147 159.15 133.153C159.14 133.16 159.129 133.164 159.118 133.166C159.106 133.167 159.094 133.167 159.083 133.164C159.071 133.161 159.06 133.156 159.051 133.15C158.419 132.678 157.816 132.449 157.208 132.449C156.581 132.449 156.159 132.751 156.159 133.199C156.159 133.672 156.399 133.898 157.748 134.22L157.747 134.221ZM163.61 132.891C162.93 132.891 162.372 133.159 161.912 133.707V133.09C161.912 133.066 161.903 133.044 161.886 133.027C161.869 133.011 161.847 133.001 161.824 133.001H160.616C160.593 133.001 160.571 133.011 160.554 133.027C160.537 133.044 160.528 133.066 160.528 133.09V139.954C160.528 140.003 160.568 140.042 160.616 140.042H161.824C161.873 140.042 161.912 140.003 161.912 139.954V137.787C162.372 138.303 162.93 138.556 163.61 138.556C164.874 138.556 166.153 137.583 166.153 135.723C166.153 133.864 164.874 132.891 163.61 132.891ZM164.748 135.724C164.748 136.67 164.165 137.331 163.33 137.331C162.504 137.331 161.881 136.64 161.881 135.724C161.881 134.807 162.504 134.116 163.33 134.116C164.152 134.116 164.749 134.792 164.749 135.724H164.748ZM169.431 132.891C167.804 132.891 166.529 134.144 166.529 135.744C166.529 137.327 167.795 138.566 169.411 138.566C171.044 138.566 172.323 137.317 172.323 135.724C172.323 134.135 171.053 132.891 169.431 132.891L169.431 132.891ZM169.431 137.341C168.565 137.341 167.913 136.646 167.913 135.723C167.913 134.798 168.543 134.126 169.411 134.126C170.282 134.126 170.939 134.821 170.939 135.744C170.939 136.669 170.305 137.341 169.431 137.341V137.341ZM175.798 133.001C175.847 133.001 175.886 133.041 175.886 133.09V134.127C175.886 134.139 175.884 134.151 175.88 134.161C175.875 134.172 175.869 134.182 175.861 134.19C175.852 134.198 175.843 134.205 175.832 134.209C175.821 134.214 175.81 134.216 175.798 134.216H174.47V136.712C174.47 137.106 174.643 137.282 175.03 137.282C175.277 137.283 175.52 137.224 175.739 137.111C175.752 137.104 175.767 137.101 175.783 137.102C175.798 137.102 175.812 137.107 175.825 137.115C175.838 137.123 175.849 137.134 175.856 137.147C175.863 137.16 175.867 137.175 175.867 137.19V138.178C175.867 138.209 175.85 138.239 175.823 138.255C175.484 138.447 175.125 138.536 174.691 138.536C173.626 138.536 173.086 137.986 173.086 136.901V134.216H172.506C172.494 134.216 172.483 134.214 172.472 134.209C172.461 134.205 172.452 134.198 172.443 134.19C172.435 134.182 172.429 134.172 172.424 134.161C172.42 134.151 172.418 134.139 172.418 134.128V133.09C172.418 133.041 172.457 133.001 172.506 133.001H173.086V131.643C173.086 131.594 173.126 131.555 173.175 131.555H174.382C174.431 131.555 174.47 131.594 174.47 131.643V133.001H175.799H175.798ZM182.49 133.007C182.527 133.007 182.56 133.029 182.573 133.064L183.983 136.744L185.271 133.066C185.277 133.048 185.288 133.033 185.303 133.023C185.318 133.012 185.336 133.006 185.354 133.006H186.611C186.626 133.006 186.64 133.01 186.653 133.016C186.665 133.023 186.676 133.033 186.684 133.045C186.692 133.057 186.697 133.07 186.699 133.085C186.701 133.099 186.699 133.114 186.693 133.127L184.598 138.54C184.164 139.657 183.671 140.073 182.78 140.073C182.303 140.073 181.917 139.974 181.49 139.743C181.47 139.732 181.455 139.714 181.448 139.693C181.441 139.672 181.443 139.649 181.452 139.629L181.861 138.73C181.866 138.719 181.874 138.709 181.883 138.701C181.892 138.693 181.902 138.687 181.914 138.683C181.925 138.679 181.937 138.678 181.95 138.679C181.962 138.68 181.974 138.684 181.984 138.69C182.213 138.815 182.437 138.878 182.65 138.878C182.913 138.878 183.106 138.792 183.302 138.357L181.575 134.216H180.448V138.358C180.448 138.407 180.408 138.446 180.359 138.446H179.152C179.14 138.446 179.129 138.444 179.118 138.44C179.107 138.435 179.098 138.429 179.089 138.42C179.081 138.412 179.075 138.402 179.07 138.392C179.066 138.381 179.063 138.369 179.064 138.358V134.216H178.484C178.46 134.216 178.438 134.206 178.421 134.19C178.405 134.173 178.395 134.151 178.395 134.127V133.085C178.395 133.036 178.435 132.996 178.483 132.996H179.063V132.741C179.063 131.553 179.653 130.925 180.768 130.925C181.226 130.925 181.532 130.998 181.772 131.069C181.809 131.081 181.834 131.115 181.834 131.154V132.171C181.835 132.185 181.831 132.199 181.825 132.212C181.819 132.224 181.81 132.235 181.798 132.243C181.787 132.252 181.774 132.257 181.76 132.259C181.746 132.261 181.732 132.26 181.718 132.255C181.492 132.18 181.29 132.13 181.038 132.13C180.616 132.13 180.428 132.349 180.428 132.84V133.007H182.49H182.49ZM177.744 133.001C177.792 133.001 177.832 133.041 177.832 133.09V138.358C177.832 138.406 177.792 138.446 177.743 138.446H176.536C176.513 138.446 176.49 138.437 176.473 138.42C176.457 138.403 176.448 138.381 176.447 138.358V133.09C176.447 133.041 176.487 133.001 176.536 133.001H177.743H177.744ZM177.146 130.603C177.376 130.603 177.596 130.694 177.758 130.857C177.921 131.019 178.012 131.239 178.012 131.469C178.012 131.698 177.921 131.919 177.758 132.081C177.596 132.243 177.376 132.335 177.146 132.335C176.916 132.335 176.696 132.243 176.534 132.081C176.371 131.919 176.28 131.698 176.28 131.469C176.28 131.239 176.371 131.019 176.534 130.857C176.696 130.694 176.916 130.603 177.146 130.603ZM187.724 134.695C187.612 134.695 187.502 134.674 187.398 134.631C187.295 134.588 187.201 134.526 187.122 134.447C187.043 134.368 186.981 134.274 186.938 134.171C186.896 134.068 186.874 133.957 186.874 133.845C186.874 133.733 186.896 133.622 186.939 133.518C186.982 133.415 187.045 133.321 187.124 133.241C187.204 133.162 187.298 133.099 187.402 133.056C187.505 133.013 187.616 132.991 187.728 132.991C187.84 132.991 187.951 133.012 188.054 133.055C188.157 133.097 188.251 133.16 188.33 133.239C188.409 133.318 188.472 133.412 188.514 133.515C188.557 133.618 188.579 133.729 188.578 133.84C188.578 133.953 188.556 134.064 188.513 134.167C188.47 134.271 188.407 134.365 188.328 134.445C188.249 134.524 188.155 134.587 188.051 134.63C187.947 134.673 187.836 134.695 187.724 134.695V134.695ZM187.728 133.076C187.293 133.076 186.964 133.422 186.964 133.845C186.964 134.269 187.291 134.61 187.724 134.61C188.159 134.61 188.489 134.264 188.489 133.841C188.489 133.417 188.161 133.076 187.728 133.076ZM187.917 133.928L188.157 134.264H187.954L187.739 133.956H187.553V134.264H187.383V133.373H187.781C187.987 133.373 188.124 133.479 188.124 133.657C188.124 133.803 188.04 133.893 187.917 133.928L187.917 133.928ZM187.773 133.526H187.552V133.807H187.773C187.883 133.807 187.949 133.753 187.949 133.666C187.949 133.574 187.883 133.525 187.773 133.525V133.526ZM144.309 127.011C139.996 127.011 136.5 130.556 136.5 134.87C136.499 138.923 139.586 142.194 143.537 142.691H145.082C149.033 142.194 152.119 138.923 152.119 134.869C152.119 130.556 148.622 127.011 144.309 127.011H144.309ZM147.891 138.276C147.858 138.33 147.814 138.378 147.762 138.416C147.711 138.453 147.652 138.48 147.59 138.495C147.528 138.51 147.463 138.513 147.4 138.503C147.337 138.493 147.276 138.471 147.222 138.437C145.387 137.317 143.079 137.064 140.361 137.685C140.298 137.699 140.234 137.701 140.171 137.69C140.108 137.679 140.048 137.657 139.993 137.623C139.939 137.589 139.892 137.544 139.855 137.492C139.818 137.44 139.792 137.381 139.778 137.319C139.763 137.257 139.762 137.192 139.772 137.129C139.783 137.066 139.806 137.006 139.84 136.951C139.874 136.897 139.918 136.85 139.97 136.813C140.023 136.776 140.082 136.75 140.144 136.736C143.119 136.056 145.671 136.349 147.729 137.607C147.839 137.674 147.918 137.782 147.948 137.908C147.979 138.033 147.958 138.166 147.891 138.276L147.891 138.276ZM148.846 136.149C148.762 136.287 148.626 136.385 148.469 136.423C148.312 136.46 148.147 136.434 148.009 136.35C145.91 135.06 142.71 134.686 140.227 135.44C140.072 135.486 139.905 135.47 139.763 135.394C139.621 135.318 139.514 135.188 139.467 135.034C139.37 134.711 139.551 134.372 139.873 134.275C142.71 133.414 146.236 133.831 148.647 135.312C148.784 135.396 148.882 135.532 148.92 135.689C148.957 135.846 148.931 136.012 148.847 136.149H148.846ZM148.929 133.935C146.411 132.44 142.259 132.302 139.856 133.032C139.67 133.088 139.47 133.068 139.299 132.977C139.128 132.885 139.001 132.73 138.945 132.544C138.888 132.359 138.908 132.159 139 131.988C139.091 131.817 139.246 131.69 139.432 131.633C142.191 130.796 146.777 130.958 149.675 132.678C149.757 132.727 149.829 132.792 149.887 132.868C149.944 132.945 149.986 133.033 150.01 133.125C150.034 133.218 150.039 133.315 150.025 133.41C150.012 133.505 149.979 133.596 149.93 133.679C149.881 133.762 149.817 133.834 149.74 133.891C149.663 133.949 149.576 133.991 149.483 134.014C149.39 134.038 149.293 134.043 149.198 134.029C149.103 134.016 149.012 133.984 148.929 133.934L148.929 133.935Z" fill="#6B7280"/>
<rect x="256" y="5" width="216" height="134" rx="8" fill="#374151"/>
<circle cx="275" cy="71.5" r="8" fill="#4B5563"/>
<path d="M275.75 74.4167L272.833 71.5L275.75 68.5833" stroke="#6B7280" stroke-linecap="round" stroke-linejoin="round"/>
<circle cx="454.5" cy="71" r="8" fill="#4B5563"/>
<path d="M453.25 68.0833L456.167 71L453.25 73.9167" stroke="#6B7280" stroke-linecap="round" stroke-linejoin="round"/>
<path d="M348 123C348 124.105 347.105 125 346 125C344.895 125 344 124.105 344 123C344 121.895 344.895 121 346 121C347.105 121 348 121.895 348 123Z" fill="#6B7280"/>
<path d="M357 123C357 124.105 356.105 125 355 125C353.895 125 353 124.105 353 123C353 121.895 353.895 121 355 121C356.105 121 357 121.895 357 123Z" fill="#6B7280"/>
<path d="M366 123C366 124.105 365.105 125 364 125C362.895 125 362 124.105 362 123C362 121.895 362.895 121 364 121C365.105 121 366 121.895 366 123Z" fill="#6B7280"/>
<path d="M375 123C375 124.105 374.105 125 373 125C371.895 125 371 124.105 371 123C371 121.895 371.895 121 373 121C374.105 121 375 121.895 375 123Z" fill="#6B7280"/>
<path d="M384 123C384 124.105 383.105 125 382 125C380.895 125 380 124.105 380 123C380 121.895 380.895 121 382 121C383.105 121 384 121.895 384 123Z" fill="#6B7280"/>
<path fill-rule="evenodd" clip-rule="evenodd" d="M374.844 63.6759C376.868 63.6759 378.509 61.9576 378.509 59.8379C378.509 57.7183 376.868 56 374.844 56C372.82 56 371.179 57.7183 371.179 59.8379C371.179 61.9576 372.82 63.6759 374.844 63.6759ZM364.7 86.9164H342.545C341.767 86.9164 341.287 86.0685 341.687 85.402L356.803 60.2033C357.185 59.5658 358.101 59.549 358.5 60.1764C360.458 63.2568 365.383 71.0179 369.573 77.7128L374.117 70.0924C374.485 69.4759 375.348 69.4557 375.757 70.054L386.22 85.3333C386.678 86.0033 386.232 86.9206 385.443 86.9286L375.29 87.0323L364.7 86.9164Z" fill="#6B7280"/>
<defs>
<clipPath id="clip0_4385_59297">
<rect width="60" height="13.125" fill="white" transform="translate(60 128.438)"/>
</clipPath>
</defs>
</svg>
