<svg width="536" height="340" viewBox="0 0 536 340" fill="none" xmlns="http://www.w3.org/2000/svg">
<rect width="536" height="340" fill="#111928"/>
<rect x="130" y="38.5" width="276" height="10" rx="5" fill="#6B7280"/>
<rect x="174.5" y="64.5" width="187" height="8" rx="4" fill="#4B5563"/>
<rect x="164.5" y="78.5" width="207" height="8" rx="4" fill="#4B5563"/>
<rect x="195" y="106.5" width="37" height="8" rx="4" fill="#6B7280"/>
<rect x="248" y="102.5" width="32" height="16" rx="8" fill="#6B7280"/>
<rect x="251.185" y="104.5" width="12" height="12" rx="6" fill="#9CA3AF"/>
<rect x="296" y="106.5" width="45" height="8" rx="4" fill="#9CA3AF"/>
<rect x="48.5" y="135" width="135" height="166" rx="4.5" stroke="#1F2A37"/>
<rect x="97.5" y="150.5" width="37" height="7" rx="2" fill="#6B7280"/>
<path d="M102.099 190.318V172.136H103.264V190.318H102.099ZM104.904 178.315C104.857 177.795 104.646 177.39 104.272 177.101C103.903 176.807 103.375 176.661 102.689 176.661C102.234 176.661 101.855 176.72 101.552 176.838C101.249 176.956 101.022 177.12 100.87 177.328C100.719 177.532 100.641 177.766 100.636 178.031C100.627 178.249 100.669 178.441 100.764 178.607C100.863 178.772 101.005 178.919 101.19 179.047C101.379 179.17 101.607 179.279 101.872 179.374C102.137 179.468 102.435 179.551 102.767 179.622L104.017 179.906C104.736 180.062 105.371 180.271 105.92 180.531C106.474 180.792 106.938 181.102 107.312 181.462C107.691 181.821 107.977 182.236 108.172 182.705C108.366 183.173 108.465 183.699 108.47 184.281C108.465 185.2 108.233 185.988 107.774 186.646C107.315 187.304 106.654 187.809 105.792 188.159C104.935 188.509 103.901 188.685 102.689 188.685C101.472 188.685 100.411 188.502 99.5067 188.138C98.6024 187.773 97.8993 187.219 97.3974 186.476C96.8955 185.732 96.6374 184.793 96.6232 183.656H99.9897C100.018 184.125 100.144 184.516 100.366 184.828C100.589 185.141 100.894 185.377 101.282 185.538C101.675 185.699 102.13 185.78 102.646 185.78C103.119 185.78 103.522 185.716 103.853 185.588C104.19 185.46 104.448 185.283 104.627 185.055C104.807 184.828 104.9 184.568 104.904 184.274C104.9 184 104.815 183.765 104.649 183.571C104.483 183.372 104.227 183.202 103.882 183.06C103.541 182.913 103.105 182.778 102.575 182.655L101.055 182.3C99.7956 182.011 98.8036 181.545 98.0792 180.901C97.3548 180.252 96.9949 179.376 96.9996 178.273C96.9949 177.373 97.2364 176.585 97.7241 175.908C98.2118 175.231 98.8865 174.703 99.7482 174.324C100.61 173.945 101.592 173.756 102.696 173.756C103.823 173.756 104.8 173.947 105.629 174.331C106.462 174.71 107.109 175.242 107.568 175.929C108.027 176.616 108.261 177.411 108.271 178.315H104.904ZM115.693 173.756C116.488 173.756 117.248 173.886 117.973 174.146C118.697 174.402 119.343 174.812 119.912 175.375C120.48 175.934 120.927 176.67 121.254 177.584C121.581 178.498 121.744 179.613 121.744 180.929C121.749 182.141 121.607 183.228 121.318 184.189C121.029 185.145 120.615 185.96 120.075 186.632C119.54 187.304 118.896 187.818 118.143 188.173C117.39 188.524 116.55 188.699 115.622 188.699C114.599 188.699 113.697 188.502 112.916 188.109C112.139 187.712 111.517 187.177 111.048 186.504C110.584 185.832 110.307 185.079 110.217 184.246H113.676C113.785 184.729 114.014 185.093 114.365 185.339C114.715 185.581 115.134 185.702 115.622 185.702C116.512 185.702 117.177 185.316 117.618 184.544C118.058 183.772 118.278 182.723 118.278 181.398H118.193C117.989 181.833 117.7 182.207 117.326 182.52C116.957 182.832 116.529 183.071 116.041 183.237C115.553 183.403 115.039 183.486 114.5 183.486C113.628 183.486 112.859 183.287 112.191 182.889C111.529 182.491 111.008 181.945 110.629 181.249C110.255 180.553 110.065 179.757 110.061 178.862C110.056 177.858 110.29 176.973 110.764 176.206C111.237 175.434 111.898 174.833 112.745 174.402C113.593 173.966 114.575 173.751 115.693 173.756ZM115.714 176.455C115.279 176.455 114.89 176.556 114.549 176.76C114.213 176.964 113.948 177.238 113.754 177.584C113.56 177.929 113.465 178.318 113.47 178.749C113.475 179.179 113.572 179.568 113.761 179.913C113.955 180.259 114.218 180.534 114.549 180.737C114.886 180.941 115.269 181.043 115.7 181.043C116.022 181.043 116.32 180.983 116.595 180.865C116.869 180.747 117.109 180.583 117.312 180.375C117.516 180.162 117.674 179.916 117.788 179.636C117.906 179.357 117.963 179.059 117.958 178.741C117.954 178.32 117.854 177.937 117.66 177.591C117.466 177.245 117.199 176.971 116.858 176.767C116.521 176.559 116.14 176.455 115.714 176.455ZM129.15 173.756C129.945 173.756 130.705 173.886 131.43 174.146C132.154 174.402 132.8 174.812 133.369 175.375C133.937 175.934 134.384 176.67 134.711 177.584C135.038 178.498 135.201 179.613 135.201 180.929C135.206 182.141 135.064 183.228 134.775 184.189C134.486 185.145 134.072 185.96 133.532 186.632C132.997 187.304 132.353 187.818 131.6 188.173C130.847 188.524 130.007 188.699 129.079 188.699C128.056 188.699 127.154 188.502 126.373 188.109C125.596 187.712 124.974 187.177 124.505 186.504C124.041 185.832 123.764 185.079 123.674 184.246H127.133C127.242 184.729 127.471 185.093 127.822 185.339C128.172 185.581 128.591 185.702 129.079 185.702C129.969 185.702 130.634 185.316 131.075 184.544C131.515 183.772 131.735 182.723 131.735 181.398H131.65C131.446 181.833 131.157 182.207 130.783 182.52C130.414 182.832 129.986 183.071 129.498 183.237C129.01 183.403 128.496 183.486 127.957 183.486C127.085 183.486 126.316 183.287 125.648 182.889C124.986 182.491 124.465 181.945 124.086 181.249C123.712 180.553 123.522 179.757 123.518 178.862C123.513 177.858 123.747 176.973 124.221 176.206C124.694 175.434 125.355 174.833 126.202 174.402C127.05 173.966 128.032 173.751 129.15 173.756ZM129.171 176.455C128.736 176.455 128.347 176.556 128.006 176.76C127.67 176.964 127.405 177.238 127.211 177.584C127.017 177.929 126.922 178.318 126.927 178.749C126.932 179.179 127.029 179.568 127.218 179.913C127.412 180.259 127.675 180.534 128.006 180.737C128.343 180.941 128.726 181.043 129.157 181.043C129.479 181.043 129.777 180.983 130.052 180.865C130.326 180.747 130.566 180.583 130.769 180.375C130.973 180.162 131.131 179.916 131.245 179.636C131.363 179.357 131.42 179.059 131.415 178.741C131.411 178.32 131.311 177.937 131.117 177.591C130.923 177.245 130.656 176.971 130.315 176.767C129.978 176.559 129.597 176.455 129.171 176.455Z" fill="#9CA3AF"/>
<rect x="64" y="208.5" width="104" height="16" rx="3" fill="#4B5563"/>
<rect x="91" y="214.5" width="50" height="4" rx="1" fill="#9CA3AF"/>
<path d="M67.75 244.5L68.5833 245.333L70.25 243.667M72.75 244.5C72.75 244.992 72.653 245.48 72.4645 245.935C72.2761 246.39 71.9999 246.803 71.6516 247.152C71.3034 247.5 70.89 247.776 70.4351 247.965C69.9801 248.153 69.4925 248.25 69 248.25C68.5075 248.25 68.0199 248.153 67.5649 247.965C67.11 247.776 66.6966 247.5 66.3483 247.152C66.0001 246.803 65.7239 246.39 65.5355 245.935C65.347 245.48 65.25 244.992 65.25 244.5C65.25 243.505 65.6451 242.552 66.3483 241.848C67.0516 241.145 68.0054 240.75 69 240.75C69.9946 240.75 70.9484 241.145 71.6516 241.848C72.3549 242.552 72.75 243.505 72.75 244.5Z" stroke="#6B7280" stroke-linecap="round" stroke-linejoin="round"/>
<rect x="80" y="241.5" width="88" height="6" rx="3" fill="#6B7280"/>
<path d="M67.75 262.5L68.5833 263.333L70.25 261.667M72.75 262.5C72.75 262.992 72.653 263.48 72.4645 263.935C72.2761 264.39 71.9999 264.803 71.6516 265.152C71.3034 265.5 70.89 265.776 70.4351 265.965C69.9801 266.153 69.4925 266.25 69 266.25C68.5075 266.25 68.0199 266.153 67.5649 265.965C67.11 265.776 66.6966 265.5 66.3483 265.152C66.0001 264.803 65.7239 264.39 65.5355 263.935C65.347 263.48 65.25 262.992 65.25 262.5C65.25 261.505 65.6451 260.552 66.3483 259.848C67.0516 259.145 68.0054 258.75 69 258.75C69.9946 258.75 70.9484 259.145 71.6516 259.848C72.3549 260.552 72.75 261.505 72.75 262.5Z" stroke="#6B7280" stroke-linecap="round" stroke-linejoin="round"/>
<rect x="80" y="259.5" width="73" height="6" rx="3" fill="#6B7280"/>
<path d="M67.75 280.5L68.5833 281.333L70.25 279.667M72.75 280.5C72.75 280.992 72.653 281.48 72.4645 281.935C72.2761 282.39 71.9999 282.803 71.6516 283.152C71.3034 283.5 70.89 283.776 70.4351 283.965C69.9801 284.153 69.4925 284.25 69 284.25C68.5075 284.25 68.0199 284.153 67.5649 283.965C67.11 283.776 66.6966 283.5 66.3483 283.152C66.0001 282.803 65.7239 282.39 65.5355 281.935C65.347 281.48 65.25 280.992 65.25 280.5C65.25 279.505 65.6451 278.552 66.3483 277.848C67.0516 277.145 68.0054 276.75 69 276.75C69.9946 276.75 70.9484 277.145 71.6516 277.848C72.3549 278.552 72.75 279.505 72.75 280.5Z" stroke="#6B7280" stroke-linecap="round" stroke-linejoin="round"/>
<rect x="80" y="277.5" width="79" height="6" rx="3" fill="#6B7280"/>
<rect x="200.5" y="135" width="135" height="166" rx="4.5" stroke="#1C64F2"/>
<rect x="249.5" y="150.5" width="37" height="7" rx="2" fill="#6B7280"/>
<path d="M247.722 190.318V172.136H248.887V190.318H247.722ZM250.528 178.315C250.48 177.795 250.269 177.39 249.895 177.101C249.526 176.807 248.998 176.661 248.312 176.661C247.857 176.661 247.478 176.72 247.175 176.838C246.872 176.956 246.645 177.12 246.493 177.328C246.342 177.532 246.264 177.766 246.259 178.031C246.25 178.249 246.292 178.441 246.387 178.607C246.486 178.772 246.628 178.919 246.813 179.047C247.002 179.17 247.23 179.279 247.495 179.374C247.76 179.468 248.058 179.551 248.39 179.622L249.64 179.906C250.359 180.062 250.994 180.271 251.543 180.531C252.097 180.792 252.561 181.102 252.935 181.462C253.314 181.821 253.6 182.236 253.795 182.705C253.989 183.173 254.088 183.699 254.093 184.281C254.088 185.2 253.856 185.988 253.397 186.646C252.938 187.304 252.277 187.809 251.415 188.159C250.558 188.509 249.524 188.685 248.312 188.685C247.095 188.685 246.034 188.502 245.13 188.138C244.225 187.773 243.522 187.219 243.02 186.476C242.519 185.732 242.26 184.793 242.246 183.656H245.613C245.641 184.125 245.767 184.516 245.989 184.828C246.212 185.141 246.517 185.377 246.905 185.538C247.298 185.699 247.753 185.78 248.269 185.78C248.742 185.78 249.145 185.716 249.476 185.588C249.813 185.46 250.071 185.283 250.251 185.055C250.43 184.828 250.523 184.568 250.528 184.274C250.523 184 250.438 183.765 250.272 183.571C250.106 183.372 249.85 183.202 249.505 183.06C249.164 182.913 248.728 182.778 248.198 182.655L246.678 182.3C245.419 182.011 244.427 181.545 243.702 180.901C242.978 180.252 242.618 179.376 242.623 178.273C242.618 177.373 242.859 176.585 243.347 175.908C243.835 175.231 244.51 174.703 245.371 174.324C246.233 173.945 247.215 173.756 248.319 173.756C249.446 173.756 250.423 173.947 251.252 174.331C252.085 174.71 252.732 175.242 253.191 175.929C253.65 176.616 253.885 177.411 253.894 178.315H250.528ZM255.84 188.5V185.972L261.145 181.327C261.543 180.967 261.882 180.638 262.161 180.339C262.44 180.036 262.653 179.733 262.8 179.43C262.947 179.123 263.02 178.789 263.02 178.429C263.02 178.027 262.933 177.683 262.758 177.399C262.582 177.11 262.341 176.888 262.033 176.732C261.725 176.575 261.373 176.497 260.975 176.497C260.573 176.497 260.22 176.58 259.917 176.746C259.614 176.907 259.377 177.141 259.206 177.449C259.041 177.757 258.958 178.131 258.958 178.571H255.627C255.627 177.581 255.849 176.727 256.295 176.007C256.74 175.287 257.365 174.733 258.17 174.345C258.979 173.952 259.919 173.756 260.989 173.756C262.092 173.756 263.051 173.94 263.866 174.31C264.68 174.679 265.31 175.195 265.755 175.858C266.205 176.516 266.43 177.281 266.43 178.152C266.43 178.706 266.318 179.255 266.096 179.8C265.873 180.344 265.473 180.946 264.895 181.604C264.323 182.262 263.508 183.05 262.452 183.969L260.712 185.574V185.666H266.607V188.5H255.84ZM274.07 173.756C274.865 173.756 275.625 173.886 276.35 174.146C277.074 174.402 277.72 174.812 278.289 175.375C278.857 175.934 279.304 176.67 279.631 177.584C279.958 178.498 280.121 179.613 280.121 180.929C280.126 182.141 279.984 183.228 279.695 184.189C279.406 185.145 278.992 185.96 278.452 186.632C277.917 187.304 277.273 187.818 276.52 188.173C275.767 188.524 274.927 188.699 273.999 188.699C272.976 188.699 272.074 188.502 271.293 188.109C270.516 187.712 269.894 187.177 269.425 186.504C268.961 185.832 268.684 185.079 268.594 184.246H272.053C272.162 184.729 272.391 185.093 272.742 185.339C273.092 185.581 273.511 185.702 273.999 185.702C274.889 185.702 275.554 185.316 275.994 184.544C276.435 183.772 276.655 182.723 276.655 181.398H276.57C276.366 181.833 276.077 182.207 275.703 182.52C275.334 182.832 274.905 183.071 274.418 183.237C273.93 183.403 273.416 183.486 272.877 183.486C272.005 183.486 271.236 183.287 270.568 182.889C269.905 182.491 269.385 181.945 269.006 181.249C268.632 180.553 268.442 179.757 268.438 178.862C268.433 177.858 268.667 176.973 269.141 176.206C269.614 175.434 270.275 174.833 271.122 174.402C271.97 173.966 272.952 173.751 274.07 173.756ZM274.091 176.455C273.655 176.455 273.267 176.556 272.926 176.76C272.59 176.964 272.325 177.238 272.131 177.584C271.937 177.929 271.842 178.318 271.847 178.749C271.852 179.179 271.949 179.568 272.138 179.913C272.332 180.259 272.595 180.534 272.926 180.737C273.262 180.941 273.646 181.043 274.077 181.043C274.399 181.043 274.697 180.983 274.972 180.865C275.246 180.747 275.485 180.583 275.689 180.375C275.893 180.162 276.051 179.916 276.165 179.636C276.283 179.357 276.34 179.059 276.335 178.741C276.331 178.32 276.231 177.937 276.037 177.591C275.843 177.245 275.575 176.971 275.235 176.767C274.898 176.559 274.517 176.455 274.091 176.455ZM287.527 173.756C288.322 173.756 289.082 173.886 289.807 174.146C290.531 174.402 291.177 174.812 291.746 175.375C292.314 175.934 292.761 176.67 293.088 177.584C293.415 178.498 293.578 179.613 293.578 180.929C293.583 182.141 293.441 183.228 293.152 184.189C292.863 185.145 292.449 185.96 291.909 186.632C291.374 187.304 290.73 187.818 289.977 188.173C289.224 188.524 288.384 188.699 287.456 188.699C286.433 188.699 285.531 188.502 284.75 188.109C283.973 187.712 283.351 187.177 282.882 186.504C282.418 185.832 282.141 185.079 282.051 184.246H285.51C285.619 184.729 285.848 185.093 286.199 185.339C286.549 185.581 286.968 185.702 287.456 185.702C288.346 185.702 289.011 185.316 289.452 184.544C289.892 183.772 290.112 182.723 290.112 181.398H290.027C289.823 181.833 289.534 182.207 289.16 182.52C288.791 182.832 288.363 183.071 287.875 183.237C287.387 183.403 286.873 183.486 286.334 183.486C285.462 183.486 284.693 183.287 284.025 182.889C283.363 182.491 282.842 181.945 282.463 181.249C282.089 180.553 281.899 179.757 281.895 178.862C281.89 177.858 282.124 176.973 282.598 176.206C283.071 175.434 283.732 174.833 284.579 174.402C285.427 173.966 286.409 173.751 287.527 173.756ZM287.548 176.455C287.113 176.455 286.724 176.556 286.383 176.76C286.047 176.964 285.782 177.238 285.588 177.584C285.394 177.929 285.299 178.318 285.304 178.749C285.309 179.179 285.406 179.568 285.595 179.913C285.789 180.259 286.052 180.534 286.383 180.737C286.72 180.941 287.103 181.043 287.534 181.043C287.856 181.043 288.154 180.983 288.429 180.865C288.703 180.747 288.943 180.583 289.146 180.375C289.35 180.162 289.508 179.916 289.622 179.636C289.74 179.357 289.797 179.059 289.792 178.741C289.788 178.32 289.688 177.937 289.494 177.591C289.3 177.245 289.032 176.971 288.692 176.767C288.355 176.559 287.974 176.455 287.548 176.455Z" fill="#9CA3AF"/>
<rect x="216" y="208.5" width="104" height="16" rx="3" fill="#1A56DB"/>
<rect x="243" y="214.5" width="50" height="4" rx="1" fill="white"/>
<path d="M219.75 244.5L220.583 245.333L222.25 243.667M224.75 244.5C224.75 244.992 224.653 245.48 224.465 245.935C224.276 246.39 224 246.803 223.652 247.152C223.303 247.5 222.89 247.776 222.435 247.965C221.98 248.153 221.492 248.25 221 248.25C220.508 248.25 220.02 248.153 219.565 247.965C219.11 247.776 218.697 247.5 218.348 247.152C218 246.803 217.724 246.39 217.535 245.935C217.347 245.48 217.25 244.992 217.25 244.5C217.25 243.505 217.645 242.552 218.348 241.848C219.052 241.145 220.005 240.75 221 240.75C221.995 240.75 222.948 241.145 223.652 241.848C224.355 242.552 224.75 243.505 224.75 244.5Z" stroke="#6B7280" stroke-linecap="round" stroke-linejoin="round"/>
<rect x="232" y="241.5" width="79" height="6" rx="3" fill="#6B7280"/>
<path d="M219.75 262.5L220.583 263.333L222.25 261.667M224.75 262.5C224.75 262.992 224.653 263.48 224.465 263.935C224.276 264.39 224 264.803 223.652 265.152C223.303 265.5 222.89 265.776 222.435 265.965C221.98 266.153 221.492 266.25 221 266.25C220.508 266.25 220.02 266.153 219.565 265.965C219.11 265.776 218.697 265.5 218.348 265.152C218 264.803 217.724 264.39 217.535 263.935C217.347 263.48 217.25 262.992 217.25 262.5C217.25 261.505 217.645 260.552 218.348 259.848C219.052 259.145 220.005 258.75 221 258.75C221.995 258.75 222.948 259.145 223.652 259.848C224.355 260.552 224.75 261.505 224.75 262.5Z" stroke="#6B7280" stroke-linecap="round" stroke-linejoin="round"/>
<rect x="232" y="259.5" width="73" height="6" rx="3" fill="#6B7280"/>
<path d="M219.75 280.5L220.583 281.333L222.25 279.667M224.75 280.5C224.75 280.992 224.653 281.48 224.465 281.935C224.276 282.39 224 282.803 223.652 283.152C223.303 283.5 222.89 283.776 222.435 283.965C221.98 284.153 221.492 284.25 221 284.25C220.508 284.25 220.02 284.153 219.565 283.965C219.11 283.776 218.697 283.5 218.348 283.152C218 282.803 217.724 282.39 217.535 281.935C217.347 281.48 217.25 280.992 217.25 280.5C217.25 279.505 217.645 278.552 218.348 277.848C219.052 277.145 220.005 276.75 221 276.75C221.995 276.75 222.948 277.145 223.652 277.848C224.355 278.552 224.75 279.505 224.75 280.5Z" stroke="#6B7280" stroke-linecap="round" stroke-linejoin="round"/>
<rect x="232" y="277.5" width="88" height="6" rx="3" fill="#6B7280"/>
<rect x="352.5" y="135" width="135" height="166" rx="4.5" stroke="#1F2A37"/>
<rect x="401.5" y="150.5" width="37" height="7" rx="2" fill="#6B7280"/>
<path d="M399.371 190.318V172.136H400.535V190.318H399.371ZM402.176 178.315C402.129 177.795 401.918 177.39 401.544 177.101C401.175 176.807 400.647 176.661 399.96 176.661C399.506 176.661 399.127 176.72 398.824 176.838C398.521 176.956 398.293 177.12 398.142 177.328C397.99 177.532 397.912 177.766 397.907 178.031C397.898 178.249 397.941 178.441 398.035 178.607C398.135 178.772 398.277 178.919 398.461 179.047C398.651 179.17 398.878 179.279 399.143 179.374C399.408 179.468 399.707 179.551 400.038 179.622L401.288 179.906C402.008 180.062 402.642 180.271 403.192 180.531C403.746 180.792 404.21 181.102 404.584 181.462C404.962 181.821 405.249 182.236 405.443 182.705C405.637 183.173 405.737 183.699 405.741 184.281C405.737 185.2 405.505 185.988 405.045 186.646C404.586 187.304 403.925 187.809 403.064 188.159C402.207 188.509 401.172 188.685 399.96 188.685C398.743 188.685 397.683 188.502 396.778 188.138C395.874 187.773 395.171 187.219 394.669 186.476C394.167 185.732 393.909 184.793 393.895 183.656H397.261C397.29 184.125 397.415 184.516 397.638 184.828C397.86 185.141 398.166 185.377 398.554 185.538C398.947 185.699 399.401 185.78 399.917 185.78C400.391 185.78 400.793 185.716 401.125 185.588C401.461 185.46 401.719 185.283 401.899 185.055C402.079 184.828 402.171 184.568 402.176 184.274C402.171 184 402.086 183.765 401.92 183.571C401.755 183.372 401.499 183.202 401.153 183.06C400.812 182.913 400.377 182.778 399.846 182.655L398.327 182.3C397.067 182.011 396.075 181.545 395.351 180.901C394.626 180.252 394.266 179.376 394.271 178.273C394.266 177.373 394.508 176.585 394.996 175.908C395.483 175.231 396.158 174.703 397.02 174.324C397.881 173.945 398.864 173.756 399.967 173.756C401.094 173.756 402.072 173.947 402.9 174.331C403.734 174.71 404.38 175.242 404.839 175.929C405.299 176.616 405.533 177.411 405.542 178.315H402.176ZM412.964 173.756C413.76 173.756 414.52 173.886 415.244 174.146C415.969 174.402 416.615 174.812 417.183 175.375C417.751 175.934 418.199 176.67 418.525 177.584C418.852 178.498 419.015 179.613 419.015 180.929C419.02 182.141 418.878 183.228 418.589 184.189C418.3 185.145 417.886 185.96 417.346 186.632C416.811 187.304 416.167 187.818 415.415 188.173C414.662 188.524 413.821 188.699 412.893 188.699C411.871 188.699 410.969 188.502 410.187 188.109C409.411 187.712 408.788 187.177 408.319 186.504C407.855 185.832 407.578 185.079 407.488 184.246H410.947C411.056 184.729 411.286 185.093 411.636 185.339C411.987 185.581 412.406 185.702 412.893 185.702C413.783 185.702 414.449 185.316 414.889 184.544C415.329 183.772 415.55 182.723 415.55 181.398H415.464C415.261 181.833 414.972 182.207 414.598 182.52C414.229 182.832 413.8 183.071 413.312 183.237C412.825 183.403 412.311 183.486 411.771 183.486C410.9 183.486 410.131 183.287 409.463 182.889C408.8 182.491 408.279 181.945 407.9 181.249C407.526 180.553 407.337 179.757 407.332 178.862C407.327 177.858 407.562 176.973 408.035 176.206C408.509 175.434 409.169 174.833 410.017 174.402C410.864 173.966 411.847 173.751 412.964 173.756ZM412.986 176.455C412.55 176.455 412.162 176.556 411.821 176.76C411.485 176.964 411.22 177.238 411.025 177.584C410.831 177.929 410.737 178.318 410.741 178.749C410.746 179.179 410.843 179.568 411.032 179.913C411.227 180.259 411.489 180.534 411.821 180.737C412.157 180.941 412.541 181.043 412.971 181.043C413.293 181.043 413.592 180.983 413.866 180.865C414.141 180.747 414.38 180.583 414.584 180.375C414.787 180.162 414.946 179.916 415.059 179.636C415.178 179.357 415.235 179.059 415.23 178.741C415.225 178.32 415.126 177.937 414.932 177.591C414.738 177.245 414.47 176.971 414.129 176.767C413.793 176.559 413.412 176.455 412.986 176.455ZM426.421 173.756C427.217 173.756 427.977 173.886 428.701 174.146C429.426 174.402 430.072 174.812 430.64 175.375C431.208 175.934 431.656 176.67 431.982 177.584C432.309 178.498 432.472 179.613 432.472 180.929C432.477 182.141 432.335 183.228 432.046 184.189C431.758 185.145 431.343 185.96 430.803 186.632C430.268 187.304 429.624 187.818 428.872 188.173C428.119 188.524 427.278 188.699 426.35 188.699C425.328 188.699 424.426 188.502 423.644 188.109C422.868 187.712 422.245 187.177 421.776 186.504C421.312 185.832 421.035 185.079 420.945 184.246H424.404C424.513 184.729 424.743 185.093 425.093 185.339C425.444 185.581 425.863 185.702 426.35 185.702C427.24 185.702 427.906 185.316 428.346 184.544C428.786 183.772 429.007 182.723 429.007 181.398H428.921C428.718 181.833 428.429 182.207 428.055 182.52C427.686 182.832 427.257 183.071 426.769 183.237C426.282 183.403 425.768 183.486 425.228 183.486C424.357 183.486 423.588 183.287 422.92 182.889C422.257 182.491 421.736 181.945 421.357 181.249C420.983 180.553 420.794 179.757 420.789 178.862C420.785 177.858 421.019 176.973 421.492 176.206C421.966 175.434 422.626 174.833 423.474 174.402C424.321 173.966 425.304 173.751 426.421 173.756ZM426.443 176.455C426.007 176.455 425.619 176.556 425.278 176.76C424.942 176.964 424.677 177.238 424.482 177.584C424.288 177.929 424.194 178.318 424.198 178.749C424.203 179.179 424.3 179.568 424.49 179.913C424.684 180.259 424.946 180.534 425.278 180.737C425.614 180.941 425.998 181.043 426.428 181.043C426.75 181.043 427.049 180.983 427.323 180.865C427.598 180.747 427.837 180.583 428.041 180.375C428.244 180.162 428.403 179.916 428.517 179.636C428.635 179.357 428.692 179.059 428.687 178.741C428.682 178.32 428.583 177.937 428.389 177.591C428.195 177.245 427.927 176.971 427.586 176.767C427.25 176.559 426.869 176.455 426.443 176.455ZM439.878 173.756C440.674 173.756 441.434 173.886 442.158 174.146C442.883 174.402 443.529 174.812 444.097 175.375C444.665 175.934 445.113 176.67 445.439 177.584C445.766 178.498 445.93 179.613 445.93 180.929C445.934 182.141 445.792 183.228 445.503 184.189C445.215 185.145 444.8 185.96 444.26 186.632C443.725 187.304 443.081 187.818 442.329 188.173C441.576 188.524 440.735 188.699 439.807 188.699C438.785 188.699 437.883 188.502 437.101 188.109C436.325 187.712 435.702 187.177 435.233 186.504C434.769 185.832 434.492 185.079 434.403 184.246H437.861C437.97 184.729 438.2 185.093 438.55 185.339C438.901 185.581 439.32 185.702 439.807 185.702C440.698 185.702 441.363 185.316 441.803 184.544C442.243 183.772 442.464 182.723 442.464 181.398H442.378C442.175 181.833 441.886 182.207 441.512 182.52C441.143 182.832 440.714 183.071 440.226 183.237C439.739 183.403 439.225 183.486 438.685 183.486C437.814 183.486 437.045 183.287 436.377 182.889C435.714 182.491 435.193 181.945 434.814 181.249C434.44 180.553 434.251 179.757 434.246 178.862C434.242 177.858 434.476 176.973 434.949 176.206C435.423 175.434 436.083 174.833 436.931 174.402C437.778 173.966 438.761 173.751 439.878 173.756ZM439.9 176.455C439.464 176.455 439.076 176.556 438.735 176.76C438.399 176.964 438.134 177.238 437.939 177.584C437.745 177.929 437.651 178.318 437.655 178.749C437.66 179.179 437.757 179.568 437.947 179.913C438.141 180.259 438.403 180.534 438.735 180.737C439.071 180.941 439.455 181.043 439.885 181.043C440.207 181.043 440.506 180.983 440.78 180.865C441.055 180.747 441.294 180.583 441.498 180.375C441.701 180.162 441.86 179.916 441.974 179.636C442.092 179.357 442.149 179.059 442.144 178.741C442.139 178.32 442.04 177.937 441.846 177.591C441.652 177.245 441.384 176.971 441.043 176.767C440.707 176.559 440.326 176.455 439.9 176.455Z" fill="#9CA3AF"/>
<rect x="368" y="208.5" width="104" height="16" rx="3" fill="#4B5563"/>
<rect x="395" y="214.5" width="50" height="4" rx="1" fill="#9CA3AF"/>
<path d="M371.75 244.5L372.583 245.333L374.25 243.667M376.75 244.5C376.75 244.992 376.653 245.48 376.465 245.935C376.276 246.39 376 246.803 375.652 247.152C375.303 247.5 374.89 247.776 374.435 247.965C373.98 248.153 373.492 248.25 373 248.25C372.508 248.25 372.02 248.153 371.565 247.965C371.11 247.776 370.697 247.5 370.348 247.152C370 246.803 369.724 246.39 369.535 245.935C369.347 245.48 369.25 244.992 369.25 244.5C369.25 243.505 369.645 242.552 370.348 241.848C371.052 241.145 372.005 240.75 373 240.75C373.995 240.75 374.948 241.145 375.652 241.848C376.355 242.552 376.75 243.505 376.75 244.5Z" stroke="#6B7280" stroke-linecap="round" stroke-linejoin="round"/>
<rect x="384" y="241.5" width="88" height="6" rx="3" fill="#6B7280"/>
<path d="M371.75 262.5L372.583 263.333L374.25 261.667M376.75 262.5C376.75 262.992 376.653 263.48 376.465 263.935C376.276 264.39 376 264.803 375.652 265.152C375.303 265.5 374.89 265.776 374.435 265.965C373.98 266.153 373.492 266.25 373 266.25C372.508 266.25 372.02 266.153 371.565 265.965C371.11 265.776 370.697 265.5 370.348 265.152C370 264.803 369.724 264.39 369.535 263.935C369.347 263.48 369.25 262.992 369.25 262.5C369.25 261.505 369.645 260.552 370.348 259.848C371.052 259.145 372.005 258.75 373 258.75C373.995 258.75 374.948 259.145 375.652 259.848C376.355 260.552 376.75 261.505 376.75 262.5Z" stroke="#6B7280" stroke-linecap="round" stroke-linejoin="round"/>
<rect x="384" y="259.5" width="73" height="6" rx="3" fill="#6B7280"/>
<path d="M371.75 280.5L372.583 281.333L374.25 279.667M376.75 280.5C376.75 280.992 376.653 281.48 376.465 281.935C376.276 282.39 376 282.803 375.652 283.152C375.303 283.5 374.89 283.776 374.435 283.965C373.98 284.153 373.492 284.25 373 284.25C372.508 284.25 372.02 284.153 371.565 283.965C371.11 283.776 370.697 283.5 370.348 283.152C370 282.803 369.724 282.39 369.535 281.935C369.347 281.48 369.25 280.992 369.25 280.5C369.25 279.505 369.645 278.552 370.348 277.848C371.052 277.145 372.005 276.75 373 276.75C373.995 276.75 374.948 277.145 375.652 277.848C376.355 278.552 376.75 279.505 376.75 280.5Z" stroke="#6B7280" stroke-linecap="round" stroke-linejoin="round"/>
<rect x="384" y="277.5" width="79" height="6" rx="3" fill="#6B7280"/>
</svg>
