<svg width="384" height="256" viewBox="0 0 384 256" fill="none" xmlns="http://www.w3.org/2000/svg">
<rect x="112" width="160" height="10" rx="5" fill="#6B7280"/>
<rect x="0.5" y="26" width="383" height="8" rx="4" fill="#4B5563"/>
<rect x="37.5" y="40" width="309" height="8" rx="4" fill="#4B5563"/>
<rect x="123.5" y="68" width="65" height="16" rx="2" fill="#1A56DB"/>
<rect x="139.5" y="74" width="33" height="4" rx="1" fill="white"/>
<rect x="195.5" y="68" width="65" height="16" rx="2" stroke="#4B5563"/>
<rect x="211.5" y="74" width="33" height="4" rx="1" fill="#4B5563"/>
<rect x="64" y="104" width="256" height="152" rx="8" fill="#374151"/>
<path fill-rule="evenodd" clip-rule="evenodd" d="M209.737 166.409C213.141 166.409 215.901 163.52 215.901 159.955C215.901 156.39 213.141 153.5 209.737 153.5C206.333 153.5 203.574 156.39 203.574 159.955C203.574 163.52 206.333 166.409 209.737 166.409ZM192.678 205.496H154.212C153.435 205.496 152.954 204.648 153.354 203.981L179.963 159.623C180.345 158.986 181.255 158.959 181.654 159.586C184.42 163.937 193.351 177.998 200.872 190.017L209.044 176.314C209.412 175.697 210.275 175.677 210.684 176.276L229.605 203.908C230.064 204.578 229.619 205.495 228.83 205.503L210.488 205.691L192.678 205.496Z" fill="#6B7280"/>
</svg>
