<svg width="113" height="35" viewBox="0 0 113 35" fill="none" xmlns="http://www.w3.org/2000/svg">
<g clip-path="url(#clip0_5_3671)">
<path fill-rule="evenodd" clip-rule="evenodd" d="M70.1032 26.7969C63.5366 31.637 54.0187 34.2194 45.824 34.2194C34.3336 34.2194 23.9893 29.9695 16.1635 22.9012C15.5486 22.3454 16.0995 21.5879 16.8374 22.0207C25.283 26.9346 35.7256 29.8908 46.5126 29.8908C53.7875 29.8908 61.7904 28.3857 69.149 25.2622C70.2606 24.79 71.1903 25.9902 70.1032 26.7969" fill="#6B7280"/>
<path fill-rule="evenodd" clip-rule="evenodd" d="M72.8322 23.6729C71.996 22.6006 67.2838 23.1662 65.1687 23.4171C64.5243 23.4958 64.4259 22.9351 65.0064 22.5317C68.7594 19.8903 74.9178 20.6527 75.6359 21.5381C76.3541 22.4284 75.449 28.6015 71.9222 31.5479C71.3811 32.0004 70.8647 31.7594 71.1057 31.1593C71.8976 29.182 73.6733 24.7501 72.8322 23.6729" fill="#6B7280"/>
<path fill-rule="evenodd" clip-rule="evenodd" d="M65.3163 3.88488V1.31725C65.3163 0.928666 65.6114 0.667969 65.9656 0.667969H77.4609C77.8298 0.667969 78.1249 0.933585 78.1249 1.31725V3.51596C78.12 3.88488 77.8101 4.36692 77.2592 5.12934L71.3025 13.634C73.516 13.5799 75.8524 13.9094 77.8593 15.0408C78.3118 15.2965 78.4348 15.6704 78.4692 16.0393V18.7791C78.4692 19.1529 78.056 19.5907 77.6232 19.3644C74.0866 17.51 69.3891 17.3083 65.4786 19.3841C65.0802 19.6005 64.6621 19.1676 64.6621 18.7938V16.1918C64.6621 15.7737 64.667 15.0604 65.0851 14.4259L71.9862 4.52924H65.9803C65.6114 4.52924 65.3163 4.26855 65.3163 3.88488" fill="#6B7280"/>
<path fill-rule="evenodd" clip-rule="evenodd" d="M23.3837 19.9049H19.8864C19.5519 19.8803 19.2863 19.6295 19.2617 19.3098V1.36101C19.2617 1.00193 19.5618 0.71664 19.9356 0.71664H23.1968C23.5362 0.731387 23.8067 0.992093 23.8313 1.31673V3.66301H23.8952C24.7462 1.39544 26.3448 0.337891 28.4993 0.337891C30.6881 0.337891 32.0556 1.39544 33.0393 3.66301C33.8854 1.39544 35.8086 0.337891 37.8696 0.337891C39.3354 0.337891 40.9389 0.942905 41.9178 2.3005C43.0245 3.81057 42.7983 6.00437 42.7983 7.92763L42.7933 19.2557C42.7933 19.6147 42.4933 19.9049 42.1195 19.9049H38.6271C38.2779 19.8803 37.9975 19.6 37.9975 19.2557V9.74267C37.9975 8.98517 38.0664 7.09635 37.8991 6.3782C37.6384 5.17309 36.8563 4.83369 35.8431 4.83369C34.997 4.83369 34.1116 5.39935 33.7526 6.30442C33.3935 7.20948 33.4279 8.72447 33.4279 9.74267V19.2557C33.4279 19.6147 33.1279 19.9049 32.754 19.9049H29.2617C28.9075 19.8803 28.6321 19.6 28.6321 19.2557L28.6272 9.74267C28.6272 7.74071 28.9567 4.79434 26.4727 4.79434C23.9592 4.79434 24.0576 7.66692 24.0576 9.74267V19.2557C24.0576 19.6147 23.7575 19.9049 23.3837 19.9049" fill="#6B7280"/>
<path fill-rule="evenodd" clip-rule="evenodd" d="M88.0225 0.337891C93.2118 0.337891 96.0205 4.79434 96.0205 10.4608C96.0205 15.9355 92.9167 20.2788 88.0225 20.2788C82.9266 20.2788 80.1523 15.8223 80.1523 10.269C80.1523 4.6812 82.961 0.337891 88.0225 0.337891V0.337891ZM88.052 4.00241C85.4745 4.00241 85.3122 7.51444 85.3122 9.70332C85.3122 11.8971 85.2778 16.5798 88.0225 16.5798C90.7327 16.5798 90.8606 12.8022 90.8606 10.5002C90.8606 8.98517 90.7967 7.17505 90.3392 5.73875C89.9457 4.48937 89.1636 4.00241 88.052 4.00241" fill="#6B7280"/>
<path fill-rule="evenodd" clip-rule="evenodd" d="M102.75 19.9049H99.2673C98.9181 19.8803 98.6377 19.6 98.6377 19.2557L98.6328 1.30198C98.6623 0.972418 98.9525 0.71664 99.3067 0.71664H102.548C102.853 0.731387 103.104 0.937987 103.173 1.21836V3.96306H103.237C104.216 1.50857 105.588 0.337891 108.003 0.337891C109.572 0.337891 111.102 0.903555 112.086 2.45298C113.001 3.88928 113.001 6.30442 113.001 8.04075V19.3393C112.961 19.6541 112.671 19.9049 112.327 19.9049H108.82C108.5 19.8803 108.234 19.6442 108.2 19.3393V9.59018C108.2 7.62758 108.426 4.75499 106.011 4.75499C105.16 4.75499 104.378 5.32557 103.989 6.19128C103.498 7.28818 103.434 8.38016 103.434 9.59018V19.2557C103.429 19.6147 103.124 19.9049 102.75 19.9049" fill="#6B7280"/>
<path fill-rule="evenodd" clip-rule="evenodd" d="M56.5745 11.3317C56.5745 12.6942 56.6089 13.8305 55.9203 15.0405C55.3644 16.0243 54.479 16.6293 53.5002 16.6293C52.1574 16.6293 51.3703 15.6062 51.3703 14.0961C51.3703 11.1153 54.0413 10.5742 56.5745 10.5742V11.3317V11.3317ZM60.1012 19.856C59.8701 20.0626 59.5356 20.0774 59.2749 19.9397C58.114 18.9756 57.9025 18.528 57.268 17.6081C55.3497 19.5658 53.9872 20.1512 51.5032 20.1512C48.5568 20.1512 46.2695 18.3361 46.2695 14.7011C46.2695 11.863 47.8042 9.92987 49.998 8.98546C51.8967 8.14926 54.5479 8.00169 56.5745 7.77051V7.31798C56.5745 6.4867 56.6384 5.50293 56.1465 4.78479C55.7235 4.14042 54.907 3.8748 54.1839 3.8748C52.8509 3.8748 51.6655 4.55852 51.3753 5.97514C51.3162 6.28995 51.0851 6.59983 50.7653 6.61459L47.3763 6.25059C47.091 6.18665 46.7713 5.95546 46.8549 5.51769C47.632 1.40556 51.3507 0.166016 54.6758 0.166016C56.3777 0.166016 58.601 0.618548 59.9438 1.90728C61.6458 3.49606 61.4834 5.61607 61.4834 7.92299V13.373C61.4834 15.011 62.1622 15.7292 62.8017 16.6145C63.023 16.9293 63.0722 17.3081 62.7869 17.5442C62.0737 18.1394 60.8046 19.2461 60.1062 19.8659L60.1012 19.856" fill="#6B7280"/>
<path fill-rule="evenodd" clip-rule="evenodd" d="M10.3049 11.3317C10.3049 12.6942 10.3394 13.8305 9.65072 15.0405C9.09489 16.0243 8.21442 16.6293 7.23066 16.6293C5.88782 16.6293 5.10573 15.6062 5.10573 14.0961C5.10573 11.1153 7.77665 10.5742 10.3049 10.5742V11.3317V11.3317ZM13.8317 19.856C13.6005 20.0626 13.266 20.0774 13.0053 19.9397C11.8445 18.9756 11.6379 18.528 10.9985 17.6082C9.08013 19.5658 7.72254 20.1512 5.23362 20.1512C2.29217 20.1512 0 18.3361 0 14.7011C0 11.863 1.53959 9.92987 3.72846 8.98546C5.62713 8.14926 8.27837 8.0017 10.3049 7.77051V7.31798C10.3049 6.4867 10.3689 5.50293 9.8819 4.78479C9.45396 4.14042 8.63744 3.87481 7.91929 3.87481C6.5863 3.87481 5.39594 4.55852 5.10573 5.97514C5.0467 6.28995 4.81552 6.59983 4.50072 6.61459L1.10673 6.25059C0.821442 6.18665 0.506637 5.95546 0.585338 5.51769C1.36743 1.40556 5.08114 0.166016 8.40626 0.166016C10.1082 0.166016 12.3315 0.618548 13.6743 1.90728C15.3762 3.49606 15.2139 5.61607 15.2139 7.92299V13.373C15.2139 15.011 15.8927 15.7292 16.5321 16.6145C16.7584 16.9293 16.8076 17.3081 16.5223 17.5442C15.8091 18.1394 14.54 19.2461 13.8415 19.8659L13.8317 19.856" fill="#6B7280"/>
</g>
<defs>
<clipPath id="clip0_5_3671">
<rect width="113" height="34.053" fill="white" transform="translate(0 0.166016)"/>
</clipPath>
</defs>
</svg>
