<svg width="106" height="48" viewBox="0 0 106 48" fill="none" xmlns="http://www.w3.org/2000/svg">
<g clip-path="url(#clip0_103_230814)">
<path d="M92.1288 21.0436C90.3397 21.4565 85.6147 21.6859 85.6147 21.6859L85.0336 23.5514C85.0336 23.5514 87.3732 23.3526 89.0858 23.5208C89.0858 23.5208 89.6363 23.475 89.6975 24.1325C89.728 24.8053 89.6516 25.5087 89.6516 25.5087C89.6516 25.5087 89.6057 25.9216 89.0399 26.0286C88.3824 26.1356 83.9479 26.3344 83.9479 26.3344L83.2293 28.7504C83.2293 28.7504 82.9693 29.3009 83.5657 29.148C84.1162 28.9951 88.7647 28.1082 89.3763 28.2305C90.0186 28.3834 90.7526 29.2703 90.5385 30.0655C90.2938 31.0288 85.6453 33.9953 82.8317 33.7966C82.8317 33.7966 81.3484 33.8883 80.1098 31.8851C78.9171 29.9737 80.5227 26.3803 80.5227 26.3803C80.5227 26.3803 79.804 24.6983 80.3392 24.0866C80.3392 24.0866 80.645 23.8267 81.5625 23.7502L82.7094 21.3953C82.7094 21.3953 81.4096 21.4718 80.645 20.5237C79.9416 19.6063 79.8805 19.2087 80.431 18.964C81.012 18.6582 86.3946 17.6949 90.095 17.8172C90.095 17.8172 91.3948 17.6643 92.5416 19.9121C92.5416 19.9121 93.0615 20.8296 92.1441 21.0436M78.1831 30.0961C77.7244 31.2123 76.4552 32.3898 74.9261 31.6711C73.3664 30.9371 70.9045 25.9216 70.9045 25.9216C70.9045 25.9216 69.987 24.056 69.8035 24.1172C69.8035 24.1172 69.6048 23.7502 69.4977 25.7992C69.3448 27.833 69.5283 31.7934 68.6873 32.4203C67.9227 33.032 67.0052 32.772 66.4853 32.0533C66.0572 31.3347 65.8737 29.6067 66.1183 26.5944C66.3936 23.582 67.0817 20.3708 67.9533 19.3769C68.8708 18.3677 69.6048 19.1017 69.88 19.3769C69.88 19.3769 71.0574 20.4473 73.0453 23.6126L73.3817 24.1936C73.3817 24.1936 75.1861 27.206 75.3696 27.1907C75.3696 27.1907 75.5225 27.3436 75.6448 27.2213C75.8283 27.1754 75.7671 26.1968 75.7671 26.1968C75.7671 26.1968 75.4307 22.9398 73.7487 17.4349C73.7487 17.4349 73.504 16.7315 73.6722 16.0587C73.8251 15.447 74.4827 15.7529 74.4827 15.7529C74.4827 15.7529 77.021 16.9762 78.2596 21.1048C79.4829 25.2334 78.6572 28.9798 78.1984 30.0961M65.7361 19.4992C65.4914 19.9274 65.3844 20.5237 64.3293 20.6919C64.3293 20.6919 54.0841 21.4106 53.5795 22.1293C53.5795 22.1293 53.2431 22.5575 53.7936 22.6645C54.3747 22.7868 56.6989 23.0927 57.7999 23.1538C58.9926 23.1538 62.9989 23.1844 64.4669 24.9888C64.4669 24.9888 65.3079 25.8451 65.2773 27.7871C65.2467 29.775 64.895 30.4783 64.1152 31.197C63.3048 31.8699 56.3625 34.9893 51.8822 30.2184C51.8822 30.2184 49.8332 27.9247 52.6009 26.1815C52.6009 26.1815 54.5887 24.9582 59.6807 26.3803C59.6807 26.3803 61.2099 26.9308 61.1487 27.4966C61.0569 28.1082 59.8795 28.7199 58.1669 28.6893C56.5154 28.6434 55.2921 27.8483 55.5368 27.9859C55.7662 28.0623 53.7477 27.0072 53.1208 27.7259C52.5091 28.3987 52.662 28.7963 53.2737 29.2092C54.8028 30.0961 60.8123 29.775 62.6014 27.7718C62.6014 27.7718 63.3201 26.9614 62.2344 26.3038C61.164 25.6922 58.0446 25.3099 56.8366 25.264C55.6897 25.2029 51.3929 25.264 50.7506 24.1478C50.7506 24.1478 50.139 23.3526 50.8118 21.1813C51.5152 18.8876 56.5154 18.0007 58.6868 17.8172C58.6868 17.8172 64.6504 17.5725 65.7666 18.7958C65.7666 18.7958 65.9196 19.0711 65.7361 19.4839M48.8239 32.9402C48.1053 33.4754 46.5761 33.2461 46.1327 32.6344C45.7045 32.0992 45.5516 29.989 45.6281 26.6708C45.7351 23.2762 45.781 19.1169 46.5455 18.4441C47.3101 17.7866 47.7688 18.3677 48.0747 18.8111C48.3805 19.2699 48.7781 19.7745 48.8392 20.8296C48.931 21.9 49.1909 27.4048 49.1909 27.4048C49.1909 27.4048 49.5273 32.4203 48.8392 32.9402M50.3531 15.0495C48.2429 15.7682 46.8055 15.5388 45.5822 15.0036C45.047 15.9669 44.7259 16.2575 44.3283 16.3186C43.7167 16.3798 43.1815 15.4012 43.105 15.0953C42.9827 14.866 42.6922 14.4531 43.0439 13.5203C41.8511 12.45 41.7594 11.0126 41.9735 10.0492C42.2487 8.91768 44.2672 4.66671 50.3837 4.1621C50.3837 4.1621 53.3807 3.94802 53.9006 5.53831H53.9924C53.9924 5.53831 56.8977 5.53831 56.8366 8.13782C56.8366 10.7373 53.6254 13.9791 50.3531 15.0953M53.0749 7.6485C51.1482 7.95433 48.1817 10.5233 46.7596 12.6487C48.9463 13.0463 52.7691 12.8934 54.4817 9.43758C54.4817 9.43758 55.2921 7.26622 53.0749 7.6485ZM44.6188 9.33054C44.0072 10.3245 43.9766 10.9208 44.2672 11.3184C44.9858 10.248 46.255 8.56598 48.1664 7.25093C46.6985 7.40384 45.4599 8.01549 44.6188 9.33054ZM96.7161 32.8332C95.3093 36.289 94.1166 39.7907 93.4285 45.0356C93.4285 45.0356 93.2756 46.0601 92.4346 45.7237C91.5936 45.4179 90.2174 44.0417 89.9115 42.0997C89.6057 39.5614 90.7373 35.2798 93.0462 30.356C92.3734 29.2856 91.8994 27.6953 92.2817 25.4628C92.2817 25.4628 92.8933 21.3342 97.022 17.6031C97.022 17.6031 97.5113 17.1902 97.7865 17.3279C98.1229 17.4808 97.9853 18.7958 97.7101 19.4686C97.4654 20.1109 95.6305 23.2915 95.6305 23.2915C95.6305 23.2915 94.4836 25.4628 94.8047 27.1601C96.9761 23.8267 101.915 17.0679 104.973 19.2087C106.915 20.5849 106.915 25.0194 105.463 27.5883C104.316 29.622 101.074 33.8271 96.7467 32.8485M103.108 22.4504C101.976 23.6737 99.9579 25.998 98.3676 29.148C100.05 28.9645 101.686 28.0317 102.19 27.5577C103.001 26.839 104.866 24.897 104.576 22.3281C104.576 22.3281 104.392 20.9825 103.108 22.4504M34.6031 34.6376C29.19 36.289 24.0827 35.5245 21.2997 34.7905C21.2232 35.922 21.1009 36.3961 20.9174 36.5796C20.7033 36.8242 18.9295 37.8334 17.9509 36.3961C17.5228 35.708 17.3087 34.4694 17.1863 33.3378C10.9169 30.4936 8.01159 26.3038 7.91985 26.1509C7.76693 25.998 6.34485 24.5148 7.76693 22.6798C9.09727 21.0284 13.5012 19.3616 17.4463 18.7041C17.5992 15.34 17.9662 12.7405 18.4402 11.5936C19.006 10.2174 19.7247 11.4407 20.3669 12.3582C20.8868 13.0463 21.2079 15.9975 21.2385 18.3524C23.8075 18.2301 25.3672 18.4135 28.2266 18.964C31.9883 19.6063 34.496 21.533 34.2973 23.7043C34.1138 25.8451 32.1565 26.732 31.3919 26.7932C30.6274 26.8543 29.4041 26.2885 29.4041 26.2885C28.5477 25.891 29.3276 25.524 30.3215 25.0958C31.4225 24.5606 31.1778 24.0254 31.1778 24.0254C30.7803 22.8021 25.9024 21.9917 21.055 21.9917C21.055 24.6677 21.1621 29.1021 21.2385 31.6864C24.6332 32.3286 27.1715 32.191 27.1715 32.191C27.1715 32.191 39.5574 31.8393 39.9091 23.9337C40.2914 16.0128 27.5232 8.42836 18.1191 6.04292C8.73028 3.58103 3.40893 5.32423 2.95019 5.5536C2.44558 5.79826 2.90432 5.89001 2.90432 5.89001C2.90432 5.89001 3.40893 5.96647 4.3264 6.27229C5.24388 6.57812 4.5099 7.03685 4.5099 7.03685C2.90432 7.58734 1.11524 7.26622 0.76354 6.53224C0.411842 5.81355 0.992909 5.15603 1.68102 4.19268C2.32325 3.19875 3.05723 3.22933 3.05723 3.22933C14.6786 -0.822851 28.8689 6.4405 28.8689 6.4405C42.1417 13.1381 44.4048 21.0131 44.1601 24.0713C43.946 27.0837 42.7839 32.1757 34.6031 34.6529M9.06669 23.7043C7.75164 24.316 8.66912 25.2946 8.66912 25.2946C11.1463 27.94 14.174 29.6067 17.0793 30.6466C17.4157 26.0592 17.3851 24.423 17.3851 22.114C12.8895 22.4199 10.29 23.1538 9.06669 23.7043Z" fill="black"/>
</g>
<defs>
<clipPath id="clip0_103_230814">
<rect width="106" height="48" fill="white"/>
</clipPath>
</defs>
</svg>
