<svg width="87" height="48" viewBox="0 0 87 48" fill="none" xmlns="http://www.w3.org/2000/svg">
<g clip-path="url(#clip0_103_230808)">
<path d="M7.67241 7.46522H1.44727V13.6904H7.67241V7.46522Z" fill="#00C7FD"/>
<path d="M7.51733 39.898V17.4786H1.62449V39.898H7.51733ZM46.6848 40.1195V34.6255C45.8208 34.6255 45.0897 34.5812 44.558 34.4925C43.9377 34.4039 43.4725 34.1824 43.1624 33.8722C42.8522 33.5621 42.6528 33.119 42.5421 32.543C42.4534 31.9892 42.4091 31.2581 42.4091 30.372V22.5296H46.6848V17.4786H42.4091V8.72798H36.4941V30.4163C36.4941 32.255 36.6492 33.8058 36.9594 35.0464C37.2695 36.2648 37.8012 37.2617 38.5323 38.015C39.2633 38.7682 40.2381 39.2999 41.4122 39.6322C42.6085 39.9645 44.115 40.1195 45.9094 40.1195H46.6848ZM80.5354 39.898V7H74.6204V39.898H80.5354ZM30.8007 19.6718C29.1613 17.8995 26.8574 17.0134 23.9331 17.0134C22.5153 17.0134 21.2304 17.3014 20.0562 17.8774C18.9042 18.4534 17.9073 19.2509 17.132 20.27L16.7997 20.6909V17.4786H10.9733V39.898H16.844V27.9572V28.7769C16.844 28.644 16.844 28.5111 16.844 28.3782C16.9104 26.2736 17.42 24.7228 18.3947 23.7259C19.4359 22.6626 20.6987 22.1309 22.1387 22.1309C23.8445 22.1309 25.1515 22.6626 26.0155 23.6816C26.8574 24.7007 27.3004 26.1407 27.3004 27.9794V39.8759H33.2597V27.1597C33.2819 23.9696 32.4401 21.4441 30.8007 19.6718ZM71.5632 28.644C71.5632 27.0268 71.2752 25.5204 70.7213 24.1025C70.1454 22.7069 69.3478 21.4663 68.3509 20.4029C67.3319 19.3395 66.1134 18.5198 64.6956 17.9217C63.2778 17.3236 61.7049 17.0356 59.999 17.0356C58.3818 17.0356 56.8532 17.3457 55.4354 17.9438C54.0176 18.5641 52.777 19.3838 51.7358 20.425C50.6946 21.4663 49.8527 22.7069 49.2546 24.1247C48.6343 25.5425 48.3463 27.0711 48.3463 28.6883C48.3463 30.3055 48.6343 31.8341 49.2103 33.2519C49.7863 34.6698 50.6059 35.9104 51.625 36.9516C52.6441 37.9928 53.9068 38.8346 55.369 39.4328C56.8311 40.0531 58.4483 40.3632 60.1763 40.3632C65.183 40.3632 68.2845 38.0814 70.1454 35.9547L65.8919 32.7203C65.0057 33.7836 62.879 35.2236 60.2206 35.2236C58.5591 35.2236 57.1855 34.847 56.1443 34.0716C55.1031 33.3184 54.3942 32.255 54.0176 30.948L53.9511 30.7486H71.5632V28.644ZM53.9954 26.5837C53.9954 24.9444 55.8785 22.0866 59.9326 22.0644C63.9867 22.0644 65.8919 24.9222 65.8919 26.5616L53.9954 26.5837Z" fill="#0068B5"/>
<path d="M87.27 36.9737C87.1593 36.7079 87.0042 36.4863 86.8048 36.287C86.6054 36.0876 86.3839 35.9325 86.118 35.8217C85.8522 35.711 85.5642 35.6445 85.2762 35.6445C84.9661 35.6445 84.7002 35.711 84.4344 35.8217C84.1685 35.9325 83.947 36.0876 83.7476 36.287C83.5482 36.4863 83.3932 36.7079 83.2824 36.9737C83.1716 37.2396 83.1052 37.5276 83.1052 37.8156C83.1052 38.1257 83.1716 38.3916 83.2824 38.6574C83.3932 38.9232 83.5482 39.1448 83.7476 39.3442C83.947 39.5435 84.1685 39.6986 84.4344 39.8094C84.7002 39.9201 84.9882 39.9866 85.2762 39.9866C85.5864 39.9866 85.8522 39.9201 86.118 39.8094C86.3839 39.6986 86.6054 39.5435 86.8048 39.3442C87.0042 39.1448 87.1593 38.9232 87.27 38.6574C87.3808 38.3916 87.4473 38.1036 87.4473 37.8156C87.4473 37.5276 87.3808 37.2396 87.27 36.9737ZM86.9156 38.5245C86.827 38.746 86.694 38.9454 86.539 39.1005C86.3839 39.2555 86.1845 39.3885 85.963 39.4771C85.7414 39.5657 85.5199 39.61 85.2541 39.61C85.0104 39.61 84.7667 39.5657 84.5451 39.4771C84.3236 39.3885 84.1242 39.2555 83.9692 39.1005C83.8141 38.9454 83.6812 38.746 83.5925 38.5245C83.5039 38.3029 83.4596 38.0814 83.4596 37.8156C83.4596 37.5719 83.5039 37.3282 83.5925 37.1066C83.6812 36.8851 83.8141 36.6857 83.9692 36.5307C84.1242 36.3756 84.3236 36.2427 84.5451 36.154C84.7667 36.0654 84.9882 36.0211 85.2541 36.0211C85.4978 36.0211 85.7414 36.0654 85.963 36.154C86.1845 36.2427 86.3839 36.3756 86.539 36.5307C86.694 36.6857 86.827 36.8851 86.9156 37.1066C87.0042 37.3282 87.0485 37.5497 87.0485 37.8156C87.0707 38.0814 87.0042 38.3029 86.9156 38.5245ZM85.675 37.9928C85.8522 37.9706 85.9851 37.9042 86.0959 37.7934C86.2067 37.6826 86.2731 37.5276 86.2731 37.306C86.2731 37.0623 86.2067 36.8851 86.0516 36.7522C85.9187 36.6193 85.675 36.5528 85.387 36.5528H84.4122V39.0562H84.8774V38.0371H85.2098L85.8301 39.0562H86.3174L85.675 37.9928ZM85.4313 37.6383C85.3648 37.6383 85.2984 37.6383 85.2098 37.6383H84.8774V36.9294H85.2098C85.2762 36.9294 85.3427 36.9294 85.4313 36.9294C85.4977 36.9294 85.5642 36.9516 85.6307 36.9737C85.6971 36.9959 85.7414 37.0402 85.7636 37.0845C85.7857 37.1288 85.8079 37.1953 85.8079 37.2839C85.8079 37.3725 85.7857 37.439 85.7636 37.4833C85.7193 37.5276 85.675 37.5719 85.6307 37.594C85.5642 37.6162 85.4977 37.6383 85.4313 37.6383Z" fill="#0068B5"/>
</g>
<defs>
<clipPath id="clip0_103_230808">
<rect width="87" height="48" fill="white"/>
</clipPath>
</defs>
</svg>
