<svg width="152" height="33" viewBox="0 0 152 33" fill="none" xmlns="http://www.w3.org/2000/svg">
<path d="M54.2183 18.6431L53.3182 21.1935H53.2431C53.0931 20.6184 52.8181 19.7433 52.368 18.6931L47.5422 6.56607H42.8164V25.8943H45.9419V13.9673L45.9169 11.3169C45.8919 10.7918 45.8419 10.3917 45.8169 10.0917H45.8919C46.0419 10.8418 46.217 11.3919 46.342 11.7419L52.143 25.8443H54.3433L60.0943 11.6169C60.2193 11.2919 60.3443 10.6417 60.4694 10.0917H60.5444L60.3943 13.5672V25.8193H63.7199V6.51606H59.1691L54.2183 18.6431ZM66.8704 11.967H70.121V25.8193H66.8704V11.967ZM68.5207 6.11599C67.9706 6.11599 67.5205 6.31603 67.1455 6.66608C66.7704 7.01614 66.5704 7.46622 66.5704 8.01631C66.5669 8.26534 66.6163 8.51226 66.7155 8.74073C66.8146 8.9692 66.9612 9.17399 67.1455 9.34153C67.5205 9.69159 67.9706 9.86662 68.5207 9.86662C69.0708 9.86662 69.5459 9.66658 69.8959 9.34153C70.0802 9.17399 70.2268 8.9692 70.3259 8.74073C70.4251 8.51226 70.4745 8.26534 70.471 8.01631C70.471 7.49122 70.271 7.04115 69.8959 6.66608C69.5709 6.31603 69.0958 6.11599 68.5207 6.11599V6.11599ZM81.6479 11.8419C81.0478 11.7169 80.4227 11.6419 79.8226 11.6419C78.3473 11.6419 76.9971 11.967 75.8719 12.6171C74.7467 13.2672 73.8466 14.1673 73.2715 15.2925C72.6714 16.4427 72.3713 17.7679 72.3713 19.2932C72.3713 20.6184 72.6714 21.7936 73.2465 22.8688C73.8216 23.919 74.6217 24.7691 75.6969 25.3442C76.7221 25.9193 77.9223 26.2194 79.2725 26.2194C80.8228 26.2194 82.148 25.8943 83.1982 25.2942L83.2232 25.2692V22.2687L83.0981 22.3687C82.6231 22.7188 82.073 23.0188 81.5229 23.1938C80.9478 23.3939 80.4227 23.4939 79.9726 23.4939C78.6724 23.4939 77.6472 23.1188 76.9221 22.2937C76.172 21.4936 75.7969 20.3934 75.7969 19.0182C75.7969 17.5929 76.172 16.4677 76.9471 15.6426C77.7222 14.8174 78.7474 14.3924 79.9976 14.3924C81.0478 14.3924 82.123 14.7424 83.0981 15.4426L83.2232 15.5426V12.367L83.1982 12.342C82.7731 12.167 82.298 11.967 81.6479 11.8419V11.8419ZM92.3747 11.7419C91.5745 11.7419 90.8244 11.992 90.1743 12.5171C89.6242 12.9671 89.2492 13.6172 88.9241 14.3924H88.8991V11.967H85.6486V25.8193H88.8991V18.7431C88.8991 17.5429 89.1491 16.5427 89.6992 15.8176C90.2493 15.0675 90.9494 14.6924 91.7996 14.6924C92.0996 14.6924 92.3997 14.7674 92.7748 14.8174C93.1248 14.9175 93.3749 15.0175 93.5499 15.1425L93.6749 15.2425V11.992L93.5999 11.967C93.3749 11.8169 92.9248 11.7419 92.3747 11.7419V11.7419ZM101.226 11.6669C98.9508 11.6669 97.1255 12.342 95.8503 13.6673C94.5501 14.9925 93.9249 16.8178 93.9249 19.1182C93.9249 21.2685 94.5751 23.0188 95.8253 24.294C97.0755 25.5442 98.7758 26.1943 100.901 26.1943C103.126 26.1943 104.902 25.5192 106.177 24.169C107.477 22.8188 108.102 21.0185 108.102 18.7931C108.102 16.5927 107.502 14.8425 106.277 13.5672C105.102 12.292 103.377 11.6669 101.226 11.6669V11.6669ZM103.827 22.3187C103.227 23.0938 102.276 23.4689 101.101 23.4689C99.926 23.4689 98.9758 23.0938 98.3007 22.2687C97.6256 21.4936 97.3005 20.3684 97.3005 18.9431C97.3005 17.4679 97.6506 16.3427 98.3007 15.5426C98.9758 14.7424 99.9009 14.3424 101.076 14.3424C102.226 14.3424 103.126 14.7174 103.777 15.4926C104.427 16.2677 104.777 17.3929 104.777 18.8681C104.727 20.3684 104.452 21.5436 103.827 22.3187V22.3187ZM115.354 17.7179C114.328 17.2929 113.678 16.9678 113.378 16.6928C113.128 16.4427 113.003 16.0927 113.003 15.6426C113.003 15.2675 113.153 14.8925 113.528 14.6424C113.903 14.3924 114.328 14.2674 114.953 14.2674C115.504 14.2674 116.079 14.3674 116.629 14.5174C117.179 14.6674 117.679 14.8925 118.079 15.1925L118.204 15.2925V12.242L118.129 12.217C117.754 12.067 117.254 11.917 116.654 11.7919C116.054 11.6919 115.504 11.6419 115.053 11.6419C113.503 11.6419 112.228 12.017 111.228 12.8421C110.228 13.6172 109.753 14.6674 109.753 15.8926C109.753 16.5427 109.853 17.1178 110.078 17.5929C110.303 18.068 110.628 18.5181 111.078 18.8931C111.528 19.2432 112.178 19.6433 113.078 20.0183C113.828 20.3434 114.403 20.5934 114.753 20.7934C115.103 20.9935 115.329 21.2185 115.504 21.3935C115.629 21.5936 115.704 21.8436 115.704 22.1687C115.704 23.0938 115.003 23.5439 113.578 23.5439C113.028 23.5439 112.453 23.4439 111.778 23.2189C111.103 22.9938 110.478 22.6688 109.953 22.2937L109.828 22.1937V25.3692L109.903 25.3942C110.378 25.6193 110.953 25.7693 111.653 25.9443C112.353 26.0693 112.978 26.1693 113.528 26.1693C115.203 26.1693 116.579 25.7943 117.554 24.9691C118.554 24.169 119.079 23.1438 119.079 21.8186C119.079 20.8935 118.829 20.0683 118.279 19.4432C117.554 18.8431 116.654 18.218 115.354 17.7179V17.7179ZM127.656 11.6669C125.38 11.6669 123.555 12.342 122.28 13.6673C121.004 14.9925 120.354 16.8178 120.354 19.1182C120.354 21.2685 121.004 23.0188 122.255 24.294C123.505 25.5442 125.205 26.1943 127.331 26.1943C129.556 26.1943 131.331 25.5192 132.606 24.169C133.907 22.8188 134.532 21.0185 134.532 18.7931C134.532 16.5927 133.932 14.8425 132.706 13.5672C131.531 12.292 129.806 11.6669 127.656 11.6669V11.6669ZM130.231 22.3187C129.631 23.0938 128.681 23.4689 127.506 23.4689C126.305 23.4689 125.38 23.0938 124.705 22.2687C124.03 21.4936 123.705 20.3684 123.705 18.9431C123.705 17.4679 124.055 16.3427 124.705 15.5426C125.38 14.7424 126.305 14.3424 127.481 14.3424C128.606 14.3424 129.531 14.7174 130.181 15.4926C130.831 16.2677 131.181 17.3929 131.181 18.8681C131.181 20.3684 130.856 21.5436 130.231 22.3187V22.3187ZM151.91 14.6424V11.967H148.634V7.86628L148.534 7.89129L145.434 8.81644L145.359 8.84145V11.967H140.458V10.2167C140.458 9.41654 140.658 8.79144 141.008 8.39137C141.358 7.99131 141.883 7.79127 142.533 7.79127C142.983 7.79127 143.458 7.89129 143.983 8.11633L144.108 8.19134V5.36587L144.033 5.34086C143.583 5.19084 142.983 5.09082 142.208 5.09082C141.233 5.09082 140.383 5.31586 139.608 5.69092C138.832 6.11599 138.257 6.69109 137.832 7.46622C137.407 8.21634 137.182 9.06649 137.182 10.0416V11.967H134.907V14.6174H137.182V25.8193H140.458V14.6424H145.359V21.7686C145.359 24.6941 146.734 26.1693 149.484 26.1693C149.934 26.1693 150.409 26.0943 150.859 26.0193C151.335 25.9193 151.685 25.7943 151.885 25.6943L151.91 25.6693V22.9938L151.785 23.0938C151.585 23.2189 151.41 23.3189 151.11 23.3939C150.859 23.4689 150.634 23.4939 150.459 23.4939C149.809 23.4939 149.359 23.3439 149.034 22.9688C148.734 22.6188 148.584 22.0437 148.584 21.1935V14.6424H151.91Z" fill="#6B7280"/>
<path d="M0.910156 0.0654297H16.2377V15.393H0.910156V0.0654297Z" fill="#6B7280"/>
<path d="M17.8438 0.0654297H33.1713V15.393H17.8438V0.0654297Z" fill="#6B7280"/>
<path d="M0.910156 16.9932H16.2377V32.3207H0.910156V16.9932Z" fill="#6B7280"/>
<path d="M17.8438 16.9932H33.1713V32.3207H17.8438V16.9932Z" fill="#6B7280"/>
</svg>
