<svg width="64" height="17" viewBox="0 0 64 17" fill="none" xmlns="http://www.w3.org/2000/svg">
<path d="M20.4775 12.8536L21.2769 10.997C22.1408 11.6416 23.2883 11.9768 24.4229 11.9768C25.2609 11.9768 25.7896 11.6545 25.7896 11.1646C25.7767 9.79788 20.7741 10.868 20.7354 7.43842C20.7225 5.69783 22.2697 4.35693 24.4615 4.35693C25.7638 4.35693 27.066 4.67927 27.9943 5.41418L27.2465 7.30949C26.3955 6.76797 25.3383 6.38117 24.3326 6.38117C23.6493 6.38117 23.198 6.7035 23.198 7.11609C23.2109 8.45699 28.2522 7.72207 28.3037 10.997C28.3037 12.7762 26.7952 14.0269 24.6292 14.0269C23.0433 14.0269 21.5864 13.653 20.4775 12.8536Z" fill="#6B7280"/>
<path d="M51.1615 10.3265C50.7618 11.0227 50.014 11.4998 49.1502 11.4998C47.8737 11.4998 46.8423 10.4683 46.8423 9.1919C46.8423 7.91547 47.8737 6.88401 49.1502 6.88401C50.014 6.88401 50.7618 7.36106 51.1615 8.05729L53.3662 6.83244C52.5411 5.36261 50.9552 4.35693 49.1502 4.35693C46.4812 4.35693 44.3152 6.523 44.3152 9.1919C44.3152 11.8608 46.4812 14.0269 49.1502 14.0269C50.9681 14.0269 52.5411 13.0341 53.3662 11.5514L51.1615 10.3265Z" fill="#6B7280"/>
<path d="M32.1627 0.347168H29.4036V13.8464H32.1627V0.347168Z" fill="#6B7280"/>
<path d="M54.4338 0.347168V13.8464H57.193V9.79791L60.4679 13.8464H64.0006L59.8361 9.03721L63.6912 4.55036H60.3132L57.193 8.27651V0.347168H54.4338Z" fill="#6B7280"/>
<path d="M40.3814 10.3523C39.9817 11.0098 39.1565 11.4998 38.2282 11.4998C36.9518 11.4998 35.9203 10.4683 35.9203 9.1919C35.9203 7.91547 36.9518 6.88401 38.2282 6.88401C39.1565 6.88401 39.9817 7.39974 40.3814 8.07019V10.3523ZM40.3814 4.55033V5.64626C39.9301 4.88556 38.8084 4.35693 37.6351 4.35693C35.2112 4.35693 33.303 6.49721 33.303 9.17901C33.303 11.8608 35.2112 14.0269 37.6351 14.0269C38.8084 14.0269 39.9301 13.4982 40.3814 12.7375V13.8335H43.1405V4.55033H40.3814Z" fill="#6B7280"/>
<path d="M3.4209 10.3386C3.4209 11.2798 2.6602 12.0405 1.719 12.0405C0.777791 12.0405 0.0170898 11.2798 0.0170898 10.3386C0.0170898 9.39742 0.777791 8.63672 1.719 8.63672H3.4209V10.3386Z" fill="#6B7280"/>
<path d="M4.27319 10.3386C4.27319 9.39742 5.03389 8.63672 5.9751 8.63672C6.91631 8.63672 7.67701 9.39742 7.67701 10.3386V14.5934C7.67701 15.5346 6.91631 16.2953 5.9751 16.2953C5.03389 16.2953 4.27319 15.5346 4.27319 14.5934V10.3386Z" fill="#6B7280"/>
<path d="M5.97242 3.50538C5.03121 3.50538 4.27051 2.74468 4.27051 1.80347C4.27051 0.862264 5.03121 0.101562 5.97242 0.101562C6.91362 0.101562 7.67432 0.862264 7.67432 1.80347V3.50538H5.97242Z" fill="#6B7280"/>
<path d="M5.96957 4.36963C6.91078 4.36963 7.67148 5.13033 7.67148 6.07154C7.67148 7.01274 6.91078 7.77344 5.96957 7.77344H1.70191C0.760701 7.77344 0 7.01274 0 6.07154C0 5.13033 0.760701 4.36963 1.70191 4.36963H5.96957Z" fill="#6B7280"/>
<path d="M12.7944 6.07154C12.7944 5.13033 13.5551 4.36963 14.4963 4.36963C15.4375 4.36963 16.1983 5.13033 16.1983 6.07154C16.1983 7.01274 15.4375 7.77344 14.4963 7.77344H12.7944V6.07154Z" fill="#6B7280"/>
<path d="M11.9421 6.07113C11.9421 7.01234 11.1814 7.77304 10.2402 7.77304C9.29903 7.77304 8.53833 7.01234 8.53833 6.07113V1.80347C8.53833 0.862264 9.29903 0.101562 10.2402 0.101562C11.1814 0.101562 11.9421 0.862264 11.9421 1.80347V6.07113Z" fill="#6B7280"/>
<path d="M10.2402 12.8916C11.1814 12.8916 11.9421 13.6523 11.9421 14.5935C11.9421 15.5347 11.1814 16.2954 10.2402 16.2954C9.29903 16.2954 8.53833 15.5347 8.53833 14.5935V12.8916H10.2402Z" fill="#6B7280"/>
<path d="M10.2402 12.0405C9.29903 12.0405 8.53833 11.2798 8.53833 10.3386C8.53833 9.39742 9.29903 8.63672 10.2402 8.63672H14.5079C15.4491 8.63672 16.2098 9.39742 16.2098 10.3386C16.2098 11.2798 15.4491 12.0405 14.5079 12.0405H10.2402Z" fill="#6B7280"/>
</svg>
