<svg width="64" height="21" viewBox="0 0 64 21" fill="none" xmlns="http://www.w3.org/2000/svg">
<g clip-path="url(#clip0_113_266147)">
<path d="M25.7743 9.27549C27.7217 9.74887 28.5156 10.4839 28.5156 11.8129C28.5156 13.3854 27.3142 14.4016 25.4547 14.4016C24.1404 14.4016 22.922 13.9346 21.9317 13.0505C21.9114 13.0324 21.8989 13.007 21.8971 12.9798C21.8952 12.9526 21.904 12.9257 21.9217 12.905L22.7967 11.8641C22.8057 11.8535 22.8166 11.8447 22.829 11.8383C22.8413 11.832 22.8548 11.8281 22.8686 11.827C22.8825 11.826 22.8964 11.8276 22.9096 11.832C22.9228 11.8363 22.935 11.8432 22.9455 11.8523C23.7967 12.5892 24.5577 12.9032 25.4903 12.9032C26.3303 12.9032 26.8522 12.5395 26.8522 11.955C26.8522 11.4272 26.5941 11.1323 25.0646 10.78C23.2681 10.3455 22.2281 9.78327 22.2281 8.19405C22.2281 6.71216 23.4336 5.67718 25.1589 5.67718C26.3321 5.67718 27.3368 6.02472 28.2286 6.74009C28.2715 6.77478 28.2803 6.83712 28.2483 6.8824L27.4676 7.98206C27.4595 7.99336 27.4492 8.00294 27.4373 8.01024C27.4254 8.01754 27.4122 8.02243 27.3984 8.02461C27.3847 8.0268 27.3706 8.02624 27.357 8.02298C27.3435 8.01971 27.3307 8.0138 27.3195 8.00558C26.5703 7.44693 25.8558 7.17584 25.1348 7.17584C24.3915 7.17584 23.8917 7.53308 23.8917 8.0638C23.8917 8.62539 24.1769 8.89296 25.7746 9.2746L25.7743 9.27549ZM32.7222 7.6995C31.9166 7.6995 31.2556 8.01705 30.7102 8.66685V7.93472C30.7102 7.90696 30.6991 7.88034 30.6795 7.86071C30.6599 7.84108 30.6333 7.83005 30.6055 7.83005H29.1748C29.147 7.83005 29.1204 7.84108 29.1007 7.86071C29.0811 7.88034 29.0701 7.90696 29.0701 7.93472V16.0705C29.0701 16.1278 29.1171 16.1748 29.1748 16.1748H30.6058C30.6637 16.1748 30.7108 16.1278 30.7108 16.0702V13.5018C31.2559 14.1134 31.9172 14.4127 32.7231 14.4127C34.2211 14.4127 35.7369 13.2601 35.7369 11.0561C35.7369 8.85209 34.2203 7.6995 32.7222 7.6995ZM34.0718 11.0564C34.0718 12.1784 33.3808 12.9617 32.3911 12.9617C31.412 12.9617 30.674 12.1428 30.674 11.0564C30.674 9.96998 31.412 9.15111 32.3911 9.15111C33.3649 9.15111 34.0721 9.95234 34.0721 11.0564H34.0718ZM39.6221 7.6995C37.6933 7.6995 36.1826 9.18434 36.1826 11.0808C36.1826 12.9561 37.6827 14.4254 39.598 14.4254C41.5336 14.4254 43.049 12.9452 43.049 11.0564C43.049 9.17405 41.5436 7.69921 39.6218 7.69921L39.6221 7.6995ZM39.6218 12.9732C38.5957 12.9732 37.8224 12.149 37.8224 11.0561C37.8224 9.9588 38.5692 9.16258 39.5983 9.16258C40.6304 9.16258 41.4095 9.98674 41.4095 11.0802C41.4095 12.1769 40.6574 12.9729 39.6218 12.9729V12.9732ZM47.1678 7.83005C47.2257 7.83005 47.2724 7.87709 47.2724 7.93472V9.16464C47.2725 9.17837 47.2698 9.19197 47.2646 9.20467C47.2593 9.21737 47.2517 9.22891 47.242 9.23863C47.2323 9.24836 47.2207 9.25607 47.2081 9.26134C47.1954 9.2666 47.1818 9.26931 47.168 9.26931H45.5935V12.2275C45.5935 12.695 45.7988 12.9032 46.258 12.9032C46.5503 12.9048 46.8385 12.8351 47.0978 12.7003C47.1138 12.6924 47.1316 12.6886 47.1495 12.6895C47.1673 12.6903 47.1847 12.6957 47.1999 12.7051C47.2151 12.7145 47.2277 12.7277 47.2364 12.7433C47.2451 12.7589 47.2497 12.7765 47.2498 12.7944V13.9652C47.2498 14.0026 47.2292 14.0378 47.1969 14.0564C46.7955 14.2836 46.3698 14.3895 45.8561 14.3895C44.5938 14.3895 43.9537 13.7376 43.9537 12.4513V9.26961H43.2657C43.252 9.26957 43.2384 9.26683 43.2258 9.26155C43.2131 9.25627 43.2017 9.24854 43.192 9.23882C43.1823 9.22911 43.1747 9.21758 43.1695 9.2049C43.1643 9.19222 43.1616 9.17864 43.1616 9.16493V7.93472C43.1616 7.87709 43.2081 7.83005 43.2657 7.83005H43.9537V6.21996C43.9537 6.16233 44.0008 6.11528 44.059 6.11528H45.4897C45.5477 6.11528 45.5944 6.16233 45.5944 6.21996V7.83005H47.1689H47.1678ZM55.0991 7.83622C55.1424 7.83622 55.1815 7.86269 55.197 7.90385L56.8686 12.2654L58.3946 7.9062C58.4018 7.88563 58.4152 7.86779 58.4329 7.85516C58.4507 7.84252 58.4719 7.8357 58.4937 7.83563H59.9835C60.0006 7.83561 60.0174 7.83978 60.0325 7.84777C60.0476 7.85576 60.0605 7.86733 60.0701 7.88146C60.0796 7.8956 60.0856 7.91186 60.0874 7.92884C60.0893 7.94581 60.0869 7.96298 60.0805 7.97883L57.5978 14.3945C57.0832 15.7185 56.4987 16.2107 55.4426 16.2107C54.8774 16.2107 54.4202 16.0937 53.9136 15.8196C53.8903 15.8071 53.8727 15.786 53.8644 15.7609C53.8561 15.7358 53.8577 15.7084 53.8689 15.6844L54.3541 14.62C54.36 14.6069 54.3685 14.5951 54.3791 14.5854C54.3897 14.5757 54.4022 14.5683 54.4158 14.5636C54.4296 14.5592 54.4441 14.5576 54.4585 14.559C54.4729 14.5603 54.4869 14.5646 54.4996 14.5715C54.771 14.72 55.0365 14.795 55.2888 14.795C55.6004 14.795 55.8289 14.6926 56.0612 14.1769L54.0148 9.26961H52.6784V14.1784C52.6784 14.2363 52.6314 14.2834 52.5737 14.2834H51.1427C51.1289 14.2834 51.1153 14.2806 51.1026 14.2754C51.0899 14.2701 51.0783 14.2623 51.0686 14.2526C51.0589 14.2428 51.0512 14.2313 51.0459 14.2185C51.0407 14.2058 51.038 14.1922 51.038 14.1784V9.26961H50.3506C50.3228 9.26937 50.2963 9.25824 50.2766 9.23861C50.257 9.21897 50.2459 9.19241 50.2456 9.16464V7.92884C50.2456 7.87092 50.2927 7.82387 50.3503 7.82387H51.0377V7.52103C51.0377 6.11381 51.7363 5.36934 53.0583 5.36934C53.6014 5.36934 53.9639 5.45607 54.2476 5.53987C54.2923 5.55369 54.322 5.59456 54.322 5.64043V6.84594C54.3222 6.86261 54.3185 6.87908 54.311 6.89399C54.3035 6.90889 54.2926 6.92178 54.2791 6.93158C54.2656 6.94138 54.25 6.94779 54.2335 6.95029C54.217 6.95278 54.2002 6.95128 54.1844 6.94591C53.916 6.85652 53.6763 6.79713 53.3782 6.79713C52.8783 6.79713 52.6549 7.05676 52.6549 7.63864V7.83622H55.0988H55.0991ZM49.4738 7.83005C49.5314 7.83005 49.5785 7.87709 49.5785 7.93472V14.1781C49.5785 14.2357 49.5314 14.2828 49.4735 14.2828H48.0425C48.0147 14.2828 47.988 14.2717 47.9684 14.2521C47.9487 14.2325 47.9376 14.2059 47.9375 14.1781V7.93472C47.9375 7.87709 47.9846 7.83005 48.0422 7.83005H49.4732H49.4738ZM48.7655 4.98739C49.0376 4.98739 49.2987 5.09551 49.4911 5.28795C49.6835 5.48039 49.7916 5.7414 49.7916 6.01355C49.7916 6.2857 49.6835 6.54671 49.4911 6.73915C49.2987 6.93159 49.0376 7.0397 48.7655 7.0397C48.4933 7.0397 48.2323 6.93159 48.0399 6.73915C47.8475 6.54671 47.7393 6.2857 47.7393 6.01355C47.7393 5.7414 47.8475 5.48039 48.0399 5.28795C48.2323 5.09551 48.4933 4.98739 48.7655 4.98739ZM61.3022 9.83708C61.1698 9.83758 61.0387 9.81188 60.9162 9.76145C60.7938 9.71102 60.6826 9.63686 60.589 9.54325C60.4954 9.44964 60.4212 9.33842 60.3708 9.21601C60.3204 9.0936 60.2947 8.96242 60.2952 8.83003C60.2952 8.69711 60.3214 8.56548 60.3722 8.44268C60.4231 8.31987 60.4977 8.20829 60.5917 8.11431C60.6857 8.02033 60.7973 7.94579 60.9201 7.89495C61.043 7.8441 61.1746 7.81795 61.3075 7.81799C61.4399 7.81741 61.571 7.84304 61.6934 7.89341C61.8159 7.94377 61.9271 8.01787 62.0207 8.11144C62.1143 8.20501 62.1885 8.31618 62.2389 8.43856C62.2894 8.56094 62.3151 8.69209 62.3146 8.82445C62.3146 8.95743 62.2884 9.08911 62.2376 9.21199C62.1867 9.33486 62.1122 9.44651 62.0182 9.54057C61.9242 9.63463 61.8126 9.70925 61.6897 9.76018C61.5669 9.8111 61.4352 9.83733 61.3022 9.83737V9.83708ZM61.3075 7.91826C60.7918 7.91826 60.4013 8.32842 60.4013 8.83033C60.4013 9.33223 60.7889 9.73681 61.3022 9.73681C61.8179 9.73681 62.2087 9.32694 62.2087 8.82474C62.2087 8.32284 61.8206 7.91826 61.3075 7.91826ZM61.531 8.92824L61.8156 9.32694H61.5754L61.3196 8.96117H61.099V9.32694H60.8976V8.26991H61.3693C61.6145 8.26991 61.7762 8.39576 61.7762 8.60716C61.7762 8.78064 61.6762 8.88649 61.5307 8.92765L61.531 8.92824ZM61.3601 8.45133H61.0985V8.78534H61.3601C61.4913 8.78534 61.5689 8.72124 61.5689 8.61775C61.5689 8.50896 61.4913 8.45103 61.3601 8.45103V8.45133ZM9.84777 0.730469C4.73582 0.730469 0.591797 4.93212 0.591797 10.0444C0.591503 14.8479 4.24979 18.7255 8.93246 19.3136H10.7631C15.4458 18.7255 19.104 14.8479 19.104 10.0441C19.104 4.93212 14.9597 0.730469 9.84806 0.730469H9.84777ZM14.0926 14.0811C14.0532 14.1458 14.0014 14.2022 13.9402 14.2469C13.8789 14.2916 13.8095 14.3237 13.7358 14.3415C13.6621 14.3593 13.5856 14.3624 13.5107 14.3506C13.4358 14.3388 13.364 14.3124 13.2994 14.2728C11.1256 12.9444 8.38998 12.6444 5.16804 13.3804C5.09421 13.3974 5.01775 13.3996 4.94305 13.387C4.86835 13.3744 4.79687 13.3472 4.73269 13.307C4.66852 13.2667 4.61291 13.2142 4.56905 13.1524C4.52518 13.0907 4.49393 13.0209 4.47707 12.947C4.46011 12.8731 4.45788 12.7966 4.47052 12.7219C4.48316 12.6472 4.51041 12.5757 4.55072 12.5115C4.59104 12.4473 4.64361 12.3917 4.70545 12.3479C4.76728 12.304 4.83715 12.2728 4.91106 12.256C8.43703 11.4504 11.4614 11.7974 13.9012 13.2881C14.0317 13.368 14.1251 13.4964 14.1609 13.6452C14.1967 13.7939 14.1721 13.9508 14.0923 14.0814L14.0926 14.0811ZM15.2252 11.5607C15.1251 11.7237 14.9643 11.8403 14.7782 11.8848C14.5922 11.9294 14.396 11.8982 14.2329 11.7982C11.7454 10.2693 7.95247 9.8262 5.00926 10.7197C4.82608 10.775 4.62847 10.7555 4.45967 10.6654C4.29088 10.5753 4.16466 10.422 4.10866 10.239C3.99398 9.85678 4.20862 9.45484 4.58998 9.33929C7.95218 8.31902 12.1312 8.81298 14.9882 10.5683C15.1512 10.6685 15.2678 10.8293 15.3123 11.0154C15.3568 11.2015 15.3256 11.3976 15.2255 11.5607H15.2252ZM15.3228 8.93618C12.3391 7.16437 7.41764 7.00148 4.5694 7.86592C4.34965 7.93252 4.11244 7.90909 3.90996 7.80079C3.70749 7.69249 3.55632 7.5082 3.48973 7.28845C3.42313 7.0687 3.44656 6.8315 3.55486 6.62902C3.66315 6.42654 3.84745 6.27538 4.0672 6.20878C7.33678 5.21644 12.7722 5.40815 16.207 7.44664C16.3048 7.50463 16.3902 7.58133 16.4584 7.67235C16.5265 7.76337 16.5761 7.86692 16.6042 7.97709C16.6323 8.08727 16.6385 8.20191 16.6223 8.31445C16.6061 8.427 16.5679 8.53526 16.5098 8.63304C16.4519 8.73091 16.3752 8.81639 16.2841 8.8846C16.1931 8.9528 16.0895 9.00238 15.9793 9.03051C15.8691 9.05864 15.7544 9.06476 15.6418 9.04852C15.5292 9.03229 15.4209 8.99401 15.3231 8.93588L15.3228 8.93618Z" fill="#6B7280"/>
</g>
<defs>
<clipPath id="clip0_113_266147">
<rect width="64" height="19.9938" fill="white" transform="translate(0 0.20166)"/>
</clipPath>
</defs>
</svg>
