<svg width="320" height="476" viewBox="0 0 320 476" fill="none" xmlns="http://www.w3.org/2000/svg">
<rect y="94.3467" width="311.248" height="320.002" rx="32" fill="#4B5563"/>
<rect x="12.0293" y="105.006" width="287.652" height="298.415" rx="32" fill="#6B7280"/>
<path d="M310.662 223.841V223.841C314.741 223.841 318.047 227.147 318.047 231.226V259.253C318.047 263.331 314.741 266.637 310.662 266.637V266.637V223.841Z" fill="#4B5563"/>
<path d="M310.77 145.897H312.001C316.419 145.897 320.001 149.479 320.001 153.897V200.147C320.001 204.565 316.419 208.147 312.001 208.147H310.77V145.897Z" fill="#4B5563"/>
<path d="M54.4688 414.349H256.78V414.349C256.78 448.191 229.345 475.626 195.503 475.626H115.746C81.9035 475.626 54.4688 448.191 54.4688 414.349V414.349Z" fill="#374151"/>
<path d="M256.311 95.3193L53.9993 95.3193V63.9996C53.9993 28.6534 82.6531 -0.000389099 117.999 -0.000389099L192.31 -0.000389099C227.657 -0.000389099 256.311 28.6534 256.311 63.9996V95.3193Z" fill="#374151"/>
</svg>
