<svg width="476" height="307" viewBox="0 0 476 307" fill="none" xmlns="http://www.w3.org/2000/svg">
<path d="M53.9615 143.1L0.161505 273.9C0.161505 273.9 -3.23849 294.9 21.1615 294.9H71.7615C71.4615 294 71.3615 293.2 71.1615 292.3L53.9615 143.1Z" fill="#DEDFE1"/>
<path d="M475.362 292.3L443.262 14.5C442.362 6.5 435.162 0 427.062 0H51.9618C43.9618 0 38.2618 6.5 39.1618 14.5L53.9618 143.1L71.1618 292.3C71.2618 293.2 71.4618 294.1 71.7618 294.9C73.7618 301.7 80.2618 306.8 87.3618 306.8H462.562C470.562 306.8 476.262 300.3 475.362 292.3ZM451.662 298.7H96.3618C88.7618 298.7 81.9618 292.6 81.0618 285L50.6618 22C49.7618 14.4 55.1618 8.3 62.7618 8.3H418.062C425.662 8.3 432.462 14.4 433.362 22L463.762 285C464.662 292.5 459.262 298.7 451.662 298.7Z" fill="#EDEEF0"/>
<path d="M433.462 21.8992C432.562 14.2992 425.762 8.19922 418.162 8.19922H62.862C55.262 8.19922 49.862 14.2992 50.762 21.8992L81.162 284.899C82.062 292.499 88.862 298.599 96.462 298.599H451.762C459.362 298.599 464.762 292.499 463.862 284.899L433.462 21.8992Z" fill="#C5C6C8"/>
</svg>
