<svg width="457" height="896" viewBox="0 0 457 896" fill="none" xmlns="http://www.w3.org/2000/svg">
<rect x="14" y="10" width="428" height="876" rx="54" stroke="#374151" stroke-width="20"/>
<path d="M1 121.396C1 120.625 1.62515 120 2.39631 120H4.78034V156.77H2.39631C1.62515 156.77 1 156.144 1 155.373V121.396Z" fill="#374151"/>
<path d="M0 183.166C0 182.395 0.62515 181.77 1.39631 181.77H4.70712V250.189H1.39631C0.625149 250.189 0 249.564 0 248.792V183.166Z" fill="#374151"/>
<path d="M0 276.586C0 275.815 0.62515 275.189 1.39631 275.189H4.70712V343.609H1.39631C0.625149 343.609 0 342.984 0 342.212V276.586Z" fill="#374151"/>
<path d="M456.707 121.396C456.707 120.625 456.082 120 455.311 120H452V229.378H455.311C456.082 229.378 456.707 228.753 456.707 227.981V121.396Z" fill="#374151"/>
<rect x="24" y="20" width="408" height="856" rx="44" fill="#6B7280"/>
<path d="M112 20H343.232V31.1705C343.232 44.0232 332.812 54.4423 319.96 54.4423H135.272C122.419 54.4423 112 44.0232 112 31.1705V20Z" fill="#374151"/>
</svg>
