<svg width="896" height="473" viewBox="0 0 896 473" fill="none" xmlns="http://www.w3.org/2000/svg">
<path d="M64 8.00001C64 3.58173 67.5817 0 72 0H824C828.418 0 832 3.58172 832 8V441H64V8.00001Z" fill="#EDEEF0"/>
<path d="M73 18C73 13.5817 76.5817 10 81 10H815C819.418 10 823 13.5817 823 18V431H73V18Z" fill="#C5C6C8"/>
<path d="M0 442.846C0 441.741 0.895431 440.846 2 440.846H894C895.105 440.846 896 441.741 896 442.846V464.846C896 469.264 892.418 472.846 888 472.846H8.00002C3.58175 472.846 0 469.264 0 464.846V442.846Z" fill="#D4D5D7"/>
<path d="M376 440H520V444C520 448.418 516.418 452 512 452H384C379.582 452 376 448.418 376 444V440Z" fill="#EDEEF0"/>
</svg>
