<svg width="363" height="679" viewBox="0 0 363 679" fill="none" xmlns="http://www.w3.org/2000/svg">
<path d="M5.5 90C231 41.5002 291.5 40.5003 317 46.5003C342.5 52.5002 345.5 73.999 345.5 73.999L358.5 672.499L180.5 677.434L5.5 666.499V90Z" fill="#C5C6C8"/>
<path d="M34.4109 87.7386C33.632 85.6692 34.6798 83.3604 36.7502 82.5841L240.508 6.18445C242.846 5.3077 245.407 6.76423 245.849 9.22207L252.372 45.5056C252.73 47.4992 251.542 49.446 249.605 50.0384L47.4917 111.853C45.4729 112.47 43.3219 111.412 42.5782 109.437L34.4109 87.7386Z" fill="#C5C6C8"/>
<path fill-rule="evenodd" clip-rule="evenodd" d="M245.284 8.77629C244.997 6.91792 243.073 5.73748 241.133 6.4611L8.28189 93.3312C7.04689 93.7918 6.23504 94.9768 6.25066 96.293C6.53504 120.306 6.8869 144.376 7.2519 169.361C8.29815 240.987 9.45439 320.13 9.45377 426.989C9.45377 468.13 9.15441 502.634 8.88941 533.198C8.45941 582.813 8.11877 622.044 9.29377 662.426C9.33877 663.963 10.4294 665.151 11.8394 665.344C80.2282 674.632 233.587 673.288 309.251 671.263C310.981 671.213 312.301 669.807 312.241 668.088C304.099 434.405 265.049 136.783 245.284 8.77629ZM238.948 0.605352C244.42 -1.4359 250.541 1.86341 251.461 7.82254C271.24 135.921 310.333 433.824 318.488 667.876C318.668 673.069 314.607 677.369 309.419 677.507C233.884 679.538 79.9863 680.907 10.9988 671.538C6.44627 670.919 3.17691 667.088 3.04691 662.607C1.86879 622.125 2.21002 582.701 2.64065 532.972C2.90502 502.415 3.20377 467.967 3.20377 426.989C3.20439 320.179 2.04877 241.1 1.00252 169.482C0.637522 144.489 0.285664 120.404 0.000663523 96.3674C-0.0462115 92.413 2.3944 88.8568 6.09753 87.4755L238.948 0.605352Z" fill="#EDEEF0"/>
<path fill-rule="evenodd" clip-rule="evenodd" d="M332.86 595.013C334.585 594.964 336.023 596.324 336.072 598.049L336.809 624.099C336.858 625.824 335.499 627.262 333.774 627.311C332.048 627.36 330.61 626 330.562 624.276L329.825 598.225C329.776 596.5 331.135 595.062 332.86 595.013Z" fill="#EDEEF0"/>
<path fill-rule="evenodd" clip-rule="evenodd" d="M331.096 556.396C332.821 556.347 334.249 557.343 334.286 558.621L334.831 577.909C334.867 579.187 333.498 580.262 331.773 580.311C330.047 580.36 328.62 579.363 328.584 578.086L328.038 558.797C328.002 557.52 329.371 556.445 331.096 556.396Z" fill="#EDEEF0"/>
<path fill-rule="evenodd" clip-rule="evenodd" d="M330.742 56.8973C323.991 48.6123 316.135 46.6461 311.314 47.0879C311.269 47.0917 311.224 47.0948 311.179 47.0973L257.224 49.6892C257.507 51.4204 257.894 53.8261 258.385 56.9736C259.549 64.4354 261.302 76.0661 263.657 92.7636C268.368 126.159 275.494 179.822 285.155 260.932C305.027 427.766 316.29 596.136 318.621 671.086C329.891 672.799 345.749 671.842 356.131 670.892C355.343 637.667 354.195 591.549 352.905 539.737C348.822 375.677 343.32 154.599 343.32 105.605C343.32 80.0854 337.511 65.2055 330.742 56.8973ZM250.648 47.2467C250.484 47.2755 250.484 47.2754 250.484 47.2754L250.49 47.3098L250.589 47.8879C250.66 48.3061 250.767 48.9429 250.911 49.8129C251.198 51.5523 251.63 54.2229 252.21 57.9373C253.369 65.3654 255.117 76.9661 257.469 93.6367C262.172 126.979 269.292 180.597 278.949 261.671C299.03 430.262 310.307 600.392 312.45 673.811C312.493 675.267 313.532 676.499 314.957 676.786C328.37 679.486 348.974 677.905 359.637 676.83C361.262 676.667 362.487 675.28 362.449 673.649C361.657 640.186 360.479 592.817 359.15 539.429C355.067 375.385 349.57 154.513 349.57 105.605C349.57 79.2267 343.574 62.7517 335.587 52.9492C327.607 43.1567 317.794 40.2436 310.814 40.8573L253.412 43.6154C252.517 43.6579 251.682 44.0842 251.122 44.7842C250.562 45.4848 250.33 46.3923 250.484 47.2754L250.648 47.2467Z" fill="#EDEEF0"/>
</svg>
