<svg width="147" height="113" viewBox="0 0 147 113" fill="none" xmlns="http://www.w3.org/2000/svg">
<path d="M8.34766 25.5897C8.34766 24.7916 8.99468 24.1445 9.79282 24.1445H140.098C140.896 24.1445 141.543 24.7916 141.543 25.5897V110.613C141.543 111.411 140.896 112.059 140.098 112.059H9.79282C8.99467 112.059 8.34766 111.411 8.34766 110.613V25.5897Z" fill="#29333F"/>
<path d="M103.969 89.7788L53.1477 38.9573H50.1369L103.969 92.7896V89.7788Z" fill="url(#paint0_linear_6699_4743)" fill-opacity="0.1"/>
<path d="M103.969 62.5616L80.2445 38.8369H86.5068L103.969 56.2993V62.5616Z" fill="url(#paint1_linear_6699_4743)" fill-opacity="0.1"/>
<path d="M93.6122 112.058L45.9219 64.3681V73.7616L84.2187 112.058H93.6122Z" fill="url(#paint2_linear_6699_4743)" fill-opacity="0.1"/>
<path d="M68.8036 112.058L45.9219 89.1767V92.5487L65.4316 112.058H68.8036Z" fill="url(#paint3_linear_6699_4743)" fill-opacity="0.1"/>
<path fill-rule="evenodd" clip-rule="evenodd" d="M23.7137 38.8369L41.8272 56.9426V52.1635L28.495 38.8369H23.7137ZM8.34766 46.5461V44.2484L41.8272 77.7137V80.0113L8.34766 46.5461ZM8.34766 76.3241V69.1553L33.9198 94.7165H26.748L8.34766 76.3241ZM8.34766 90.6616V88.0882L14.9788 94.7165H12.4043L8.34766 90.6616Z" fill="url(#paint4_linear_6699_4743)" fill-opacity="0.1"/>
<path fill-rule="evenodd" clip-rule="evenodd" d="M139.05 38.8369H134.269L141.544 46.1086V41.3294L139.05 38.8369ZM141.544 66.8796L113.581 38.9288H111.282L141.544 69.1773V66.8796ZM141.544 91.7864L108.064 58.3212V65.49L137.303 94.7165H140.821C141.22 94.7165 141.544 94.393 141.544 93.9939V91.7864ZM125.534 94.7165L108.064 77.2541V79.8275L122.959 94.7165H125.534Z" fill="url(#paint5_linear_6699_4743)" fill-opacity="0.1"/>
<path d="M8.34758 94.7168L41.8271 94.7168L41.8272 74.4845L8.34758 74.4845L8.34758 94.7168Z" fill="#374151" fill-opacity="0.2"/>
<path d="M108.064 94.7168L141.543 94.7168L141.543 74.4845L108.064 74.4845L108.064 94.7168Z" fill="#374151" fill-opacity="0.2"/>
<path fill-rule="evenodd" clip-rule="evenodd" d="M108.786 39.0784H141.543V38.5967H108.786C108.254 38.5967 107.823 39.028 107.823 39.5601V93.9945C107.823 94.5266 108.254 94.958 108.786 94.958H141.543V94.4762H108.786C108.52 94.4762 108.305 94.2606 108.305 93.9945V39.5601C108.305 39.2941 108.52 39.0784 108.786 39.0784Z" fill="#182230"/>
<path fill-rule="evenodd" clip-rule="evenodd" d="M46.6446 39.0784C46.3785 39.0784 46.1629 39.2941 46.1629 39.5601V112.059H45.6812V39.5601C45.6812 39.028 46.1125 38.5967 46.6446 38.5967H103.247C103.779 38.5967 104.21 39.028 104.21 39.5601V112.059H103.728V39.5601C103.728 39.2941 103.513 39.0784 103.247 39.0784H46.6446Z" fill="#182230"/>
<path fill-rule="evenodd" clip-rule="evenodd" d="M74.584 112.058V38.8369H75.0657V112.058H74.584Z" fill="#374151"/>
<path fill-rule="evenodd" clip-rule="evenodd" d="M41.1046 39.0784H8.34766V38.5967H41.1046C41.6367 38.5967 42.0681 39.028 42.0681 39.5601V93.9945C42.0681 94.5266 41.6367 94.958 41.1046 94.958H8.34766V94.4762H41.1046C41.3707 94.4762 41.5864 94.2606 41.5864 93.9945V39.5601C41.5864 39.2941 41.3707 39.0784 41.1046 39.0784Z" fill="#182230"/>
<path d="M15.3325 57.1422C15.3325 51.8213 19.646 47.5078 24.9669 47.5078C30.2879 47.5078 34.6013 51.8213 34.6013 57.1422C34.6013 62.4632 30.2879 66.7766 24.9669 66.7766C19.646 66.7766 15.3325 62.4632 15.3325 57.1422Z" fill="#374151" fill-opacity="0.5"/>
<path d="M115.049 57.1422C115.049 51.8213 119.362 47.5078 124.683 47.5078C130.004 47.5078 134.318 51.8213 134.318 57.1422C134.318 62.4632 130.004 66.7766 124.683 66.7766C119.362 66.7766 115.049 62.4632 115.049 57.1422Z" fill="#374151" fill-opacity="0.5"/>
<path fill-rule="evenodd" clip-rule="evenodd" d="M0.880859 28.2391L5.69009 4.63477H141.31L146.12 28.2391C144.756 29.1624 141.09 31.009 137.335 31.009C133.645 31.009 130.893 29.2247 129.924 28.287C128.507 29.2247 124.902 31.009 121.211 31.009C117.521 31.009 114.768 29.2247 113.799 28.287C112.382 29.2247 108.777 31.009 105.087 31.009C101.397 31.009 98.644 29.2247 97.6752 28.287C96.2582 29.2247 92.6531 31.009 88.9627 31.009C85.2722 31.009 82.5197 29.2247 81.5509 28.287C80.1339 29.2247 76.5288 31.009 72.8384 31.009C69.148 31.009 66.3955 29.2247 65.4266 28.287C64.0097 29.2247 60.4045 31.009 56.7141 31.009C53.0237 31.009 50.2712 29.2247 49.3024 28.287C47.8854 29.2247 44.2803 31.009 40.5899 31.009C36.8995 31.009 34.1469 29.2247 33.1781 28.287C31.7612 29.2247 28.156 31.009 24.4656 31.009C20.7752 31.009 18.0227 29.2247 17.0538 28.287C15.6369 29.2247 12.0318 31.009 8.34134 31.009C4.58703 31.009 1.80339 29.1624 0.880859 28.2391Z" fill="#29333F"/>
<path fill-rule="evenodd" clip-rule="evenodd" d="M0.880859 28.2391L5.69009 4.63477H141.31L146.12 28.2391C144.756 29.1624 141.09 31.009 137.335 31.009C133.645 31.009 130.893 29.2247 129.924 28.287C128.507 29.2247 124.902 31.009 121.211 31.009C117.521 31.009 114.768 29.2247 113.799 28.287C112.382 29.2247 108.777 31.009 105.087 31.009C101.397 31.009 98.644 29.2247 97.6752 28.287C96.2582 29.2247 92.6531 31.009 88.9627 31.009C85.2722 31.009 82.5197 29.2247 81.5509 28.287C80.1339 29.2247 76.5288 31.009 72.8384 31.009C69.148 31.009 66.3955 29.2247 65.4266 28.287C64.0097 29.2247 60.4045 31.009 56.7141 31.009C53.0237 31.009 50.2712 29.2247 49.3024 28.287C47.8854 29.2247 44.2803 31.009 40.5899 31.009C36.8995 31.009 34.1469 29.2247 33.1781 28.287C31.7612 29.2247 28.156 31.009 24.4656 31.009C20.7752 31.009 18.0227 29.2247 17.0538 28.287C15.6369 29.2247 12.0318 31.009 8.34134 31.009C4.58703 31.009 1.80339 29.1624 0.880859 28.2391Z" fill="url(#paint6_linear_6699_4743)"/>
<path fill-rule="evenodd" clip-rule="evenodd" d="M0.880859 28.2391L5.69009 4.63477H141.31L146.12 28.2391C144.756 29.1624 141.09 31.009 137.335 31.009C133.645 31.009 130.893 29.2247 129.924 28.287C128.507 29.2247 124.902 31.009 121.211 31.009C117.521 31.009 114.768 29.2247 113.799 28.287C112.382 29.2247 108.777 31.009 105.087 31.009C101.397 31.009 98.644 29.2247 97.6752 28.287C96.2582 29.2247 92.6531 31.009 88.9627 31.009C85.2722 31.009 82.5197 29.2247 81.5509 28.287C80.1339 29.2247 76.5288 31.009 72.8384 31.009C69.148 31.009 66.3955 29.2247 65.4266 28.287C64.0097 29.2247 60.4045 31.009 56.7141 31.009C53.0237 31.009 50.2712 29.2247 49.3024 28.287C47.8854 29.2247 44.2803 31.009 40.5899 31.009C36.8995 31.009 34.1469 29.2247 33.1781 28.287C31.7612 29.2247 28.156 31.009 24.4656 31.009C20.7752 31.009 18.0227 29.2247 17.0538 28.287C15.6369 29.2247 12.0318 31.009 8.34134 31.009C4.58703 31.009 1.80339 29.1624 0.880859 28.2391Z" fill="url(#paint7_linear_6699_4743)"/>
<path fill-rule="evenodd" clip-rule="evenodd" d="M145.879 27.2757H1.12158V26.7939H145.879V27.2757Z" fill="#29333F"/>
<path fill-rule="evenodd" clip-rule="evenodd" d="M127.813 4.84941L130.221 26.7677L129.743 26.8203L127.334 4.90203L127.813 4.84941Z" fill="#29333F"/>
<path fill-rule="evenodd" clip-rule="evenodd" d="M112.157 4.85496L114.084 26.7732L113.604 26.8154L111.677 4.89715L112.157 4.85496Z" fill="#29333F"/>
<path fill-rule="evenodd" clip-rule="evenodd" d="M19.4284 4.84941L17.0198 26.7677L17.4986 26.8203L19.9072 4.90203L19.4284 4.84941Z" fill="#29333F"/>
<path fill-rule="evenodd" clip-rule="evenodd" d="M35.0836 4.85496L33.1567 26.7732L33.6366 26.8154L35.5635 4.89715L35.0836 4.85496Z" fill="#29333F"/>
<path fill-rule="evenodd" clip-rule="evenodd" d="M50.7395 4.8596L49.2944 26.7779L49.7751 26.8096L51.2202 4.89129L50.7395 4.8596Z" fill="#29333F"/>
<path fill-rule="evenodd" clip-rule="evenodd" d="M66.1538 4.86761L65.4312 26.7859L65.9127 26.8018L66.6353 4.88348L66.1538 4.86761Z" fill="#29333F"/>
<path fill-rule="evenodd" clip-rule="evenodd" d="M96.5017 4.8596L97.9468 26.7779L97.4662 26.8096L96.021 4.89129L96.5017 4.8596Z" fill="#29333F"/>
<path fill-rule="evenodd" clip-rule="evenodd" d="M81.0869 4.86761L81.8095 26.7859L81.328 26.8018L80.6055 4.88348L81.0869 4.86761Z" fill="#29333F"/>
<path d="M5.69824 0.781174C5.69824 0.382104 6.02175 0.0585938 6.42082 0.0585938H140.58C140.979 0.0585938 141.303 0.382104 141.303 0.781174V4.63494H5.69824V0.781174Z" fill="#29333F"/>
<path d="M9.31102 2.34692C9.31102 2.8125 8.93359 3.18993 8.46801 3.18993C8.00243 3.18993 7.625 2.8125 7.625 2.34692C7.625 1.88134 8.00243 1.50391 8.46801 1.50391C8.93359 1.50391 9.31102 1.88134 9.31102 2.34692Z" fill="#374151"/>
<path d="M11.7197 2.34692C11.7197 2.8125 11.3423 3.18993 10.8767 3.18993C10.4111 3.18993 10.0337 2.8125 10.0337 2.34692C10.0337 1.88134 10.4111 1.50391 10.8767 1.50391C11.3423 1.50391 11.7197 1.88134 11.7197 2.34692Z" fill="#6B7280"/>
<path d="M14.1284 2.34692C14.1284 2.8125 13.751 3.18993 13.2854 3.18993C12.8198 3.18993 12.4424 2.8125 12.4424 2.34692C12.4424 1.88134 12.8198 1.50391 13.2854 1.50391C13.751 1.50391 14.1284 1.88134 14.1284 2.34692Z" fill="#374151"/>
<defs>
<linearGradient id="paint0_linear_6699_4743" x1="34.2402" y1="40.2821" x2="121.552" y2="133.977" gradientUnits="userSpaceOnUse">
<stop stop-color="white"/>
<stop offset="1" stop-color="#F9FAFB" stop-opacity="0"/>
</linearGradient>
<linearGradient id="paint1_linear_6699_4743" x1="34.2402" y1="40.2821" x2="121.552" y2="133.977" gradientUnits="userSpaceOnUse">
<stop stop-color="white"/>
<stop offset="1" stop-color="#F9FAFB" stop-opacity="0"/>
</linearGradient>
<linearGradient id="paint2_linear_6699_4743" x1="34.2402" y1="40.2821" x2="121.552" y2="133.977" gradientUnits="userSpaceOnUse">
<stop stop-color="white"/>
<stop offset="1" stop-color="#F9FAFB" stop-opacity="0"/>
</linearGradient>
<linearGradient id="paint3_linear_6699_4743" x1="34.2402" y1="40.2821" x2="121.552" y2="133.977" gradientUnits="userSpaceOnUse">
<stop stop-color="white"/>
<stop offset="1" stop-color="#F9FAFB" stop-opacity="0"/>
</linearGradient>
<linearGradient id="paint4_linear_6699_4743" x1="1.61007" y1="39.9398" x2="66.9694" y2="92.9467" gradientUnits="userSpaceOnUse">
<stop stop-color="white"/>
<stop offset="1" stop-color="#F9FAFB" stop-opacity="0"/>
</linearGradient>
<linearGradient id="paint5_linear_6699_4743" x1="101.326" y1="39.9398" x2="166.686" y2="92.9467" gradientUnits="userSpaceOnUse">
<stop stop-color="white"/>
<stop offset="1" stop-color="#F9FAFB" stop-opacity="0"/>
</linearGradient>
<linearGradient id="paint6_linear_6699_4743" x1="73.5002" y1="31.1294" x2="73.5002" y2="14.2692" gradientUnits="userSpaceOnUse">
<stop stop-color="#374151"/>
<stop offset="1" stop-color="#374151" stop-opacity="0"/>
</linearGradient>
<linearGradient id="paint7_linear_6699_4743" x1="73.5002" y1="8.24767" x2="73.5002" y2="24.867" gradientUnits="userSpaceOnUse">
<stop stop-color="#374151"/>
<stop offset="1" stop-color="#374151" stop-opacity="0"/>
</linearGradient>
</defs>
</svg>
