<svg width="147" height="113" viewBox="0 0 147 113" fill="none" xmlns="http://www.w3.org/2000/svg">
<path d="M8.34717 25.5897C8.34717 24.7916 8.99419 24.1445 9.79233 24.1445H140.098C140.896 24.1445 141.543 24.7916 141.543 25.5897V110.613C141.543 111.411 140.896 112.059 140.098 112.059H9.79233C8.99419 112.059 8.34717 111.411 8.34717 110.613V25.5897Z" fill="#E1EFFE"/>
<path d="M8.34717 25.5897C8.34717 24.7916 8.99419 24.1445 9.79233 24.1445H140.098C140.896 24.1445 141.543 24.7916 141.543 25.5897V110.613C141.543 111.411 140.896 112.059 140.098 112.059H9.79233C8.99419 112.059 8.34717 111.411 8.34717 110.613V25.5897Z" fill="url(#paint0_linear_6699_4172)"/>
<path d="M8.34717 25.5897C8.34717 24.7916 8.99419 24.1445 9.79233 24.1445H140.098C140.896 24.1445 141.543 24.7916 141.543 25.5897V110.613C141.543 111.411 140.896 112.059 140.098 112.059H9.79233C8.99419 112.059 8.34717 111.411 8.34717 110.613V25.5897Z" fill="url(#paint1_linear_6699_4172)"/>
<path d="M103.969 89.7788L53.1472 38.9573H50.1364L103.969 92.7896V89.7788Z" fill="url(#paint2_linear_6699_4172)" fill-opacity="0.5"/>
<path d="M103.969 62.5616L80.244 38.8369H86.5063L103.969 56.2993V62.5616Z" fill="url(#paint3_linear_6699_4172)" fill-opacity="0.5"/>
<path d="M93.6117 112.058L45.9214 64.3681V73.7616L84.2182 112.058H93.6117Z" fill="url(#paint4_linear_6699_4172)" fill-opacity="0.5"/>
<path d="M68.8031 112.058L45.9214 89.1767V92.5487L65.4311 112.058H68.8031Z" fill="url(#paint5_linear_6699_4172)" fill-opacity="0.5"/>
<path fill-rule="evenodd" clip-rule="evenodd" d="M23.7133 38.8369L41.8267 56.9426V52.1635L28.4945 38.8369H23.7133ZM8.34717 46.5461V44.2484L41.8267 77.7137V80.0113L8.34717 46.5461ZM8.34717 76.3241V69.1553L33.9193 94.7165H26.7475L8.34717 76.3241ZM8.34717 90.6616V88.0882L14.9783 94.7165H12.4038L8.34717 90.6616Z" fill="url(#paint6_linear_6699_4172)" fill-opacity="0.5"/>
<path fill-rule="evenodd" clip-rule="evenodd" d="M139.049 38.8369H134.268L141.543 46.1086V41.3294L139.049 38.8369ZM141.543 66.8796L113.58 38.9288H111.282L141.543 69.1773V66.8796ZM141.543 91.7864L108.063 58.3212V65.49L137.303 94.7165H140.82C141.22 94.7165 141.543 94.393 141.543 93.9939V91.7864ZM125.533 94.7165L108.063 77.2541V79.8275L122.959 94.7165H125.533Z" fill="url(#paint7_linear_6699_4172)" fill-opacity="0.5"/>
<path d="M8.34734 94.7168L41.8269 94.7168L41.8269 74.4845L8.34734 74.4845L8.34734 94.7168Z" fill="#F9FAFB" fill-opacity="0.5"/>
<path d="M108.063 94.7168L141.543 94.7168L141.543 74.4845L108.063 74.4845L108.063 94.7168Z" fill="#F9FAFB" fill-opacity="0.5"/>
<path fill-rule="evenodd" clip-rule="evenodd" d="M108.786 39.0784H141.543V38.5967H108.786C108.254 38.5967 107.823 39.028 107.823 39.5601V93.9945C107.823 94.5266 108.254 94.958 108.786 94.958H141.543V94.4762H108.786C108.52 94.4762 108.304 94.2606 108.304 93.9945V39.5601C108.304 39.2941 108.52 39.0784 108.786 39.0784Z" fill="#C3DDFD"/>
<path fill-rule="evenodd" clip-rule="evenodd" d="M46.6441 39.0784C46.3781 39.0784 46.1624 39.2941 46.1624 39.5601V112.059H45.6807V39.5601C45.6807 39.028 46.112 38.5967 46.6441 38.5967H103.246C103.778 38.5967 104.21 39.028 104.21 39.5601V112.059H103.728V39.5601C103.728 39.2941 103.512 39.0784 103.246 39.0784H46.6441Z" fill="#C3DDFD"/>
<path fill-rule="evenodd" clip-rule="evenodd" d="M74.5837 112.058V38.8369H75.0655V112.058H74.5837Z" fill="#A4CAFE"/>
<path fill-rule="evenodd" clip-rule="evenodd" d="M41.1042 39.0784H8.34717V38.5967H41.1042C41.6362 38.5967 42.0676 39.028 42.0676 39.5601V93.9945C42.0676 94.5266 41.6362 94.958 41.1042 94.958H8.34717V94.4762H41.1042C41.3702 94.4762 41.5859 94.2606 41.5859 93.9945V39.5601C41.5859 39.2941 41.3702 39.0784 41.1042 39.0784Z" fill="#C3DDFD"/>
<path d="M15.3323 57.1422C15.3323 51.8213 19.6457 47.5078 24.9667 47.5078C30.2876 47.5078 34.6011 51.8213 34.6011 57.1422C34.6011 62.4632 30.2876 66.7766 24.9667 66.7766C19.6457 66.7766 15.3323 62.4632 15.3323 57.1422Z" fill="white" fill-opacity="0.6"/>
<path d="M115.048 57.1422C115.048 51.8213 119.362 47.5078 124.683 47.5078C130.004 47.5078 134.317 51.8213 134.317 57.1422C134.317 62.4632 130.004 66.7766 124.683 66.7766C119.362 66.7766 115.048 62.4632 115.048 57.1422Z" fill="white" fill-opacity="0.6"/>
<path fill-rule="evenodd" clip-rule="evenodd" d="M0.880615 28.2391L5.68984 4.63477H141.31L146.119 28.2391C144.756 29.1624 141.09 31.009 137.335 31.009C133.645 31.009 130.892 29.2247 129.923 28.287C128.507 29.2247 124.901 31.009 121.211 31.009C117.521 31.009 114.768 29.2247 113.799 28.287C112.382 29.2247 108.777 31.009 105.087 31.009C101.396 31.009 98.6438 29.2247 97.6749 28.287C96.258 29.2247 92.6528 31.009 88.9624 31.009C85.272 31.009 82.5195 29.2247 81.5507 28.287C80.1337 29.2247 76.5286 31.009 72.8382 31.009C69.1477 31.009 66.3952 29.2247 65.4264 28.287C64.0095 29.2247 60.4043 31.009 56.7139 31.009C53.0235 31.009 50.271 29.2247 49.3021 28.287C47.8852 29.2247 44.28 31.009 40.5896 31.009C36.8992 31.009 34.1467 29.2247 33.1779 28.287C31.7609 29.2247 28.1558 31.009 24.4654 31.009C20.7749 31.009 18.0224 29.2247 17.0536 28.287C15.6367 29.2247 12.0315 31.009 8.3411 31.009C4.58679 31.009 1.80315 29.1624 0.880615 28.2391Z" fill="#E1EFFE"/>
<path fill-rule="evenodd" clip-rule="evenodd" d="M0.880615 28.2391L5.68984 4.63477H141.31L146.119 28.2391C144.756 29.1624 141.09 31.009 137.335 31.009C133.645 31.009 130.892 29.2247 129.923 28.287C128.507 29.2247 124.901 31.009 121.211 31.009C117.521 31.009 114.768 29.2247 113.799 28.287C112.382 29.2247 108.777 31.009 105.087 31.009C101.396 31.009 98.6438 29.2247 97.6749 28.287C96.258 29.2247 92.6528 31.009 88.9624 31.009C85.272 31.009 82.5195 29.2247 81.5507 28.287C80.1337 29.2247 76.5286 31.009 72.8382 31.009C69.1477 31.009 66.3952 29.2247 65.4264 28.287C64.0095 29.2247 60.4043 31.009 56.7139 31.009C53.0235 31.009 50.271 29.2247 49.3021 28.287C47.8852 29.2247 44.28 31.009 40.5896 31.009C36.8992 31.009 34.1467 29.2247 33.1779 28.287C31.7609 29.2247 28.1558 31.009 24.4654 31.009C20.7749 31.009 18.0224 29.2247 17.0536 28.287C15.6367 29.2247 12.0315 31.009 8.3411 31.009C4.58679 31.009 1.80315 29.1624 0.880615 28.2391Z" fill="url(#paint8_linear_6699_4172)"/>
<path fill-rule="evenodd" clip-rule="evenodd" d="M0.880615 28.2391L5.68984 4.63477H141.31L146.119 28.2391C144.756 29.1624 141.09 31.009 137.335 31.009C133.645 31.009 130.892 29.2247 129.923 28.287C128.507 29.2247 124.901 31.009 121.211 31.009C117.521 31.009 114.768 29.2247 113.799 28.287C112.382 29.2247 108.777 31.009 105.087 31.009C101.396 31.009 98.6438 29.2247 97.6749 28.287C96.258 29.2247 92.6528 31.009 88.9624 31.009C85.272 31.009 82.5195 29.2247 81.5507 28.287C80.1337 29.2247 76.5286 31.009 72.8382 31.009C69.1477 31.009 66.3952 29.2247 65.4264 28.287C64.0095 29.2247 60.4043 31.009 56.7139 31.009C53.0235 31.009 50.271 29.2247 49.3021 28.287C47.8852 29.2247 44.28 31.009 40.5896 31.009C36.8992 31.009 34.1467 29.2247 33.1779 28.287C31.7609 29.2247 28.1558 31.009 24.4654 31.009C20.7749 31.009 18.0224 29.2247 17.0536 28.287C15.6367 29.2247 12.0315 31.009 8.3411 31.009C4.58679 31.009 1.80315 29.1624 0.880615 28.2391Z" fill="url(#paint9_linear_6699_4172)"/>
<path fill-rule="evenodd" clip-rule="evenodd" d="M145.879 27.2757H1.12158V26.7939H145.879V27.2757Z" fill="#E1EFFE"/>
<path fill-rule="evenodd" clip-rule="evenodd" d="M127.813 4.84941L130.221 26.7677L129.742 26.8203L127.334 4.90203L127.813 4.84941Z" fill="#E1EFFE"/>
<path fill-rule="evenodd" clip-rule="evenodd" d="M112.157 4.85496L114.084 26.7732L113.604 26.8154L111.677 4.89715L112.157 4.85496Z" fill="#E1EFFE"/>
<path fill-rule="evenodd" clip-rule="evenodd" d="M19.4284 4.84941L17.0198 26.7677L17.4986 26.8203L19.9072 4.90203L19.4284 4.84941Z" fill="#E1EFFE"/>
<path fill-rule="evenodd" clip-rule="evenodd" d="M35.0836 4.85496L33.1567 26.7732L33.6366 26.8154L35.5635 4.89715L35.0836 4.85496Z" fill="#E1EFFE"/>
<path fill-rule="evenodd" clip-rule="evenodd" d="M50.7393 4.8596L49.2941 26.7779L49.7748 26.8096L51.22 4.89129L50.7393 4.8596Z" fill="#E1EFFE"/>
<path fill-rule="evenodd" clip-rule="evenodd" d="M66.1538 4.86761L65.4312 26.7859L65.9127 26.8018L66.6353 4.88348L66.1538 4.86761Z" fill="#E1EFFE"/>
<path fill-rule="evenodd" clip-rule="evenodd" d="M96.5017 4.8596L97.9468 26.7779L97.4662 26.8096L96.021 4.89129L96.5017 4.8596Z" fill="#E1EFFE"/>
<path fill-rule="evenodd" clip-rule="evenodd" d="M81.0869 4.86761L81.8095 26.7859L81.328 26.8018L80.6055 4.88348L81.0869 4.86761Z" fill="#E1EFFE"/>
<path d="M5.69775 0.781174C5.69775 0.382104 6.02126 0.0585938 6.42033 0.0585938H140.579C140.979 0.0585938 141.302 0.382104 141.302 0.781174V4.63494H5.69775V0.781174Z" fill="#E1EFFE"/>
<path d="M9.31078 2.34692C9.31078 2.8125 8.93335 3.18993 8.46777 3.18993C8.00218 3.18993 7.62476 2.8125 7.62476 2.34692C7.62476 1.88134 8.00218 1.50391 8.46777 1.50391C8.93335 1.50391 9.31078 1.88134 9.31078 2.34692Z" fill="#A4CAFE"/>
<path d="M11.7192 2.34692C11.7192 2.8125 11.3418 3.18993 10.8762 3.18993C10.4106 3.18993 10.0332 2.8125 10.0332 2.34692C10.0332 1.88134 10.4106 1.50391 10.8762 1.50391C11.3418 1.50391 11.7192 1.88134 11.7192 2.34692Z" fill="#1C64F2"/>
<path d="M14.1279 2.34692C14.1279 2.8125 13.7505 3.18993 13.2849 3.18993C12.8193 3.18993 12.4419 2.8125 12.4419 2.34692C12.4419 1.88134 12.8193 1.50391 13.2849 1.50391C13.7505 1.50391 14.1279 1.88134 14.1279 2.34692Z" fill="#A4CAFE"/>
<defs>
<linearGradient id="paint0_linear_6699_4172" x1="74.945" y1="121.841" x2="74.945" y2="40.279" gradientUnits="userSpaceOnUse">
<stop stop-color="#F9FAFB"/>
<stop offset="1" stop-color="#F9FAFB" stop-opacity="0"/>
</linearGradient>
<linearGradient id="paint1_linear_6699_4172" x1="107.572" y1="-87.2725" x2="107.572" y2="87.4121" gradientUnits="userSpaceOnUse">
<stop stop-color="#76A9FA"/>
<stop offset="0.830726" stop-color="#76A9FA" stop-opacity="0"/>
</linearGradient>
<linearGradient id="paint2_linear_6699_4172" x1="34.2397" y1="40.2821" x2="121.551" y2="133.977" gradientUnits="userSpaceOnUse">
<stop stop-color="white"/>
<stop offset="1" stop-color="#F9FAFB" stop-opacity="0"/>
</linearGradient>
<linearGradient id="paint3_linear_6699_4172" x1="34.2397" y1="40.2821" x2="121.551" y2="133.977" gradientUnits="userSpaceOnUse">
<stop stop-color="white"/>
<stop offset="1" stop-color="#F9FAFB" stop-opacity="0"/>
</linearGradient>
<linearGradient id="paint4_linear_6699_4172" x1="34.2397" y1="40.2821" x2="121.551" y2="133.977" gradientUnits="userSpaceOnUse">
<stop stop-color="white"/>
<stop offset="1" stop-color="#F9FAFB" stop-opacity="0"/>
</linearGradient>
<linearGradient id="paint5_linear_6699_4172" x1="34.2397" y1="40.2821" x2="121.551" y2="133.977" gradientUnits="userSpaceOnUse">
<stop stop-color="white"/>
<stop offset="1" stop-color="#F9FAFB" stop-opacity="0"/>
</linearGradient>
<linearGradient id="paint6_linear_6699_4172" x1="1.60958" y1="39.9398" x2="66.9689" y2="92.9467" gradientUnits="userSpaceOnUse">
<stop stop-color="white"/>
<stop offset="1" stop-color="#F9FAFB" stop-opacity="0"/>
</linearGradient>
<linearGradient id="paint7_linear_6699_4172" x1="101.326" y1="39.9398" x2="166.685" y2="92.9467" gradientUnits="userSpaceOnUse">
<stop stop-color="white"/>
<stop offset="1" stop-color="#F9FAFB" stop-opacity="0"/>
</linearGradient>
<linearGradient id="paint8_linear_6699_4172" x1="73.5" y1="31.1294" x2="73.5" y2="14.2692" gradientUnits="userSpaceOnUse">
<stop stop-color="#F9FAFB"/>
<stop offset="1" stop-color="#F9FAFB" stop-opacity="0"/>
</linearGradient>
<linearGradient id="paint9_linear_6699_4172" x1="73.5" y1="8.24767" x2="73.5" y2="24.867" gradientUnits="userSpaceOnUse">
<stop stop-color="#F9FAFB"/>
<stop offset="1" stop-color="#F9FAFB" stop-opacity="0"/>
</linearGradient>
</defs>
</svg>
