<svg width="394" height="707" viewBox="0 0 394 707" fill="none" xmlns="http://www.w3.org/2000/svg">
<path d="M3.5 28.5L205.5 12.5L320 4L388.5 25.5V681L316.5 703L197.5 689L3.5 672V28.5Z" fill="#C5C6C8"/>
<path fill-rule="evenodd" clip-rule="evenodd" d="M159.375 62.5C82.1612 62.5 18.75 136.164 18.75 228.125C18.75 320.086 82.1612 393.75 159.375 393.75C236.589 393.75 300 320.086 300 228.125C300 136.164 236.589 62.5 159.375 62.5ZM12.5 228.125C12.5 133.69 77.8069 56.25 159.375 56.25C240.943 56.25 306.25 133.69 306.25 228.125C306.25 322.56 240.943 400 159.375 400C77.8069 400 12.5 322.56 12.5 228.125Z" fill="#EDEEF0"/>
<path fill-rule="evenodd" clip-rule="evenodd" d="M320.083 0.565448C320.917 -0.0193648 321.985 -0.160177 322.943 0.188198L391.693 25.1881C392.928 25.6375 393.75 26.8106 393.75 28.125V678.125C393.75 679.438 392.928 680.613 391.693 681.063L322.943 706.063C321.985 706.413 320.917 706.269 320.083 705.688C319.248 705.1 318.75 704.144 318.75 703.125V3.12501C318.75 2.10564 319.248 1.15026 320.083 0.565448ZM325 7.58657V698.663L387.5 675.938V30.3138L325 7.58657Z" fill="#EDEEF0"/>
<path fill-rule="evenodd" clip-rule="evenodd" d="M323.997 0.830576C324.636 1.42208 325 2.25376 325 3.12501V703.125C325 704.006 324.628 704.85 323.974 705.438C323.321 706.031 322.448 706.319 321.57 706.237L2.81999 674.987C1.21999 674.831 0 673.481 0 671.875V28.125C0 26.4938 1.25437 25.1369 2.88062 25.0094L321.631 0.00957564C322.499 -0.0585494 323.357 0.239076 323.997 0.830576ZM6.25 31.0144V669.044L318.75 699.681V6.5047L6.25 31.0144Z" fill="#EDEEF0"/>
<path fill-rule="evenodd" clip-rule="evenodd" d="M339.001 51.9338C338.129 53.6769 337.5 56.3031 337.5 59.375C337.5 62.4469 338.129 65.0731 339.001 66.8163C339.436 67.6869 339.874 68.2219 340.211 68.5069C340.372 68.6431 340.488 68.7038 340.549 68.7288C340.579 68.7413 340.608 68.7481 340.608 68.7481L340.625 68.75L340.642 68.7481C340.642 68.7481 340.671 68.7413 340.701 68.7288C340.762 68.7038 340.878 68.6431 341.039 68.5069C341.376 68.2219 341.814 67.6869 342.249 66.8163C343.121 65.0731 343.75 62.4469 343.75 59.375C343.75 56.3031 343.121 53.6769 342.249 51.9338C341.814 51.0631 341.376 50.5281 341.039 50.2431C340.878 50.1069 340.762 50.0463 340.701 50.0213C340.671 50.0088 340.642 50.0019 340.642 50.0019L340.625 50L340.608 50.0019C340.608 50.0019 340.579 50.0088 340.549 50.0213C340.488 50.0463 340.372 50.1069 340.211 50.2431C339.874 50.5281 339.436 51.0631 339.001 51.9338ZM333.411 49.1388C334.708 46.5444 337.078 43.75 340.625 43.75C344.172 43.75 346.542 46.5444 347.839 49.1388C349.23 51.92 350 55.5431 350 59.375C350 63.2069 349.23 66.83 347.839 69.6113C346.542 72.2056 344.172 75 340.625 75C337.078 75 334.708 72.2056 333.411 69.6113C332.02 66.83 331.25 63.2069 331.25 59.375C331.25 55.5431 332.02 51.92 333.411 49.1388Z" fill="#EDEEF0"/>
<path fill-rule="evenodd" clip-rule="evenodd" d="M371.875 612.5C373.601 612.5 375 613.9 375 615.625V653.125C375 654.85 373.601 656.25 371.875 656.25C370.149 656.25 368.75 654.85 368.75 653.125V615.625C368.75 613.9 370.149 612.5 371.875 612.5Z" fill="#EDEEF0"/>
<path fill-rule="evenodd" clip-rule="evenodd" d="M371.875 575C373.601 575 375 576.399 375 578.125V590.625C375 592.35 373.601 593.75 371.875 593.75C370.149 593.75 368.75 592.35 368.75 590.625V578.125C368.75 576.399 370.149 575 371.875 575Z" fill="#EDEEF0"/>
</svg>
