<svg width="32" height="23" viewBox="0 0 32 23" fill="none" xmlns="http://www.w3.org/2000/svg">
<path d="M13.317 2.44218C14.3499 1.36773 15.7851 0.700735 17.376 0.700735C19.4886 0.700735 21.3312 1.879 22.3122 3.62823C23.1899 3.23554 24.1407 3.033 25.1022 3.03391C28.9121 3.03391 32.0005 6.15086 32.0005 9.9919C32.0005 13.8355 28.9121 16.9525 25.1022 16.9525C24.6376 16.9525 24.1835 16.9058 23.7423 16.8175C22.878 18.3591 21.23 19.3998 19.3406 19.3998C18.5491 19.3998 17.8016 19.2182 17.1346 18.8912C16.2574 20.9518 14.2175 22.3974 11.8376 22.3974C9.35913 22.3974 7.24915 20.8299 6.43942 18.6316C6.08646 18.7069 5.71793 18.7458 5.34161 18.7458C2.39076 18.7458 0.000488281 16.3296 0.000488281 13.3502C0.000488281 11.3518 1.07494 9.60779 2.67105 8.67608C2.33227 7.89743 2.1582 7.05712 2.15977 6.20796C2.15977 2.77957 4.94193 5.24763e-06 8.37551 5.24763e-06C10.3895 -0.00259005 12.1828 0.95767 13.317 2.44218" fill="#6B7280"/>
<path d="M4.54898 11.8807C4.52821 11.9326 4.55676 11.943 4.56195 11.9534C4.62164 11.9975 4.68393 12.0287 4.74362 12.065C5.07063 12.2389 5.37688 12.2882 5.70129 12.2882C6.3579 12.2882 6.76536 11.9378 6.76536 11.3772V11.3669C6.76536 10.8478 6.30599 10.6583 5.87258 10.5234L5.81548 10.5052C5.49107 10.3988 5.20818 10.308 5.20818 10.0952V10.0848C5.20818 9.90052 5.37168 9.76557 5.62602 9.76557C5.90891 9.76557 6.2437 9.859 6.45911 9.97838C6.45911 9.97838 6.5214 10.0199 6.54476 9.95762C6.55773 9.92388 6.66674 9.63061 6.67712 9.59947C6.6901 9.56573 6.66674 9.53978 6.64597 9.5268C6.39942 9.37627 6.05944 9.27506 5.70648 9.27506H5.6416C5.04208 9.27506 4.62164 9.6384 4.62164 10.1575V10.1678C4.62164 10.7154 5.08361 10.8945 5.51702 11.0191L5.58709 11.0399C5.90372 11.1359 6.17623 11.2215 6.17623 11.4421V11.4525C6.17623 11.6549 5.99975 11.8081 5.71426 11.8081C5.60267 11.8081 5.24971 11.8055 4.8682 11.5641C4.82148 11.5382 4.79553 11.5174 4.75919 11.4966C4.74103 11.4837 4.69431 11.4655 4.67355 11.5252L4.54898 11.8807V11.8807ZM14.1594 11.8807C14.1386 11.9326 14.1671 11.943 14.1723 11.9534C14.232 11.9975 14.2943 12.0287 14.354 12.065C14.681 12.2389 14.9873 12.2882 15.3117 12.2882C15.9683 12.2882 16.3757 11.9378 16.3757 11.3772V11.3669C16.3757 10.8478 15.9164 10.6583 15.483 10.5234L15.4259 10.5052C15.1014 10.3988 14.8186 10.308 14.8186 10.0952V10.0848C14.8186 9.90052 14.9821 9.76557 15.2364 9.76557C15.5193 9.76557 15.8541 9.859 16.0695 9.97838C16.0695 9.97838 16.1318 10.0199 16.1551 9.95762C16.1681 9.92388 16.2771 9.63061 16.2875 9.59947C16.3005 9.56573 16.2771 9.53978 16.2564 9.5268C16.0098 9.37627 15.6698 9.27506 15.3169 9.27506H15.252C14.6525 9.27506 14.232 9.6384 14.232 10.1575V10.1678C14.232 10.7154 14.694 10.8945 15.1274 11.0191L15.1975 11.0399C15.5141 11.1359 15.7866 11.2215 15.7866 11.4421V11.4525C15.7866 11.6549 15.6101 11.8081 15.3246 11.8081C15.213 11.8081 14.8601 11.8055 14.4786 11.5641C14.4319 11.5382 14.4059 11.5174 14.3696 11.4966C14.3566 11.4888 14.3021 11.4681 14.2839 11.5252L14.1594 11.8807V11.8807ZM20.7177 10.7803C20.7177 11.097 20.658 11.3487 20.5412 11.5252C20.427 11.6991 20.2505 11.7847 20.0092 11.7847C19.7652 11.7847 19.5913 11.6991 19.4771 11.5252C19.3629 11.3487 19.3032 11.097 19.3032 10.7803C19.3032 10.4637 19.3603 10.2146 19.4771 10.0381C19.5913 9.86419 19.7652 9.78114 20.0092 9.78114C20.2531 9.78114 20.427 9.86419 20.5438 10.0381C20.658 10.212 20.7177 10.4611 20.7177 10.7803ZM21.2653 10.1912C21.2108 10.0095 21.1277 9.84862 21.0161 9.71626C20.902 9.57935 20.7582 9.4702 20.5957 9.39703C20.4296 9.31918 20.2298 9.28025 20.0092 9.28025C19.786 9.28025 19.5887 9.31918 19.4226 9.39703C19.2539 9.47489 19.1138 9.5839 19.0022 9.71626C18.8906 9.85121 18.8075 10.0095 18.753 10.1912C18.6985 10.3729 18.6726 10.5701 18.6726 10.7803C18.6726 10.9905 18.6985 11.1878 18.753 11.3695C18.8075 11.5511 18.8906 11.712 19.0022 11.8444C19.1138 11.9794 19.2565 12.0858 19.4226 12.161C19.5913 12.2363 19.7886 12.2752 20.0092 12.2752C20.2323 12.2752 20.4296 12.2363 20.5957 12.161C20.7618 12.0858 20.9045 11.9768 21.0161 11.8444C21.1277 11.712 21.2108 11.5511 21.2653 11.3695C21.3198 11.1878 21.3457 10.9905 21.3457 10.7803C21.3457 10.5701 21.3198 10.3703 21.2653 10.1912ZM25.7655 11.6991C25.7474 11.6446 25.6954 11.6653 25.6954 11.6653C25.615 11.6965 25.5319 11.725 25.4411 11.738C25.3503 11.751 25.2491 11.7588 25.1401 11.7588C24.8753 11.7588 24.6651 11.6809 24.512 11.5252C24.3615 11.3695 24.2758 11.1177 24.2758 10.7751C24.2758 10.4637 24.3511 10.2301 24.486 10.0536C24.6184 9.87717 24.8234 9.78633 25.0933 9.78633C25.3191 9.78633 25.493 9.81228 25.6721 9.86938C25.6721 9.86938 25.7162 9.88755 25.737 9.83045C25.7837 9.69809 25.82 9.60206 25.8719 9.45673C25.8875 9.4152 25.8512 9.39703 25.8382 9.39184C25.7681 9.3633 25.5994 9.31918 25.4723 9.30101C25.3529 9.28284 25.2153 9.27246 25.0622 9.27246C24.8312 9.27246 24.6262 9.31139 24.4523 9.38925C24.2784 9.46711 24.1279 9.57352 24.0111 9.70847C23.8912 9.84737 23.8003 10.0089 23.7438 10.1834C23.6841 10.3651 23.6555 10.5623 23.6555 10.7725C23.6555 11.2267 23.7775 11.5953 24.0215 11.8626C24.2628 12.1325 24.6288 12.27 25.1037 12.27C25.384 12.27 25.6721 12.2129 25.8797 12.1325C25.8797 12.1325 25.9186 12.1143 25.9031 12.0676L25.7655 11.6991V11.6991ZM26.7258 10.4741C26.7517 10.2976 26.801 10.1497 26.8763 10.0355C26.9905 9.86159 27.1618 9.76557 27.4057 9.76557C27.6497 9.76557 27.8106 9.86159 27.9248 10.0355C28.0027 10.1497 28.0338 10.3028 28.0468 10.4741H26.7258ZM28.5684 10.0874C28.5217 9.9109 28.4075 9.73442 28.3297 9.65397C28.2103 9.5242 28.0935 9.43596 27.9767 9.38665C27.8084 9.31553 27.6274 9.27933 27.4447 9.28025C27.2137 9.28025 27.0035 9.31918 26.8322 9.39963C26.6609 9.48008 26.5182 9.58909 26.404 9.72664C26.2924 9.86159 26.2067 10.0251 26.1522 10.2068C26.0977 10.3884 26.0718 10.5883 26.0718 10.7985C26.0718 11.0113 26.1003 11.2111 26.1548 11.3902C26.2119 11.5719 26.3027 11.7302 26.4247 11.8626C26.5467 11.9949 26.7024 12.0987 26.8919 12.1714C27.0787 12.2441 27.3045 12.2804 27.5641 12.2804C28.0987 12.2778 28.3816 12.1584 28.4984 12.0961C28.5191 12.0858 28.5373 12.065 28.5139 12.0079L28.392 11.6679C28.3738 11.6186 28.3219 11.6368 28.3219 11.6368C28.1895 11.6861 28.0001 11.7743 27.5615 11.7743C27.2734 11.7743 27.0606 11.6887 26.9282 11.5563C26.7907 11.4214 26.7232 11.2215 26.7128 10.9386L28.5684 10.9412C28.5684 10.9412 28.6178 10.9412 28.6229 10.8919C28.6255 10.866 28.6878 10.5052 28.5684 10.0874V10.0874ZM11.8703 10.4741C11.8963 10.2976 11.9456 10.1497 12.0208 10.0355C12.135 9.86159 12.3063 9.76557 12.5503 9.76557C12.7942 9.76557 12.9551 9.86159 13.0693 10.0355C13.1446 10.1497 13.1783 10.3028 13.1913 10.4741H11.8703V10.4741ZM13.7156 10.0874C13.6688 9.9109 13.5547 9.73442 13.4794 9.65397C13.36 9.5242 13.2432 9.43596 13.1264 9.38665C12.9581 9.31553 12.7771 9.27933 12.5944 9.28025C12.3634 9.28025 12.1532 9.31918 11.9819 9.39963C11.8106 9.48008 11.6679 9.58909 11.5537 9.72664C11.4421 9.86159 11.3564 10.0251 11.3019 10.2068C11.2474 10.3884 11.2215 10.5883 11.2215 10.7985C11.2215 11.0113 11.25 11.2111 11.3045 11.3902C11.3616 11.5719 11.4525 11.7302 11.5744 11.8626C11.6964 11.9949 11.8521 12.0987 12.0416 12.1714C12.2285 12.2441 12.4542 12.2804 12.7138 12.2804C13.2484 12.2778 13.5313 12.1584 13.6481 12.0961C13.6688 12.0858 13.687 12.065 13.6637 12.0079L13.5417 11.6679C13.5235 11.6186 13.4716 11.6368 13.4716 11.6368C13.3392 11.6861 13.1498 11.7743 12.7112 11.7743C12.4231 11.7743 12.2103 11.6887 12.0779 11.5563C11.9404 11.4214 11.8729 11.2215 11.8625 10.9386L13.7182 10.9412C13.7182 10.9412 13.7675 10.9412 13.7727 10.8919C13.7727 10.866 13.8349 10.5052 13.7156 10.0874V10.0874ZM7.86057 11.6887C7.78791 11.6316 7.77752 11.616 7.75417 11.5797C7.71783 11.5226 7.69967 11.4421 7.69967 11.3383C7.69967 11.1748 7.75417 11.058 7.86576 10.9802C7.86317 10.9802 8.02408 10.84 8.40299 10.8452C8.66771 10.8478 8.90648 10.8893 8.90648 10.8893V11.7328C8.90648 11.7328 8.67031 11.7821 8.40559 11.8003C8.02667 11.821 7.86057 11.6887 7.86057 11.6887V11.6887ZM8.60023 10.3858C8.52497 10.3807 8.42635 10.3781 8.30956 10.3781C8.15125 10.3781 7.99812 10.3988 7.85279 10.4377C7.70745 10.4767 7.57769 10.5364 7.46609 10.6168C7.35449 10.6973 7.26366 10.8011 7.19618 10.9231C7.1313 11.045 7.09756 11.1904 7.09756 11.3513C7.09756 11.5148 7.1261 11.6575 7.1832 11.7743C7.2403 11.8911 7.32075 11.9897 7.42456 12.065C7.52838 12.1403 7.65554 12.1948 7.80348 12.2285C7.94881 12.2622 8.11491 12.2778 8.29399 12.2778C8.48345 12.2778 8.6729 12.2622 8.85717 12.2311C9.03884 12.2 9.26203 12.1558 9.32432 12.1403C9.38661 12.1247 9.45409 12.1065 9.45409 12.1065C9.5008 12.0961 9.49561 12.0468 9.49561 12.0468V10.3495C9.49561 9.97838 9.39699 9.70068 9.19975 9.53199C9.0051 9.3607 8.71962 9.27506 8.34849 9.27506C8.20834 9.27506 7.98515 9.29322 7.85279 9.32177C7.85279 9.32177 7.44792 9.39963 7.28182 9.5294C7.28182 9.5294 7.24549 9.55275 7.26625 9.60206L7.39861 9.95502C7.41418 10.0017 7.4583 9.98617 7.4583 9.98617C7.4583 9.98617 7.47128 9.98098 7.48945 9.9706C7.8476 9.77595 8.29658 9.78114 8.29658 9.78114C8.49642 9.78114 8.65214 9.82007 8.75595 9.90052C8.85717 9.97838 8.90907 10.0952 8.90907 10.3417V10.4196C8.74557 10.3988 8.60023 10.3858 8.60023 10.3858V10.3858ZM23.5595 9.43077C23.5646 9.41803 23.5644 9.40381 23.5591 9.39118C23.5537 9.37855 23.5436 9.36854 23.531 9.3633C23.4998 9.35032 23.3415 9.31658 23.2195 9.30879C22.986 9.29582 22.8562 9.33475 22.742 9.38665C22.6278 9.43856 22.5006 9.52161 22.428 9.61764V9.39184C22.428 9.3607 22.4046 9.33475 22.3735 9.33475H21.8985C21.8674 9.33475 21.844 9.3607 21.844 9.39184V12.1584C21.844 12.1896 21.87 12.2155 21.9011 12.2155H22.389C22.4202 12.2155 22.4461 12.1896 22.4461 12.1584V10.7751C22.4461 10.5909 22.4669 10.404 22.5084 10.2872C22.5474 10.173 22.6045 10.0796 22.6719 10.0147C22.7394 9.94983 22.8173 9.90312 22.9003 9.87717C22.986 9.85121 23.082 9.84083 23.1495 9.84083C23.2455 9.84083 23.3545 9.86678 23.3545 9.86678C23.3908 9.87197 23.409 9.84862 23.422 9.81747C23.4505 9.73442 23.5414 9.48008 23.5595 9.43077" fill="white"/>
<path d="M18.9916 8.1492C18.9319 8.13103 18.8774 8.11806 18.8073 8.10508C18.7373 8.0921 18.6516 8.08691 18.5556 8.08691C18.2208 8.08691 17.9561 8.18294 17.7692 8.3698C17.585 8.55666 17.4604 8.83955 17.3955 9.21068L17.3721 9.33525H16.9517C16.9517 9.33525 16.8998 9.33266 16.8894 9.38975L16.8193 9.77645C16.8142 9.81279 16.8297 9.83614 16.879 9.83614H17.2891L16.8739 12.1563C16.8427 12.3432 16.8038 12.4963 16.7623 12.6131C16.7207 12.7273 16.6818 12.8129 16.6325 12.8778C16.5858 12.9375 16.5417 12.9816 16.4638 13.0076C16.3989 13.0284 16.3262 13.0387 16.2458 13.0387C16.2017 13.0387 16.142 13.031 16.0979 13.0232C16.0537 13.0154 16.0304 13.005 15.9966 12.992C15.9966 12.992 15.9499 12.9739 15.9292 13.0206C15.9136 13.0595 15.8046 13.3606 15.7916 13.3969C15.7786 13.4332 15.7968 13.4618 15.8202 13.4722C15.8747 13.4903 15.9162 13.5033 15.9889 13.5215C16.0927 13.5448 16.1783 13.5474 16.2614 13.5474C16.4327 13.5474 16.5884 13.5241 16.7155 13.4773C16.8453 13.4306 16.9569 13.3476 17.0581 13.2386C17.1671 13.1192 17.2346 12.9946 17.2995 12.8233C17.3644 12.6546 17.4189 12.4444 17.463 12.2005L17.8808 9.83614H18.4907C18.4907 9.83614 18.5426 9.83874 18.553 9.78164L18.6231 9.39494C18.6283 9.35861 18.6127 9.33525 18.5634 9.33525H17.9691C17.9717 9.32228 18.0002 9.11206 18.0677 8.91741C18.0962 8.83436 18.1507 8.76688 18.1975 8.72017C18.2442 8.67345 18.2961 8.64231 18.3532 8.62414C18.4129 8.60597 18.4777 8.59559 18.553 8.59559C18.6075 8.59559 18.6646 8.60078 18.7061 8.61116C18.7632 8.62414 18.7866 8.62933 18.8022 8.63452C18.8618 8.65269 18.8722 8.63452 18.8826 8.60597L19.0254 8.21668C19.0409 8.17256 19.0046 8.15439 18.9916 8.1492V8.1492ZM10.7074 12.1589C10.7074 12.1901 10.6841 12.216 10.6529 12.216H10.1598C10.1287 12.216 10.1079 12.1901 10.1079 12.1589V8.20111C10.1079 8.16996 10.1287 8.14401 10.1598 8.14401H10.6529C10.6841 8.14401 10.7074 8.16996 10.7074 8.20111V12.1589Z" fill="white"/>
</svg>
