<svg width="104" height="48" viewBox="0 0 104 48" fill="none" xmlns="http://www.w3.org/2000/svg">
<g clip-path="url(#clip0_107_370751)">
<path fill-rule="evenodd" clip-rule="evenodd" d="M100.744 18.7236L96.6409 14.621H89.019V9.3443H82.5694V33.3796H89.019V21.0682H94.2942V33.3796H100.744V18.7236ZM80.226 14.621H70.2601L66.1563 18.7236V29.2752L70.2601 33.3796H80.226V26.9318H72.6041V21.0682H80.226V14.621V14.621ZM63.8114 14.621H58.5362V9.3443H52.0866V29.2752L56.1904 33.3796H63.8114V26.9318H58.5362V21.0682H63.8114V14.621V14.621ZM49.7417 9.3443H43.2939V12.2764H49.7417V9.3443ZM49.7417 14.621H43.2939V33.3793H49.7417V14.621V14.621ZM40.949 14.621H34.5006V26.9318H32.1563V14.621H25.7076V26.9318H23.3636V14.621H16.914V33.3796H36.8461L40.949 29.2752V14.621V14.621ZM14.5691 14.621H9.2936V9.3443H2.8452V29.2752L6.9487 33.3796H14.5691V26.9318H9.2936V21.0682H14.5691V14.621V14.621ZM103.087 17.551V35.1373L94.2942 41H88.4324V38.0679L84.3289 41H79.0537V38.0679L76.1234 41H66.7435L63.8114 38.0679L63.2245 41H55.0187L51.663 38.0679L51.475 41H42.1739L41.845 38.0679L39.3272 41H25.1207L22.1892 39.8274V41H14.5691L5.7755 35.7227L0.5 30.4493V7H11.6388L16.914 12.2764H40.949V7H60.8802V12.2764H66.1563V15.2067L69.0884 12.2764H74.9493L80.226 7H91.3639V12.2764H97.8126L103.087 17.551Z" fill="#6441A5"/>
</g>
<defs>
<clipPath id="clip0_107_370751">
<rect width="103" height="48" fill="white" transform="translate(0.5)"/>
</clipPath>
</defs>
</svg>
