<svg width="536" height="340" viewBox="0 0 536 340" fill="none" xmlns="http://www.w3.org/2000/svg">
<rect width="536" height="340" fill="#111928"/>
<path d="M225.879 129.929V124.172L238.393 104.455H243.509V112.27H240.54L233.217 123.874V124.112H251.339V129.929H225.879ZM240.63 135V128.169L240.779 125.648V104.455H247.685V135H240.63ZM267.842 135.746C265.177 135.746 262.88 135.114 260.951 133.852C259.022 132.579 257.536 130.754 256.492 128.378C255.448 125.991 254.931 123.123 254.941 119.772C254.951 116.421 255.473 113.577 256.507 111.241C257.551 108.894 259.032 107.109 260.951 105.886C262.88 104.653 265.177 104.037 267.842 104.037C270.507 104.037 272.804 104.653 274.733 105.886C276.672 107.109 278.163 108.894 279.207 111.241C280.251 113.587 280.768 116.431 280.758 119.772C280.758 123.133 280.236 126.006 279.192 128.393C278.148 130.779 276.662 132.604 274.733 133.866C272.814 135.119 270.517 135.746 267.842 135.746ZM267.842 129.705C269.433 129.705 270.721 128.895 271.705 127.274C272.689 125.643 273.176 123.143 273.167 119.772C273.167 117.565 272.943 115.745 272.495 114.313C272.048 112.871 271.426 111.798 270.631 111.092C269.836 110.386 268.906 110.033 267.842 110.033C266.261 110.033 264.983 110.833 264.009 112.434C263.034 114.025 262.542 116.471 262.532 119.772C262.522 122.009 262.736 123.864 263.174 125.335C263.621 126.807 264.248 127.906 265.053 128.631C265.858 129.347 266.788 129.705 267.842 129.705ZM284.614 129.929V124.172L297.127 104.455H302.243V112.27H299.275L291.952 123.874V124.112H310.073V129.929H284.614ZM299.364 135V128.169L299.513 125.648V104.455H306.419V135H299.364Z" fill="#6B7280"/>
<rect x="211.5" y="159" width="113" height="10" rx="5" fill="#6B7280"/>
<rect x="162" y="185" width="212" height="8" rx="4" fill="#4B5563"/>
<rect x="196.5" y="199" width="143" height="8" rx="4" fill="#4B5563"/>
<path d="M232.5 224.5C231.119 224.5 230 225.619 230 227V239C230 240.381 231.119 241.5 232.5 241.5H303.5C304.881 241.5 306 240.381 306 239V227C306 225.619 304.881 224.5 303.5 224.5H232.5Z" fill="#1A56DB"/>
<path d="M232.5 224.5C231.119 224.5 230 225.619 230 227V239C230 240.381 231.119 241.5 232.5 241.5H303.5C304.881 241.5 306 240.381 306 239V227C306 225.619 304.881 224.5 303.5 224.5H232.5Z" stroke="#1A56DB"/>
<rect x="246.5" y="231" width="43" height="4" rx="1" fill="white"/>
</svg>
