<svg width="536" height="340" viewBox="0 0 536 340" fill="none" xmlns="http://www.w3.org/2000/svg">
<rect width="536" height="340" fill="white"/>
<path d="M225.879 114.929V109.172L238.393 89.4545H243.509V97.2699H240.54L233.217 108.874V109.112H251.339V114.929H225.879ZM240.63 120V113.169L240.779 110.648V89.4545H247.685V120H240.63ZM267.842 120.746C265.177 120.746 262.88 120.114 260.951 118.852C259.022 117.579 257.536 115.754 256.492 113.378C255.448 110.991 254.931 108.123 254.941 104.772C254.951 101.421 255.473 98.5774 256.507 96.2408C257.551 93.8942 259.032 92.1094 260.951 90.8864C262.88 89.6534 265.177 89.0369 267.842 89.0369C270.507 89.0369 272.804 89.6534 274.733 90.8864C276.672 92.1094 278.163 93.8942 279.207 96.2408C280.251 98.5874 280.768 101.431 280.758 104.772C280.758 108.133 280.236 111.006 279.192 113.393C278.148 115.779 276.662 117.604 274.733 118.866C272.814 120.119 270.517 120.746 267.842 120.746ZM267.842 114.705C269.433 114.705 270.721 113.895 271.705 112.274C272.689 110.643 273.176 108.143 273.167 104.772C273.167 102.565 272.943 100.745 272.495 99.3132C272.048 97.8714 271.426 96.7976 270.631 96.0916C269.836 95.3857 268.906 95.0327 267.842 95.0327C266.261 95.0327 264.983 95.8331 264.009 97.4339C263.034 99.0249 262.542 101.471 262.532 104.772C262.522 107.009 262.736 108.864 263.174 110.335C263.621 111.807 264.248 112.906 265.053 113.631C265.858 114.347 266.788 114.705 267.842 114.705ZM284.614 114.929V109.172L297.127 89.4545H302.243V97.2699H299.275L291.952 108.874V109.112H310.073V114.929H284.614ZM299.364 120V113.169L299.513 110.648V89.4545H306.419V120H299.364Z" fill="#9CA3AF"/>
<rect x="168" y="139" width="200" height="8" rx="4" fill="#D1D5DB"/>
<path d="M297 165V164.5H296.5H167.5C166.119 164.5 165 165.619 165 167V185C165 186.381 166.119 187.5 167.5 187.5H296.5H297V187V165Z" fill="#F9FAFB"/>
<path d="M297 165V164.5H296.5H167.5C166.119 164.5 165 165.619 165 167V185C165 186.381 166.119 187.5 167.5 187.5H296.5H297V187V165Z" stroke="#D1D5DB"/>
<rect x="172.5" y="175" width="56" height="2" rx="1" fill="#D1D5DB"/>
<path d="M296.5 164.5H296V165V187V187.5H296.5H368.5C369.881 187.5 371 186.381 371 185V167C371 165.619 369.881 164.5 368.5 164.5H296.5Z" fill="#1A56DB"/>
<path d="M296.5 164.5H296V165V187V187.5H296.5H368.5C369.881 187.5 371 186.381 371 185V167C371 165.619 369.881 164.5 368.5 164.5H296.5Z" stroke="#1A56DB"/>
<rect x="312.5" y="174" width="42" height="4" rx="1" fill="white"/>
<rect x="48" y="211" width="98" height="45" rx="4" fill="#F3F4F6"/>
<rect x="80.5" y="227" width="33" height="5" rx="2.5" fill="#9CA3AF"/>
<rect x="64" y="236" width="66" height="4" rx="2" fill="#D1D5DB"/>
<rect x="162" y="211" width="98" height="45" rx="4" fill="#F3F4F6"/>
<rect x="194.5" y="227" width="33" height="5" rx="2.5" fill="#9CA3AF"/>
<rect x="182" y="236" width="58" height="4" rx="2" fill="#D1D5DB"/>
<rect x="276" y="211" width="98" height="45" rx="4" fill="#F3F4F6"/>
<rect x="308.5" y="227" width="33" height="5" rx="2.5" fill="#9CA3AF"/>
<rect x="303.5" y="236" width="43" height="4" rx="2" fill="#D1D5DB"/>
<rect x="390" y="211" width="98" height="45" rx="4" fill="#F3F4F6"/>
<rect x="422.5" y="227" width="33" height="5" rx="2.5" fill="#9CA3AF"/>
<rect x="405.5" y="236" width="67" height="4" rx="2" fill="#D1D5DB"/>
</svg>
