<svg width="536" height="340" viewBox="0 0 536 340" fill="none" xmlns="http://www.w3.org/2000/svg">
<rect width="536" height="340" fill="white"/>
<path d="M237.945 142.418C235.718 142.418 233.739 142.015 232.009 141.21C230.279 140.404 228.912 139.295 227.908 137.884C226.913 136.472 226.396 134.851 226.357 133.021H233.516C233.575 134.145 234.033 135.05 234.888 135.736C235.743 136.412 236.762 136.75 237.945 136.75C238.87 136.75 239.69 136.546 240.406 136.138C241.122 135.731 241.684 135.159 242.092 134.423C242.499 133.678 242.698 132.822 242.688 131.858C242.698 130.874 242.494 130.013 242.077 129.278C241.669 128.542 241.102 127.97 240.376 127.562C239.661 127.145 238.835 126.936 237.901 126.936C237.016 126.926 236.175 127.12 235.38 127.518C234.594 127.915 233.998 128.457 233.59 129.143L227.072 127.92L228.4 111.455H247.998V117.406H234.47L233.769 124.609H233.948C234.455 123.764 235.271 123.068 236.394 122.521C237.528 121.964 238.815 121.686 240.257 121.686C242.087 121.686 243.717 122.114 245.149 122.969C246.591 123.814 247.724 124.987 248.55 126.489C249.385 127.99 249.803 129.71 249.803 131.649C249.803 133.747 249.305 135.607 248.311 137.227C247.327 138.848 245.945 140.121 244.165 141.045C242.395 141.96 240.322 142.418 237.945 142.418ZM266.488 142.746C263.824 142.746 261.527 142.114 259.598 140.852C257.669 139.579 256.182 137.754 255.138 135.378C254.094 132.991 253.577 130.123 253.587 126.772C253.597 123.421 254.119 120.577 255.153 118.241C256.197 115.894 257.679 114.109 259.598 112.886C261.527 111.653 263.824 111.037 266.488 111.037C269.153 111.037 271.45 111.653 273.379 112.886C275.318 114.109 276.809 115.894 277.854 118.241C278.898 120.587 279.415 123.431 279.405 126.772C279.405 130.133 278.883 133.006 277.839 135.393C276.795 137.779 275.308 139.604 273.379 140.866C271.46 142.119 269.163 142.746 266.488 142.746ZM266.488 136.705C268.079 136.705 269.367 135.895 270.351 134.274C271.336 132.643 271.823 130.143 271.813 126.772C271.813 124.565 271.589 122.745 271.142 121.313C270.694 119.871 270.073 118.798 269.278 118.092C268.482 117.386 267.552 117.033 266.488 117.033C264.907 117.033 263.63 117.833 262.655 119.434C261.681 121.025 261.189 123.471 261.179 126.772C261.169 129.009 261.383 130.864 261.82 132.335C262.268 133.807 262.894 134.906 263.699 135.631C264.505 136.347 265.434 136.705 266.488 136.705ZM296.266 142.746C293.601 142.746 291.304 142.114 289.375 140.852C287.446 139.579 285.96 137.754 284.916 135.378C283.872 132.991 283.355 130.123 283.365 126.772C283.374 123.421 283.896 120.577 284.931 118.241C285.975 115.894 287.456 114.109 289.375 112.886C291.304 111.653 293.601 111.037 296.266 111.037C298.931 111.037 301.227 111.653 303.156 112.886C305.095 114.109 306.587 115.894 307.631 118.241C308.675 120.587 309.192 123.431 309.182 126.772C309.182 130.133 308.66 133.006 307.616 135.393C306.572 137.779 305.085 139.604 303.156 140.866C301.237 142.119 298.941 142.746 296.266 142.746ZM296.266 136.705C297.857 136.705 299.144 135.895 300.129 134.274C301.113 132.643 301.6 130.143 301.59 126.772C301.59 124.565 301.367 122.745 300.919 121.313C300.472 119.871 299.85 118.798 299.055 118.092C298.259 117.386 297.33 117.033 296.266 117.033C294.685 117.033 293.407 117.833 292.433 119.434C291.458 121.025 290.966 123.471 290.956 126.772C290.946 129.009 291.16 130.864 291.597 132.335C292.045 133.807 292.671 134.906 293.477 135.631C294.282 136.347 295.212 136.705 296.266 136.705Z" fill="#9CA3AF"/>
<rect x="211.5" y="166" width="113" height="10" rx="5" fill="#9CA3AF"/>
<rect x="162" y="192" width="212" height="8" rx="4" fill="#D1D5DB"/>
<path d="M232.5 217.5C231.119 217.5 230 218.619 230 220V232C230 233.381 231.119 234.5 232.5 234.5H303.5C304.881 234.5 306 233.381 306 232V220C306 218.619 304.881 217.5 303.5 217.5H232.5Z" fill="#1A56DB"/>
<path d="M232.5 217.5C231.119 217.5 230 218.619 230 220V232C230 233.381 231.119 234.5 232.5 234.5H303.5C304.881 234.5 306 233.381 306 232V220C306 218.619 304.881 217.5 303.5 217.5H232.5Z" stroke="#1A56DB"/>
<rect x="246.5" y="224" width="43" height="4" rx="1" fill="white"/>
</svg>
