<svg width="536" height="340" viewBox="0 0 536 340" fill="none" xmlns="http://www.w3.org/2000/svg">
<rect width="536" height="340" fill="white"/>
<rect x="128.5" y="64" width="191" height="10" rx="5" fill="#9CA3AF"/>
<path d="M407.5 125.5H128.5V128.5H407.5V125.5Z" fill="#D1D5DB" mask="url(#path-3-inside-1_4888_1875)"/>
<rect x="128.5" y="108.5" width="108" height="4" rx="2" fill="#D1D5DB"/>
<path fill-rule="evenodd" clip-rule="evenodd" d="M394.999 108.199C395.158 108.04 395.375 107.95 395.6 107.95C395.825 107.95 396.041 108.04 396.201 108.199L399 110.998L401.799 108.199C401.877 108.118 401.971 108.053 402.075 108.008C402.179 107.964 402.29 107.94 402.403 107.939C402.516 107.939 402.628 107.96 402.732 108.003C402.837 108.045 402.932 108.109 403.011 108.188C403.091 108.268 403.154 108.363 403.197 108.468C403.24 108.572 403.261 108.684 403.26 108.797C403.259 108.91 403.236 109.021 403.191 109.125C403.147 109.229 403.082 109.322 403.001 109.401L399.601 112.801C399.441 112.96 399.225 113.05 399 113.05C398.775 113.05 398.558 112.96 398.399 112.801L394.999 109.401C394.84 109.241 394.75 109.025 394.75 108.8C394.75 108.575 394.84 108.358 394.999 108.199Z" fill="#9CA3AF"/>
<path d="M407.5 168.5H128.5V171.5H407.5V168.5Z" fill="#D1D5DB" mask="url(#path-7-inside-2_4888_1875)"/>
<rect x="128.5" y="151.5" width="68" height="4" rx="2" fill="#D1D5DB"/>
<path fill-rule="evenodd" clip-rule="evenodd" d="M394.999 151.199C395.158 151.04 395.375 150.95 395.6 150.95C395.825 150.95 396.041 151.04 396.201 151.199L399 153.998L401.799 151.199C401.877 151.118 401.971 151.053 402.075 151.008C402.179 150.964 402.29 150.94 402.403 150.939C402.516 150.939 402.628 150.96 402.732 151.003C402.837 151.045 402.932 151.109 403.011 151.188C403.091 151.268 403.154 151.363 403.197 151.468C403.24 151.572 403.261 151.684 403.26 151.797C403.259 151.91 403.236 152.021 403.191 152.125C403.147 152.229 403.082 152.322 403.001 152.401L399.601 155.801C399.441 155.96 399.225 156.05 399 156.05C398.775 156.05 398.558 155.96 398.399 155.801L394.999 152.401C394.84 152.241 394.75 152.025 394.75 151.8C394.75 151.575 394.84 151.358 394.999 151.199Z" fill="#9CA3AF"/>
<rect x="128.5" y="190" width="82" height="8" rx="4" fill="#9CA3AF"/>
<rect x="128.5" y="214" width="117" height="6" rx="3" fill="#D1D5DB"/>
<rect x="128.5" y="228" width="98" height="6" rx="3" fill="#D1D5DB"/>
<rect x="128.5" y="242" width="153" height="6" rx="3" fill="#D1D5DB"/>
<rect x="128.5" y="256" width="125" height="6" rx="3" fill="#D1D5DB"/>
<rect x="128.5" y="270" width="140" height="6" rx="3" fill="#D1D5DB"/>
</svg>
