<svg width="1112" height="340" viewBox="0 0 1112 340" fill="none" xmlns="http://www.w3.org/2000/svg">
<rect width="536" height="340" fill="#111928"/>
<rect x="48" y="108" width="109" height="10" rx="5" fill="#6B7280"/>
<rect x="48" y="134" width="220" height="8" rx="4" fill="#4B5563"/>
<rect x="48" y="148" width="162" height="8" rx="4" fill="#4B5563"/>
<rect x="48" y="172" width="212" height="8" rx="4" fill="#4B5563"/>
<rect x="48" y="186" width="109" height="8" rx="4" fill="#4B5563"/>
<rect x="48" y="210" width="212" height="8" rx="4" fill="#4B5563"/>
<rect x="48" y="224" width="109" height="8" rx="4" fill="#4B5563"/>
<g filter="url(#filter0_dd_4889_1889)">
<rect x="311" y="74.5" width="177" height="191" rx="5" fill="#1F2A37"/>
<rect x="310.75" y="74.25" width="177.5" height="191.5" rx="5.25" stroke="#374151" stroke-width="0.5"/>
<rect x="335" y="98.5" width="66" height="6" rx="3" fill="#6B7280"/>
<rect x="335" y="120.5" width="51" height="3" rx="1.5" fill="#6B7280"/>
<rect x="334.5" y="131" width="130" height="17" rx="4.5" fill="#4B5563"/>
<rect x="334.5" y="131" width="130" height="17" rx="4.5" stroke="#6B7280"/>
<rect x="342" y="138.5" width="56" height="2" rx="1" fill="#6B7280"/>
<rect x="335" y="157.5" width="31" height="3" rx="1.5" fill="#6B7280"/>
<rect x="334.5" y="168" width="130" height="17" rx="4.5" fill="#4B5563"/>
<rect x="334.5" y="168" width="130" height="17" rx="4.5" stroke="#6B7280"/>
<rect x="342" y="175.5" width="56" height="2" rx="1" fill="#6B7280"/>
<rect x="334.5" y="200" width="6" height="6" rx="1.5" fill="#374151"/>
<rect x="334.5" y="200" width="6" height="6" rx="1.5" stroke="#4B5563"/>
<rect x="345" y="201" width="67" height="4" rx="2" fill="#4B5563"/>
<rect x="335" y="221.5" width="129" height="20" rx="3" fill="#1A56DB"/>
<rect x="374.5" y="229.5" width="50" height="4" rx="1" fill="white"/>
</g>
<rect width="536" height="340" transform="translate(576)" fill="#111928"/>
<g filter="url(#filter1_dd_4889_1889)">
<rect x="624" y="74.5" width="177" height="191" rx="5" fill="#1F2A37"/>
<rect x="623.75" y="74.25" width="177.5" height="191.5" rx="5.25" stroke="#374151" stroke-width="0.5"/>
<rect x="648" y="98.5" width="66" height="6" rx="3" fill="#6B7280"/>
<rect x="648" y="120.5" width="51" height="3" rx="1.5" fill="#6B7280"/>
<rect x="647.5" y="131" width="130" height="17" rx="4.5" fill="#4B5563"/>
<rect x="647.5" y="131" width="130" height="17" rx="4.5" stroke="#6B7280"/>
<rect x="655" y="138.5" width="56" height="2" rx="1" fill="#6B7280"/>
<rect x="648" y="157.5" width="31" height="3" rx="1.5" fill="#6B7280"/>
<rect x="647.5" y="168" width="130" height="17" rx="4.5" fill="#4B5563"/>
<rect x="647.5" y="168" width="130" height="17" rx="4.5" stroke="#6B7280"/>
<rect x="655" y="175.5" width="56" height="2" rx="1" fill="#6B7280"/>
<rect x="647.5" y="200" width="6" height="6" rx="1.5" fill="#374151"/>
<rect x="647.5" y="200" width="6" height="6" rx="1.5" stroke="#4B5563"/>
<rect x="658" y="201" width="67" height="4" rx="2" fill="#4B5563"/>
<rect x="648" y="221.5" width="129" height="20" rx="3" fill="#1A56DB"/>
<rect x="687.5" y="229.5" width="50" height="4" rx="1" fill="white"/>
</g>
<rect x="909" y="92.5" width="155" height="155" rx="77.5" fill="#374151"/>
<path fill-rule="evenodd" clip-rule="evenodd" d="M995.865 163.242C997.613 163.242 999.03 161.758 999.03 159.928C999.03 158.097 997.613 156.613 995.865 156.613C994.117 156.613 992.7 158.097 992.7 159.928C992.7 161.758 994.117 163.242 995.865 163.242ZM987.105 183.314H968.211C967.434 183.314 966.954 182.466 967.353 181.799L980.17 160.433C980.553 159.795 981.469 159.777 981.867 160.405C983.631 163.18 987.775 169.713 991.313 175.365L995.132 168.961C995.499 168.345 996.362 168.325 996.772 168.923L1005.54 181.732C1006 182.402 1005.55 183.319 1004.76 183.327L996.251 183.414L987.105 183.314Z" fill="#6B7280"/>
<defs>
<filter id="filter0_dd_4889_1889" x="307.5" y="72" width="184" height="198" filterUnits="userSpaceOnUse" color-interpolation-filters="sRGB">
<feFlood flood-opacity="0" result="BackgroundImageFix"/>
<feColorMatrix in="SourceAlpha" type="matrix" values="0 0 0 0 0 0 0 0 0 0 0 0 0 0 0 0 0 0 127 0" result="hardAlpha"/>
<feOffset dy="1"/>
<feGaussianBlur stdDeviation="1.5"/>
<feColorMatrix type="matrix" values="0 0 0 0 0 0 0 0 0 0 0 0 0 0 0 0 0 0 0.1 0"/>
<feBlend mode="normal" in2="BackgroundImageFix" result="effect1_dropShadow_4889_1889"/>
<feColorMatrix in="SourceAlpha" type="matrix" values="0 0 0 0 0 0 0 0 0 0 0 0 0 0 0 0 0 0 127 0" result="hardAlpha"/>
<feOffset dy="1"/>
<feGaussianBlur stdDeviation="1"/>
<feColorMatrix type="matrix" values="0 0 0 0 0 0 0 0 0 0 0 0 0 0 0 0 0 0 0.06 0"/>
<feBlend mode="normal" in2="effect1_dropShadow_4889_1889" result="effect2_dropShadow_4889_1889"/>
<feBlend mode="normal" in="SourceGraphic" in2="effect2_dropShadow_4889_1889" result="shape"/>
</filter>
<filter id="filter1_dd_4889_1889" x="620.5" y="72" width="184" height="198" filterUnits="userSpaceOnUse" color-interpolation-filters="sRGB">
<feFlood flood-opacity="0" result="BackgroundImageFix"/>
<feColorMatrix in="SourceAlpha" type="matrix" values="0 0 0 0 0 0 0 0 0 0 0 0 0 0 0 0 0 0 127 0" result="hardAlpha"/>
<feOffset dy="1"/>
<feGaussianBlur stdDeviation="1.5"/>
<feColorMatrix type="matrix" values="0 0 0 0 0 0 0 0 0 0 0 0 0 0 0 0 0 0 0.1 0"/>
<feBlend mode="normal" in2="BackgroundImageFix" result="effect1_dropShadow_4889_1889"/>
<feColorMatrix in="SourceAlpha" type="matrix" values="0 0 0 0 0 0 0 0 0 0 0 0 0 0 0 0 0 0 127 0" result="hardAlpha"/>
<feOffset dy="1"/>
<feGaussianBlur stdDeviation="1"/>
<feColorMatrix type="matrix" values="0 0 0 0 0 0 0 0 0 0 0 0 0 0 0 0 0 0 0.06 0"/>
<feBlend mode="normal" in2="effect1_dropShadow_4889_1889" result="effect2_dropShadow_4889_1889"/>
<feBlend mode="normal" in="SourceGraphic" in2="effect2_dropShadow_4889_1889" result="shape"/>
</filter>
</defs>
</svg>
