<svg width="472" height="180" viewBox="0 0 472 180" fill="none" xmlns="http://www.w3.org/2000/svg">
<rect y="15.3163" width="144" height="10" rx="5" fill="#9CA3AF"/>
<rect y="41.3163" width="269" height="8" rx="4" fill="#D1D5DB"/>
<rect y="55.3163" width="234" height="8" rx="4" fill="#D1D5DB"/>
<rect y="83.3163" width="269" height="29" rx="4" fill="#F3F4F6"/>
<rect x="8" y="91.3163" width="33" height="5" rx="2.5" fill="#9CA3AF"/>
<rect x="8" y="100.316" width="44" height="4" rx="2" fill="#D1D5DB"/>
<rect x="76" y="91.3163" width="35" height="5" rx="2.5" fill="#9CA3AF"/>
<rect x="76" y="100.316" width="44" height="4" rx="2" fill="#D1D5DB"/>
<rect x="144" y="91.3163" width="35" height="5" rx="2.5" fill="#9CA3AF"/>
<rect x="144" y="100.316" width="44" height="4" rx="2" fill="#D1D5DB"/>
<path d="M214 90.8163C212.619 90.8163 211.5 91.9355 211.5 93.3163V102.316C211.5 103.697 212.619 104.816 214 104.816H259C260.381 104.816 261.5 103.697 261.5 102.316V93.3163C261.5 91.9355 260.381 90.8163 259 90.8163H214Z" fill="#1A56DB"/>
<path d="M214 90.8163C212.619 90.8163 211.5 91.9355 211.5 93.3163V102.316C211.5 103.697 212.619 104.816 214 104.816H259C260.381 104.816 261.5 103.697 261.5 102.316V93.3163C261.5 91.9355 260.381 90.8163 259 90.8163H214Z" stroke="#1A56DB"/>
<rect x="226" y="95.8163" width="21" height="4" rx="1" fill="white"/>
<rect x="302" y="0.816254" width="170" height="126" rx="8" fill="#F9FAFB"/>
<rect x="312" y="26" width="150" height="4" rx="2" fill="#E5E7EB"/>
<rect x="312" y="38" width="150" height="4" rx="2" fill="#D1D5DB"/>
<rect x="312" y="50" width="45" height="4" rx="2" fill="#D1D5DB"/>
<rect x="369" y="50" width="91" height="4" rx="2" fill="#E5E7EB"/>
<rect x="312" y="62" width="122" height="4" rx="2" fill="#D1D5DB"/>
<rect x="312" y="74" width="137" height="4" rx="2" fill="#D1D5DB"/>
<rect x="312" y="86" width="90" height="4" rx="2" fill="#E5E7EB"/>
<rect x="414" y="86" width="43" height="4" rx="2" fill="#D1D5DB"/>
<rect x="312" y="98" width="150" height="4" rx="2" fill="#D1D5DB"/>
<path d="M8.73121 173.118C11.2917 173.118 13.2212 172.28 14.7316 170.706C16.2864 169.149 16.7691 166.97 16.7691 165.207C16.7691 164.66 16.7272 164.158 16.6432 163.736H8.73121V166.087H14.3556C14.1877 167.409 13.7452 168.375 13.0764 169.046C12.2564 169.863 10.9776 170.767 8.73121 170.767C5.26877 170.767 2.56084 167.976 2.56084 164.513C2.56084 161.05 5.26877 158.257 8.73121 158.257C10.5977 158.257 11.9642 158.993 12.9698 159.938L14.6284 158.28C13.2212 156.938 11.3547 155.908 8.73121 155.908C3.98713 155.908 0 159.768 0 164.513C0 169.256 3.98713 173.118 8.73121 173.118ZM23.1721 173.118C26.2346 173.118 28.7321 170.767 28.7321 167.575C28.7321 164.366 26.2346 162.036 23.1721 162.036C20.1044 162.036 17.6069 164.366 17.6069 167.575C17.6069 170.767 20.1044 173.118 23.1721 173.118ZM23.1721 170.935C21.4914 170.935 20.0415 169.55 20.0415 167.575C20.0415 165.583 21.4914 164.221 23.1721 164.221C24.8494 164.221 26.2975 165.583 26.2975 167.575C26.2975 169.55 24.8494 170.935 23.1721 170.935ZM35.3012 173.118C38.3654 173.118 40.863 170.767 40.863 167.575C40.863 164.366 38.3654 162.036 35.3012 162.036C32.2353 162.036 29.7378 164.366 29.7378 167.575C29.7378 170.767 32.2353 173.118 35.3012 173.118ZM35.3012 170.935C33.6222 170.935 32.1723 169.55 32.1723 167.575C32.1723 165.583 33.6222 164.221 35.3012 164.221C36.9802 164.221 38.4284 165.583 38.4284 167.575C38.4284 169.55 36.9802 170.935 35.3012 170.935ZM47.2222 178.092C50.0748 178.092 52.4919 176.415 52.4919 172.32V162.372H50.1815V163.275H50.0975C49.5501 162.624 48.5007 162.036 47.182 162.036C44.4099 162.036 41.8721 164.471 41.8721 167.598C41.8721 170.706 44.4099 173.118 47.182 173.118C48.5007 173.118 49.5501 172.53 50.0975 171.859H50.1815V172.656C50.1815 174.778 49.0481 175.909 47.2222 175.909C45.7338 175.909 44.8086 174.841 44.4291 173.935L42.3111 174.818C42.9215 176.289 44.5358 178.092 47.2222 178.092ZM47.3884 170.935C45.7111 170.935 44.3032 169.531 44.3032 167.598C44.3032 165.646 45.7111 164.221 47.3884 164.221C49.0481 164.221 50.3494 165.646 50.3494 167.598C50.3494 169.531 49.0481 170.935 47.3884 170.935ZM56.6037 156.496H54.1691V172.782H56.6037V156.496ZM63.2778 173.118C65.8155 173.118 67.2864 171.567 67.8951 170.662L66.0044 169.405C65.3765 170.325 64.516 170.935 63.2778 170.935C62.0395 170.935 61.1563 170.369 60.5914 169.256L68 166.19L67.7481 165.562C67.2864 164.324 65.8785 162.036 63.0049 162.036C60.1506 162.036 57.779 164.284 57.779 167.575C57.779 170.683 60.1296 173.118 63.2778 173.118ZM60.1926 167.409C60.1296 165.27 61.8506 164.177 63.0889 164.177C64.0543 164.177 64.8728 164.66 65.1474 165.352L60.1926 167.409Z" fill="#9CA3AF"/>
<g clip-path="url(#clip0_4362_58302)">
<path d="M207.986 166.324V164.74H206.02V162.279L205.954 162.3L204.108 162.863H204.073V164.726H201.159V163.685C201.159 163.207 201.272 162.835 201.483 162.589C201.694 162.342 202.003 162.219 202.383 162.219C202.664 162.219 202.959 162.29 203.241 162.416L203.311 162.444V160.784L203.283 160.77C203.016 160.675 202.65 160.626 202.2 160.626C201.63 160.626 201.11 160.753 200.653 161.002C200.196 161.241 199.837 161.599 199.591 162.049C199.338 162.499 199.212 163.02 199.212 163.589V164.728H197.848V166.31H199.219V172.976H201.18V166.31H204.096V170.543C204.096 172.287 204.916 173.173 206.543 173.173C206.81 173.173 207.092 173.139 207.373 173.081C207.665 173.018 207.865 172.955 207.978 172.891L208.006 172.877V171.281L207.926 171.335C207.821 171.405 207.687 171.466 207.532 171.508C207.378 171.551 207.244 171.579 207.144 171.579C206.765 171.579 206.483 171.48 206.31 171.279C206.132 171.078 206.043 170.723 206.043 170.224V166.329H207.998L207.994 166.319L207.986 166.324ZM193.438 171.583C192.726 171.583 192.164 171.346 191.765 170.88C191.369 170.412 191.167 169.745 191.167 168.897C191.167 168.022 191.369 167.336 191.767 166.861C192.164 166.388 192.72 166.148 193.424 166.148C194.106 166.148 194.64 166.377 195.034 166.83C195.427 167.285 195.624 167.965 195.624 168.849C195.624 169.745 195.441 170.433 195.076 170.893C194.71 171.35 194.162 171.582 193.445 171.582L193.438 171.583ZM193.529 164.542C192.172 164.542 191.091 164.94 190.32 165.726C189.554 166.513 189.161 167.6 189.161 168.96C189.161 170.254 189.541 171.291 190.295 172.047C191.048 172.806 192.072 173.2 193.338 173.2C194.654 173.2 195.714 172.792 196.482 172.001C197.256 171.205 197.639 170.127 197.639 168.8C197.639 167.488 197.274 166.44 196.55 165.692C195.825 164.937 194.81 164.556 193.526 164.556L193.529 164.542ZM185.989 164.556C185.061 164.556 184.298 164.792 183.711 165.259C183.126 165.729 182.825 166.342 182.825 167.087C182.825 167.477 182.891 167.818 183.019 168.114C183.145 168.405 183.342 168.662 183.605 168.879C183.865 169.09 184.266 169.315 184.8 169.545C185.25 169.728 185.581 169.883 185.795 170.009C186.006 170.127 186.155 170.248 186.231 170.366C186.315 170.478 186.357 170.64 186.357 170.83C186.357 171.388 185.944 171.657 185.091 171.657C184.774 171.657 184.412 171.591 184.017 171.46C183.618 171.331 183.249 171.144 182.915 170.903L182.831 170.847V172.731L182.859 172.745C183.14 172.872 183.487 172.984 183.9 173.069C184.311 173.16 184.687 173.202 185.011 173.202C186.016 173.202 186.825 172.963 187.415 172.496C188.006 172.024 188.308 171.392 188.308 170.623C188.308 170.068 188.147 169.59 187.827 169.206C187.51 168.822 186.962 168.472 186.193 168.163C185.586 167.917 185.195 167.713 185.026 167.558C184.871 167.406 184.799 167.193 184.799 166.923C184.799 166.684 184.897 166.491 185.098 166.336C185.299 166.178 185.58 166.099 185.932 166.099C186.259 166.099 186.593 166.149 186.93 166.25C187.261 166.355 187.552 166.49 187.795 166.655L187.877 166.712V164.912L187.849 164.898C187.621 164.799 187.324 164.717 186.963 164.652C186.605 164.583 186.279 164.553 185.996 164.553L185.989 164.556ZM177.7 171.591C176.989 171.591 176.427 171.357 176.033 170.888C175.632 170.424 175.432 169.756 175.432 168.905C175.432 168.034 175.633 167.345 176.032 166.871C176.426 166.399 176.984 166.158 177.685 166.158C178.367 166.158 178.908 166.388 179.298 166.84C179.687 167.297 179.889 167.977 179.889 168.861C179.889 169.756 179.699 170.443 179.334 170.904C178.975 171.361 178.427 171.593 177.702 171.593L177.7 171.591ZM177.801 164.555C176.437 164.555 175.354 164.951 174.588 165.737C173.816 166.525 173.427 167.611 173.427 168.972C173.427 170.265 173.807 171.302 174.554 172.058C175.308 172.818 176.331 173.211 177.595 173.211C178.917 173.211 179.972 172.804 180.745 172.009C181.515 171.212 181.906 170.133 181.906 168.806C181.906 167.494 181.54 166.446 180.823 165.699C180.099 164.943 179.082 164.562 177.799 164.562L177.801 164.555ZM170.46 166.184V164.75H168.52V172.998H170.46V168.779C170.46 168.062 170.622 167.471 170.943 167.025C171.26 166.58 171.681 166.364 172.195 166.364C172.371 166.364 172.567 166.392 172.784 166.448C172.995 166.504 173.147 166.561 173.234 166.631L173.318 166.687V164.732L173.287 164.718C173.105 164.637 172.851 164.597 172.528 164.597C172.043 164.597 171.607 164.755 171.233 165.061C170.902 165.334 170.665 165.706 170.484 166.17H170.449L170.466 166.184L170.46 166.184ZM165.032 164.553C164.139 164.553 163.345 164.739 162.67 165.116C161.989 165.495 161.467 166.03 161.109 166.719C160.757 167.401 160.574 168.199 160.574 169.088C160.574 169.869 160.751 170.582 161.095 171.213C161.442 171.846 161.931 172.338 162.55 172.683C163.165 173.022 163.879 173.196 164.669 173.196C165.592 173.196 166.378 173.013 167.011 172.647L167.039 172.633V170.853L166.954 170.911C166.668 171.122 166.35 171.288 166.005 171.407C165.662 171.527 165.35 171.587 165.077 171.587C164.313 171.587 163.703 171.348 163.259 170.881C162.809 170.402 162.584 169.741 162.584 168.912C162.584 168.068 162.823 167.393 163.284 166.901C163.748 166.395 164.358 166.141 165.105 166.141C165.738 166.141 166.362 166.359 166.949 166.781L167.034 166.838V164.967L167.011 164.953C166.789 164.827 166.488 164.728 166.111 164.648C165.741 164.571 165.377 164.533 165.029 164.533L165.032 164.553ZM159.243 164.73H157.305V172.984H159.245V164.73H159.243ZM158.286 161.221C157.967 161.221 157.689 161.329 157.459 161.544C157.23 161.761 157.113 162.032 157.113 162.353C157.113 162.669 157.231 162.937 157.458 163.148C157.683 163.359 157.964 163.463 158.288 163.463C158.611 163.463 158.892 163.357 159.121 163.146C159.351 162.935 159.468 162.668 159.468 162.352C159.468 162.042 159.356 161.775 159.131 161.55C158.906 161.339 158.624 161.227 158.287 161.227L158.286 161.221ZM153.442 164.131V172.99H155.425V161.487H152.683L149.208 170.036L145.825 161.486H142.975V172.998H144.838V164.142H144.902L148.473 173H149.876L153.392 164.142H153.459L153.448 164.138L153.442 164.131ZM128.081 167.709H137.207V176.844H128.067L128.079 167.716L128.081 167.709ZM118 167.715H127.125V176.844H117.997L118 167.716V167.715ZM128.081 157.634H137.208V166.761H128.076L128.081 157.632V157.634ZM118 157.633H127.125V166.761H117.997L118 157.632V157.633Z" fill="#9CA3AF"/>
</g>
<path d="M289.413 165.875C291.786 166.452 292.753 167.348 292.753 168.967C292.753 170.884 291.289 172.122 289.023 172.122C287.421 172.122 285.936 171.553 284.729 170.476C284.705 170.453 284.689 170.423 284.687 170.389C284.685 170.356 284.696 170.324 284.717 170.298L285.784 169.03C285.794 169.017 285.808 169.006 285.823 168.998C285.838 168.991 285.854 168.986 285.871 168.985C285.888 168.983 285.905 168.985 285.921 168.991C285.937 168.996 285.952 169.004 285.965 169.015C287.002 169.913 287.93 170.296 289.066 170.296C290.09 170.296 290.726 169.853 290.726 169.14C290.726 168.497 290.412 168.138 288.547 167.708C286.358 167.179 285.091 166.494 285.091 164.557C285.091 162.751 286.56 161.489 288.663 161.489C290.092 161.489 291.317 161.913 292.404 162.785C292.456 162.827 292.467 162.903 292.428 162.958L291.476 164.298C291.466 164.312 291.454 164.324 291.439 164.333C291.425 164.342 291.409 164.348 291.392 164.35C291.375 164.353 291.358 164.352 291.341 164.348C291.325 164.344 291.309 164.337 291.296 164.327C290.383 163.646 289.512 163.316 288.633 163.316C287.727 163.316 287.118 163.751 287.118 164.398C287.118 165.082 287.466 165.409 289.413 165.874L289.413 165.875ZM297.88 163.954C296.898 163.954 296.093 164.341 295.428 165.133V164.241C295.428 164.207 295.415 164.174 295.391 164.151C295.367 164.127 295.334 164.113 295.301 164.113H293.557C293.523 164.113 293.491 164.127 293.467 164.151C293.443 164.174 293.429 164.207 293.429 164.241V174.156C293.429 174.226 293.487 174.283 293.557 174.283H295.301C295.371 174.283 295.429 174.226 295.429 174.156V171.026C296.093 171.771 296.899 172.136 297.881 172.136C299.707 172.136 301.554 170.731 301.554 168.045C301.554 165.359 299.706 163.954 297.88 163.954ZM299.525 168.045C299.525 169.413 298.683 170.367 297.477 170.367C296.283 170.367 295.384 169.369 295.384 168.045C295.384 166.721 296.283 165.723 297.477 165.723C298.664 165.723 299.525 166.7 299.525 168.045H299.525ZM306.29 163.954C303.939 163.954 302.098 165.764 302.098 168.075C302.098 170.361 303.926 172.151 306.26 172.151C308.619 172.151 310.466 170.347 310.466 168.045C310.466 165.751 308.631 163.954 306.289 163.954L306.29 163.954ZM306.289 170.381C305.039 170.381 304.096 169.377 304.096 168.045C304.096 166.708 305.006 165.737 306.261 165.737C307.518 165.737 308.468 166.742 308.468 168.074C308.468 169.411 307.551 170.381 306.289 170.381V170.381ZM315.486 164.113C315.556 164.113 315.613 164.171 315.613 164.241V165.74C315.613 165.756 315.61 165.773 315.604 165.788C315.597 165.804 315.588 165.818 315.576 165.83C315.564 165.842 315.55 165.851 315.535 165.858C315.519 165.864 315.503 165.867 315.486 165.867H313.567V169.473C313.567 170.042 313.817 170.296 314.377 170.296C314.733 170.298 315.084 170.213 315.4 170.049C315.42 170.039 315.442 170.035 315.463 170.036C315.485 170.037 315.506 170.043 315.525 170.055C315.544 170.066 315.559 170.082 315.569 170.101C315.58 170.12 315.586 170.142 315.586 170.163V171.59C315.586 171.636 315.561 171.679 315.521 171.701C315.032 171.978 314.513 172.107 313.887 172.107C312.349 172.107 311.569 171.313 311.569 169.745V165.868H310.73C310.713 165.868 310.697 165.864 310.682 165.858C310.666 165.851 310.652 165.842 310.64 165.83C310.629 165.818 310.619 165.804 310.613 165.789C310.607 165.773 310.603 165.757 310.603 165.74V164.241C310.603 164.171 310.66 164.113 310.73 164.113H311.569V162.151C311.569 162.081 311.626 162.023 311.697 162.023H313.441C313.511 162.023 313.568 162.081 313.568 162.151V164.113H315.487H315.486ZM325.152 164.121C325.205 164.121 325.252 164.153 325.271 164.203L327.309 169.519L329.168 164.206C329.177 164.181 329.194 164.159 329.215 164.144C329.237 164.128 329.263 164.12 329.289 164.12H331.105C331.126 164.12 331.146 164.125 331.165 164.135C331.183 164.145 331.199 164.159 331.21 164.176C331.222 164.193 331.229 164.213 331.232 164.234C331.234 164.254 331.231 164.275 331.223 164.294L328.197 172.114C327.57 173.727 326.858 174.327 325.571 174.327C324.882 174.327 324.325 174.184 323.707 173.85C323.679 173.835 323.657 173.81 323.647 173.779C323.637 173.748 323.639 173.715 323.653 173.686L324.244 172.388C324.251 172.372 324.262 172.358 324.275 172.346C324.288 172.334 324.303 172.325 324.319 172.32C324.336 172.314 324.354 172.312 324.371 172.314C324.389 172.316 324.406 172.321 324.421 172.329C324.752 172.51 325.076 172.602 325.383 172.602C325.763 172.602 326.042 172.477 326.325 171.848L323.831 165.868H322.202V171.85C322.202 171.921 322.145 171.978 322.074 171.978H320.33C320.313 171.978 320.297 171.975 320.281 171.968C320.266 171.962 320.252 171.953 320.24 171.941C320.228 171.929 320.219 171.915 320.212 171.899C320.206 171.884 320.203 171.867 320.203 171.85V165.868H319.365C319.331 165.867 319.299 165.854 319.275 165.83C319.251 165.806 319.237 165.774 319.237 165.74V164.234C319.237 164.163 319.294 164.106 319.364 164.106H320.202V163.737C320.202 162.022 321.054 161.114 322.665 161.114C323.327 161.114 323.769 161.22 324.114 161.322C324.169 161.339 324.205 161.389 324.205 161.445V162.914C324.205 162.934 324.201 162.954 324.192 162.972C324.183 162.991 324.169 163.006 324.153 163.018C324.136 163.03 324.117 163.038 324.097 163.041C324.077 163.044 324.057 163.042 324.037 163.036C323.71 162.927 323.418 162.854 323.055 162.854C322.446 162.854 322.173 163.171 322.173 163.88V164.121H325.152H325.152ZM318.296 164.113C318.367 164.113 318.424 164.171 318.424 164.241V171.85C318.424 171.92 318.367 171.977 318.296 171.977H316.552C316.518 171.977 316.485 171.964 316.462 171.94C316.438 171.916 316.424 171.884 316.424 171.85V164.241C316.424 164.171 316.481 164.113 316.551 164.113H318.296H318.296ZM317.433 160.649C317.765 160.649 318.083 160.78 318.317 161.015C318.552 161.25 318.684 161.568 318.684 161.899C318.684 162.231 318.552 162.549 318.317 162.784C318.083 163.018 317.765 163.15 317.433 163.15C317.101 163.15 316.783 163.018 316.549 162.784C316.314 162.549 316.182 162.231 316.182 161.899C316.182 161.568 316.314 161.25 316.549 161.015C316.783 160.78 317.101 160.649 317.433 160.649ZM332.712 166.559C332.551 166.56 332.391 166.529 332.242 166.467C332.093 166.406 331.957 166.315 331.843 166.201C331.729 166.087 331.638 165.951 331.577 165.802C331.516 165.653 331.484 165.493 331.485 165.332C331.485 165.17 331.517 165.009 331.579 164.86C331.641 164.71 331.732 164.574 331.846 164.46C331.961 164.345 332.097 164.254 332.246 164.192C332.396 164.13 332.557 164.098 332.719 164.098C332.88 164.098 333.04 164.129 333.189 164.19C333.338 164.252 333.474 164.342 333.588 164.456C333.702 164.57 333.792 164.706 333.854 164.855C333.915 165.004 333.947 165.164 333.946 165.325C333.946 165.487 333.914 165.648 333.852 165.797C333.79 165.947 333.699 166.083 333.585 166.198C333.47 166.313 333.334 166.403 333.184 166.466C333.035 166.528 332.874 166.56 332.712 166.56V166.559ZM332.719 164.221C332.09 164.221 331.614 164.721 331.614 165.332C331.614 165.944 332.086 166.437 332.712 166.437C333.341 166.437 333.817 165.938 333.817 165.325C333.817 164.714 333.344 164.221 332.719 164.221ZM332.991 165.452L333.338 165.938H333.045L332.733 165.492H332.465V165.938H332.219V164.649H332.794C333.093 164.649 333.29 164.803 333.29 165.06C333.29 165.272 333.168 165.401 332.991 165.451L332.991 165.452ZM332.783 164.87H332.464V165.277H332.783C332.943 165.277 333.037 165.199 333.037 165.073C333.037 164.941 332.943 164.87 332.783 164.87V164.87ZM270.002 155.461C263.772 155.461 258.721 160.581 258.721 166.812C258.721 172.666 263.179 177.392 268.887 178.109H271.118C276.825 177.392 281.283 172.666 281.283 166.812C281.283 160.581 276.232 155.461 270.002 155.461H270.002ZM275.175 171.732C275.127 171.811 275.064 171.879 274.99 171.934C274.915 171.988 274.83 172.027 274.741 172.049C274.651 172.071 274.558 172.075 274.466 172.06C274.375 172.046 274.287 172.014 274.209 171.965C271.559 170.346 268.225 169.981 264.299 170.878C264.209 170.898 264.115 170.901 264.024 170.886C263.933 170.87 263.846 170.837 263.768 170.788C263.69 170.739 263.622 170.675 263.569 170.6C263.515 170.525 263.477 170.439 263.456 170.349C263.436 170.259 263.433 170.166 263.449 170.075C263.464 169.984 263.497 169.897 263.546 169.819C263.595 169.74 263.659 169.673 263.735 169.619C263.81 169.566 263.895 169.528 263.985 169.507C268.283 168.525 271.969 168.948 274.942 170.765C275.101 170.863 275.215 171.019 275.259 171.2C275.302 171.382 275.272 171.573 275.175 171.732L275.175 171.732ZM276.556 168.66C276.434 168.859 276.238 169.001 276.011 169.055C275.784 169.109 275.545 169.071 275.346 168.949C272.315 167.086 267.692 166.546 264.105 167.635C263.882 167.702 263.641 167.679 263.435 167.569C263.23 167.459 263.076 167.272 263.007 167.049C262.868 166.583 263.129 166.093 263.594 165.953C267.692 164.709 272.785 165.311 276.267 167.45C276.466 167.573 276.608 167.769 276.662 167.995C276.716 168.222 276.678 168.461 276.556 168.66H276.556ZM276.675 165.461C273.038 163.302 267.04 163.103 263.569 164.157C263.301 164.238 263.012 164.209 262.765 164.078C262.519 163.946 262.334 163.721 262.253 163.453C262.172 163.185 262.201 162.896 262.333 162.649C262.465 162.403 262.689 162.218 262.957 162.137C266.942 160.928 273.566 161.161 277.752 163.646C277.872 163.717 277.976 163.81 278.059 163.921C278.142 164.032 278.202 164.158 278.236 164.292C278.271 164.427 278.278 164.566 278.258 164.704C278.239 164.841 278.192 164.973 278.121 165.092C278.051 165.211 277.957 165.315 277.846 165.398C277.735 165.482 277.609 165.542 277.475 165.576C277.34 165.611 277.201 165.618 277.063 165.598C276.926 165.578 276.794 165.532 276.675 165.461L276.675 165.461Z" fill="#9CA3AF"/>
<g clip-path="url(#clip1_4362_58302)">
<path d="M419.414 164.295C418.317 164.295 417.774 165.158 417.525 165.715C417.386 166.025 417.347 166.271 417.235 166.271C417.076 166.271 417.189 166.058 417.059 165.584C416.888 164.961 416.372 164.295 415.276 164.295C414.124 164.295 413.631 165.268 413.397 165.803C413.237 166.169 413.237 166.271 413.114 166.271C412.935 166.271 413.083 165.981 413.163 165.639C413.321 164.967 413.201 164.453 413.201 164.453H411.374V171.322H413.868C413.868 171.322 413.868 168.451 413.868 167.904C413.868 167.23 414.15 166.375 414.633 166.375C415.191 166.375 415.303 166.804 415.303 167.598C415.303 168.318 415.303 171.323 415.303 171.323H417.807C417.807 171.323 417.807 168.435 417.807 167.904C417.807 167.304 418.051 166.375 418.576 166.375C419.142 166.375 419.242 166.977 419.242 167.598C419.242 168.218 419.242 171.322 419.242 171.322H421.7C421.7 171.322 421.7 168.6 421.7 167.282C421.7 165.49 421.068 164.295 419.414 164.295Z" fill="#9CA3AF"/>
<path d="M461.734 164.295C460.637 164.295 460.094 165.158 459.845 165.715C459.706 166.025 459.668 166.271 459.555 166.271C459.396 166.271 459.502 166 459.38 165.584C459.197 164.964 458.742 164.295 457.597 164.295C456.444 164.295 455.951 165.268 455.717 165.803C455.557 166.169 455.557 166.271 455.434 166.271C455.255 166.271 455.403 165.981 455.483 165.639C455.641 164.967 455.521 164.453 455.521 164.453H453.694V171.322H456.188C456.188 171.322 456.188 168.451 456.188 167.904C456.188 167.23 456.47 166.375 456.953 166.375C457.511 166.375 457.623 166.804 457.623 167.598C457.623 168.318 457.623 171.323 457.623 171.323H460.127C460.127 171.323 460.127 168.435 460.127 167.904C460.127 167.304 460.372 166.375 460.896 166.375C461.462 166.375 461.562 166.977 461.562 167.598C461.562 168.218 461.562 171.322 461.562 171.322H464.02C464.02 171.322 464.02 168.6 464.02 167.282C464.02 165.49 463.389 164.295 461.734 164.295Z" fill="#9CA3AF"/>
<path d="M425.351 169.716C424.754 169.854 424.445 169.67 424.445 169.275C424.445 168.734 425.005 168.517 425.804 168.517C426.157 168.517 426.488 168.547 426.488 168.547C426.488 168.779 425.985 169.57 425.351 169.716ZM425.958 164.296C424.048 164.296 422.677 164.998 422.677 164.998V167.062C422.677 167.062 424.191 166.192 425.418 166.192C426.398 166.192 426.519 166.721 426.474 167.159C426.474 167.159 426.192 167.085 425.329 167.085C423.297 167.085 422.271 168.008 422.271 169.489C422.271 170.894 423.424 171.481 424.395 171.481C425.813 171.481 426.436 170.529 426.627 170.077C426.76 169.763 426.784 169.552 426.904 169.552C427.04 169.552 426.994 169.704 426.987 170.016C426.976 170.562 427.002 170.975 427.088 171.323H428.967V167.943C428.967 165.832 428.221 164.296 425.958 164.296Z" fill="#9CA3AF"/>
<path d="M433.074 171.323H435.568V162.374H433.074V171.323Z" fill="#9CA3AF"/>
<path d="M438.312 167.889C438.312 167.271 438.886 166.709 439.939 166.709C441.087 166.709 442.01 167.262 442.217 167.387V164.998C442.217 164.998 441.488 164.296 439.695 164.296C437.806 164.296 436.232 165.402 436.232 167.782C436.232 170.162 437.66 171.481 439.69 171.481C441.276 171.481 442.221 170.61 442.221 170.61V168.341C441.922 168.508 441.089 169.087 439.951 169.087C438.746 169.087 438.312 168.532 438.312 167.889Z" fill="#9CA3AF"/>
<path d="M447.268 164.296C445.825 164.296 445.276 165.664 445.165 165.902C445.054 166.139 444.999 166.276 444.908 166.273C444.751 166.268 444.861 165.981 444.922 165.796C445.038 165.445 445.284 164.526 445.284 163.396C445.284 162.63 445.18 162.373 445.18 162.373H443.028V171.323H445.521C445.521 171.323 445.521 168.462 445.521 167.906C445.521 167.349 445.744 166.376 446.372 166.376C446.892 166.376 447.055 166.762 447.055 167.538C447.055 168.314 447.055 171.323 447.055 171.323H449.548C449.548 171.323 449.548 169.23 449.548 167.687C449.548 165.924 449.256 164.296 447.268 164.296Z" fill="#9CA3AF"/>
<path d="M450.359 164.462V171.323H452.852V164.462C452.852 164.462 452.433 164.707 451.608 164.707C450.783 164.707 450.359 164.462 450.359 164.462Z" fill="#9CA3AF"/>
<path d="M451.598 162.304C450.755 162.304 450.072 162.75 450.072 163.3C450.072 163.85 450.755 164.296 451.598 164.296C452.441 164.296 453.124 163.85 453.124 163.3C453.124 162.75 452.441 162.304 451.598 162.304Z" fill="#9CA3AF"/>
<path d="M429.774 164.462V171.323H432.268V164.462C432.268 164.462 431.849 164.707 431.023 164.707C430.199 164.707 429.774 164.462 429.774 164.462Z" fill="#9CA3AF"/>
<path d="M431.014 162.304C430.171 162.304 429.487 162.75 429.487 163.3C429.487 163.85 430.171 164.296 431.014 164.296C431.856 164.296 432.54 163.85 432.54 163.3C432.54 162.75 431.856 162.304 431.014 162.304Z" fill="#9CA3AF"/>
<path d="M468.29 169.847C467.718 169.847 467.297 169.122 467.297 168.111C467.297 167.13 467.729 166.376 468.27 166.376C468.964 166.376 469.26 167.012 469.26 168.111C469.26 169.255 468.987 169.847 468.29 169.847ZM468.974 164.295C467.693 164.295 467.105 165.256 466.85 165.803C466.681 166.165 466.69 166.271 466.567 166.271C466.388 166.271 466.536 165.981 466.616 165.639C466.774 164.967 466.654 164.453 466.654 164.453H464.827V173.218H467.321C467.321 173.218 467.321 171.784 467.321 170.439C467.616 170.94 468.162 171.475 469.005 171.475C470.808 171.475 471.715 169.949 471.715 167.888C471.715 165.552 470.629 164.295 468.974 164.295Z" fill="#9CA3AF"/>
<path d="M402.566 166.369C402.733 166.349 402.894 166.349 403.042 166.369C403.127 166.174 403.142 165.836 403.065 165.468C402.951 164.921 402.796 164.59 402.477 164.642C402.157 164.693 402.146 165.089 402.26 165.636C402.324 165.944 402.438 166.207 402.566 166.369Z" fill="#9CA3AF"/>
<path d="M399.823 166.802C400.052 166.902 400.192 166.969 400.247 166.911C400.283 166.874 400.272 166.805 400.218 166.716C400.105 166.532 399.873 166.345 399.627 166.24C399.123 166.024 398.523 166.096 398.059 166.429C397.907 166.541 397.762 166.696 397.782 166.79C397.789 166.821 397.812 166.844 397.866 166.851C397.992 166.865 398.432 166.643 398.94 166.612C399.298 166.59 399.595 166.702 399.823 166.802Z" fill="#9CA3AF"/>
<path d="M399.364 167.064C399.066 167.111 398.902 167.21 398.796 167.301C398.706 167.379 398.651 167.466 398.651 167.527C398.651 167.557 398.664 167.573 398.674 167.582C398.688 167.594 398.704 167.6 398.723 167.6C398.79 167.6 398.941 167.54 398.941 167.54C399.355 167.392 399.628 167.41 399.899 167.44C400.049 167.457 400.119 167.467 400.152 167.415C400.162 167.4 400.174 167.369 400.144 167.32C400.074 167.207 399.774 167.016 399.364 167.064" fill="#9CA3AF"/>
<path d="M401.64 168.027C401.842 168.127 402.064 168.088 402.137 167.94C402.209 167.793 402.104 167.593 401.902 167.494C401.7 167.394 401.477 167.433 401.405 167.581C401.332 167.728 401.438 167.928 401.64 168.027Z" fill="#9CA3AF"/>
<path d="M402.939 166.892C402.775 166.889 402.639 167.069 402.635 167.295C402.631 167.52 402.761 167.705 402.925 167.707C403.09 167.71 403.226 167.53 403.23 167.305C403.233 167.079 403.103 166.895 402.939 166.892Z" fill="#9CA3AF"/>
<path d="M391.91 170.952C391.869 170.901 391.802 170.917 391.737 170.932C391.691 170.943 391.64 170.954 391.583 170.953C391.463 170.951 391.36 170.9 391.303 170.811C391.228 170.696 391.232 170.525 391.315 170.329C391.326 170.303 391.339 170.273 391.354 170.241C391.485 169.946 391.706 169.451 391.458 168.98C391.272 168.625 390.968 168.404 390.603 168.358C390.252 168.314 389.891 168.444 389.661 168.698C389.298 169.098 389.241 169.644 389.311 169.836C389.337 169.907 389.377 169.927 389.406 169.931C389.468 169.939 389.56 169.894 389.617 169.74C389.621 169.729 389.626 169.712 389.633 169.69C389.659 169.608 389.706 169.457 389.784 169.335C389.878 169.189 390.024 169.088 390.196 169.051C390.37 169.014 390.549 169.047 390.698 169.145C390.953 169.311 391.051 169.623 390.942 169.921C390.886 170.074 390.795 170.369 390.815 170.611C390.856 171.1 391.157 171.296 391.427 171.317C391.69 171.327 391.874 171.18 391.92 171.072C391.948 171.008 391.924 170.969 391.91 170.952" fill="#9CA3AF"/>
<path d="M394.409 161.965C395.266 160.975 396.322 160.113 397.267 159.629C397.3 159.613 397.335 159.648 397.317 159.68C397.242 159.816 397.098 160.107 397.052 160.328C397.045 160.363 397.082 160.389 397.111 160.369C397.699 159.968 398.723 159.538 399.62 159.483C399.659 159.48 399.678 159.53 399.647 159.553C399.51 159.658 399.361 159.803 399.252 159.95C399.233 159.975 399.251 160.011 399.282 160.011C399.912 160.015 400.801 160.236 401.38 160.561C401.419 160.583 401.391 160.658 401.347 160.648C400.471 160.448 399.037 160.295 397.547 160.659C396.217 160.983 395.202 161.484 394.461 162.023C394.424 162.05 394.379 162 394.409 161.965L394.409 161.965ZM398.679 171.566C398.68 171.566 398.68 171.566 398.68 171.566C398.68 171.566 398.68 171.567 398.68 171.567C398.68 171.567 398.68 171.566 398.679 171.566ZM402.216 171.983C402.241 171.972 402.259 171.943 402.256 171.914C402.252 171.879 402.22 171.853 402.185 171.857C402.185 171.857 400.355 172.128 398.626 171.495C398.815 170.883 399.315 171.104 400.072 171.165C401.436 171.246 402.659 171.047 403.562 170.788C404.345 170.563 405.373 170.12 406.172 169.49C406.441 170.081 406.536 170.733 406.536 170.733C406.536 170.733 406.745 170.695 406.919 170.803C407.084 170.904 407.205 171.115 407.122 171.659C406.954 172.677 406.522 173.503 405.795 174.262C405.352 174.739 404.815 175.153 404.201 175.454C403.874 175.625 403.527 175.774 403.16 175.893C400.419 176.788 397.614 175.805 396.71 173.692C396.638 173.533 396.577 173.366 396.529 173.193C396.144 171.8 396.471 170.13 397.493 169.078C397.493 169.078 397.493 169.078 397.493 169.078C397.556 169.011 397.62 168.932 397.62 168.833C397.62 168.75 397.568 168.662 397.522 168.6C397.164 168.081 395.925 167.197 396.174 165.486C396.352 164.256 397.427 163.391 398.43 163.442C398.515 163.446 398.599 163.452 398.684 163.457C399.118 163.482 399.497 163.538 399.855 163.553C400.453 163.579 400.991 163.492 401.629 162.961C401.844 162.782 402.016 162.626 402.308 162.577C402.339 162.572 402.415 162.544 402.567 162.551C402.723 162.56 402.871 162.602 403.004 162.691C403.515 163.031 403.588 163.855 403.614 164.457C403.629 164.801 403.671 165.633 403.685 165.872C403.718 166.418 403.861 166.495 404.152 166.591C404.315 166.645 404.467 166.685 404.69 166.747C405.366 166.937 405.767 167.13 406.02 167.377C406.171 167.532 406.241 167.696 406.263 167.853C406.343 168.435 405.811 169.154 404.404 169.807C402.866 170.521 401 170.701 399.711 170.558C399.612 170.547 399.26 170.507 399.259 170.507C398.228 170.368 397.64 171.701 398.258 172.614C398.657 173.202 399.744 173.585 400.831 173.586C403.323 173.586 405.239 172.521 405.952 171.602C405.973 171.575 405.975 171.572 406.009 171.521C406.044 171.468 406.015 171.439 405.971 171.469C405.389 171.867 402.803 173.449 400.037 172.973C400.037 172.973 399.701 172.918 399.394 172.798C399.15 172.704 398.64 172.469 398.578 171.945C400.81 172.636 402.216 171.983 402.216 171.983V171.983ZM389.954 166.678C389.178 166.829 388.494 167.269 388.075 167.876C387.825 167.668 387.359 167.264 387.277 167.107C386.609 165.838 388.006 163.372 388.982 161.979C391.394 158.537 395.171 155.932 396.92 156.405C397.204 156.485 398.146 157.577 398.146 157.577C398.146 157.577 396.398 158.547 394.777 159.899C392.593 161.581 390.943 164.025 389.954 166.678ZM391.259 172.498C391.141 172.518 391.021 172.526 390.901 172.524C389.732 172.492 388.471 171.441 388.345 170.193C388.207 168.815 388.911 167.754 390.158 167.502C390.307 167.472 390.487 167.455 390.682 167.465C391.38 167.503 392.41 168.04 392.645 169.562C392.854 170.91 392.523 172.283 391.259 172.498V172.498ZM407.083 170.057C407.073 170.022 407.007 169.784 406.918 169.497C406.828 169.209 406.736 169.007 406.736 169.007C407.095 168.469 407.101 167.988 407.054 167.716C407.003 167.378 406.862 167.09 406.579 166.793C406.295 166.496 405.716 166.191 404.901 165.962C404.808 165.936 404.501 165.852 404.474 165.844C404.472 165.826 404.451 164.836 404.433 164.411C404.419 164.104 404.393 163.624 404.244 163.152C404.067 162.513 403.758 161.953 403.372 161.595C404.436 160.492 405.101 159.277 405.099 158.234C405.096 156.229 402.634 155.622 399.599 156.879C399.596 156.88 398.961 157.15 398.956 157.152C398.953 157.149 397.794 156.011 397.777 155.996C394.317 152.979 383.5 165.002 386.958 167.922L387.714 168.563C387.518 169.07 387.441 169.652 387.504 170.278C387.585 171.082 387.999 171.852 388.671 172.447C389.309 173.012 390.148 173.37 390.961 173.369C392.307 176.471 395.382 178.374 398.988 178.481C402.855 178.595 406.102 176.781 407.462 173.521C407.551 173.292 407.929 172.261 407.929 171.351C407.929 170.436 407.412 170.057 407.083 170.057Z" fill="#9CA3AF"/>
</g>
<defs>
<clipPath id="clip0_4362_58302">
<rect width="90" height="19.6875" fill="white" transform="translate(118 157.156)"/>
</clipPath>
<clipPath id="clip1_4362_58302">
<rect width="86" height="23.541" fill="white" transform="translate(386 155.229)"/>
</clipPath>
</defs>
</svg>
