<svg width="536" height="340" viewBox="0 0 536 340" fill="none" xmlns="http://www.w3.org/2000/svg">
<rect width="536" height="340" fill="#111928"/>
<rect x="48.5" y="28.5" width="135" height="147" rx="4.5" fill="#1F2A37"/>
<rect x="48.5" y="28.5" width="135" height="147" rx="4.5" stroke="#374151"/>
<path d="M102.099 64.8182V46.6364H103.264V64.8182H102.099ZM104.904 52.8153C104.857 52.2945 104.646 51.8897 104.272 51.6009C103.903 51.3073 103.375 51.1605 102.689 51.1605C102.234 51.1605 101.855 51.2197 101.552 51.3381C101.249 51.4564 101.022 51.6198 100.87 51.8281C100.719 52.0317 100.641 52.2661 100.636 52.5312C100.627 52.7491 100.669 52.9408 100.764 53.1065C100.863 53.2723 101.005 53.419 101.19 53.5469C101.379 53.67 101.607 53.7789 101.872 53.8736C102.137 53.9683 102.435 54.0511 102.767 54.1222L104.017 54.4062C104.736 54.5625 105.371 54.7708 105.92 55.0312C106.474 55.2917 106.938 55.6018 107.312 55.9616C107.691 56.3215 107.977 56.7358 108.172 57.2045C108.366 57.6733 108.465 58.1989 108.47 58.7812C108.465 59.6998 108.233 60.4882 107.774 61.1463C107.315 61.8045 106.654 62.3087 105.792 62.6591C104.935 63.0095 103.901 63.1847 102.689 63.1847C101.472 63.1847 100.411 63.0024 99.5067 62.6378C98.6024 62.2732 97.8993 61.7192 97.3974 60.9759C96.8955 60.2325 96.6374 59.2926 96.6232 58.1562H99.9897C100.018 58.625 100.144 59.0156 100.366 59.3281C100.589 59.6406 100.894 59.8774 101.282 60.0384C101.675 60.1993 102.13 60.2798 102.646 60.2798C103.119 60.2798 103.522 60.2159 103.853 60.0881C104.19 59.9602 104.448 59.7827 104.627 59.5554C104.807 59.3281 104.9 59.0677 104.904 58.7741C104.9 58.4995 104.815 58.2652 104.649 58.071C104.483 57.8722 104.227 57.7017 103.882 57.5597C103.541 57.4129 103.105 57.2779 102.575 57.1548L101.055 56.7997C99.7956 56.5109 98.8036 56.0445 98.0792 55.4006C97.3548 54.7519 96.9949 53.8759 96.9996 52.7727C96.9949 51.8731 97.2364 51.0848 97.7241 50.4077C98.2118 49.7306 98.8865 49.2027 99.7482 48.8239C100.61 48.4451 101.592 48.2557 102.696 48.2557C103.823 48.2557 104.8 48.4474 105.629 48.831C106.462 49.2098 107.109 49.7424 107.568 50.429C108.027 51.1155 108.261 51.911 108.271 52.8153H104.904ZM115.693 48.2557C116.488 48.2557 117.248 48.3859 117.973 48.6463C118.697 48.902 119.343 49.3116 119.912 49.875C120.48 50.4337 120.927 51.17 121.254 52.0838C121.581 52.9976 121.744 54.1127 121.744 55.429C121.749 56.6411 121.607 57.7277 121.318 58.6889C121.029 59.6454 120.615 60.4598 120.075 61.1321C119.54 61.8045 118.896 62.3182 118.143 62.6733C117.39 63.0237 116.55 63.1989 115.622 63.1989C114.599 63.1989 113.697 63.0024 112.916 62.6094C112.139 62.2116 111.517 61.6766 111.048 61.0043C110.584 60.3319 110.307 59.5791 110.217 58.7457H113.676C113.785 59.2287 114.014 59.5933 114.365 59.8395C114.715 60.081 115.134 60.2017 115.622 60.2017C116.512 60.2017 117.177 59.8158 117.618 59.044C118.058 58.2723 118.278 57.2235 118.278 55.8977H118.193C117.989 56.3333 117.7 56.7074 117.326 57.0199C116.957 57.3324 116.529 57.5715 116.041 57.7372C115.553 57.9029 115.039 57.9858 114.5 57.9858C113.628 57.9858 112.859 57.7869 112.191 57.3892C111.529 56.9915 111.008 56.4446 110.629 55.7486C110.255 55.0526 110.065 54.2571 110.061 53.3622C110.056 52.3584 110.29 51.473 110.764 50.706C111.237 49.9342 111.898 49.3329 112.745 48.902C113.593 48.4664 114.575 48.2509 115.693 48.2557ZM115.714 50.9545C115.279 50.9545 114.89 51.0563 114.549 51.2599C114.213 51.4635 113.948 51.7382 113.754 52.0838C113.56 52.4295 113.465 52.8177 113.47 53.2486C113.475 53.6795 113.572 54.0677 113.761 54.4134C113.955 54.759 114.218 55.0336 114.549 55.2372C114.886 55.4408 115.269 55.5426 115.7 55.5426C116.022 55.5426 116.32 55.4834 116.595 55.3651C116.869 55.2467 117.109 55.0833 117.312 54.875C117.516 54.6619 117.674 54.4157 117.788 54.1364C117.906 53.857 117.963 53.5587 117.958 53.2415C117.954 52.8201 117.854 52.4366 117.66 52.0909C117.466 51.7453 117.199 51.4706 116.858 51.267C116.521 51.0587 116.14 50.9545 115.714 50.9545ZM129.15 48.2557C129.945 48.2557 130.705 48.3859 131.43 48.6463C132.154 48.902 132.8 49.3116 133.369 49.875C133.937 50.4337 134.384 51.17 134.711 52.0838C135.038 52.9976 135.201 54.1127 135.201 55.429C135.206 56.6411 135.064 57.7277 134.775 58.6889C134.486 59.6454 134.072 60.4598 133.532 61.1321C132.997 61.8045 132.353 62.3182 131.6 62.6733C130.847 63.0237 130.007 63.1989 129.079 63.1989C128.056 63.1989 127.154 63.0024 126.373 62.6094C125.596 62.2116 124.974 61.6766 124.505 61.0043C124.041 60.3319 123.764 59.5791 123.674 58.7457H127.133C127.242 59.2287 127.471 59.5933 127.822 59.8395C128.172 60.081 128.591 60.2017 129.079 60.2017C129.969 60.2017 130.634 59.8158 131.075 59.044C131.515 58.2723 131.735 57.2235 131.735 55.8977H131.65C131.446 56.3333 131.157 56.7074 130.783 57.0199C130.414 57.3324 129.986 57.5715 129.498 57.7372C129.01 57.9029 128.496 57.9858 127.957 57.9858C127.085 57.9858 126.316 57.7869 125.648 57.3892C124.986 56.9915 124.465 56.4446 124.086 55.7486C123.712 55.0526 123.522 54.2571 123.518 53.3622C123.513 52.3584 123.747 51.473 124.221 50.706C124.694 49.9342 125.355 49.3329 126.202 48.902C127.05 48.4664 128.032 48.2509 129.15 48.2557ZM129.171 50.9545C128.736 50.9545 128.347 51.0563 128.006 51.2599C127.67 51.4635 127.405 51.7382 127.211 52.0838C127.017 52.4295 126.922 52.8177 126.927 53.2486C126.932 53.6795 127.029 54.0677 127.218 54.4134C127.412 54.759 127.675 55.0336 128.006 55.2372C128.343 55.4408 128.726 55.5426 129.157 55.5426C129.479 55.5426 129.777 55.4834 130.052 55.3651C130.326 55.2467 130.566 55.0833 130.769 54.875C130.973 54.6619 131.131 54.4157 131.245 54.1364C131.363 53.857 131.42 53.5587 131.415 53.2415C131.411 52.8201 131.311 52.4366 131.117 52.0909C130.923 51.7453 130.656 51.4706 130.315 51.267C129.978 51.0587 129.597 50.9545 129.171 50.9545Z" fill="#6B7280"/>
<g clip-path="url(#clip0_4888_1872)">
<path d="M67.75 88L68.5833 88.8333L70.25 87.1667M72.75 88C72.75 88.4925 72.653 88.9801 72.4645 89.4351C72.2761 89.89 71.9999 90.3034 71.6516 90.6516C71.3034 90.9999 70.89 91.2761 70.4351 91.4645C69.9801 91.653 69.4925 91.75 69 91.75C68.5075 91.75 68.0199 91.653 67.5649 91.4645C67.11 91.2761 66.6966 90.9999 66.3483 90.6516C66.0001 90.3034 65.7239 89.89 65.5355 89.4351C65.347 88.9801 65.25 88.4925 65.25 88C65.25 87.0054 65.6451 86.0516 66.3483 85.3483C67.0516 84.6451 68.0054 84.25 69 84.25C69.9946 84.25 70.9484 84.6451 71.6516 85.3483C72.3549 86.0516 72.75 87.0054 72.75 88Z" stroke="#6B7280" stroke-linecap="round" stroke-linejoin="round"/>
</g>
<rect x="80" y="85" width="88" height="6" rx="3" fill="#6B7280"/>
<g clip-path="url(#clip1_4888_1872)">
<path d="M67.75 106L68.5833 106.833L70.25 105.167M72.75 106C72.75 106.492 72.653 106.98 72.4645 107.435C72.2761 107.89 71.9999 108.303 71.6516 108.652C71.3034 109 70.89 109.276 70.4351 109.465C69.9801 109.653 69.4925 109.75 69 109.75C68.5075 109.75 68.0199 109.653 67.5649 109.465C67.11 109.276 66.6966 109 66.3483 108.652C66.0001 108.303 65.7239 107.89 65.5355 107.435C65.347 106.98 65.25 106.492 65.25 106C65.25 105.005 65.6451 104.052 66.3483 103.348C67.0516 102.645 68.0054 102.25 69 102.25C69.9946 102.25 70.9484 102.645 71.6516 103.348C72.3549 104.052 72.75 105.005 72.75 106Z" stroke="#6B7280" stroke-linecap="round" stroke-linejoin="round"/>
</g>
<rect x="80" y="103" width="73" height="6" rx="3" fill="#6B7280"/>
<g clip-path="url(#clip2_4888_1872)">
<path d="M67.75 124L68.5833 124.833L70.25 123.167M72.75 124C72.75 124.492 72.653 124.98 72.4645 125.435C72.2761 125.89 71.9999 126.303 71.6516 126.652C71.3034 127 70.89 127.276 70.4351 127.465C69.9801 127.653 69.4925 127.75 69 127.75C68.5075 127.75 68.0199 127.653 67.5649 127.465C67.11 127.276 66.6966 127 66.3483 126.652C66.0001 126.303 65.7239 125.89 65.5355 125.435C65.347 124.98 65.25 124.492 65.25 124C65.25 123.005 65.6451 122.052 66.3483 121.348C67.0516 120.645 68.0054 120.25 69 120.25C69.9946 120.25 70.9484 120.645 71.6516 121.348C72.3549 122.052 72.75 123.005 72.75 124Z" stroke="#6B7280" stroke-linecap="round" stroke-linejoin="round"/>
</g>
<rect x="80" y="121" width="79" height="6" rx="3" fill="#6B7280"/>
<rect x="64" y="144" width="104" height="16" rx="3" fill="#6B7280"/>
<rect x="91" y="150" width="50" height="4" rx="1" fill="#D1D5DB"/>
<rect x="200.5" y="28.5" width="135" height="147" rx="4.5" fill="#1F2A37"/>
<rect x="200.5" y="28.5" width="135" height="147" rx="4.5" stroke="#374151"/>
<path d="M247.722 64.8182V46.6364H248.887V64.8182H247.722ZM250.528 52.8153C250.48 52.2945 250.269 51.8897 249.895 51.6009C249.526 51.3073 248.998 51.1605 248.312 51.1605C247.857 51.1605 247.478 51.2197 247.175 51.3381C246.872 51.4564 246.645 51.6198 246.493 51.8281C246.342 52.0317 246.264 52.2661 246.259 52.5312C246.25 52.7491 246.292 52.9408 246.387 53.1065C246.486 53.2723 246.628 53.419 246.813 53.5469C247.002 53.67 247.23 53.7789 247.495 53.8736C247.76 53.9683 248.058 54.0511 248.39 54.1222L249.64 54.4062C250.359 54.5625 250.994 54.7708 251.543 55.0312C252.097 55.2917 252.561 55.6018 252.935 55.9616C253.314 56.3215 253.6 56.7358 253.795 57.2045C253.989 57.6733 254.088 58.1989 254.093 58.7812C254.088 59.6998 253.856 60.4882 253.397 61.1463C252.938 61.8045 252.277 62.3087 251.415 62.6591C250.558 63.0095 249.524 63.1847 248.312 63.1847C247.095 63.1847 246.034 63.0024 245.13 62.6378C244.225 62.2732 243.522 61.7192 243.02 60.9759C242.519 60.2325 242.26 59.2926 242.246 58.1562H245.613C245.641 58.625 245.767 59.0156 245.989 59.3281C246.212 59.6406 246.517 59.8774 246.905 60.0384C247.298 60.1993 247.753 60.2798 248.269 60.2798C248.742 60.2798 249.145 60.2159 249.476 60.0881C249.813 59.9602 250.071 59.7827 250.251 59.5554C250.43 59.3281 250.523 59.0677 250.528 58.7741C250.523 58.4995 250.438 58.2652 250.272 58.071C250.106 57.8722 249.85 57.7017 249.505 57.5597C249.164 57.4129 248.728 57.2779 248.198 57.1548L246.678 56.7997C245.419 56.5109 244.427 56.0445 243.702 55.4006C242.978 54.7519 242.618 53.8759 242.623 52.7727C242.618 51.8731 242.859 51.0848 243.347 50.4077C243.835 49.7306 244.51 49.2027 245.371 48.8239C246.233 48.4451 247.215 48.2557 248.319 48.2557C249.446 48.2557 250.423 48.4474 251.252 48.831C252.085 49.2098 252.732 49.7424 253.191 50.429C253.65 51.1155 253.885 51.911 253.894 52.8153H250.528ZM255.84 63V60.4716L261.145 55.8267C261.543 55.4669 261.882 55.1378 262.161 54.8395C262.44 54.5365 262.653 54.2334 262.8 53.9304C262.947 53.6226 263.02 53.2888 263.02 52.929C263.02 52.5265 262.933 52.1832 262.758 51.8991C262.582 51.6103 262.341 51.3878 262.033 51.2315C261.725 51.0753 261.373 50.9972 260.975 50.9972C260.573 50.9972 260.22 51.08 259.917 51.2457C259.614 51.4067 259.377 51.6411 259.206 51.9489C259.041 52.2566 258.958 52.6307 258.958 53.071H255.627C255.627 52.0814 255.849 51.2268 256.295 50.5071C256.74 49.7874 257.365 49.2334 258.17 48.8452C258.979 48.4522 259.919 48.2557 260.989 48.2557C262.092 48.2557 263.051 48.4403 263.866 48.8097C264.68 49.179 265.31 49.6951 265.755 50.358C266.205 51.0161 266.43 51.7808 266.43 52.652C266.43 53.206 266.318 53.7552 266.096 54.2997C265.873 54.8442 265.473 55.4455 264.895 56.1037C264.323 56.7618 263.508 57.5502 262.452 58.4688L260.712 60.0739V60.1662H266.607V63H255.84ZM274.07 48.2557C274.865 48.2557 275.625 48.3859 276.35 48.6463C277.074 48.902 277.72 49.3116 278.289 49.875C278.857 50.4337 279.304 51.17 279.631 52.0838C279.958 52.9976 280.121 54.1127 280.121 55.429C280.126 56.6411 279.984 57.7277 279.695 58.6889C279.406 59.6454 278.992 60.4598 278.452 61.1321C277.917 61.8045 277.273 62.3182 276.52 62.6733C275.767 63.0237 274.927 63.1989 273.999 63.1989C272.976 63.1989 272.074 63.0024 271.293 62.6094C270.516 62.2116 269.894 61.6766 269.425 61.0043C268.961 60.3319 268.684 59.5791 268.594 58.7457H272.053C272.162 59.2287 272.391 59.5933 272.742 59.8395C273.092 60.081 273.511 60.2017 273.999 60.2017C274.889 60.2017 275.554 59.8158 275.994 59.044C276.435 58.2723 276.655 57.2235 276.655 55.8977H276.57C276.366 56.3333 276.077 56.7074 275.703 57.0199C275.334 57.3324 274.905 57.5715 274.418 57.7372C273.93 57.9029 273.416 57.9858 272.877 57.9858C272.005 57.9858 271.236 57.7869 270.568 57.3892C269.905 56.9915 269.385 56.4446 269.006 55.7486C268.632 55.0526 268.442 54.2571 268.438 53.3622C268.433 52.3584 268.667 51.473 269.141 50.706C269.614 49.9342 270.275 49.3329 271.122 48.902C271.97 48.4664 272.952 48.2509 274.07 48.2557ZM274.091 50.9545C273.655 50.9545 273.267 51.0563 272.926 51.2599C272.59 51.4635 272.325 51.7382 272.131 52.0838C271.937 52.4295 271.842 52.8177 271.847 53.2486C271.852 53.6795 271.949 54.0677 272.138 54.4134C272.332 54.759 272.595 55.0336 272.926 55.2372C273.262 55.4408 273.646 55.5426 274.077 55.5426C274.399 55.5426 274.697 55.4834 274.972 55.3651C275.246 55.2467 275.485 55.0833 275.689 54.875C275.893 54.6619 276.051 54.4157 276.165 54.1364C276.283 53.857 276.34 53.5587 276.335 53.2415C276.331 52.8201 276.231 52.4366 276.037 52.0909C275.843 51.7453 275.575 51.4706 275.235 51.267C274.898 51.0587 274.517 50.9545 274.091 50.9545ZM287.527 48.2557C288.322 48.2557 289.082 48.3859 289.807 48.6463C290.531 48.902 291.177 49.3116 291.746 49.875C292.314 50.4337 292.761 51.17 293.088 52.0838C293.415 52.9976 293.578 54.1127 293.578 55.429C293.583 56.6411 293.441 57.7277 293.152 58.6889C292.863 59.6454 292.449 60.4598 291.909 61.1321C291.374 61.8045 290.73 62.3182 289.977 62.6733C289.224 63.0237 288.384 63.1989 287.456 63.1989C286.433 63.1989 285.531 63.0024 284.75 62.6094C283.973 62.2116 283.351 61.6766 282.882 61.0043C282.418 60.3319 282.141 59.5791 282.051 58.7457H285.51C285.619 59.2287 285.848 59.5933 286.199 59.8395C286.549 60.081 286.968 60.2017 287.456 60.2017C288.346 60.2017 289.011 59.8158 289.452 59.044C289.892 58.2723 290.112 57.2235 290.112 55.8977H290.027C289.823 56.3333 289.534 56.7074 289.16 57.0199C288.791 57.3324 288.363 57.5715 287.875 57.7372C287.387 57.9029 286.873 57.9858 286.334 57.9858C285.462 57.9858 284.693 57.7869 284.025 57.3892C283.363 56.9915 282.842 56.4446 282.463 55.7486C282.089 55.0526 281.899 54.2571 281.895 53.3622C281.89 52.3584 282.124 51.473 282.598 50.706C283.071 49.9342 283.732 49.3329 284.579 48.902C285.427 48.4664 286.409 48.2509 287.527 48.2557ZM287.548 50.9545C287.113 50.9545 286.724 51.0563 286.383 51.2599C286.047 51.4635 285.782 51.7382 285.588 52.0838C285.394 52.4295 285.299 52.8177 285.304 53.2486C285.309 53.6795 285.406 54.0677 285.595 54.4134C285.789 54.759 286.052 55.0336 286.383 55.2372C286.72 55.4408 287.103 55.5426 287.534 55.5426C287.856 55.5426 288.154 55.4834 288.429 55.3651C288.703 55.2467 288.943 55.0833 289.146 54.875C289.35 54.6619 289.508 54.4157 289.622 54.1364C289.74 53.857 289.797 53.5587 289.792 53.2415C289.788 52.8201 289.688 52.4366 289.494 52.0909C289.3 51.7453 289.032 51.4706 288.692 51.267C288.355 51.0587 287.974 50.9545 287.548 50.9545Z" fill="#6B7280"/>
<g clip-path="url(#clip3_4888_1872)">
<path d="M219.75 88L220.583 88.8333L222.25 87.1667M224.75 88C224.75 88.4925 224.653 88.9801 224.465 89.4351C224.276 89.89 224 90.3034 223.652 90.6516C223.303 90.9999 222.89 91.2761 222.435 91.4645C221.98 91.653 221.492 91.75 221 91.75C220.508 91.75 220.02 91.653 219.565 91.4645C219.11 91.2761 218.697 90.9999 218.348 90.6516C218 90.3034 217.724 89.89 217.535 89.4351C217.347 88.9801 217.25 88.4925 217.25 88C217.25 87.0054 217.645 86.0516 218.348 85.3483C219.052 84.6451 220.005 84.25 221 84.25C221.995 84.25 222.948 84.6451 223.652 85.3483C224.355 86.0516 224.75 87.0054 224.75 88Z" stroke="#6B7280" stroke-linecap="round" stroke-linejoin="round"/>
</g>
<rect x="232" y="85" width="79" height="6" rx="3" fill="#6B7280"/>
<g clip-path="url(#clip4_4888_1872)">
<path d="M219.75 106L220.583 106.833L222.25 105.167M224.75 106C224.75 106.492 224.653 106.98 224.465 107.435C224.276 107.89 224 108.303 223.652 108.652C223.303 109 222.89 109.276 222.435 109.465C221.98 109.653 221.492 109.75 221 109.75C220.508 109.75 220.02 109.653 219.565 109.465C219.11 109.276 218.697 109 218.348 108.652C218 108.303 217.724 107.89 217.535 107.435C217.347 106.98 217.25 106.492 217.25 106C217.25 105.005 217.645 104.052 218.348 103.348C219.052 102.645 220.005 102.25 221 102.25C221.995 102.25 222.948 102.645 223.652 103.348C224.355 104.052 224.75 105.005 224.75 106Z" stroke="#6B7280" stroke-linecap="round" stroke-linejoin="round"/>
</g>
<rect x="232" y="103" width="73" height="6" rx="3" fill="#6B7280"/>
<g clip-path="url(#clip5_4888_1872)">
<path d="M219.75 124L220.583 124.833L222.25 123.167M224.75 124C224.75 124.492 224.653 124.98 224.465 125.435C224.276 125.89 224 126.303 223.652 126.652C223.303 127 222.89 127.276 222.435 127.465C221.98 127.653 221.492 127.75 221 127.75C220.508 127.75 220.02 127.653 219.565 127.465C219.11 127.276 218.697 127 218.348 126.652C218 126.303 217.724 125.89 217.535 125.435C217.347 124.98 217.25 124.492 217.25 124C217.25 123.005 217.645 122.052 218.348 121.348C219.052 120.645 220.005 120.25 221 120.25C221.995 120.25 222.948 120.645 223.652 121.348C224.355 122.052 224.75 123.005 224.75 124Z" stroke="#6B7280" stroke-linecap="round" stroke-linejoin="round"/>
</g>
<rect x="232" y="121" width="88" height="6" rx="3" fill="#6B7280"/>
<rect x="216" y="144" width="104" height="16" rx="3" fill="#6B7280"/>
<rect x="243" y="150" width="50" height="4" rx="1" fill="#D1D5DB"/>
<rect x="352.5" y="28.5" width="135" height="147" rx="4.5" fill="#1F2A37"/>
<rect x="352.5" y="28.5" width="135" height="147" rx="4.5" stroke="#374151"/>
<path d="M399.371 64.8182V46.6364H400.535V64.8182H399.371ZM402.176 52.8153C402.129 52.2945 401.918 51.8897 401.544 51.6009C401.175 51.3073 400.647 51.1605 399.96 51.1605C399.506 51.1605 399.127 51.2197 398.824 51.3381C398.521 51.4564 398.293 51.6198 398.142 51.8281C397.99 52.0317 397.912 52.2661 397.907 52.5312C397.898 52.7491 397.941 52.9408 398.035 53.1065C398.135 53.2723 398.277 53.419 398.461 53.5469C398.651 53.67 398.878 53.7789 399.143 53.8736C399.408 53.9683 399.707 54.0511 400.038 54.1222L401.288 54.4062C402.008 54.5625 402.642 54.7708 403.192 55.0312C403.746 55.2917 404.21 55.6018 404.584 55.9616C404.962 56.3215 405.249 56.7358 405.443 57.2045C405.637 57.6733 405.737 58.1989 405.741 58.7812C405.737 59.6998 405.505 60.4882 405.045 61.1463C404.586 61.8045 403.925 62.3087 403.064 62.6591C402.207 63.0095 401.172 63.1847 399.96 63.1847C398.743 63.1847 397.683 63.0024 396.778 62.6378C395.874 62.2732 395.171 61.7192 394.669 60.9759C394.167 60.2325 393.909 59.2926 393.895 58.1562H397.261C397.29 58.625 397.415 59.0156 397.638 59.3281C397.86 59.6406 398.166 59.8774 398.554 60.0384C398.947 60.1993 399.401 60.2798 399.917 60.2798C400.391 60.2798 400.793 60.2159 401.125 60.0881C401.461 59.9602 401.719 59.7827 401.899 59.5554C402.079 59.3281 402.171 59.0677 402.176 58.7741C402.171 58.4995 402.086 58.2652 401.92 58.071C401.755 57.8722 401.499 57.7017 401.153 57.5597C400.812 57.4129 400.377 57.2779 399.846 57.1548L398.327 56.7997C397.067 56.5109 396.075 56.0445 395.351 55.4006C394.626 54.7519 394.266 53.8759 394.271 52.7727C394.266 51.8731 394.508 51.0848 394.996 50.4077C395.483 49.7306 396.158 49.2027 397.02 48.8239C397.881 48.4451 398.864 48.2557 399.967 48.2557C401.094 48.2557 402.072 48.4474 402.9 48.831C403.734 49.2098 404.38 49.7424 404.839 50.429C405.299 51.1155 405.533 51.911 405.542 52.8153H402.176ZM412.964 48.2557C413.76 48.2557 414.52 48.3859 415.244 48.6463C415.969 48.902 416.615 49.3116 417.183 49.875C417.751 50.4337 418.199 51.17 418.525 52.0838C418.852 52.9976 419.015 54.1127 419.015 55.429C419.02 56.6411 418.878 57.7277 418.589 58.6889C418.3 59.6454 417.886 60.4598 417.346 61.1321C416.811 61.8045 416.167 62.3182 415.415 62.6733C414.662 63.0237 413.821 63.1989 412.893 63.1989C411.871 63.1989 410.969 63.0024 410.187 62.6094C409.411 62.2116 408.788 61.6766 408.319 61.0043C407.855 60.3319 407.578 59.5791 407.488 58.7457H410.947C411.056 59.2287 411.286 59.5933 411.636 59.8395C411.987 60.081 412.406 60.2017 412.893 60.2017C413.783 60.2017 414.449 59.8158 414.889 59.044C415.329 58.2723 415.55 57.2235 415.55 55.8977H415.464C415.261 56.3333 414.972 56.7074 414.598 57.0199C414.229 57.3324 413.8 57.5715 413.312 57.7372C412.825 57.9029 412.311 57.9858 411.771 57.9858C410.9 57.9858 410.131 57.7869 409.463 57.3892C408.8 56.9915 408.279 56.4446 407.9 55.7486C407.526 55.0526 407.337 54.2571 407.332 53.3622C407.327 52.3584 407.562 51.473 408.035 50.706C408.509 49.9342 409.169 49.3329 410.017 48.902C410.864 48.4664 411.847 48.2509 412.964 48.2557ZM412.986 50.9545C412.55 50.9545 412.162 51.0563 411.821 51.2599C411.485 51.4635 411.22 51.7382 411.025 52.0838C410.831 52.4295 410.737 52.8177 410.741 53.2486C410.746 53.6795 410.843 54.0677 411.032 54.4134C411.227 54.759 411.489 55.0336 411.821 55.2372C412.157 55.4408 412.541 55.5426 412.971 55.5426C413.293 55.5426 413.592 55.4834 413.866 55.3651C414.141 55.2467 414.38 55.0833 414.584 54.875C414.787 54.6619 414.946 54.4157 415.059 54.1364C415.178 53.857 415.235 53.5587 415.23 53.2415C415.225 52.8201 415.126 52.4366 414.932 52.0909C414.738 51.7453 414.47 51.4706 414.129 51.267C413.793 51.0587 413.412 50.9545 412.986 50.9545ZM426.421 48.2557C427.217 48.2557 427.977 48.3859 428.701 48.6463C429.426 48.902 430.072 49.3116 430.64 49.875C431.208 50.4337 431.656 51.17 431.982 52.0838C432.309 52.9976 432.472 54.1127 432.472 55.429C432.477 56.6411 432.335 57.7277 432.046 58.6889C431.758 59.6454 431.343 60.4598 430.803 61.1321C430.268 61.8045 429.624 62.3182 428.872 62.6733C428.119 63.0237 427.278 63.1989 426.35 63.1989C425.328 63.1989 424.426 63.0024 423.644 62.6094C422.868 62.2116 422.245 61.6766 421.776 61.0043C421.312 60.3319 421.035 59.5791 420.945 58.7457H424.404C424.513 59.2287 424.743 59.5933 425.093 59.8395C425.444 60.081 425.863 60.2017 426.35 60.2017C427.24 60.2017 427.906 59.8158 428.346 59.044C428.786 58.2723 429.007 57.2235 429.007 55.8977H428.921C428.718 56.3333 428.429 56.7074 428.055 57.0199C427.686 57.3324 427.257 57.5715 426.769 57.7372C426.282 57.9029 425.768 57.9858 425.228 57.9858C424.357 57.9858 423.588 57.7869 422.92 57.3892C422.257 56.9915 421.736 56.4446 421.357 55.7486C420.983 55.0526 420.794 54.2571 420.789 53.3622C420.785 52.3584 421.019 51.473 421.492 50.706C421.966 49.9342 422.626 49.3329 423.474 48.902C424.321 48.4664 425.304 48.2509 426.421 48.2557ZM426.443 50.9545C426.007 50.9545 425.619 51.0563 425.278 51.2599C424.942 51.4635 424.677 51.7382 424.482 52.0838C424.288 52.4295 424.194 52.8177 424.198 53.2486C424.203 53.6795 424.3 54.0677 424.49 54.4134C424.684 54.759 424.946 55.0336 425.278 55.2372C425.614 55.4408 425.998 55.5426 426.428 55.5426C426.75 55.5426 427.049 55.4834 427.323 55.3651C427.598 55.2467 427.837 55.0833 428.041 54.875C428.244 54.6619 428.403 54.4157 428.517 54.1364C428.635 53.857 428.692 53.5587 428.687 53.2415C428.682 52.8201 428.583 52.4366 428.389 52.0909C428.195 51.7453 427.927 51.4706 427.586 51.267C427.25 51.0587 426.869 50.9545 426.443 50.9545ZM439.878 48.2557C440.674 48.2557 441.434 48.3859 442.158 48.6463C442.883 48.902 443.529 49.3116 444.097 49.875C444.665 50.4337 445.113 51.17 445.439 52.0838C445.766 52.9976 445.93 54.1127 445.93 55.429C445.934 56.6411 445.792 57.7277 445.503 58.6889C445.215 59.6454 444.8 60.4598 444.26 61.1321C443.725 61.8045 443.081 62.3182 442.329 62.6733C441.576 63.0237 440.735 63.1989 439.807 63.1989C438.785 63.1989 437.883 63.0024 437.101 62.6094C436.325 62.2116 435.702 61.6766 435.233 61.0043C434.769 60.3319 434.492 59.5791 434.403 58.7457H437.861C437.97 59.2287 438.2 59.5933 438.55 59.8395C438.901 60.081 439.32 60.2017 439.807 60.2017C440.698 60.2017 441.363 59.8158 441.803 59.044C442.243 58.2723 442.464 57.2235 442.464 55.8977H442.378C442.175 56.3333 441.886 56.7074 441.512 57.0199C441.143 57.3324 440.714 57.5715 440.226 57.7372C439.739 57.9029 439.225 57.9858 438.685 57.9858C437.814 57.9858 437.045 57.7869 436.377 57.3892C435.714 56.9915 435.193 56.4446 434.814 55.7486C434.44 55.0526 434.251 54.2571 434.246 53.3622C434.242 52.3584 434.476 51.473 434.949 50.706C435.423 49.9342 436.083 49.3329 436.931 48.902C437.778 48.4664 438.761 48.2509 439.878 48.2557ZM439.9 50.9545C439.464 50.9545 439.076 51.0563 438.735 51.2599C438.399 51.4635 438.134 51.7382 437.939 52.0838C437.745 52.4295 437.651 52.8177 437.655 53.2486C437.66 53.6795 437.757 54.0677 437.947 54.4134C438.141 54.759 438.403 55.0336 438.735 55.2372C439.071 55.4408 439.455 55.5426 439.885 55.5426C440.207 55.5426 440.506 55.4834 440.78 55.3651C441.055 55.2467 441.294 55.0833 441.498 54.875C441.701 54.6619 441.86 54.4157 441.974 54.1364C442.092 53.857 442.149 53.5587 442.144 53.2415C442.139 52.8201 442.04 52.4366 441.846 52.0909C441.652 51.7453 441.384 51.4706 441.043 51.267C440.707 51.0587 440.326 50.9545 439.9 50.9545Z" fill="#6B7280"/>
<g clip-path="url(#clip6_4888_1872)">
<path d="M371.75 88L372.583 88.8333L374.25 87.1667M376.75 88C376.75 88.4925 376.653 88.9801 376.465 89.4351C376.276 89.89 376 90.3034 375.652 90.6516C375.303 90.9999 374.89 91.2761 374.435 91.4645C373.98 91.653 373.492 91.75 373 91.75C372.508 91.75 372.02 91.653 371.565 91.4645C371.11 91.2761 370.697 90.9999 370.348 90.6516C370 90.3034 369.724 89.89 369.535 89.4351C369.347 88.9801 369.25 88.4925 369.25 88C369.25 87.0054 369.645 86.0516 370.348 85.3483C371.052 84.6451 372.005 84.25 373 84.25C373.995 84.25 374.948 84.6451 375.652 85.3483C376.355 86.0516 376.75 87.0054 376.75 88Z" stroke="#6B7280" stroke-linecap="round" stroke-linejoin="round"/>
</g>
<rect x="384" y="85" width="88" height="6" rx="3" fill="#6B7280"/>
<g clip-path="url(#clip7_4888_1872)">
<path d="M371.75 106L372.583 106.833L374.25 105.167M376.75 106C376.75 106.492 376.653 106.98 376.465 107.435C376.276 107.89 376 108.303 375.652 108.652C375.303 109 374.89 109.276 374.435 109.465C373.98 109.653 373.492 109.75 373 109.75C372.508 109.75 372.02 109.653 371.565 109.465C371.11 109.276 370.697 109 370.348 108.652C370 108.303 369.724 107.89 369.535 107.435C369.347 106.98 369.25 106.492 369.25 106C369.25 105.005 369.645 104.052 370.348 103.348C371.052 102.645 372.005 102.25 373 102.25C373.995 102.25 374.948 102.645 375.652 103.348C376.355 104.052 376.75 105.005 376.75 106Z" stroke="#6B7280" stroke-linecap="round" stroke-linejoin="round"/>
</g>
<rect x="384" y="103" width="73" height="6" rx="3" fill="#6B7280"/>
<g clip-path="url(#clip8_4888_1872)">
<path d="M371.75 124L372.583 124.833L374.25 123.167M376.75 124C376.75 124.492 376.653 124.98 376.465 125.435C376.276 125.89 376 126.303 375.652 126.652C375.303 127 374.89 127.276 374.435 127.465C373.98 127.653 373.492 127.75 373 127.75C372.508 127.75 372.02 127.653 371.565 127.465C371.11 127.276 370.697 127 370.348 126.652C370 126.303 369.724 125.89 369.535 125.435C369.347 124.98 369.25 124.492 369.25 124C369.25 123.005 369.645 122.052 370.348 121.348C371.052 120.645 372.005 120.25 373 120.25C373.995 120.25 374.948 120.645 375.652 121.348C376.355 122.052 376.75 123.005 376.75 124Z" stroke="#6B7280" stroke-linecap="round" stroke-linejoin="round"/>
</g>
<rect x="384" y="121" width="79" height="6" rx="3" fill="#6B7280"/>
<rect x="368" y="144" width="104" height="16" rx="3" fill="#6B7280"/>
<rect x="395" y="150" width="50" height="4" rx="1" fill="#D1D5DB"/>
<g clip-path="url(#clip9_4888_1872)">
<path d="M484 231.5H52V232.5H484V231.5Z" fill="#374151" mask="url(#path-32-inside-1_4888_1872)"/>
<rect x="52" y="209" width="65" height="6" rx="2" fill="#6B7280"/>
<path fill-rule="evenodd" clip-rule="evenodd" d="M213.195 208.705C213.326 208.836 213.4 209.014 213.4 209.2C213.4 209.386 213.326 209.564 213.195 209.695L207.595 215.295C207.463 215.426 207.285 215.5 207.1 215.5C206.914 215.5 206.736 215.426 206.605 215.295L203.805 212.495C203.677 212.363 203.607 212.186 203.608 212.003C203.61 211.819 203.684 211.644 203.813 211.514C203.943 211.384 204.119 211.31 204.302 211.309C204.486 211.307 204.663 211.378 204.795 211.505L207.1 213.81L212.205 208.705C212.336 208.574 212.514 208.5 212.7 208.5C212.885 208.5 213.063 208.574 213.195 208.705Z" fill="#6B7280"/>
<path fill-rule="evenodd" clip-rule="evenodd" d="M294.005 208.005C294.137 207.874 294.315 207.8 294.5 207.8C294.686 207.8 294.864 207.874 294.995 208.005L298 211.01L301.005 208.005C301.07 207.938 301.147 207.885 301.232 207.848C301.318 207.812 301.41 207.792 301.503 207.792C301.596 207.791 301.688 207.808 301.774 207.844C301.86 207.879 301.938 207.931 302.004 207.997C302.069 208.062 302.121 208.14 302.157 208.226C302.192 208.312 302.21 208.405 302.209 208.498C302.208 208.591 302.189 208.682 302.152 208.768C302.115 208.853 302.062 208.93 301.995 208.995L298.99 212L301.995 215.005C302.123 215.137 302.193 215.314 302.192 215.498C302.19 215.681 302.116 215.857 301.987 215.986C301.857 216.116 301.681 216.19 301.498 216.191C301.314 216.193 301.137 216.123 301.005 215.995L298 212.99L294.995 215.995C294.863 216.123 294.686 216.193 294.503 216.191C294.319 216.19 294.144 216.116 294.014 215.986C293.884 215.857 293.81 215.681 293.809 215.498C293.807 215.314 293.878 215.137 294.005 215.005L297.01 212L294.005 208.995C293.874 208.864 293.8 208.686 293.8 208.5C293.8 208.314 293.874 208.136 294.005 208.005Z" fill="#6B7280"/>
<path fill-rule="evenodd" clip-rule="evenodd" d="M392.195 208.705C392.326 208.836 392.4 209.014 392.4 209.2C392.4 209.386 392.326 209.564 392.195 209.695L386.595 215.295C386.463 215.426 386.285 215.5 386.1 215.5C385.914 215.5 385.736 215.426 385.605 215.295L382.805 212.495C382.677 212.363 382.607 212.186 382.608 212.003C382.61 211.819 382.684 211.644 382.813 211.514C382.943 211.384 383.119 211.31 383.302 211.309C383.486 211.307 383.663 211.378 383.795 211.505L386.1 213.81L391.205 208.705C391.336 208.574 391.514 208.5 391.7 208.5C391.885 208.5 392.063 208.574 392.195 208.705Z" fill="#6B7280"/>
<path fill-rule="evenodd" clip-rule="evenodd" d="M481.695 208.705C481.826 208.836 481.9 209.014 481.9 209.2C481.9 209.386 481.826 209.564 481.695 209.695L476.095 215.295C475.963 215.426 475.785 215.5 475.6 215.5C475.414 215.5 475.236 215.426 475.105 215.295L472.305 212.495C472.177 212.363 472.107 212.186 472.108 212.003C472.11 211.819 472.184 211.644 472.313 211.514C472.443 211.384 472.619 211.31 472.802 211.309C472.986 211.307 473.163 211.378 473.295 211.505L475.6 213.81L480.705 208.705C480.836 208.574 481.014 208.5 481.2 208.5C481.385 208.5 481.563 208.574 481.695 208.705Z" fill="#6B7280"/>
<path d="M484 271.5H52V272.5H484V271.5Z" fill="#374151" mask="url(#path-39-inside-2_4888_1872)"/>
<rect x="52" y="249" width="74" height="6" rx="2" fill="#6B7280"/>
<path fill-rule="evenodd" clip-rule="evenodd" d="M213.195 248.705C213.326 248.836 213.4 249.014 213.4 249.2C213.4 249.386 213.326 249.564 213.195 249.695L207.595 255.295C207.463 255.426 207.285 255.5 207.1 255.5C206.914 255.5 206.736 255.426 206.605 255.295L203.805 252.495C203.677 252.363 203.607 252.186 203.608 252.003C203.61 251.819 203.684 251.644 203.813 251.514C203.943 251.384 204.119 251.31 204.302 251.309C204.486 251.307 204.663 251.378 204.795 251.505L207.1 253.81L212.205 248.705C212.336 248.574 212.514 248.5 212.7 248.5C212.885 248.5 213.063 248.574 213.195 248.705Z" fill="#6B7280"/>
<path fill-rule="evenodd" clip-rule="evenodd" d="M302.695 248.705C302.826 248.836 302.9 249.014 302.9 249.2C302.9 249.386 302.826 249.564 302.695 249.695L297.095 255.295C296.963 255.426 296.785 255.5 296.6 255.5C296.414 255.5 296.236 255.426 296.105 255.295L293.305 252.495C293.177 252.363 293.107 252.186 293.108 252.003C293.11 251.819 293.184 251.644 293.313 251.514C293.443 251.384 293.619 251.31 293.802 251.309C293.986 251.307 294.163 251.378 294.295 251.505L296.6 253.81L301.705 248.705C301.836 248.574 302.014 248.5 302.2 248.5C302.385 248.5 302.563 248.574 302.695 248.705Z" fill="#6B7280"/>
<path fill-rule="evenodd" clip-rule="evenodd" d="M383.505 248.005C383.637 247.874 383.815 247.8 384 247.8C384.186 247.8 384.364 247.874 384.495 248.005L387.5 251.01L390.505 248.005C390.57 247.938 390.647 247.885 390.732 247.848C390.818 247.812 390.91 247.792 391.003 247.792C391.096 247.791 391.188 247.808 391.274 247.844C391.36 247.879 391.438 247.931 391.504 247.997C391.569 248.062 391.621 248.14 391.657 248.226C391.692 248.312 391.71 248.405 391.709 248.498C391.708 248.591 391.689 248.682 391.652 248.768C391.615 248.853 391.562 248.93 391.495 248.995L388.49 252L391.495 255.005C391.623 255.137 391.693 255.314 391.692 255.498C391.69 255.681 391.616 255.857 391.487 255.986C391.357 256.116 391.181 256.19 390.998 256.191C390.814 256.193 390.637 256.123 390.505 255.995L387.5 252.99L384.495 255.995C384.363 256.123 384.186 256.193 384.003 256.191C383.819 256.19 383.644 256.116 383.514 255.986C383.384 255.857 383.31 255.681 383.309 255.498C383.307 255.314 383.378 255.137 383.505 255.005L386.51 252L383.505 248.995C383.374 248.864 383.3 248.686 383.3 248.5C383.3 248.314 383.374 248.136 383.505 248.005Z" fill="#6B7280"/>
<path fill-rule="evenodd" clip-rule="evenodd" d="M481.695 248.705C481.826 248.836 481.9 249.014 481.9 249.2C481.9 249.386 481.826 249.564 481.695 249.695L476.095 255.295C475.963 255.426 475.785 255.5 475.6 255.5C475.414 255.5 475.236 255.426 475.105 255.295L472.305 252.495C472.177 252.363 472.107 252.186 472.108 252.003C472.11 251.819 472.184 251.644 472.313 251.514C472.443 251.384 472.619 251.31 472.802 251.309C472.986 251.307 473.163 251.378 473.295 251.505L475.6 253.81L480.705 248.705C480.836 248.574 481.014 248.5 481.2 248.5C481.385 248.5 481.563 248.574 481.695 248.705Z" fill="#6B7280"/>
<rect x="52" y="289" width="57" height="6" rx="2" fill="#6B7280"/>
<path fill-rule="evenodd" clip-rule="evenodd" d="M204.505 288.005C204.637 287.874 204.815 287.8 205 287.8C205.186 287.8 205.364 287.874 205.495 288.005L208.5 291.01L211.505 288.005C211.57 287.938 211.647 287.885 211.732 287.848C211.818 287.812 211.91 287.792 212.003 287.792C212.096 287.791 212.188 287.808 212.274 287.844C212.36 287.879 212.438 287.931 212.504 287.997C212.569 288.062 212.621 288.14 212.657 288.226C212.692 288.312 212.71 288.405 212.709 288.498C212.708 288.591 212.689 288.682 212.652 288.768C212.615 288.853 212.562 288.93 212.495 288.995L209.49 292L212.495 295.005C212.623 295.137 212.693 295.314 212.692 295.498C212.69 295.681 212.616 295.857 212.487 295.986C212.357 296.116 212.181 296.19 211.998 296.191C211.814 296.193 211.637 296.123 211.505 295.995L208.5 292.99L205.495 295.995C205.363 296.123 205.186 296.193 205.003 296.191C204.819 296.19 204.644 296.116 204.514 295.986C204.384 295.857 204.31 295.681 204.309 295.498C204.307 295.314 204.378 295.137 204.505 295.005L207.51 292L204.505 288.995C204.374 288.864 204.3 288.686 204.3 288.5C204.3 288.314 204.374 288.136 204.505 288.005Z" fill="#6B7280"/>
<path fill-rule="evenodd" clip-rule="evenodd" d="M302.695 288.705C302.826 288.836 302.9 289.014 302.9 289.2C302.9 289.386 302.826 289.564 302.695 289.695L297.095 295.295C296.963 295.426 296.785 295.5 296.6 295.5C296.414 295.5 296.236 295.426 296.105 295.295L293.305 292.495C293.177 292.363 293.107 292.186 293.108 292.003C293.11 291.819 293.184 291.644 293.313 291.514C293.443 291.384 293.619 291.31 293.802 291.309C293.986 291.307 294.163 291.378 294.295 291.505L296.6 293.81L301.705 288.705C301.836 288.574 302.014 288.5 302.2 288.5C302.385 288.5 302.563 288.574 302.695 288.705Z" fill="#6B7280"/>
<path fill-rule="evenodd" clip-rule="evenodd" d="M392.195 288.705C392.326 288.836 392.4 289.014 392.4 289.2C392.4 289.386 392.326 289.564 392.195 289.695L386.595 295.295C386.463 295.426 386.285 295.5 386.1 295.5C385.914 295.5 385.736 295.426 385.605 295.295L382.805 292.495C382.677 292.363 382.607 292.186 382.608 292.003C382.61 291.819 382.684 291.644 382.813 291.514C382.943 291.384 383.119 291.31 383.302 291.309C383.486 291.307 383.663 291.378 383.795 291.505L386.1 293.81L391.205 288.705C391.336 288.574 391.514 288.5 391.7 288.5C391.885 288.5 392.063 288.574 392.195 288.705Z" fill="#6B7280"/>
<path fill-rule="evenodd" clip-rule="evenodd" d="M473.005 288.005C473.137 287.874 473.315 287.8 473.5 287.8C473.686 287.8 473.864 287.874 473.995 288.005L477 291.01L480.005 288.005C480.07 287.938 480.147 287.885 480.232 287.848C480.318 287.812 480.41 287.792 480.503 287.792C480.596 287.791 480.688 287.808 480.774 287.844C480.86 287.879 480.938 287.931 481.004 287.997C481.069 288.062 481.121 288.14 481.157 288.226C481.192 288.312 481.21 288.405 481.209 288.498C481.208 288.591 481.189 288.682 481.152 288.768C481.115 288.853 481.062 288.93 480.995 288.995L477.99 292L480.995 295.005C481.123 295.137 481.193 295.314 481.192 295.498C481.19 295.681 481.116 295.857 480.987 295.986C480.857 296.116 480.681 296.19 480.498 296.191C480.314 296.193 480.137 296.123 480.005 295.995L477 292.99L473.995 295.995C473.863 296.123 473.686 296.193 473.503 296.191C473.319 296.19 473.144 296.116 473.014 295.986C472.884 295.857 472.81 295.681 472.809 295.498C472.807 295.314 472.878 295.137 473.005 295.005L476.01 292L473.005 288.995C472.874 288.864 472.8 288.686 472.8 288.5C472.8 288.314 472.874 288.136 473.005 288.005Z" fill="#6B7280"/>
</g>
<defs>
<clipPath id="clip0_4888_1872">
<rect width="10" height="10" fill="white" transform="translate(64 83)"/>
</clipPath>
<clipPath id="clip1_4888_1872">
<rect width="10" height="10" fill="white" transform="translate(64 101)"/>
</clipPath>
<clipPath id="clip2_4888_1872">
<rect width="10" height="10" fill="white" transform="translate(64 119)"/>
</clipPath>
<clipPath id="clip3_4888_1872">
<rect width="10" height="10" fill="white" transform="translate(216 83)"/>
</clipPath>
<clipPath id="clip4_4888_1872">
<rect width="10" height="10" fill="white" transform="translate(216 101)"/>
</clipPath>
<clipPath id="clip5_4888_1872">
<rect width="10" height="10" fill="white" transform="translate(216 119)"/>
</clipPath>
<clipPath id="clip6_4888_1872">
<rect width="10" height="10" fill="white" transform="translate(368 83)"/>
</clipPath>
<clipPath id="clip7_4888_1872">
<rect width="10" height="10" fill="white" transform="translate(368 101)"/>
</clipPath>
<clipPath id="clip8_4888_1872">
<rect width="10" height="10" fill="white" transform="translate(368 119)"/>
</clipPath>
<clipPath id="clip9_4888_1872">
<rect x="52" y="192" width="432" height="120" rx="8" fill="white"/>
</clipPath>
</defs>
</svg>
