<svg width="536" height="340" viewBox="0 0 536 340" fill="none" xmlns="http://www.w3.org/2000/svg">
<rect width="536" height="340" fill="#111928"/>
<rect x="211.5" y="37.5" width="113" height="10" rx="5" fill="#6B7280"/>
<rect x="162" y="63.5" width="212" height="8" rx="4" fill="#4B5563"/>
<rect x="196.5" y="77.5" width="143" height="8" rx="4" fill="#4B5563"/>
<rect x="48.5" y="118" width="135" height="184" rx="4.5" fill="#1F2A37"/>
<rect x="48.5" y="118" width="135" height="184" rx="4.5" stroke="#374151"/>
<rect x="97.5" y="133.5" width="37" height="7" rx="2" fill="#6B7280"/>
<path d="M102.099 173.318V155.136H103.264V173.318H102.099ZM104.904 161.315C104.857 160.795 104.646 160.39 104.272 160.101C103.903 159.807 103.375 159.661 102.689 159.661C102.234 159.661 101.855 159.72 101.552 159.838C101.249 159.956 101.022 160.12 100.87 160.328C100.719 160.532 100.641 160.766 100.636 161.031C100.627 161.249 100.669 161.441 100.764 161.607C100.863 161.772 101.005 161.919 101.19 162.047C101.379 162.17 101.607 162.279 101.872 162.374C102.137 162.468 102.435 162.551 102.767 162.622L104.017 162.906C104.736 163.062 105.371 163.271 105.92 163.531C106.474 163.792 106.938 164.102 107.312 164.462C107.691 164.821 107.977 165.236 108.172 165.705C108.366 166.173 108.465 166.699 108.47 167.281C108.465 168.2 108.233 168.988 107.774 169.646C107.315 170.304 106.654 170.809 105.792 171.159C104.935 171.509 103.901 171.685 102.689 171.685C101.472 171.685 100.411 171.502 99.5067 171.138C98.6024 170.773 97.8993 170.219 97.3974 169.476C96.8955 168.732 96.6374 167.793 96.6232 166.656H99.9897C100.018 167.125 100.144 167.516 100.366 167.828C100.589 168.141 100.894 168.377 101.282 168.538C101.675 168.699 102.13 168.78 102.646 168.78C103.119 168.78 103.522 168.716 103.853 168.588C104.19 168.46 104.448 168.283 104.627 168.055C104.807 167.828 104.9 167.568 104.904 167.274C104.9 167 104.815 166.765 104.649 166.571C104.483 166.372 104.227 166.202 103.882 166.06C103.541 165.913 103.105 165.778 102.575 165.655L101.055 165.3C99.7956 165.011 98.8036 164.545 98.0792 163.901C97.3548 163.252 96.9949 162.376 96.9996 161.273C96.9949 160.373 97.2364 159.585 97.7241 158.908C98.2118 158.231 98.8865 157.703 99.7482 157.324C100.61 156.945 101.592 156.756 102.696 156.756C103.823 156.756 104.8 156.947 105.629 157.331C106.462 157.71 107.109 158.242 107.568 158.929C108.027 159.616 108.261 160.411 108.271 161.315H104.904ZM115.693 156.756C116.488 156.756 117.248 156.886 117.973 157.146C118.697 157.402 119.343 157.812 119.912 158.375C120.48 158.934 120.927 159.67 121.254 160.584C121.581 161.498 121.744 162.613 121.744 163.929C121.749 165.141 121.607 166.228 121.318 167.189C121.029 168.145 120.615 168.96 120.075 169.632C119.54 170.304 118.896 170.818 118.143 171.173C117.39 171.524 116.55 171.699 115.622 171.699C114.599 171.699 113.697 171.502 112.916 171.109C112.139 170.712 111.517 170.177 111.048 169.504C110.584 168.832 110.307 168.079 110.217 167.246H113.676C113.785 167.729 114.014 168.093 114.365 168.339C114.715 168.581 115.134 168.702 115.622 168.702C116.512 168.702 117.177 168.316 117.618 167.544C118.058 166.772 118.278 165.723 118.278 164.398H118.193C117.989 164.833 117.7 165.207 117.326 165.52C116.957 165.832 116.529 166.071 116.041 166.237C115.553 166.403 115.039 166.486 114.5 166.486C113.628 166.486 112.859 166.287 112.191 165.889C111.529 165.491 111.008 164.945 110.629 164.249C110.255 163.553 110.065 162.757 110.061 161.862C110.056 160.858 110.29 159.973 110.764 159.206C111.237 158.434 111.898 157.833 112.745 157.402C113.593 156.966 114.575 156.751 115.693 156.756ZM115.714 159.455C115.279 159.455 114.89 159.556 114.549 159.76C114.213 159.964 113.948 160.238 113.754 160.584C113.56 160.929 113.465 161.318 113.47 161.749C113.475 162.179 113.572 162.568 113.761 162.913C113.955 163.259 114.218 163.534 114.549 163.737C114.886 163.941 115.269 164.043 115.7 164.043C116.022 164.043 116.32 163.983 116.595 163.865C116.869 163.747 117.109 163.583 117.312 163.375C117.516 163.162 117.674 162.916 117.788 162.636C117.906 162.357 117.963 162.059 117.958 161.741C117.954 161.32 117.854 160.937 117.66 160.591C117.466 160.245 117.199 159.971 116.858 159.767C116.521 159.559 116.14 159.455 115.714 159.455ZM129.15 156.756C129.945 156.756 130.705 156.886 131.43 157.146C132.154 157.402 132.8 157.812 133.369 158.375C133.937 158.934 134.384 159.67 134.711 160.584C135.038 161.498 135.201 162.613 135.201 163.929C135.206 165.141 135.064 166.228 134.775 167.189C134.486 168.145 134.072 168.96 133.532 169.632C132.997 170.304 132.353 170.818 131.6 171.173C130.847 171.524 130.007 171.699 129.079 171.699C128.056 171.699 127.154 171.502 126.373 171.109C125.596 170.712 124.974 170.177 124.505 169.504C124.041 168.832 123.764 168.079 123.674 167.246H127.133C127.242 167.729 127.471 168.093 127.822 168.339C128.172 168.581 128.591 168.702 129.079 168.702C129.969 168.702 130.634 168.316 131.075 167.544C131.515 166.772 131.735 165.723 131.735 164.398H131.65C131.446 164.833 131.157 165.207 130.783 165.52C130.414 165.832 129.986 166.071 129.498 166.237C129.01 166.403 128.496 166.486 127.957 166.486C127.085 166.486 126.316 166.287 125.648 165.889C124.986 165.491 124.465 164.945 124.086 164.249C123.712 163.553 123.522 162.757 123.518 161.862C123.513 160.858 123.747 159.973 124.221 159.206C124.694 158.434 125.355 157.833 126.202 157.402C127.05 156.966 128.032 156.751 129.15 156.756ZM129.171 159.455C128.736 159.455 128.347 159.556 128.006 159.76C127.67 159.964 127.405 160.238 127.211 160.584C127.017 160.929 126.922 161.318 126.927 161.749C126.932 162.179 127.029 162.568 127.218 162.913C127.412 163.259 127.675 163.534 128.006 163.737C128.343 163.941 128.726 164.043 129.157 164.043C129.479 164.043 129.777 163.983 130.052 163.865C130.326 163.747 130.566 163.583 130.769 163.375C130.973 163.162 131.131 162.916 131.245 162.636C131.363 162.357 131.42 162.059 131.415 161.741C131.411 161.32 131.311 160.937 131.117 160.591C130.923 160.245 130.656 159.971 130.315 159.767C129.978 159.559 129.597 159.455 129.171 159.455Z" fill="#9CA3AF"/>
<path d="M67.75 196.5L68.5833 197.333L70.25 195.667M72.75 196.5C72.75 196.992 72.653 197.48 72.4645 197.935C72.2761 198.39 71.9999 198.803 71.6516 199.152C71.3034 199.5 70.89 199.776 70.4351 199.965C69.9801 200.153 69.4925 200.25 69 200.25C68.5075 200.25 68.0199 200.153 67.5649 199.965C67.11 199.776 66.6966 199.5 66.3483 199.152C66.0001 198.803 65.7239 198.39 65.5355 197.935C65.347 197.48 65.25 196.992 65.25 196.5C65.25 195.505 65.6451 194.552 66.3483 193.848C67.0516 193.145 68.0054 192.75 69 192.75C69.9946 192.75 70.9484 193.145 71.6516 193.848C72.3549 194.552 72.75 195.505 72.75 196.5Z" stroke="#6B7280" stroke-linecap="round" stroke-linejoin="round"/>
<rect x="80" y="193.5" width="88" height="6" rx="3" fill="#6B7280"/>
<path d="M67.75 214.5L68.5833 215.333L70.25 213.667M72.75 214.5C72.75 214.992 72.653 215.48 72.4645 215.935C72.2761 216.39 71.9999 216.803 71.6516 217.152C71.3034 217.5 70.89 217.776 70.4351 217.965C69.9801 218.153 69.4925 218.25 69 218.25C68.5075 218.25 68.0199 218.153 67.5649 217.965C67.11 217.776 66.6966 217.5 66.3483 217.152C66.0001 216.803 65.7239 216.39 65.5355 215.935C65.347 215.48 65.25 214.992 65.25 214.5C65.25 213.505 65.6451 212.552 66.3483 211.848C67.0516 211.145 68.0054 210.75 69 210.75C69.9946 210.75 70.9484 211.145 71.6516 211.848C72.3549 212.552 72.75 213.505 72.75 214.5Z" stroke="#6B7280" stroke-linecap="round" stroke-linejoin="round"/>
<rect x="80" y="211.5" width="73" height="6" rx="3" fill="#6B7280"/>
<path d="M67.75 232.5L68.5833 233.333L70.25 231.667M72.75 232.5C72.75 232.992 72.653 233.48 72.4645 233.935C72.2761 234.39 71.9999 234.803 71.6516 235.152C71.3034 235.5 70.89 235.776 70.4351 235.965C69.9801 236.153 69.4925 236.25 69 236.25C68.5075 236.25 68.0199 236.153 67.5649 235.965C67.11 235.776 66.6966 235.5 66.3483 235.152C66.0001 234.803 65.7239 234.39 65.5355 233.935C65.347 233.48 65.25 232.992 65.25 232.5C65.25 231.505 65.6451 230.552 66.3483 229.848C67.0516 229.145 68.0054 228.75 69 228.75C69.9946 228.75 70.9484 229.145 71.6516 229.848C72.3549 230.552 72.75 231.505 72.75 232.5Z" stroke="#6B7280" stroke-linecap="round" stroke-linejoin="round"/>
<rect x="80" y="229.5" width="79" height="6" rx="3" fill="#6B7280"/>
<path d="M67.75 250.5L68.5833 251.333L70.25 249.667M72.75 250.5C72.75 250.992 72.653 251.48 72.4645 251.935C72.2761 252.39 71.9999 252.803 71.6516 253.152C71.3034 253.5 70.89 253.776 70.4351 253.965C69.9801 254.153 69.4925 254.25 69 254.25C68.5075 254.25 68.0199 254.153 67.5649 253.965C67.11 253.776 66.6966 253.5 66.3483 253.152C66.0001 252.803 65.7239 252.39 65.5355 251.935C65.347 251.48 65.25 250.992 65.25 250.5C65.25 249.505 65.6451 248.552 66.3483 247.848C67.0516 247.145 68.0054 246.75 69 246.75C69.9946 246.75 70.9484 247.145 71.6516 247.848C72.3549 248.552 72.75 249.505 72.75 250.5Z" stroke="#6B7280" stroke-linecap="round" stroke-linejoin="round"/>
<rect x="80" y="247.5" width="72" height="6" rx="3" fill="#6B7280"/>
<rect x="64" y="270.5" width="104" height="16" rx="3" fill="#1A56DB"/>
<rect x="91" y="276.5" width="50" height="4" rx="1" fill="white"/>
<rect x="200.5" y="118" width="135" height="184" rx="4.5" fill="#1F2A37"/>
<rect x="200.5" y="118" width="135" height="184" rx="4.5" stroke="#374151"/>
<rect x="249.5" y="133.5" width="37" height="7" rx="2" fill="#6B7280"/>
<path d="M247.722 173.318V155.136H248.887V173.318H247.722ZM250.528 161.315C250.48 160.795 250.269 160.39 249.895 160.101C249.526 159.807 248.998 159.661 248.312 159.661C247.857 159.661 247.478 159.72 247.175 159.838C246.872 159.956 246.645 160.12 246.493 160.328C246.342 160.532 246.264 160.766 246.259 161.031C246.25 161.249 246.292 161.441 246.387 161.607C246.486 161.772 246.628 161.919 246.813 162.047C247.002 162.17 247.23 162.279 247.495 162.374C247.76 162.468 248.058 162.551 248.39 162.622L249.64 162.906C250.359 163.062 250.994 163.271 251.543 163.531C252.097 163.792 252.561 164.102 252.935 164.462C253.314 164.821 253.6 165.236 253.795 165.705C253.989 166.173 254.088 166.699 254.093 167.281C254.088 168.2 253.856 168.988 253.397 169.646C252.938 170.304 252.277 170.809 251.415 171.159C250.558 171.509 249.524 171.685 248.312 171.685C247.095 171.685 246.034 171.502 245.13 171.138C244.225 170.773 243.522 170.219 243.02 169.476C242.519 168.732 242.26 167.793 242.246 166.656H245.613C245.641 167.125 245.767 167.516 245.989 167.828C246.212 168.141 246.517 168.377 246.905 168.538C247.298 168.699 247.753 168.78 248.269 168.78C248.742 168.78 249.145 168.716 249.476 168.588C249.813 168.46 250.071 168.283 250.251 168.055C250.43 167.828 250.523 167.568 250.528 167.274C250.523 167 250.438 166.765 250.272 166.571C250.106 166.372 249.85 166.202 249.505 166.06C249.164 165.913 248.728 165.778 248.198 165.655L246.678 165.3C245.419 165.011 244.427 164.545 243.702 163.901C242.978 163.252 242.618 162.376 242.623 161.273C242.618 160.373 242.859 159.585 243.347 158.908C243.835 158.231 244.51 157.703 245.371 157.324C246.233 156.945 247.215 156.756 248.319 156.756C249.446 156.756 250.423 156.947 251.252 157.331C252.085 157.71 252.732 158.242 253.191 158.929C253.65 159.616 253.885 160.411 253.894 161.315H250.528ZM255.84 171.5V168.972L261.145 164.327C261.543 163.967 261.882 163.638 262.161 163.339C262.44 163.036 262.653 162.733 262.8 162.43C262.947 162.123 263.02 161.789 263.02 161.429C263.02 161.027 262.933 160.683 262.758 160.399C262.582 160.11 262.341 159.888 262.033 159.732C261.725 159.575 261.373 159.497 260.975 159.497C260.573 159.497 260.22 159.58 259.917 159.746C259.614 159.907 259.377 160.141 259.206 160.449C259.041 160.757 258.958 161.131 258.958 161.571H255.627C255.627 160.581 255.849 159.727 256.295 159.007C256.74 158.287 257.365 157.733 258.17 157.345C258.979 156.952 259.919 156.756 260.989 156.756C262.092 156.756 263.051 156.94 263.866 157.31C264.68 157.679 265.31 158.195 265.755 158.858C266.205 159.516 266.43 160.281 266.43 161.152C266.43 161.706 266.318 162.255 266.096 162.8C265.873 163.344 265.473 163.946 264.895 164.604C264.323 165.262 263.508 166.05 262.452 166.969L260.712 168.574V168.666H266.607V171.5H255.84ZM274.07 156.756C274.865 156.756 275.625 156.886 276.35 157.146C277.074 157.402 277.72 157.812 278.289 158.375C278.857 158.934 279.304 159.67 279.631 160.584C279.958 161.498 280.121 162.613 280.121 163.929C280.126 165.141 279.984 166.228 279.695 167.189C279.406 168.145 278.992 168.96 278.452 169.632C277.917 170.304 277.273 170.818 276.52 171.173C275.767 171.524 274.927 171.699 273.999 171.699C272.976 171.699 272.074 171.502 271.293 171.109C270.516 170.712 269.894 170.177 269.425 169.504C268.961 168.832 268.684 168.079 268.594 167.246H272.053C272.162 167.729 272.391 168.093 272.742 168.339C273.092 168.581 273.511 168.702 273.999 168.702C274.889 168.702 275.554 168.316 275.994 167.544C276.435 166.772 276.655 165.723 276.655 164.398H276.57C276.366 164.833 276.077 165.207 275.703 165.52C275.334 165.832 274.905 166.071 274.418 166.237C273.93 166.403 273.416 166.486 272.877 166.486C272.005 166.486 271.236 166.287 270.568 165.889C269.905 165.491 269.385 164.945 269.006 164.249C268.632 163.553 268.442 162.757 268.438 161.862C268.433 160.858 268.667 159.973 269.141 159.206C269.614 158.434 270.275 157.833 271.122 157.402C271.97 156.966 272.952 156.751 274.07 156.756ZM274.091 159.455C273.655 159.455 273.267 159.556 272.926 159.76C272.59 159.964 272.325 160.238 272.131 160.584C271.937 160.929 271.842 161.318 271.847 161.749C271.852 162.179 271.949 162.568 272.138 162.913C272.332 163.259 272.595 163.534 272.926 163.737C273.262 163.941 273.646 164.043 274.077 164.043C274.399 164.043 274.697 163.983 274.972 163.865C275.246 163.747 275.485 163.583 275.689 163.375C275.893 163.162 276.051 162.916 276.165 162.636C276.283 162.357 276.34 162.059 276.335 161.741C276.331 161.32 276.231 160.937 276.037 160.591C275.843 160.245 275.575 159.971 275.235 159.767C274.898 159.559 274.517 159.455 274.091 159.455ZM287.527 156.756C288.322 156.756 289.082 156.886 289.807 157.146C290.531 157.402 291.177 157.812 291.746 158.375C292.314 158.934 292.761 159.67 293.088 160.584C293.415 161.498 293.578 162.613 293.578 163.929C293.583 165.141 293.441 166.228 293.152 167.189C292.863 168.145 292.449 168.96 291.909 169.632C291.374 170.304 290.73 170.818 289.977 171.173C289.224 171.524 288.384 171.699 287.456 171.699C286.433 171.699 285.531 171.502 284.75 171.109C283.973 170.712 283.351 170.177 282.882 169.504C282.418 168.832 282.141 168.079 282.051 167.246H285.51C285.619 167.729 285.848 168.093 286.199 168.339C286.549 168.581 286.968 168.702 287.456 168.702C288.346 168.702 289.011 168.316 289.452 167.544C289.892 166.772 290.112 165.723 290.112 164.398H290.027C289.823 164.833 289.534 165.207 289.16 165.52C288.791 165.832 288.363 166.071 287.875 166.237C287.387 166.403 286.873 166.486 286.334 166.486C285.462 166.486 284.693 166.287 284.025 165.889C283.363 165.491 282.842 164.945 282.463 164.249C282.089 163.553 281.899 162.757 281.895 161.862C281.89 160.858 282.124 159.973 282.598 159.206C283.071 158.434 283.732 157.833 284.579 157.402C285.427 156.966 286.409 156.751 287.527 156.756ZM287.548 159.455C287.113 159.455 286.724 159.556 286.383 159.76C286.047 159.964 285.782 160.238 285.588 160.584C285.394 160.929 285.299 161.318 285.304 161.749C285.309 162.179 285.406 162.568 285.595 162.913C285.789 163.259 286.052 163.534 286.383 163.737C286.72 163.941 287.103 164.043 287.534 164.043C287.856 164.043 288.154 163.983 288.429 163.865C288.703 163.747 288.943 163.583 289.146 163.375C289.35 163.162 289.508 162.916 289.622 162.636C289.74 162.357 289.797 162.059 289.792 161.741C289.788 161.32 289.688 160.937 289.494 160.591C289.3 160.245 289.032 159.971 288.692 159.767C288.355 159.559 287.974 159.455 287.548 159.455Z" fill="#9CA3AF"/>
<path d="M219.75 196.5L220.583 197.333L222.25 195.667M224.75 196.5C224.75 196.992 224.653 197.48 224.465 197.935C224.276 198.39 224 198.803 223.652 199.152C223.303 199.5 222.89 199.776 222.435 199.965C221.98 200.153 221.492 200.25 221 200.25C220.508 200.25 220.02 200.153 219.565 199.965C219.11 199.776 218.697 199.5 218.348 199.152C218 198.803 217.724 198.39 217.535 197.935C217.347 197.48 217.25 196.992 217.25 196.5C217.25 195.505 217.645 194.552 218.348 193.848C219.052 193.145 220.005 192.75 221 192.75C221.995 192.75 222.948 193.145 223.652 193.848C224.355 194.552 224.75 195.505 224.75 196.5Z" stroke="#6B7280" stroke-linecap="round" stroke-linejoin="round"/>
<rect x="232" y="193.5" width="79" height="6" rx="3" fill="#6B7280"/>
<path d="M219.75 214.5L220.583 215.333L222.25 213.667M224.75 214.5C224.75 214.992 224.653 215.48 224.465 215.935C224.276 216.39 224 216.803 223.652 217.152C223.303 217.5 222.89 217.776 222.435 217.965C221.98 218.153 221.492 218.25 221 218.25C220.508 218.25 220.02 218.153 219.565 217.965C219.11 217.776 218.697 217.5 218.348 217.152C218 216.803 217.724 216.39 217.535 215.935C217.347 215.48 217.25 214.992 217.25 214.5C217.25 213.505 217.645 212.552 218.348 211.848C219.052 211.145 220.005 210.75 221 210.75C221.995 210.75 222.948 211.145 223.652 211.848C224.355 212.552 224.75 213.505 224.75 214.5Z" stroke="#6B7280" stroke-linecap="round" stroke-linejoin="round"/>
<rect x="232" y="211.5" width="73" height="6" rx="3" fill="#6B7280"/>
<path d="M219.75 232.5L220.583 233.333L222.25 231.667M224.75 232.5C224.75 232.992 224.653 233.48 224.465 233.935C224.276 234.39 224 234.803 223.652 235.152C223.303 235.5 222.89 235.776 222.435 235.965C221.98 236.153 221.492 236.25 221 236.25C220.508 236.25 220.02 236.153 219.565 235.965C219.11 235.776 218.697 235.5 218.348 235.152C218 234.803 217.724 234.39 217.535 233.935C217.347 233.48 217.25 232.992 217.25 232.5C217.25 231.505 217.645 230.552 218.348 229.848C219.052 229.145 220.005 228.75 221 228.75C221.995 228.75 222.948 229.145 223.652 229.848C224.355 230.552 224.75 231.505 224.75 232.5Z" stroke="#6B7280" stroke-linecap="round" stroke-linejoin="round"/>
<rect x="232" y="229.5" width="88" height="6" rx="3" fill="#6B7280"/>
<path d="M219.75 250.5L220.583 251.333L222.25 249.667M224.75 250.5C224.75 250.992 224.653 251.48 224.465 251.935C224.276 252.39 224 252.803 223.652 253.152C223.303 253.5 222.89 253.776 222.435 253.965C221.98 254.153 221.492 254.25 221 254.25C220.508 254.25 220.02 254.153 219.565 253.965C219.11 253.776 218.697 253.5 218.348 253.152C218 252.803 217.724 252.39 217.535 251.935C217.347 251.48 217.25 250.992 217.25 250.5C217.25 249.505 217.645 248.552 218.348 247.848C219.052 247.145 220.005 246.75 221 246.75C221.995 246.75 222.948 247.145 223.652 247.848C224.355 248.552 224.75 249.505 224.75 250.5Z" stroke="#6B7280" stroke-linecap="round" stroke-linejoin="round"/>
<rect x="232" y="247.5" width="72" height="6" rx="3" fill="#6B7280"/>
<rect x="216" y="270.5" width="104" height="16" rx="3" fill="#1A56DB"/>
<rect x="243" y="276.5" width="50" height="4" rx="1" fill="white"/>
<rect x="352.5" y="118" width="135" height="184" rx="4.5" fill="#1F2A37"/>
<rect x="352.5" y="118" width="135" height="184" rx="4.5" stroke="#374151"/>
<rect x="401.5" y="133.5" width="37" height="7" rx="2" fill="#6B7280"/>
<path d="M399.371 173.318V155.136H400.535V173.318H399.371ZM402.176 161.315C402.129 160.795 401.918 160.39 401.544 160.101C401.175 159.807 400.647 159.661 399.96 159.661C399.506 159.661 399.127 159.72 398.824 159.838C398.521 159.956 398.293 160.12 398.142 160.328C397.99 160.532 397.912 160.766 397.907 161.031C397.898 161.249 397.941 161.441 398.035 161.607C398.135 161.772 398.277 161.919 398.461 162.047C398.651 162.17 398.878 162.279 399.143 162.374C399.408 162.468 399.707 162.551 400.038 162.622L401.288 162.906C402.008 163.062 402.642 163.271 403.192 163.531C403.746 163.792 404.21 164.102 404.584 164.462C404.962 164.821 405.249 165.236 405.443 165.705C405.637 166.173 405.737 166.699 405.741 167.281C405.737 168.2 405.505 168.988 405.045 169.646C404.586 170.304 403.925 170.809 403.064 171.159C402.207 171.509 401.172 171.685 399.96 171.685C398.743 171.685 397.683 171.502 396.778 171.138C395.874 170.773 395.171 170.219 394.669 169.476C394.167 168.732 393.909 167.793 393.895 166.656H397.261C397.29 167.125 397.415 167.516 397.638 167.828C397.86 168.141 398.166 168.377 398.554 168.538C398.947 168.699 399.401 168.78 399.917 168.78C400.391 168.78 400.793 168.716 401.125 168.588C401.461 168.46 401.719 168.283 401.899 168.055C402.079 167.828 402.171 167.568 402.176 167.274C402.171 167 402.086 166.765 401.92 166.571C401.755 166.372 401.499 166.202 401.153 166.06C400.812 165.913 400.377 165.778 399.846 165.655L398.327 165.3C397.067 165.011 396.075 164.545 395.351 163.901C394.626 163.252 394.266 162.376 394.271 161.273C394.266 160.373 394.508 159.585 394.996 158.908C395.483 158.231 396.158 157.703 397.02 157.324C397.881 156.945 398.864 156.756 399.967 156.756C401.094 156.756 402.072 156.947 402.9 157.331C403.734 157.71 404.38 158.242 404.839 158.929C405.299 159.616 405.533 160.411 405.542 161.315H402.176ZM412.964 156.756C413.76 156.756 414.52 156.886 415.244 157.146C415.969 157.402 416.615 157.812 417.183 158.375C417.751 158.934 418.199 159.67 418.525 160.584C418.852 161.498 419.015 162.613 419.015 163.929C419.02 165.141 418.878 166.228 418.589 167.189C418.3 168.145 417.886 168.96 417.346 169.632C416.811 170.304 416.167 170.818 415.415 171.173C414.662 171.524 413.821 171.699 412.893 171.699C411.871 171.699 410.969 171.502 410.187 171.109C409.411 170.712 408.788 170.177 408.319 169.504C407.855 168.832 407.578 168.079 407.488 167.246H410.947C411.056 167.729 411.286 168.093 411.636 168.339C411.987 168.581 412.406 168.702 412.893 168.702C413.783 168.702 414.449 168.316 414.889 167.544C415.329 166.772 415.55 165.723 415.55 164.398H415.464C415.261 164.833 414.972 165.207 414.598 165.52C414.229 165.832 413.8 166.071 413.312 166.237C412.825 166.403 412.311 166.486 411.771 166.486C410.9 166.486 410.131 166.287 409.463 165.889C408.8 165.491 408.279 164.945 407.9 164.249C407.526 163.553 407.337 162.757 407.332 161.862C407.327 160.858 407.562 159.973 408.035 159.206C408.509 158.434 409.169 157.833 410.017 157.402C410.864 156.966 411.847 156.751 412.964 156.756ZM412.986 159.455C412.55 159.455 412.162 159.556 411.821 159.76C411.485 159.964 411.22 160.238 411.025 160.584C410.831 160.929 410.737 161.318 410.741 161.749C410.746 162.179 410.843 162.568 411.032 162.913C411.227 163.259 411.489 163.534 411.821 163.737C412.157 163.941 412.541 164.043 412.971 164.043C413.293 164.043 413.592 163.983 413.866 163.865C414.141 163.747 414.38 163.583 414.584 163.375C414.787 163.162 414.946 162.916 415.059 162.636C415.178 162.357 415.235 162.059 415.23 161.741C415.225 161.32 415.126 160.937 414.932 160.591C414.738 160.245 414.47 159.971 414.129 159.767C413.793 159.559 413.412 159.455 412.986 159.455ZM426.421 156.756C427.217 156.756 427.977 156.886 428.701 157.146C429.426 157.402 430.072 157.812 430.64 158.375C431.208 158.934 431.656 159.67 431.982 160.584C432.309 161.498 432.472 162.613 432.472 163.929C432.477 165.141 432.335 166.228 432.046 167.189C431.758 168.145 431.343 168.96 430.803 169.632C430.268 170.304 429.624 170.818 428.872 171.173C428.119 171.524 427.278 171.699 426.35 171.699C425.328 171.699 424.426 171.502 423.644 171.109C422.868 170.712 422.245 170.177 421.776 169.504C421.312 168.832 421.035 168.079 420.945 167.246H424.404C424.513 167.729 424.743 168.093 425.093 168.339C425.444 168.581 425.863 168.702 426.35 168.702C427.24 168.702 427.906 168.316 428.346 167.544C428.786 166.772 429.007 165.723 429.007 164.398H428.921C428.718 164.833 428.429 165.207 428.055 165.52C427.686 165.832 427.257 166.071 426.769 166.237C426.282 166.403 425.768 166.486 425.228 166.486C424.357 166.486 423.588 166.287 422.92 165.889C422.257 165.491 421.736 164.945 421.357 164.249C420.983 163.553 420.794 162.757 420.789 161.862C420.785 160.858 421.019 159.973 421.492 159.206C421.966 158.434 422.626 157.833 423.474 157.402C424.321 156.966 425.304 156.751 426.421 156.756ZM426.443 159.455C426.007 159.455 425.619 159.556 425.278 159.76C424.942 159.964 424.677 160.238 424.482 160.584C424.288 160.929 424.194 161.318 424.198 161.749C424.203 162.179 424.3 162.568 424.49 162.913C424.684 163.259 424.946 163.534 425.278 163.737C425.614 163.941 425.998 164.043 426.428 164.043C426.75 164.043 427.049 163.983 427.323 163.865C427.598 163.747 427.837 163.583 428.041 163.375C428.244 163.162 428.403 162.916 428.517 162.636C428.635 162.357 428.692 162.059 428.687 161.741C428.682 161.32 428.583 160.937 428.389 160.591C428.195 160.245 427.927 159.971 427.586 159.767C427.25 159.559 426.869 159.455 426.443 159.455ZM439.878 156.756C440.674 156.756 441.434 156.886 442.158 157.146C442.883 157.402 443.529 157.812 444.097 158.375C444.665 158.934 445.113 159.67 445.439 160.584C445.766 161.498 445.93 162.613 445.93 163.929C445.934 165.141 445.792 166.228 445.503 167.189C445.215 168.145 444.8 168.96 444.26 169.632C443.725 170.304 443.081 170.818 442.329 171.173C441.576 171.524 440.735 171.699 439.807 171.699C438.785 171.699 437.883 171.502 437.101 171.109C436.325 170.712 435.702 170.177 435.233 169.504C434.769 168.832 434.492 168.079 434.403 167.246H437.861C437.97 167.729 438.2 168.093 438.55 168.339C438.901 168.581 439.32 168.702 439.807 168.702C440.698 168.702 441.363 168.316 441.803 167.544C442.243 166.772 442.464 165.723 442.464 164.398H442.378C442.175 164.833 441.886 165.207 441.512 165.52C441.143 165.832 440.714 166.071 440.226 166.237C439.739 166.403 439.225 166.486 438.685 166.486C437.814 166.486 437.045 166.287 436.377 165.889C435.714 165.491 435.193 164.945 434.814 164.249C434.44 163.553 434.251 162.757 434.246 161.862C434.242 160.858 434.476 159.973 434.949 159.206C435.423 158.434 436.083 157.833 436.931 157.402C437.778 156.966 438.761 156.751 439.878 156.756ZM439.9 159.455C439.464 159.455 439.076 159.556 438.735 159.76C438.399 159.964 438.134 160.238 437.939 160.584C437.745 160.929 437.651 161.318 437.655 161.749C437.66 162.179 437.757 162.568 437.947 162.913C438.141 163.259 438.403 163.534 438.735 163.737C439.071 163.941 439.455 164.043 439.885 164.043C440.207 164.043 440.506 163.983 440.78 163.865C441.055 163.747 441.294 163.583 441.498 163.375C441.701 163.162 441.86 162.916 441.974 162.636C442.092 162.357 442.149 162.059 442.144 161.741C442.139 161.32 442.04 160.937 441.846 160.591C441.652 160.245 441.384 159.971 441.043 159.767C440.707 159.559 440.326 159.455 439.9 159.455Z" fill="#9CA3AF"/>
<path d="M371.75 196.5L372.583 197.333L374.25 195.667M376.75 196.5C376.75 196.992 376.653 197.48 376.465 197.935C376.276 198.39 376 198.803 375.652 199.152C375.303 199.5 374.89 199.776 374.435 199.965C373.98 200.153 373.492 200.25 373 200.25C372.508 200.25 372.02 200.153 371.565 199.965C371.11 199.776 370.697 199.5 370.348 199.152C370 198.803 369.724 198.39 369.535 197.935C369.347 197.48 369.25 196.992 369.25 196.5C369.25 195.505 369.645 194.552 370.348 193.848C371.052 193.145 372.005 192.75 373 192.75C373.995 192.75 374.948 193.145 375.652 193.848C376.355 194.552 376.75 195.505 376.75 196.5Z" stroke="#6B7280" stroke-linecap="round" stroke-linejoin="round"/>
<rect x="384" y="193.5" width="88" height="6" rx="3" fill="#6B7280"/>
<path d="M371.75 214.5L372.583 215.333L374.25 213.667M376.75 214.5C376.75 214.992 376.653 215.48 376.465 215.935C376.276 216.39 376 216.803 375.652 217.152C375.303 217.5 374.89 217.776 374.435 217.965C373.98 218.153 373.492 218.25 373 218.25C372.508 218.25 372.02 218.153 371.565 217.965C371.11 217.776 370.697 217.5 370.348 217.152C370 216.803 369.724 216.39 369.535 215.935C369.347 215.48 369.25 214.992 369.25 214.5C369.25 213.505 369.645 212.552 370.348 211.848C371.052 211.145 372.005 210.75 373 210.75C373.995 210.75 374.948 211.145 375.652 211.848C376.355 212.552 376.75 213.505 376.75 214.5Z" stroke="#6B7280" stroke-linecap="round" stroke-linejoin="round"/>
<rect x="384" y="211.5" width="73" height="6" rx="3" fill="#6B7280"/>
<path d="M371.75 232.5L372.583 233.333L374.25 231.667M376.75 232.5C376.75 232.992 376.653 233.48 376.465 233.935C376.276 234.39 376 234.803 375.652 235.152C375.303 235.5 374.89 235.776 374.435 235.965C373.98 236.153 373.492 236.25 373 236.25C372.508 236.25 372.02 236.153 371.565 235.965C371.11 235.776 370.697 235.5 370.348 235.152C370 234.803 369.724 234.39 369.535 233.935C369.347 233.48 369.25 232.992 369.25 232.5C369.25 231.505 369.645 230.552 370.348 229.848C371.052 229.145 372.005 228.75 373 228.75C373.995 228.75 374.948 229.145 375.652 229.848C376.355 230.552 376.75 231.505 376.75 232.5Z" stroke="#6B7280" stroke-linecap="round" stroke-linejoin="round"/>
<rect x="384" y="229.5" width="79" height="6" rx="3" fill="#6B7280"/>
<path d="M371.75 250.5L372.583 251.333L374.25 249.667M376.75 250.5C376.75 250.992 376.653 251.48 376.465 251.935C376.276 252.39 376 252.803 375.652 253.152C375.303 253.5 374.89 253.776 374.435 253.965C373.98 254.153 373.492 254.25 373 254.25C372.508 254.25 372.02 254.153 371.565 253.965C371.11 253.776 370.697 253.5 370.348 253.152C370 252.803 369.724 252.39 369.535 251.935C369.347 251.48 369.25 250.992 369.25 250.5C369.25 249.505 369.645 248.552 370.348 247.848C371.052 247.145 372.005 246.75 373 246.75C373.995 246.75 374.948 247.145 375.652 247.848C376.355 248.552 376.75 249.505 376.75 250.5Z" stroke="#6B7280" stroke-linecap="round" stroke-linejoin="round"/>
<rect x="384" y="247.5" width="72" height="6" rx="3" fill="#6B7280"/>
<rect x="368" y="270.5" width="104" height="16" rx="3" fill="#1A56DB"/>
<rect x="395" y="276.5" width="50" height="4" rx="1" fill="white"/>
</svg>
