<svg width="536" height="340" viewBox="0 0 536 340" fill="none" xmlns="http://www.w3.org/2000/svg">
<rect width="536" height="340" fill="#111928"/>
<rect x="32" y="81" width="162" height="10" rx="5" fill="#6B7280"/>
<rect x="32" y="107" width="220" height="8" rx="4" fill="#4B5563"/>
<rect x="32" y="121" width="162" height="8" rx="4" fill="#4B5563"/>
<rect x="32" y="135" width="194" height="8" rx="4" fill="#4B5563"/>
<rect x="32" y="159" width="212" height="8" rx="4" fill="#4B5563"/>
<rect x="32" y="173" width="109" height="8" rx="4" fill="#4B5563"/>
<rect x="32" y="197" width="212" height="8" rx="4" fill="#4B5563"/>
<rect x="32" y="211" width="109" height="8" rx="4" fill="#4B5563"/>
<rect x="32" y="243" width="72" height="16" rx="2" stroke="#4B5563"/>
<rect x="48" y="249" width="40" height="4" rx="1" fill="#4B5563"/>
<rect x="284.5" y="71" width="219" height="198" rx="4.5" fill="#1F2A37"/>
<rect x="284.5" y="71" width="219" height="198" rx="4.5" stroke="#374151"/>
<rect x="300" y="86.5" width="37" height="8" rx="2" fill="#9CA3AF"/>
<rect x="300" y="103.5" width="89" height="6" rx="2" fill="#6B7280"/>
<rect x="300" y="114.5" width="65" height="6" rx="2" fill="#6B7280"/>
<path d="M440.527 107.318V89.1364H441.692V107.318H440.527ZM443.332 95.3153C443.285 94.7945 443.074 94.3897 442.7 94.1009C442.331 93.8073 441.803 93.6605 441.116 93.6605C440.662 93.6605 440.283 93.7197 439.98 93.8381C439.677 93.9564 439.45 94.1198 439.298 94.3281C439.147 94.5317 439.068 94.7661 439.064 95.0312C439.054 95.2491 439.097 95.4408 439.192 95.6065C439.291 95.7723 439.433 95.919 439.618 96.0469C439.807 96.17 440.034 96.2789 440.3 96.3736C440.565 96.4683 440.863 96.5511 441.194 96.6222L442.444 96.9062C443.164 97.0625 443.799 97.2708 444.348 97.5312C444.902 97.7917 445.366 98.1018 445.74 98.4616C446.119 98.8215 446.405 99.2358 446.599 99.7045C446.793 100.173 446.893 100.699 446.898 101.281C446.893 102.2 446.661 102.988 446.202 103.646C445.742 104.304 445.082 104.809 444.22 105.159C443.363 105.509 442.328 105.685 441.116 105.685C439.899 105.685 438.839 105.502 437.934 105.138C437.03 104.773 436.327 104.219 435.825 103.476C435.323 102.732 435.065 101.793 435.051 100.656H438.417C438.446 101.125 438.571 101.516 438.794 101.828C439.016 102.141 439.322 102.377 439.71 102.538C440.103 102.699 440.558 102.78 441.074 102.78C441.547 102.78 441.95 102.716 442.281 102.588C442.617 102.46 442.875 102.283 443.055 102.055C443.235 101.828 443.327 101.568 443.332 101.274C443.327 101 443.242 100.765 443.077 100.571C442.911 100.372 442.655 100.202 442.309 100.06C441.969 99.9129 441.533 99.7779 441.003 99.6548L439.483 99.2997C438.223 99.0109 437.231 98.5445 436.507 97.9006C435.782 97.2519 435.423 96.3759 435.427 95.2727C435.423 94.3731 435.664 93.5848 436.152 92.9077C436.64 92.2306 437.314 91.7027 438.176 91.3239C439.038 90.9451 440.02 90.7557 441.123 90.7557C442.25 90.7557 443.228 90.9474 444.057 91.331C444.89 91.7098 445.536 92.2424 445.996 92.929C446.455 93.6155 446.689 94.411 446.699 95.3153H443.332ZM454.213 105.699C453.152 105.699 452.21 105.507 451.386 105.124C450.562 104.74 449.911 104.212 449.433 103.54C448.96 102.867 448.713 102.096 448.694 101.224H452.104C452.132 101.759 452.35 102.19 452.757 102.517C453.164 102.839 453.649 103 454.213 103C454.653 103 455.044 102.903 455.385 102.709C455.726 102.515 455.993 102.242 456.187 101.892C456.381 101.537 456.476 101.13 456.471 100.67C456.476 100.202 456.379 99.7921 456.18 99.4418C455.986 99.0914 455.716 98.8191 455.371 98.625C455.03 98.4261 454.637 98.3267 454.192 98.3267C453.77 98.322 453.37 98.4143 452.991 98.6037C452.617 98.7931 452.333 99.0511 452.139 99.3778L449.035 98.7955L449.667 90.9545H459V93.7884H452.558L452.224 97.2188H452.309C452.551 96.8163 452.939 96.4848 453.474 96.2244C454.014 95.9593 454.627 95.8267 455.314 95.8267C456.185 95.8267 456.961 96.0303 457.643 96.4375C458.33 96.84 458.87 97.3987 459.263 98.1136C459.66 98.8286 459.859 99.6477 459.859 100.571C459.859 101.57 459.622 102.455 459.149 103.227C458.68 103.999 458.022 104.605 457.175 105.045C456.332 105.481 455.345 105.699 454.213 105.699ZM467.265 90.7557C468.061 90.7557 468.82 90.8859 469.545 91.1463C470.269 91.402 470.916 91.8116 471.484 92.375C472.052 92.9337 472.499 93.67 472.826 94.5838C473.153 95.4976 473.316 96.6127 473.316 97.929C473.321 99.1411 473.179 100.228 472.89 101.189C472.601 102.145 472.187 102.96 471.647 103.632C471.112 104.304 470.468 104.818 469.715 105.173C468.963 105.524 468.122 105.699 467.194 105.699C466.171 105.699 465.269 105.502 464.488 105.109C463.712 104.712 463.089 104.177 462.62 103.504C462.156 102.832 461.879 102.079 461.789 101.246H465.248C465.357 101.729 465.587 102.093 465.937 102.339C466.287 102.581 466.706 102.702 467.194 102.702C468.084 102.702 468.749 102.316 469.19 101.544C469.63 100.772 469.85 99.7235 469.85 98.3977H469.765C469.561 98.8333 469.273 99.2074 468.899 99.5199C468.529 99.8324 468.101 100.071 467.613 100.237C467.125 100.403 466.612 100.486 466.072 100.486C465.201 100.486 464.431 100.287 463.764 99.8892C463.101 99.4915 462.58 98.9446 462.201 98.2486C461.827 97.5526 461.638 96.7571 461.633 95.8622C461.628 94.8584 461.863 93.973 462.336 93.206C462.81 92.4342 463.47 91.8329 464.318 91.402C465.165 90.9664 466.148 90.7509 467.265 90.7557ZM467.286 93.4545C466.851 93.4545 466.463 93.5563 466.122 93.7599C465.785 93.9635 465.52 94.2382 465.326 94.5838C465.132 94.9295 465.037 95.3177 465.042 95.7486C465.047 96.1795 465.144 96.5677 465.333 96.9134C465.527 97.259 465.79 97.5336 466.122 97.7372C466.458 97.9408 466.841 98.0426 467.272 98.0426C467.594 98.0426 467.892 97.9834 468.167 97.8651C468.442 97.7467 468.681 97.5833 468.884 97.375C469.088 97.1619 469.247 96.9157 469.36 96.6364C469.479 96.357 469.535 96.0587 469.531 95.7415C469.526 95.3201 469.427 94.9366 469.232 94.5909C469.038 94.2453 468.771 93.9706 468.43 93.767C468.094 93.5587 467.713 93.4545 467.286 93.4545ZM480.722 90.7557C481.518 90.7557 482.278 90.8859 483.002 91.1463C483.726 91.402 484.373 91.8116 484.941 92.375C485.509 92.9337 485.956 93.67 486.283 94.5838C486.61 95.4976 486.773 96.6127 486.773 97.929C486.778 99.1411 486.636 100.228 486.347 101.189C486.058 102.145 485.644 102.96 485.104 103.632C484.569 104.304 483.925 104.818 483.172 105.173C482.42 105.524 481.579 105.699 480.651 105.699C479.628 105.699 478.726 105.502 477.945 105.109C477.169 104.712 476.546 104.177 476.077 103.504C475.613 102.832 475.336 102.079 475.246 101.246H478.705C478.814 101.729 479.044 102.093 479.394 102.339C479.744 102.581 480.163 102.702 480.651 102.702C481.541 102.702 482.206 102.316 482.647 101.544C483.087 100.772 483.307 99.7235 483.307 98.3977H483.222C483.019 98.8333 482.73 99.2074 482.356 99.5199C481.986 99.8324 481.558 100.071 481.07 100.237C480.582 100.403 480.069 100.486 479.529 100.486C478.658 100.486 477.888 100.287 477.221 99.8892C476.558 99.4915 476.037 98.9446 475.658 98.2486C475.284 97.5526 475.095 96.7571 475.09 95.8622C475.085 94.8584 475.32 93.973 475.793 93.206C476.267 92.4342 476.927 91.8329 477.775 91.402C478.622 90.9664 479.605 90.7509 480.722 90.7557ZM480.743 93.4545C480.308 93.4545 479.92 93.5563 479.579 93.7599C479.242 93.9635 478.977 94.2382 478.783 94.5838C478.589 94.9295 478.494 95.3177 478.499 95.7486C478.504 96.1795 478.601 96.5677 478.79 96.9134C478.984 97.259 479.247 97.5336 479.579 97.7372C479.915 97.9408 480.298 98.0426 480.729 98.0426C481.051 98.0426 481.349 97.9834 481.624 97.8651C481.899 97.7467 482.138 97.5833 482.341 97.375C482.545 97.1619 482.704 96.9157 482.817 96.6364C482.936 96.357 482.992 96.0587 482.988 95.7415C482.983 95.3201 482.884 94.9366 482.689 94.5909C482.495 94.2453 482.228 93.9706 481.887 93.767C481.551 93.5587 481.17 93.4545 480.743 93.4545Z" fill="#6B7280"/>
<rect x="442" y="115.5" width="46" height="6" rx="2" fill="#6B7280"/>
<rect x="300" y="138.5" width="188" height="16" rx="3" fill="#1A56DB"/>
<rect x="369" y="144.5" width="50" height="4" rx="1" fill="white"/>
<path d="M303.75 176.5L304.583 177.333L306.25 175.667M308.75 176.5C308.75 176.992 308.653 177.48 308.465 177.935C308.276 178.39 308 178.803 307.652 179.152C307.303 179.5 306.89 179.776 306.435 179.965C305.98 180.153 305.492 180.25 305 180.25C304.508 180.25 304.02 180.153 303.565 179.965C303.11 179.776 302.697 179.5 302.348 179.152C302 178.803 301.724 178.39 301.535 177.935C301.347 177.48 301.25 176.992 301.25 176.5C301.25 175.505 301.645 174.552 302.348 173.848C303.052 173.145 304.005 172.75 305 172.75C305.995 172.75 306.948 173.145 307.652 173.848C308.355 174.552 308.75 175.505 308.75 176.5Z" stroke="#6B7280" stroke-linecap="round" stroke-linejoin="round"/>
<rect x="316" y="173.5" width="65" height="6" rx="3" fill="#6B7280"/>
<path d="M303.75 194.5L304.583 195.333L306.25 193.667M308.75 194.5C308.75 194.992 308.653 195.48 308.465 195.935C308.276 196.39 308 196.803 307.652 197.152C307.303 197.5 306.89 197.776 306.435 197.965C305.98 198.153 305.492 198.25 305 198.25C304.508 198.25 304.02 198.153 303.565 197.965C303.11 197.776 302.697 197.5 302.348 197.152C302 196.803 301.724 196.39 301.535 195.935C301.347 195.48 301.25 194.992 301.25 194.5C301.25 193.505 301.645 192.552 302.348 191.848C303.052 191.145 304.005 190.75 305 190.75C305.995 190.75 306.948 191.145 307.652 191.848C308.355 192.552 308.75 193.505 308.75 194.5Z" stroke="#6B7280" stroke-linecap="round" stroke-linejoin="round"/>
<rect x="316" y="191.5" width="73" height="6" rx="3" fill="#6B7280"/>
<path d="M303.75 212.5L304.583 213.333L306.25 211.667M308.75 212.5C308.75 212.992 308.653 213.48 308.465 213.935C308.276 214.39 308 214.803 307.652 215.152C307.303 215.5 306.89 215.776 306.435 215.965C305.98 216.153 305.492 216.25 305 216.25C304.508 216.25 304.02 216.153 303.565 215.965C303.11 215.776 302.697 215.5 302.348 215.152C302 214.803 301.724 214.39 301.535 213.935C301.347 213.48 301.25 212.992 301.25 212.5C301.25 211.505 301.645 210.552 302.348 209.848C303.052 209.145 304.005 208.75 305 208.75C305.995 208.75 306.948 209.145 307.652 209.848C308.355 210.552 308.75 211.505 308.75 212.5Z" stroke="#6B7280" stroke-linecap="round" stroke-linejoin="round"/>
<rect x="316" y="209.5" width="59" height="6" rx="3" fill="#6B7280"/>
<path d="M303.75 230.5L304.583 231.333L306.25 229.667M308.75 230.5C308.75 230.992 308.653 231.48 308.465 231.935C308.276 232.39 308 232.803 307.652 233.152C307.303 233.5 306.89 233.776 306.435 233.965C305.98 234.153 305.492 234.25 305 234.25C304.508 234.25 304.02 234.153 303.565 233.965C303.11 233.776 302.697 233.5 302.348 233.152C302 232.803 301.724 232.39 301.535 231.935C301.347 231.48 301.25 230.992 301.25 230.5C301.25 229.505 301.645 228.552 302.348 227.848C303.052 227.145 304.005 226.75 305 226.75C305.995 226.75 306.948 227.145 307.652 227.848C308.355 228.552 308.75 229.505 308.75 230.5Z" stroke="#6B7280" stroke-linecap="round" stroke-linejoin="round"/>
<rect x="316" y="227.5" width="65" height="6" rx="3" fill="#6B7280"/>
<path d="M303.75 248.5L304.583 249.333L306.25 247.667M308.75 248.5C308.75 248.992 308.653 249.48 308.465 249.935C308.276 250.39 308 250.803 307.652 251.152C307.303 251.5 306.89 251.776 306.435 251.965C305.98 252.153 305.492 252.25 305 252.25C304.508 252.25 304.02 252.153 303.565 251.965C303.11 251.776 302.697 251.5 302.348 251.152C302 250.803 301.724 250.39 301.535 249.935C301.347 249.48 301.25 248.992 301.25 248.5C301.25 247.505 301.645 246.552 302.348 245.848C303.052 245.145 304.005 244.75 305 244.75C305.995 244.75 306.948 245.145 307.652 245.848C308.355 246.552 308.75 247.505 308.75 248.5Z" stroke="#6B7280" stroke-linecap="round" stroke-linejoin="round"/>
<rect x="316" y="245.5" width="63" height="6" rx="3" fill="#6B7280"/>
<path d="M402.75 176.5L403.583 177.333L405.25 175.667M407.75 176.5C407.75 176.992 407.653 177.48 407.465 177.935C407.276 178.39 407 178.803 406.652 179.152C406.303 179.5 405.89 179.776 405.435 179.965C404.98 180.153 404.492 180.25 404 180.25C403.508 180.25 403.02 180.153 402.565 179.965C402.11 179.776 401.697 179.5 401.348 179.152C401 178.803 400.724 178.39 400.535 177.935C400.347 177.48 400.25 176.992 400.25 176.5C400.25 175.505 400.645 174.552 401.348 173.848C402.052 173.145 403.005 172.75 404 172.75C404.995 172.75 405.948 173.145 406.652 173.848C407.355 174.552 407.75 175.505 407.75 176.5Z" stroke="#6B7280" stroke-linecap="round" stroke-linejoin="round"/>
<rect x="415" y="173.5" width="65" height="6" rx="3" fill="#6B7280"/>
<path d="M402.75 194.5L403.583 195.333L405.25 193.667M407.75 194.5C407.75 194.992 407.653 195.48 407.465 195.935C407.276 196.39 407 196.803 406.652 197.152C406.303 197.5 405.89 197.776 405.435 197.965C404.98 198.153 404.492 198.25 404 198.25C403.508 198.25 403.02 198.153 402.565 197.965C402.11 197.776 401.697 197.5 401.348 197.152C401 196.803 400.724 196.39 400.535 195.935C400.347 195.48 400.25 194.992 400.25 194.5C400.25 193.505 400.645 192.552 401.348 191.848C402.052 191.145 403.005 190.75 404 190.75C404.995 190.75 405.948 191.145 406.652 191.848C407.355 192.552 407.75 193.505 407.75 194.5Z" stroke="#6B7280" stroke-linecap="round" stroke-linejoin="round"/>
<rect x="415" y="191.5" width="62" height="6" rx="3" fill="#6B7280"/>
<path d="M402.75 212.5L403.583 213.333L405.25 211.667M407.75 212.5C407.75 212.992 407.653 213.48 407.465 213.935C407.276 214.39 407 214.803 406.652 215.152C406.303 215.5 405.89 215.776 405.435 215.965C404.98 216.153 404.492 216.25 404 216.25C403.508 216.25 403.02 216.153 402.565 215.965C402.11 215.776 401.697 215.5 401.348 215.152C401 214.803 400.724 214.39 400.535 213.935C400.347 213.48 400.25 212.992 400.25 212.5C400.25 211.505 400.645 210.552 401.348 209.848C402.052 209.145 403.005 208.75 404 208.75C404.995 208.75 405.948 209.145 406.652 209.848C407.355 210.552 407.75 211.505 407.75 212.5Z" stroke="#6B7280" stroke-linecap="round" stroke-linejoin="round"/>
<rect x="415" y="209.5" width="73" height="6" rx="3" fill="#6B7280"/>
<path d="M402.75 230.5L403.583 231.333L405.25 229.667M407.75 230.5C407.75 230.992 407.653 231.48 407.465 231.935C407.276 232.39 407 232.803 406.652 233.152C406.303 233.5 405.89 233.776 405.435 233.965C404.98 234.153 404.492 234.25 404 234.25C403.508 234.25 403.02 234.153 402.565 233.965C402.11 233.776 401.697 233.5 401.348 233.152C401 232.803 400.724 232.39 400.535 231.935C400.347 231.48 400.25 230.992 400.25 230.5C400.25 229.505 400.645 228.552 401.348 227.848C402.052 227.145 403.005 226.75 404 226.75C404.995 226.75 405.948 227.145 406.652 227.848C407.355 228.552 407.75 229.505 407.75 230.5Z" stroke="#6B7280" stroke-linecap="round" stroke-linejoin="round"/>
<rect x="415" y="227.5" width="66" height="6" rx="3" fill="#6B7280"/>
<path d="M402.75 248.5L403.583 249.333L405.25 247.667M407.75 248.5C407.75 248.992 407.653 249.48 407.465 249.935C407.276 250.39 407 250.803 406.652 251.152C406.303 251.5 405.89 251.776 405.435 251.965C404.98 252.153 404.492 252.25 404 252.25C403.508 252.25 403.02 252.153 402.565 251.965C402.11 251.776 401.697 251.5 401.348 251.152C401 250.803 400.724 250.39 400.535 249.935C400.347 249.48 400.25 248.992 400.25 248.5C400.25 247.505 400.645 246.552 401.348 245.848C402.052 245.145 403.005 244.75 404 244.75C404.995 244.75 405.948 245.145 406.652 245.848C407.355 246.552 407.75 247.505 407.75 248.5Z" stroke="#6B7280" stroke-linecap="round" stroke-linejoin="round"/>
<rect x="415" y="245.5" width="63" height="6" rx="3" fill="#6B7280"/>
</svg>
