<svg width="536" height="340" viewBox="0 0 536 340" fill="none" xmlns="http://www.w3.org/2000/svg">
<rect width="536" height="340" fill="#111928"/>
<rect x="32" y="45.5" width="216" height="10" rx="5" fill="#6B7280"/>
<rect x="32" y="65.5" width="146" height="10" rx="5" fill="#6B7280"/>
<rect x="32" y="91.5" width="220" height="8" rx="4" fill="#4B5563"/>
<rect x="32" y="105.5" width="188" height="8" rx="4" fill="#4B5563"/>
<rect x="32" y="119.5" width="210" height="8" rx="4" fill="#4B5563"/>
<rect x="284" y="45.5" width="220" height="8" rx="4" fill="#4B5563"/>
<rect x="284" y="59.5" width="195" height="8" rx="4" fill="#4B5563"/>
<rect x="284" y="73.5" width="144" height="8" rx="4" fill="#4B5563"/>
<rect x="284" y="97.5" width="220" height="8" rx="4" fill="#4B5563"/>
<rect x="284" y="111.5" width="186" height="8" rx="4" fill="#4B5563"/>
<rect x="32.5" y="160" width="108" height="134" rx="4.5" fill="#111928"/>
<rect x="32.5" y="160" width="108" height="134" rx="4.5" stroke="#1F2A37"/>
<rect x="40" y="167.5" width="93" height="48" rx="5" fill="#374151"/>
<path d="M90.3891 188.514C91.4205 187.483 92 186.084 92 184.625C92 183.166 91.4205 181.767 90.3891 180.736C89.3576 179.704 87.9587 179.125 86.5 179.125C85.0413 179.125 83.6424 179.704 82.6109 180.736C81.5795 181.767 81 183.166 81 184.625C81 186.084 81.5795 187.483 82.6109 188.514C83.6424 189.546 85.0413 190.125 86.5 190.125C87.9587 190.125 89.3576 189.546 90.3891 188.514Z" stroke="#6B7280" stroke-width="2" stroke-linecap="round" stroke-linejoin="round"/>
<path d="M79.6941 197.069C81.4991 195.264 83.9473 194.25 86.5 194.25C89.0527 194.25 91.5009 195.264 93.3059 197.069C95.1109 198.874 96.125 201.322 96.125 203.875H76.875C76.875 201.322 77.8891 198.874 79.6941 197.069Z" stroke="#6B7280" stroke-width="2" stroke-linecap="round" stroke-linejoin="round"/>
<rect x="40" y="225.5" width="51" height="5" rx="2" fill="#6B7280"/>
<rect x="40" y="234.5" width="35" height="4" rx="2" fill="#4B5563"/>
<rect x="40" y="246.5" width="88" height="4" rx="2" fill="#4B5563"/>
<rect x="40" y="254.5" width="79" height="4" rx="2" fill="#4B5563"/>
<rect x="40" y="262.5" width="83" height="4" rx="2" fill="#4B5563"/>
<path d="M46.6812 281.969L46.8862 280.621H45.5825V279.742C45.5825 279.361 45.7583 279.01 46.3442 279.01H46.9448V277.853C46.9448 277.853 46.4028 277.75 45.8901 277.75C44.8208 277.75 44.1177 278.409 44.1177 279.581V280.621H42.9165V281.969H44.1177V285.25H45.5825V281.969H46.6812Z" fill="#6B7280"/>
<path d="M61.9736 280.092C62.2666 279.872 62.5303 279.609 62.7354 279.301C62.4717 279.418 62.1641 279.506 61.8564 279.535C62.1787 279.345 62.4131 279.052 62.5303 278.686C62.2373 278.862 61.9004 278.993 61.5635 279.067C61.2705 278.759 60.875 278.583 60.4355 278.583C59.5859 278.583 58.8975 279.272 58.8975 280.121C58.8975 280.239 58.9121 280.356 58.9414 280.473C57.667 280.4 56.5244 279.784 55.7627 278.862C55.6309 279.081 55.5576 279.345 55.5576 279.638C55.5576 280.165 55.8213 280.634 56.2461 280.912C55.9971 280.898 55.748 280.839 55.543 280.722V280.737C55.543 281.484 56.0703 282.099 56.7734 282.245C56.6562 282.275 56.5098 282.304 56.3779 282.304C56.2754 282.304 56.1875 282.289 56.085 282.275C56.2754 282.89 56.8467 283.329 57.5205 283.344C56.9932 283.754 56.334 284.003 55.6162 284.003C55.4844 284.003 55.3672 283.989 55.25 283.974C55.9238 284.413 56.7295 284.662 57.6084 284.662C60.4355 284.662 61.9736 282.333 61.9736 280.297C61.9736 280.224 61.9736 280.165 61.9736 280.092Z" fill="#6B7280"/>
<path d="M72.8828 277.75C70.876 277.75 69.25 279.391 69.25 281.383C69.25 283.39 70.876 285.016 72.8828 285.016C74.875 285.016 76.5156 283.39 76.5156 281.383C76.5156 279.391 74.875 277.75 72.8828 277.75ZM75.2705 279.435C75.71 279.962 75.9736 280.636 75.9736 281.368C75.8711 281.339 74.8457 281.134 73.8203 281.266C73.7324 281.061 73.6592 280.885 73.542 280.65C74.6992 280.182 75.2119 279.522 75.2705 279.435ZM74.9336 279.068C74.875 279.156 74.4062 279.786 73.3076 280.196C72.7949 279.259 72.2383 278.497 72.1504 278.38C73.1318 278.146 74.1719 278.395 74.9336 279.068ZM71.5498 278.585C71.6377 278.702 72.1943 279.464 72.707 280.387C71.2568 280.768 69.9824 280.768 69.8359 280.753C70.041 279.801 70.6855 278.995 71.5498 278.585ZM69.7773 281.397C69.7773 281.368 69.7773 281.339 69.7773 281.295C69.9092 281.31 71.418 281.324 72.9561 280.855C73.0586 281.031 73.1318 281.207 73.2197 281.383C72.0918 281.705 71.0664 282.613 70.5684 283.463C70.0703 282.921 69.7773 282.188 69.7773 281.397ZM70.9639 283.844C71.3008 283.185 72.1797 282.32 73.4248 281.896C73.8643 283.023 74.04 283.976 74.084 284.254C73.0879 284.679 71.8867 284.562 70.9639 283.844ZM74.6113 283.961C74.582 283.785 74.4062 282.877 74.0107 281.749C74.9775 281.603 75.8271 281.852 75.9443 281.881C75.7979 282.745 75.2998 283.492 74.6113 283.961Z" fill="#6B7280"/>
<path d="M85.667 283.463C85.667 283.434 85.6377 283.404 85.5937 283.404C85.5498 283.404 85.5205 283.434 85.5205 283.463C85.5205 283.492 85.5498 283.521 85.5937 283.507C85.6377 283.507 85.667 283.492 85.667 283.463ZM85.2129 283.39C85.2129 283.419 85.2422 283.463 85.2861 283.463C85.3154 283.478 85.3594 283.463 85.374 283.434C85.374 283.404 85.3594 283.375 85.3154 283.36C85.2715 283.346 85.2275 283.36 85.2129 283.39ZM85.8721 283.375C85.8281 283.375 85.7988 283.404 85.7988 283.448C85.7988 283.478 85.8428 283.492 85.8867 283.478C85.9307 283.463 85.96 283.448 85.9453 283.419C85.9453 283.39 85.9014 283.36 85.8721 283.375ZM86.8242 277.75C84.8027 277.75 83.25 279.303 83.25 281.324C83.25 282.95 84.2607 284.342 85.7256 284.84C85.916 284.869 85.9746 284.752 85.9746 284.664C85.9746 284.562 85.9746 284.063 85.9746 283.756C85.9746 283.756 84.9492 283.976 84.7295 283.316C84.7295 283.316 84.5684 282.892 84.334 282.789C84.334 282.789 83.9971 282.555 84.3486 282.555C84.3486 282.555 84.7148 282.584 84.9199 282.936C85.2422 283.507 85.7695 283.346 85.9893 283.243C86.0186 283.009 86.1064 282.848 86.2236 282.745C85.4033 282.657 84.5684 282.54 84.5684 281.134C84.5684 280.724 84.6855 280.533 84.9199 280.27C84.876 280.167 84.7588 279.786 84.9639 279.273C85.2568 279.186 85.9746 279.669 85.9746 279.669C86.2676 279.581 86.5752 279.552 86.8828 279.552C87.2051 279.552 87.5127 279.581 87.8057 279.669C87.8057 279.669 88.5088 279.171 88.8164 279.273C89.0215 279.786 88.8896 280.167 88.8604 280.27C89.0947 280.533 89.2412 280.724 89.2412 281.134C89.2412 282.54 88.377 282.657 87.5566 282.745C87.6885 282.862 87.8057 283.082 87.8057 283.434C87.8057 283.917 87.791 284.532 87.791 284.649C87.791 284.752 87.8643 284.869 88.0547 284.825C89.5195 284.342 90.5156 282.95 90.5156 281.324C90.5156 279.303 88.8604 277.75 86.8242 277.75ZM84.6709 282.804C84.6416 282.818 84.6562 282.862 84.6709 282.892C84.7002 282.906 84.7295 282.921 84.7588 282.906C84.7734 282.892 84.7734 282.848 84.7441 282.818C84.7148 282.804 84.6855 282.789 84.6709 282.804ZM84.5098 282.687C84.4951 282.716 84.5098 282.73 84.5391 282.745C84.5684 282.76 84.5977 282.76 84.6123 282.73C84.6123 282.716 84.5977 282.701 84.5684 282.687C84.5391 282.672 84.5244 282.672 84.5098 282.687ZM84.9785 283.214C84.9639 283.229 84.9639 283.272 85.0078 283.302C85.0371 283.331 85.0811 283.346 85.0957 283.316C85.1104 283.302 85.1104 283.258 85.0811 283.229C85.0518 283.199 85.0078 283.185 84.9785 283.214ZM84.8174 282.994C84.7881 283.009 84.7881 283.053 84.8174 283.082C84.8467 283.111 84.876 283.126 84.9053 283.111C84.9199 283.097 84.9199 283.053 84.9053 283.023C84.876 282.994 84.8467 282.979 84.8174 282.994Z" fill="#6B7280"/>
<rect x="153.5" y="160" width="108" height="134" rx="4.5" fill="#111928"/>
<rect x="153.5" y="160" width="108" height="134" rx="4.5" stroke="#1F2A37"/>
<rect x="161" y="167.5" width="93" height="48" rx="5" fill="#374151"/>
<path d="M211.389 188.514C212.421 187.483 213 186.084 213 184.625C213 183.166 212.421 181.767 211.389 180.736C210.358 179.704 208.959 179.125 207.5 179.125C206.041 179.125 204.642 179.704 203.611 180.736C202.579 181.767 202 183.166 202 184.625C202 186.084 202.579 187.483 203.611 188.514C204.642 189.546 206.041 190.125 207.5 190.125C208.959 190.125 210.358 189.546 211.389 188.514Z" stroke="#6B7280" stroke-width="2" stroke-linecap="round" stroke-linejoin="round"/>
<path d="M200.694 197.069C202.499 195.264 204.947 194.25 207.5 194.25C210.053 194.25 212.501 195.264 214.306 197.069C216.111 198.874 217.125 201.322 217.125 203.875H197.875C197.875 201.322 198.889 198.874 200.694 197.069Z" stroke="#6B7280" stroke-width="2" stroke-linecap="round" stroke-linejoin="round"/>
<rect x="161" y="225.5" width="51" height="5" rx="2" fill="#6B7280"/>
<rect x="161" y="234.5" width="35" height="4" rx="2" fill="#4B5563"/>
<rect x="161" y="246.5" width="88" height="4" rx="2" fill="#4B5563"/>
<rect x="161" y="254.5" width="79" height="4" rx="2" fill="#4B5563"/>
<rect x="161" y="262.5" width="83" height="4" rx="2" fill="#4B5563"/>
<path d="M167.681 281.969L167.886 280.621H166.583V279.742C166.583 279.361 166.758 279.01 167.344 279.01H167.945V277.853C167.945 277.853 167.403 277.75 166.89 277.75C165.821 277.75 165.118 278.409 165.118 279.581V280.621H163.917V281.969H165.118V285.25H166.583V281.969H167.681Z" fill="#6B7280"/>
<path d="M182.974 280.092C183.267 279.872 183.53 279.609 183.735 279.301C183.472 279.418 183.164 279.506 182.856 279.535C183.179 279.345 183.413 279.052 183.53 278.686C183.237 278.862 182.9 278.993 182.563 279.067C182.271 278.759 181.875 278.583 181.436 278.583C180.586 278.583 179.897 279.272 179.897 280.121C179.897 280.239 179.912 280.356 179.941 280.473C178.667 280.4 177.524 279.784 176.763 278.862C176.631 279.081 176.558 279.345 176.558 279.638C176.558 280.165 176.821 280.634 177.246 280.912C176.997 280.898 176.748 280.839 176.543 280.722V280.737C176.543 281.484 177.07 282.099 177.773 282.245C177.656 282.275 177.51 282.304 177.378 282.304C177.275 282.304 177.187 282.289 177.085 282.275C177.275 282.89 177.847 283.329 178.521 283.344C177.993 283.754 177.334 284.003 176.616 284.003C176.484 284.003 176.367 283.989 176.25 283.974C176.924 284.413 177.729 284.662 178.608 284.662C181.436 284.662 182.974 282.333 182.974 280.297C182.974 280.224 182.974 280.165 182.974 280.092Z" fill="#6B7280"/>
<path d="M193.883 277.75C191.876 277.75 190.25 279.391 190.25 281.383C190.25 283.39 191.876 285.016 193.883 285.016C195.875 285.016 197.516 283.39 197.516 281.383C197.516 279.391 195.875 277.75 193.883 277.75ZM196.271 279.435C196.71 279.962 196.974 280.636 196.974 281.368C196.871 281.339 195.846 281.134 194.82 281.266C194.732 281.061 194.659 280.885 194.542 280.65C195.699 280.182 196.212 279.522 196.271 279.435ZM195.934 279.068C195.875 279.156 195.406 279.786 194.308 280.196C193.795 279.259 193.238 278.497 193.15 278.38C194.132 278.146 195.172 278.395 195.934 279.068ZM192.55 278.585C192.638 278.702 193.194 279.464 193.707 280.387C192.257 280.768 190.982 280.768 190.836 280.753C191.041 279.801 191.686 278.995 192.55 278.585ZM190.777 281.397C190.777 281.368 190.777 281.339 190.777 281.295C190.909 281.31 192.418 281.324 193.956 280.855C194.059 281.031 194.132 281.207 194.22 281.383C193.092 281.705 192.066 282.613 191.568 283.463C191.07 282.921 190.777 282.188 190.777 281.397ZM191.964 283.844C192.301 283.185 193.18 282.32 194.425 281.896C194.864 283.023 195.04 283.976 195.084 284.254C194.088 284.679 192.887 284.562 191.964 283.844ZM195.611 283.961C195.582 283.785 195.406 282.877 195.011 281.749C195.978 281.603 196.827 281.852 196.944 281.881C196.798 282.745 196.3 283.492 195.611 283.961Z" fill="#6B7280"/>
<path d="M206.667 283.463C206.667 283.434 206.638 283.404 206.594 283.404C206.55 283.404 206.521 283.434 206.521 283.463C206.521 283.492 206.55 283.521 206.594 283.507C206.638 283.507 206.667 283.492 206.667 283.463ZM206.213 283.39C206.213 283.419 206.242 283.463 206.286 283.463C206.315 283.478 206.359 283.463 206.374 283.434C206.374 283.404 206.359 283.375 206.315 283.36C206.271 283.346 206.228 283.36 206.213 283.39ZM206.872 283.375C206.828 283.375 206.799 283.404 206.799 283.448C206.799 283.478 206.843 283.492 206.887 283.478C206.931 283.463 206.96 283.448 206.945 283.419C206.945 283.39 206.901 283.36 206.872 283.375ZM207.824 277.75C205.803 277.75 204.25 279.303 204.25 281.324C204.25 282.95 205.261 284.342 206.726 284.84C206.916 284.869 206.975 284.752 206.975 284.664C206.975 284.562 206.975 284.063 206.975 283.756C206.975 283.756 205.949 283.976 205.729 283.316C205.729 283.316 205.568 282.892 205.334 282.789C205.334 282.789 204.997 282.555 205.349 282.555C205.349 282.555 205.715 282.584 205.92 282.936C206.242 283.507 206.77 283.346 206.989 283.243C207.019 283.009 207.106 282.848 207.224 282.745C206.403 282.657 205.568 282.54 205.568 281.134C205.568 280.724 205.686 280.533 205.92 280.27C205.876 280.167 205.759 279.786 205.964 279.273C206.257 279.186 206.975 279.669 206.975 279.669C207.268 279.581 207.575 279.552 207.883 279.552C208.205 279.552 208.513 279.581 208.806 279.669C208.806 279.669 209.509 279.171 209.816 279.273C210.021 279.786 209.89 280.167 209.86 280.27C210.095 280.533 210.241 280.724 210.241 281.134C210.241 282.54 209.377 282.657 208.557 282.745C208.688 282.862 208.806 283.082 208.806 283.434C208.806 283.917 208.791 284.532 208.791 284.649C208.791 284.752 208.864 284.869 209.055 284.825C210.52 284.342 211.516 282.95 211.516 281.324C211.516 279.303 209.86 277.75 207.824 277.75ZM205.671 282.804C205.642 282.818 205.656 282.862 205.671 282.892C205.7 282.906 205.729 282.921 205.759 282.906C205.773 282.892 205.773 282.848 205.744 282.818C205.715 282.804 205.686 282.789 205.671 282.804ZM205.51 282.687C205.495 282.716 205.51 282.73 205.539 282.745C205.568 282.76 205.598 282.76 205.612 282.73C205.612 282.716 205.598 282.701 205.568 282.687C205.539 282.672 205.524 282.672 205.51 282.687ZM205.979 283.214C205.964 283.229 205.964 283.272 206.008 283.302C206.037 283.331 206.081 283.346 206.096 283.316C206.11 283.302 206.11 283.258 206.081 283.229C206.052 283.199 206.008 283.185 205.979 283.214ZM205.817 282.994C205.788 283.009 205.788 283.053 205.817 283.082C205.847 283.111 205.876 283.126 205.905 283.111C205.92 283.097 205.92 283.053 205.905 283.023C205.876 282.994 205.847 282.979 205.817 282.994Z" fill="#6B7280"/>
<rect x="274.5" y="160" width="108" height="134" rx="4.5" fill="#111928"/>
<rect x="274.5" y="160" width="108" height="134" rx="4.5" stroke="#1F2A37"/>
<rect x="282" y="167.5" width="93" height="48" rx="5" fill="#374151"/>
<path d="M332.389 188.514C333.421 187.483 334 186.084 334 184.625C334 183.166 333.421 181.767 332.389 180.736C331.358 179.704 329.959 179.125 328.5 179.125C327.041 179.125 325.642 179.704 324.611 180.736C323.579 181.767 323 183.166 323 184.625C323 186.084 323.579 187.483 324.611 188.514C325.642 189.546 327.041 190.125 328.5 190.125C329.959 190.125 331.358 189.546 332.389 188.514Z" stroke="#6B7280" stroke-width="2" stroke-linecap="round" stroke-linejoin="round"/>
<path d="M321.694 197.069C323.499 195.264 325.947 194.25 328.5 194.25C331.053 194.25 333.501 195.264 335.306 197.069C337.111 198.874 338.125 201.322 338.125 203.875H318.875C318.875 201.322 319.889 198.874 321.694 197.069Z" stroke="#6B7280" stroke-width="2" stroke-linecap="round" stroke-linejoin="round"/>
<rect x="282" y="225.5" width="51" height="5" rx="2" fill="#6B7280"/>
<rect x="282" y="234.5" width="35" height="4" rx="2" fill="#4B5563"/>
<rect x="282" y="246.5" width="88" height="4" rx="2" fill="#4B5563"/>
<rect x="282" y="254.5" width="79" height="4" rx="2" fill="#4B5563"/>
<rect x="282" y="262.5" width="83" height="4" rx="2" fill="#4B5563"/>
<path d="M288.681 281.969L288.886 280.621H287.583V279.742C287.583 279.361 287.758 279.01 288.344 279.01H288.945V277.853C288.945 277.853 288.403 277.75 287.89 277.75C286.821 277.75 286.118 278.409 286.118 279.581V280.621H284.917V281.969H286.118V285.25H287.583V281.969H288.681Z" fill="#6B7280"/>
<path d="M303.974 280.092C304.267 279.872 304.53 279.609 304.735 279.301C304.472 279.418 304.164 279.506 303.856 279.535C304.179 279.345 304.413 279.052 304.53 278.686C304.237 278.862 303.9 278.993 303.563 279.067C303.271 278.759 302.875 278.583 302.436 278.583C301.586 278.583 300.897 279.272 300.897 280.121C300.897 280.239 300.912 280.356 300.941 280.473C299.667 280.4 298.524 279.784 297.763 278.862C297.631 279.081 297.558 279.345 297.558 279.638C297.558 280.165 297.821 280.634 298.246 280.912C297.997 280.898 297.748 280.839 297.543 280.722V280.737C297.543 281.484 298.07 282.099 298.773 282.245C298.656 282.275 298.51 282.304 298.378 282.304C298.275 282.304 298.187 282.289 298.085 282.275C298.275 282.89 298.847 283.329 299.521 283.344C298.993 283.754 298.334 284.003 297.616 284.003C297.484 284.003 297.367 283.989 297.25 283.974C297.924 284.413 298.729 284.662 299.608 284.662C302.436 284.662 303.974 282.333 303.974 280.297C303.974 280.224 303.974 280.165 303.974 280.092Z" fill="#6B7280"/>
<path d="M314.883 277.75C312.876 277.75 311.25 279.391 311.25 281.383C311.25 283.39 312.876 285.016 314.883 285.016C316.875 285.016 318.516 283.39 318.516 281.383C318.516 279.391 316.875 277.75 314.883 277.75ZM317.271 279.435C317.71 279.962 317.974 280.636 317.974 281.368C317.871 281.339 316.846 281.134 315.82 281.266C315.732 281.061 315.659 280.885 315.542 280.65C316.699 280.182 317.212 279.522 317.271 279.435ZM316.934 279.068C316.875 279.156 316.406 279.786 315.308 280.196C314.795 279.259 314.238 278.497 314.15 278.38C315.132 278.146 316.172 278.395 316.934 279.068ZM313.55 278.585C313.638 278.702 314.194 279.464 314.707 280.387C313.257 280.768 311.982 280.768 311.836 280.753C312.041 279.801 312.686 278.995 313.55 278.585ZM311.777 281.397C311.777 281.368 311.777 281.339 311.777 281.295C311.909 281.31 313.418 281.324 314.956 280.855C315.059 281.031 315.132 281.207 315.22 281.383C314.092 281.705 313.066 282.613 312.568 283.463C312.07 282.921 311.777 282.188 311.777 281.397ZM312.964 283.844C313.301 283.185 314.18 282.32 315.425 281.896C315.864 283.023 316.04 283.976 316.084 284.254C315.088 284.679 313.887 284.562 312.964 283.844ZM316.611 283.961C316.582 283.785 316.406 282.877 316.011 281.749C316.978 281.603 317.827 281.852 317.944 281.881C317.798 282.745 317.3 283.492 316.611 283.961Z" fill="#6B7280"/>
<path d="M327.667 283.463C327.667 283.434 327.638 283.404 327.594 283.404C327.55 283.404 327.521 283.434 327.521 283.463C327.521 283.492 327.55 283.521 327.594 283.507C327.638 283.507 327.667 283.492 327.667 283.463ZM327.213 283.39C327.213 283.419 327.242 283.463 327.286 283.463C327.315 283.478 327.359 283.463 327.374 283.434C327.374 283.404 327.359 283.375 327.315 283.36C327.271 283.346 327.228 283.36 327.213 283.39ZM327.872 283.375C327.828 283.375 327.799 283.404 327.799 283.448C327.799 283.478 327.843 283.492 327.887 283.478C327.931 283.463 327.96 283.448 327.945 283.419C327.945 283.39 327.901 283.36 327.872 283.375ZM328.824 277.75C326.803 277.75 325.25 279.303 325.25 281.324C325.25 282.95 326.261 284.342 327.726 284.84C327.916 284.869 327.975 284.752 327.975 284.664C327.975 284.562 327.975 284.063 327.975 283.756C327.975 283.756 326.949 283.976 326.729 283.316C326.729 283.316 326.568 282.892 326.334 282.789C326.334 282.789 325.997 282.555 326.349 282.555C326.349 282.555 326.715 282.584 326.92 282.936C327.242 283.507 327.77 283.346 327.989 283.243C328.019 283.009 328.106 282.848 328.224 282.745C327.403 282.657 326.568 282.54 326.568 281.134C326.568 280.724 326.686 280.533 326.92 280.27C326.876 280.167 326.759 279.786 326.964 279.273C327.257 279.186 327.975 279.669 327.975 279.669C328.268 279.581 328.575 279.552 328.883 279.552C329.205 279.552 329.513 279.581 329.806 279.669C329.806 279.669 330.509 279.171 330.816 279.273C331.021 279.786 330.89 280.167 330.86 280.27C331.095 280.533 331.241 280.724 331.241 281.134C331.241 282.54 330.377 282.657 329.557 282.745C329.688 282.862 329.806 283.082 329.806 283.434C329.806 283.917 329.791 284.532 329.791 284.649C329.791 284.752 329.864 284.869 330.055 284.825C331.52 284.342 332.516 282.95 332.516 281.324C332.516 279.303 330.86 277.75 328.824 277.75ZM326.671 282.804C326.642 282.818 326.656 282.862 326.671 282.892C326.7 282.906 326.729 282.921 326.759 282.906C326.773 282.892 326.773 282.848 326.744 282.818C326.715 282.804 326.686 282.789 326.671 282.804ZM326.51 282.687C326.495 282.716 326.51 282.73 326.539 282.745C326.568 282.76 326.598 282.76 326.612 282.73C326.612 282.716 326.598 282.701 326.568 282.687C326.539 282.672 326.524 282.672 326.51 282.687ZM326.979 283.214C326.964 283.229 326.964 283.272 327.008 283.302C327.037 283.331 327.081 283.346 327.096 283.316C327.11 283.302 327.11 283.258 327.081 283.229C327.052 283.199 327.008 283.185 326.979 283.214ZM326.817 282.994C326.788 283.009 326.788 283.053 326.817 283.082C326.847 283.111 326.876 283.126 326.905 283.111C326.92 283.097 326.92 283.053 326.905 283.023C326.876 282.994 326.847 282.979 326.817 282.994Z" fill="#6B7280"/>
<rect x="395.5" y="160" width="108" height="134" rx="4.5" fill="#111928"/>
<rect x="395.5" y="160" width="108" height="134" rx="4.5" stroke="#1F2A37"/>
<rect x="403" y="167.5" width="93" height="48" rx="5" fill="#374151"/>
<path d="M453.389 188.514C454.421 187.483 455 186.084 455 184.625C455 183.166 454.421 181.767 453.389 180.736C452.358 179.704 450.959 179.125 449.5 179.125C448.041 179.125 446.642 179.704 445.611 180.736C444.579 181.767 444 183.166 444 184.625C444 186.084 444.579 187.483 445.611 188.514C446.642 189.546 448.041 190.125 449.5 190.125C450.959 190.125 452.358 189.546 453.389 188.514Z" stroke="#6B7280" stroke-width="2" stroke-linecap="round" stroke-linejoin="round"/>
<path d="M442.694 197.069C444.499 195.264 446.947 194.25 449.5 194.25C452.053 194.25 454.501 195.264 456.306 197.069C458.111 198.874 459.125 201.322 459.125 203.875H439.875C439.875 201.322 440.889 198.874 442.694 197.069Z" stroke="#6B7280" stroke-width="2" stroke-linecap="round" stroke-linejoin="round"/>
<rect x="403" y="225.5" width="51" height="5" rx="2" fill="#6B7280"/>
<rect x="403" y="234.5" width="35" height="4" rx="2" fill="#4B5563"/>
<rect x="403" y="246.5" width="88" height="4" rx="2" fill="#4B5563"/>
<rect x="403" y="254.5" width="79" height="4" rx="2" fill="#4B5563"/>
<rect x="403" y="262.5" width="83" height="4" rx="2" fill="#4B5563"/>
<path d="M409.681 281.969L409.886 280.621H408.583V279.742C408.583 279.361 408.758 279.01 409.344 279.01H409.945V277.853C409.945 277.853 409.403 277.75 408.89 277.75C407.821 277.75 407.118 278.409 407.118 279.581V280.621H405.917V281.969H407.118V285.25H408.583V281.969H409.681Z" fill="#6B7280"/>
<path d="M424.974 280.092C425.267 279.872 425.53 279.609 425.735 279.301C425.472 279.418 425.164 279.506 424.856 279.535C425.179 279.345 425.413 279.052 425.53 278.686C425.237 278.862 424.9 278.993 424.563 279.067C424.271 278.759 423.875 278.583 423.436 278.583C422.586 278.583 421.897 279.272 421.897 280.121C421.897 280.239 421.912 280.356 421.941 280.473C420.667 280.4 419.524 279.784 418.763 278.862C418.631 279.081 418.558 279.345 418.558 279.638C418.558 280.165 418.821 280.634 419.246 280.912C418.997 280.898 418.748 280.839 418.543 280.722V280.737C418.543 281.484 419.07 282.099 419.773 282.245C419.656 282.275 419.51 282.304 419.378 282.304C419.275 282.304 419.187 282.289 419.085 282.275C419.275 282.89 419.847 283.329 420.521 283.344C419.993 283.754 419.334 284.003 418.616 284.003C418.484 284.003 418.367 283.989 418.25 283.974C418.924 284.413 419.729 284.662 420.608 284.662C423.436 284.662 424.974 282.333 424.974 280.297C424.974 280.224 424.974 280.165 424.974 280.092Z" fill="#6B7280"/>
<path d="M435.883 277.75C433.876 277.75 432.25 279.391 432.25 281.383C432.25 283.39 433.876 285.016 435.883 285.016C437.875 285.016 439.516 283.39 439.516 281.383C439.516 279.391 437.875 277.75 435.883 277.75ZM438.271 279.435C438.71 279.962 438.974 280.636 438.974 281.368C438.871 281.339 437.846 281.134 436.82 281.266C436.732 281.061 436.659 280.885 436.542 280.65C437.699 280.182 438.212 279.522 438.271 279.435ZM437.934 279.068C437.875 279.156 437.406 279.786 436.308 280.196C435.795 279.259 435.238 278.497 435.15 278.38C436.132 278.146 437.172 278.395 437.934 279.068ZM434.55 278.585C434.638 278.702 435.194 279.464 435.707 280.387C434.257 280.768 432.982 280.768 432.836 280.753C433.041 279.801 433.686 278.995 434.55 278.585ZM432.777 281.397C432.777 281.368 432.777 281.339 432.777 281.295C432.909 281.31 434.418 281.324 435.956 280.855C436.059 281.031 436.132 281.207 436.22 281.383C435.092 281.705 434.066 282.613 433.568 283.463C433.07 282.921 432.777 282.188 432.777 281.397ZM433.964 283.844C434.301 283.185 435.18 282.32 436.425 281.896C436.864 283.023 437.04 283.976 437.084 284.254C436.088 284.679 434.887 284.562 433.964 283.844ZM437.611 283.961C437.582 283.785 437.406 282.877 437.011 281.749C437.978 281.603 438.827 281.852 438.944 281.881C438.798 282.745 438.3 283.492 437.611 283.961Z" fill="#6B7280"/>
<path d="M448.667 283.463C448.667 283.434 448.638 283.404 448.594 283.404C448.55 283.404 448.521 283.434 448.521 283.463C448.521 283.492 448.55 283.521 448.594 283.507C448.638 283.507 448.667 283.492 448.667 283.463ZM448.213 283.39C448.213 283.419 448.242 283.463 448.286 283.463C448.315 283.478 448.359 283.463 448.374 283.434C448.374 283.404 448.359 283.375 448.315 283.36C448.271 283.346 448.228 283.36 448.213 283.39ZM448.872 283.375C448.828 283.375 448.799 283.404 448.799 283.448C448.799 283.478 448.843 283.492 448.887 283.478C448.931 283.463 448.96 283.448 448.945 283.419C448.945 283.39 448.901 283.36 448.872 283.375ZM449.824 277.75C447.803 277.75 446.25 279.303 446.25 281.324C446.25 282.95 447.261 284.342 448.726 284.84C448.916 284.869 448.975 284.752 448.975 284.664C448.975 284.562 448.975 284.063 448.975 283.756C448.975 283.756 447.949 283.976 447.729 283.316C447.729 283.316 447.568 282.892 447.334 282.789C447.334 282.789 446.997 282.555 447.349 282.555C447.349 282.555 447.715 282.584 447.92 282.936C448.242 283.507 448.77 283.346 448.989 283.243C449.019 283.009 449.106 282.848 449.224 282.745C448.403 282.657 447.568 282.54 447.568 281.134C447.568 280.724 447.686 280.533 447.92 280.27C447.876 280.167 447.759 279.786 447.964 279.273C448.257 279.186 448.975 279.669 448.975 279.669C449.268 279.581 449.575 279.552 449.883 279.552C450.205 279.552 450.513 279.581 450.806 279.669C450.806 279.669 451.509 279.171 451.816 279.273C452.021 279.786 451.89 280.167 451.86 280.27C452.095 280.533 452.241 280.724 452.241 281.134C452.241 282.54 451.377 282.657 450.557 282.745C450.688 282.862 450.806 283.082 450.806 283.434C450.806 283.917 450.791 284.532 450.791 284.649C450.791 284.752 450.864 284.869 451.055 284.825C452.52 284.342 453.516 282.95 453.516 281.324C453.516 279.303 451.86 277.75 449.824 277.75ZM447.671 282.804C447.642 282.818 447.656 282.862 447.671 282.892C447.7 282.906 447.729 282.921 447.759 282.906C447.773 282.892 447.773 282.848 447.744 282.818C447.715 282.804 447.686 282.789 447.671 282.804ZM447.51 282.687C447.495 282.716 447.51 282.73 447.539 282.745C447.568 282.76 447.598 282.76 447.612 282.73C447.612 282.716 447.598 282.701 447.568 282.687C447.539 282.672 447.524 282.672 447.51 282.687ZM447.979 283.214C447.964 283.229 447.964 283.272 448.008 283.302C448.037 283.331 448.081 283.346 448.096 283.316C448.11 283.302 448.11 283.258 448.081 283.229C448.052 283.199 448.008 283.185 447.979 283.214ZM447.817 282.994C447.788 283.009 447.788 283.053 447.817 283.082C447.847 283.111 447.876 283.126 447.905 283.111C447.92 283.097 447.92 283.053 447.905 283.023C447.876 282.994 447.847 282.979 447.817 282.994Z" fill="#6B7280"/>
</svg>
