<svg width="536" height="340" viewBox="0 0 536 340" fill="none" xmlns="http://www.w3.org/2000/svg">
<rect width="536" height="340" fill="#111928"/>
<rect x="131.5" y="34" width="273" height="10" rx="5" fill="#6B7280"/>
<rect x="48" y="60" width="440" height="8" rx="4" fill="#4B5563"/>
<rect x="113.5" y="74" width="309" height="8" rx="4" fill="#4B5563"/>
<rect x="48" y="114" width="89.5" height="92" rx="8" fill="#374151"/>
<path fill-rule="evenodd" clip-rule="evenodd" d="M104.344 152.176C106.368 152.176 108.009 150.458 108.009 148.338C108.009 146.218 106.368 144.5 104.344 144.5C102.32 144.5 100.679 146.218 100.679 148.338C100.679 150.458 102.32 152.176 104.344 152.176ZM94.2 175.416H72.0445C71.2673 175.416 70.7871 174.569 71.187 173.902L86.3025 148.703C86.6849 148.066 87.6013 148.049 88 148.676C89.9576 151.757 94.8828 159.518 99.0727 166.213L103.617 158.592C103.985 157.976 104.848 157.956 105.257 158.554L115.72 173.833C116.178 174.503 115.732 175.421 114.943 175.429L104.79 175.532L94.2 175.416Z" fill="#6B7280"/>
<rect x="145.5" y="114" width="245" height="92" rx="8" fill="#374151"/>
<path fill-rule="evenodd" clip-rule="evenodd" d="M279.844 152.176C281.868 152.176 283.509 150.458 283.509 148.338C283.509 146.218 281.868 144.5 279.844 144.5C277.82 144.5 276.179 146.218 276.179 148.338C276.179 150.458 277.82 152.176 279.844 152.176ZM269.7 175.416H247.545C246.767 175.416 246.287 174.569 246.687 173.902L261.803 148.703C262.185 148.066 263.101 148.049 263.5 148.676C265.458 151.757 270.383 159.518 274.573 166.213L279.117 158.592C279.485 157.976 280.348 157.956 280.757 158.554L291.22 173.833C291.678 174.503 291.232 175.421 290.443 175.429L280.29 175.532L269.7 175.416Z" fill="#6B7280"/>
<rect x="398.5" y="114" width="89.5" height="92" rx="8" fill="#374151"/>
<path fill-rule="evenodd" clip-rule="evenodd" d="M454.844 152.176C456.868 152.176 458.509 150.458 458.509 148.338C458.509 146.218 456.868 144.5 454.844 144.5C452.82 144.5 451.179 146.218 451.179 148.338C451.179 150.458 452.82 152.176 454.844 152.176ZM444.7 175.416H422.545C421.767 175.416 421.287 174.569 421.687 173.902L436.803 148.703C437.185 148.066 438.101 148.049 438.5 148.676C440.458 151.757 445.383 159.518 449.573 166.213L454.117 158.592C454.485 157.976 455.348 157.956 455.757 158.554L466.22 173.833C466.678 174.503 466.232 175.421 465.443 175.429L455.29 175.532L444.7 175.416Z" fill="#6B7280"/>
<rect x="48" y="214" width="245" height="92" rx="8" fill="#374151"/>
<path fill-rule="evenodd" clip-rule="evenodd" d="M182.344 252.176C184.368 252.176 186.009 250.458 186.009 248.338C186.009 246.218 184.368 244.5 182.344 244.5C180.32 244.5 178.679 246.218 178.679 248.338C178.679 250.458 180.32 252.176 182.344 252.176ZM172.2 275.416H150.045C149.267 275.416 148.787 274.569 149.187 273.902L164.303 248.703C164.685 248.066 165.601 248.049 166 248.676C167.958 251.757 172.883 259.518 177.073 266.213L181.617 258.592C181.985 257.976 182.848 257.956 183.257 258.554L193.72 273.833C194.178 274.503 193.732 275.421 192.943 275.429L182.79 275.532L172.2 275.416Z" fill="#6B7280"/>
<rect x="301" y="214" width="89.5" height="92" rx="8" fill="#374151"/>
<path fill-rule="evenodd" clip-rule="evenodd" d="M357.344 252.176C359.368 252.176 361.009 250.458 361.009 248.338C361.009 246.218 359.368 244.5 357.344 244.5C355.32 244.5 353.679 246.218 353.679 248.338C353.679 250.458 355.32 252.176 357.344 252.176ZM347.2 275.416H325.045C324.267 275.416 323.787 274.569 324.187 273.902L339.303 248.703C339.685 248.066 340.601 248.049 341 248.676C342.958 251.757 347.883 259.518 352.073 266.213L356.617 258.592C356.985 257.976 357.848 257.956 358.257 258.554L368.72 273.833C369.178 274.503 368.732 275.421 367.943 275.429L357.79 275.532L347.2 275.416Z" fill="#6B7280"/>
<rect x="398.5" y="214" width="89.5" height="92" rx="8" fill="#374151"/>
<path fill-rule="evenodd" clip-rule="evenodd" d="M454.844 252.176C456.868 252.176 458.509 250.458 458.509 248.338C458.509 246.218 456.868 244.5 454.844 244.5C452.82 244.5 451.179 246.218 451.179 248.338C451.179 250.458 452.82 252.176 454.844 252.176ZM444.7 275.416H422.545C421.767 275.416 421.287 274.569 421.687 273.902L436.803 248.703C437.185 248.066 438.101 248.049 438.5 248.676C440.458 251.757 445.383 259.518 449.573 266.213L454.117 258.592C454.485 257.976 455.348 257.956 455.757 258.554L466.22 273.833C466.678 274.503 466.232 275.421 465.443 275.429L455.29 275.532L444.7 275.416Z" fill="#6B7280"/>
</svg>
