<svg width="536" height="340" viewBox="0 0 536 340" fill="none" xmlns="http://www.w3.org/2000/svg">
<rect width="536" height="340" fill="#111928"/>
<rect x="211.5" y="38.5" width="113" height="10" rx="5" fill="#6B7280"/>
<rect x="162" y="64.5" width="212" height="8" rx="4" fill="#4B5563"/>
<rect x="196.5" y="78.5" width="143" height="8" rx="4" fill="#4B5563"/>
<rect x="145.5" y="106.5" width="240" height="5" rx="2.5" fill="#4B5563"/>
<rect x="145.5" y="116.5" width="231" height="5" rx="2.5" fill="#4B5563"/>
<rect x="145.5" y="126.5" width="73.6667" height="5" rx="2.5" fill="#4B5563"/>
<rect x="231.167" y="126.5" width="73.6667" height="5" rx="2.5" fill="#374151"/>
<rect x="316.833" y="126.5" width="73.6667" height="5" rx="2.5" fill="#4B5563"/>
<rect x="145.5" y="136.5" width="240" height="5" rx="2.5" fill="#4B5563"/>
<rect x="145.5" y="146.5" width="241" height="5" rx="2.5" fill="#4B5563"/>
<rect x="145.5" y="156.5" width="78" height="5" rx="2.5" fill="#4B5563"/>
<rect x="235.5" y="156.5" width="78" height="5" rx="2.5" fill="#374151"/>
<rect x="325.5" y="156.5" width="43" height="5" rx="2.5" fill="#4B5563"/>
<rect x="145.5" y="166.5" width="239" height="5" rx="2.5" fill="#4B5563"/>
<rect x="145.5" y="186.5" width="242" height="5" rx="2.5" fill="#4B5563"/>
<rect x="145.5" y="196.5" width="233" height="5" rx="2.5" fill="#4B5563"/>
<rect x="145.5" y="206.5" width="199" height="5" rx="2.5" fill="#4B5563"/>
<rect x="356.5" y="206.5" width="11" height="5" rx="2.5" fill="#374151"/>
<rect x="379.5" y="206.5" width="11" height="5" rx="2.5" fill="#4B5563"/>
<rect x="145.5" y="216.5" width="175" height="5" rx="2.5" fill="#374151"/>
<rect x="332.5" y="216.5" width="58" height="5" rx="2.5" fill="#4B5563"/>
<rect x="145.5" y="226.5" width="239" height="5" rx="2.5" fill="#4B5563"/>
<rect x="145.5" y="236.5" width="242" height="5" rx="2.5" fill="#4B5563"/>
<rect x="145.5" y="246.5" width="241" height="5" rx="2.5" fill="#4B5563"/>
<rect x="145.5" y="256.5" width="199" height="5" rx="2.5" fill="#4B5563"/>
<rect x="356.5" y="256.5" width="11" height="5" rx="2.5" fill="#374151"/>
<rect x="379.5" y="256.5" width="11" height="5" rx="2.5" fill="#4B5563"/>
<rect x="145.5" y="266.5" width="78" height="5" rx="2.5" fill="#4B5563"/>
<rect x="235.5" y="266.5" width="78" height="5" rx="2.5" fill="#374151"/>
<rect x="325.5" y="266.5" width="65" height="5" rx="2.5" fill="#4B5563"/>
<rect x="145.5" y="276.5" width="234" height="5" rx="2.5" fill="#4B5563"/>
<rect x="145.5" y="286.5" width="240" height="5" rx="2.5" fill="#4B5563"/>
<rect x="145.5" y="296.5" width="78" height="5" rx="2.5" fill="#4B5563"/>
<rect x="235.5" y="296.5" width="78" height="5" rx="2.5" fill="#374151"/>
<rect x="325.5" y="296.5" width="65" height="5" rx="2.5" fill="#4B5563"/>
</svg>
