<svg width="536" height="340" viewBox="0 0 536 340" fill="none" xmlns="http://www.w3.org/2000/svg">
<rect width="536" height="340" fill="white"/>
<rect x="32" y="91.5" width="262" height="10" rx="5" fill="#9CA3AF"/>
<rect x="32" y="111.5" width="210" height="10" rx="5" fill="#9CA3AF"/>
<rect x="32" y="137.5" width="421" height="8" rx="4" fill="#D1D5DB"/>
<rect x="32" y="151.5" width="339" height="8" rx="4" fill="#D1D5DB"/>
<rect x="32" y="165.5" width="403" height="8" rx="4" fill="#D1D5DB"/>
<rect x="32" y="179.5" width="207" height="8" rx="4" fill="#D1D5DB"/>
<rect x="32" y="219.5" width="136" height="29" rx="4" fill="#F3F4F6"/>
<rect x="83.5" y="227.5" width="33" height="5" rx="2.5" fill="#9CA3AF"/>
<rect x="67" y="236.5" width="66" height="4" rx="2" fill="#D1D5DB"/>
<rect x="200" y="219.5" width="136" height="29" rx="4" fill="#F3F4F6"/>
<rect x="251.5" y="227.5" width="33" height="5" rx="2.5" fill="#9CA3AF"/>
<rect x="239" y="236.5" width="58" height="4" rx="2" fill="#D1D5DB"/>
<rect x="368" y="219.5" width="136" height="29" rx="4" fill="#F3F4F6"/>
<rect x="419.5" y="227.5" width="33" height="5" rx="2.5" fill="#9CA3AF"/>
<rect x="414.5" y="236.5" width="43" height="4" rx="2" fill="#D1D5DB"/>
</svg>
