<svg width="536" height="340" viewBox="0 0 536 340" fill="none" xmlns="http://www.w3.org/2000/svg">
<rect width="536" height="340" fill="white"/>
<rect x="32" y="43.5" width="216" height="10" rx="5" fill="#9CA3AF"/>
<rect x="32" y="63.5" width="146" height="10" rx="5" fill="#9CA3AF"/>
<rect x="32" y="89.5" width="220" height="8" rx="4" fill="#D1D5DB"/>
<rect x="32" y="103.5" width="188" height="8" rx="4" fill="#D1D5DB"/>
<rect x="32" y="117.5" width="210" height="8" rx="4" fill="#D1D5DB"/>
<rect x="284" y="43.5" width="220" height="8" rx="4" fill="#D1D5DB"/>
<rect x="284" y="57.5" width="195" height="8" rx="4" fill="#D1D5DB"/>
<rect x="284" y="71.5" width="210" height="8" rx="4" fill="#D1D5DB"/>
<rect x="284" y="85.5" width="144" height="8" rx="4" fill="#D1D5DB"/>
<rect x="284" y="109.5" width="220" height="8" rx="4" fill="#D1D5DB"/>
<rect x="284" y="123.5" width="186" height="8" rx="4" fill="#D1D5DB"/>
<rect x="284" y="137.5" width="210" height="8" rx="4" fill="#D1D5DB"/>
<rect x="32.5" y="178" width="135" height="118" rx="4.5" fill="#F9FAFB"/>
<rect x="32.5" y="178" width="135" height="118" rx="4.5" stroke="#E5E7EB"/>
<rect x="81.5" y="193.5" width="37" height="7" rx="2" fill="#9CA3AF"/>
<path d="M51.75 221.5L52.5833 222.333L54.25 220.667M56.75 221.5C56.75 221.992 56.653 222.48 56.4645 222.935C56.2761 223.39 55.9999 223.803 55.6516 224.152C55.3034 224.5 54.89 224.776 54.4351 224.965C53.9801 225.153 53.4925 225.25 53 225.25C52.5075 225.25 52.0199 225.153 51.5649 224.965C51.11 224.776 50.6966 224.5 50.3483 224.152C50.0001 223.803 49.7239 223.39 49.5355 222.935C49.347 222.48 49.25 221.992 49.25 221.5C49.25 220.505 49.6451 219.552 50.3483 218.848C51.0516 218.145 52.0054 217.75 53 217.75C53.9946 217.75 54.9484 218.145 55.6516 218.848C56.3549 219.552 56.75 220.505 56.75 221.5Z" stroke="#D1D5DB" stroke-linecap="round" stroke-linejoin="round"/>
<rect x="64" y="218.5" width="88" height="6" rx="3" fill="#D1D5DB"/>
<path d="M51.75 239.5L52.5833 240.333L54.25 238.667M56.75 239.5C56.75 239.992 56.653 240.48 56.4645 240.935C56.2761 241.39 55.9999 241.803 55.6516 242.152C55.3034 242.5 54.89 242.776 54.4351 242.965C53.9801 243.153 53.4925 243.25 53 243.25C52.5075 243.25 52.0199 243.153 51.5649 242.965C51.11 242.776 50.6966 242.5 50.3483 242.152C50.0001 241.803 49.7239 241.39 49.5355 240.935C49.347 240.48 49.25 239.992 49.25 239.5C49.25 238.505 49.6451 237.552 50.3483 236.848C51.0516 236.145 52.0054 235.75 53 235.75C53.9946 235.75 54.9484 236.145 55.6516 236.848C56.3549 237.552 56.75 238.505 56.75 239.5Z" stroke="#D1D5DB" stroke-linecap="round" stroke-linejoin="round"/>
<rect x="64" y="236.5" width="88" height="6" rx="3" fill="#D1D5DB"/>
<path d="M51.75 257.5L52.5833 258.333L54.25 256.667M56.75 257.5C56.75 257.992 56.653 258.48 56.4645 258.935C56.2761 259.39 55.9999 259.803 55.6516 260.152C55.3034 260.5 54.89 260.776 54.4351 260.965C53.9801 261.153 53.4925 261.25 53 261.25C52.5075 261.25 52.0199 261.153 51.5649 260.965C51.11 260.776 50.6966 260.5 50.3483 260.152C50.0001 259.803 49.7239 259.39 49.5355 258.935C49.347 258.48 49.25 257.992 49.25 257.5C49.25 256.505 49.6451 255.552 50.3483 254.848C51.0516 254.145 52.0054 253.75 53 253.75C53.9946 253.75 54.9484 254.145 55.6516 254.848C56.3549 255.552 56.75 256.505 56.75 257.5Z" stroke="#D1D5DB" stroke-linecap="round" stroke-linejoin="round"/>
<rect x="64" y="254.5" width="88" height="6" rx="3" fill="#D1D5DB"/>
<path d="M51.75 275.5L52.5833 276.333L54.25 274.667M56.75 275.5C56.75 275.992 56.653 276.48 56.4645 276.935C56.2761 277.39 55.9999 277.803 55.6516 278.152C55.3034 278.5 54.89 278.776 54.4351 278.965C53.9801 279.153 53.4925 279.25 53 279.25C52.5075 279.25 52.0199 279.153 51.5649 278.965C51.11 278.776 50.6966 278.5 50.3483 278.152C50.0001 277.803 49.7239 277.39 49.5355 276.935C49.347 276.48 49.25 275.992 49.25 275.5C49.25 274.505 49.6451 273.552 50.3483 272.848C51.0516 272.145 52.0054 271.75 53 271.75C53.9946 271.75 54.9484 272.145 55.6516 272.848C56.3549 273.552 56.75 274.505 56.75 275.5Z" stroke="#D1D5DB" stroke-linecap="round" stroke-linejoin="round"/>
<rect x="64" y="272.5" width="88" height="6" rx="3" fill="#D1D5DB"/>
<rect x="200.5" y="178" width="135" height="118" rx="4.5" fill="#F9FAFB"/>
<rect x="200.5" y="178" width="135" height="118" rx="4.5" stroke="#E5E7EB"/>
<rect x="249.5" y="193.5" width="37" height="7" rx="2" fill="#9CA3AF"/>
<path d="M219.75 221.5L220.583 222.333L222.25 220.667M224.75 221.5C224.75 221.992 224.653 222.48 224.465 222.935C224.276 223.39 224 223.803 223.652 224.152C223.303 224.5 222.89 224.776 222.435 224.965C221.98 225.153 221.492 225.25 221 225.25C220.508 225.25 220.02 225.153 219.565 224.965C219.11 224.776 218.697 224.5 218.348 224.152C218 223.803 217.724 223.39 217.535 222.935C217.347 222.48 217.25 221.992 217.25 221.5C217.25 220.505 217.645 219.552 218.348 218.848C219.052 218.145 220.005 217.75 221 217.75C221.995 217.75 222.948 218.145 223.652 218.848C224.355 219.552 224.75 220.505 224.75 221.5Z" stroke="#D1D5DB" stroke-linecap="round" stroke-linejoin="round"/>
<rect x="232" y="218.5" width="88" height="6" rx="3" fill="#D1D5DB"/>
<path d="M219.75 239.5L220.583 240.333L222.25 238.667M224.75 239.5C224.75 239.992 224.653 240.48 224.465 240.935C224.276 241.39 224 241.803 223.652 242.152C223.303 242.5 222.89 242.776 222.435 242.965C221.98 243.153 221.492 243.25 221 243.25C220.508 243.25 220.02 243.153 219.565 242.965C219.11 242.776 218.697 242.5 218.348 242.152C218 241.803 217.724 241.39 217.535 240.935C217.347 240.48 217.25 239.992 217.25 239.5C217.25 238.505 217.645 237.552 218.348 236.848C219.052 236.145 220.005 235.75 221 235.75C221.995 235.75 222.948 236.145 223.652 236.848C224.355 237.552 224.75 238.505 224.75 239.5Z" stroke="#D1D5DB" stroke-linecap="round" stroke-linejoin="round"/>
<rect x="232" y="236.5" width="88" height="6" rx="3" fill="#D1D5DB"/>
<path d="M219.75 257.5L220.583 258.333L222.25 256.667M224.75 257.5C224.75 257.992 224.653 258.48 224.465 258.935C224.276 259.39 224 259.803 223.652 260.152C223.303 260.5 222.89 260.776 222.435 260.965C221.98 261.153 221.492 261.25 221 261.25C220.508 261.25 220.02 261.153 219.565 260.965C219.11 260.776 218.697 260.5 218.348 260.152C218 259.803 217.724 259.39 217.535 258.935C217.347 258.48 217.25 257.992 217.25 257.5C217.25 256.505 217.645 255.552 218.348 254.848C219.052 254.145 220.005 253.75 221 253.75C221.995 253.75 222.948 254.145 223.652 254.848C224.355 255.552 224.75 256.505 224.75 257.5Z" stroke="#D1D5DB" stroke-linecap="round" stroke-linejoin="round"/>
<rect x="232" y="254.5" width="88" height="6" rx="3" fill="#D1D5DB"/>
<path d="M219.75 275.5L220.583 276.333L222.25 274.667M224.75 275.5C224.75 275.992 224.653 276.48 224.465 276.935C224.276 277.39 224 277.803 223.652 278.152C223.303 278.5 222.89 278.776 222.435 278.965C221.98 279.153 221.492 279.25 221 279.25C220.508 279.25 220.02 279.153 219.565 278.965C219.11 278.776 218.697 278.5 218.348 278.152C218 277.803 217.724 277.39 217.535 276.935C217.347 276.48 217.25 275.992 217.25 275.5C217.25 274.505 217.645 273.552 218.348 272.848C219.052 272.145 220.005 271.75 221 271.75C221.995 271.75 222.948 272.145 223.652 272.848C224.355 273.552 224.75 274.505 224.75 275.5Z" stroke="#D1D5DB" stroke-linecap="round" stroke-linejoin="round"/>
<rect x="232" y="272.5" width="88" height="6" rx="3" fill="#D1D5DB"/>
<rect x="368.5" y="178" width="135" height="118" rx="4.5" fill="#F9FAFB"/>
<rect x="368.5" y="178" width="135" height="118" rx="4.5" stroke="#E5E7EB"/>
<rect x="417.5" y="193.5" width="37" height="7" rx="2" fill="#9CA3AF"/>
<path d="M387.75 221.5L388.583 222.333L390.25 220.667M392.75 221.5C392.75 221.992 392.653 222.48 392.465 222.935C392.276 223.39 392 223.803 391.652 224.152C391.303 224.5 390.89 224.776 390.435 224.965C389.98 225.153 389.492 225.25 389 225.25C388.508 225.25 388.02 225.153 387.565 224.965C387.11 224.776 386.697 224.5 386.348 224.152C386 223.803 385.724 223.39 385.535 222.935C385.347 222.48 385.25 221.992 385.25 221.5C385.25 220.505 385.645 219.552 386.348 218.848C387.052 218.145 388.005 217.75 389 217.75C389.995 217.75 390.948 218.145 391.652 218.848C392.355 219.552 392.75 220.505 392.75 221.5Z" stroke="#D1D5DB" stroke-linecap="round" stroke-linejoin="round"/>
<rect x="400" y="218.5" width="88" height="6" rx="3" fill="#D1D5DB"/>
<path d="M387.75 239.5L388.583 240.333L390.25 238.667M392.75 239.5C392.75 239.992 392.653 240.48 392.465 240.935C392.276 241.39 392 241.803 391.652 242.152C391.303 242.5 390.89 242.776 390.435 242.965C389.98 243.153 389.492 243.25 389 243.25C388.508 243.25 388.02 243.153 387.565 242.965C387.11 242.776 386.697 242.5 386.348 242.152C386 241.803 385.724 241.39 385.535 240.935C385.347 240.48 385.25 239.992 385.25 239.5C385.25 238.505 385.645 237.552 386.348 236.848C387.052 236.145 388.005 235.75 389 235.75C389.995 235.75 390.948 236.145 391.652 236.848C392.355 237.552 392.75 238.505 392.75 239.5Z" stroke="#D1D5DB" stroke-linecap="round" stroke-linejoin="round"/>
<rect x="400" y="236.5" width="88" height="6" rx="3" fill="#D1D5DB"/>
<path d="M387.75 257.5L388.583 258.333L390.25 256.667M392.75 257.5C392.75 257.992 392.653 258.48 392.465 258.935C392.276 259.39 392 259.803 391.652 260.152C391.303 260.5 390.89 260.776 390.435 260.965C389.98 261.153 389.492 261.25 389 261.25C388.508 261.25 388.02 261.153 387.565 260.965C387.11 260.776 386.697 260.5 386.348 260.152C386 259.803 385.724 259.39 385.535 258.935C385.347 258.48 385.25 257.992 385.25 257.5C385.25 256.505 385.645 255.552 386.348 254.848C387.052 254.145 388.005 253.75 389 253.75C389.995 253.75 390.948 254.145 391.652 254.848C392.355 255.552 392.75 256.505 392.75 257.5Z" stroke="#D1D5DB" stroke-linecap="round" stroke-linejoin="round"/>
<rect x="400" y="254.5" width="88" height="6" rx="3" fill="#D1D5DB"/>
<path d="M387.75 275.5L388.583 276.333L390.25 274.667M392.75 275.5C392.75 275.992 392.653 276.48 392.465 276.935C392.276 277.39 392 277.803 391.652 278.152C391.303 278.5 390.89 278.776 390.435 278.965C389.98 279.153 389.492 279.25 389 279.25C388.508 279.25 388.02 279.153 387.565 278.965C387.11 278.776 386.697 278.5 386.348 278.152C386 277.803 385.724 277.39 385.535 276.935C385.347 276.48 385.25 275.992 385.25 275.5C385.25 274.505 385.645 273.552 386.348 272.848C387.052 272.145 388.005 271.75 389 271.75C389.995 271.75 390.948 272.145 391.652 272.848C392.355 273.552 392.75 274.505 392.75 275.5Z" stroke="#D1D5DB" stroke-linecap="round" stroke-linejoin="round"/>
<rect x="400" y="272.5" width="88" height="6" rx="3" fill="#D1D5DB"/>
</svg>
