<svg width="479" height="180" viewBox="0 0 479 180" fill="none" xmlns="http://www.w3.org/2000/svg">
<rect x="1" y="18.5" width="160" height="10" rx="5" fill="#6B7280"/>
<rect x="1" y="44.5" width="269" height="8" rx="4" fill="#4B5563"/>
<rect x="1" y="58.5" width="187" height="8" rx="4" fill="#4B5563"/>
<path d="M132.5 86.5V86H132H3C1.61929 86 0.5 87.1193 0.5 88.5V106.5C0.5 107.881 1.61929 109 3 109H132H132.5V108.5V86.5Z" fill="#374151"/>
<path d="M132.5 86.5V86H132H3C1.61929 86 0.5 87.1193 0.5 88.5V106.5C0.5 107.881 1.61929 109 3 109H132H132.5V108.5V86.5Z" stroke="#4B5563"/>
<rect x="8" y="96.5" width="56" height="2" rx="1" fill="#6B7280"/>
<path d="M132 86H131.5V86.5V108.5V109H132H204C205.381 109 206.5 107.881 206.5 106.5V88.5C206.5 87.1193 205.381 86 204 86H132Z" fill="#1A56DB"/>
<path d="M132 86H131.5V86.5V108.5V109H132H204C205.381 109 206.5 107.881 206.5 106.5V88.5C206.5 87.1193 205.381 86 204 86H132Z" stroke="#1A56DB"/>
<rect x="148" y="95.5" width="42" height="4" rx="1" fill="white"/>
<rect x="303" y="0.5" width="170" height="126" rx="8" fill="#374151"/>
<path fill-rule="evenodd" clip-rule="evenodd" d="M402.294 53.6182C404.962 53.6182 407.125 51.3532 407.125 48.5591C407.125 45.765 404.962 43.5 402.294 43.5C399.626 43.5 397.463 45.765 397.463 48.5591C397.463 51.3532 399.626 53.6182 402.294 53.6182ZM388.923 84.2534H359.156C358.379 84.2534 357.898 83.4056 358.298 82.739L378.777 48.5993C379.16 47.9618 380.078 47.9476 380.476 48.5749C382.842 52.2966 389.616 62.9654 395.346 72.1214L401.583 61.6625C401.951 61.046 402.814 61.0258 403.223 61.6241L417.633 82.6682C418.092 83.3382 417.649 84.2555 416.859 84.2635L402.883 84.4062L388.923 84.2534Z" fill="#6B7280"/>
<path fill-rule="evenodd" clip-rule="evenodd" d="M3.39995 155.7C3.08169 155.7 2.77647 155.826 2.55142 156.051C2.32638 156.277 2.19995 156.582 2.19995 156.9V163.5C2.19995 163.977 2.38959 164.435 2.72716 164.773C3.06472 165.11 3.52256 165.3 3.99995 165.3C4.47734 165.3 4.93518 165.11 5.27274 164.773C5.61031 164.435 5.79995 163.977 5.79995 163.5V156.9C5.79995 156.582 5.67352 156.277 5.44848 156.051C5.22344 155.826 4.91821 155.7 4.59995 155.7H3.39995ZM3.99995 164.1C4.15908 164.1 4.31169 164.037 4.42422 163.924C4.53674 163.812 4.59995 163.659 4.59995 163.5C4.59995 163.341 4.53674 163.188 4.42422 163.076C4.31169 162.963 4.15908 162.9 3.99995 162.9C3.84082 162.9 3.68821 162.963 3.57569 163.076C3.46317 163.188 3.39995 163.341 3.39995 163.5C3.39995 163.659 3.46317 163.812 3.57569 163.924C3.68821 164.037 3.84082 164.1 3.99995 164.1ZM6.99995 163.046L9.93995 160.106C10.1649 159.881 10.2913 159.576 10.2913 159.257C10.2913 158.939 10.1649 158.634 9.93995 158.409L9.09095 157.56C8.86592 157.335 8.56075 157.209 8.24255 157.209C7.92435 157.209 7.61918 157.335 7.39415 157.56L6.99995 157.954V163.046ZM10.6 165.3H6.44255L10.0426 161.7H10.6C10.9182 161.7 11.2234 161.826 11.4485 162.051C11.6735 162.277 11.8 162.582 11.8 162.9V164.1C11.8 164.418 11.6735 164.723 11.4485 164.949C11.2234 165.174 10.9182 165.3 10.6 165.3Z" fill="#1C64F2"/>
<rect x="23" y="154.5" width="71" height="5" rx="2.5" fill="#6B7280"/>
<rect x="23" y="166.5" width="112" height="4" rx="2" fill="#4B5563"/>
<rect x="23" y="175.5" width="56" height="4" rx="2" fill="#4B5563"/>
<path fill-rule="evenodd" clip-rule="evenodd" d="M171.5 159.9V158.7C171.5 157.904 171.816 157.141 172.378 156.579C172.941 156.016 173.704 155.7 174.5 155.7C175.295 155.7 176.059 156.016 176.621 156.579C177.184 157.141 177.5 157.904 177.5 158.7V159.9C177.818 159.9 178.123 160.026 178.348 160.251C178.573 160.477 178.7 160.782 178.7 161.1V164.1C178.7 164.418 178.573 164.723 178.348 164.949C178.123 165.174 177.818 165.3 177.5 165.3H171.5C171.182 165.3 170.876 165.174 170.651 164.949C170.426 164.723 170.3 164.418 170.3 164.1V161.1C170.3 160.782 170.426 160.477 170.651 160.251C170.876 160.026 171.182 159.9 171.5 159.9ZM176.3 158.7V159.9H172.7V158.7C172.7 158.223 172.889 157.765 173.227 157.427C173.565 157.09 174.022 156.9 174.5 156.9C174.977 156.9 175.435 157.09 175.773 157.427C176.11 157.765 176.3 158.223 176.3 158.7Z" fill="#1C64F2"/>
<rect x="190.5" y="154.5" width="71" height="5" rx="2.5" fill="#6B7280"/>
<rect x="190.5" y="166.5" width="112" height="4" rx="2" fill="#4B5563"/>
<rect x="190.5" y="175.5" width="93" height="4" rx="2" fill="#4B5563"/>
<path fill-rule="evenodd" clip-rule="evenodd" d="M332.3 156.3C332.141 156.3 331.988 156.363 331.876 156.476C331.763 156.588 331.7 156.741 331.7 156.9C331.7 157.059 331.763 157.212 331.876 157.324C331.988 157.437 332.141 157.5 332.3 157.5V162.3C332.3 162.618 332.427 162.923 332.652 163.149C332.877 163.374 333.182 163.5 333.5 163.5H335.052L334.276 164.276C334.219 164.331 334.173 164.397 334.142 164.471C334.11 164.544 334.094 164.622 334.093 164.702C334.092 164.782 334.107 164.861 334.138 164.935C334.168 165.008 334.212 165.075 334.269 165.132C334.325 165.188 334.392 165.233 334.466 165.263C334.539 165.293 334.618 165.308 334.698 165.307C334.778 165.307 334.856 165.29 334.93 165.259C335.003 165.227 335.069 165.182 335.124 165.124L336.5 163.748L337.876 165.124C337.989 165.233 338.141 165.294 338.298 165.293C338.455 165.291 338.606 165.228 338.717 165.117C338.828 165.006 338.891 164.855 338.893 164.698C338.894 164.541 338.834 164.389 338.724 164.276L337.949 163.5H339.5C339.818 163.5 340.124 163.374 340.349 163.149C340.574 162.923 340.7 162.618 340.7 162.3V157.5C340.859 157.5 341.012 157.437 341.124 157.324C341.237 157.212 341.3 157.059 341.3 156.9C341.3 156.741 341.237 156.588 341.124 156.476C341.012 156.363 340.859 156.3 340.7 156.3H332.3ZM338.9 158.7C338.9 158.541 338.837 158.388 338.724 158.276C338.612 158.163 338.459 158.1 338.3 158.1C338.141 158.1 337.988 158.163 337.876 158.276C337.763 158.388 337.7 158.541 337.7 158.7V161.1C337.7 161.259 337.763 161.412 337.876 161.524C337.988 161.637 338.141 161.7 338.3 161.7C338.459 161.7 338.612 161.637 338.724 161.524C338.837 161.412 338.9 161.259 338.9 161.1V158.7ZM337.1 159.3C337.1 159.141 337.037 158.988 336.924 158.876C336.812 158.763 336.659 158.7 336.5 158.7C336.341 158.7 336.188 158.763 336.076 158.876C335.963 158.988 335.9 159.141 335.9 159.3V161.1C335.9 161.259 335.963 161.412 336.076 161.524C336.188 161.637 336.341 161.7 336.5 161.7C336.659 161.7 336.812 161.637 336.924 161.524C337.037 161.412 337.1 161.259 337.1 161.1V159.3ZM335.3 159.9C335.3 159.741 335.237 159.588 335.124 159.476C335.012 159.363 334.859 159.3 334.7 159.3C334.541 159.3 334.388 159.363 334.276 159.476C334.163 159.588 334.1 159.741 334.1 159.9V161.1C334.1 161.259 334.163 161.412 334.276 161.524C334.388 161.637 334.541 161.7 334.7 161.7C334.859 161.7 335.012 161.637 335.124 161.524C335.237 161.412 335.3 161.259 335.3 161.1V159.9Z" fill="#1C64F2"/>
<rect x="352.5" y="154.5" width="71" height="5" rx="2.5" fill="#6B7280"/>
<rect x="352.5" y="166.5" width="112" height="4" rx="2" fill="#4B5563"/>
<rect x="352.5" y="175.5" width="126" height="4" rx="2" fill="#4B5563"/>
</svg>
