<svg width="472" height="286" viewBox="0 0 472 286" fill="none" xmlns="http://www.w3.org/2000/svg">
<rect x="156" width="160" height="10" rx="5" fill="#9CA3AF"/>
<rect x="77" y="26" width="318" height="8" rx="4" fill="#D1D5DB"/>
<rect x="142.5" y="40" width="187" height="8" rx="4" fill="#D1D5DB"/>
<rect x="153.5" y="66" width="78" height="28" rx="4" fill="#6B7280"/>
<path d="M168.811 83.0767C168.65 83.45 168.459 83.7936 168.237 84.1095C167.935 84.5402 167.688 84.8383 167.497 85.0039C167.201 85.2756 166.885 85.4148 166.546 85.4227C166.303 85.4227 166.009 85.3534 165.667 85.2129C165.325 85.0731 165.01 85.0039 164.722 85.0039C164.42 85.0039 164.096 85.0731 163.749 85.2129C163.402 85.3534 163.122 85.4266 162.909 85.4339C162.584 85.4477 162.26 85.3046 161.936 85.0039C161.73 84.8238 161.471 84.5152 161.162 84.0779C160.83 83.6109 160.557 83.0695 160.344 82.4521C160.115 81.7853 160 81.1397 160 80.5145C160 79.7985 160.155 79.1809 160.465 78.6634C160.708 78.2477 161.032 77.9197 161.438 77.679C161.843 77.4383 162.282 77.3156 162.753 77.3078C163.012 77.3078 163.35 77.3876 163.771 77.5446C164.191 77.7021 164.46 77.782 164.578 77.782C164.666 77.782 164.966 77.6886 165.473 77.5024C165.953 77.3297 166.358 77.2582 166.69 77.2864C167.589 77.3589 168.264 77.7133 168.713 78.3517C167.909 78.8389 167.511 79.5212 167.519 80.3964C167.527 81.0782 167.774 81.6455 168.26 82.096C168.48 82.3051 168.726 82.4666 169 82.5814C168.941 82.7535 168.878 82.9184 168.811 83.0767ZM166.75 74.9638C166.75 75.4981 166.554 75.9971 166.165 76.4589C165.696 77.0079 165.128 77.3251 164.512 77.275C164.504 77.2109 164.499 77.1435 164.499 77.0726C164.499 76.5596 164.723 76.0106 165.119 75.5617C165.317 75.3344 165.569 75.1454 165.874 74.9947C166.179 74.8462 166.467 74.7641 166.738 74.75C166.746 74.8214 166.75 74.8929 166.75 74.9638V74.9638Z" fill="white"/>
<rect x="175.5" y="73" width="51" height="4" rx="2" fill="#D1D5DB"/>
<rect x="175.5" y="81" width="35" height="6" rx="3" fill="white"/>
<rect x="240.5" y="66" width="78" height="28" rx="4" fill="#6B7280"/>
<path d="M252.822 79.6822L253.966 78.5378L248.607 75.448L252.822 79.6822ZM247.52 75.2C247.272 75.3335 247.1 75.5815 247.1 75.8866V84.298C247.1 84.6031 247.272 84.8511 247.52 84.9655L252.402 80.0828L247.52 75.2ZM255.626 79.5106L254.501 78.8621L253.242 80.0828L254.501 81.3225L255.645 80.674C255.988 80.407 255.988 79.7776 255.626 79.5106ZM248.607 84.7176L253.966 81.6468L252.822 80.5024L248.607 84.7176Z" fill="white"/>
<rect x="262.5" y="73" width="51" height="4" rx="2" fill="#D1D5DB"/>
<rect x="262.5" y="81" width="35" height="6" rx="3" fill="white"/>
<rect x="201" y="113.5" width="70" height="125" rx="10.5" fill="#F9FAFB" stroke="#6B7280" stroke-width="3"/>
<g filter="url(#filter0_d_4367_58864)">
<mask id="mask0_4367_58864" style="mask-type:alpha" maskUnits="userSpaceOnUse" x="150" y="258" width="23" height="24">
<circle cx="161.775" cy="270" r="11.075" fill="#E5E7EB"/>
</mask>
<g mask="url(#mask0_4367_58864)">
<circle cx="161.775" cy="270" r="11.075" fill="#F3F4F6"/>
<path fill-rule="evenodd" clip-rule="evenodd" d="M161.775 271.126C162.714 271.126 163.614 270.753 164.278 270.089C164.941 269.425 165.314 268.525 165.314 267.586C165.314 266.648 164.941 265.748 164.278 265.084C163.614 264.42 162.714 264.047 161.775 264.047C160.836 264.047 159.936 264.42 159.272 265.084C158.609 265.748 158.236 266.648 158.236 267.586C158.236 268.525 158.609 269.425 159.272 270.089C159.936 270.753 160.836 271.126 161.775 271.126ZM153.517 281.743C153.517 280.659 153.73 279.585 154.145 278.583C154.56 277.581 155.169 276.671 155.936 275.904C156.702 275.137 157.613 274.529 158.615 274.114C159.617 273.699 160.69 273.485 161.775 273.485C162.859 273.485 163.933 273.699 164.935 274.114C165.937 274.529 166.847 275.137 167.614 275.904C168.381 276.671 168.989 277.581 169.404 278.583C169.819 279.585 170.033 280.659 170.033 281.743H153.517Z" fill="#9CA3AF"/>
</g>
</g>
<g filter="url(#filter1_d_4367_58864)">
<rect x="163.35" y="258.425" width="23.15" height="23.15" rx="11.575" stroke="white"/>
<mask id="mask1_4367_58864" style="mask-type:alpha" maskUnits="userSpaceOnUse" x="163" y="258" width="23" height="24">
<circle cx="174.925" cy="270" r="11.075" fill="#E5E7EB"/>
</mask>
<g mask="url(#mask1_4367_58864)">
<circle cx="174.925" cy="270" r="11.075" fill="#F3F4F6"/>
<path fill-rule="evenodd" clip-rule="evenodd" d="M174.925 271.126C175.863 271.126 176.764 270.753 177.427 270.089C178.091 269.425 178.464 268.525 178.464 267.586C178.464 266.648 178.091 265.748 177.427 265.084C176.764 264.42 175.863 264.047 174.925 264.047C173.986 264.047 173.086 264.42 172.422 265.084C171.759 265.748 171.386 266.648 171.386 267.586C171.386 268.525 171.759 269.425 172.422 270.089C173.086 270.753 173.986 271.126 174.925 271.126ZM166.667 281.743C166.667 280.659 166.88 279.585 167.295 278.583C167.71 277.581 168.319 276.671 169.085 275.904C169.852 275.137 170.763 274.529 171.765 274.114C172.767 273.699 173.84 273.485 174.925 273.485C176.009 273.485 177.083 273.699 178.085 274.114C179.087 274.529 179.997 275.137 180.764 275.904C181.531 276.671 182.139 277.581 182.554 278.583C182.969 279.585 183.183 280.659 183.183 281.743H166.667Z" fill="#9CA3AF"/>
</g>
</g>
<g filter="url(#filter2_d_4367_58864)">
<rect x="176.5" y="258.425" width="23.15" height="23.15" rx="11.575" stroke="white"/>
<mask id="mask2_4367_58864" style="mask-type:alpha" maskUnits="userSpaceOnUse" x="177" y="258" width="23" height="24">
<circle cx="188.075" cy="270" r="11.075" fill="#E5E7EB"/>
</mask>
<g mask="url(#mask2_4367_58864)">
<circle cx="188.075" cy="270" r="11.075" fill="#F3F4F6"/>
<path fill-rule="evenodd" clip-rule="evenodd" d="M188.075 271.126C189.014 271.126 189.914 270.753 190.578 270.089C191.241 269.425 191.614 268.525 191.614 267.586C191.614 266.648 191.241 265.748 190.578 265.084C189.914 264.42 189.014 264.047 188.075 264.047C187.136 264.047 186.236 264.42 185.572 265.084C184.909 265.748 184.536 266.648 184.536 267.586C184.536 268.525 184.909 269.425 185.572 270.089C186.236 270.753 187.136 271.126 188.075 271.126ZM179.817 281.743C179.817 280.659 180.03 279.585 180.446 278.583C180.861 277.581 181.469 276.671 182.236 275.904C183.002 275.137 183.913 274.529 184.915 274.114C185.917 273.699 186.991 273.485 188.075 273.485C189.159 273.485 190.233 273.699 191.235 274.114C192.237 274.529 193.148 275.137 193.914 275.904C194.681 276.671 195.289 277.581 195.704 278.583C196.119 279.585 196.333 280.659 196.333 281.743H179.817Z" fill="#9CA3AF"/>
</g>
</g>
<g filter="url(#filter3_d_4367_58864)">
<rect x="189.65" y="258.425" width="23.15" height="23.15" rx="11.575" stroke="white"/>
<mask id="mask3_4367_58864" style="mask-type:alpha" maskUnits="userSpaceOnUse" x="190" y="258" width="23" height="24">
<circle cx="201.225" cy="270" r="11.075" fill="#E5E7EB"/>
</mask>
<g mask="url(#mask3_4367_58864)">
<circle cx="201.225" cy="270" r="11.075" fill="#F3F4F6"/>
<path fill-rule="evenodd" clip-rule="evenodd" d="M201.225 271.126C202.164 271.126 203.064 270.753 203.727 270.089C204.391 269.425 204.764 268.525 204.764 267.586C204.764 266.648 204.391 265.748 203.727 265.084C203.064 264.42 202.164 264.047 201.225 264.047C200.286 264.047 199.386 264.42 198.722 265.084C198.059 265.748 197.686 266.648 197.686 267.586C197.686 268.525 198.059 269.425 198.722 270.089C199.386 270.753 200.286 271.126 201.225 271.126ZM192.967 281.743C192.967 280.659 193.18 279.585 193.595 278.583C194.01 277.581 194.619 276.671 195.386 275.904C196.152 275.137 197.063 274.529 198.065 274.114C199.067 273.699 200.14 273.485 201.225 273.485C202.309 273.485 203.383 273.699 204.385 274.114C205.387 274.529 206.297 275.137 207.064 275.904C207.831 276.671 208.439 277.581 208.854 278.583C209.269 279.585 209.483 280.659 209.483 281.743H192.967Z" fill="#9CA3AF"/>
</g>
</g>
<path d="M228.087 260.195C228.312 259.504 229.289 259.504 229.513 260.195L230.316 262.664C230.365 262.815 230.46 262.946 230.588 263.039C230.716 263.132 230.87 263.182 231.028 263.182H233.625C234.352 263.182 234.653 264.112 234.066 264.539L231.966 266.065C231.838 266.158 231.742 266.289 231.693 266.44C231.644 266.59 231.644 266.753 231.693 266.903L232.495 269.372C232.72 270.063 231.929 270.638 231.34 270.211L229.24 268.685C229.112 268.592 228.958 268.542 228.8 268.542C228.641 268.542 228.487 268.592 228.359 268.685L226.259 270.211C225.671 270.638 224.881 270.063 225.105 269.372L225.907 266.903C225.956 266.753 225.956 266.59 225.907 266.44C225.858 266.289 225.763 266.158 225.634 266.065L223.535 264.54C222.948 264.112 223.25 263.182 223.976 263.182H226.572C226.73 263.183 226.884 263.133 227.012 263.04C227.141 262.947 227.236 262.815 227.285 262.665L228.088 260.196L228.087 260.195Z" fill="#FACA15"/>
<path d="M244.087 260.195C244.312 259.504 245.289 259.504 245.513 260.195L246.316 262.664C246.365 262.815 246.46 262.946 246.588 263.039C246.716 263.132 246.87 263.182 247.028 263.182H249.625C250.352 263.182 250.653 264.112 250.066 264.539L247.966 266.065C247.838 266.158 247.742 266.289 247.693 266.44C247.644 266.59 247.644 266.753 247.693 266.903L248.495 269.372C248.72 270.063 247.929 270.638 247.34 270.211L245.24 268.685C245.112 268.592 244.958 268.542 244.8 268.542C244.641 268.542 244.487 268.592 244.359 268.685L242.259 270.211C241.671 270.638 240.881 270.063 241.105 269.372L241.907 266.903C241.956 266.753 241.956 266.59 241.907 266.44C241.858 266.289 241.763 266.158 241.634 266.065L239.535 264.54C238.948 264.112 239.25 263.182 239.976 263.182H242.572C242.73 263.183 242.884 263.133 243.012 263.04C243.141 262.947 243.236 262.815 243.285 262.665L244.088 260.196L244.087 260.195Z" fill="#FACA15"/>
<path d="M260.087 260.195C260.312 259.504 261.289 259.504 261.513 260.195L262.316 262.664C262.365 262.815 262.46 262.946 262.588 263.039C262.716 263.132 262.87 263.182 263.028 263.182H265.625C266.352 263.182 266.653 264.112 266.066 264.539L263.966 266.065C263.838 266.158 263.742 266.289 263.693 266.44C263.644 266.59 263.644 266.753 263.693 266.903L264.495 269.372C264.72 270.063 263.929 270.638 263.34 270.211L261.24 268.685C261.112 268.592 260.958 268.542 260.8 268.542C260.641 268.542 260.487 268.592 260.359 268.685L258.259 270.211C257.671 270.638 256.881 270.063 257.105 269.372L257.907 266.903C257.956 266.753 257.956 266.59 257.907 266.44C257.858 266.289 257.763 266.158 257.634 266.065L255.535 264.54C254.948 264.112 255.25 263.182 255.976 263.182H258.572C258.73 263.183 258.884 263.133 259.012 263.04C259.141 262.947 259.236 262.815 259.285 262.665L260.088 260.196L260.087 260.195Z" fill="#FACA15"/>
<path d="M276.087 260.195C276.312 259.504 277.289 259.504 277.513 260.195L278.316 262.664C278.365 262.815 278.46 262.946 278.588 263.039C278.716 263.132 278.87 263.182 279.028 263.182H281.625C282.352 263.182 282.653 264.112 282.066 264.539L279.966 266.065C279.838 266.158 279.742 266.289 279.693 266.44C279.644 266.59 279.644 266.753 279.693 266.903L280.495 269.372C280.72 270.063 279.929 270.638 279.34 270.211L277.24 268.685C277.112 268.592 276.958 268.542 276.8 268.542C276.641 268.542 276.487 268.592 276.359 268.685L274.259 270.211C273.671 270.638 272.881 270.063 273.105 269.372L273.907 266.903C273.956 266.753 273.956 266.59 273.907 266.44C273.858 266.289 273.763 266.158 273.634 266.065L271.535 264.54C270.948 264.112 271.25 263.182 271.976 263.182H274.572C274.73 263.183 274.884 263.133 275.012 263.04C275.141 262.947 275.236 262.815 275.285 262.665L276.088 260.196L276.087 260.195Z" fill="#FACA15"/>
<path d="M292.087 260.195C292.312 259.504 293.289 259.504 293.513 260.195L294.316 262.664C294.365 262.815 294.46 262.946 294.588 263.039C294.716 263.132 294.87 263.182 295.028 263.182H297.625C298.352 263.182 298.653 264.112 298.066 264.539L295.966 266.065C295.838 266.158 295.742 266.289 295.693 266.44C295.644 266.59 295.644 266.753 295.693 266.903L296.495 269.372C296.72 270.063 295.929 270.638 295.34 270.211L293.24 268.685C293.112 268.592 292.958 268.542 292.8 268.542C292.641 268.542 292.487 268.592 292.359 268.685L290.259 270.211C289.671 270.638 288.881 270.063 289.105 269.372L289.907 266.903C289.956 266.753 289.956 266.59 289.907 266.44C289.858 266.289 289.763 266.158 289.634 266.065L287.535 264.54C286.948 264.112 287.25 263.182 287.976 263.182H290.572C290.73 263.183 290.884 263.133 291.012 263.04C291.141 262.947 291.236 262.815 291.285 262.665L292.088 260.196L292.087 260.195Z" fill="#D1D5DB"/>
<rect x="221.3" y="276" width="100" height="6" rx="3" fill="#D1D5DB"/>
<defs>
<filter id="filter0_d_4367_58864" x="148.7" y="257.925" width="26.1499" height="26.15" filterUnits="userSpaceOnUse" color-interpolation-filters="sRGB">
<feFlood flood-opacity="0" result="BackgroundImageFix"/>
<feColorMatrix in="SourceAlpha" type="matrix" values="0 0 0 0 0 0 0 0 0 0 0 0 0 0 0 0 0 0 127 0" result="hardAlpha"/>
<feOffset dy="1"/>
<feGaussianBlur stdDeviation="1"/>
<feColorMatrix type="matrix" values="0 0 0 0 0 0 0 0 0 0 0 0 0 0 0 0 0 0 0.08 0"/>
<feBlend mode="normal" in2="BackgroundImageFix" result="effect1_dropShadow_4367_58864"/>
<feBlend mode="normal" in="SourceGraphic" in2="effect1_dropShadow_4367_58864" result="shape"/>
</filter>
<filter id="filter1_d_4367_58864" x="160.85" y="256.925" width="28.1499" height="28.15" filterUnits="userSpaceOnUse" color-interpolation-filters="sRGB">
<feFlood flood-opacity="0" result="BackgroundImageFix"/>
<feColorMatrix in="SourceAlpha" type="matrix" values="0 0 0 0 0 0 0 0 0 0 0 0 0 0 0 0 0 0 127 0" result="hardAlpha"/>
<feOffset dy="1"/>
<feGaussianBlur stdDeviation="1"/>
<feColorMatrix type="matrix" values="0 0 0 0 0 0 0 0 0 0 0 0 0 0 0 0 0 0 0.08 0"/>
<feBlend mode="normal" in2="BackgroundImageFix" result="effect1_dropShadow_4367_58864"/>
<feBlend mode="normal" in="SourceGraphic" in2="effect1_dropShadow_4367_58864" result="shape"/>
</filter>
<filter id="filter2_d_4367_58864" x="174" y="256.925" width="28.1499" height="28.15" filterUnits="userSpaceOnUse" color-interpolation-filters="sRGB">
<feFlood flood-opacity="0" result="BackgroundImageFix"/>
<feColorMatrix in="SourceAlpha" type="matrix" values="0 0 0 0 0 0 0 0 0 0 0 0 0 0 0 0 0 0 127 0" result="hardAlpha"/>
<feOffset dy="1"/>
<feGaussianBlur stdDeviation="1"/>
<feColorMatrix type="matrix" values="0 0 0 0 0 0 0 0 0 0 0 0 0 0 0 0 0 0 0.08 0"/>
<feBlend mode="normal" in2="BackgroundImageFix" result="effect1_dropShadow_4367_58864"/>
<feBlend mode="normal" in="SourceGraphic" in2="effect1_dropShadow_4367_58864" result="shape"/>
</filter>
<filter id="filter3_d_4367_58864" x="187.15" y="256.925" width="28.1499" height="28.15" filterUnits="userSpaceOnUse" color-interpolation-filters="sRGB">
<feFlood flood-opacity="0" result="BackgroundImageFix"/>
<feColorMatrix in="SourceAlpha" type="matrix" values="0 0 0 0 0 0 0 0 0 0 0 0 0 0 0 0 0 0 127 0" result="hardAlpha"/>
<feOffset dy="1"/>
<feGaussianBlur stdDeviation="1"/>
<feColorMatrix type="matrix" values="0 0 0 0 0 0 0 0 0 0 0 0 0 0 0 0 0 0 0.08 0"/>
<feBlend mode="normal" in2="BackgroundImageFix" result="effect1_dropShadow_4367_58864"/>
<feBlend mode="normal" in="SourceGraphic" in2="effect1_dropShadow_4367_58864" result="shape"/>
</filter>
</defs>
</svg>
