<svg width="477" height="258" viewBox="0 0 477 258" fill="none" xmlns="http://www.w3.org/2000/svg">
<rect x="2" y="26.5" width="160" height="10" rx="5" fill="#9CA3AF"/>
<rect x="2" y="52.5" width="269" height="8" rx="4" fill="#D1D5DB"/>
<rect x="2" y="66.5" width="187" height="8" rx="4" fill="#D1D5DB"/>
<rect x="2" y="90.5" width="65" height="16" rx="2" fill="#1A56DB"/>
<rect x="18" y="96.5" width="33" height="4" rx="1" fill="white"/>
<rect x="74" y="90.5" width="65" height="16" rx="2" stroke="#D1D5DB"/>
<rect x="90" y="96.5" width="33" height="4" rx="1" fill="#D1D5DB"/>
<g filter="url(#filter0_d_4362_58354)">
<mask id="mask0_4362_58354" style="mask-type:alpha" maskUnits="userSpaceOnUse" x="2" y="123" width="23" height="23">
<circle cx="13.075" cy="134.5" r="11.075" fill="#E5E7EB"/>
</mask>
<g mask="url(#mask0_4362_58354)">
<circle cx="13.075" cy="134.5" r="11.075" fill="#F3F4F6"/>
<path fill-rule="evenodd" clip-rule="evenodd" d="M13.075 135.626C14.0136 135.626 14.9138 135.253 15.5776 134.589C16.2413 133.925 16.6142 133.025 16.6142 132.086C16.6142 131.148 16.2413 130.248 15.5776 129.584C14.9138 128.92 14.0136 128.547 13.075 128.547C12.1363 128.547 11.2361 128.92 10.5724 129.584C9.90868 130.248 9.53581 131.148 9.53581 132.086C9.53581 133.025 9.90868 133.925 10.5724 134.589C11.2361 135.253 12.1363 135.626 13.075 135.626ZM4.81689 146.243C4.81689 145.159 5.0305 144.085 5.4455 143.083C5.86051 142.081 6.4688 141.171 7.23564 140.404C8.00247 139.637 8.91284 139.029 9.91476 138.614C10.9167 138.199 11.9905 137.985 13.075 137.985C14.1595 137.985 15.2333 138.199 16.2352 138.614C17.2371 139.029 18.1475 139.637 18.9143 140.404C19.6812 141.171 20.2895 142.081 20.7045 143.083C21.1195 144.085 21.3331 145.159 21.3331 146.243H4.81689Z" fill="#9CA3AF"/>
</g>
</g>
<g filter="url(#filter1_d_4362_58354)">
<rect x="14.65" y="122.925" width="23.15" height="23.15" rx="11.575" stroke="white"/>
<mask id="mask1_4362_58354" style="mask-type:alpha" maskUnits="userSpaceOnUse" x="15" y="123" width="23" height="23">
<circle cx="26.225" cy="134.5" r="11.075" fill="#E5E7EB"/>
</mask>
<g mask="url(#mask1_4362_58354)">
<circle cx="26.225" cy="134.5" r="11.075" fill="#F3F4F6"/>
<path fill-rule="evenodd" clip-rule="evenodd" d="M26.225 135.626C27.1637 135.626 28.0639 135.253 28.7276 134.589C29.3913 133.925 29.7642 133.025 29.7642 132.086C29.7642 131.148 29.3913 130.248 28.7276 129.584C28.0639 128.92 27.1637 128.547 26.225 128.547C25.2864 128.547 24.3862 128.92 23.7224 129.584C23.0587 130.248 22.6858 131.148 22.6858 132.086C22.6858 133.025 23.0587 133.925 23.7224 134.589C24.3862 135.253 25.2864 135.626 26.225 135.626ZM17.9669 146.243C17.9669 145.159 18.1805 144.085 18.5955 143.083C19.0105 142.081 19.6188 141.171 20.3857 140.404C21.1525 139.637 22.0629 139.029 23.0648 138.614C24.0667 138.199 25.1405 137.985 26.225 137.985C27.3095 137.985 28.3833 138.199 29.3853 138.614C30.3872 139.029 31.2975 139.637 32.0644 140.404C32.8312 141.171 33.4395 142.081 33.8545 143.083C34.2695 144.085 34.4831 145.159 34.4831 146.243H17.9669Z" fill="#9CA3AF"/>
</g>
</g>
<g filter="url(#filter2_d_4362_58354)">
<rect x="27.8" y="122.925" width="23.15" height="23.15" rx="11.575" stroke="white"/>
<mask id="mask2_4362_58354" style="mask-type:alpha" maskUnits="userSpaceOnUse" x="28" y="123" width="23" height="23">
<circle cx="39.375" cy="134.5" r="11.075" fill="#E5E7EB"/>
</mask>
<g mask="url(#mask2_4362_58354)">
<circle cx="39.375" cy="134.5" r="11.075" fill="#F3F4F6"/>
<path fill-rule="evenodd" clip-rule="evenodd" d="M39.375 135.626C40.3137 135.626 41.2139 135.253 41.8776 134.589C42.5413 133.925 42.9142 133.025 42.9142 132.086C42.9142 131.148 42.5413 130.248 41.8776 129.584C41.2139 128.92 40.3137 128.547 39.375 128.547C38.4364 128.547 37.5362 128.92 36.8725 129.584C36.2087 130.248 35.8359 131.148 35.8359 132.086C35.8359 133.025 36.2087 133.925 36.8725 134.589C37.5362 135.253 38.4364 135.626 39.375 135.626ZM31.1169 146.243C31.1169 145.159 31.3305 144.085 31.7456 143.083C32.1606 142.081 32.7688 141.171 33.5357 140.404C34.3025 139.637 35.2129 139.029 36.2148 138.614C37.2167 138.199 38.2906 137.985 39.375 137.985C40.4595 137.985 41.5334 138.199 42.5353 138.614C43.5372 139.029 44.4476 139.637 45.2144 140.404C45.9812 141.171 46.5895 142.081 47.0045 143.083C47.4195 144.085 47.6331 145.159 47.6331 146.243H31.1169Z" fill="#9CA3AF"/>
</g>
</g>
<g filter="url(#filter3_d_4362_58354)">
<rect x="40.95" y="122.925" width="23.15" height="23.15" rx="11.575" stroke="white"/>
<mask id="mask3_4362_58354" style="mask-type:alpha" maskUnits="userSpaceOnUse" x="41" y="123" width="23" height="23">
<circle cx="52.525" cy="134.5" r="11.075" fill="#E5E7EB"/>
</mask>
<g mask="url(#mask3_4362_58354)">
<circle cx="52.525" cy="134.5" r="11.075" fill="#F3F4F6"/>
<path fill-rule="evenodd" clip-rule="evenodd" d="M52.5249 135.626C53.4636 135.626 54.3638 135.253 55.0275 134.589C55.6913 133.925 56.0641 133.025 56.0641 132.086C56.0641 131.148 55.6913 130.248 55.0275 129.584C54.3638 128.92 53.4636 128.547 52.5249 128.547C51.5863 128.547 50.6861 128.92 50.0224 129.584C49.3586 130.248 48.9858 131.148 48.9858 132.086C48.9858 133.025 49.3586 133.925 50.0224 134.589C50.6861 135.253 51.5863 135.626 52.5249 135.626ZM44.2668 146.243C44.2668 145.159 44.4804 144.085 44.8955 143.083C45.3105 142.081 45.9188 141.171 46.6856 140.404C47.4524 139.637 48.3628 139.029 49.3647 138.614C50.3666 138.199 51.4405 137.985 52.5249 137.985C53.6094 137.985 54.6833 138.199 55.6852 138.614C56.6871 139.029 57.5975 139.637 58.3643 140.404C59.1311 141.171 59.7394 142.081 60.1544 143.083C60.5694 144.085 60.783 145.159 60.783 146.243H44.2668Z" fill="#9CA3AF"/>
</g>
</g>
<path d="M79.3867 124.695C79.6117 124.004 80.589 124.004 80.8132 124.695L81.6157 127.164C81.6647 127.315 81.76 127.446 81.888 127.539C82.016 127.632 82.17 127.682 82.3282 127.682H84.9247C85.6515 127.682 85.953 128.612 85.3657 129.039L83.2657 130.565C83.1375 130.658 83.042 130.789 82.993 130.94C82.9439 131.09 82.9438 131.253 82.9927 131.403L83.7952 133.872C84.0202 134.563 83.229 135.138 82.6402 134.711L80.5402 133.185C80.4121 133.092 80.2579 133.042 80.0996 133.042C79.9413 133.042 79.7871 133.092 79.659 133.185L77.559 134.711C76.971 135.138 76.1805 134.563 76.4047 133.872L77.2072 131.403C77.2561 131.253 77.256 131.09 77.207 130.94C77.1579 130.789 77.0624 130.658 76.9342 130.565L74.835 129.04C74.2477 128.612 74.55 127.682 75.276 127.682H77.8717C78.03 127.683 78.1842 127.633 78.3123 127.54C78.4405 127.447 78.5359 127.315 78.585 127.165L79.3875 124.696L79.3867 124.695Z" fill="#FACA15"/>
<path d="M95.3867 124.695C95.6117 124.004 96.589 124.004 96.8132 124.695L97.6157 127.164C97.6647 127.315 97.76 127.446 97.888 127.539C98.016 127.632 98.17 127.682 98.3282 127.682H100.925C101.651 127.682 101.953 128.612 101.366 129.039L99.2657 130.565C99.1375 130.658 99.042 130.789 98.993 130.94C98.9439 131.09 98.9438 131.253 98.9927 131.403L99.7952 133.872C100.02 134.563 99.229 135.138 98.6402 134.711L96.5402 133.185C96.4121 133.092 96.2579 133.042 96.0996 133.042C95.9413 133.042 95.7871 133.092 95.659 133.185L93.559 134.711C92.971 135.138 92.1805 134.563 92.4047 133.872L93.2072 131.403C93.2561 131.253 93.256 131.09 93.207 130.94C93.1579 130.789 93.0624 130.658 92.9342 130.565L90.835 129.04C90.2477 128.612 90.55 127.682 91.276 127.682H93.8717C94.03 127.683 94.1842 127.633 94.3123 127.54C94.4405 127.447 94.5359 127.315 94.585 127.165L95.3875 124.696L95.3867 124.695Z" fill="#FACA15"/>
<path d="M111.387 124.695C111.612 124.004 112.589 124.004 112.813 124.695L113.616 127.164C113.665 127.315 113.76 127.446 113.888 127.539C114.016 127.632 114.17 127.682 114.328 127.682H116.925C117.651 127.682 117.953 128.612 117.366 129.039L115.266 130.565C115.137 130.658 115.042 130.789 114.993 130.94C114.944 131.09 114.944 131.253 114.993 131.403L115.795 133.872C116.02 134.563 115.229 135.138 114.64 134.711L112.54 133.185C112.412 133.092 112.258 133.042 112.1 133.042C111.941 133.042 111.787 133.092 111.659 133.185L109.559 134.711C108.971 135.138 108.18 134.563 108.405 133.872L109.207 131.403C109.256 131.253 109.256 131.09 109.207 130.94C109.158 130.789 109.062 130.658 108.934 130.565L106.835 129.04C106.248 128.612 106.55 127.682 107.276 127.682H109.872C110.03 127.683 110.184 127.633 110.312 127.54C110.44 127.447 110.536 127.315 110.585 127.165L111.387 124.696L111.387 124.695Z" fill="#FACA15"/>
<path d="M127.387 124.695C127.612 124.004 128.589 124.004 128.813 124.695L129.616 127.164C129.665 127.315 129.76 127.446 129.888 127.539C130.016 127.632 130.17 127.682 130.328 127.682H132.925C133.651 127.682 133.953 128.612 133.366 129.039L131.266 130.565C131.137 130.658 131.042 130.789 130.993 130.94C130.944 131.09 130.944 131.253 130.993 131.403L131.795 133.872C132.02 134.563 131.229 135.138 130.64 134.711L128.54 133.185C128.412 133.092 128.258 133.042 128.1 133.042C127.941 133.042 127.787 133.092 127.659 133.185L125.559 134.711C124.971 135.138 124.18 134.563 124.405 133.872L125.207 131.403C125.256 131.253 125.256 131.09 125.207 130.94C125.158 130.789 125.062 130.658 124.934 130.565L122.835 129.04C122.248 128.612 122.55 127.682 123.276 127.682H125.872C126.03 127.683 126.184 127.633 126.312 127.54C126.44 127.447 126.536 127.315 126.585 127.165L127.387 124.696L127.387 124.695Z" fill="#FACA15"/>
<path d="M143.387 124.695C143.612 124.004 144.589 124.004 144.813 124.695L145.616 127.164C145.665 127.315 145.76 127.446 145.888 127.539C146.016 127.632 146.17 127.682 146.328 127.682H148.925C149.651 127.682 149.953 128.612 149.366 129.039L147.266 130.565C147.137 130.658 147.042 130.789 146.993 130.94C146.944 131.09 146.944 131.253 146.993 131.403L147.795 133.872C148.02 134.563 147.229 135.138 146.64 134.711L144.54 133.185C144.412 133.092 144.258 133.042 144.1 133.042C143.941 133.042 143.787 133.092 143.659 133.185L141.559 134.711C140.971 135.138 140.18 134.563 140.405 133.872L141.207 131.403C141.256 131.253 141.256 131.09 141.207 130.94C141.158 130.789 141.062 130.658 140.934 130.565L138.835 129.04C138.248 128.612 138.55 127.682 139.276 127.682H141.872C142.03 127.683 142.184 127.633 142.312 127.54C142.44 127.447 142.536 127.315 142.585 127.165L143.387 124.696L143.387 124.695Z" fill="#D1D5DB"/>
<rect x="72.6" y="140.5" width="110" height="6" rx="3" fill="#D1D5DB"/>
<g filter="url(#filter4_dd_4362_58354)">
<rect x="352" y="2.5" width="122" height="168" rx="7" fill="url(#paint0_linear_4362_58354)"/>
</g>
<g filter="url(#filter5_dd_4362_58354)">
<g clip-path="url(#clip0_4362_58354)">
<path d="M98.5 208.5C98.5 205.186 101.186 202.5 104.5 202.5H168.25V253.5H104.5C101.186 253.5 98.5 250.814 98.5 247.5V208.5Z" fill="white"/>
<path d="M120.188 229.159C119.339 229.159 118.585 229.006 117.926 228.699C117.267 228.392 116.746 227.97 116.364 227.432C115.985 226.894 115.788 226.277 115.773 225.58H118.5C118.523 226.008 118.697 226.352 119.023 226.614C119.348 226.871 119.737 227 120.188 227C120.54 227 120.852 226.922 121.125 226.767C121.398 226.612 121.612 226.394 121.767 226.114C121.922 225.83 121.998 225.504 121.994 225.136C121.998 224.761 121.92 224.434 121.761 224.153C121.606 223.873 121.39 223.655 121.114 223.5C120.841 223.341 120.527 223.261 120.17 223.261C119.833 223.258 119.513 223.331 119.21 223.483C118.911 223.634 118.684 223.841 118.528 224.102L116.045 223.636L116.551 217.364H124.017V219.631H118.864L118.597 222.375H118.665C118.858 222.053 119.169 221.788 119.597 221.58C120.028 221.367 120.519 221.261 121.068 221.261C121.765 221.261 122.386 221.424 122.932 221.75C123.481 222.072 123.913 222.519 124.227 223.091C124.545 223.663 124.705 224.318 124.705 225.057C124.705 225.856 124.515 226.564 124.136 227.182C123.761 227.799 123.235 228.284 122.557 228.636C121.883 228.985 121.093 229.159 120.188 229.159ZM130.913 229.159C130.277 229.159 129.667 229.057 129.084 228.852C128.5 228.644 127.982 228.314 127.527 227.864C127.072 227.409 126.714 226.814 126.453 226.08C126.192 225.341 126.063 224.441 126.067 223.381C126.071 222.422 126.188 221.562 126.419 220.801C126.65 220.036 126.98 219.386 127.408 218.852C127.839 218.318 128.355 217.911 128.953 217.631C129.555 217.347 130.228 217.205 130.97 217.205C131.785 217.205 132.502 217.364 133.124 217.682C133.749 217.996 134.249 218.42 134.624 218.955C134.999 219.485 135.22 220.076 135.288 220.727H132.521C132.438 220.36 132.254 220.081 131.97 219.892C131.69 219.699 131.357 219.602 130.97 219.602C130.258 219.602 129.726 219.911 129.374 220.528C129.025 221.146 128.847 221.972 128.839 223.006H128.913C129.072 222.657 129.302 222.358 129.601 222.108C129.9 221.858 130.243 221.667 130.629 221.534C131.019 221.398 131.432 221.33 131.868 221.33C132.565 221.33 133.18 221.491 133.714 221.812C134.249 222.134 134.667 222.576 134.97 223.136C135.273 223.693 135.423 224.331 135.419 225.051C135.423 225.862 135.233 226.578 134.851 227.199C134.468 227.816 133.938 228.297 133.26 228.642C132.586 228.987 131.804 229.159 130.913 229.159ZM130.896 227C131.241 227 131.55 226.919 131.822 226.756C132.095 226.593 132.309 226.371 132.464 226.091C132.62 225.811 132.696 225.494 132.692 225.142C132.696 224.786 132.62 224.47 132.464 224.193C132.313 223.917 132.101 223.697 131.828 223.534C131.559 223.371 131.25 223.29 130.902 223.29C130.648 223.29 130.411 223.337 130.192 223.432C129.972 223.527 129.781 223.659 129.618 223.83C129.459 223.996 129.334 224.193 129.243 224.42C129.152 224.644 129.105 224.886 129.101 225.148C129.105 225.492 129.184 225.805 129.339 226.085C129.495 226.366 129.707 226.589 129.976 226.756C130.245 226.919 130.552 227 130.896 227ZM136.872 227.068V224.875L141.639 217.364H143.588V220.341H142.457L139.668 224.761V224.852H146.571V227.068H136.872ZM142.491 229V226.398L142.548 225.438V217.364H145.179V229H142.491Z" fill="#6B7280"/>
<rect x="115.375" y="239" width="36" height="6" rx="3" fill="#D1D5DB"/>
<rect width="69.75" height="51" transform="translate(168.25 202.5)" fill="white"/>
<path d="M190.364 217.364V229H187.557V219.989H187.489L184.886 221.58V219.148L187.756 217.364H190.364ZM192.959 217.364H196.442L199.396 224.568H199.533L202.487 217.364H205.97V229H203.232V221.852H203.135L200.339 228.926H198.589L195.794 221.812H195.697V229H192.959V217.364ZM211.19 227.318V219.091H213.48V227.318H211.19ZM208.219 224.352V222.057H216.446V224.352H208.219Z" fill="#6B7280"/>
<rect x="185.125" y="239" width="36" height="6" rx="3" fill="#D1D5DB"/>
<rect width="69.75" height="51" transform="translate(238 202.5)" fill="white"/>
<path d="M259.114 217.205C259.75 217.205 260.358 217.309 260.938 217.517C261.517 217.722 262.034 218.049 262.489 218.5C262.943 218.947 263.301 219.536 263.562 220.267C263.824 220.998 263.955 221.89 263.955 222.943C263.958 223.913 263.845 224.782 263.614 225.551C263.383 226.316 263.051 226.968 262.619 227.506C262.191 228.044 261.676 228.455 261.074 228.739C260.472 229.019 259.799 229.159 259.057 229.159C258.239 229.159 257.517 229.002 256.892 228.688C256.271 228.369 255.773 227.941 255.398 227.403C255.027 226.866 254.805 226.263 254.733 225.597H257.5C257.587 225.983 257.771 226.275 258.051 226.472C258.331 226.665 258.667 226.761 259.057 226.761C259.769 226.761 260.301 226.453 260.653 225.835C261.006 225.218 261.182 224.379 261.182 223.318H261.114C260.951 223.667 260.72 223.966 260.42 224.216C260.125 224.466 259.782 224.657 259.392 224.79C259.002 224.922 258.591 224.989 258.159 224.989C257.462 224.989 256.847 224.83 256.312 224.511C255.782 224.193 255.366 223.756 255.062 223.199C254.763 222.642 254.612 222.006 254.608 221.29C254.604 220.487 254.792 219.778 255.17 219.165C255.549 218.547 256.078 218.066 256.756 217.722C257.434 217.373 258.22 217.201 259.114 217.205ZM259.131 219.364C258.782 219.364 258.472 219.445 258.199 219.608C257.93 219.771 257.718 219.991 257.562 220.267C257.407 220.544 257.331 220.854 257.335 221.199C257.339 221.544 257.417 221.854 257.568 222.131C257.723 222.407 257.934 222.627 258.199 222.79C258.468 222.953 258.775 223.034 259.119 223.034C259.377 223.034 259.616 222.987 259.835 222.892C260.055 222.797 260.246 222.667 260.409 222.5C260.572 222.33 260.699 222.133 260.79 221.909C260.884 221.686 260.93 221.447 260.926 221.193C260.922 220.856 260.843 220.549 260.688 220.273C260.532 219.996 260.318 219.777 260.045 219.614C259.777 219.447 259.472 219.364 259.131 219.364ZM270.311 229.284C269.296 229.284 268.421 229.044 267.686 228.562C266.951 228.078 266.385 227.383 265.987 226.477C265.589 225.568 265.393 224.475 265.396 223.199C265.4 221.922 265.599 220.839 265.993 219.949C266.391 219.055 266.955 218.375 267.686 217.909C268.421 217.439 269.296 217.205 270.311 217.205C271.326 217.205 272.201 217.439 272.936 217.909C273.675 218.375 274.243 219.055 274.641 219.949C275.038 220.843 275.235 221.926 275.232 223.199C275.232 224.479 275.033 225.574 274.635 226.483C274.237 227.392 273.671 228.087 272.936 228.568C272.205 229.045 271.33 229.284 270.311 229.284ZM270.311 226.983C270.917 226.983 271.408 226.674 271.783 226.057C272.158 225.436 272.343 224.483 272.339 223.199C272.339 222.358 272.254 221.665 272.084 221.119C271.913 220.57 271.677 220.161 271.374 219.892C271.071 219.623 270.716 219.489 270.311 219.489C269.709 219.489 269.222 219.794 268.851 220.403C268.48 221.009 268.292 221.941 268.288 223.199C268.285 224.051 268.366 224.758 268.533 225.318C268.703 225.879 268.942 226.297 269.249 226.574C269.555 226.847 269.91 226.983 270.311 226.983ZM280.331 227.318V219.091H282.621V227.318H280.331ZM277.359 224.352V222.057H285.587V224.352H277.359Z" fill="#6B7280"/>
<rect x="253.875" y="239" width="38" height="6" rx="3" fill="#D1D5DB"/>
<path d="M307.75 202.5H371.5C374.814 202.5 377.5 205.186 377.5 208.5V247.5C377.5 250.814 374.814 253.5 371.5 253.5H307.75V202.5Z" fill="white"/>
<path d="M328.909 229.159C328.023 229.159 327.237 229.008 326.551 228.705C325.869 228.398 325.331 227.975 324.938 227.438C324.544 226.9 324.343 226.28 324.335 225.58H327.165C327.176 225.833 327.258 226.059 327.409 226.256C327.561 226.449 327.767 226.6 328.028 226.71C328.29 226.82 328.587 226.875 328.92 226.875C329.254 226.875 329.547 226.816 329.801 226.699C330.059 226.578 330.259 226.413 330.403 226.205C330.547 225.992 330.617 225.75 330.614 225.477C330.617 225.205 330.54 224.962 330.381 224.75C330.222 224.538 329.996 224.373 329.705 224.256C329.417 224.138 329.076 224.08 328.682 224.08H327.551V222.08H328.682C329.027 222.08 329.33 222.023 329.591 221.909C329.856 221.795 330.063 221.636 330.21 221.432C330.358 221.223 330.43 220.985 330.426 220.716C330.43 220.455 330.367 220.225 330.239 220.028C330.114 219.828 329.938 219.672 329.71 219.562C329.487 219.453 329.227 219.398 328.932 219.398C328.621 219.398 328.339 219.453 328.085 219.562C327.835 219.672 327.636 219.828 327.489 220.028C327.341 220.229 327.263 220.462 327.256 220.727H324.568C324.576 220.034 324.769 219.424 325.148 218.898C325.527 218.367 326.042 217.953 326.693 217.653C327.348 217.354 328.095 217.205 328.932 217.205C329.765 217.205 330.498 217.35 331.131 217.642C331.763 217.934 332.256 218.331 332.608 218.835C332.96 219.335 333.136 219.902 333.136 220.534C333.14 221.189 332.926 221.729 332.494 222.153C332.066 222.578 331.515 222.839 330.841 222.938V223.028C331.742 223.134 332.422 223.426 332.881 223.903C333.343 224.381 333.572 224.977 333.568 225.693C333.568 226.367 333.369 226.966 332.972 227.489C332.578 228.008 332.028 228.417 331.324 228.716C330.623 229.011 329.818 229.159 328.909 229.159ZM339.967 229.284C338.952 229.284 338.077 229.044 337.342 228.562C336.607 228.078 336.041 227.383 335.643 226.477C335.246 225.568 335.049 224.475 335.053 223.199C335.056 221.922 335.255 220.839 335.649 219.949C336.047 219.055 336.611 218.375 337.342 217.909C338.077 217.439 338.952 217.205 339.967 217.205C340.982 217.205 341.857 217.439 342.592 217.909C343.331 218.375 343.899 219.055 344.297 219.949C344.695 220.843 344.892 221.926 344.888 223.199C344.888 224.479 344.689 225.574 344.291 226.483C343.893 227.392 343.327 228.087 342.592 228.568C341.861 229.045 340.986 229.284 339.967 229.284ZM339.967 226.983C340.573 226.983 341.064 226.674 341.439 226.057C341.814 225.436 342 224.483 341.996 223.199C341.996 222.358 341.911 221.665 341.74 221.119C341.57 220.57 341.333 220.161 341.03 219.892C340.727 219.623 340.373 219.489 339.967 219.489C339.365 219.489 338.878 219.794 338.507 220.403C338.136 221.009 337.948 221.941 337.945 223.199C337.941 224.051 338.022 224.758 338.189 225.318C338.359 225.879 338.598 226.297 338.905 226.574C339.212 226.847 339.566 226.983 339.967 226.983ZM349.027 226.71L349.038 223.398H349.425L351.879 220.273H355.027L351.379 224.75H350.646L349.027 226.71ZM346.521 229V217.364H349.3V229H346.521ZM351.942 229L349.658 225.375L351.487 223.403L355.152 229H351.942Z" fill="#6B7280"/>
<rect x="329.125" y="239" width="27" height="6" rx="3" fill="#D1D5DB"/>
</g>
</g>
<defs>
<filter id="filter0_d_4362_58354" x="0" y="122.425" width="26.15" height="26.15" filterUnits="userSpaceOnUse" color-interpolation-filters="sRGB">
<feFlood flood-opacity="0" result="BackgroundImageFix"/>
<feColorMatrix in="SourceAlpha" type="matrix" values="0 0 0 0 0 0 0 0 0 0 0 0 0 0 0 0 0 0 127 0" result="hardAlpha"/>
<feOffset dy="1"/>
<feGaussianBlur stdDeviation="1"/>
<feColorMatrix type="matrix" values="0 0 0 0 0 0 0 0 0 0 0 0 0 0 0 0 0 0 0.08 0"/>
<feBlend mode="normal" in2="BackgroundImageFix" result="effect1_dropShadow_4362_58354"/>
<feBlend mode="normal" in="SourceGraphic" in2="effect1_dropShadow_4362_58354" result="shape"/>
</filter>
<filter id="filter1_d_4362_58354" x="12.15" y="121.425" width="28.15" height="28.15" filterUnits="userSpaceOnUse" color-interpolation-filters="sRGB">
<feFlood flood-opacity="0" result="BackgroundImageFix"/>
<feColorMatrix in="SourceAlpha" type="matrix" values="0 0 0 0 0 0 0 0 0 0 0 0 0 0 0 0 0 0 127 0" result="hardAlpha"/>
<feOffset dy="1"/>
<feGaussianBlur stdDeviation="1"/>
<feColorMatrix type="matrix" values="0 0 0 0 0 0 0 0 0 0 0 0 0 0 0 0 0 0 0.08 0"/>
<feBlend mode="normal" in2="BackgroundImageFix" result="effect1_dropShadow_4362_58354"/>
<feBlend mode="normal" in="SourceGraphic" in2="effect1_dropShadow_4362_58354" result="shape"/>
</filter>
<filter id="filter2_d_4362_58354" x="25.3" y="121.425" width="28.15" height="28.15" filterUnits="userSpaceOnUse" color-interpolation-filters="sRGB">
<feFlood flood-opacity="0" result="BackgroundImageFix"/>
<feColorMatrix in="SourceAlpha" type="matrix" values="0 0 0 0 0 0 0 0 0 0 0 0 0 0 0 0 0 0 127 0" result="hardAlpha"/>
<feOffset dy="1"/>
<feGaussianBlur stdDeviation="1"/>
<feColorMatrix type="matrix" values="0 0 0 0 0 0 0 0 0 0 0 0 0 0 0 0 0 0 0.08 0"/>
<feBlend mode="normal" in2="BackgroundImageFix" result="effect1_dropShadow_4362_58354"/>
<feBlend mode="normal" in="SourceGraphic" in2="effect1_dropShadow_4362_58354" result="shape"/>
</filter>
<filter id="filter3_d_4362_58354" x="38.45" y="121.425" width="28.15" height="28.15" filterUnits="userSpaceOnUse" color-interpolation-filters="sRGB">
<feFlood flood-opacity="0" result="BackgroundImageFix"/>
<feColorMatrix in="SourceAlpha" type="matrix" values="0 0 0 0 0 0 0 0 0 0 0 0 0 0 0 0 0 0 127 0" result="hardAlpha"/>
<feOffset dy="1"/>
<feGaussianBlur stdDeviation="1"/>
<feColorMatrix type="matrix" values="0 0 0 0 0 0 0 0 0 0 0 0 0 0 0 0 0 0 0.08 0"/>
<feBlend mode="normal" in2="BackgroundImageFix" result="effect1_dropShadow_4362_58354"/>
<feBlend mode="normal" in="SourceGraphic" in2="effect1_dropShadow_4362_58354" result="shape"/>
</filter>
<filter id="filter4_dd_4362_58354" x="349" y="0.5" width="128" height="174" filterUnits="userSpaceOnUse" color-interpolation-filters="sRGB">
<feFlood flood-opacity="0" result="BackgroundImageFix"/>
<feColorMatrix in="SourceAlpha" type="matrix" values="0 0 0 0 0 0 0 0 0 0 0 0 0 0 0 0 0 0 127 0" result="hardAlpha"/>
<feOffset dy="1"/>
<feGaussianBlur stdDeviation="1.5"/>
<feColorMatrix type="matrix" values="0 0 0 0 0 0 0 0 0 0 0 0 0 0 0 0 0 0 0.1 0"/>
<feBlend mode="normal" in2="BackgroundImageFix" result="effect1_dropShadow_4362_58354"/>
<feColorMatrix in="SourceAlpha" type="matrix" values="0 0 0 0 0 0 0 0 0 0 0 0 0 0 0 0 0 0 127 0" result="hardAlpha"/>
<feOffset dy="1"/>
<feGaussianBlur stdDeviation="1"/>
<feColorMatrix type="matrix" values="0 0 0 0 0 0 0 0 0 0 0 0 0 0 0 0 0 0 0.06 0"/>
<feBlend mode="normal" in2="effect1_dropShadow_4362_58354" result="effect2_dropShadow_4362_58354"/>
<feBlend mode="normal" in="SourceGraphic" in2="effect2_dropShadow_4362_58354" result="shape"/>
</filter>
<filter id="filter5_dd_4362_58354" x="95.5" y="200.5" width="285" height="57" filterUnits="userSpaceOnUse" color-interpolation-filters="sRGB">
<feFlood flood-opacity="0" result="BackgroundImageFix"/>
<feColorMatrix in="SourceAlpha" type="matrix" values="0 0 0 0 0 0 0 0 0 0 0 0 0 0 0 0 0 0 127 0" result="hardAlpha"/>
<feOffset dy="1"/>
<feGaussianBlur stdDeviation="1.5"/>
<feColorMatrix type="matrix" values="0 0 0 0 0 0 0 0 0 0 0 0 0 0 0 0 0 0 0.1 0"/>
<feBlend mode="normal" in2="BackgroundImageFix" result="effect1_dropShadow_4362_58354"/>
<feColorMatrix in="SourceAlpha" type="matrix" values="0 0 0 0 0 0 0 0 0 0 0 0 0 0 0 0 0 0 127 0" result="hardAlpha"/>
<feOffset dy="1"/>
<feGaussianBlur stdDeviation="1"/>
<feColorMatrix type="matrix" values="0 0 0 0 0 0 0 0 0 0 0 0 0 0 0 0 0 0 0.06 0"/>
<feBlend mode="normal" in2="effect1_dropShadow_4362_58354" result="effect2_dropShadow_4362_58354"/>
<feBlend mode="normal" in="SourceGraphic" in2="effect2_dropShadow_4362_58354" result="shape"/>
</filter>
<linearGradient id="paint0_linear_4362_58354" x1="474" y1="103.771" x2="351.027" y2="55.6212" gradientUnits="userSpaceOnUse">
<stop stop-color="#D1D5DB"/>
<stop offset="1" stop-color="#C8C9CB"/>
</linearGradient>
<clipPath id="clip0_4362_58354">
<rect x="98.5" y="202.5" width="279" height="51" rx="5" fill="white"/>
</clipPath>
</defs>
</svg>
