<svg width="536" height="340" viewBox="0 0 536 340" fill="none" xmlns="http://www.w3.org/2000/svg">
<rect width="536" height="340" fill="#111928"/>
<path d="M217 48.6665V35.3332M217 48.6665C217 49.3737 216.719 50.052 216.219 50.5521C215.719 51.0522 215.041 51.3332 214.333 51.3332H211.667C210.959 51.3332 210.281 51.0522 209.781 50.5521C209.281 50.052 209 49.3737 209 48.6665V35.3332C209 34.6259 209.281 33.9476 209.781 33.4476C210.281 32.9475 210.959 32.6665 211.667 32.6665H214.333C215.041 32.6665 215.719 32.9475 216.219 33.4476C216.719 33.9476 217 34.6259 217 35.3332M217 48.6665C217 49.3737 217.281 50.052 217.781 50.5521C218.281 51.0522 218.959 51.3332 219.667 51.3332H222.333C223.041 51.3332 223.719 51.0522 224.219 50.5521C224.719 50.052 225 49.3737 225 48.6665M217 35.3332C217 34.6259 217.281 33.9476 217.781 33.4476C218.281 32.9475 218.959 32.6665 219.667 32.6665H222.333C223.041 32.6665 223.719 32.9475 224.219 33.4476C224.719 33.9476 225 34.6259 225 35.3332M225 48.6665V35.3332M225 48.6665C225 49.3737 225.281 50.052 225.781 50.5521C226.281 51.0522 226.959 51.3332 227.667 51.3332H230.333C231.041 51.3332 231.719 51.0522 232.219 50.5521C232.719 50.052 233 49.3737 233 48.6665V35.3332C233 34.6259 232.719 33.9476 232.219 33.4476C231.719 32.9475 231.041 32.6665 230.333 32.6665H227.667C226.959 32.6665 226.281 32.9475 225.781 33.4476C225.281 33.9476 225 34.6259 225 35.3332" stroke="#6B7280" stroke-width="3" stroke-linecap="round" stroke-linejoin="round"/>
<rect x="247" y="35.5" width="84" height="13" rx="4" fill="#4B5563"/>
<rect x="132" y="78" width="272" height="106" rx="8" fill="#374151"/>
<path fill-rule="evenodd" clip-rule="evenodd" d="M277.365 124.243C279.113 124.243 280.53 122.759 280.53 120.928C280.53 119.098 279.113 117.614 277.365 117.614C275.617 117.614 274.2 119.098 274.2 120.928C274.2 122.759 275.617 124.243 277.365 124.243ZM268.605 144.314H249.711C248.934 144.314 248.454 143.466 248.853 142.8L261.67 121.433C262.053 120.796 262.969 120.778 263.367 121.405C265.131 124.181 269.275 130.713 272.813 136.366L276.632 129.962C276.999 129.345 277.862 129.325 278.272 129.923L287.042 142.732C287.501 143.402 287.054 144.319 286.265 144.327L277.751 144.414L268.605 144.314Z" fill="#6B7280"/>
<rect x="147.5" y="204" width="240" height="5" rx="2.5" fill="#4B5563"/>
<rect x="147.5" y="214" width="231" height="5" rx="2.5" fill="#4B5563"/>
<rect x="147.5" y="224" width="72.3333" height="5" rx="2.5" fill="#4B5563"/>
<rect x="231.833" y="224" width="72.3333" height="5" rx="2.5" fill="#6B7280"/>
<rect x="316.167" y="224" width="72.3333" height="5" rx="2.5" fill="#4B5563"/>
<rect x="147.5" y="234" width="240" height="5" rx="2.5" fill="#4B5563"/>
<rect x="147.5" y="244" width="241" height="5" rx="2.5" fill="#4B5563"/>
<rect x="147.5" y="254" width="78" height="5" rx="2.5" fill="#4B5563"/>
<rect x="237.5" y="254" width="78" height="5" rx="2.5" fill="#6B7280"/>
<rect x="327.5" y="254" width="43" height="5" rx="2.5" fill="#4B5563"/>
<rect x="147.5" y="264" width="239" height="5" rx="2.5" fill="#4B5563"/>
<rect x="147.5" y="289" width="50.5" height="5" rx="2.5" fill="#4B5563"/>
<rect x="210" y="289" width="116" height="5" rx="2.5" fill="#6B7280"/>
<rect x="338" y="289" width="50.5" height="5" rx="2.5" fill="#4B5563"/>
<rect x="147.5" y="299" width="240" height="5" rx="2.5" fill="#4B5563"/>
<rect x="147.5" y="309" width="78" height="5" rx="2.5" fill="#4B5563"/>
<rect x="237.5" y="309" width="58" height="5" rx="2.5" fill="#6B7280"/>
<rect x="307.5" y="309" width="43" height="5" rx="2.5" fill="#4B5563"/>
</svg>
