<svg width="536" height="340" viewBox="0 0 536 340" fill="none" xmlns="http://www.w3.org/2000/svg">
<rect width="536" height="340" fill="#111928"/>
<rect x="32" y="100" width="224" height="10" rx="5" fill="#6B7280"/>
<rect x="32" y="126" width="224" height="8" rx="4" fill="#4B5563"/>
<rect x="32" y="140" width="162" height="8" rx="4" fill="#4B5563"/>
<rect x="32" y="154" width="194" height="8" rx="4" fill="#4B5563"/>
<rect x="32" y="178" width="212" height="8" rx="4" fill="#4B5563"/>
<rect x="32" y="192" width="109" height="8" rx="4" fill="#4B5563"/>
<rect x="32" y="224" width="72" height="16" rx="2" stroke="#4B5563"/>
<rect x="48" y="230" width="40" height="4" rx="1" fill="#4B5563"/>
<rect x="284" y="86.5" width="105" height="167" rx="8" fill="#374151"/>
<path fill-rule="evenodd" clip-rule="evenodd" d="M345.865 163.243C347.613 163.243 349.03 161.759 349.03 159.928C349.03 158.098 347.613 156.614 345.865 156.614C344.117 156.614 342.7 158.098 342.7 159.928C342.7 161.759 344.117 163.243 345.865 163.243ZM337.105 183.314H318.211C317.434 183.314 316.954 182.466 317.353 181.8L330.17 160.433C330.553 159.795 331.469 159.778 331.867 160.405C333.631 163.18 337.775 169.713 341.313 175.366L345.132 168.962C345.499 168.345 346.362 168.325 346.772 168.923L355.542 181.732C356.001 182.402 355.554 183.319 354.765 183.327L346.251 183.414L337.105 183.314Z" fill="#6B7280"/>
<rect x="399" y="108.5" width="105" height="167" rx="8" fill="#374151"/>
<path fill-rule="evenodd" clip-rule="evenodd" d="M460.865 185.243C462.613 185.243 464.03 183.759 464.03 181.928C464.03 180.098 462.613 178.614 460.865 178.614C459.117 178.614 457.7 180.098 457.7 181.928C457.7 183.759 459.117 185.243 460.865 185.243ZM452.105 205.314H433.211C432.434 205.314 431.954 204.466 432.353 203.8L445.17 182.433C445.553 181.795 446.469 181.778 446.867 182.405C448.631 185.18 452.775 191.713 456.313 197.366L460.132 190.962C460.499 190.345 461.362 190.325 461.772 190.923L470.542 203.732C471.001 204.402 470.554 205.319 469.765 205.327L461.251 205.414L452.105 205.314Z" fill="#6B7280"/>
</svg>
