<svg width="1072" height="1183" viewBox="0 0 1072 1183" fill="none" xmlns="http://www.w3.org/2000/svg">
<g filter="url(#filter0_b_3836_24061)">
<path d="M0 7.99997C0 3.58169 3.58172 0 8 0H248V1183H8.00001C3.58173 1183 0 1179.42 0 1175V7.99997Z" fill="#E5E7EB"/>
<circle cx="32" cy="24" r="8" fill="#E02424"/>
<circle cx="55" cy="24" r="8" fill="#FACA15"/>
<circle cx="78" cy="24" r="8" fill="#0E9F6E"/>
<rect width="248" height="36" transform="translate(0 48)" fill="#D1D5DB"/>
<path d="M24 62C24 61.4696 24.2107 60.9609 24.5858 60.5858C24.9609 60.2107 25.4696 60 26 60H31L33 62H38C38.5304 62 39.0391 62.2107 39.4142 62.5858C39.7893 62.9609 40 63.4696 40 64V70C40 70.5304 39.7893 71.0391 39.4142 71.4142C39.0391 71.7893 38.5304 72 38 72H26C25.4696 72 24.9609 71.7893 24.5858 71.4142C24.2107 71.0391 24 70.5304 24 70V62Z" fill="#6B7280"/>
<g clip-path="url(#clip0_3836_24061)">
<path d="M83.2169 59.2969C82.8613 58.9324 82.4297 58.7501 81.9218 58.7501C81.4142 58.7501 80.9825 58.9323 80.627 59.2969C80.2717 59.6615 80.094 60.1041 80.094 60.6251C80.094 60.9636 80.1762 61.2777 80.3413 61.5674C80.5063 61.8571 80.7283 62.0834 81.0078 62.2461C81.0078 62.5846 80.9809 62.8826 80.9271 63.1397C80.873 63.3969 80.7842 63.623 80.6605 63.8184C80.5364 64.0138 80.4082 64.1797 80.2748 64.3165C80.1413 64.4532 79.9541 64.5817 79.7129 64.7022C79.4717 64.8227 79.2478 64.9235 79.0416 65.005C78.8354 65.0862 78.5576 65.1822 78.2085 65.293C77.5736 65.4949 77.085 65.6803 76.7422 65.8496V60.996C77.0215 60.8333 77.2436 60.6071 77.4086 60.3174C77.5736 60.0276 77.6561 59.7135 77.6561 59.3749C77.6561 58.8542 77.4785 58.4114 77.123 58.0469C76.7676 57.6824 76.336 57.5 75.8281 57.5C75.3202 57.5 74.8887 57.6822 74.5332 58.0469C74.1778 58.4114 74 58.8542 74 59.3749C74 59.7135 74.0825 60.0276 74.2475 60.3174C74.4125 60.6071 74.6346 60.8333 74.914 60.996V69.004C74.6346 69.1666 74.4125 69.3931 74.2475 69.6827C74.0825 69.9725 74 70.2867 74 70.6251C74 71.1459 74.1777 71.5886 74.5332 71.9531C74.8887 72.3176 75.3203 72.5 75.8281 72.5C76.3359 72.5 76.7676 72.3176 77.123 71.9531C77.4784 71.5886 77.6561 71.1459 77.6561 70.6251C77.6561 70.2867 77.5736 69.9725 77.4086 69.6827C77.2436 69.3931 77.0215 69.1666 76.7422 69.004V68.7501C76.7422 68.301 76.8739 67.9755 77.1372 67.7738C77.4006 67.5717 77.9386 67.3406 78.7512 67.0803C79.6082 66.8003 80.2526 66.5365 80.6842 66.289C82.106 65.4624 82.8233 64.1146 82.836 62.2461C83.1155 62.0834 83.3374 61.8571 83.5024 61.5674C83.6674 61.2777 83.75 60.9636 83.75 60.625C83.7501 60.1042 83.5723 59.6616 83.2169 59.2969ZM76.4757 71.2894C76.2979 71.4718 76.0821 71.5629 75.8283 71.5629C75.5743 71.5629 75.3585 71.4718 75.1807 71.2894C75.0031 71.1073 74.9141 70.8858 74.9141 70.6255C74.9141 70.3649 75.003 70.1437 75.1807 69.9613C75.3585 69.7791 75.5743 69.6879 75.8283 69.6879C76.0821 69.6879 76.2979 69.7792 76.4757 69.9613C76.6535 70.1437 76.7423 70.3649 76.7423 70.6255C76.7423 70.8858 76.6535 71.1073 76.4757 71.2894ZM76.4757 60.0391C76.2979 60.2214 76.0821 60.3126 75.8283 60.3126C75.5743 60.3126 75.3585 60.2214 75.1807 60.0391C75.0031 59.8568 74.9141 59.6356 74.9141 59.3751C74.9141 59.1146 75.003 58.8932 75.1807 58.7111C75.3585 58.5288 75.5743 58.4376 75.8283 58.4376C76.0821 58.4376 76.2979 58.5288 76.4757 58.7111C76.6535 58.8932 76.7423 59.1146 76.7423 59.3751C76.7423 59.6356 76.6535 59.8569 76.4757 60.0391ZM82.5694 61.2892C82.3917 61.4714 82.176 61.5626 81.9221 61.5626C81.668 61.5626 81.4522 61.4714 81.2746 61.2892C81.0969 61.107 81.008 60.8856 81.008 60.6252C81.008 60.3647 81.0969 60.1435 81.2746 59.9611C81.4523 59.7788 81.668 59.6877 81.9221 59.6877C82.176 59.6877 82.3917 59.7788 82.5694 59.9611C82.7471 60.1433 82.836 60.3647 82.836 60.6252C82.836 60.8856 82.7472 61.107 82.5694 61.2892Z" fill="#6B7280"/>
</g>
<g clip-path="url(#clip1_3836_24061)">
<path d="M126.625 66.5H126.032L125.822 66.2975C126.557 65.4425 127 64.3325 127 63.125C127 60.4325 124.817 58.25 122.125 58.25C119.432 58.25 117.25 60.4325 117.25 63.125C117.25 65.8175 119.432 68 122.125 68C123.332 68 124.442 67.5575 125.297 66.8225L125.5 67.0325V67.625L129.25 71.3675L130.367 70.25L126.625 66.5ZM122.125 66.5C120.257 66.5 118.75 64.9925 118.75 63.125C118.75 61.2575 120.257 59.75 122.125 59.75C123.992 59.75 125.5 61.2575 125.5 63.125C125.5 64.9925 123.992 66.5 122.125 66.5Z" fill="#6B7280"/>
</g>
<g clip-path="url(#clip2_3836_24061)">
<path d="M170.25 65.75V71.75H176.25V65.75H170.25ZM162.75 71.75H168.75V65.75H162.75V71.75ZM162.75 58.25V64.25H168.75V58.25H162.75ZM172.995 57.2675L168.75 61.505L172.995 65.75L177.24 61.505L172.995 57.2675Z" fill="#6B7280"/>
</g>
<g clip-path="url(#clip3_3836_24061)">
<path d="M220.355 65.705C220.385 65.48 220.4 65.2475 220.4 65C220.4 64.76 220.385 64.52 220.348 64.295L221.87 63.11C222.005 63.005 222.043 62.8025 221.96 62.6525L220.52 60.1625C220.43 59.9975 220.243 59.945 220.078 59.9975L218.285 60.7175C217.91 60.4325 217.513 60.1925 217.07 60.0125L216.8 58.1075C216.77 57.9275 216.62 57.8 216.44 57.8H213.56C213.38 57.8 213.238 57.9275 213.208 58.1075L212.938 60.0125C212.495 60.1925 212.09 60.44 211.723 60.7175L209.93 59.9975C209.765 59.9375 209.578 59.9975 209.488 60.1625L208.055 62.6525C207.965 62.81 207.995 63.005 208.145 63.11L209.668 64.295C209.63 64.52 209.6 64.7675 209.6 65C209.6 65.2325 209.615 65.48 209.653 65.705L208.13 66.89C207.995 66.995 207.958 67.1975 208.04 67.3475L209.48 69.8375C209.57 70.0025 209.758 70.055 209.923 70.0025L211.715 69.2825C212.09 69.5675 212.488 69.8075 212.93 69.9875L213.2 71.8925C213.238 72.0725 213.38 72.2 213.56 72.2H216.44C216.62 72.2 216.77 72.0725 216.793 71.8925L217.063 69.9875C217.505 69.8075 217.91 69.5675 218.278 69.2825L220.07 70.0025C220.235 70.0625 220.423 70.0025 220.513 69.8375L221.953 67.3475C222.043 67.1825 222.005 66.995 221.863 66.89L220.355 65.705ZM215 67.7C213.515 67.7 212.3 66.485 212.3 65C212.3 63.515 213.515 62.3 215 62.3C216.485 62.3 217.7 63.515 217.7 65C217.7 66.485 216.485 67.7 215 67.7Z" fill="#6B7280"/>
</g>
<rect x="24" y="108" width="10" height="10" rx="2" fill="#9CA3AF"/>
<rect x="48" y="108" width="121" height="10" rx="2" fill="#9CA3AF"/>
<rect x="24" y="132" width="10" height="10" rx="2" fill="#9CA3AF"/>
<rect x="48" y="132" width="153" height="10" rx="2" fill="#9CA3AF"/>
<rect x="24" y="156" width="10" height="10" rx="2" fill="#9CA3AF"/>
<rect x="48" y="156" width="134" height="10" rx="2" fill="#9CA3AF"/>
<rect x="24" y="180" width="10" height="10" rx="2" fill="#9CA3AF"/>
<rect x="48" y="180" width="99" height="10" rx="2" fill="#9CA3AF"/>
<rect x="24" y="204" width="10" height="10" rx="2" fill="#9CA3AF"/>
<rect x="48" y="204" width="140" height="10" rx="2" fill="#9CA3AF"/>
<rect x="24" y="228" width="10" height="10" rx="2" fill="#9CA3AF"/>
<rect x="48" y="228" width="176" height="10" rx="2" fill="#9CA3AF"/>
<rect x="24" y="252" width="10" height="10" rx="2" fill="#9CA3AF"/>
<rect x="48" y="252" width="114" height="10" rx="2" fill="#9CA3AF"/>
<rect x="24" y="276" width="10" height="10" rx="2" fill="#9CA3AF"/>
<rect x="48" y="276" width="80" height="10" rx="2" fill="#9CA3AF"/>
<rect x="24" y="300" width="10" height="10" rx="2" fill="#9CA3AF"/>
<rect x="48" y="300" width="153" height="10" rx="2" fill="#9CA3AF"/>
<rect x="24" y="324" width="10" height="10" rx="2" fill="#9CA3AF"/>
<rect x="48" y="324" width="140" height="10" rx="2" fill="#9CA3AF"/>
<rect x="24" y="348" width="10" height="10" rx="2" fill="#9CA3AF"/>
<rect x="48" y="348" width="166" height="10" rx="2" fill="#9CA3AF"/>
<rect x="48" y="378" width="10" height="10" rx="2" fill="#9CA3AF"/>
<rect x="72" y="378" width="97" height="10" rx="2" fill="#9CA3AF"/>
<rect x="48" y="402" width="10" height="10" rx="2" fill="#9CA3AF"/>
<rect x="72" y="402" width="137" height="10" rx="2" fill="#9CA3AF"/>
<rect x="48" y="426" width="10" height="10" rx="2" fill="#9CA3AF"/>
<rect x="72" y="426" width="117" height="10" rx="2" fill="#9CA3AF"/>
<rect x="48" y="450" width="10" height="10" rx="2" fill="#9CA3AF"/>
<rect x="72" y="450" width="97" height="10" rx="2" fill="#9CA3AF"/>
<rect x="48" y="474" width="10" height="10" rx="2" fill="#9CA3AF"/>
<rect x="72" y="474" width="109" height="10" rx="2" fill="#9CA3AF"/>
</g>
<path d="M248 0H1064C1068.42 0 1072 3.58172 1072 8V1175C1072 1179.42 1068.42 1183 1064 1183H248V0Z" fill="#F3F4F6"/>
<path d="M248 0H1064C1068.42 0 1072 3.58172 1072 8V30H248V0Z" fill="#F9FAFB"/>
<rect width="162" height="30" transform="translate(248)" fill="#D1D5DB"/>
<g clip-path="url(#clip4_3836_24061)">
<path d="M268.5 7.5C267.675 7.5 267.008 8.175 267.008 9L267 21C267 21.825 267.667 22.5 268.492 22.5H277.5C278.325 22.5 279 21.825 279 21V12L274.5 7.5H268.5ZM273.75 12.75V8.625L277.875 12.75H273.75Z" fill="#6B7280"/>
</g>
<rect x="286" y="12" width="108" height="6" rx="2" fill="#6B7280"/>
<rect width="162" height="30" transform="translate(410)" fill="#E5E7EB"/>
<g clip-path="url(#clip5_3836_24061)">
<path d="M430.5 7.5C429.675 7.5 429.008 8.175 429.008 9L429 21C429 21.825 429.667 22.5 430.492 22.5H439.5C440.325 22.5 441 21.825 441 21V12L436.5 7.5H430.5ZM435.75 12.75V8.625L439.875 12.75H435.75Z" fill="#9CA3AF"/>
</g>
<rect x="448" y="12" width="108" height="6" rx="2" fill="#9CA3AF"/>
<g clip-path="url(#clip6_3836_24061)">
<rect x="280" y="64" width="15" height="12" rx="2" fill="#BDC4CF"/>
</g>
<g clip-path="url(#clip7_3836_24061)">
<rect x="280" y="85.7317" width="15" height="12" rx="2" fill="#BDC4CF"/>
</g>
<g clip-path="url(#clip8_3836_24061)">
<rect x="280" y="107.463" width="15" height="12" rx="2" fill="#BDC4CF"/>
</g>
<g clip-path="url(#clip9_3836_24061)">
<rect x="280" y="129.195" width="15" height="12" rx="2" fill="#BDC4CF"/>
</g>
<g clip-path="url(#clip10_3836_24061)">
<rect x="280" y="150.927" width="15" height="12" rx="2" fill="#BDC4CF"/>
</g>
<g clip-path="url(#clip11_3836_24061)">
<rect x="280" y="172.659" width="15" height="12" rx="2" fill="#BDC4CF"/>
</g>
<g clip-path="url(#clip12_3836_24061)">
<rect x="280" y="194.39" width="15" height="12" rx="2" fill="#BDC4CF"/>
</g>
<g clip-path="url(#clip13_3836_24061)">
<rect x="280" y="216.122" width="15" height="12" rx="2" fill="#BDC4CF"/>
</g>
<g clip-path="url(#clip14_3836_24061)">
<rect x="280" y="237.854" width="15" height="12" rx="2" fill="#BDC4CF"/>
</g>
<g clip-path="url(#clip15_3836_24061)">
<rect x="280" y="259.585" width="15" height="12" rx="2" fill="#BDC4CF"/>
</g>
<g clip-path="url(#clip16_3836_24061)">
<rect x="280" y="281.317" width="15" height="12" rx="2" fill="#BDC4CF"/>
</g>
<g clip-path="url(#clip17_3836_24061)">
<rect x="280" y="303.049" width="15" height="12" rx="2" fill="#BDC4CF"/>
</g>
<g clip-path="url(#clip18_3836_24061)">
<rect x="280" y="324.781" width="15" height="12" rx="2" fill="#BDC4CF"/>
</g>
<g clip-path="url(#clip19_3836_24061)">
<rect x="280" y="346.512" width="15" height="12" rx="2" fill="#BDC4CF"/>
</g>
<g clip-path="url(#clip20_3836_24061)">
<rect x="280" y="368.244" width="15" height="12" rx="2" fill="#BDC4CF"/>
</g>
<g clip-path="url(#clip21_3836_24061)">
<rect x="280" y="389.976" width="15" height="12" rx="2" fill="#BDC4CF"/>
</g>
<g clip-path="url(#clip22_3836_24061)">
<rect x="280" y="411.707" width="15" height="12" rx="2" fill="#BDC4CF"/>
</g>
<g clip-path="url(#clip23_3836_24061)">
<rect x="280" y="433.439" width="15" height="12" rx="2" fill="#BDC4CF"/>
</g>
<g clip-path="url(#clip24_3836_24061)">
<rect x="280" y="455.171" width="15" height="12" rx="2" fill="#BDC4CF"/>
</g>
<g clip-path="url(#clip25_3836_24061)">
<rect x="280" y="476.903" width="15" height="12" rx="2" fill="#BDC4CF"/>
</g>
<g clip-path="url(#clip26_3836_24061)">
<rect x="280" y="498.634" width="15" height="12" rx="2" fill="#BDC4CF"/>
</g>
<g clip-path="url(#clip27_3836_24061)">
<rect x="280" y="520.366" width="15" height="12" rx="2" fill="#BDC4CF"/>
</g>
<g clip-path="url(#clip28_3836_24061)">
<rect x="280" y="542.098" width="15" height="12" rx="2" fill="#BDC4CF"/>
</g>
<g clip-path="url(#clip29_3836_24061)">
<rect x="280" y="563.829" width="15" height="12" rx="2" fill="#BDC4CF"/>
</g>
<g clip-path="url(#clip30_3836_24061)">
<rect x="280" y="585.561" width="15" height="12" rx="2" fill="#BDC4CF"/>
</g>
<g clip-path="url(#clip31_3836_24061)">
<rect x="280" y="607.293" width="15" height="12" rx="2" fill="#BDC4CF"/>
</g>
<g clip-path="url(#clip32_3836_24061)">
<rect x="280" y="629.024" width="15" height="12" rx="2" fill="#BDC4CF"/>
</g>
<g clip-path="url(#clip33_3836_24061)">
<rect x="280" y="650.756" width="15" height="12" rx="2" fill="#BDC4CF"/>
</g>
<g clip-path="url(#clip34_3836_24061)">
<rect x="280" y="672.488" width="15" height="12" rx="2" fill="#BDC4CF"/>
</g>
<g clip-path="url(#clip35_3836_24061)">
<rect x="280" y="694.22" width="15" height="12" rx="2" fill="#BDC4CF"/>
</g>
<g clip-path="url(#clip36_3836_24061)">
<rect x="280" y="715.951" width="15" height="12" rx="2" fill="#BDC4CF"/>
</g>
<g clip-path="url(#clip37_3836_24061)">
<rect x="280" y="737.683" width="15" height="12" rx="2" fill="#BDC4CF"/>
</g>
<g clip-path="url(#clip38_3836_24061)">
<rect x="280" y="759.415" width="15" height="12" rx="2" fill="#BDC4CF"/>
</g>
<g clip-path="url(#clip39_3836_24061)">
<rect x="280" y="781.146" width="15" height="12" rx="2" fill="#BDC4CF"/>
</g>
<g clip-path="url(#clip40_3836_24061)">
<rect x="280" y="802.878" width="15" height="12" rx="2" fill="#BDC4CF"/>
</g>
<g clip-path="url(#clip41_3836_24061)">
<rect x="280" y="824.61" width="15" height="12" rx="2" fill="#BDC4CF"/>
</g>
<g clip-path="url(#clip42_3836_24061)">
<rect x="280" y="846.341" width="15" height="12" rx="2" fill="#BDC4CF"/>
</g>
<g clip-path="url(#clip43_3836_24061)">
<rect x="280" y="868.073" width="15" height="12" rx="2" fill="#BDC4CF"/>
</g>
<g clip-path="url(#clip44_3836_24061)">
<rect x="280" y="889.805" width="15" height="12" rx="2" fill="#BDC4CF"/>
</g>
<g clip-path="url(#clip45_3836_24061)">
<rect x="280" y="911.536" width="15" height="12" rx="2" fill="#BDC4CF"/>
</g>
<g clip-path="url(#clip46_3836_24061)">
<rect x="280" y="933.268" width="15" height="12" rx="2" fill="#BDC4CF"/>
</g>
<g clip-path="url(#clip47_3836_24061)">
<rect x="316" y="64" width="124" height="12" rx="2" fill="#BDC4CF"/>
<rect x="467" y="64" width="303" height="12" rx="2" fill="#BDC4CF"/>
<rect x="797" y="64" width="135" height="12" rx="2" fill="#BDC4CF"/>
</g>
<g clip-path="url(#clip48_3836_24061)">
<rect x="316" y="88" width="68" height="12" rx="2" fill="#BDC4CF"/>
<rect x="411" y="88" width="126" height="12" rx="2" fill="#BDC4CF"/>
<rect x="564" y="88" width="212" height="12" rx="2" fill="#BDC4CF"/>
<rect x="803" y="88" width="195" height="12" rx="2" fill="#BDC4CF"/>
</g>
<g clip-path="url(#clip49_3836_24061)">
<rect x="316" y="112" width="84" height="12" rx="2" fill="#BDC4CF"/>
<rect x="427" y="112" width="128" height="12" rx="2" fill="#BDC4CF"/>
<rect x="582" y="112" width="37" height="12" rx="2" fill="#BDC4CF"/>
<rect x="646" y="112" width="104" height="12" rx="2" fill="#BDC4CF"/>
<rect x="777" y="112" width="37" height="12" rx="2" fill="#BDC4CF"/>
</g>
<g clip-path="url(#clip50_3836_24061)">
<rect x="316" y="136" width="124" height="12" rx="2" fill="#BDC4CF"/>
<rect x="467" y="136" width="374" height="12" rx="2" fill="#BDC4CF"/>
<rect x="868" y="136" width="135" height="12" rx="2" fill="#BDC4CF"/>
</g>
<rect x="316" y="160" width="124" height="12" rx="2" fill="#BDC4CF"/>
<rect x="467" y="160" width="140" height="12" rx="2" fill="#BDC4CF"/>
<rect x="634" y="160" width="135" height="12" rx="2" fill="#BDC4CF"/>
<g clip-path="url(#clip51_3836_24061)">
<rect x="316" y="184" width="79" height="12" rx="2" fill="#BDC4CF"/>
<rect x="422" y="184" width="158" height="12" rx="2" fill="#BDC4CF"/>
<rect x="607" y="184" width="183" height="12" rx="2" fill="#BDC4CF"/>
</g>
<rect x="316" y="208" width="124" height="12" rx="2" fill="#BDC4CF"/>
<rect x="467" y="208" width="159" height="12" rx="2" fill="#BDC4CF"/>
<rect x="653" y="208" width="135" height="12" rx="2" fill="#BDC4CF"/>
<g clip-path="url(#clip52_3836_24061)">
<rect x="316" y="232" width="71" height="12" rx="2" fill="#BDC4CF"/>
<rect x="414" y="232" width="287" height="12" rx="2" fill="#BDC4CF"/>
<rect x="728" y="232" width="135" height="12" rx="2" fill="#BDC4CF"/>
</g>
<rect x="316" y="256" width="124" height="12" rx="2" fill="#BDC4CF"/>
<rect x="467" y="256" width="201" height="12" rx="2" fill="#BDC4CF"/>
<rect x="695" y="256" width="135" height="12" rx="2" fill="#BDC4CF"/>
<g clip-path="url(#clip53_3836_24061)">
<rect x="316" y="280" width="217" height="12" rx="2" fill="#BDC4CF"/>
<rect x="560" y="280" width="212" height="12" rx="2" fill="#BDC4CF"/>
<rect x="799" y="280" width="239" height="12" rx="2" fill="#BDC4CF"/>
</g>
<g clip-path="url(#clip54_3836_24061)">
<rect x="316" y="304" width="124" height="13" rx="2" fill="#BDC4CF"/>
<rect x="467" y="304" width="246" height="13" rx="2" fill="#BDC4CF"/>
<rect x="740" y="304" width="191" height="13" rx="2" fill="#BDC4CF"/>
</g>
<g clip-path="url(#clip55_3836_24061)">
<rect x="316" y="329" width="161" height="12" rx="2" fill="#BDC4CF"/>
<rect x="504" y="329" width="118" height="12" rx="2" fill="#BDC4CF"/>
<rect x="649" y="329" width="142" height="12" rx="2" fill="#BDC4CF"/>
</g>
<g clip-path="url(#clip56_3836_24061)">
<rect x="316" y="353" width="57" height="12" rx="2" fill="#BDC4CF"/>
<rect x="400" y="353" width="204" height="12" rx="2" fill="#BDC4CF"/>
<rect x="631" y="353" width="417" height="12" rx="2" fill="#BDC4CF"/>
</g>
<g clip-path="url(#clip57_3836_24061)">
<rect x="316" y="377" width="124" height="12" rx="2" fill="#BDC4CF"/>
<rect x="467" y="377" width="114" height="12" rx="2" fill="#BDC4CF"/>
<rect x="608" y="377" width="179" height="12" rx="2" fill="#BDC4CF"/>
</g>
<g clip-path="url(#clip58_3836_24061)">
<rect x="316" y="401" width="224" height="12" rx="2" fill="#BDC4CF"/>
<rect x="567" y="401" width="206" height="12" rx="2" fill="#BDC4CF"/>
<rect x="800" y="401" width="248" height="12" rx="2" fill="#BDC4CF"/>
</g>
<g clip-path="url(#clip59_3836_24061)">
<rect x="316" y="425" width="124" height="13" rx="2" fill="#BDC4CF"/>
<rect x="467" y="425" width="243" height="13" rx="2" fill="#BDC4CF"/>
<rect x="737" y="425" width="244" height="13" rx="2" fill="#BDC4CF"/>
</g>
<g clip-path="url(#clip60_3836_24061)">
<rect x="316" y="450" width="124" height="12" rx="2" fill="#BDC4CF"/>
<rect x="467" y="450" width="88" height="12" rx="2" fill="#BDC4CF"/>
<rect x="582" y="450" width="122" height="12" rx="2" fill="#BDC4CF"/>
</g>
<g clip-path="url(#clip61_3836_24061)">
<rect x="316" y="474" width="195" height="12" rx="2" fill="#BDC4CF"/>
<rect x="538" y="474" width="238" height="12" rx="2" fill="#BDC4CF"/>
<rect x="803" y="474" width="194" height="12" rx="2" fill="#BDC4CF"/>
</g>
<g clip-path="url(#clip62_3836_24061)">
<rect x="316" y="498" width="68" height="12" rx="2" fill="#BDC4CF"/>
<rect x="411" y="498" width="153" height="12" rx="2" fill="#BDC4CF"/>
<rect x="591" y="498" width="46" height="12" rx="2" fill="#BDC4CF"/>
<rect x="664" y="498" width="153" height="12" rx="2" fill="#BDC4CF"/>
<rect x="844" y="498" width="124" height="12" rx="2" fill="#BDC4CF"/>
</g>
<g clip-path="url(#clip63_3836_24061)">
<rect x="316" y="522" width="124" height="12" rx="2" fill="#BDC4CF"/>
<rect x="467" y="522" width="185" height="12" rx="2" fill="#BDC4CF"/>
<rect x="679" y="522" width="140" height="12" rx="2" fill="#BDC4CF"/>
</g>
<g clip-path="url(#clip64_3836_24061)">
<rect x="316" y="546" width="60" height="12" rx="2" fill="#BDC4CF"/>
<rect x="403" y="546" width="114" height="12" rx="2" fill="#BDC4CF"/>
<rect x="544" y="546" width="54" height="12" rx="2" fill="#BDC4CF"/>
<rect x="625" y="546" width="66" height="12" rx="2" fill="#BDC4CF"/>
<rect x="718" y="546" width="75" height="12" rx="2" fill="#BDC4CF"/>
</g>
<g clip-path="url(#clip65_3836_24061)">
<rect x="316" y="570" width="124" height="12" rx="2" fill="#BDC4CF"/>
<rect x="467" y="570" width="114" height="12" rx="2" fill="#BDC4CF"/>
<rect x="608" y="570" width="139" height="12" rx="2" fill="#BDC4CF"/>
</g>
<g clip-path="url(#clip66_3836_24061)">
<rect x="316" y="594" width="217" height="12" rx="2" fill="#BDC4CF"/>
<rect x="560" y="594" width="212" height="12" rx="2" fill="#BDC4CF"/>
<rect x="799" y="594" width="237" height="12" rx="2" fill="#BDC4CF"/>
</g>
<g clip-path="url(#clip67_3836_24061)">
<rect x="316" y="618" width="124" height="13" rx="2" fill="#BDC4CF"/>
<rect x="467" y="618" width="246" height="13" rx="2" fill="#BDC4CF"/>
<rect x="740" y="618" width="191" height="13" rx="2" fill="#BDC4CF"/>
</g>
<g clip-path="url(#clip68_3836_24061)">
<rect x="316" y="643" width="161" height="12" rx="2" fill="#BDC4CF"/>
<rect x="504" y="643" width="118" height="12" rx="2" fill="#BDC4CF"/>
<rect x="649" y="643" width="142" height="12" rx="2" fill="#BDC4CF"/>
</g>
<g clip-path="url(#clip69_3836_24061)">
<rect x="316" y="667" width="57" height="12" rx="2" fill="#BDC4CF"/>
<rect x="400" y="667" width="204" height="12" rx="2" fill="#BDC4CF"/>
<rect x="631" y="667" width="405" height="12" rx="2" fill="#BDC4CF"/>
</g>
<g clip-path="url(#clip70_3836_24061)">
<rect x="316" y="691" width="124" height="12" rx="2" fill="#BDC4CF"/>
<rect x="467" y="691" width="114" height="12" rx="2" fill="#BDC4CF"/>
<rect x="608" y="691" width="179" height="12" rx="2" fill="#BDC4CF"/>
</g>
<g clip-path="url(#clip71_3836_24061)">
<rect x="316" y="715" width="224" height="12" rx="2" fill="#BDC4CF"/>
<rect x="567" y="715" width="206" height="12" rx="2" fill="#BDC4CF"/>
<rect x="800" y="715" width="236" height="12" rx="2" fill="#BDC4CF"/>
</g>
<g clip-path="url(#clip72_3836_24061)">
<rect x="316" y="739" width="124" height="13" rx="2" fill="#BDC4CF"/>
<rect x="467" y="739" width="243" height="13" rx="2" fill="#BDC4CF"/>
<rect x="737" y="739" width="244" height="13" rx="2" fill="#BDC4CF"/>
</g>
<g clip-path="url(#clip73_3836_24061)">
<rect x="316" y="764" width="124" height="12" rx="2" fill="#BDC4CF"/>
<rect x="467" y="764" width="88" height="12" rx="2" fill="#BDC4CF"/>
<rect x="582" y="764" width="122" height="12" rx="2" fill="#BDC4CF"/>
</g>
<g clip-path="url(#clip74_3836_24061)">
<rect x="316" y="788" width="195" height="12" rx="2" fill="#BDC4CF"/>
<rect x="538" y="788" width="238" height="12" rx="2" fill="#BDC4CF"/>
<rect x="803" y="788" width="194" height="12" rx="2" fill="#BDC4CF"/>
</g>
<g clip-path="url(#clip75_3836_24061)">
<rect x="316" y="812" width="68" height="12" rx="2" fill="#BDC4CF"/>
<rect x="411" y="812" width="153" height="12" rx="2" fill="#BDC4CF"/>
<rect x="591" y="812" width="46" height="12" rx="2" fill="#BDC4CF"/>
<rect x="664" y="812" width="153" height="12" rx="2" fill="#BDC4CF"/>
<rect x="844" y="812" width="124" height="12" rx="2" fill="#BDC4CF"/>
</g>
<g clip-path="url(#clip76_3836_24061)">
<rect x="316" y="836" width="124" height="12" rx="2" fill="#BDC4CF"/>
<rect x="467" y="836" width="185" height="12" rx="2" fill="#BDC4CF"/>
<rect x="679" y="836" width="140" height="12" rx="2" fill="#BDC4CF"/>
</g>
<g clip-path="url(#clip77_3836_24061)">
<rect x="316" y="860" width="60" height="12" rx="2" fill="#BDC4CF"/>
<rect x="403" y="860" width="114" height="12" rx="2" fill="#BDC4CF"/>
<rect x="544" y="860" width="54" height="12" rx="2" fill="#BDC4CF"/>
<rect x="625" y="860" width="66" height="12" rx="2" fill="#BDC4CF"/>
<rect x="718" y="860" width="75" height="12" rx="2" fill="#BDC4CF"/>
</g>
<g clip-path="url(#clip78_3836_24061)">
<rect x="316" y="884" width="124" height="12" rx="2" fill="#BDC4CF"/>
<rect x="467" y="884" width="114" height="12" rx="2" fill="#BDC4CF"/>
<rect x="608" y="884" width="139" height="12" rx="2" fill="#BDC4CF"/>
</g>
<g clip-path="url(#clip79_3836_24061)">
<rect x="316" y="908" width="217" height="12" rx="2" fill="#BDC4CF"/>
<rect x="560" y="908" width="212" height="12" rx="2" fill="#BDC4CF"/>
<rect x="799" y="908" width="227" height="12" rx="2" fill="#BDC4CF"/>
</g>
<g clip-path="url(#clip80_3836_24061)">
<rect x="316" y="932" width="124" height="13" rx="2" fill="#BDC4CF"/>
<rect x="467" y="932" width="246" height="13" rx="2" fill="#BDC4CF"/>
<rect x="740" y="932" width="191" height="13" rx="2" fill="#BDC4CF"/>
</g>
<path d="M248 1146H1072V1175C1072 1179.42 1068.42 1183 1064 1183H248V1146Z" fill="#E5E7EB"/>
<rect x="799" y="1162" width="45" height="5" rx="1" fill="#9CA3AF"/>
<rect x="867" y="1162" width="45" height="5" rx="1" fill="#9CA3AF"/>
<rect x="935" y="1162" width="45" height="5" rx="1" fill="#9CA3AF"/>
<rect x="1003" y="1162" width="45" height="5" rx="1" fill="#9CA3AF"/>
<defs>
<filter id="filter0_b_3836_24061" x="-50" y="-50" width="348" height="1283" filterUnits="userSpaceOnUse" color-interpolation-filters="sRGB">
<feFlood flood-opacity="0" result="BackgroundImageFix"/>
<feGaussianBlur in="BackgroundImageFix" stdDeviation="25"/>
<feComposite in2="SourceAlpha" operator="in" result="effect1_backgroundBlur_3836_24061"/>
<feBlend mode="normal" in="SourceGraphic" in2="effect1_backgroundBlur_3836_24061" result="shape"/>
</filter>
<clipPath id="clip0_3836_24061">
<rect width="18" height="18" fill="white" transform="translate(69.5 56)"/>
</clipPath>
<clipPath id="clip1_3836_24061">
<rect width="18" height="18" fill="white" transform="translate(115 56)"/>
</clipPath>
<clipPath id="clip2_3836_24061">
<rect width="18" height="18" fill="white" transform="translate(160.5 56)"/>
</clipPath>
<clipPath id="clip3_3836_24061">
<rect width="18" height="18" fill="white" transform="translate(206 56)"/>
</clipPath>
<clipPath id="clip4_3836_24061">
<rect width="18" height="18" fill="white" transform="translate(264 6)"/>
</clipPath>
<clipPath id="clip5_3836_24061">
<rect width="18" height="18" fill="white" transform="translate(426 6)"/>
</clipPath>
<clipPath id="clip6_3836_24061">
<rect x="280" y="64" width="4" height="9.73171" rx="2" fill="white"/>
</clipPath>
<clipPath id="clip7_3836_24061">
<rect x="280" y="85.7317" width="4" height="9.73171" rx="2" fill="white"/>
</clipPath>
<clipPath id="clip8_3836_24061">
<rect x="280" y="107.463" width="4" height="9.73171" rx="2" fill="white"/>
</clipPath>
<clipPath id="clip9_3836_24061">
<rect x="280" y="129.195" width="4" height="9.73171" rx="2" fill="white"/>
</clipPath>
<clipPath id="clip10_3836_24061">
<rect x="280" y="150.927" width="4" height="9.73171" rx="2" fill="white"/>
</clipPath>
<clipPath id="clip11_3836_24061">
<rect x="280" y="172.659" width="4" height="9.73171" rx="2" fill="white"/>
</clipPath>
<clipPath id="clip12_3836_24061">
<rect x="280" y="194.39" width="4" height="9.73171" rx="2" fill="white"/>
</clipPath>
<clipPath id="clip13_3836_24061">
<rect x="280" y="216.122" width="4" height="9.73171" rx="2" fill="white"/>
</clipPath>
<clipPath id="clip14_3836_24061">
<rect x="280" y="237.854" width="4" height="9.73171" rx="2" fill="white"/>
</clipPath>
<clipPath id="clip15_3836_24061">
<rect x="280" y="259.585" width="4" height="9.73171" rx="2" fill="white"/>
</clipPath>
<clipPath id="clip16_3836_24061">
<rect x="280" y="281.317" width="4" height="9.73171" rx="2" fill="white"/>
</clipPath>
<clipPath id="clip17_3836_24061">
<rect x="280" y="303.049" width="4" height="9.73171" rx="2" fill="white"/>
</clipPath>
<clipPath id="clip18_3836_24061">
<rect x="280" y="324.781" width="4" height="9.73171" rx="2" fill="white"/>
</clipPath>
<clipPath id="clip19_3836_24061">
<rect x="280" y="346.512" width="4" height="9.73171" rx="2" fill="white"/>
</clipPath>
<clipPath id="clip20_3836_24061">
<rect x="280" y="368.244" width="4" height="9.73171" rx="2" fill="white"/>
</clipPath>
<clipPath id="clip21_3836_24061">
<rect x="280" y="389.976" width="4" height="9.73171" rx="2" fill="white"/>
</clipPath>
<clipPath id="clip22_3836_24061">
<rect x="280" y="411.707" width="4" height="9.73171" rx="2" fill="white"/>
</clipPath>
<clipPath id="clip23_3836_24061">
<rect x="280" y="433.439" width="4" height="9.73171" rx="2" fill="white"/>
</clipPath>
<clipPath id="clip24_3836_24061">
<rect x="280" y="455.171" width="4" height="9.73171" rx="2" fill="white"/>
</clipPath>
<clipPath id="clip25_3836_24061">
<rect x="280" y="476.903" width="4" height="9.73171" rx="2" fill="white"/>
</clipPath>
<clipPath id="clip26_3836_24061">
<rect x="280" y="498.634" width="4" height="9.73171" rx="2" fill="white"/>
</clipPath>
<clipPath id="clip27_3836_24061">
<rect x="280" y="520.366" width="4" height="9.73171" rx="2" fill="white"/>
</clipPath>
<clipPath id="clip28_3836_24061">
<rect x="280" y="542.098" width="4" height="9.73171" rx="2" fill="white"/>
</clipPath>
<clipPath id="clip29_3836_24061">
<rect x="280" y="563.829" width="4" height="9.73171" rx="2" fill="white"/>
</clipPath>
<clipPath id="clip30_3836_24061">
<rect x="280" y="585.561" width="4" height="9.73171" rx="2" fill="white"/>
</clipPath>
<clipPath id="clip31_3836_24061">
<rect x="280" y="607.293" width="4" height="9.73171" rx="2" fill="white"/>
</clipPath>
<clipPath id="clip32_3836_24061">
<rect x="280" y="629.024" width="4" height="9.73171" rx="2" fill="white"/>
</clipPath>
<clipPath id="clip33_3836_24061">
<rect x="280" y="650.756" width="4" height="9.73171" rx="2" fill="white"/>
</clipPath>
<clipPath id="clip34_3836_24061">
<rect x="280" y="672.488" width="4" height="9.73171" rx="2" fill="white"/>
</clipPath>
<clipPath id="clip35_3836_24061">
<rect x="280" y="694.22" width="4" height="9.73171" rx="2" fill="white"/>
</clipPath>
<clipPath id="clip36_3836_24061">
<rect x="280" y="715.951" width="4" height="9.73171" rx="2" fill="white"/>
</clipPath>
<clipPath id="clip37_3836_24061">
<rect x="280" y="737.683" width="4" height="9.73171" rx="2" fill="white"/>
</clipPath>
<clipPath id="clip38_3836_24061">
<rect x="280" y="759.415" width="4" height="9.73171" rx="2" fill="white"/>
</clipPath>
<clipPath id="clip39_3836_24061">
<rect x="280" y="781.146" width="4" height="9.73171" rx="2" fill="white"/>
</clipPath>
<clipPath id="clip40_3836_24061">
<rect x="280" y="802.878" width="4" height="9.73171" rx="2" fill="white"/>
</clipPath>
<clipPath id="clip41_3836_24061">
<rect x="280" y="824.61" width="4" height="9.73171" rx="2" fill="white"/>
</clipPath>
<clipPath id="clip42_3836_24061">
<rect x="280" y="846.341" width="4" height="9.73171" rx="2" fill="white"/>
</clipPath>
<clipPath id="clip43_3836_24061">
<rect x="280" y="868.073" width="4" height="9.73171" rx="2" fill="white"/>
</clipPath>
<clipPath id="clip44_3836_24061">
<rect x="280" y="889.805" width="4" height="9.73171" rx="2" fill="white"/>
</clipPath>
<clipPath id="clip45_3836_24061">
<rect x="280" y="911.536" width="4" height="9.73171" rx="2" fill="white"/>
</clipPath>
<clipPath id="clip46_3836_24061">
<rect x="280" y="933.268" width="4" height="9.73171" rx="2" fill="white"/>
</clipPath>
<clipPath id="clip47_3836_24061">
<rect width="616" height="12" fill="white" transform="translate(316 64)"/>
</clipPath>
<clipPath id="clip48_3836_24061">
<rect width="682" height="12" fill="white" transform="translate(316 88)"/>
</clipPath>
<clipPath id="clip49_3836_24061">
<rect width="498" height="12" fill="white" transform="translate(316 112)"/>
</clipPath>
<clipPath id="clip50_3836_24061">
<rect width="687" height="12" fill="white" transform="translate(316 136)"/>
</clipPath>
<clipPath id="clip51_3836_24061">
<rect width="474" height="12" fill="white" transform="translate(316 184)"/>
</clipPath>
<clipPath id="clip52_3836_24061">
<rect width="547" height="12" fill="white" transform="translate(316 232)"/>
</clipPath>
<clipPath id="clip53_3836_24061">
<rect width="722" height="12" fill="white" transform="translate(316 280)"/>
</clipPath>
<clipPath id="clip54_3836_24061">
<rect width="615" height="13" fill="white" transform="translate(316 304)"/>
</clipPath>
<clipPath id="clip55_3836_24061">
<rect width="475" height="12" fill="white" transform="translate(316 329)"/>
</clipPath>
<clipPath id="clip56_3836_24061">
<rect width="732" height="12" fill="white" transform="translate(316 353)"/>
</clipPath>
<clipPath id="clip57_3836_24061">
<rect width="471" height="12" fill="white" transform="translate(316 377)"/>
</clipPath>
<clipPath id="clip58_3836_24061">
<rect width="732" height="12" fill="white" transform="translate(316 401)"/>
</clipPath>
<clipPath id="clip59_3836_24061">
<rect width="665" height="13" fill="white" transform="translate(316 425)"/>
</clipPath>
<clipPath id="clip60_3836_24061">
<rect width="388" height="12" fill="white" transform="translate(316 450)"/>
</clipPath>
<clipPath id="clip61_3836_24061">
<rect width="681" height="12" fill="white" transform="translate(316 474)"/>
</clipPath>
<clipPath id="clip62_3836_24061">
<rect width="652" height="12" fill="white" transform="translate(316 498)"/>
</clipPath>
<clipPath id="clip63_3836_24061">
<rect width="503" height="12" fill="white" transform="translate(316 522)"/>
</clipPath>
<clipPath id="clip64_3836_24061">
<rect width="477" height="12" fill="white" transform="translate(316 546)"/>
</clipPath>
<clipPath id="clip65_3836_24061">
<rect width="431" height="12" fill="white" transform="translate(316 570)"/>
</clipPath>
<clipPath id="clip66_3836_24061">
<rect width="720" height="12" fill="white" transform="translate(316 594)"/>
</clipPath>
<clipPath id="clip67_3836_24061">
<rect width="615" height="13" fill="white" transform="translate(316 618)"/>
</clipPath>
<clipPath id="clip68_3836_24061">
<rect width="475" height="12" fill="white" transform="translate(316 643)"/>
</clipPath>
<clipPath id="clip69_3836_24061">
<rect width="720" height="12" fill="white" transform="translate(316 667)"/>
</clipPath>
<clipPath id="clip70_3836_24061">
<rect width="471" height="12" fill="white" transform="translate(316 691)"/>
</clipPath>
<clipPath id="clip71_3836_24061">
<rect width="720" height="12" fill="white" transform="translate(316 715)"/>
</clipPath>
<clipPath id="clip72_3836_24061">
<rect width="665" height="13" fill="white" transform="translate(316 739)"/>
</clipPath>
<clipPath id="clip73_3836_24061">
<rect width="388" height="12" fill="white" transform="translate(316 764)"/>
</clipPath>
<clipPath id="clip74_3836_24061">
<rect width="681" height="12" fill="white" transform="translate(316 788)"/>
</clipPath>
<clipPath id="clip75_3836_24061">
<rect width="652" height="12" fill="white" transform="translate(316 812)"/>
</clipPath>
<clipPath id="clip76_3836_24061">
<rect width="503" height="12" fill="white" transform="translate(316 836)"/>
</clipPath>
<clipPath id="clip77_3836_24061">
<rect width="477" height="12" fill="white" transform="translate(316 860)"/>
</clipPath>
<clipPath id="clip78_3836_24061">
<rect width="431" height="12" fill="white" transform="translate(316 884)"/>
</clipPath>
<clipPath id="clip79_3836_24061">
<rect width="710" height="12" fill="white" transform="translate(316 908)"/>
</clipPath>
<clipPath id="clip80_3836_24061">
<rect width="615" height="13" fill="white" transform="translate(316 932)"/>
</clipPath>
</defs>
</svg>
