<svg width="216" height="54" viewBox="0 0 216 54" fill="none" xmlns="http://www.w3.org/2000/svg">
<path d="M36.7793 22.4141C36.6681 23.1797 36.1632 24.2199 35.584 25.1243C34.8532 26.2654 33.6935 27.0647 32.3663 27.3423L26.5197 28.5648C25.5801 28.7613 24.728 29.2531 24.0882 29.9682L20.2547 34.2532C19.5343 35.0586 19.0307 34.8665 19.0307 33.7864C19.022 33.8265 17.1281 38.7105 22.1471 41.6054C24.0755 42.7177 26.8515 42.3181 28.7799 41.2058L38.9977 35.3121C42.8189 33.108 45.5169 29.3793 46.4137 25.0631C46.4492 24.8923 46.4766 24.721 46.5062 24.5497L36.7793 22.4141Z" fill="url(#paint0_linear_1364_227072)"/>
<path d="M34.1294 16.5269C36.0578 17.6392 36.8458 19.2952 36.8457 21.5198C36.8457 21.8218 36.822 22.1202 36.7793 22.414L40.8964 24.1825L46.5062 24.5497C47.2245 20.3924 45.8168 16.1133 43.2932 12.7119C41.394 10.1522 38.9502 7.93095 36.0123 6.23631C33.6257 4.85973 31.1457 3.95275 28.6539 3.45508L25.8543 7.08059L24.9699 11.2436L34.1294 16.5269Z" fill="url(#paint1_linear_1364_227072)"/>
<path d="M1.1754 19.5777C1.17435 19.581 1.17725 19.5819 1.17834 19.5787C1.39437 18.9307 1.66527 18.2078 2.00346 17.4355C3.77001 13.4015 7.17429 10.7109 11.3624 9.33912C15.5504 7.96734 20.1233 8.44819 23.9402 10.6498L24.9698 11.2437L28.6538 3.45512C16.9364 1.11485 4.96092 7.9988 1.19029 19.5326C1.18849 19.5381 1.18194 19.5573 1.1754 19.5777Z" fill="url(#paint2_linear_1364_227072)"/>
<path d="M28.3797 41.2056C26.4513 42.3179 24.0754 42.3179 22.147 41.2056C21.8852 41.0546 21.6384 40.8848 21.405 40.701L18.0135 43.0328L15.0903 47.7564C18.3349 50.4565 22.5481 51.3246 26.7583 50.8418C29.9268 50.4785 33.0742 49.4747 36.0121 47.7801C38.3987 46.4036 40.4249 44.7113 42.1022 42.8042L40.3593 38.5692L37.5392 35.9224L28.3797 41.2056Z" fill="url(#paint3_linear_1364_227072)"/>
<path d="M21.405 40.701C19.9193 39.5306 19.0306 37.7356 19.0306 35.8129V35.6212V19.6084C19.0306 18.7028 19.2974 18.5489 20.0824 19.0017C18.8734 18.3043 16.0803 15.9103 12.6316 17.8995C10.7032 19.0118 9.11523 21.4671 9.11523 23.6917V35.4791C9.11523 39.8873 11.3985 44.4857 14.6916 47.4197C14.8219 47.5357 14.9567 47.6451 15.0903 47.7563L21.405 40.701Z" fill="url(#paint4_linear_1364_227072)"/>
<path d="M41.8656 10.9685C41.8633 10.9659 41.861 10.968 41.8633 10.9705C42.317 11.4814 42.8082 12.0773 43.3085 12.756C45.9222 16.3015 46.8987 20.792 45.9939 25.1014C45.0889 29.4109 42.3857 33.1269 38.5687 35.3285L37.5392 35.9223L42.1022 42.8042C49.9895 33.8364 50.01 20.0332 41.8973 11.0039C41.8934 10.9996 41.88 10.9843 41.8656 10.9685Z" fill="url(#paint5_linear_1364_227072)"/>
<path d="M9.51532 23.6918C9.5153 21.4671 10.7033 19.4115 12.6317 18.2992C12.8935 18.1482 13.164 18.0195 13.44 17.9095L13.1146 13.8093L10.8279 9.11816C6.86506 10.5753 3.65955 13.5867 1.97292 17.4709C0.703645 20.3939 1.4688e-05 23.6189 0 27.0081C0 29.7613 0.453823 32.3605 1.2683 34.7653L5.81087 35.3748L9.51532 34.2582V23.6918Z" fill="url(#paint6_linear_1364_227072)"/>
<path d="M13.4401 17.9095C15.1974 17.2092 17.1978 17.3378 18.8644 18.2992L19.0307 18.395L32.3737 26.0914C33.3097 26.6313 33.2247 27.1625 32.1668 27.3837L32.9365 27.2228C33.9493 27.011 34.8747 26.4934 35.5823 25.7391C36.799 24.4422 37.2457 22.8775 37.2457 21.5196C37.2457 19.295 36.0577 17.2394 34.1293 16.127L23.9115 10.2334C20.0902 8.02926 15.509 7.55926 11.3191 8.94149C11.1534 8.99615 10.9912 9.05815 10.8279 9.11816L13.4401 17.9095Z" fill="url(#paint7_linear_1364_227072)"/>
<path d="M28.9833 50.4785C28.9867 50.4778 28.986 50.4748 28.9827 50.4755C28.3129 50.6125 27.5509 50.7396 26.7123 50.8331C22.3321 51.3217 17.9513 49.9214 14.6681 46.9838C11.3849 44.0461 9.51533 39.8493 9.51534 35.446L9.51532 34.2583L1.26831 34.7653C5.09833 46.0734 17.0534 52.9927 28.9367 50.4882C28.9424 50.487 28.9624 50.483 28.9833 50.4785Z" fill="url(#paint8_linear_1364_227072)"/>
<path d="M66.2756 40V13.8182H83.6108V18.3821H71.8111V24.6207H82.4602V29.1847H71.8111V40H66.2756ZM92.6779 13.8182V40H87.2319V13.8182H92.6779ZM105.913 40.3835C103.927 40.3835 102.21 39.9616 100.761 39.1179C99.3203 38.2656 98.2081 37.081 97.424 35.5639C96.6399 34.0384 96.2479 32.2699 96.2479 30.2585C96.2479 28.2301 96.6399 26.4574 97.424 24.9403C98.2081 23.4148 99.3203 22.2301 100.761 21.3864C102.21 20.5341 103.927 20.108 105.913 20.108C107.898 20.108 109.612 20.5341 111.052 21.3864C112.501 22.2301 113.617 23.4148 114.401 24.9403C115.185 26.4574 115.577 28.2301 115.577 30.2585C115.577 32.2699 115.185 34.0384 114.401 35.5639C113.617 37.081 112.501 38.2656 111.052 39.1179C109.612 39.9616 107.898 40.3835 105.913 40.3835ZM105.938 36.1648C106.842 36.1648 107.596 35.9091 108.201 35.3977C108.806 34.8778 109.262 34.1705 109.569 33.2756C109.884 32.3807 110.042 31.3622 110.042 30.2202C110.042 29.0781 109.884 28.0597 109.569 27.1648C109.262 26.2699 108.806 25.5625 108.201 25.0426C107.596 24.5227 106.842 24.2628 105.938 24.2628C105.026 24.2628 104.259 24.5227 103.637 25.0426C103.023 25.5625 102.559 26.2699 102.244 27.1648C101.937 28.0597 101.783 29.0781 101.783 30.2202C101.783 31.3622 101.937 32.3807 102.244 33.2756C102.559 34.1705 103.023 34.8778 103.637 35.3977C104.259 35.9091 105.026 36.1648 105.938 36.1648ZM122.5 40L117.156 20.3636H122.666L125.709 33.5568H125.888L129.058 20.3636H134.466L137.688 33.4801H137.854L140.845 20.3636H146.342L141.011 40H135.246L131.871 27.6506H131.628L128.253 40H122.5ZM149.35 40V13.8182H154.796V23.6619H154.962C155.201 23.1335 155.546 22.5966 155.998 22.0511C156.458 21.4972 157.054 21.0369 157.787 20.6705C158.529 20.2955 159.449 20.108 160.549 20.108C161.98 20.108 163.301 20.483 164.512 21.233C165.722 21.9744 166.689 23.0952 167.414 24.5952C168.138 26.0866 168.5 27.9574 168.5 30.2074C168.5 32.3977 168.147 34.2472 167.439 35.7557C166.74 37.2557 165.786 38.3935 164.576 39.169C163.374 39.9361 162.027 40.3196 160.536 40.3196C159.479 40.3196 158.58 40.1449 157.838 39.7955C157.105 39.446 156.505 39.0071 156.036 38.4787C155.567 37.9418 155.209 37.4006 154.962 36.8551H154.719V40H149.35ZM154.681 30.1818C154.681 31.3494 154.843 32.3679 155.167 33.2372C155.49 34.1065 155.959 34.7841 156.573 35.2699C157.186 35.7472 157.932 35.9858 158.81 35.9858C159.696 35.9858 160.446 35.7429 161.06 35.2571C161.674 34.7628 162.138 34.081 162.453 33.2116C162.777 32.3338 162.939 31.3239 162.939 30.1818C162.939 29.0483 162.782 28.0511 162.466 27.1903C162.151 26.3295 161.686 25.6562 161.073 25.1705C160.459 24.6847 159.705 24.4418 158.81 24.4418C157.924 24.4418 157.174 24.6761 156.56 25.1449C155.955 25.6136 155.49 26.2784 155.167 27.1392C154.843 28 154.681 29.0142 154.681 30.1818ZM172.134 40V20.3636H177.58V40H172.134ZM174.87 17.8324C174.06 17.8324 173.366 17.5639 172.786 17.027C172.215 16.4815 171.93 15.8295 171.93 15.071C171.93 14.321 172.215 13.6776 172.786 13.1406C173.366 12.5952 174.06 12.3224 174.87 12.3224C175.68 12.3224 176.37 12.5952 176.941 13.1406C177.521 13.6776 177.81 14.321 177.81 15.071C177.81 15.8295 177.521 16.4815 176.941 17.027C176.37 17.5639 175.68 17.8324 174.87 17.8324ZM192.387 20.3636V24.4545H180.562V20.3636H192.387ZM183.247 15.6591H188.693V33.9659C188.693 34.4687 188.77 34.8608 188.923 35.142C189.076 35.4148 189.289 35.6065 189.562 35.7173C189.843 35.8281 190.167 35.8835 190.534 35.8835C190.789 35.8835 191.045 35.8622 191.301 35.8196C191.556 35.7685 191.752 35.7301 191.889 35.7045L192.745 39.7571C192.473 39.8423 192.089 39.9403 191.595 40.0511C191.1 40.1705 190.5 40.2429 189.792 40.2685C188.48 40.3196 187.329 40.1449 186.341 39.7443C185.36 39.3437 184.598 38.7216 184.052 37.8778C183.507 37.0341 183.238 35.9687 183.247 34.6818V15.6591ZM204.673 40.3835C202.653 40.3835 200.914 39.9744 199.457 39.1562C198.008 38.3295 196.892 37.1619 196.108 35.6534C195.324 34.1364 194.931 32.3423 194.931 30.2713C194.931 28.2514 195.324 26.4787 196.108 24.9531C196.892 23.4276 197.995 22.2386 199.419 21.3864C200.85 20.5341 202.529 20.108 204.456 20.108C205.751 20.108 206.957 20.3168 208.074 20.7344C209.199 21.1435 210.179 21.7614 211.014 22.5881C211.858 23.4148 212.514 24.4545 212.983 25.7074C213.451 26.9517 213.686 28.4091 213.686 30.0795V31.5753H197.105V28.2003H208.559C208.559 27.4162 208.389 26.7216 208.048 26.1165C207.707 25.5114 207.234 25.0384 206.629 24.6974C206.032 24.348 205.338 24.1733 204.545 24.1733C203.718 24.1733 202.985 24.3651 202.346 24.7486C201.716 25.1236 201.221 25.6307 200.863 26.2699C200.505 26.9006 200.322 27.6037 200.314 28.3793V31.5881C200.314 32.5597 200.493 33.3991 200.85 34.1065C201.217 34.8139 201.733 35.3594 202.397 35.7429C203.062 36.1264 203.85 36.3182 204.762 36.3182C205.368 36.3182 205.922 36.233 206.424 36.0625C206.927 35.892 207.358 35.6364 207.716 35.2955C208.074 34.9545 208.346 34.5369 208.534 34.0426L213.571 34.375C213.315 35.5852 212.791 36.642 211.998 37.5455C211.214 38.4403 210.2 39.1392 208.956 39.642C207.72 40.1364 206.292 40.3835 204.673 40.3835Z" fill="white"/>
<defs>
<linearGradient id="paint0_linear_1364_227072" x1="30.0901" y1="38.6549" x2="34.8114" y2="22.2102" gradientUnits="userSpaceOnUse">
<stop stop-color="#1724C9"/>
<stop offset="1" stop-color="#1C64F2"/>
</linearGradient>
<linearGradient id="paint1_linear_1364_227072" x1="40.9641" y1="18.6004" x2="28.5447" y2="6.22468" gradientUnits="userSpaceOnUse">
<stop stop-color="#1C64F2"/>
<stop offset="1" stop-color="#0092FF"/>
</linearGradient>
<linearGradient id="paint2_linear_1364_227072" x1="24.2467" y1="10.5317" x2="5.51147" y2="11.7156" gradientUnits="userSpaceOnUse">
<stop stop-color="#0092FF"/>
<stop offset="1" stop-color="#45B2FF"/>
</linearGradient>
<linearGradient id="paint3_linear_1364_227072" x1="22.9796" y1="45.9939" x2="39.8048" y2="41.4538" gradientUnits="userSpaceOnUse">
<stop stop-color="#1C64F2"/>
<stop offset="1" stop-color="#0092FF"/>
</linearGradient>
<linearGradient id="paint4_linear_1364_227072" x1="10.9031" y1="26.5238" x2="22.8486" y2="38.9019" gradientUnits="userSpaceOnUse">
<stop stop-color="#1724C9"/>
<stop offset="1" stop-color="#1C64F2"/>
</linearGradient>
<linearGradient id="paint5_linear_1364_227072" x1="38.1756" y1="35.4534" x2="46.5103" y2="18.6517" gradientUnits="userSpaceOnUse">
<stop stop-color="#0092FF"/>
<stop offset="1" stop-color="#45B2FF"/>
</linearGradient>
<linearGradient id="paint6_linear_1364_227072" x1="8.0458" y1="16.6963" x2="3.5858" y2="33.4596" gradientUnits="userSpaceOnUse">
<stop stop-color="#1C64F2"/>
<stop offset="1" stop-color="#0092FF"/>
</linearGradient>
<linearGradient id="paint7_linear_1364_227072" x1="30.8146" y1="15.8989" x2="14.5165" y2="19.9568" gradientUnits="userSpaceOnUse">
<stop stop-color="#1724C9"/>
<stop offset="1" stop-color="#1C64F2"/>
</linearGradient>
<linearGradient id="paint8_linear_1364_227072" x1="9.61013" y1="35.0349" x2="19.9988" y2="50.6618" gradientUnits="userSpaceOnUse">
<stop stop-color="#0092FF"/>
<stop offset="1" stop-color="#45B2FF"/>
</linearGradient>
</defs>
</svg>
