<svg width="536" height="340" viewBox="0 0 536 340" fill="none" xmlns="http://www.w3.org/2000/svg">
<rect width="536" height="340" fill="white"/>
<rect x="64.5" y="135" width="113" height="10" rx="5" fill="#1C64F2"/>
<rect x="64.5" y="161" width="185" height="8" rx="4" fill="#D1D5DB"/>
<rect x="64.5" y="175" width="215" height="8" rx="4" fill="#D1D5DB"/>
<rect x="64.5" y="199" width="20" height="6" rx="3" fill="#D1D5DB"/>
<rect x="100.5" y="199" width="20" height="6" rx="3" fill="#D1D5DB"/>
<rect x="136.5" y="199" width="20" height="6" rx="3" fill="#D1D5DB"/>
<rect x="172.5" y="199" width="20" height="6" rx="3" fill="#D1D5DB"/>
<rect x="331.5" y="100" width="140" height="140" rx="70" fill="#F3F4F6"/>
<path fill-rule="evenodd" clip-rule="evenodd" d="M410.865 163.242C412.613 163.242 414.03 161.758 414.03 159.928C414.03 158.097 412.613 156.613 410.865 156.613C409.117 156.613 407.7 158.097 407.7 159.928C407.7 161.758 409.117 163.242 410.865 163.242ZM402.105 183.314H383.211C382.434 183.314 381.954 182.466 382.353 181.799L395.171 160.433C395.553 159.795 396.469 159.777 396.867 160.405C398.631 163.18 402.775 169.713 406.313 175.365L410.132 168.961C410.499 168.345 411.362 168.325 411.772 168.923L420.542 181.732C421.001 182.402 420.554 183.319 419.765 183.327L411.251 183.414L402.105 183.314Z" fill="#9CA3AF"/>
</svg>
