<svg width="536" height="340" viewBox="0 0 536 340" fill="none" xmlns="http://www.w3.org/2000/svg">
<rect width="536" height="340" fill="#111928"/>
<rect x="188" y="58" width="160" height="10" rx="5" fill="#6B7280"/>
<rect x="76.5" y="84" width="383" height="8" rx="4" fill="#4B5563"/>
<rect x="113.5" y="98" width="309" height="8" rx="4" fill="#4B5563"/>
<rect x="140" y="130" width="256" height="152" rx="8" fill="#374151"/>
<path fill-rule="evenodd" clip-rule="evenodd" d="M268 223.6C272.668 223.6 277.144 221.746 280.445 218.445C283.746 215.144 285.6 210.668 285.6 206C285.6 201.332 283.746 196.856 280.445 193.555C277.144 190.254 272.668 188.4 268 188.4C263.332 188.4 258.855 190.254 255.555 193.555C252.254 196.856 250.4 201.332 250.4 206C250.4 210.668 252.254 215.144 255.555 218.445C258.855 221.746 263.332 223.6 268 223.6V223.6ZM267.021 199.77C266.69 199.549 266.304 199.422 265.907 199.402C265.509 199.383 265.113 199.472 264.762 199.66C264.411 199.848 264.117 200.128 263.913 200.469C263.708 200.811 263.6 201.202 263.6 201.6V210.4C263.6 210.798 263.708 211.189 263.913 211.531C264.117 211.873 264.411 212.152 264.762 212.34C265.113 212.528 265.509 212.617 265.907 212.598C266.304 212.578 266.69 212.451 267.021 212.23L273.621 207.83C273.922 207.63 274.169 207.357 274.34 207.038C274.511 206.719 274.6 206.362 274.6 206C274.6 205.638 274.511 205.281 274.34 204.962C274.169 204.643 273.922 204.371 273.621 204.17L267.021 199.77V199.77Z" fill="#9CA3AF"/>
</svg>
