<svg width="472" height="218" viewBox="0 0 472 218" fill="none" xmlns="http://www.w3.org/2000/svg">
<rect y="19.5" width="262" height="10" rx="5" fill="#6B7280"/>
<rect y="39.5" width="322" height="10" rx="5" fill="#6B7280"/>
<rect y="65.5" width="320" height="8" rx="4" fill="#4B5563"/>
<rect y="79.5" width="128" height="8" rx="4" fill="#4B5563"/>
<rect y="103.5" width="69" height="16" rx="2" fill="#1A56DB"/>
<rect x="16" y="109.5" width="37" height="4" rx="1" fill="white"/>
<g clip-path="url(#clip0_4385_59410)">
<rect y="151.5" width="62" height="5" rx="2" fill="#6B7280"/>
<rect y="160.5" width="38" height="4" rx="2" fill="#4B5563"/>
<rect y="172.5" width="91" height="4" rx="2" fill="#4B5563"/>
<rect y="180.5" width="101" height="4" rx="2" fill="#4B5563"/>
<rect y="194.5" width="44" height="4" rx="2" fill="#1C64F2"/>
</g>
<g clip-path="url(#clip1_4385_59410)">
<rect x="127.667" y="151.5" width="62" height="5" rx="2" fill="#6B7280"/>
<rect x="127.667" y="160.5" width="38" height="4" rx="2" fill="#4B5563"/>
<rect x="127.667" y="172.5" width="102" height="4" rx="2" fill="#4B5563"/>
<rect x="127.667" y="180.5" width="45" height="4" rx="2" fill="#4B5563"/>
<rect x="127.667" y="194.5" width="35" height="4" rx="2" fill="#1C64F2"/>
</g>
<g clip-path="url(#clip2_4385_59410)">
<rect x="256.333" y="151.5" width="62" height="5" rx="2" fill="#6B7280"/>
<rect x="256.333" y="160.5" width="38" height="4" rx="2" fill="#4B5563"/>
<rect x="256.333" y="172.5" width="101" height="4" rx="2" fill="#4B5563"/>
<rect x="256.333" y="180.5" width="61" height="4" rx="2" fill="#4B5563"/>
<rect x="256.333" y="194.5" width="30" height="4" rx="2" fill="#1C64F2"/>
</g>
<g clip-path="url(#clip3_4385_59410)">
<rect x="384" y="151.5" width="62" height="5" rx="2" fill="#6B7280"/>
<rect x="384" y="160.5" width="38" height="4" rx="2" fill="#4B5563"/>
<rect x="384" y="172.5" width="88" height="4" rx="2" fill="#4B5563"/>
<rect x="384" y="180.5" width="45" height="4" rx="2" fill="#4B5563"/>
<rect x="384" y="194.5" width="37" height="4" rx="2" fill="#1C64F2"/>
</g>
<defs>
<clipPath id="clip0_4385_59410">
<rect width="101" height="47" fill="white" transform="translate(0 151.5)"/>
</clipPath>
<clipPath id="clip1_4385_59410">
<rect width="102" height="47" fill="white" transform="translate(127.667 151.5)"/>
</clipPath>
<clipPath id="clip2_4385_59410">
<rect width="101" height="47" fill="white" transform="translate(256.333 151.5)"/>
</clipPath>
<clipPath id="clip3_4385_59410">
<rect width="88" height="47" fill="white" transform="translate(384 151.5)"/>
</clipPath>
</defs>
</svg>
