<svg width="536" height="340" viewBox="0 0 536 340" fill="none" xmlns="http://www.w3.org/2000/svg">
<rect width="536" height="340" fill="white"/>
<rect x="72" y="42" width="284" height="9" rx="4.5" fill="#6B7280"/>
<rect x="72" y="63" width="230" height="7" rx="3.5" fill="#9CA3AF"/>
<rect x="72" y="76" width="209" height="7" rx="3.5" fill="#9CA3AF"/>
<rect x="72" y="103" width="286" height="5" rx="2.5" fill="#D1D5DB"/>
<rect x="72" y="113" width="275" height="5" rx="2.5" fill="#D1D5DB"/>
<rect x="72" y="123" width="87.3333" height="5" rx="2.5" fill="#D1D5DB"/>
<rect x="171.333" y="123" width="87.3333" height="5" rx="2.5" fill="#E5E7EB"/>
<rect x="270.667" y="123" width="87.3333" height="5" rx="2.5" fill="#D1D5DB"/>
<rect x="72" y="133" width="286" height="5" rx="2.5" fill="#D1D5DB"/>
<rect x="72" y="143" width="241" height="5" rx="2.5" fill="#D1D5DB"/>
<rect x="72" y="153" width="78" height="5" rx="2.5" fill="#D1D5DB"/>
<rect x="162" y="153" width="78" height="5" rx="2.5" fill="#E5E7EB"/>
<rect x="252" y="153" width="107" height="5" rx="2.5" fill="#D1D5DB"/>
<rect x="72" y="163" width="285" height="5" rx="2.5" fill="#D1D5DB"/>
<rect x="72" y="183" width="286" height="5" rx="2.5" fill="#D1D5DB"/>
<rect x="72" y="193" width="275" height="5" rx="2.5" fill="#D1D5DB"/>
<rect x="72" y="203" width="199" height="5" rx="2.5" fill="#D1D5DB"/>
<rect x="283" y="203" width="31.5" height="5" rx="2.5" fill="#E5E7EB"/>
<rect x="326.5" y="203" width="31.5" height="5" rx="2.5" fill="#D1D5DB"/>
<rect x="72" y="213" width="175" height="5" rx="2.5" fill="#E5E7EB"/>
<rect x="259" y="213" width="99" height="5" rx="2.5" fill="#D1D5DB"/>
<rect x="72" y="223" width="282" height="5" rx="2.5" fill="#D1D5DB"/>
<rect x="72" y="233" width="286" height="5" rx="2.5" fill="#D1D5DB"/>
<rect x="72" y="243" width="241" height="5" rx="2.5" fill="#D1D5DB"/>
<rect x="72" y="253" width="199" height="5" rx="2.5" fill="#D1D5DB"/>
<rect x="283" y="253" width="31.5" height="5" rx="2.5" fill="#E5E7EB"/>
<rect x="326.5" y="253" width="31.5" height="5" rx="2.5" fill="#D1D5DB"/>
<rect x="72" y="263" width="78" height="5" rx="2.5" fill="#D1D5DB"/>
<rect x="162" y="263" width="78" height="5" rx="2.5" fill="#E5E7EB"/>
<rect x="252" y="263" width="106" height="5" rx="2.5" fill="#D1D5DB"/>
<rect x="72" y="273" width="276" height="5" rx="2.5" fill="#D1D5DB"/>
<rect x="72" y="283" width="282" height="5" rx="2.5" fill="#D1D5DB"/>
<rect x="72" y="293" width="78" height="5" rx="2.5" fill="#D1D5DB"/>
<rect x="162" y="293" width="78" height="5" rx="2.5" fill="#E5E7EB"/>
<rect x="252" y="293" width="106" height="5" rx="2.5" fill="#D1D5DB"/>
<rect x="384" y="42" width="80" height="59" rx="8" fill="white"/>
<rect x="384" y="42" width="47" height="4" rx="2" fill="#9CA3AF"/>
<rect x="384" y="50" width="78" height="3" rx="1.5" fill="#D1D5DB"/>
<rect x="384" y="56" width="71" height="3" rx="1.5" fill="#D1D5DB"/>
<rect x="384" y="62" width="71" height="3" rx="1.5" fill="#D1D5DB"/>
<rect x="383.5" y="70.5" width="79" height="13" rx="2.5" fill="white"/>
<rect x="383.5" y="70.5" width="79" height="13" rx="2.5" stroke="#D1D5DB"/>
<rect x="389" y="76" width="56" height="2" rx="1" fill="#E5E7EB"/>
<rect x="384" y="90" width="80" height="11" rx="2" fill="#1A56DB"/>
<rect x="400.5" y="94" width="47" height="3" rx="1" fill="white"/>
<rect x="384" y="115" width="71.7043" height="4" rx="2" fill="#9CA3AF"/>
<rect x="384" y="123" width="46.2609" height="3" rx="1.5" fill="#D1D5DB"/>
<rect x="384" y="130" width="80" height="3" rx="1.5" fill="#D1D5DB"/>
<rect x="384" y="137" width="77" height="3" rx="1.5" fill="#D1D5DB"/>
<rect x="384" y="152" width="56" height="4" rx="2" fill="#9CA3AF"/>
<rect x="384" y="160" width="46.2609" height="3" rx="1.5" fill="#D1D5DB"/>
<rect x="384" y="167" width="80" height="3" rx="1.5" fill="#D1D5DB"/>
<rect x="384" y="174" width="77" height="3" rx="1.5" fill="#D1D5DB"/>
<rect x="384" y="181" width="65" height="3" rx="1.5" fill="#D1D5DB"/>
<rect x="384" y="196" width="48" height="4" rx="2" fill="#9CA3AF"/>
<rect x="384" y="204" width="46.2609" height="3" rx="1.5" fill="#D1D5DB"/>
<rect x="384" y="211" width="80" height="3" rx="1.5" fill="#D1D5DB"/>
<rect x="384" y="218" width="77" height="3" rx="1.5" fill="#D1D5DB"/>
<rect x="384" y="225" width="65" height="3" rx="1.5" fill="#D1D5DB"/>
</svg>
