<svg width="536" height="340" viewBox="0 0 536 340" fill="none" xmlns="http://www.w3.org/2000/svg">
<rect width="536" height="340" fill="white"/>
<path d="M60 119.667V106.334M60 119.667C60 120.374 59.719 121.053 59.219 121.553C58.7189 122.053 58.0406 122.334 57.3333 122.334H54.6667C53.9594 122.334 53.2811 122.053 52.781 121.553C52.281 121.053 52 120.374 52 119.667V106.334C52 105.626 52.281 104.948 52.781 104.448C53.2811 103.948 53.9594 103.667 54.6667 103.667H57.3333C58.0406 103.667 58.7189 103.948 59.219 104.448C59.719 104.948 60 105.626 60 106.334M60 119.667C60 120.374 60.281 121.053 60.781 121.553C61.2811 122.053 61.9594 122.334 62.6667 122.334H65.3333C66.0406 122.334 66.7189 122.053 67.219 121.553C67.719 121.053 68 120.374 68 119.667M60 106.334C60 105.626 60.281 104.948 60.781 104.448C61.2811 103.948 61.9594 103.667 62.6667 103.667H65.3333C66.0406 103.667 66.7189 103.948 67.219 104.448C67.719 104.948 68 105.626 68 106.334M68 119.667V106.334M68 119.667C68 120.374 68.281 121.053 68.781 121.553C69.2811 122.053 69.9594 122.334 70.6667 122.334H73.3333C74.0406 122.334 74.7189 122.053 75.219 121.553C75.719 121.053 76 120.374 76 119.667V106.334C76 105.626 75.719 104.948 75.219 104.448C74.7189 103.948 74.0406 103.667 73.3333 103.667H70.6667C69.9594 103.667 69.2811 103.948 68.781 104.448C68.281 104.948 68 105.626 68 106.334" stroke="#9CA3AF" stroke-width="3" stroke-linecap="round" stroke-linejoin="round"/>
<rect x="90" y="106.5" width="84" height="13" rx="4" fill="#D1D5DB"/>
<rect x="48" y="145" width="73" height="8" rx="4" fill="#9CA3AF"/>
<rect x="48" y="159" width="220" height="8" rx="4" fill="#D1D5DB"/>
<rect x="48" y="183" width="99" height="8" rx="4" fill="#9CA3AF"/>
<rect x="48" y="197" width="212" height="8" rx="4" fill="#D1D5DB"/>
<rect x="48" y="221" width="66" height="8" rx="4" fill="#9CA3AF"/>
<rect x="48" y="235" width="212" height="8" rx="4" fill="#D1D5DB"/>
<g filter="url(#filter0_dd_4900_2031)">
<rect x="311" y="93" width="177" height="154" rx="5" fill="#F9FAFB"/>
<rect x="310.75" y="92.75" width="177.5" height="154.5" rx="5.25" stroke="#E5E7EB" stroke-width="0.5"/>
<rect x="335" y="117" width="66" height="6" rx="3" fill="#9CA3AF"/>
<rect x="335" y="139" width="51" height="3" rx="1.5" fill="#D1D5DB"/>
<rect x="334.5" y="149.5" width="130" height="17" rx="4.5" fill="white"/>
<rect x="334.5" y="149.5" width="130" height="17" rx="4.5" stroke="#D1D5DB"/>
<rect x="342" y="157" width="56" height="2" rx="1" fill="#E5E7EB"/>
<rect x="334.5" y="181.5" width="6" height="6" rx="1.5" fill="white"/>
<rect x="334.5" y="181.5" width="6" height="6" rx="1.5" stroke="#D1D5DB"/>
<rect x="345" y="182.5" width="67" height="4" rx="2" fill="#D1D5DB"/>
<rect x="335" y="203" width="129" height="20" rx="3" fill="#1A56DB"/>
<rect x="374.5" y="211" width="50" height="4" rx="1" fill="white"/>
</g>
<defs>
<filter id="filter0_dd_4900_2031" x="307.5" y="90.5" width="184" height="161" filterUnits="userSpaceOnUse" color-interpolation-filters="sRGB">
<feFlood flood-opacity="0" result="BackgroundImageFix"/>
<feColorMatrix in="SourceAlpha" type="matrix" values="0 0 0 0 0 0 0 0 0 0 0 0 0 0 0 0 0 0 127 0" result="hardAlpha"/>
<feOffset dy="1"/>
<feGaussianBlur stdDeviation="1.5"/>
<feColorMatrix type="matrix" values="0 0 0 0 0 0 0 0 0 0 0 0 0 0 0 0 0 0 0.1 0"/>
<feBlend mode="normal" in2="BackgroundImageFix" result="effect1_dropShadow_4900_2031"/>
<feColorMatrix in="SourceAlpha" type="matrix" values="0 0 0 0 0 0 0 0 0 0 0 0 0 0 0 0 0 0 127 0" result="hardAlpha"/>
<feOffset dy="1"/>
<feGaussianBlur stdDeviation="1"/>
<feColorMatrix type="matrix" values="0 0 0 0 0 0 0 0 0 0 0 0 0 0 0 0 0 0 0.06 0"/>
<feBlend mode="normal" in2="effect1_dropShadow_4900_2031" result="effect2_dropShadow_4900_2031"/>
<feBlend mode="normal" in="SourceGraphic" in2="effect2_dropShadow_4900_2031" result="shape"/>
</filter>
</defs>
</svg>
