<svg width="536" height="340" viewBox="0 0 536 340" fill="none" xmlns="http://www.w3.org/2000/svg">
<rect width="536" height="340" fill="#111928"/>
<rect x="131.5" y="60" width="273" height="10" rx="5" fill="#6B7280"/>
<rect x="161" y="86" width="214" height="8" rx="4" fill="#1C64F2"/>
<g clip-path="url(#clip0_4888_1854)">
<rect x="48" y="126" width="130.667" height="105" rx="5" fill="#374151"/>
<path fill-rule="evenodd" clip-rule="evenodd" d="M124.177 170.676C126.201 170.676 127.842 168.958 127.842 166.838C127.842 164.718 126.201 163 124.177 163C122.153 163 120.512 164.718 120.512 166.838C120.512 168.958 122.153 170.676 124.177 170.676ZM114.033 193.916H91.8778C91.1005 193.916 90.6204 193.069 91.0202 192.402L106.136 167.203C106.518 166.566 107.435 166.549 107.833 167.176C109.791 170.257 114.716 178.018 118.906 184.713L123.45 177.092C123.818 176.476 124.681 176.456 125.091 177.054L135.553 192.333C136.012 193.003 135.566 193.921 134.776 193.929L124.624 194.032L114.033 193.916Z" fill="#6B7280"/>
<rect x="48" y="247" width="51" height="5" rx="2" fill="#6B7280"/>
<rect x="48" y="260" width="112" height="4" rx="2" fill="#4B5563"/>
<rect x="48" y="268" width="124" height="4" rx="2" fill="#4B5563"/>
<rect x="48" y="276" width="54" height="4" rx="2" fill="#4B5563"/>
</g>
<g clip-path="url(#clip1_4888_1854)">
<rect x="202.667" y="126" width="130.667" height="105" rx="5" fill="#374151"/>
<path fill-rule="evenodd" clip-rule="evenodd" d="M278.844 170.676C280.868 170.676 282.509 168.958 282.509 166.838C282.509 164.718 280.868 163 278.844 163C276.82 163 275.179 164.718 275.179 166.838C275.179 168.958 276.82 170.676 278.844 170.676ZM268.7 193.916H246.545C245.767 193.916 245.287 193.069 245.687 192.402L260.803 167.203C261.185 166.566 262.101 166.549 262.5 167.176C264.458 170.257 269.383 178.018 273.573 184.713L278.117 177.092C278.485 176.476 279.348 176.456 279.757 177.054L290.22 192.333C290.678 193.003 290.232 193.921 289.443 193.929L279.29 194.032L268.7 193.916Z" fill="#6B7280"/>
<rect x="202.667" y="247" width="70" height="5" rx="2" fill="#6B7280"/>
<rect x="202.667" y="260" width="127" height="4" rx="2" fill="#4B5563"/>
<rect x="202.667" y="268" width="115" height="4" rx="2" fill="#4B5563"/>
<rect x="202.667" y="276" width="122" height="4" rx="2" fill="#4B5563"/>
</g>
<g clip-path="url(#clip2_4888_1854)">
<rect x="357.333" y="126" width="130.667" height="105" rx="5" fill="#374151"/>
<path fill-rule="evenodd" clip-rule="evenodd" d="M433.51 170.676C435.534 170.676 437.175 168.958 437.175 166.838C437.175 164.718 435.534 163 433.51 163C431.486 163 429.845 164.718 429.845 166.838C429.845 168.958 431.486 170.676 433.51 170.676ZM423.367 193.916H401.211C400.434 193.916 399.954 193.069 400.353 192.402L415.469 167.203C415.851 166.566 416.768 166.549 417.166 167.176C419.124 170.257 424.049 178.018 428.239 184.713L432.784 177.092C433.151 176.476 434.014 176.456 434.424 177.054L444.886 192.333C445.345 193.003 444.899 193.921 444.109 193.929L433.957 194.032L423.367 193.916Z" fill="#6B7280"/>
<rect x="357.333" y="247" width="68" height="5" rx="2" fill="#6B7280"/>
<rect x="357.333" y="260" width="120" height="4" rx="2" fill="#4B5563"/>
<rect x="357.333" y="268" width="127" height="4" rx="2" fill="#4B5563"/>
<rect x="357.333" y="276" width="80" height="4" rx="2" fill="#4B5563"/>
</g>
<defs>
<clipPath id="clip0_4888_1854">
<rect width="130.667" height="154" fill="white" transform="translate(48 126)"/>
</clipPath>
<clipPath id="clip1_4888_1854">
<rect width="130.667" height="154" fill="white" transform="translate(202.667 126)"/>
</clipPath>
<clipPath id="clip2_4888_1854">
<rect width="130.667" height="154" fill="white" transform="translate(357.333 126)"/>
</clipPath>
</defs>
</svg>
