<svg width="536" height="340" viewBox="0 0 536 340" fill="none" xmlns="http://www.w3.org/2000/svg">
<rect width="536" height="340" fill="white"/>
<rect x="211.5" y="57" width="113" height="10" rx="5" fill="#9CA3AF"/>
<rect x="162" y="83" width="212" height="8" rx="4" fill="#D1D5DB"/>
<rect x="196.5" y="97" width="143" height="8" rx="4" fill="#D1D5DB"/>
<rect x="48" y="137" width="98" height="146" rx="5" fill="#E5E7EB"/>
<path d="M100.889 207.014C101.921 205.983 102.5 204.584 102.5 203.125C102.5 201.666 101.921 200.267 100.889 199.236C99.8576 198.204 98.4587 197.625 97 197.625C95.5413 197.625 94.1424 198.204 93.1109 199.236C92.0795 200.267 91.5 201.666 91.5 203.125C91.5 204.584 92.0795 205.983 93.1109 207.014C94.1424 208.046 95.5413 208.625 97 208.625C98.4587 208.625 99.8576 208.046 100.889 207.014Z" stroke="#9CA3AF" stroke-width="2" stroke-linecap="round" stroke-linejoin="round"/>
<path d="M90.1941 215.569C91.9991 213.764 94.4473 212.75 97 212.75C99.5527 212.75 102.001 213.764 103.806 215.569C105.611 217.374 106.625 219.822 106.625 222.375H87.375C87.375 219.822 88.3891 217.374 90.1941 215.569Z" stroke="#9CA3AF" stroke-width="2" stroke-linecap="round" stroke-linejoin="round"/>
<rect x="162" y="137" width="98" height="146" rx="5" fill="#E5E7EB"/>
<path d="M214.889 207.014C215.921 205.983 216.5 204.584 216.5 203.125C216.5 201.666 215.921 200.267 214.889 199.236C213.858 198.204 212.459 197.625 211 197.625C209.541 197.625 208.142 198.204 207.111 199.236C206.079 200.267 205.5 201.666 205.5 203.125C205.5 204.584 206.079 205.983 207.111 207.014C208.142 208.046 209.541 208.625 211 208.625C212.459 208.625 213.858 208.046 214.889 207.014Z" stroke="#9CA3AF" stroke-width="2" stroke-linecap="round" stroke-linejoin="round"/>
<path d="M204.194 215.569C205.999 213.764 208.447 212.75 211 212.75C213.553 212.75 216.001 213.764 217.806 215.569C219.611 217.374 220.625 219.822 220.625 222.375H201.375C201.375 219.822 202.389 217.374 204.194 215.569Z" stroke="#9CA3AF" stroke-width="2" stroke-linecap="round" stroke-linejoin="round"/>
<rect x="276" y="137" width="98" height="146" rx="5" fill="#E5E7EB"/>
<path d="M328.889 207.014C329.921 205.983 330.5 204.584 330.5 203.125C330.5 201.666 329.921 200.267 328.889 199.236C327.858 198.204 326.459 197.625 325 197.625C323.541 197.625 322.142 198.204 321.111 199.236C320.079 200.267 319.5 201.666 319.5 203.125C319.5 204.584 320.079 205.983 321.111 207.014C322.142 208.046 323.541 208.625 325 208.625C326.459 208.625 327.858 208.046 328.889 207.014Z" stroke="#9CA3AF" stroke-width="2" stroke-linecap="round" stroke-linejoin="round"/>
<path d="M318.194 215.569C319.999 213.764 322.447 212.75 325 212.75C327.553 212.75 330.001 213.764 331.806 215.569C333.611 217.374 334.625 219.822 334.625 222.375H315.375C315.375 219.822 316.389 217.374 318.194 215.569Z" stroke="#9CA3AF" stroke-width="2" stroke-linecap="round" stroke-linejoin="round"/>
<rect x="390" y="137" width="98" height="146" rx="5" fill="#E5E7EB"/>
<path d="M442.889 207.014C443.921 205.983 444.5 204.584 444.5 203.125C444.5 201.666 443.921 200.267 442.889 199.236C441.858 198.204 440.459 197.625 439 197.625C437.541 197.625 436.142 198.204 435.111 199.236C434.079 200.267 433.5 201.666 433.5 203.125C433.5 204.584 434.079 205.983 435.111 207.014C436.142 208.046 437.541 208.625 439 208.625C440.459 208.625 441.858 208.046 442.889 207.014Z" stroke="#9CA3AF" stroke-width="2" stroke-linecap="round" stroke-linejoin="round"/>
<path d="M432.194 215.569C433.999 213.764 436.447 212.75 439 212.75C441.553 212.75 444.001 213.764 445.806 215.569C447.611 217.374 448.625 219.822 448.625 222.375H429.375C429.375 219.822 430.389 217.374 432.194 215.569Z" stroke="#9CA3AF" stroke-width="2" stroke-linecap="round" stroke-linejoin="round"/>
</svg>
