<svg width="536" height="340" viewBox="0 0 536 340" fill="none" xmlns="http://www.w3.org/2000/svg">
<rect width="536" height="340" fill="white"/>
<rect x="211.5" y="62.5" width="113" height="10" rx="5" fill="#9CA3AF"/>
<rect x="162" y="88.5" width="212" height="8" rx="4" fill="#D1D5DB"/>
<rect x="196.5" y="102.5" width="143" height="8" rx="4" fill="#D1D5DB"/>
<rect x="48.5" y="143" width="100" height="134" rx="4.5" fill="#F9FAFB"/>
<rect x="48.5" y="143" width="100" height="134" rx="4.5" stroke="#E5E7EB"/>
<rect x="56" y="150.5" width="85" height="48" rx="5" fill="#E5E7EB"/>
<path d="M102.389 171.514C103.421 170.483 104 169.084 104 167.625C104 166.166 103.421 164.767 102.389 163.736C101.358 162.704 99.9587 162.125 98.5 162.125C97.0413 162.125 95.6424 162.704 94.6109 163.736C93.5795 164.767 93 166.166 93 167.625C93 169.084 93.5795 170.483 94.6109 171.514C95.6424 172.546 97.0413 173.125 98.5 173.125C99.9587 173.125 101.358 172.546 102.389 171.514Z" stroke="#9CA3AF" stroke-width="2" stroke-linecap="round" stroke-linejoin="round"/>
<path d="M91.6941 180.069C93.4991 178.264 95.9473 177.25 98.5 177.25C101.053 177.25 103.501 178.264 105.306 180.069C107.111 181.874 108.125 184.322 108.125 186.875H88.875C88.875 184.322 89.8891 181.874 91.6941 180.069Z" stroke="#9CA3AF" stroke-width="2" stroke-linecap="round" stroke-linejoin="round"/>
<rect x="56" y="208.5" width="51" height="5" rx="2" fill="#9CA3AF"/>
<rect x="56" y="217.5" width="35" height="4" rx="2" fill="#D1D5DB"/>
<rect x="56" y="229.5" width="88" height="4" rx="2" fill="#D1D5DB"/>
<rect x="56" y="237.5" width="79" height="4" rx="2" fill="#D1D5DB"/>
<rect x="56" y="245.5" width="83" height="4" rx="2" fill="#D1D5DB"/>
<path d="M62.6813 264.969L62.8864 263.621H61.5827V262.742C61.5827 262.361 61.7585 262.01 62.3444 262.01H62.945V260.853C62.945 260.853 62.403 260.75 61.8903 260.75C60.821 260.75 60.1178 261.409 60.1178 262.581V263.621H58.9167V264.969H60.1178V268.25H61.5827V264.969H62.6813Z" fill="#6B7280"/>
<path d="M77.9736 263.092C78.2666 262.872 78.5303 262.609 78.7354 262.301C78.4717 262.418 78.1641 262.506 77.8564 262.535C78.1787 262.345 78.4131 262.052 78.5303 261.686C78.2373 261.862 77.9004 261.993 77.5635 262.067C77.2705 261.759 76.875 261.583 76.4355 261.583C75.5859 261.583 74.8975 262.272 74.8975 263.121C74.8975 263.239 74.9121 263.356 74.9414 263.473C73.667 263.4 72.5244 262.784 71.7627 261.862C71.6309 262.081 71.5576 262.345 71.5576 262.638C71.5576 263.165 71.8213 263.634 72.2461 263.912C71.9971 263.898 71.748 263.839 71.543 263.722V263.737C71.543 264.484 72.0703 265.099 72.7734 265.245C72.6562 265.275 72.5098 265.304 72.3779 265.304C72.2754 265.304 72.1875 265.289 72.085 265.275C72.2754 265.89 72.8467 266.329 73.5205 266.344C72.9932 266.754 72.334 267.003 71.6162 267.003C71.4844 267.003 71.3672 266.989 71.25 266.974C71.9238 267.413 72.7295 267.662 73.6084 267.662C76.4355 267.662 77.9736 265.333 77.9736 263.297C77.9736 263.224 77.9736 263.165 77.9736 263.092Z" fill="#6B7280"/>
<path d="M88.8828 260.75C86.876 260.75 85.25 262.391 85.25 264.383C85.25 266.39 86.876 268.016 88.8828 268.016C90.875 268.016 92.5156 266.39 92.5156 264.383C92.5156 262.391 90.875 260.75 88.8828 260.75ZM91.2705 262.435C91.71 262.962 91.9736 263.636 91.9736 264.368C91.8711 264.339 90.8457 264.134 89.8203 264.266C89.7324 264.061 89.6592 263.885 89.542 263.65C90.6992 263.182 91.2119 262.522 91.2705 262.435ZM90.9336 262.068C90.875 262.156 90.4062 262.786 89.3076 263.196C88.7949 262.259 88.2383 261.497 88.1504 261.38C89.1318 261.146 90.1719 261.395 90.9336 262.068ZM87.5498 261.585C87.6377 261.702 88.1943 262.464 88.707 263.387C87.2568 263.768 85.9824 263.768 85.8359 263.753C86.041 262.801 86.6855 261.995 87.5498 261.585ZM85.7773 264.397C85.7773 264.368 85.7773 264.339 85.7773 264.295C85.9092 264.31 87.418 264.324 88.9561 263.855C89.0586 264.031 89.1318 264.207 89.2197 264.383C88.0918 264.705 87.0664 265.613 86.5684 266.463C86.0703 265.921 85.7773 265.188 85.7773 264.397ZM86.9639 266.844C87.3008 266.185 88.1797 265.32 89.4248 264.896C89.8643 266.023 90.04 266.976 90.084 267.254C89.0879 267.679 87.8867 267.562 86.9639 266.844ZM90.6113 266.961C90.582 266.785 90.4062 265.877 90.0107 264.749C90.9775 264.603 91.8271 264.852 91.9443 264.881C91.7979 265.745 91.2998 266.492 90.6113 266.961Z" fill="#6B7280"/>
<path d="M101.667 266.463C101.667 266.434 101.638 266.404 101.594 266.404C101.55 266.404 101.521 266.434 101.521 266.463C101.521 266.492 101.55 266.521 101.594 266.507C101.638 266.507 101.667 266.492 101.667 266.463ZM101.213 266.39C101.213 266.419 101.242 266.463 101.286 266.463C101.315 266.478 101.359 266.463 101.374 266.434C101.374 266.404 101.359 266.375 101.315 266.36C101.271 266.346 101.228 266.36 101.213 266.39ZM101.872 266.375C101.828 266.375 101.799 266.404 101.799 266.448C101.799 266.478 101.843 266.492 101.887 266.478C101.931 266.463 101.96 266.448 101.945 266.419C101.945 266.39 101.901 266.36 101.872 266.375ZM102.824 260.75C100.803 260.75 99.25 262.303 99.25 264.324C99.25 265.95 100.261 267.342 101.726 267.84C101.916 267.869 101.975 267.752 101.975 267.664C101.975 267.562 101.975 267.063 101.975 266.756C101.975 266.756 100.949 266.976 100.729 266.316C100.729 266.316 100.568 265.892 100.334 265.789C100.334 265.789 99.9971 265.555 100.349 265.555C100.349 265.555 100.715 265.584 100.92 265.936C101.242 266.507 101.77 266.346 101.989 266.243C102.019 266.009 102.106 265.848 102.224 265.745C101.403 265.657 100.568 265.54 100.568 264.134C100.568 263.724 100.686 263.533 100.92 263.27C100.876 263.167 100.759 262.786 100.964 262.273C101.257 262.186 101.975 262.669 101.975 262.669C102.268 262.581 102.575 262.552 102.883 262.552C103.205 262.552 103.513 262.581 103.806 262.669C103.806 262.669 104.509 262.171 104.816 262.273C105.021 262.786 104.89 263.167 104.86 263.27C105.095 263.533 105.241 263.724 105.241 264.134C105.241 265.54 104.377 265.657 103.557 265.745C103.688 265.862 103.806 266.082 103.806 266.434C103.806 266.917 103.791 267.532 103.791 267.649C103.791 267.752 103.864 267.869 104.055 267.825C105.52 267.342 106.516 265.95 106.516 264.324C106.516 262.303 104.86 260.75 102.824 260.75ZM100.671 265.804C100.642 265.818 100.656 265.862 100.671 265.892C100.7 265.906 100.729 265.921 100.759 265.906C100.773 265.892 100.773 265.848 100.744 265.818C100.715 265.804 100.686 265.789 100.671 265.804ZM100.51 265.687C100.495 265.716 100.51 265.73 100.539 265.745C100.568 265.76 100.598 265.76 100.612 265.73C100.612 265.716 100.598 265.701 100.568 265.687C100.539 265.672 100.524 265.672 100.51 265.687ZM100.979 266.214C100.964 266.229 100.964 266.272 101.008 266.302C101.037 266.331 101.081 266.346 101.096 266.316C101.11 266.302 101.11 266.258 101.081 266.229C101.052 266.199 101.008 266.185 100.979 266.214ZM100.817 265.994C100.788 266.009 100.788 266.053 100.817 266.082C100.847 266.111 100.876 266.126 100.905 266.111C100.92 266.097 100.92 266.053 100.905 266.023C100.876 265.994 100.847 265.979 100.817 265.994Z" fill="#6B7280"/>
<rect x="161.5" y="143" width="100" height="134" rx="4.5" fill="#F9FAFB"/>
<rect x="161.5" y="143" width="100" height="134" rx="4.5" stroke="#E5E7EB"/>
<rect x="169" y="150.5" width="85" height="48" rx="5" fill="#E5E7EB"/>
<path d="M215.389 171.514C216.421 170.483 217 169.084 217 167.625C217 166.166 216.421 164.767 215.389 163.736C214.358 162.704 212.959 162.125 211.5 162.125C210.041 162.125 208.642 162.704 207.611 163.736C206.579 164.767 206 166.166 206 167.625C206 169.084 206.579 170.483 207.611 171.514C208.642 172.546 210.041 173.125 211.5 173.125C212.959 173.125 214.358 172.546 215.389 171.514Z" stroke="#9CA3AF" stroke-width="2" stroke-linecap="round" stroke-linejoin="round"/>
<path d="M204.694 180.069C206.499 178.264 208.947 177.25 211.5 177.25C214.053 177.25 216.501 178.264 218.306 180.069C220.111 181.874 221.125 184.322 221.125 186.875H201.875C201.875 184.322 202.889 181.874 204.694 180.069Z" stroke="#9CA3AF" stroke-width="2" stroke-linecap="round" stroke-linejoin="round"/>
<rect x="169" y="208.5" width="51" height="5" rx="2" fill="#9CA3AF"/>
<rect x="169" y="217.5" width="35" height="4" rx="2" fill="#D1D5DB"/>
<rect x="169" y="229.5" width="88" height="4" rx="2" fill="#D1D5DB"/>
<rect x="169" y="237.5" width="79" height="4" rx="2" fill="#D1D5DB"/>
<rect x="169" y="245.5" width="83" height="4" rx="2" fill="#D1D5DB"/>
<path d="M175.681 264.969L175.886 263.621H174.583V262.742C174.583 262.361 174.758 262.01 175.344 262.01H175.945V260.853C175.945 260.853 175.403 260.75 174.89 260.75C173.821 260.75 173.118 261.409 173.118 262.581V263.621H171.917V264.969H173.118V268.25H174.583V264.969H175.681Z" fill="#6B7280"/>
<path d="M190.974 263.092C191.267 262.872 191.53 262.609 191.735 262.301C191.472 262.418 191.164 262.506 190.856 262.535C191.179 262.345 191.413 262.052 191.53 261.686C191.237 261.862 190.9 261.993 190.563 262.067C190.271 261.759 189.875 261.583 189.436 261.583C188.586 261.583 187.897 262.272 187.897 263.121C187.897 263.239 187.912 263.356 187.941 263.473C186.667 263.4 185.524 262.784 184.763 261.862C184.631 262.081 184.558 262.345 184.558 262.638C184.558 263.165 184.821 263.634 185.246 263.912C184.997 263.898 184.748 263.839 184.543 263.722V263.737C184.543 264.484 185.07 265.099 185.773 265.245C185.656 265.275 185.51 265.304 185.378 265.304C185.275 265.304 185.187 265.289 185.085 265.275C185.275 265.89 185.847 266.329 186.521 266.344C185.993 266.754 185.334 267.003 184.616 267.003C184.484 267.003 184.367 266.989 184.25 266.974C184.924 267.413 185.729 267.662 186.608 267.662C189.436 267.662 190.974 265.333 190.974 263.297C190.974 263.224 190.974 263.165 190.974 263.092Z" fill="#6B7280"/>
<path d="M201.883 260.75C199.876 260.75 198.25 262.391 198.25 264.383C198.25 266.39 199.876 268.016 201.883 268.016C203.875 268.016 205.516 266.39 205.516 264.383C205.516 262.391 203.875 260.75 201.883 260.75ZM204.271 262.435C204.71 262.962 204.974 263.636 204.974 264.368C204.871 264.339 203.846 264.134 202.82 264.266C202.732 264.061 202.659 263.885 202.542 263.65C203.699 263.182 204.212 262.522 204.271 262.435ZM203.934 262.068C203.875 262.156 203.406 262.786 202.308 263.196C201.795 262.259 201.238 261.497 201.15 261.38C202.132 261.146 203.172 261.395 203.934 262.068ZM200.55 261.585C200.638 261.702 201.194 262.464 201.707 263.387C200.257 263.768 198.982 263.768 198.836 263.753C199.041 262.801 199.686 261.995 200.55 261.585ZM198.777 264.397C198.777 264.368 198.777 264.339 198.777 264.295C198.909 264.31 200.418 264.324 201.956 263.855C202.059 264.031 202.132 264.207 202.22 264.383C201.092 264.705 200.066 265.613 199.568 266.463C199.07 265.921 198.777 265.188 198.777 264.397ZM199.964 266.844C200.301 266.185 201.18 265.32 202.425 264.896C202.864 266.023 203.04 266.976 203.084 267.254C202.088 267.679 200.887 267.562 199.964 266.844ZM203.611 266.961C203.582 266.785 203.406 265.877 203.011 264.749C203.978 264.603 204.827 264.852 204.944 264.881C204.798 265.745 204.3 266.492 203.611 266.961Z" fill="#6B7280"/>
<path d="M214.667 266.463C214.667 266.434 214.638 266.404 214.594 266.404C214.55 266.404 214.521 266.434 214.521 266.463C214.521 266.492 214.55 266.521 214.594 266.507C214.638 266.507 214.667 266.492 214.667 266.463ZM214.213 266.39C214.213 266.419 214.242 266.463 214.286 266.463C214.315 266.478 214.359 266.463 214.374 266.434C214.374 266.404 214.359 266.375 214.315 266.36C214.271 266.346 214.228 266.36 214.213 266.39ZM214.872 266.375C214.828 266.375 214.799 266.404 214.799 266.448C214.799 266.478 214.843 266.492 214.887 266.478C214.931 266.463 214.96 266.448 214.945 266.419C214.945 266.39 214.901 266.36 214.872 266.375ZM215.824 260.75C213.803 260.75 212.25 262.303 212.25 264.324C212.25 265.95 213.261 267.342 214.726 267.84C214.916 267.869 214.975 267.752 214.975 267.664C214.975 267.562 214.975 267.063 214.975 266.756C214.975 266.756 213.949 266.976 213.729 266.316C213.729 266.316 213.568 265.892 213.334 265.789C213.334 265.789 212.997 265.555 213.349 265.555C213.349 265.555 213.715 265.584 213.92 265.936C214.242 266.507 214.77 266.346 214.989 266.243C215.019 266.009 215.106 265.848 215.224 265.745C214.403 265.657 213.568 265.54 213.568 264.134C213.568 263.724 213.686 263.533 213.92 263.27C213.876 263.167 213.759 262.786 213.964 262.273C214.257 262.186 214.975 262.669 214.975 262.669C215.268 262.581 215.575 262.552 215.883 262.552C216.205 262.552 216.513 262.581 216.806 262.669C216.806 262.669 217.509 262.171 217.816 262.273C218.021 262.786 217.89 263.167 217.86 263.27C218.095 263.533 218.241 263.724 218.241 264.134C218.241 265.54 217.377 265.657 216.557 265.745C216.688 265.862 216.806 266.082 216.806 266.434C216.806 266.917 216.791 267.532 216.791 267.649C216.791 267.752 216.864 267.869 217.055 267.825C218.52 267.342 219.516 265.95 219.516 264.324C219.516 262.303 217.86 260.75 215.824 260.75ZM213.671 265.804C213.642 265.818 213.656 265.862 213.671 265.892C213.7 265.906 213.729 265.921 213.759 265.906C213.773 265.892 213.773 265.848 213.744 265.818C213.715 265.804 213.686 265.789 213.671 265.804ZM213.51 265.687C213.495 265.716 213.51 265.73 213.539 265.745C213.568 265.76 213.598 265.76 213.612 265.73C213.612 265.716 213.598 265.701 213.568 265.687C213.539 265.672 213.524 265.672 213.51 265.687ZM213.979 266.214C213.964 266.229 213.964 266.272 214.008 266.302C214.037 266.331 214.081 266.346 214.096 266.316C214.11 266.302 214.11 266.258 214.081 266.229C214.052 266.199 214.008 266.185 213.979 266.214ZM213.817 265.994C213.788 266.009 213.788 266.053 213.817 266.082C213.847 266.111 213.876 266.126 213.905 266.111C213.92 266.097 213.92 266.053 213.905 266.023C213.876 265.994 213.847 265.979 213.817 265.994Z" fill="#6B7280"/>
<rect x="274.5" y="143" width="100" height="134" rx="4.5" fill="#F9FAFB"/>
<rect x="274.5" y="143" width="100" height="134" rx="4.5" stroke="#E5E7EB"/>
<rect x="282" y="150.5" width="85" height="48" rx="5" fill="#E5E7EB"/>
<path d="M328.389 171.514C329.421 170.483 330 169.084 330 167.625C330 166.166 329.421 164.767 328.389 163.736C327.358 162.704 325.959 162.125 324.5 162.125C323.041 162.125 321.642 162.704 320.611 163.736C319.579 164.767 319 166.166 319 167.625C319 169.084 319.579 170.483 320.611 171.514C321.642 172.546 323.041 173.125 324.5 173.125C325.959 173.125 327.358 172.546 328.389 171.514Z" stroke="#9CA3AF" stroke-width="2" stroke-linecap="round" stroke-linejoin="round"/>
<path d="M317.694 180.069C319.499 178.264 321.947 177.25 324.5 177.25C327.053 177.25 329.501 178.264 331.306 180.069C333.111 181.874 334.125 184.322 334.125 186.875H314.875C314.875 184.322 315.889 181.874 317.694 180.069Z" stroke="#9CA3AF" stroke-width="2" stroke-linecap="round" stroke-linejoin="round"/>
<rect x="282" y="208.5" width="51" height="5" rx="2" fill="#9CA3AF"/>
<rect x="282" y="217.5" width="35" height="4" rx="2" fill="#D1D5DB"/>
<rect x="282" y="229.5" width="88" height="4" rx="2" fill="#D1D5DB"/>
<rect x="282" y="237.5" width="79" height="4" rx="2" fill="#D1D5DB"/>
<rect x="282" y="245.5" width="83" height="4" rx="2" fill="#D1D5DB"/>
<path d="M288.681 264.969L288.886 263.621H287.583V262.742C287.583 262.361 287.758 262.01 288.344 262.01H288.945V260.853C288.945 260.853 288.403 260.75 287.89 260.75C286.821 260.75 286.118 261.409 286.118 262.581V263.621H284.917V264.969H286.118V268.25H287.583V264.969H288.681Z" fill="#6B7280"/>
<path d="M303.974 263.092C304.267 262.872 304.53 262.609 304.735 262.301C304.472 262.418 304.164 262.506 303.856 262.535C304.179 262.345 304.413 262.052 304.53 261.686C304.237 261.862 303.9 261.993 303.563 262.067C303.271 261.759 302.875 261.583 302.436 261.583C301.586 261.583 300.897 262.272 300.897 263.121C300.897 263.239 300.912 263.356 300.941 263.473C299.667 263.4 298.524 262.784 297.763 261.862C297.631 262.081 297.558 262.345 297.558 262.638C297.558 263.165 297.821 263.634 298.246 263.912C297.997 263.898 297.748 263.839 297.543 263.722V263.737C297.543 264.484 298.07 265.099 298.773 265.245C298.656 265.275 298.51 265.304 298.378 265.304C298.275 265.304 298.187 265.289 298.085 265.275C298.275 265.89 298.847 266.329 299.521 266.344C298.993 266.754 298.334 267.003 297.616 267.003C297.484 267.003 297.367 266.989 297.25 266.974C297.924 267.413 298.729 267.662 299.608 267.662C302.436 267.662 303.974 265.333 303.974 263.297C303.974 263.224 303.974 263.165 303.974 263.092Z" fill="#6B7280"/>
<path d="M314.883 260.75C312.876 260.75 311.25 262.391 311.25 264.383C311.25 266.39 312.876 268.016 314.883 268.016C316.875 268.016 318.516 266.39 318.516 264.383C318.516 262.391 316.875 260.75 314.883 260.75ZM317.271 262.435C317.71 262.962 317.974 263.636 317.974 264.368C317.871 264.339 316.846 264.134 315.82 264.266C315.732 264.061 315.659 263.885 315.542 263.65C316.699 263.182 317.212 262.522 317.271 262.435ZM316.934 262.068C316.875 262.156 316.406 262.786 315.308 263.196C314.795 262.259 314.238 261.497 314.15 261.38C315.132 261.146 316.172 261.395 316.934 262.068ZM313.55 261.585C313.638 261.702 314.194 262.464 314.707 263.387C313.257 263.768 311.982 263.768 311.836 263.753C312.041 262.801 312.686 261.995 313.55 261.585ZM311.777 264.397C311.777 264.368 311.777 264.339 311.777 264.295C311.909 264.31 313.418 264.324 314.956 263.855C315.059 264.031 315.132 264.207 315.22 264.383C314.092 264.705 313.066 265.613 312.568 266.463C312.07 265.921 311.777 265.188 311.777 264.397ZM312.964 266.844C313.301 266.185 314.18 265.32 315.425 264.896C315.864 266.023 316.04 266.976 316.084 267.254C315.088 267.679 313.887 267.562 312.964 266.844ZM316.611 266.961C316.582 266.785 316.406 265.877 316.011 264.749C316.978 264.603 317.827 264.852 317.944 264.881C317.798 265.745 317.3 266.492 316.611 266.961Z" fill="#6B7280"/>
<path d="M327.667 266.463C327.667 266.434 327.638 266.404 327.594 266.404C327.55 266.404 327.521 266.434 327.521 266.463C327.521 266.492 327.55 266.521 327.594 266.507C327.638 266.507 327.667 266.492 327.667 266.463ZM327.213 266.39C327.213 266.419 327.242 266.463 327.286 266.463C327.315 266.478 327.359 266.463 327.374 266.434C327.374 266.404 327.359 266.375 327.315 266.36C327.271 266.346 327.228 266.36 327.213 266.39ZM327.872 266.375C327.828 266.375 327.799 266.404 327.799 266.448C327.799 266.478 327.843 266.492 327.887 266.478C327.931 266.463 327.96 266.448 327.945 266.419C327.945 266.39 327.901 266.36 327.872 266.375ZM328.824 260.75C326.803 260.75 325.25 262.303 325.25 264.324C325.25 265.95 326.261 267.342 327.726 267.84C327.916 267.869 327.975 267.752 327.975 267.664C327.975 267.562 327.975 267.063 327.975 266.756C327.975 266.756 326.949 266.976 326.729 266.316C326.729 266.316 326.568 265.892 326.334 265.789C326.334 265.789 325.997 265.555 326.349 265.555C326.349 265.555 326.715 265.584 326.92 265.936C327.242 266.507 327.77 266.346 327.989 266.243C328.019 266.009 328.106 265.848 328.224 265.745C327.403 265.657 326.568 265.54 326.568 264.134C326.568 263.724 326.686 263.533 326.92 263.27C326.876 263.167 326.759 262.786 326.964 262.273C327.257 262.186 327.975 262.669 327.975 262.669C328.268 262.581 328.575 262.552 328.883 262.552C329.205 262.552 329.513 262.581 329.806 262.669C329.806 262.669 330.509 262.171 330.816 262.273C331.021 262.786 330.89 263.167 330.86 263.27C331.095 263.533 331.241 263.724 331.241 264.134C331.241 265.54 330.377 265.657 329.557 265.745C329.688 265.862 329.806 266.082 329.806 266.434C329.806 266.917 329.791 267.532 329.791 267.649C329.791 267.752 329.864 267.869 330.055 267.825C331.52 267.342 332.516 265.95 332.516 264.324C332.516 262.303 330.86 260.75 328.824 260.75ZM326.671 265.804C326.642 265.818 326.656 265.862 326.671 265.892C326.7 265.906 326.729 265.921 326.759 265.906C326.773 265.892 326.773 265.848 326.744 265.818C326.715 265.804 326.686 265.789 326.671 265.804ZM326.51 265.687C326.495 265.716 326.51 265.73 326.539 265.745C326.568 265.76 326.598 265.76 326.612 265.73C326.612 265.716 326.598 265.701 326.568 265.687C326.539 265.672 326.524 265.672 326.51 265.687ZM326.979 266.214C326.964 266.229 326.964 266.272 327.008 266.302C327.037 266.331 327.081 266.346 327.096 266.316C327.11 266.302 327.11 266.258 327.081 266.229C327.052 266.199 327.008 266.185 326.979 266.214ZM326.817 265.994C326.788 266.009 326.788 266.053 326.817 266.082C326.847 266.111 326.876 266.126 326.905 266.111C326.92 266.097 326.92 266.053 326.905 266.023C326.876 265.994 326.847 265.979 326.817 265.994Z" fill="#6B7280"/>
<rect x="387.5" y="143" width="100" height="134" rx="4.5" fill="#F9FAFB"/>
<rect x="387.5" y="143" width="100" height="134" rx="4.5" stroke="#E5E7EB"/>
<rect x="395" y="150.5" width="85" height="48" rx="5" fill="#E5E7EB"/>
<path d="M441.389 171.514C442.421 170.483 443 169.084 443 167.625C443 166.166 442.421 164.767 441.389 163.736C440.358 162.704 438.959 162.125 437.5 162.125C436.041 162.125 434.642 162.704 433.611 163.736C432.579 164.767 432 166.166 432 167.625C432 169.084 432.579 170.483 433.611 171.514C434.642 172.546 436.041 173.125 437.5 173.125C438.959 173.125 440.358 172.546 441.389 171.514Z" stroke="#9CA3AF" stroke-width="2" stroke-linecap="round" stroke-linejoin="round"/>
<path d="M430.694 180.069C432.499 178.264 434.947 177.25 437.5 177.25C440.053 177.25 442.501 178.264 444.306 180.069C446.111 181.874 447.125 184.322 447.125 186.875H427.875C427.875 184.322 428.889 181.874 430.694 180.069Z" stroke="#9CA3AF" stroke-width="2" stroke-linecap="round" stroke-linejoin="round"/>
<rect x="395" y="208.5" width="51" height="5" rx="2" fill="#9CA3AF"/>
<rect x="395" y="217.5" width="35" height="4" rx="2" fill="#D1D5DB"/>
<rect x="395" y="229.5" width="88" height="4" rx="2" fill="#D1D5DB"/>
<rect x="395" y="237.5" width="79" height="4" rx="2" fill="#D1D5DB"/>
<rect x="395" y="245.5" width="83" height="4" rx="2" fill="#D1D5DB"/>
<path d="M401.681 264.969L401.886 263.621H400.583V262.742C400.583 262.361 400.758 262.01 401.344 262.01H401.945V260.853C401.945 260.853 401.403 260.75 400.89 260.75C399.821 260.75 399.118 261.409 399.118 262.581V263.621H397.917V264.969H399.118V268.25H400.583V264.969H401.681Z" fill="#6B7280"/>
<path d="M416.974 263.092C417.267 262.872 417.53 262.609 417.735 262.301C417.472 262.418 417.164 262.506 416.856 262.535C417.179 262.345 417.413 262.052 417.53 261.686C417.237 261.862 416.9 261.993 416.563 262.067C416.271 261.759 415.875 261.583 415.436 261.583C414.586 261.583 413.897 262.272 413.897 263.121C413.897 263.239 413.912 263.356 413.941 263.473C412.667 263.4 411.524 262.784 410.763 261.862C410.631 262.081 410.558 262.345 410.558 262.638C410.558 263.165 410.821 263.634 411.246 263.912C410.997 263.898 410.748 263.839 410.543 263.722V263.737C410.543 264.484 411.07 265.099 411.773 265.245C411.656 265.275 411.51 265.304 411.378 265.304C411.275 265.304 411.187 265.289 411.085 265.275C411.275 265.89 411.847 266.329 412.521 266.344C411.993 266.754 411.334 267.003 410.616 267.003C410.484 267.003 410.367 266.989 410.25 266.974C410.924 267.413 411.729 267.662 412.608 267.662C415.436 267.662 416.974 265.333 416.974 263.297C416.974 263.224 416.974 263.165 416.974 263.092Z" fill="#6B7280"/>
<path d="M427.883 260.75C425.876 260.75 424.25 262.391 424.25 264.383C424.25 266.39 425.876 268.016 427.883 268.016C429.875 268.016 431.516 266.39 431.516 264.383C431.516 262.391 429.875 260.75 427.883 260.75ZM430.271 262.435C430.71 262.962 430.974 263.636 430.974 264.368C430.871 264.339 429.846 264.134 428.82 264.266C428.732 264.061 428.659 263.885 428.542 263.65C429.699 263.182 430.212 262.522 430.271 262.435ZM429.934 262.068C429.875 262.156 429.406 262.786 428.308 263.196C427.795 262.259 427.238 261.497 427.15 261.38C428.132 261.146 429.172 261.395 429.934 262.068ZM426.55 261.585C426.638 261.702 427.194 262.464 427.707 263.387C426.257 263.768 424.982 263.768 424.836 263.753C425.041 262.801 425.686 261.995 426.55 261.585ZM424.777 264.397C424.777 264.368 424.777 264.339 424.777 264.295C424.909 264.31 426.418 264.324 427.956 263.855C428.059 264.031 428.132 264.207 428.22 264.383C427.092 264.705 426.066 265.613 425.568 266.463C425.07 265.921 424.777 265.188 424.777 264.397ZM425.964 266.844C426.301 266.185 427.18 265.32 428.425 264.896C428.864 266.023 429.04 266.976 429.084 267.254C428.088 267.679 426.887 267.562 425.964 266.844ZM429.611 266.961C429.582 266.785 429.406 265.877 429.011 264.749C429.978 264.603 430.827 264.852 430.944 264.881C430.798 265.745 430.3 266.492 429.611 266.961Z" fill="#6B7280"/>
<path d="M440.667 266.463C440.667 266.434 440.638 266.404 440.594 266.404C440.55 266.404 440.521 266.434 440.521 266.463C440.521 266.492 440.55 266.521 440.594 266.507C440.638 266.507 440.667 266.492 440.667 266.463ZM440.213 266.39C440.213 266.419 440.242 266.463 440.286 266.463C440.315 266.478 440.359 266.463 440.374 266.434C440.374 266.404 440.359 266.375 440.315 266.36C440.271 266.346 440.228 266.36 440.213 266.39ZM440.872 266.375C440.828 266.375 440.799 266.404 440.799 266.448C440.799 266.478 440.843 266.492 440.887 266.478C440.931 266.463 440.96 266.448 440.945 266.419C440.945 266.39 440.901 266.36 440.872 266.375ZM441.824 260.75C439.803 260.75 438.25 262.303 438.25 264.324C438.25 265.95 439.261 267.342 440.726 267.84C440.916 267.869 440.975 267.752 440.975 267.664C440.975 267.562 440.975 267.063 440.975 266.756C440.975 266.756 439.949 266.976 439.729 266.316C439.729 266.316 439.568 265.892 439.334 265.789C439.334 265.789 438.997 265.555 439.349 265.555C439.349 265.555 439.715 265.584 439.92 265.936C440.242 266.507 440.77 266.346 440.989 266.243C441.019 266.009 441.106 265.848 441.224 265.745C440.403 265.657 439.568 265.54 439.568 264.134C439.568 263.724 439.686 263.533 439.92 263.27C439.876 263.167 439.759 262.786 439.964 262.273C440.257 262.186 440.975 262.669 440.975 262.669C441.268 262.581 441.575 262.552 441.883 262.552C442.205 262.552 442.513 262.581 442.806 262.669C442.806 262.669 443.509 262.171 443.816 262.273C444.021 262.786 443.89 263.167 443.86 263.27C444.095 263.533 444.241 263.724 444.241 264.134C444.241 265.54 443.377 265.657 442.557 265.745C442.688 265.862 442.806 266.082 442.806 266.434C442.806 266.917 442.791 267.532 442.791 267.649C442.791 267.752 442.864 267.869 443.055 267.825C444.52 267.342 445.516 265.95 445.516 264.324C445.516 262.303 443.86 260.75 441.824 260.75ZM439.671 265.804C439.642 265.818 439.656 265.862 439.671 265.892C439.7 265.906 439.729 265.921 439.759 265.906C439.773 265.892 439.773 265.848 439.744 265.818C439.715 265.804 439.686 265.789 439.671 265.804ZM439.51 265.687C439.495 265.716 439.51 265.73 439.539 265.745C439.568 265.76 439.598 265.76 439.612 265.73C439.612 265.716 439.598 265.701 439.568 265.687C439.539 265.672 439.524 265.672 439.51 265.687ZM439.979 266.214C439.964 266.229 439.964 266.272 440.008 266.302C440.037 266.331 440.081 266.346 440.096 266.316C440.11 266.302 440.11 266.258 440.081 266.229C440.052 266.199 440.008 266.185 439.979 266.214ZM439.817 265.994C439.788 266.009 439.788 266.053 439.817 266.082C439.847 266.111 439.876 266.126 439.905 266.111C439.92 266.097 439.92 266.053 439.905 266.023C439.876 265.994 439.847 265.979 439.817 265.994Z" fill="#6B7280"/>
</svg>
