<svg width="536" height="340" viewBox="0 0 536 340" fill="none" xmlns="http://www.w3.org/2000/svg">
<rect width="536" height="340" fill="white"/>
<rect x="92.5" y="42" width="80" height="102" rx="4" fill="#F9FAFB"/>
<rect x="100.5" y="50" width="55" height="3" rx="1.5" fill="#D1D5DB"/>
<rect x="100.5" y="59" width="41" height="3" rx="1.5" fill="#D1D5DB"/>
<rect x="100.5" y="68" width="50" height="3" rx="1.5" fill="#D1D5DB"/>
<rect x="100.5" y="77" width="57" height="3" rx="1.5" fill="#D1D5DB"/>
<rect x="100.5" y="86" width="36" height="3" rx="1.5" fill="#D1D5DB"/>
<rect x="100.5" y="95" width="46.2609" height="3" rx="1.5" fill="#D1D5DB"/>
<rect x="100.5" y="104" width="55" height="3" rx="1.5" fill="#D1D5DB"/>
<rect x="100.5" y="113" width="50" height="3" rx="1.5" fill="#D1D5DB"/>
<rect x="100.5" y="124" width="64" height="12" rx="3" fill="#1A56DB"/>
<rect x="118.5" y="129" width="28" height="2" rx="1" fill="white"/>
<rect x="198.5" y="42" width="244" height="9" rx="4.5" fill="#9CA3AF"/>
<rect x="198.5" y="63" width="213" height="7" rx="3.5" fill="#D1D5DB"/>
<rect x="198.5" y="76" width="165" height="7" rx="3.5" fill="#D1D5DB"/>
<rect x="198.5" y="103" width="240" height="5" rx="2.5" fill="#D1D5DB"/>
<rect x="198.5" y="113" width="231" height="5" rx="2.5" fill="#D1D5DB"/>
<rect x="198.5" y="123" width="73.6667" height="5" rx="2.5" fill="#D1D5DB"/>
<rect x="284.167" y="123" width="73.6667" height="5" rx="2.5" fill="#E5E7EB"/>
<rect x="369.833" y="123" width="73.6667" height="5" rx="2.5" fill="#D1D5DB"/>
<rect x="198.5" y="133" width="240" height="5" rx="2.5" fill="#D1D5DB"/>
<rect x="198.5" y="143" width="241" height="5" rx="2.5" fill="#D1D5DB"/>
<rect x="198.5" y="153" width="78" height="5" rx="2.5" fill="#D1D5DB"/>
<rect x="288.5" y="153" width="78" height="5" rx="2.5" fill="#E5E7EB"/>
<rect x="378.5" y="153" width="43" height="5" rx="2.5" fill="#D1D5DB"/>
<rect x="198.5" y="163" width="239" height="5" rx="2.5" fill="#D1D5DB"/>
<rect x="198.5" y="183" width="242" height="5" rx="2.5" fill="#D1D5DB"/>
<rect x="198.5" y="193" width="233" height="5" rx="2.5" fill="#D1D5DB"/>
<rect x="198.5" y="203" width="199" height="5" rx="2.5" fill="#D1D5DB"/>
<rect x="409.5" y="203" width="11" height="5" rx="2.5" fill="#E5E7EB"/>
<rect x="432.5" y="203" width="11" height="5" rx="2.5" fill="#D1D5DB"/>
<rect x="198.5" y="213" width="175" height="5" rx="2.5" fill="#E5E7EB"/>
<rect x="385.5" y="213" width="58" height="5" rx="2.5" fill="#D1D5DB"/>
<rect x="198.5" y="223" width="239" height="5" rx="2.5" fill="#D1D5DB"/>
<rect x="198.5" y="233" width="242" height="5" rx="2.5" fill="#D1D5DB"/>
<rect x="198.5" y="243" width="241" height="5" rx="2.5" fill="#D1D5DB"/>
<rect x="198.5" y="253" width="199" height="5" rx="2.5" fill="#D1D5DB"/>
<rect x="409.5" y="253" width="11" height="5" rx="2.5" fill="#E5E7EB"/>
<rect x="432.5" y="253" width="11" height="5" rx="2.5" fill="#D1D5DB"/>
<rect x="198.5" y="263" width="78" height="5" rx="2.5" fill="#D1D5DB"/>
<rect x="288.5" y="263" width="78" height="5" rx="2.5" fill="#E5E7EB"/>
<rect x="378.5" y="263" width="65" height="5" rx="2.5" fill="#D1D5DB"/>
<rect x="198.5" y="273" width="234" height="5" rx="2.5" fill="#D1D5DB"/>
<rect x="198.5" y="283" width="240" height="5" rx="2.5" fill="#D1D5DB"/>
<rect x="198.5" y="293" width="78" height="5" rx="2.5" fill="#D1D5DB"/>
<rect x="288.5" y="293" width="78" height="5" rx="2.5" fill="#E5E7EB"/>
<rect x="378.5" y="293" width="65" height="5" rx="2.5" fill="#D1D5DB"/>
</svg>
