<svg width="536" height="340" viewBox="0 0 536 340" fill="none" xmlns="http://www.w3.org/2000/svg">
<rect width="536" height="340" fill="white"/>
<rect x="211.5" y="35" width="113" height="10" rx="5" fill="#9CA3AF"/>
<rect x="162" y="61" width="212" height="8" rx="4" fill="#D1D5DB"/>
<rect x="196.5" y="75" width="143" height="8" rx="4" fill="#D1D5DB"/>
<mask id="path-6-inside-1_4889_1881" fill="white">
<path d="M48.5 103H268V204H48.5V103Z"/>
</mask>
<path d="M48.5 103H268V204H48.5V103Z" fill="white"/>
<path d="M267 103V204H269V103H267Z" fill="#E5E7EB" mask="url(#path-6-inside-1_4889_1881)"/>
<rect x="122.75" y="115" width="71" height="8" rx="3" fill="#9CA3AF"/>
<rect x="65.75" y="133" width="185" height="6" rx="3" fill="#D1D5DB"/>
<rect x="60.75" y="146" width="195" height="6" rx="3" fill="#D1D5DB"/>
<rect x="85.25" y="159" width="146" height="6" rx="3" fill="#D1D5DB"/>
<path d="M124.377 187.611C125.864 186.771 127.543 186.331 129.25 186.333C131.021 186.333 132.683 186.797 134.123 187.611M131.375 182.083C131.375 182.647 131.151 183.187 130.753 183.586C130.354 183.984 129.814 184.208 129.25 184.208C128.686 184.208 128.146 183.984 127.747 183.586C127.349 183.187 127.125 182.647 127.125 182.083C127.125 181.52 127.349 180.979 127.747 180.581C128.146 180.182 128.686 179.958 129.25 179.958C129.814 179.958 130.354 180.182 130.753 180.581C131.151 180.979 131.375 181.52 131.375 182.083ZM135.625 183.5C135.625 184.337 135.46 185.166 135.14 185.94C134.819 186.713 134.35 187.416 133.758 188.008C133.166 188.6 132.463 189.069 131.69 189.39C130.916 189.71 130.087 189.875 129.25 189.875C128.413 189.875 127.584 189.71 126.81 189.39C126.037 189.069 125.334 188.6 124.742 188.008C124.15 187.416 123.681 186.713 123.36 185.94C123.04 185.166 122.875 184.337 122.875 183.5C122.875 181.809 123.547 180.188 124.742 178.992C125.938 177.797 127.559 177.125 129.25 177.125C130.941 177.125 132.562 177.797 133.758 178.992C134.953 180.188 135.625 181.809 135.625 183.5Z" stroke="#9CA3AF" stroke-width="1.5" stroke-linecap="round" stroke-linejoin="round"/>
<rect x="141.75" y="176.5" width="46" height="6" rx="3" fill="#9CA3AF"/>
<rect x="141.75" y="186.5" width="54" height="4" rx="2" fill="#D1D5DB"/>
<rect width="219.5" height="101" transform="translate(268 103)" fill="white"/>
<rect x="342.25" y="115" width="71" height="8" rx="3" fill="#9CA3AF"/>
<rect x="294.75" y="133" width="166" height="6" rx="3" fill="#D1D5DB"/>
<rect x="311.25" y="146" width="133" height="6" rx="3" fill="#D1D5DB"/>
<rect x="296.75" y="159" width="162" height="6" rx="3" fill="#D1D5DB"/>
<path d="M343.877 187.611C345.364 186.771 347.043 186.331 348.75 186.333C350.521 186.333 352.183 186.797 353.623 187.611M350.875 182.083C350.875 182.647 350.651 183.187 350.253 183.586C349.854 183.984 349.314 184.208 348.75 184.208C348.186 184.208 347.646 183.984 347.247 183.586C346.849 183.187 346.625 182.647 346.625 182.083C346.625 181.52 346.849 180.979 347.247 180.581C347.646 180.182 348.186 179.958 348.75 179.958C349.314 179.958 349.854 180.182 350.253 180.581C350.651 180.979 350.875 181.52 350.875 182.083ZM355.125 183.5C355.125 184.337 354.96 185.166 354.64 185.94C354.319 186.713 353.85 187.416 353.258 188.008C352.666 188.6 351.963 189.069 351.19 189.39C350.416 189.71 349.587 189.875 348.75 189.875C347.913 189.875 347.084 189.71 346.31 189.39C345.537 189.069 344.834 188.6 344.242 188.008C343.65 187.416 343.181 186.713 342.86 185.94C342.54 185.166 342.375 184.337 342.375 183.5C342.375 181.809 343.047 180.188 344.242 178.992C345.438 177.797 347.059 177.125 348.75 177.125C350.441 177.125 352.062 177.797 353.258 178.992C354.453 180.188 355.125 181.809 355.125 183.5Z" stroke="#9CA3AF" stroke-width="1.5" stroke-linecap="round" stroke-linejoin="round"/>
<rect x="361.25" y="176.5" width="46" height="6" rx="3" fill="#9CA3AF"/>
<rect x="361.25" y="186.5" width="54" height="4" rx="2" fill="#D1D5DB"/>
<mask id="path-22-inside-2_4889_1881" fill="white">
<path d="M48.5 204H268V305H48.5V204Z"/>
</mask>
<path d="M48.5 204H268V305H48.5V204Z" fill="white"/>
<path d="M268 204H269V203H268V204ZM48.5 205H268V203H48.5V205ZM267 204V305H269V204H267Z" fill="#E5E7EB" mask="url(#path-22-inside-2_4889_1881)"/>
<rect x="122.75" y="216" width="71" height="8" rx="3" fill="#9CA3AF"/>
<rect x="75.25" y="234" width="166" height="6" rx="3" fill="#D1D5DB"/>
<rect x="91.75" y="247" width="133" height="6" rx="3" fill="#D1D5DB"/>
<rect x="77.25" y="260" width="162" height="6" rx="3" fill="#D1D5DB"/>
<path d="M124.377 288.611C125.864 287.771 127.543 287.331 129.25 287.333C131.021 287.333 132.683 287.797 134.123 288.611M131.375 283.083C131.375 283.647 131.151 284.187 130.753 284.586C130.354 284.984 129.814 285.208 129.25 285.208C128.686 285.208 128.146 284.984 127.747 284.586C127.349 284.187 127.125 283.647 127.125 283.083C127.125 282.52 127.349 281.979 127.747 281.581C128.146 281.182 128.686 280.958 129.25 280.958C129.814 280.958 130.354 281.182 130.753 281.581C131.151 281.979 131.375 282.52 131.375 283.083ZM135.625 284.5C135.625 285.337 135.46 286.166 135.14 286.94C134.819 287.713 134.35 288.416 133.758 289.008C133.166 289.6 132.463 290.069 131.69 290.39C130.916 290.71 130.087 290.875 129.25 290.875C128.413 290.875 127.584 290.71 126.81 290.39C126.037 290.069 125.334 289.6 124.742 289.008C124.15 288.416 123.681 287.713 123.36 286.94C123.04 286.166 122.875 285.337 122.875 284.5C122.875 282.809 123.547 281.188 124.742 279.992C125.938 278.797 127.559 278.125 129.25 278.125C130.941 278.125 132.562 278.797 133.758 279.992C134.953 281.188 135.625 282.809 135.625 284.5Z" stroke="#9CA3AF" stroke-width="1.5" stroke-linecap="round" stroke-linejoin="round"/>
<rect x="141.75" y="277.5" width="46" height="6" rx="3" fill="#9CA3AF"/>
<rect x="141.75" y="287.5" width="54" height="4" rx="2" fill="#D1D5DB"/>
<mask id="path-31-inside-3_4889_1881" fill="white">
<path d="M268 204H487.5V305H268V204Z"/>
</mask>
<path d="M268 204H487.5V305H268V204Z" fill="white"/>
<path d="M268 205H487.5V203H268V205Z" fill="#E5E7EB" mask="url(#path-31-inside-3_4889_1881)"/>
<rect x="342.25" y="216" width="71" height="8" rx="3" fill="#9CA3AF"/>
<rect x="285.25" y="234" width="185" height="6" rx="3" fill="#D1D5DB"/>
<rect x="305.75" y="247" width="144" height="6" rx="3" fill="#D1D5DB"/>
<rect x="326.75" y="260" width="102" height="6" rx="3" fill="#D1D5DB"/>
<path d="M343.877 288.611C345.364 287.771 347.043 287.331 348.75 287.333C350.521 287.333 352.183 287.797 353.623 288.611M350.875 283.083C350.875 283.647 350.651 284.187 350.253 284.586C349.854 284.984 349.314 285.208 348.75 285.208C348.186 285.208 347.646 284.984 347.247 284.586C346.849 284.187 346.625 283.647 346.625 283.083C346.625 282.52 346.849 281.979 347.247 281.581C347.646 281.182 348.186 280.958 348.75 280.958C349.314 280.958 349.854 281.182 350.253 281.581C350.651 281.979 350.875 282.52 350.875 283.083ZM355.125 284.5C355.125 285.337 354.96 286.166 354.64 286.94C354.319 287.713 353.85 288.416 353.258 289.008C352.666 289.6 351.963 290.069 351.19 290.39C350.416 290.71 349.587 290.875 348.75 290.875C347.913 290.875 347.084 290.71 346.31 290.39C345.537 290.069 344.834 289.6 344.242 289.008C343.65 288.416 343.181 287.713 342.86 286.94C342.54 286.166 342.375 285.337 342.375 284.5C342.375 282.809 343.047 281.188 344.242 279.992C345.438 278.797 347.059 278.125 348.75 278.125C350.441 278.125 352.062 278.797 353.258 279.992C354.453 281.188 355.125 282.809 355.125 284.5Z" stroke="#9CA3AF" stroke-width="1.5" stroke-linecap="round" stroke-linejoin="round"/>
<rect x="361.25" y="277.5" width="46" height="6" rx="3" fill="#9CA3AF"/>
<rect x="361.25" y="287.5" width="54" height="4" rx="2" fill="#D1D5DB"/>
</svg>
