<svg width="536" height="340" viewBox="0 0 536 340" fill="none" xmlns="http://www.w3.org/2000/svg">
<rect width="536" height="340" fill="white"/>
<rect x="186.5" y="47" width="163" height="10" rx="5" fill="#9CA3AF"/>
<g filter="url(#filter0_dd_4889_1882)">
<rect x="48.5" y="91" width="135.667" height="93" rx="4" fill="white"/>
<rect x="56.5" y="99" width="71" height="8" rx="3" fill="#9CA3AF"/>
<rect x="56.5" y="117" width="96" height="6" rx="3" fill="#D1D5DB"/>
<rect x="56.5" y="130" width="106" height="6" rx="3" fill="#D1D5DB"/>
<rect x="56.5" y="143" width="68" height="6" rx="3" fill="#D1D5DB"/>
<path d="M60.1274 171.611C61.6138 170.771 63.2926 170.331 65 170.333C66.7708 170.333 68.4333 170.797 69.8726 171.611M67.125 166.083C67.125 166.647 66.9011 167.187 66.5026 167.586C66.1041 167.984 65.5636 168.208 65 168.208C64.4364 168.208 63.8959 167.984 63.4974 167.586C63.0989 167.187 62.875 166.647 62.875 166.083C62.875 165.52 63.0989 164.979 63.4974 164.581C63.8959 164.182 64.4364 163.958 65 163.958C65.5636 163.958 66.1041 164.182 66.5026 164.581C66.9011 164.979 67.125 165.52 67.125 166.083ZM71.375 167.5C71.375 168.337 71.2101 169.166 70.8897 169.94C70.5694 170.713 70.0998 171.416 69.5078 172.008C68.9158 172.6 68.2131 173.069 67.4396 173.39C66.6662 173.71 65.8372 173.875 65 173.875C64.1628 173.875 63.3338 173.71 62.5604 173.39C61.7869 173.069 61.0842 172.6 60.4922 172.008C59.9002 171.416 59.4306 170.713 59.1103 169.94C58.7899 169.166 58.625 168.337 58.625 167.5C58.625 165.809 59.2966 164.188 60.4922 162.992C61.6877 161.797 63.3092 161.125 65 161.125C66.6908 161.125 68.3123 161.797 69.5078 162.992C70.7033 164.188 71.375 165.809 71.375 167.5Z" stroke="#9CA3AF" stroke-width="1.5" stroke-linecap="round" stroke-linejoin="round"/>
<rect x="78.5" y="160.5" width="46" height="6" rx="3" fill="#9CA3AF"/>
<rect x="78.5" y="170.5" width="54" height="4" rx="2" fill="#D1D5DB"/>
</g>
<g filter="url(#filter1_dd_4889_1882)">
<rect x="200.167" y="91" width="135.667" height="93" rx="4" fill="white"/>
<rect x="208.167" y="99" width="71" height="8" rx="3" fill="#9CA3AF"/>
<rect x="208.167" y="117" width="96" height="6" rx="3" fill="#D1D5DB"/>
<rect x="208.167" y="130" width="106" height="6" rx="3" fill="#D1D5DB"/>
<rect x="208.167" y="143" width="68" height="6" rx="3" fill="#D1D5DB"/>
<path d="M211.794 171.611C213.28 170.771 214.959 170.331 216.667 170.333C218.438 170.333 220.1 170.797 221.539 171.611M218.792 166.083C218.792 166.647 218.568 167.187 218.169 167.586C217.771 167.984 217.23 168.208 216.667 168.208C216.103 168.208 215.563 167.984 215.164 167.586C214.766 167.187 214.542 166.647 214.542 166.083C214.542 165.52 214.766 164.979 215.164 164.581C215.563 164.182 216.103 163.958 216.667 163.958C217.23 163.958 217.771 164.182 218.169 164.581C218.568 164.979 218.792 165.52 218.792 166.083ZM223.042 167.5C223.042 168.337 222.877 169.166 222.556 169.94C222.236 170.713 221.766 171.416 221.174 172.008C220.583 172.6 219.88 173.069 219.106 173.39C218.333 173.71 217.504 173.875 216.667 173.875C215.829 173.875 215.001 173.71 214.227 173.39C213.454 173.069 212.751 172.6 212.159 172.008C211.567 171.416 211.097 170.713 210.777 169.94C210.457 169.166 210.292 168.337 210.292 167.5C210.292 165.809 210.963 164.188 212.159 162.992C213.354 161.797 214.976 161.125 216.667 161.125C218.357 161.125 219.979 161.797 221.174 162.992C222.37 164.188 223.042 165.809 223.042 167.5Z" stroke="#9CA3AF" stroke-width="1.5" stroke-linecap="round" stroke-linejoin="round"/>
<rect x="230.167" y="160.5" width="46" height="6" rx="3" fill="#9CA3AF"/>
<rect x="230.167" y="170.5" width="54" height="4" rx="2" fill="#D1D5DB"/>
</g>
<g filter="url(#filter2_dd_4889_1882)">
<rect x="351.833" y="91" width="135.667" height="93" rx="4" fill="white"/>
<rect x="359.833" y="99" width="71" height="8" rx="3" fill="#9CA3AF"/>
<rect x="359.833" y="117" width="96" height="6" rx="3" fill="#D1D5DB"/>
<rect x="359.833" y="130" width="106" height="6" rx="3" fill="#D1D5DB"/>
<rect x="359.833" y="143" width="68" height="6" rx="3" fill="#D1D5DB"/>
<path d="M363.461 171.611C364.947 170.771 366.626 170.331 368.333 170.333C370.104 170.333 371.767 170.797 373.206 171.611M370.458 166.083C370.458 166.647 370.234 167.187 369.836 167.586C369.437 167.984 368.897 168.208 368.333 168.208C367.77 168.208 367.229 167.984 366.831 167.586C366.432 167.187 366.208 166.647 366.208 166.083C366.208 165.52 366.432 164.979 366.831 164.581C367.229 164.182 367.77 163.958 368.333 163.958C368.897 163.958 369.437 164.182 369.836 164.581C370.234 164.979 370.458 165.52 370.458 166.083ZM374.708 167.5C374.708 168.337 374.543 169.166 374.223 169.94C373.903 170.713 373.433 171.416 372.841 172.008C372.249 172.6 371.546 173.069 370.773 173.39C369.999 173.71 369.171 173.875 368.333 173.875C367.496 173.875 366.667 173.71 365.894 173.39C365.12 173.069 364.418 172.6 363.826 172.008C363.234 171.416 362.764 170.713 362.444 169.94C362.123 169.166 361.958 168.337 361.958 167.5C361.958 165.809 362.63 164.188 363.826 162.992C365.021 161.797 366.643 161.125 368.333 161.125C370.024 161.125 371.646 161.797 372.841 162.992C374.037 164.188 374.708 165.809 374.708 167.5Z" stroke="#9CA3AF" stroke-width="1.5" stroke-linecap="round" stroke-linejoin="round"/>
<rect x="381.833" y="160.5" width="46" height="6" rx="3" fill="#9CA3AF"/>
<rect x="381.833" y="170.5" width="54" height="4" rx="2" fill="#D1D5DB"/>
</g>
<g filter="url(#filter3_dd_4889_1882)">
<rect x="48.5" y="200" width="135.667" height="93" rx="4" fill="white"/>
<rect x="56.5" y="208" width="71" height="8" rx="3" fill="#9CA3AF"/>
<rect x="56.5" y="226" width="96" height="6" rx="3" fill="#D1D5DB"/>
<rect x="56.5" y="239" width="106" height="6" rx="3" fill="#D1D5DB"/>
<rect x="56.5" y="252" width="68" height="6" rx="3" fill="#D1D5DB"/>
<path d="M60.1274 280.611C61.6138 279.771 63.2926 279.331 65 279.333C66.7708 279.333 68.4333 279.797 69.8726 280.611M67.125 275.083C67.125 275.647 66.9011 276.187 66.5026 276.586C66.1041 276.984 65.5636 277.208 65 277.208C64.4364 277.208 63.8959 276.984 63.4974 276.586C63.0989 276.187 62.875 275.647 62.875 275.083C62.875 274.52 63.0989 273.979 63.4974 273.581C63.8959 273.182 64.4364 272.958 65 272.958C65.5636 272.958 66.1041 273.182 66.5026 273.581C66.9011 273.979 67.125 274.52 67.125 275.083ZM71.375 276.5C71.375 277.337 71.2101 278.166 70.8897 278.94C70.5694 279.713 70.0998 280.416 69.5078 281.008C68.9158 281.6 68.2131 282.069 67.4396 282.39C66.6662 282.71 65.8372 282.875 65 282.875C64.1628 282.875 63.3338 282.71 62.5604 282.39C61.7869 282.069 61.0842 281.6 60.4922 281.008C59.9002 280.416 59.4306 279.713 59.1103 278.94C58.7899 278.166 58.625 277.337 58.625 276.5C58.625 274.809 59.2966 273.188 60.4922 271.992C61.6877 270.797 63.3092 270.125 65 270.125C66.6908 270.125 68.3123 270.797 69.5078 271.992C70.7033 273.188 71.375 274.809 71.375 276.5Z" stroke="#9CA3AF" stroke-width="1.5" stroke-linecap="round" stroke-linejoin="round"/>
<rect x="78.5" y="269.5" width="46" height="6" rx="3" fill="#9CA3AF"/>
<rect x="78.5" y="279.5" width="54" height="4" rx="2" fill="#D1D5DB"/>
</g>
<g filter="url(#filter4_dd_4889_1882)">
<rect x="200.167" y="200" width="135.667" height="93" rx="4" fill="white"/>
<rect x="208.167" y="208" width="71" height="8" rx="3" fill="#9CA3AF"/>
<rect x="208.167" y="226" width="96" height="6" rx="3" fill="#D1D5DB"/>
<rect x="208.167" y="239" width="106" height="6" rx="3" fill="#D1D5DB"/>
<rect x="208.167" y="252" width="68" height="6" rx="3" fill="#D1D5DB"/>
<path d="M211.794 280.611C213.28 279.771 214.959 279.331 216.667 279.333C218.438 279.333 220.1 279.797 221.539 280.611M218.792 275.083C218.792 275.647 218.568 276.187 218.169 276.586C217.771 276.984 217.23 277.208 216.667 277.208C216.103 277.208 215.563 276.984 215.164 276.586C214.766 276.187 214.542 275.647 214.542 275.083C214.542 274.52 214.766 273.979 215.164 273.581C215.563 273.182 216.103 272.958 216.667 272.958C217.23 272.958 217.771 273.182 218.169 273.581C218.568 273.979 218.792 274.52 218.792 275.083ZM223.042 276.5C223.042 277.337 222.877 278.166 222.556 278.94C222.236 279.713 221.766 280.416 221.174 281.008C220.583 281.6 219.88 282.069 219.106 282.39C218.333 282.71 217.504 282.875 216.667 282.875C215.829 282.875 215.001 282.71 214.227 282.39C213.454 282.069 212.751 281.6 212.159 281.008C211.567 280.416 211.097 279.713 210.777 278.94C210.457 278.166 210.292 277.337 210.292 276.5C210.292 274.809 210.963 273.188 212.159 271.992C213.354 270.797 214.976 270.125 216.667 270.125C218.357 270.125 219.979 270.797 221.174 271.992C222.37 273.188 223.042 274.809 223.042 276.5Z" stroke="#9CA3AF" stroke-width="1.5" stroke-linecap="round" stroke-linejoin="round"/>
<rect x="230.167" y="269.5" width="46" height="6" rx="3" fill="#9CA3AF"/>
<rect x="230.167" y="279.5" width="54" height="4" rx="2" fill="#D1D5DB"/>
</g>
<g filter="url(#filter5_dd_4889_1882)">
<rect x="351.833" y="200" width="135.667" height="93" rx="4" fill="white"/>
<rect x="359.833" y="208" width="71" height="8" rx="3" fill="#9CA3AF"/>
<rect x="359.833" y="226" width="96" height="6" rx="3" fill="#D1D5DB"/>
<rect x="359.833" y="239" width="106" height="6" rx="3" fill="#D1D5DB"/>
<rect x="359.833" y="252" width="68" height="6" rx="3" fill="#D1D5DB"/>
<path d="M363.461 280.611C364.947 279.771 366.626 279.331 368.333 279.333C370.104 279.333 371.767 279.797 373.206 280.611M370.458 275.083C370.458 275.647 370.234 276.187 369.836 276.586C369.437 276.984 368.897 277.208 368.333 277.208C367.77 277.208 367.229 276.984 366.831 276.586C366.432 276.187 366.208 275.647 366.208 275.083C366.208 274.52 366.432 273.979 366.831 273.581C367.229 273.182 367.77 272.958 368.333 272.958C368.897 272.958 369.437 273.182 369.836 273.581C370.234 273.979 370.458 274.52 370.458 275.083ZM374.708 276.5C374.708 277.337 374.543 278.166 374.223 278.94C373.903 279.713 373.433 280.416 372.841 281.008C372.249 281.6 371.546 282.069 370.773 282.39C369.999 282.71 369.171 282.875 368.333 282.875C367.496 282.875 366.667 282.71 365.894 282.39C365.12 282.069 364.418 281.6 363.826 281.008C363.234 280.416 362.764 279.713 362.444 278.94C362.123 278.166 361.958 277.337 361.958 276.5C361.958 274.809 362.63 273.188 363.826 271.992C365.021 270.797 366.643 270.125 368.333 270.125C370.024 270.125 371.646 270.797 372.841 271.992C374.037 273.188 374.708 274.809 374.708 276.5Z" stroke="#9CA3AF" stroke-width="1.5" stroke-linecap="round" stroke-linejoin="round"/>
<rect x="381.833" y="269.5" width="46" height="6" rx="3" fill="#9CA3AF"/>
<rect x="381.833" y="279.5" width="54" height="4" rx="2" fill="#D1D5DB"/>
</g>
<defs>
<filter id="filter0_dd_4889_1882" x="45.5" y="89" width="141.667" height="99" filterUnits="userSpaceOnUse" color-interpolation-filters="sRGB">
<feFlood flood-opacity="0" result="BackgroundImageFix"/>
<feColorMatrix in="SourceAlpha" type="matrix" values="0 0 0 0 0 0 0 0 0 0 0 0 0 0 0 0 0 0 127 0" result="hardAlpha"/>
<feOffset dy="1"/>
<feGaussianBlur stdDeviation="1.5"/>
<feColorMatrix type="matrix" values="0 0 0 0 0 0 0 0 0 0 0 0 0 0 0 0 0 0 0.1 0"/>
<feBlend mode="normal" in2="BackgroundImageFix" result="effect1_dropShadow_4889_1882"/>
<feColorMatrix in="SourceAlpha" type="matrix" values="0 0 0 0 0 0 0 0 0 0 0 0 0 0 0 0 0 0 127 0" result="hardAlpha"/>
<feOffset dy="1"/>
<feGaussianBlur stdDeviation="1"/>
<feColorMatrix type="matrix" values="0 0 0 0 0 0 0 0 0 0 0 0 0 0 0 0 0 0 0.06 0"/>
<feBlend mode="normal" in2="effect1_dropShadow_4889_1882" result="effect2_dropShadow_4889_1882"/>
<feBlend mode="normal" in="SourceGraphic" in2="effect2_dropShadow_4889_1882" result="shape"/>
</filter>
<filter id="filter1_dd_4889_1882" x="197.167" y="89" width="141.667" height="99" filterUnits="userSpaceOnUse" color-interpolation-filters="sRGB">
<feFlood flood-opacity="0" result="BackgroundImageFix"/>
<feColorMatrix in="SourceAlpha" type="matrix" values="0 0 0 0 0 0 0 0 0 0 0 0 0 0 0 0 0 0 127 0" result="hardAlpha"/>
<feOffset dy="1"/>
<feGaussianBlur stdDeviation="1.5"/>
<feColorMatrix type="matrix" values="0 0 0 0 0 0 0 0 0 0 0 0 0 0 0 0 0 0 0.1 0"/>
<feBlend mode="normal" in2="BackgroundImageFix" result="effect1_dropShadow_4889_1882"/>
<feColorMatrix in="SourceAlpha" type="matrix" values="0 0 0 0 0 0 0 0 0 0 0 0 0 0 0 0 0 0 127 0" result="hardAlpha"/>
<feOffset dy="1"/>
<feGaussianBlur stdDeviation="1"/>
<feColorMatrix type="matrix" values="0 0 0 0 0 0 0 0 0 0 0 0 0 0 0 0 0 0 0.06 0"/>
<feBlend mode="normal" in2="effect1_dropShadow_4889_1882" result="effect2_dropShadow_4889_1882"/>
<feBlend mode="normal" in="SourceGraphic" in2="effect2_dropShadow_4889_1882" result="shape"/>
</filter>
<filter id="filter2_dd_4889_1882" x="348.833" y="89" width="141.667" height="99" filterUnits="userSpaceOnUse" color-interpolation-filters="sRGB">
<feFlood flood-opacity="0" result="BackgroundImageFix"/>
<feColorMatrix in="SourceAlpha" type="matrix" values="0 0 0 0 0 0 0 0 0 0 0 0 0 0 0 0 0 0 127 0" result="hardAlpha"/>
<feOffset dy="1"/>
<feGaussianBlur stdDeviation="1.5"/>
<feColorMatrix type="matrix" values="0 0 0 0 0 0 0 0 0 0 0 0 0 0 0 0 0 0 0.1 0"/>
<feBlend mode="normal" in2="BackgroundImageFix" result="effect1_dropShadow_4889_1882"/>
<feColorMatrix in="SourceAlpha" type="matrix" values="0 0 0 0 0 0 0 0 0 0 0 0 0 0 0 0 0 0 127 0" result="hardAlpha"/>
<feOffset dy="1"/>
<feGaussianBlur stdDeviation="1"/>
<feColorMatrix type="matrix" values="0 0 0 0 0 0 0 0 0 0 0 0 0 0 0 0 0 0 0.06 0"/>
<feBlend mode="normal" in2="effect1_dropShadow_4889_1882" result="effect2_dropShadow_4889_1882"/>
<feBlend mode="normal" in="SourceGraphic" in2="effect2_dropShadow_4889_1882" result="shape"/>
</filter>
<filter id="filter3_dd_4889_1882" x="45.5" y="198" width="141.667" height="99" filterUnits="userSpaceOnUse" color-interpolation-filters="sRGB">
<feFlood flood-opacity="0" result="BackgroundImageFix"/>
<feColorMatrix in="SourceAlpha" type="matrix" values="0 0 0 0 0 0 0 0 0 0 0 0 0 0 0 0 0 0 127 0" result="hardAlpha"/>
<feOffset dy="1"/>
<feGaussianBlur stdDeviation="1.5"/>
<feColorMatrix type="matrix" values="0 0 0 0 0 0 0 0 0 0 0 0 0 0 0 0 0 0 0.1 0"/>
<feBlend mode="normal" in2="BackgroundImageFix" result="effect1_dropShadow_4889_1882"/>
<feColorMatrix in="SourceAlpha" type="matrix" values="0 0 0 0 0 0 0 0 0 0 0 0 0 0 0 0 0 0 127 0" result="hardAlpha"/>
<feOffset dy="1"/>
<feGaussianBlur stdDeviation="1"/>
<feColorMatrix type="matrix" values="0 0 0 0 0 0 0 0 0 0 0 0 0 0 0 0 0 0 0.06 0"/>
<feBlend mode="normal" in2="effect1_dropShadow_4889_1882" result="effect2_dropShadow_4889_1882"/>
<feBlend mode="normal" in="SourceGraphic" in2="effect2_dropShadow_4889_1882" result="shape"/>
</filter>
<filter id="filter4_dd_4889_1882" x="197.167" y="198" width="141.667" height="99" filterUnits="userSpaceOnUse" color-interpolation-filters="sRGB">
<feFlood flood-opacity="0" result="BackgroundImageFix"/>
<feColorMatrix in="SourceAlpha" type="matrix" values="0 0 0 0 0 0 0 0 0 0 0 0 0 0 0 0 0 0 127 0" result="hardAlpha"/>
<feOffset dy="1"/>
<feGaussianBlur stdDeviation="1.5"/>
<feColorMatrix type="matrix" values="0 0 0 0 0 0 0 0 0 0 0 0 0 0 0 0 0 0 0.1 0"/>
<feBlend mode="normal" in2="BackgroundImageFix" result="effect1_dropShadow_4889_1882"/>
<feColorMatrix in="SourceAlpha" type="matrix" values="0 0 0 0 0 0 0 0 0 0 0 0 0 0 0 0 0 0 127 0" result="hardAlpha"/>
<feOffset dy="1"/>
<feGaussianBlur stdDeviation="1"/>
<feColorMatrix type="matrix" values="0 0 0 0 0 0 0 0 0 0 0 0 0 0 0 0 0 0 0.06 0"/>
<feBlend mode="normal" in2="effect1_dropShadow_4889_1882" result="effect2_dropShadow_4889_1882"/>
<feBlend mode="normal" in="SourceGraphic" in2="effect2_dropShadow_4889_1882" result="shape"/>
</filter>
<filter id="filter5_dd_4889_1882" x="348.833" y="198" width="141.667" height="99" filterUnits="userSpaceOnUse" color-interpolation-filters="sRGB">
<feFlood flood-opacity="0" result="BackgroundImageFix"/>
<feColorMatrix in="SourceAlpha" type="matrix" values="0 0 0 0 0 0 0 0 0 0 0 0 0 0 0 0 0 0 127 0" result="hardAlpha"/>
<feOffset dy="1"/>
<feGaussianBlur stdDeviation="1.5"/>
<feColorMatrix type="matrix" values="0 0 0 0 0 0 0 0 0 0 0 0 0 0 0 0 0 0 0.1 0"/>
<feBlend mode="normal" in2="BackgroundImageFix" result="effect1_dropShadow_4889_1882"/>
<feColorMatrix in="SourceAlpha" type="matrix" values="0 0 0 0 0 0 0 0 0 0 0 0 0 0 0 0 0 0 127 0" result="hardAlpha"/>
<feOffset dy="1"/>
<feGaussianBlur stdDeviation="1"/>
<feColorMatrix type="matrix" values="0 0 0 0 0 0 0 0 0 0 0 0 0 0 0 0 0 0 0.06 0"/>
<feBlend mode="normal" in2="effect1_dropShadow_4889_1882" result="effect2_dropShadow_4889_1882"/>
<feBlend mode="normal" in="SourceGraphic" in2="effect2_dropShadow_4889_1882" result="shape"/>
</filter>
</defs>
</svg>
