<svg width="96" height="32" viewBox="0 0 96 32" fill="none" xmlns="http://www.w3.org/2000/svg">
<mask id="mask0_3816_82" style="mask-type:luminance" maskUnits="userSpaceOnUse" x="0" y="0" width="96" height="32">
<path d="M95.3333 0H0V32H95.3333V0Z" fill="white"/>
</mask>
<g mask="url(#mask0_3816_82)">
<path d="M35.4748 8.51465H30.2247C29.8654 8.51465 29.5599 8.77566 29.5039 9.13032L27.3805 22.5931C27.3382 22.8587 27.544 23.0982 27.8134 23.0982H30.3199C30.6792 23.0982 30.9847 22.8372 31.0408 22.4818L31.6134 18.8507C31.6687 18.4952 31.975 18.2342 32.3335 18.2342H33.9955C37.4539 18.2342 39.4499 16.5607 39.9711 13.2443C40.206 11.7934 39.9811 10.6534 39.3017 9.85501C38.5555 8.97832 37.2321 8.51465 35.4748 8.51465ZM36.0805 13.4316C35.7934 15.3155 34.354 15.3155 32.9622 15.3155H32.17L32.7258 11.7973C32.7588 11.5846 32.9431 11.428 33.158 11.428H33.5211C34.4692 11.428 35.3635 11.428 35.8257 11.9684C36.1013 12.2909 36.1857 12.7699 36.0805 13.4316Z" fill="#9CA3AF"/>
<path d="M51.1687 13.3708H48.6545C48.4404 13.3708 48.2554 13.5274 48.2223 13.74L48.111 14.4432L47.9352 14.1884C47.391 13.3984 46.1773 13.1343 44.9659 13.1343C42.1876 13.1343 39.8148 15.2385 39.3526 18.1903C39.1123 19.6627 39.4539 21.0706 40.2892 22.0524C41.0553 22.9552 42.1516 23.3314 43.4558 23.3314C45.6944 23.3314 46.9357 21.892 46.9357 21.892L46.8236 22.5906C46.7814 22.8577 46.9872 23.0972 47.2551 23.0972H49.5197C49.8798 23.0972 50.1838 22.8362 50.2406 22.4808L51.5993 13.8759C51.6423 13.6111 51.4374 13.3708 51.1687 13.3708ZM47.6642 18.264C47.4217 19.7003 46.2817 20.6645 44.8277 20.6645C44.0976 20.6645 43.5142 20.4303 43.1396 19.9866C42.768 19.546 42.6268 18.9188 42.745 18.2202C42.9714 16.7962 44.1306 15.8005 45.5623 15.8005C46.2763 15.8005 46.8566 16.0377 47.239 16.4852C47.622 16.9374 47.774 17.5684 47.6642 18.264Z" fill="#9CA3AF"/>
<path d="M64.5584 13.3708H62.032C61.7909 13.3708 61.5644 13.4906 61.4278 13.691L57.9433 18.8237L56.4663 13.8913C56.3734 13.5827 56.0886 13.3708 55.7662 13.3708H53.2835C52.9818 13.3708 52.7722 13.6656 52.8682 13.9497L55.651 22.1162L53.0348 25.8095C52.829 26.1005 53.0363 26.5005 53.3917 26.5005H55.9151C56.1546 26.5005 56.3788 26.3838 56.5147 26.1873L64.9176 14.058C65.1188 13.7678 64.9123 13.3708 64.5584 13.3708Z" fill="#9CA3AF"/>
<path d="M72.9232 8.51465H67.6723C67.3138 8.51465 67.0083 8.77566 66.9522 9.13032L64.8287 22.5931C64.7865 22.8587 64.9924 23.0982 65.2603 23.0982H67.9547C68.205 23.0982 68.4192 22.9155 68.4583 22.6668L69.0609 18.8507C69.1162 18.4952 69.4225 18.2342 69.781 18.2342H71.4423C74.9014 18.2342 76.8967 16.5607 77.4187 13.2443C77.6544 11.7934 77.4279 10.6534 76.7485 9.85501C76.003 8.97832 74.6804 8.51465 72.9232 8.51465ZM73.5289 13.4316C73.2426 15.3155 71.8032 15.3155 70.4106 15.3155H69.6191L70.1756 11.7973C70.2086 11.5846 70.3914 11.428 70.6071 11.428H70.9703C71.9176 11.428 72.8126 11.428 73.2747 11.9684C73.5503 12.2909 73.6341 12.7699 73.5289 13.4316Z" fill="#9CA3AF"/>
<path d="M88.6155 13.3708H86.1029C85.8872 13.3708 85.7037 13.5274 85.6715 13.74L85.5602 14.4432L85.3836 14.1884C84.8393 13.3984 83.6264 13.1343 82.415 13.1343C79.6368 13.1343 77.2647 15.2385 76.8025 18.1903C76.563 19.6627 76.9031 21.0706 77.7383 22.0524C78.506 22.9552 79.6007 23.3314 80.905 23.3314C83.1435 23.3314 84.3849 21.892 84.3849 21.892L84.2728 22.5906C84.2306 22.8577 84.4363 23.0972 84.7057 23.0972H86.9696C87.3281 23.0972 87.6337 22.8362 87.6897 22.4808L89.0493 13.8759C89.0907 13.6111 88.885 13.3708 88.6155 13.3708ZM85.1111 18.264C84.87 19.7003 83.7285 20.6645 82.2745 20.6645C81.546 20.6645 80.961 20.4303 80.5864 19.9866C80.2148 19.546 80.0751 18.9188 80.1918 18.2202C80.4198 16.7962 81.5775 15.8005 83.0092 15.8005C83.7231 15.8005 84.3035 16.0377 84.6858 16.4852C85.0704 16.9374 85.2224 17.5684 85.1111 18.264Z" fill="#9CA3AF"/>
<path d="M91.5803 8.88369L89.4254 22.5928C89.3832 22.8585 89.5889 23.098 89.8568 23.098H92.0232C92.3833 23.098 92.6888 22.837 92.7441 22.4815L94.869 9.01957C94.9112 8.75396 94.7055 8.51367 94.4375 8.51367H92.0117C91.7975 8.51444 91.6133 8.67105 91.5803 8.88369Z" fill="#9CA3AF"/>
<path d="M5.57789 25.7144L5.97938 23.1642L5.08504 23.1434H0.814453L3.78229 4.32537C3.7915 4.26856 3.82144 4.21559 3.8652 4.17797C3.90896 4.14036 3.965 4.11963 4.02334 4.11963H11.2241C13.6147 4.11963 15.2644 4.61708 16.1258 5.59894C16.5296 6.05955 16.7867 6.54088 16.9111 7.07058C17.0416 7.62638 17.0439 8.29042 16.9165 9.10032L16.9073 9.15943V9.67838L17.3111 9.90714C17.6511 10.0875 17.9214 10.2941 18.1286 10.5305C18.4741 10.9243 18.6975 11.4248 18.7919 12.0183C18.8894 12.6286 18.8572 13.3548 18.6975 14.177C18.5132 15.1227 18.2154 15.9465 17.8131 16.6205C17.4431 17.2415 16.9717 17.7566 16.4121 18.1558C15.8778 18.5351 15.2429 18.8229 14.5252 19.0072C13.8296 19.1884 13.0366 19.2797 12.1669 19.2797H11.6064C11.2057 19.2797 10.8165 19.424 10.511 19.6827C10.2047 19.9468 10.002 20.3076 9.93982 20.7022L9.8976 20.9318L9.18827 25.4265L9.15603 25.5915C9.14758 25.6438 9.133 25.6699 9.1115 25.6875C9.09231 25.7036 9.06467 25.7144 9.0378 25.7144H5.57789Z" fill="#9CA3AF"/>
<path d="M17.6937 9.21924C17.6722 9.35665 17.6477 9.49714 17.62 9.64146C16.6704 14.517 13.4216 16.2013 9.27234 16.2013H7.15969C6.65226 16.2013 6.22466 16.5697 6.14559 17.0703L5.06394 23.9302L4.75763 25.8748C4.7062 26.2033 4.95953 26.4996 5.29117 26.4996H9.0382C9.48192 26.4996 9.85884 26.1772 9.9287 25.7396L9.96555 25.5493L10.671 21.0722L10.7163 20.8265C10.7854 20.3874 11.1631 20.065 11.6068 20.065H12.1672C15.7976 20.065 18.6395 18.591 19.4701 14.3258C19.8171 12.544 19.6375 11.0563 18.7193 10.0099C18.4414 9.69443 18.0968 9.43265 17.6937 9.21924Z" fill="#6B7280"/>
<path d="M16.7002 8.82327C16.5551 8.78105 16.4054 8.74266 16.2518 8.70812C16.0975 8.67434 15.9394 8.6444 15.7767 8.6183C15.207 8.52618 14.5829 8.48242 13.9143 8.48242H8.27036C8.13141 8.48242 7.99937 8.5139 7.88115 8.5707C7.62091 8.69583 7.42745 8.94226 7.38062 9.24396L6.17998 16.8486L6.14551 17.0704C6.22458 16.5698 6.65218 16.2014 7.15961 16.2014H9.27226C13.4215 16.2014 16.6703 14.5163 17.6199 9.64154C17.6483 9.49722 17.6721 9.35673 17.6936 9.21932C17.4533 9.09188 17.193 8.98295 16.9128 8.89006C16.8437 8.86703 16.7723 8.84476 16.7002 8.82327Z" fill="#4B5563"/>
<path d="M7.38037 9.24388C7.4272 8.94218 7.62072 8.69572 7.88096 8.57135C7.99995 8.51455 8.13122 8.48307 8.27017 8.48307H13.9141C14.5828 8.48307 15.2069 8.52683 15.7765 8.61895C15.9393 8.64505 16.0974 8.67499 16.2517 8.70877C16.4052 8.74331 16.5549 8.7817 16.7 8.82392C16.7722 8.84542 16.8436 8.86768 16.9134 8.88994C17.1936 8.98283 17.4539 9.09261 17.6942 9.21927C17.9767 7.41754 17.6919 6.19079 16.7177 5.07996C15.6437 3.85705 13.7053 3.3335 11.225 3.3335H4.02415C3.51749 3.3335 3.08528 3.70198 3.00698 4.20327L0.00766818 23.2148C-0.0514429 23.591 0.238739 23.9303 0.617971 23.9303L5.06361 23.9302L6.17973 16.8485L7.38037 9.24388Z" fill="#9CA3AF"/>
</g>
</svg>
