<svg width="32" height="32" viewBox="0 0 32 32" fill="none" xmlns="http://www.w3.org/2000/svg">
<rect x="4" y="4" width="24" height="24" rx="8" fill="#330000"/>
<path d="M21.4204 12.9726C21.088 12.9822 20.7656 12.8579 20.5238 12.6379C20.2921 12.3987 20.1712 12.0831 20.1812 11.7579C20.1712 11.4326 20.3021 11.1266 20.5439 10.9066C20.7857 10.6866 21.1081 10.5718 21.4406 10.5718C21.8335 10.5718 22.1357 10.6866 22.3574 10.9066C22.579 11.1361 22.6999 11.4422 22.6898 11.7579C22.6999 12.0831 22.579 12.3987 22.3372 12.6379C22.1055 12.8674 21.763 12.9918 21.4204 12.9726Z" fill="#FF9A00"/>
<path d="M20.2921 21.2753V13.91C20.2921 13.8144 20.3324 13.7761 20.423 13.7761H22.4178C22.5085 13.7761 22.5488 13.824 22.5488 13.91V21.2753C22.5488 21.3805 22.5085 21.4283 22.4178 21.4283H20.4432C20.3424 21.4283 20.2921 21.3709 20.2921 21.2753Z" fill="#FF9A00"/>
<path fill-rule="evenodd" clip-rule="evenodd" d="M16.0306 19.037H12.2828L11.5171 21.2848C11.497 21.3709 11.4164 21.4283 11.3257 21.4187H9.43167C9.32085 21.4187 9.29063 21.3613 9.32085 21.2466L12.5649 12.3796C12.5737 12.3517 12.5825 12.323 12.5916 12.2935C12.6136 12.2218 12.6371 12.1453 12.6656 12.064C12.7059 11.8631 12.7261 11.6526 12.7261 11.4422C12.716 11.3944 12.7563 11.3466 12.8067 11.337H15.416C15.4966 11.337 15.5369 11.3657 15.547 11.4135L19.2242 21.2657C19.2544 21.3709 19.2242 21.4187 19.1235 21.4187H17.0179C16.9473 21.4283 16.8768 21.3805 16.8567 21.3135L16.0306 19.037ZM12.8671 17.0953H15.4261C15.3656 16.8944 15.285 16.6553 15.1944 16.4066C15.1037 16.1483 15.013 15.8709 14.9223 15.584C14.872 15.4357 14.8241 15.2898 14.7763 15.144C14.7284 14.9981 14.6805 14.8522 14.6302 14.704C14.5294 14.4074 14.4388 14.13 14.3582 13.8526C14.3225 13.7341 14.2888 13.6193 14.2562 13.5083C14.2151 13.3684 14.1758 13.2345 14.1365 13.1066H14.1164C14.0257 13.5179 13.9149 13.9292 13.7738 14.3405C13.7163 14.5153 13.6587 14.6929 13.6006 14.8722C13.5062 15.1638 13.4102 15.46 13.3104 15.7561C13.1694 16.244 13.0182 16.6935 12.8671 17.0953Z" fill="#FF9A00"/>
</svg>
