<svg width="32" height="32" viewBox="0 0 32 32" fill="none" xmlns="http://www.w3.org/2000/svg">
<rect x="4" y="4" width="24" height="24" fill="#FFCA28"/>
<path d="M18.5714 23.9609L20.3385 22.7916C20.4769 23.2267 21.3538 24.26 22.4615 24.26C23.5692 24.26 24.0835 23.655 24.0835 23.2539C24.0835 22.1609 22.9524 21.7755 22.4092 21.5904C22.3206 21.5602 22.2477 21.5354 22.1978 21.5137C22.1722 21.5025 22.1336 21.4877 22.0839 21.4688C21.4797 21.2379 19.2506 20.3863 19.2506 17.9176C19.2506 15.1984 21.8747 14.8857 22.4681 14.8857C22.8564 14.8857 24.7231 14.9333 25.6527 16.6804L23.9385 17.8768C23.5626 17.1154 22.9382 16.8639 22.5538 16.8639C21.6044 16.8639 21.4066 17.56 21.4066 17.8768C21.4066 18.7658 22.4381 19.1643 23.3091 19.5008C23.537 19.5888 23.7539 19.6726 23.9385 19.7598C24.8879 20.2085 26.2857 20.9426 26.2857 23.2539C26.2857 24.4115 25.3147 26.2857 22.8703 26.2857C19.5868 26.2857 18.7165 24.3144 18.5714 23.9609Z" fill="#3E3E3E"/>
<path d="M10 24.1931L11.8417 23.0244C11.986 23.4593 12.5468 24.261 13.3605 24.261C14.1741 24.261 14.5906 23.4253 14.5906 23.0244V15.1429H16.8556V23.0244C16.8923 24.1115 16.2893 26.2857 13.6285 26.2857C11.182 26.2857 10.1649 24.8317 10 24.1931Z" fill="#3E3E3E"/>
</svg>
