<svg width="32" height="32" viewBox="0 0 32 32" fill="none" xmlns="http://www.w3.org/2000/svg">
<path d="M21.1161 21.5842C25.6189 19.2444 23.537 16.9958 22.0839 17.2987C21.7277 17.3729 21.5689 17.4371 21.5689 17.4371C21.5689 17.4371 21.7011 17.23 21.9536 17.1403C24.8284 16.1296 27.0393 20.1212 21.0256 21.7021C21.0256 21.7022 21.0953 21.6399 21.1161 21.5842Z" fill="#5382A1"/>
<path d="M11.7467 18.6225C8.9294 18.2463 13.2914 17.2103 13.2914 17.2103C13.2914 17.2103 11.5974 17.096 9.51411 18.1031C7.05067 19.2947 15.6076 19.8367 20.0371 18.6717C20.4976 18.3573 21.1342 18.0847 21.1342 18.0847C21.1342 18.0847 19.3215 18.4084 17.5164 18.5607C15.3075 18.7458 12.9362 18.7818 11.7467 18.6225Z" fill="#5382A1"/>
<path d="M12.8187 20.8569C11.2477 20.6944 12.2763 19.9329 12.2763 19.9329C8.21109 21.2822 14.5381 22.8123 20.2186 21.1512C19.6148 20.9383 19.2308 20.549 19.2308 20.549C16.4546 21.0836 14.8502 21.0665 12.8187 20.8569Z" fill="#5382A1"/>
<path d="M13.5029 23.2744C11.9331 23.0939 12.8502 22.5605 12.8502 22.5605C9.15998 23.5917 15.0948 25.7219 19.7931 23.7083C19.0236 23.4091 18.4726 23.0636 18.4726 23.0636C16.3767 23.4602 15.4047 23.4913 13.5029 23.2744Z" fill="#5382A1"/>
<path d="M23.3299 24.5041C23.3299 24.5041 24.0086 25.0633 22.5824 25.496C19.8705 26.3175 11.2952 26.5656 8.91303 25.5287C8.05669 25.1561 9.66257 24.6392 10.1677 24.5307C10.6945 24.4164 10.9956 24.4377 10.9956 24.4377C10.0433 23.7668 4.8401 25.755 8.35264 26.3244C17.9319 27.8779 25.8146 25.6249 23.3299 24.5041Z" fill="#5382A1"/>
<path d="M24.8502 25.7259C24.693 27.771 18.0559 28.2012 13.7338 27.9245C10.9141 27.7437 10.3491 27.2918 10.3408 27.2852C13.0394 27.7301 17.5892 27.8111 21.2782 27.1169C24.548 26.5012 24.8502 25.7259 24.8502 25.7259Z" fill="#5382A1"/>
<path d="M16.0364 10.3305C20.8953 6.49455 18.4016 4 18.4016 4C19.073 6.64406 17.269 8.05657 15.506 9.43705C14.6269 10.1254 13.7579 10.8058 13.2111 11.6269C12.0914 13.3081 13.7604 15.1145 16.0348 17.1665C15.8337 16.7121 15.5236 16.2704 15.2097 15.8233C14.1389 14.2985 13.0235 12.7099 16.0364 10.3305Z" fill="#E76F00"/>
<path d="M16.8119 18.0079C16.8119 18.0079 18.2737 16.8085 17.1161 15.4757C13.1919 10.954 21.4081 8.90202 21.4081 8.90202C16.3986 11.8074 17.069 12.7386 18.2411 14.3666C18.2937 14.4397 18.3473 14.5142 18.4014 14.5903C19.7514 16.4905 16.8119 18.0079 16.8119 18.0079Z" fill="#E76F00"/>
</svg>
