<svg width="24" height="24" viewBox="0 0 24 24" fill="none" xmlns="http://www.w3.org/2000/svg">
<path d="M20.9291 5.66416L12.4842 20.7651C12.3099 21.0768 11.8619 21.0787 11.685 20.7684L3.07264 5.66562C2.87983 5.32751 3.16895 4.91797 3.55209 4.98646L12.006 6.49755C12.0599 6.50718 12.1151 6.50709 12.1691 6.49727L20.4462 4.98862C20.8281 4.91902 21.1185 5.32539 20.9291 5.66416Z" fill="url(#paint0_linear_132_266323)"/>
<path d="M16.0331 3.00443L9.78367 4.22899C9.68096 4.24911 9.60491 4.33616 9.59871 4.44063L9.21428 10.9333C9.20524 11.0863 9.34568 11.2049 9.49494 11.1705L11.2349 10.769C11.3977 10.7314 11.5448 10.8748 11.5113 11.0385L10.9944 13.5699C10.9596 13.7402 11.1195 13.8859 11.2859 13.8354L12.3606 13.5089C12.5272 13.4583 12.6873 13.6044 12.652 13.7749L11.8305 17.751C11.7791 17.9997 12.1099 18.1354 12.2479 17.9221L12.3401 17.7797L17.4325 7.61693C17.5178 7.44677 17.3707 7.25274 17.1838 7.2888L15.3928 7.63446C15.2245 7.66691 15.0813 7.51017 15.1288 7.34551L16.2978 3.29324C16.3453 3.12829 16.2016 2.97142 16.0331 3.00443Z" fill="url(#paint1_linear_132_266323)"/>
<defs>
<linearGradient id="paint0_linear_132_266323" x1="2.86236" y1="6.2048" x2="11.9701" y2="18.5739" gradientUnits="userSpaceOnUse">
<stop stop-color="#41D1FF"/>
<stop offset="1" stop-color="#BD34FE"/>
</linearGradient>
<linearGradient id="paint1_linear_132_266323" x1="12.7895" y1="3.3369" x2="14.6631" y2="16.1896" gradientUnits="userSpaceOnUse">
<stop stop-color="#FFEA83"/>
<stop offset="0.0833333" stop-color="#FFDD35"/>
<stop offset="1" stop-color="#FFA800"/>
</linearGradient>
</defs>
</svg>
