<svg width="24" height="24" viewBox="0 0 24 24" fill="none" xmlns="http://www.w3.org/2000/svg">
<path d="M12.0001 3L19.9541 7.49925V16.5008L12.0001 21L4.04614 16.5008V7.49925L12.0001 3Z" fill="white"/>
<path d="M18.5345 16.1886L12.2643 19.7394V16.978L16.1723 14.826L18.5345 16.1886ZM18.9637 15.8014V8.38173L16.6705 9.70539V14.4778L18.9637 15.8014ZM5.44191 16.1886L11.712 19.7364V16.975L7.80409 14.826L5.44191 16.1886ZM5.0127 15.8014V8.38173L7.30584 9.70539V14.4778L5.0127 15.8014ZM5.27983 7.90149L11.712 4.26367V6.93501L7.59098 9.20114L7.55797 9.21915L5.27983 7.90149ZM18.6935 7.90149L12.2643 4.26367V6.93501L16.3824 9.20414L16.4154 9.22215L18.6935 7.90149Z" fill="#8ED6FB"/>
<path d="M11.7121 16.3477L7.85815 14.2256V10.0265L11.7121 12.2507V16.3477ZM12.2644 16.3477L16.1183 14.2286V10.0265L12.2644 12.2507V16.3477ZM8.11628 9.5403L11.9882 7.41223L15.8572 9.5403L11.9882 11.7734L8.11628 9.5403Z" fill="#1C78C0"/>
</svg>
