<svg width="600" height="600" viewBox="0 0 600 600" fill="none" xmlns="http://www.w3.org/2000/svg">
<path d="M347 26H522.5L586 92.5L563.5 182L436 257.5L430.5 575.5L347 566.5V26Z" fill="#6B7280"/>
<path d="M22.5 60.5L111.5 18L252 26L261.5 127L266.5 215.5V408L252 582L184 573.5L161.5 522V235.5L92 215.5L35.5 185.5L22.5 60.5Z" fill="#6B7280"/>
<path d="M83.3333 137.5C92.5381 137.5 100 130.038 100 120.833C100 111.629 92.5381 104.167 83.3333 104.167C74.1286 104.167 66.6667 111.629 66.6667 120.833C66.6667 130.038 74.1286 137.5 83.3333 137.5Z" fill="#374151"/>
<path d="M516.667 137.5C525.871 137.5 533.333 130.038 533.333 120.833C533.333 111.629 525.871 104.167 516.667 104.167C507.462 104.167 500 111.629 500 120.833C500 130.038 507.462 137.5 516.667 137.5Z" fill="#374151"/>
<path d="M216.367 0H120.667C54.1333 0 0 54.1333 0 121C0 187.533 54.1333 241.667 120.667 241.667H140.333C145.584 241.667 150 245.14 150 250.391V534.667C150 570.7 179.3 600 215.333 600C251.367 600 280.667 570.7 280.667 534.667V64.3C280.667 28.8333 251.833 0 216.367 0ZM120.667 208.333C72.5 208.333 33.3333 169.133 33.3333 120.667C33.3333 72.5333 72.5 33.3333 120.667 33.3333H216.367C233.433 33.3333 247.333 47.2333 247.333 64.3V101.333C247.333 107.667 246.8 113.867 245.733 119.933C238.433 162.2 206.533 196.333 163.2 206C155.533 207.5 147.667 208.333 140.333 208.333H120.667ZM233.867 206.267C238.777 201.868 247.333 205.18 247.333 211.773V534.667C247.333 552.3 232.967 566.667 215.333 566.667C197.7 566.667 183.333 552.3 183.333 534.667V241.605C183.333 237.712 185.749 233.988 189.4 232.633C192 231.667 194.533 230.667 197.067 229.567C201.667 227.533 206.067 225.233 210.367 222.767C212.433 221.567 214.567 220.5 216.567 219.233C222.333 215.533 227.833 211.467 232.933 207C233.233 206.733 233.567 206.533 233.867 206.267Z" fill="#374151"/>
<path d="M479.333 0H383.633C348.2 0 319.333 28.8333 319.333 64.3V534.667C319.333 570.7 348.633 600 384.667 600C420.7 600 450 570.7 450 534.667V250.421C450 245.153 454.399 241.667 459.667 241.667H479.333C545.867 241.667 600 187.533 600 120.667C600 54.1333 545.867 0 479.333 0ZM416.667 534.667C416.667 552.3 402.3 566.667 384.667 566.667C367.033 566.667 352.667 552.3 352.667 534.667V233.943C352.667 219.766 371.979 211.847 383.933 219.467C385.5 220.467 387.167 221.3 388.767 222.233C393.533 225.033 398.467 227.567 403.633 229.8C405.8 230.733 408 231.6 410.233 232.433C414.085 233.915 416.667 237.802 416.667 241.929V534.667ZM479.333 208.333H459.667C452.267 208.333 444.3 207.533 436.933 206.067C387.333 195.067 352.667 152 352.667 101.333V64.3C352.667 47.2333 366.567 33.3333 383.633 33.3333H479.333C527.5 33.3333 566.667 72.5333 566.667 121C566.667 169.133 527.5 208.333 479.333 208.333Z" fill="#374151"/>
<path d="M215.333 391.667C206.133 391.667 198.667 399.133 198.667 408.333V500C198.667 509.2 206.133 516.667 215.333 516.667C224.533 516.667 232 509.2 232 500V408.333C232 399.133 224.533 391.667 215.333 391.667Z" fill="#374151"/>
<path d="M384.667 391.667C375.467 391.667 368 399.133 368 408.333V500C368 509.2 375.467 516.667 384.667 516.667C393.867 516.667 401.333 509.2 401.333 500V408.333C401.333 399.133 393.867 391.667 384.667 391.667Z" fill="#374151"/>
</svg>
