<svg width="287" height="205" viewBox="0 0 287 205" fill="none" xmlns="http://www.w3.org/2000/svg">
<rect x="4" y="4" width="279" height="197" rx="32" stroke="#9CA3AF" stroke-width="8"/>
<rect y="56" width="280" height="47" fill="#9CA3AF"/>
<rect x="189" y="135" width="79" height="31" rx="2" fill="white"/>
<path d="M211.136 144.364L213.045 147.75H213.136L215.068 144.364H218.591L215.114 150.182L218.727 156H215.114L213.136 152.545H213.045L211.068 156H207.477L211.045 150.182L207.591 144.364H211.136ZM226.527 144.364L228.436 147.75H228.527L230.459 144.364H233.982L230.504 150.182L234.118 156H230.504L228.527 152.545H228.436L226.459 156H222.868L226.436 150.182L222.982 144.364H226.527ZM241.918 144.364L243.827 147.75H243.918L245.849 144.364H249.372L245.895 150.182L249.509 156H245.895L243.918 152.545H243.827L241.849 156H238.259L241.827 150.182L238.372 144.364H241.918Z" fill="#111928"/>
<path d="M258.5 151C258.5 157.237 255.2 163.058 249.523 167.399C243.844 171.742 235.889 174.5 227 174.5C218.111 174.5 210.156 171.742 204.477 167.399C198.8 163.058 195.5 157.237 195.5 151C195.5 144.763 198.8 138.942 204.477 134.601C210.156 130.258 218.111 127.5 227 127.5C235.889 127.5 243.844 130.258 249.523 134.601C255.2 138.942 258.5 144.763 258.5 151Z" stroke="#E71717" stroke-width="5"/>
</svg>
