<svg width="701" height="419" viewBox="0 0 701 419" fill="none" xmlns="http://www.w3.org/2000/svg">
<path d="M209.5 145.5L259.5 9L281.5 3.5H487H686.5L697.5 17L641.5 242L695 358.5L589.5 382L463.5 415L420 410L29 355L19.5 349L149.5 327L166.5 320L152.5 306.5L159.5 280L209.5 145.5Z" fill="#C5C6C8"/>
<path fill-rule="evenodd" clip-rule="evenodd" d="M639.275 237.808C640.825 237.061 642.694 237.716 643.444 239.272L699.694 356.385C700.106 357.247 700.1 358.25 699.681 359.109C699.262 359.967 698.475 360.587 697.544 360.791L632.744 374.928C632.406 375.001 632.062 375.019 631.725 374.98L184.022 324.087C182.307 323.892 181.075 322.344 181.27 320.629C181.465 318.914 183.013 317.682 184.728 317.877L631.912 368.711L692.344 355.527L637.806 241.978C637.062 240.422 637.719 238.555 639.275 237.808Z" fill="#EDEEF0"/>
<path fill-rule="evenodd" clip-rule="evenodd" d="M274.162 6.25C267.602 6.25 261.739 10.3487 259.487 16.5112L155.288 301.608C153.199 307.325 157.026 313.486 163.077 314.146L585.512 360.193C596.256 361.363 606.237 354.519 609.019 344.079L693.819 25.8987C696.462 15.98 688.987 6.25 678.725 6.25H274.162ZM253.617 14.3656C256.77 5.73875 264.977 0 274.162 0H678.725C693.094 0 703.562 13.6219 699.862 27.5081L615.062 345.689C611.481 359.111 598.644 367.911 584.837 366.406L162.4 320.359C152.315 319.26 145.935 308.991 149.418 299.463L253.617 14.3656Z" fill="#EDEEF0"/>
<path fill-rule="evenodd" clip-rule="evenodd" d="M269.599 20.7975C270.051 19.5675 271.222 18.75 272.533 18.75H678.125C679.1 18.75 680.013 19.2025 680.606 19.9744C681.194 20.7463 681.394 21.7488 681.144 22.6875L595.287 341.437C594.887 342.922 593.469 343.895 591.937 343.732L171.545 299.048C170.587 298.946 169.73 298.409 169.221 297.591C168.713 296.773 168.609 295.767 168.942 294.863L269.599 20.7975ZM274.714 25L176.19 293.256L589.944 337.236L674.05 25H274.714Z" fill="#EDEEF0"/>
<path fill-rule="evenodd" clip-rule="evenodd" d="M653.981 150.12C655.644 150.594 656.606 152.324 656.131 153.984L643.631 197.734C643.156 199.393 641.425 200.354 639.769 199.88C638.106 199.406 637.144 197.676 637.619 196.016L650.119 152.266C650.594 150.607 652.325 149.646 653.981 150.12Z" fill="#EDEEF0"/>
<path fill-rule="evenodd" clip-rule="evenodd" d="M181.901 318.789C182.181 318.744 182.465 318.738 182.747 318.771L628.481 369.907C629.981 370.079 631.144 371.296 631.244 372.8C631.344 374.304 630.356 375.667 628.9 376.039L461.746 418.653C461.35 418.754 460.938 418.776 460.533 418.719L2.68347 353.377C1.15278 353.159 0.0119695 351.854 9.448e-05 350.308C-0.011843 348.762 1.10872 347.439 2.63584 347.197L181.901 318.789ZM182.458 325.028L24.1106 350.122L460.802 412.444L610.894 374.18L182.458 325.028Z" fill="#EDEEF0"/>
</svg>
