<svg width="777" height="1012" viewBox="0 0 777 1012" fill="none" xmlns="http://www.w3.org/2000/svg">
<rect x="14" y="10" width="748" height="992" rx="54" stroke="#374151" stroke-width="20"/>
<path d="M1 121.396C1 120.625 1.62515 120 2.39631 120H4.78034V156.77H2.39631C1.62515 156.77 1 156.144 1 155.373V121.396Z" fill="#374151"/>
<path d="M0 183.166C0 182.395 0.62515 181.77 1.39631 181.77H4.70712V250.189H1.39631C0.625149 250.189 0 249.564 0 248.792V183.166Z" fill="#374151"/>
<path d="M0 276.586C0 275.815 0.62515 275.189 1.39631 275.189H4.70712V343.609H1.39631C0.625149 343.609 0 342.984 0 342.212V276.586Z" fill="#374151"/>
<path d="M776.707 121.396C776.707 120.625 776.082 120 775.311 120H772V229.378H775.311C776.082 229.378 776.707 228.753 776.707 227.981V121.396Z" fill="#374151"/>
<rect x="24" y="20" width="728" height="972" rx="43" fill="#6B7280"/>
<path d="M272 19H503.232V30.1705C503.232 43.0232 492.812 53.4423 479.96 53.4423H295.272C282.419 53.4423 272 43.0232 272 30.1705V19Z" fill="#374151"/>
</svg>
