<svg width="777" height="1012" viewBox="0 0 777 1012" fill="none" xmlns="http://www.w3.org/2000/svg">
<rect x="14" y="10" width="748" height="992" rx="54" fill="white"/>
<rect x="14" y="10" width="748" height="992" rx="54" stroke="#EDEEF0" stroke-width="20"/>
<path d="M1 121.396C1 120.625 1.62515 120 2.39631 120H4.78034V156.77H2.39631C1.62515 156.77 1 156.144 1 155.373V121.396Z" fill="#C5C6C8"/>
<path d="M0 183.166C0 182.395 0.62515 181.77 1.39631 181.77H4.70712V250.189H1.39631C0.625149 250.189 0 249.564 0 248.792V183.166Z" fill="#C5C6C8"/>
<path d="M0 276.586C0 275.815 0.62515 275.189 1.39631 275.189H4.70712V343.609H1.39631C0.625149 343.609 0 342.984 0 342.212V276.586Z" fill="#C5C6C8"/>
<path d="M776.707 121.396C776.707 120.625 776.082 120 775.311 120H772V229.378H775.311C776.082 229.378 776.707 228.753 776.707 227.981V121.396Z" fill="#C5C6C8"/>
<path d="M21.0986 66.5984C21.0442 40.0503 42.5504 18.5 69.0985 18.5H707.401C733.95 18.5 755.456 40.0504 755.401 66.5984L753.598 946.098C753.544 972.57 732.07 994 705.598 994H70.9017C44.4304 994 22.9561 972.57 22.9018 946.098L21.0986 66.5984Z" fill="#C5C6C8"/>
<path d="M272 18H503.232V29.1705C503.232 42.0232 492.812 52.4423 479.96 52.4423H295.272C282.419 52.4423 272 42.0232 272 29.1705V18Z" fill="#EDEEF0"/>
</svg>
