<svg width="300" height="340" viewBox="0 0 300 340" fill="none" xmlns="http://www.w3.org/2000/svg">
<rect width="300" height="340" rx="140" fill="#EDEEF0"/>
<path d="M200 0H100C44.772 0 0 44.772 0 100V240C0 295.228 44.772 340 100 340H200C255.228 340 300 295.228 300 240V100C300 44.772 255.228 0 200 0ZM270 240C270 278.6 238.6 310 200 310H100C61.4 310 30 278.6 30 240V100C30 61.4 61.4 30 100 30H200C238.6 30 270 61.4 270 100V240Z" fill="#C5C6C8"/>
<path d="M96 53C68.43 53 46 75.43 46 103C46 130.57 68.43 153 96 153C123.57 153 146 130.57 146 103C146 75.43 123.57 53 96 53ZM96 136.333C77.62 136.333 62.6667 121.38 62.6667 103C62.6667 84.62 77.62 69.6667 96 69.6667C114.38 69.6667 129.333 84.62 129.333 103C129.333 121.38 114.38 136.333 96 136.333Z" fill="#C5C6C8"/>
<path d="M203 119C175.43 119 153 141.43 153 169C153 196.57 175.43 219 203 219C230.57 219 253 196.57 253 169C253 141.43 230.57 119 203 119ZM203 202.333C184.62 202.333 169.667 187.38 169.667 169C169.667 150.62 184.62 135.667 203 135.667C221.38 135.667 236.333 150.62 236.333 169C236.333 187.38 221.38 202.333 203 202.333Z" fill="#C5C6C8"/>
<path d="M96 188C68.43 188 46 210.43 46 238C46 265.57 68.43 288 96 288C123.57 288 146 265.57 146 238C146 210.43 123.57 188 96 188ZM96 271.333C77.62 271.333 62.6667 256.38 62.6667 238C62.6667 219.62 77.62 204.667 96 204.667C114.38 204.667 129.333 219.62 129.333 238C129.333 256.38 114.38 271.333 96 271.333Z" fill="#C5C6C8"/>
<path d="M203 53C191.971 53 183 61.9707 183 73C183 84.0293 191.971 93 203 93C214.029 93 223 84.0293 223 73C223 61.9707 214.029 53 203 53ZM203 79.6667C199.323 79.6667 196.333 76.6773 196.333 73C196.333 69.3253 199.323 66.3333 203 66.3333C206.677 66.3333 209.667 69.3253 209.667 73C209.667 76.6773 206.677 79.6667 203 79.6667Z" fill="#C5C6C8"/>
<path d="M203 255C195.831 255 190 260.831 190 268C190 275.169 195.831 281 203 281C210.169 281 216 275.169 216 268C216 260.831 210.169 255 203 255ZM203 272.333C200.61 272.333 198.667 270.39 198.667 268C198.667 265.611 200.61 263.667 203 263.667C205.39 263.667 207.333 265.611 207.333 268C207.333 270.39 205.39 272.333 203 272.333Z" fill="#C5C6C8"/>
</svg>
