<svg width="1015" height="3800" viewBox="0 0 1015 3800" fill="none" xmlns="http://www.w3.org/2000/svg">
<path d="M719.439 2222.53H177.223V3703.88H719.439V2222.53Z" fill="#374151"/>
<path fill-rule="evenodd" clip-rule="evenodd" d="M85.1726 320.333C85.1726 267.44 76.3925 233.029 111.893 224.535C263.203 188.314 151.833 145.322 359.973 150.727L376.863 320.333H85.1726Z" fill="#374151"/>
<path fill-rule="evenodd" clip-rule="evenodd" d="M85.1748 320.333L376.865 320.791C376.995 320.791 377.105 320.736 377.195 320.641C377.275 320.544 377.325 320.418 377.315 320.289L360.735 150.652C360.705 150.27 360.385 149.978 359.995 149.968C306.855 148.473 274.485 150.185 253.265 154.14C229.405 158.587 219.475 165.872 210.005 174.662C194.895 188.713 181.015 206.699 111.545 223.089C97.6748 226.356 90.2848 233.471 86.3948 243.921C80.1148 260.825 83.4248 286.923 83.3048 320.333H85.1748ZM87.0548 320.331C86.9448 287.417 83.3448 261.723 89.4048 245.027C92.8748 235.486 99.6347 229.045 112.245 225.979C182.425 208.935 196.325 190.606 211.535 176.298C220.705 167.67 230.375 160.538 253.625 156.09C274.665 152.064 306.725 150.241 359.295 151.469L376.355 319.877L87.0548 320.331Z" fill="#6B7280"/>
<path fill-rule="evenodd" clip-rule="evenodd" d="M100.542 393.141C100.542 340.248 46.9017 274.756 105.572 250.996C249.782 192.602 127.522 121.307 335.672 126.711L348.612 489.064L100.542 393.141Z" fill="#374151"/>
<path fill-rule="evenodd" clip-rule="evenodd" d="M100.543 393.141L348.383 489.648C348.573 489.723 348.803 489.695 348.973 489.575C349.143 489.452 349.243 489.253 349.223 489.041L337.203 126.656C337.173 125.844 336.513 125.196 335.703 125.176C276.203 123.462 243.503 128.133 223.853 136.918C203.893 145.839 197.093 158.959 189.673 174.257C182.833 188.39 175.443 204.464 155.493 220.528C143.703 230.024 127.533 239.482 104.603 248.6C83.993 256.727 76.383 269.873 75.223 285.71C74.043 301.771 79.903 320.865 85.843 340.574C91.163 358.206 96.5531 376.346 96.3831 393.141H100.543ZM104.713 393.141C104.513 375.593 98.6131 356.738 92.6731 338.436C86.5731 319.664 80.423 301.509 81.243 286.093C81.993 272.243 88.6731 260.82 106.543 253.394C129.913 243.758 146.313 233.804 158.293 223.961C178.713 207.178 186.333 190.634 193.303 175.999C200.243 161.45 206.513 148.867 225.383 140.296C244.543 131.59 276.403 126.964 334.193 128.212C334.193 128.212 347.163 467.845 347.943 488.139C331.783 481.936 100.543 393.141 100.543 393.141H104.713Z" fill="#6B7280"/>
<path fill-rule="evenodd" clip-rule="evenodd" d="M140.654 535.164C124.594 505.723 63.2839 379.69 76.6539 326.574C79.3939 315.715 88.0939 306.127 99.5339 299.809C160.694 266.036 184.184 224.121 194.554 177.324C212.714 95.4229 350.204 535.164 350.204 535.164H140.654Z" fill="#374151"/>
<path fill-rule="evenodd" clip-rule="evenodd" d="M140.655 535.164L350.205 536.021C350.475 536.021 350.725 535.893 350.895 535.672C351.055 535.452 351.105 535.17 351.015 534.909C351.015 534.909 286.845 326.69 240.715 223.141C226.905 192.149 214.405 170.499 205.865 165.871C199.975 162.677 194.725 165.144 192.095 176.777C186.365 202.113 176.765 225.985 159.205 247.829C144.855 265.699 125.175 282.197 98.0153 297.062C92.2053 300.24 87.0652 304.224 82.9552 308.762C78.3552 313.84 75.0553 319.624 73.4753 325.776C68.0153 347.207 74.2452 380.348 85.0652 414.397C101.335 465.633 127.735 519.005 137.475 536.902L140.655 535.164ZM143.835 533.428C134.175 515.728 108.055 462.911 91.7653 412.252C81.2653 379.636 74.7152 347.955 79.8252 327.374C81.1052 322.198 83.8953 317.345 87.7353 313.048C91.3553 308.985 95.9053 305.421 101.045 302.555C128.895 287.039 148.995 269.869 163.645 251.361C181.565 228.702 191.325 204.035 197.015 177.871C197.605 175.173 198.315 173.097 199.185 171.619C199.805 170.564 200.425 169.849 201.245 169.671C203.455 169.189 205.885 171.429 209.005 175.07C220.435 188.368 236.145 221.655 252.975 262.846C295.325 366.437 344.415 519.825 349.025 534.313C332.245 534.382 140.655 535.164 140.655 535.164L143.835 533.428Z" fill="#6B7280"/>
<path fill-rule="evenodd" clip-rule="evenodd" d="M112.463 543.536C112.463 490.641 36.353 405.583 104.503 359.654C161.953 320.928 182.253 274.217 192.623 229.812C212.413 145.084 200.253 190.883 336.833 194.429L350.823 592.551L112.463 543.536Z" fill="#374151"/>
<path fill-rule="evenodd" clip-rule="evenodd" d="M112.463 543.536L350.663 593.31C350.893 593.359 351.143 593.296 351.323 593.144C351.503 592.99 351.603 592.762 351.593 592.525L338.933 194.354C338.893 193.24 337.993 192.347 336.883 192.317C285.903 190.812 255.763 183.466 236.943 179.311C223.983 176.451 216.053 175.286 210.423 177.836C205.933 179.866 202.653 184.153 199.713 192.128C196.783 200.071 194.013 211.943 189.913 229.18C184.153 253.339 175.463 278.199 159.193 301.977C146.033 321.221 127.903 339.732 102.473 356.645C80.5927 371.032 72.5927 389.379 71.8727 409.437C70.9327 435.421 82.8127 464.566 93.0727 491.834C100.143 510.644 106.433 528.476 106.223 543.536H112.463ZM118.713 543.536C118.483 527.221 111.433 508.019 103.193 487.864C92.6527 462.044 80.1927 434.534 80.4827 409.643C80.6827 391.975 87.5628 375.759 106.523 362.662C132.563 344.876 151.003 325.499 164.383 305.487C180.833 280.885 189.633 255.316 195.333 230.444C199.233 213.466 201.843 201.766 204.663 193.935C206.903 187.717 209.083 184.119 212.553 182.514C217.503 180.23 224.463 181.715 235.893 184.147C254.653 188.143 284.563 195.203 334.793 196.491C334.793 196.491 349.173 569.921 350.013 591.597L112.463 543.536H118.713Z" fill="#6B7280"/>
<path fill-rule="evenodd" clip-rule="evenodd" d="M95.9844 642.007C95.9844 589.113 39.0645 483.325 105.524 435.011C258.634 323.736 125.264 141.17 333.414 146.572L351.644 666.83L95.9844 642.007Z" fill="#374151"/>
<path fill-rule="evenodd" clip-rule="evenodd" d="M95.9842 642.007L351.564 667.632C351.784 667.654 352.024 667.575 352.184 667.417C352.354 667.259 352.454 667.034 352.444 666.802L335.934 146.485C335.884 145.154 334.814 144.089 333.484 144.054C270.954 142.207 238.654 157.419 220.054 182.204C204.104 203.449 198.294 231.99 192.364 263.562C182.104 318.207 171.464 382.235 102.944 431.45C81.7642 446.474 72.1742 467.056 69.0642 490.02C65.1042 519.372 72.0643 552.785 78.9043 583.159C83.9443 605.577 88.9143 626.238 88.6843 642.007H95.9842ZM103.274 642.007C103.034 625.361 97.3442 603.677 91.3742 580.17C84.0242 551.272 76.2442 519.477 79.3242 491.276C81.5742 470.831 89.6342 452.341 108.124 438.571C166.804 395.387 183.784 342.139 193.634 292.776C201.924 251.267 204.954 212.587 224.794 185.736C242.194 162.192 272.654 148.127 330.994 149.045C330.994 149.047 349.874 641.83 350.794 665.945L95.9842 642.007H103.274Z" fill="#6B7280"/>
<path fill-rule="evenodd" clip-rule="evenodd" d="M84.9024 665.884C84.9024 612.991 54.5324 561.402 112.022 517.334C271.942 394.753 107.092 212.003 315.242 217.406L358.342 750.231L84.9024 665.884Z" fill="#374151"/>
<path fill-rule="evenodd" clip-rule="evenodd" d="M84.9026 665.884L358.033 751.221C358.373 751.321 358.723 751.254 359.003 751.039C359.263 750.823 359.403 750.49 359.373 750.148L318.303 217.157C318.173 215.588 316.893 214.366 315.313 214.326C248.373 212.297 219.013 229.93 204.933 258.102C193.703 280.588 192.383 310.274 189.803 343.085C186.993 378.788 182.663 418.379 160.673 455.911C149.033 475.76 132.363 494.939 108.513 512.743C84.9726 530.231 75.0526 549.204 71.4826 568.923C65.9226 599.604 77.1225 632.581 76.5725 665.884H84.9026ZM93.2326 665.884C92.9626 649.346 89.8526 632.98 87.2326 616.91C84.6926 601.299 82.5626 585.998 84.7826 571.119C87.3326 554.026 95.7126 537.601 115.553 521.924C140.193 502.53 157.083 481.794 168.943 460.652C190.933 421.417 195.313 380.619 197.813 343.674C199.973 311.912 200.743 283.148 211.413 261.303C224.193 235.125 251.473 219.59 312.403 220.438C312.403 220.438 354.553 717.726 357.183 748.797L84.9026 665.884H93.2326Z" fill="#6B7280"/>
<path fill-rule="evenodd" clip-rule="evenodd" d="M95.0932 801.533C95.0932 748.638 62.2232 662.814 116.783 615.387C268.853 483.193 131.793 317.693 339.933 323.098L365.013 843.871L95.0932 801.533Z" fill="#374151"/>
<path fill-rule="evenodd" clip-rule="evenodd" d="M95.0942 801.533L364.864 844.841C365.154 844.887 365.444 844.8 365.664 844.602C365.884 844.405 366.004 844.12 365.994 843.824L342.894 322.956C342.814 321.409 341.554 320.18 340.004 320.141C275.394 318.193 243.314 332.904 225.414 357.456C210.034 378.569 205.194 407.314 199.554 439.987C193.594 474.481 186.684 513.513 163.944 552.118C152.084 572.241 135.854 592.188 113.304 611.383C90.3143 630.797 81.5243 656.667 79.2643 684.352C75.9643 724.827 87.2843 769.35 86.7543 801.533H95.0942ZM103.424 801.533C102.904 769.498 90.0042 725.574 92.0742 685.201C93.3342 660.534 100.324 637.229 120.264 619.391C143.324 598.932 159.694 577.758 171.714 556.616C194.424 516.66 201.364 476.7 207.134 441.259C212.264 409.762 216.404 381.968 231.034 361.519C247.584 338.409 277.574 325.119 337.124 326.004L363.964 842.72L95.0942 801.533H103.424Z" fill="#6B7280"/>
<path fill-rule="evenodd" clip-rule="evenodd" d="M140.794 885.017C140.794 832.124 12.4036 844.284 142.864 700.564C283.494 545.641 182.914 228.93 391.064 234.333V926.109L140.794 885.017Z" fill="#374151"/>
<path fill-rule="evenodd" clip-rule="evenodd" d="M140.793 885.017L390.953 926.739C391.153 926.769 391.333 926.719 391.483 926.599C391.623 926.479 391.703 926.299 391.703 926.109L393.533 234.333C393.533 232.993 392.463 231.899 391.123 231.863C317.133 229.73 281.293 267.622 259.873 324.562C228.373 408.261 228.953 534.14 182.423 632.326C171.223 655.987 157.153 677.957 139.283 697.314C98.0333 741.812 81.9033 772.031 78.8433 793.717C75.2333 819.235 88.5433 834.309 103.873 847.319C110.993 853.355 118.533 858.898 124.423 865.127C129.713 870.729 133.593 876.9 133.493 885.017H140.793ZM148.083 885.017C147.873 867.025 135.533 855.24 121.073 843.927C105.743 831.94 87.7433 820.345 90.7433 795.265C93.1733 774.8 108.513 746.489 146.443 703.815C164.593 683.473 178.653 660.456 189.953 635.836C235.393 536.795 234.383 410.779 265.423 326.632C285.423 272.406 319.113 235.994 388.593 236.762L390.423 925.359L140.793 885.017H148.083Z" fill="#6B7280"/>
<path fill-rule="evenodd" clip-rule="evenodd" d="M110.855 1039.61C110.855 986.719 64.4745 925.979 140.485 830.832C271.085 667.362 180.535 593.34 388.685 598.743V1056.38L110.855 1039.61Z" fill="#374151"/>
<path fill-rule="evenodd" clip-rule="evenodd" d="M110.852 1039.61L388.592 1057.9C389.012 1057.93 389.422 1057.78 389.732 1057.49C390.032 1057.2 390.202 1056.8 390.202 1056.38L392.712 598.743C392.712 596.56 390.972 594.776 388.792 594.719C300.802 591.953 264.912 604.102 243.492 630.051C230.762 645.47 223.132 666.02 212.922 691.912C199.142 726.876 180.332 771.824 135.732 827.035C103.942 866.381 92.7523 900.179 90.5323 929.999C88.6623 954.909 93.1722 977.089 97.4622 997.529C100.592 1012.39 103.632 1026.27 103.562 1039.61H110.852ZM118.142 1039.61C118.062 1025.3 114.772 1010.45 111.252 994.549C106.982 975.309 102.372 954.449 103.872 930.919C105.642 903.109 116.012 871.624 145.232 834.631C190.212 777.704 208.972 731.575 222.662 695.685C232.132 670.85 239.002 651.045 251.002 636.186C270.692 611.786 304.182 601.39 384.682 602.695C384.912 645.771 387.002 1026.9 387.162 1054.77L110.852 1039.61H118.142Z" fill="#6B7280"/>
<path fill-rule="evenodd" clip-rule="evenodd" d="M118.975 1172.34C118.975 1119.45 78.795 1051.06 154.805 955.909C285.405 792.436 194.865 718.414 403.015 723.817V1181.45L118.975 1172.34Z" fill="#374151"/>
<path fill-rule="evenodd" clip-rule="evenodd" d="M118.973 1172.34L402.953 1182.99C403.373 1183.01 403.773 1182.85 404.073 1182.56C404.373 1182.27 404.543 1181.87 404.543 1181.45L407.023 723.817C407.023 721.64 405.283 719.858 403.113 719.801C315.133 717.041 279.253 729.188 257.823 755.136C245.093 770.554 237.463 791.104 227.263 816.991C213.483 851.96 194.683 896.911 150.073 952.129C118.173 991.629 105.983 1026.79 102.623 1058.2C97.7934 1103.34 111.863 1140.65 111.673 1172.34H118.973ZM126.263 1172.34C126.093 1140.99 111.613 1104.25 115.893 1059.55C118.733 1030.06 130.013 997.059 159.533 959.689C204.513 902.769 223.273 856.639 236.963 820.753C246.433 795.916 253.303 776.109 265.313 761.248C285.003 736.846 318.503 726.45 399.013 727.762L401.463 1179.87L118.973 1172.34H126.263Z" fill="#6B7280"/>
<path fill-rule="evenodd" clip-rule="evenodd" d="M129.283 1291.64C128.103 1251.87 76.933 1220.01 182.353 1077.16C279.843 945.069 207.003 857.856 401.883 863.259V1320.89L129.283 1291.64Z" fill="#374151"/>
<path fill-rule="evenodd" clip-rule="evenodd" d="M129.285 1291.64L401.725 1322.42C402.155 1322.46 402.575 1322.32 402.905 1322.03C403.225 1321.74 403.415 1321.33 403.415 1320.89L405.965 863.259C405.965 861.048 404.205 859.239 401.995 859.178C326.665 856.669 290.345 868.466 268.775 890.592C254.845 904.909 246.985 923.709 239.025 946.389C227.025 980.609 214.615 1023.95 177.525 1073.6C135.495 1129.91 117.765 1169.4 111.665 1198.91C105.395 1229.19 111.105 1249.38 116.385 1266.59C119.125 1275.5 121.795 1283.49 122.005 1291.86L129.285 1291.64ZM136.575 1291.43C136.245 1281.78 133.265 1272.56 130.005 1262.33C125.095 1246.92 119.615 1228.85 124.945 1201.58C130.495 1173.18 147.415 1135.24 187.185 1080.72C224.575 1029.44 236.945 984.959 248.845 949.769C256.015 928.539 262.915 910.809 275.755 897.316C295.545 876.545 329.175 866.153 397.815 867.265C397.815 867.265 400.175 1289.08 400.345 1319.2C377.355 1316.86 129.285 1291.64 129.285 1291.64L136.575 1291.43Z" fill="#6B7280"/>
<path fill-rule="evenodd" clip-rule="evenodd" d="M149.555 1454.9C148.365 1415.13 70.9349 1408.3 197.945 1225.31C291.815 1090.07 222.595 1006 417.475 1011.4V1469.04L149.555 1454.9Z" fill="#374151"/>
<path fill-rule="evenodd" clip-rule="evenodd" d="M149.553 1454.9L417.393 1470.52C417.803 1470.54 418.193 1470.39 418.493 1470.11C418.783 1469.83 418.952 1469.45 418.952 1469.04L421.473 1011.4C421.473 1009.24 419.752 1007.46 417.582 1007.4C342.522 1004.91 305.712 1016.14 283.702 1037.73C269.342 1051.84 261.172 1070.5 253.092 1093.25C240.962 1127.4 228.843 1171.06 193.103 1221.94C148.823 1284.99 128.883 1327.51 121.683 1357.66C112.673 1395.34 122.773 1414.88 132.123 1430.78C137.023 1439.12 142.043 1446.1 142.263 1455.12L149.553 1454.9ZM156.832 1454.68C156.432 1443.2 150.733 1434.05 144.363 1423.49C136.173 1409.91 127.413 1393.2 134.793 1360.72C141.453 1331.44 160.583 1290.2 202.793 1228.67C238.713 1176.3 250.723 1131.62 262.723 1096.61C270.013 1075.35 277.183 1057.77 290.413 1044.49C310.683 1024.16 344.843 1014.19 413.493 1015.33L415.983 1467.49L149.553 1454.9L156.832 1454.68Z" fill="#6B7280"/>
<path fill-rule="evenodd" clip-rule="evenodd" d="M155.254 1626.53C154.064 1586.76 81.974 1562.96 208.804 1382.8C292.454 1263.98 233.454 1163.49 428.334 1168.9V1626.53H155.254Z" fill="#374151"/>
<path fill-rule="evenodd" clip-rule="evenodd" d="M155.255 1626.53L428.335 1628.02C429.155 1628.02 429.825 1627.35 429.825 1626.53L432.315 1168.9C432.315 1166.74 430.595 1164.98 428.445 1164.92C356.895 1162.54 318.775 1174.74 295.205 1196.36C275.245 1214.67 265.585 1239.94 255.325 1269.81C244.255 1302.03 232.295 1339.74 204.035 1379.43C157.545 1444.71 137.225 1489.86 130.125 1522.67C122.105 1559.8 130.555 1581.88 138.605 1599.53C143.115 1609.41 147.735 1617.58 147.965 1626.75L155.255 1626.53ZM162.545 1626.31C162.155 1615.3 157.065 1605.35 151.525 1593.54C144.205 1577.97 136.505 1558.46 143.265 1525.44C149.785 1493.6 169.275 1449.84 213.585 1386.16C242.155 1345.1 254.115 1306.31 265.125 1273.12C274.495 1244.85 282.995 1220.75 301.625 1203.29C323.405 1182.88 358.785 1171.79 424.375 1172.8L426.835 1625.05L155.255 1626.53L162.545 1626.31Z" fill="#6B7280"/>
<path fill-rule="evenodd" clip-rule="evenodd" d="M155.255 1806.53C154.065 1766.76 128.595 1670 205.655 1559.38C298.135 1426.64 248.025 1386.08 428.335 1392.63V1806.53H155.255Z" fill="#374151"/>
<path fill-rule="evenodd" clip-rule="evenodd" d="M155.253 1806.53L428.333 1808.12C429.203 1808.12 429.913 1807.41 429.913 1806.53L432.323 1392.63C432.323 1390.48 430.623 1388.72 428.473 1388.64C362.913 1385.88 327.263 1389.69 304.163 1401.51C286.393 1410.6 275.733 1424.35 264.983 1443.8C250.593 1469.84 235.863 1506.51 200.913 1556.08C170.663 1598.96 155.693 1639.89 148.753 1676.36C137.603 1734.92 147.363 1781.88 147.963 1806.75L155.253 1806.53ZM162.543 1806.31C161.673 1781.98 151.373 1736.15 161.613 1678.73C167.873 1643.65 181.843 1604.2 210.403 1562.69C245.113 1512.25 259.593 1475.07 273.823 1448.61C283.313 1430.96 292.563 1418.25 308.503 1409.87C330.173 1398.46 363.593 1394.83 424.363 1396.5L426.733 1804.95C404.413 1805.08 155.253 1806.53 155.253 1806.53L162.543 1806.31Z" fill="#6B7280"/>
<path fill-rule="evenodd" clip-rule="evenodd" d="M175.254 1946.53C174.064 1906.76 145.494 1813.7 216.114 1716.54C308.874 1588.9 268.024 1498.79 448.334 1505.34V1946.53H175.254Z" fill="#374151"/>
<path fill-rule="evenodd" clip-rule="evenodd" d="M175.253 1946.53L448.333 1948.28C449.303 1948.28 450.083 1947.5 450.083 1946.53L452.913 1505.34C452.913 1502.87 450.963 1500.85 448.503 1500.76C376.873 1497.7 339.203 1510.2 314.243 1533.58C295.173 1551.44 283.513 1575.89 270.073 1605.47C256.133 1636.17 240.103 1672.52 210.623 1712.55C181.663 1751.86 168.683 1790.63 163.573 1825.66C155.883 1878.35 166.343 1922.46 166.923 1946.78L175.253 1946.53ZM183.583 1946.28C182.713 1922.47 171.683 1879.44 178.553 1827.75C182.943 1794.65 194.773 1757.96 221.603 1720.53C251.213 1679.24 267.173 1641.91 281.023 1610.35C293.403 1582.15 303.903 1558.68 321.763 1541.51C344.503 1519.66 379.063 1508.4 443.783 1509.8C443.783 1509.8 446.373 1914.9 446.573 1944.79L175.253 1946.53L183.583 1946.28Z" fill="#6B7280"/>
<path fill-rule="evenodd" clip-rule="evenodd" d="M175.252 2118.56C174.062 2079.55 147.882 1986.23 226.652 1873.65C315.162 1747.16 268.022 1706.2 448.332 1712.62V2118.56H175.252Z" fill="#374151"/>
<path fill-rule="evenodd" clip-rule="evenodd" d="M175.253 2118.56L448.333 2120.16C449.223 2120.16 449.933 2119.44 449.933 2118.56L452.323 1712.62C452.323 1710.47 450.623 1708.71 448.473 1708.63C385.183 1706 349.443 1709.52 326.013 1720.21C307.353 1728.72 296.173 1741.69 285.453 1759.98C270.583 1785.37 256.553 1821.45 221.923 1870.33C191.473 1913.31 176.213 1953.62 169.003 1989.28C157.133 2048.04 167.353 2094.14 167.963 2118.78L175.253 2118.56ZM182.543 2118.34C181.663 2094.27 170.913 2049.34 181.833 1991.8C188.353 1957.45 202.633 1918.59 231.393 1876.97C259.153 1836.8 273.503 1805.21 285.733 1780.94C298.323 1755.93 308.343 1738.92 329.963 1728.75C352.003 1718.38 385.563 1714.93 444.363 1716.5L446.713 2116.96L175.253 2118.56L182.543 2118.34Z" fill="#6B7280"/>
<path fill-rule="evenodd" clip-rule="evenodd" d="M175.252 2278.54C174.062 2240.88 148.322 2151.26 226.652 2042.46C315.422 1919.18 268.022 1854.9 448.332 1861.1V2278.54H175.252Z" fill="#374151"/>
<path fill-rule="evenodd" clip-rule="evenodd" d="M811.483 320.333C811.483 267.44 820.263 233.029 784.773 224.535C633.453 188.314 744.823 145.322 536.683 150.727L519.793 320.333H811.483Z" fill="#374151"/>
<path fill-rule="evenodd" clip-rule="evenodd" d="M813.353 320.333C813.233 286.923 816.543 260.825 810.263 243.921C806.373 233.471 798.983 226.356 785.113 223.089C715.643 206.699 701.763 188.713 686.653 174.662C677.193 165.872 667.263 158.587 643.393 154.14C622.173 150.185 589.813 148.473 536.663 149.968C536.273 149.978 535.953 150.27 535.923 150.652L519.353 320.289C519.343 320.418 519.383 320.544 519.463 320.641C519.553 320.736 519.673 320.791 519.793 320.791L811.483 320.333H813.353ZM809.603 320.331C809.603 320.331 533.723 319.898 520.313 319.877L537.363 151.469C589.943 150.241 621.993 152.064 643.033 156.09C666.283 160.538 675.953 167.67 685.123 176.298C700.333 190.606 714.233 208.935 784.413 225.979C797.033 229.045 803.783 235.486 807.253 245.027C813.323 261.723 809.723 287.417 809.603 320.331Z" fill="#6B7280"/>
<path fill-rule="evenodd" clip-rule="evenodd" d="M796.115 393.141C796.115 340.248 849.755 274.756 791.085 250.996C646.875 192.602 769.135 121.307 560.985 126.711L548.055 489.064L796.115 393.141Z" fill="#374151"/>
<path fill-rule="evenodd" clip-rule="evenodd" d="M800.284 393.141C800.114 376.346 805.494 358.206 810.814 340.574C816.764 320.865 822.614 301.771 821.444 285.71C820.274 269.873 812.674 256.727 792.054 248.6C769.124 239.482 752.954 230.024 741.164 220.526C721.224 204.464 713.834 188.39 706.984 174.257C699.574 158.959 692.764 145.839 672.804 136.918C653.154 128.133 620.454 123.462 560.954 125.176C560.144 125.196 559.494 125.844 559.464 126.656L547.434 489.041C547.424 489.253 547.514 489.452 547.684 489.575C547.864 489.695 548.084 489.723 548.274 489.648L796.114 393.141H800.284ZM578.044 128.015L580.524 128.011C627.074 128.025 654.214 132.543 671.274 140.296C690.154 148.867 696.424 161.45 703.354 175.999C710.324 190.634 717.944 207.178 738.364 223.961C750.344 233.804 766.744 243.758 790.114 253.394C807.984 260.82 814.664 272.243 815.414 286.093C816.234 301.509 810.084 319.664 803.984 338.436C798.054 356.738 792.144 375.593 791.954 393.141H796.114L548.714 488.139L562.474 128.212C567.884 128.096 573.074 128.031 578.044 128.015Z" fill="#6B7280"/>
<path fill-rule="evenodd" clip-rule="evenodd" d="M756.003 535.164C772.073 505.723 833.383 379.69 820.003 326.574C817.273 315.715 808.563 306.127 797.123 299.809C735.973 266.036 712.483 224.121 702.113 177.324C683.943 95.4229 546.453 535.164 546.453 535.164H756.003Z" fill="#374151"/>
<path fill-rule="evenodd" clip-rule="evenodd" d="M756.001 535.164V536.902H759.192C768.932 519.005 795.322 465.633 811.602 414.397C822.422 380.348 828.642 347.207 823.192 325.776C821.602 319.624 818.302 313.84 813.702 308.762C809.592 304.224 804.452 300.24 798.642 297.062C771.482 282.197 751.802 265.699 737.452 247.829C719.892 225.985 710.291 202.113 704.561 176.777C701.941 165.144 696.681 162.677 690.801 165.871C682.251 170.499 669.752 192.149 655.942 223.141C609.812 326.69 545.642 534.909 545.642 534.909C545.562 535.17 545.602 535.452 545.762 535.672C545.932 535.893 546.192 536.021 546.452 536.021L756.001 535.164ZM752.822 535.152L547.632 534.313C552.242 519.825 601.332 366.437 643.682 262.846C660.512 221.655 676.232 188.368 687.652 175.07C690.772 171.429 693.202 169.189 695.412 169.671C696.232 169.849 696.852 170.564 697.472 171.619C698.352 173.097 699.052 175.173 699.642 177.871C705.332 204.035 715.091 228.702 733.021 251.361C747.661 269.869 767.762 287.039 795.612 302.555C800.762 305.421 805.302 308.985 808.932 313.048C812.762 317.345 815.552 322.198 816.832 327.374C821.952 347.955 815.392 379.636 804.892 412.252C788.602 462.911 762.492 515.728 752.822 533.428V535.152Z" fill="#6B7280"/>
<path fill-rule="evenodd" clip-rule="evenodd" d="M784.192 543.536C784.192 490.641 860.302 405.583 792.162 359.654C734.702 320.928 714.402 274.217 704.032 229.812C684.252 145.084 696.402 190.883 559.832 194.429L545.832 592.551L784.192 543.536Z" fill="#374151"/>
<path fill-rule="evenodd" clip-rule="evenodd" d="M790.443 543.536C790.223 528.476 796.513 510.644 803.593 491.834C813.843 464.566 825.733 435.421 824.793 409.437C824.063 389.379 816.063 371.032 794.193 356.645C768.763 339.732 750.623 321.221 737.463 301.977C721.193 278.199 712.503 253.339 706.743 229.18C702.643 211.943 699.873 200.071 696.953 192.128C694.003 184.153 690.723 179.866 686.233 177.836C680.613 175.286 672.673 176.451 659.713 179.311C640.893 183.466 610.753 190.812 559.773 192.317C558.663 192.347 557.763 193.24 557.723 194.354L545.063 592.525C545.053 592.762 545.153 592.99 545.333 593.144C545.513 593.296 545.763 593.359 545.993 593.31L784.193 543.536H790.443ZM677.553 181.386L678.183 181.38C680.463 181.39 682.403 181.729 684.103 182.514C687.573 184.119 689.753 187.717 691.993 193.935C694.813 201.766 697.433 213.466 701.333 230.444C707.023 255.316 715.823 280.885 732.273 305.487C745.653 325.499 764.093 344.876 790.133 362.662C809.103 375.759 815.983 391.975 816.183 409.643C816.473 434.534 804.003 462.044 793.463 487.864C785.233 508.019 778.173 527.221 777.943 543.536H784.193L546.653 591.597L561.873 196.491C612.093 195.203 642.003 188.143 660.763 184.147C667.913 182.626 673.303 181.476 677.553 181.386Z" fill="#6B7280"/>
<path fill-rule="evenodd" clip-rule="evenodd" d="M800.683 642.007C800.683 589.113 857.593 483.325 791.133 435.011C638.033 323.736 771.394 141.17 563.244 146.572L545.023 666.83L800.683 642.007Z" fill="#374151"/>
<path fill-rule="evenodd" clip-rule="evenodd" d="M807.974 642.007C807.754 626.238 812.713 605.577 817.753 583.159C824.593 552.785 831.553 519.372 827.593 490.02C824.483 467.056 814.894 446.474 793.714 431.45C725.194 382.235 714.563 318.207 704.293 263.562C698.363 231.99 692.553 203.449 676.613 182.204C658.003 157.419 625.703 142.207 563.173 144.054C561.843 144.089 560.774 145.154 560.724 146.485L544.223 666.802C544.213 667.034 544.303 667.259 544.473 667.417C544.633 667.575 544.873 667.654 545.093 667.632L800.684 642.007H807.974ZM568.383 149.014L571.053 149.004C625.893 149.018 655.013 162.928 671.863 185.736C691.703 212.587 694.733 251.267 703.023 292.776C712.873 342.139 729.853 395.387 788.533 438.571C807.023 452.341 815.083 470.831 817.333 491.276C820.413 519.477 812.633 551.272 805.283 580.17C799.313 603.677 793.633 625.361 793.383 642.007H800.684L545.863 665.945C545.863 665.945 564.213 187.032 565.663 149.047C566.573 149.032 567.483 149.022 568.383 149.014Z" fill="#6B7280"/>
<path fill-rule="evenodd" clip-rule="evenodd" d="M811.752 665.884C811.752 612.991 842.133 561.402 784.633 517.334C624.723 394.753 789.573 212.003 581.423 217.406L538.312 750.231L811.752 665.884Z" fill="#374151"/>
<path fill-rule="evenodd" clip-rule="evenodd" d="M820.085 665.884C819.545 632.581 830.735 599.604 825.185 568.923C821.605 549.204 811.695 530.231 788.155 512.743C764.305 494.939 747.625 475.76 735.985 455.911C713.995 418.379 709.665 378.788 706.855 343.085C704.275 310.274 702.965 280.588 691.725 258.102C677.645 229.93 648.285 212.297 581.345 214.326C579.765 214.366 578.485 215.588 578.355 217.157L537.285 750.148C537.255 750.49 537.395 750.823 537.665 751.039C537.945 751.254 538.295 751.321 538.625 751.221L811.755 665.884H820.085ZM587.095 220.41L589.865 220.406C646.875 220.574 672.865 235.945 685.255 261.303C695.925 283.148 696.695 311.912 698.845 343.674C701.345 380.619 705.725 421.417 727.715 460.652C739.575 481.794 756.475 502.53 781.115 521.924C800.945 537.601 809.335 554.026 811.875 571.119C814.095 585.998 811.965 601.299 809.425 616.91C806.805 632.98 803.705 649.346 803.425 665.884H811.755C811.755 665.884 560.975 742.25 539.475 748.797L584.265 220.438C585.215 220.424 586.155 220.416 587.095 220.41Z" fill="#6B7280"/>
<path fill-rule="evenodd" clip-rule="evenodd" d="M801.562 801.533C801.562 748.638 834.432 662.814 779.872 615.387C627.812 483.193 764.862 317.693 556.732 323.098L531.652 843.871L801.562 801.533Z" fill="#374151"/>
<path fill-rule="evenodd" clip-rule="evenodd" d="M809.905 801.533C809.375 769.35 820.695 724.827 817.395 684.352C815.135 656.667 806.345 630.797 783.355 611.383C760.805 592.188 744.575 572.241 732.725 552.118C709.985 513.513 703.065 474.481 697.105 439.987C691.475 407.314 686.634 378.569 671.254 357.456C653.344 332.904 621.265 318.193 556.655 320.141C555.105 320.18 553.845 321.409 553.775 322.956L530.665 843.824C530.655 844.12 530.775 844.405 531.005 844.602C531.215 844.8 531.515 844.887 531.805 844.841L801.565 801.533H809.905ZM562.305 325.972L565.035 325.962C620.955 325.96 649.605 339.132 665.625 361.519C680.255 381.968 684.395 409.762 689.525 441.259C695.295 476.7 702.235 516.66 724.945 556.616C736.975 577.758 753.335 598.932 776.395 619.391C796.335 637.229 803.335 660.534 804.595 685.201C806.655 725.574 793.765 769.498 793.235 801.533H801.565C801.565 801.533 552.105 839.745 532.695 842.72L559.535 326.004C560.465 325.99 561.385 325.98 562.305 325.972Z" fill="#6B7280"/>
<path fill-rule="evenodd" clip-rule="evenodd" d="M755.874 885.017C755.874 832.124 884.254 844.284 753.804 700.564C613.164 545.641 713.744 228.93 505.594 234.333V926.109L755.874 885.017Z" fill="#374151"/>
<path fill-rule="evenodd" clip-rule="evenodd" d="M763.163 885.017C763.073 876.9 766.943 870.729 772.233 865.127C778.133 858.898 785.673 853.355 792.783 847.319C808.113 834.309 821.433 819.235 817.823 793.717C814.753 772.031 798.623 741.812 757.373 697.314C739.503 677.957 725.443 655.985 714.233 632.326C667.713 534.14 668.283 408.261 636.793 324.562C615.363 267.622 579.533 229.73 505.533 231.863C504.193 231.899 503.133 232.993 503.133 234.333L504.953 926.109C504.953 926.299 505.043 926.479 505.183 926.599C505.333 926.719 505.513 926.769 505.703 926.739L755.873 885.017H763.163ZM508.063 236.762L509.683 236.75C578.063 236.563 611.403 272.829 631.233 326.632C662.273 410.779 661.273 536.795 706.703 635.836C718.003 660.458 732.063 683.473 750.223 703.815C788.153 746.489 803.483 774.8 805.923 795.265C808.913 820.345 790.913 831.94 775.583 843.927C761.123 855.24 748.783 867.025 748.573 885.017H755.873L506.233 925.359L508.063 236.762Z" fill="#6B7280"/>
<path fill-rule="evenodd" clip-rule="evenodd" d="M785.803 1039.61C785.803 986.719 832.193 925.979 756.173 830.832C625.583 667.362 716.123 593.34 507.973 598.743V1056.38L785.803 1039.61Z" fill="#374151"/>
<path fill-rule="evenodd" clip-rule="evenodd" d="M793.095 1039.61C793.025 1026.27 796.065 1012.39 799.195 997.529C803.495 977.089 808.005 954.909 806.135 929.999C803.905 900.179 792.715 866.381 760.925 827.035C716.325 771.824 697.515 726.876 683.735 691.912C673.525 666.02 665.905 645.47 653.175 630.051C631.745 604.102 595.855 591.953 507.865 594.719C505.685 594.776 503.945 596.56 503.945 598.743L506.455 1056.38C506.455 1056.8 506.625 1057.2 506.925 1057.49C507.235 1057.78 507.645 1057.93 508.065 1057.9L785.805 1039.61H793.095ZM522.995 602.591L526.525 602.589C596.615 602.745 627.195 613.311 645.665 636.186C657.655 651.045 664.525 670.85 673.995 695.685C687.695 731.575 706.445 777.704 751.425 834.631C780.645 871.624 791.015 903.109 792.785 930.919C794.285 954.449 789.685 975.309 785.405 994.549C781.885 1010.45 778.595 1025.3 778.525 1039.61H785.805L509.505 1054.77L511.975 602.695C515.745 602.634 519.425 602.599 522.995 602.591Z" fill="#6B7280"/>
<path fill-rule="evenodd" clip-rule="evenodd" d="M777.682 1172.34C777.682 1119.45 817.862 1051.06 741.852 955.909C611.252 792.436 701.802 718.414 493.652 723.817V1181.45L777.682 1172.34Z" fill="#374151"/>
<path fill-rule="evenodd" clip-rule="evenodd" d="M784.983 1172.34C784.803 1140.65 798.863 1103.34 794.043 1058.2C790.673 1026.79 778.493 991.629 746.583 952.129C701.983 896.911 683.173 851.96 669.393 816.991C659.193 791.104 651.563 770.554 638.833 755.136C617.413 729.188 581.523 717.041 493.543 719.801C491.373 719.858 489.633 721.64 489.633 723.817L492.113 1181.45C492.113 1181.87 492.283 1182.27 492.583 1182.56C492.883 1182.85 493.283 1183.01 493.703 1182.99L777.683 1172.34H784.983ZM508.663 727.655L512.203 727.653C582.293 727.803 612.883 738.371 631.343 761.248C643.353 776.109 650.223 795.916 659.693 820.753C673.383 856.639 692.143 902.769 737.123 959.689C766.643 997.059 777.923 1030.06 780.763 1059.55C785.043 1104.25 770.563 1140.99 770.393 1172.34H777.683C777.683 1172.34 518.013 1179.26 495.203 1179.87L497.643 727.762C501.423 727.7 505.103 727.665 508.663 727.655Z" fill="#6B7280"/>
<path fill-rule="evenodd" clip-rule="evenodd" d="M767.375 1291.64C768.565 1251.87 819.735 1220.01 714.315 1077.16C616.825 945.069 689.665 857.856 494.785 863.259V1320.89L767.375 1291.64Z" fill="#374151"/>
<path fill-rule="evenodd" clip-rule="evenodd" d="M767.373 1291.64V1291.86H774.663C774.863 1283.49 777.543 1275.5 780.283 1266.59C785.563 1249.38 791.273 1229.19 785.003 1198.91C778.893 1169.4 761.173 1129.91 719.133 1073.6C682.053 1023.95 669.633 980.609 657.633 946.389C649.683 923.709 641.823 904.909 627.883 890.592C606.323 868.466 570.003 856.669 494.673 859.178C492.463 859.239 490.703 861.048 490.703 863.259L493.253 1320.89C493.253 1321.33 493.443 1321.74 493.763 1322.03C494.083 1322.32 494.513 1322.46 494.943 1322.42L767.373 1291.64ZM505.183 867.194L508.273 867.184C570.613 867.15 602.043 877.519 620.903 897.316C633.753 910.809 640.643 928.539 647.823 949.769C659.723 984.959 672.083 1029.44 709.483 1080.72C749.253 1135.24 766.173 1173.18 771.723 1201.58C777.053 1228.85 771.573 1246.92 766.663 1262.33C763.393 1272.56 760.423 1281.78 760.083 1291.43V1291.64H767.373L496.323 1319.2L498.843 867.265C500.993 867.229 503.103 867.206 505.183 867.194Z" fill="#6B7280"/>
<path fill-rule="evenodd" clip-rule="evenodd" d="M747.104 1454.9C748.294 1415.13 825.724 1408.3 698.714 1225.31C604.844 1090.07 674.064 1006 479.184 1011.4V1469.04L747.104 1454.9Z" fill="#374151"/>
<path fill-rule="evenodd" clip-rule="evenodd" d="M747.104 1454.9V1455.12H754.394C754.614 1446.1 759.633 1439.12 764.533 1430.78C773.883 1414.88 783.984 1395.34 774.974 1357.66C767.774 1327.51 747.833 1284.99 703.553 1221.94C667.813 1171.06 655.693 1127.4 643.563 1093.25C635.483 1070.5 627.314 1051.84 612.954 1037.73C590.944 1016.14 554.133 1004.91 479.073 1007.4C476.903 1007.46 475.184 1009.24 475.184 1011.4L477.703 1469.04C477.703 1469.45 477.874 1469.83 478.164 1470.11C478.464 1470.39 478.854 1470.54 479.264 1470.52L747.104 1454.9ZM489.504 1015.26L492.594 1015.25C554.984 1015.15 586.924 1025.11 606.244 1044.49C619.474 1057.77 626.644 1075.35 633.934 1096.61C645.934 1131.62 657.944 1176.3 693.864 1228.67C736.074 1290.2 755.204 1331.44 761.864 1360.72C769.244 1393.2 760.483 1409.91 752.293 1423.49C745.923 1434.05 740.223 1443.2 739.823 1454.68V1454.9H747.104L480.674 1467.49C480.824 1440.08 482.934 1058.31 483.164 1015.33C485.314 1015.3 487.434 1015.27 489.504 1015.26Z" fill="#6B7280"/>
<path fill-rule="evenodd" clip-rule="evenodd" d="M741.404 1626.53C742.594 1586.76 814.694 1562.96 687.864 1382.8C604.214 1263.98 663.214 1163.49 468.324 1168.9V1626.53H741.404Z" fill="#374151"/>
<path fill-rule="evenodd" clip-rule="evenodd" d="M741.402 1626.53V1626.75H748.702C748.922 1617.58 753.552 1609.41 758.052 1599.53C766.112 1581.88 774.551 1559.8 766.531 1522.67C759.441 1489.86 739.112 1444.71 692.632 1379.43C664.362 1339.74 652.402 1302.03 641.342 1269.81C631.072 1239.94 621.422 1214.67 601.462 1196.36C577.882 1174.74 539.762 1162.54 468.222 1164.92C466.062 1164.98 464.352 1166.74 464.352 1168.9L466.842 1626.53C466.842 1627.35 467.502 1628.02 468.322 1628.02L741.402 1626.53ZM734.112 1626.49L469.822 1625.05C469.822 1625.05 472.042 1217.19 472.282 1172.8C537.882 1171.79 573.261 1182.88 595.031 1203.29C613.671 1220.75 622.171 1244.85 631.531 1273.12C642.551 1306.31 654.512 1345.1 683.072 1386.16C727.382 1449.84 746.882 1493.6 753.402 1525.44C760.152 1558.46 752.462 1577.97 745.132 1593.54C739.592 1605.35 734.512 1615.3 734.112 1626.31V1626.49Z" fill="#6B7280"/>
<path fill-rule="evenodd" clip-rule="evenodd" d="M741.404 1806.53C742.594 1766.76 768.074 1670 691.014 1559.38C598.534 1426.64 648.634 1386.08 468.324 1392.63V1806.53H741.404Z" fill="#374151"/>
<path fill-rule="evenodd" clip-rule="evenodd" d="M741.404 1806.53V1806.75H748.704C749.304 1781.88 759.054 1734.92 747.904 1676.36C740.974 1639.89 726.004 1598.96 695.744 1556.08C660.804 1506.51 646.074 1469.84 631.674 1443.8C620.924 1424.35 610.264 1410.6 592.504 1401.51C569.404 1389.69 533.744 1385.88 468.194 1388.64C466.034 1388.72 464.344 1390.48 464.344 1392.63L466.744 1806.53C466.744 1807.41 467.464 1808.12 468.324 1808.12L741.404 1806.53ZM734.114 1806.49L469.934 1804.95C470.074 1778.85 472.064 1436.83 472.294 1396.5C533.064 1394.83 566.494 1398.46 588.154 1409.87C604.094 1418.25 613.344 1430.96 622.844 1448.61C637.074 1475.07 651.554 1512.25 686.264 1562.69C714.824 1604.2 728.784 1643.65 735.054 1678.73C745.284 1736.15 734.994 1781.98 734.114 1806.31V1806.49Z" fill="#6B7280"/>
<path fill-rule="evenodd" clip-rule="evenodd" d="M721.404 1946.53C722.594 1906.76 751.164 1813.7 680.544 1716.54C587.784 1588.9 628.634 1498.79 448.324 1505.34V1946.53H721.404Z" fill="#374151"/>
<path fill-rule="evenodd" clip-rule="evenodd" d="M721.402 1946.53V1946.78H729.732C730.312 1922.46 740.772 1878.35 733.082 1825.66C727.972 1790.63 714.992 1751.86 686.032 1712.55C656.552 1672.52 640.522 1636.17 626.582 1605.47C613.142 1575.89 601.482 1551.44 582.412 1533.58C557.452 1510.2 519.782 1497.7 448.152 1500.76C445.692 1500.85 443.742 1502.87 443.742 1505.34L446.572 1946.53C446.572 1947.5 447.352 1948.28 448.322 1948.28L721.402 1946.53ZM713.072 1946.48L450.082 1944.79C450.262 1916.58 452.592 1554.27 452.872 1509.8C517.592 1508.4 552.152 1519.66 574.892 1541.51C592.752 1558.68 603.252 1582.15 615.632 1610.35C629.482 1641.91 645.442 1679.24 675.052 1720.53C701.882 1757.96 713.712 1794.65 718.102 1827.75C724.972 1879.44 713.942 1922.47 713.072 1946.28V1946.48Z" fill="#6B7280"/>
<path fill-rule="evenodd" clip-rule="evenodd" d="M721.404 2118.56C722.594 2079.55 748.774 1986.23 670.004 1873.65C581.494 1747.16 628.634 1706.2 448.324 1712.62V2118.56H721.404Z" fill="#374151"/>
<path fill-rule="evenodd" clip-rule="evenodd" d="M721.402 2118.56V2118.78H728.692C729.302 2094.14 739.522 2048.04 727.652 1989.28C720.442 1953.62 705.182 1913.31 674.732 1870.33C640.102 1821.45 626.072 1785.37 611.202 1759.98C600.482 1741.69 589.302 1728.72 570.642 1720.21C547.212 1709.52 511.472 1706 448.182 1708.63C446.032 1708.71 444.332 1710.47 444.332 1712.62L446.722 2118.56C446.722 2119.44 447.432 2120.16 448.322 2120.16L721.402 2118.56ZM714.112 2118.52L449.942 2116.96C450.092 2091 452.062 1756.39 452.292 1716.5C511.092 1714.93 544.652 1718.38 566.692 1728.75C588.312 1738.92 598.332 1755.93 610.922 1780.94C623.152 1805.21 637.502 1836.8 665.262 1876.97C694.022 1918.59 708.302 1957.45 714.822 1991.8C725.742 2049.34 714.992 2094.27 714.112 2118.34V2118.52Z" fill="#6B7280"/>
<path fill-rule="evenodd" clip-rule="evenodd" d="M721.404 2278.54C722.594 2240.88 748.334 2151.26 670.004 2042.46C581.234 1919.18 628.634 1854.9 448.324 1861.1V2278.54H721.404Z" fill="#374151"/>
<path fill-rule="evenodd" clip-rule="evenodd" d="M287.144 3703.71C283.154 3703.94 279.694 3703.94 277.354 3703.7C277.354 3703.71 282.334 3703.71 287.144 3703.71ZM609.524 3703.71C613.514 3703.94 616.974 3703.94 619.314 3703.7C619.314 3703.71 614.334 3703.71 609.524 3703.71ZM287.144 3703.71C299.234 3703.03 316.184 3700.27 321.654 3695.71C328.924 3689.65 332.084 3684.77 334.714 3671.48C339.984 3644.79 339.754 3614.52 339.754 3577.34C310.164 2543.08 253.114 1508.82 185.174 474.556C169.564 237.023 175.594 157.945 180.754 131.776V131.775C182.214 124.341 191.734 118.982 199.314 118.982H697.354C704.934 118.982 714.454 124.341 715.914 131.775V131.776C721.074 157.945 727.104 237.023 711.494 474.556C643.554 1508.82 586.504 2543.08 556.914 3577.34C556.914 3614.52 556.684 3644.79 561.954 3671.48C564.584 3684.77 567.744 3689.65 575.014 3695.71C580.484 3700.27 597.434 3703.03 609.524 3703.71H287.144Z" fill="#6B7280"/>
<path fill-rule="evenodd" clip-rule="evenodd" d="M33.8134 302.34C27.2134 233.238 22.1135 191.196 16.9035 146.969C12.2735 107.631 7.64347 66.542 0.0234683 3.538C-0.0865317 2.641 0.193488 1.74 0.793488 1.064C1.39349 0.387003 2.25347 0 3.15347 0H8.94339C20.2034 0 29.6734 8.414 31.0034 19.589C31.3934 22.785 31.7735 25.985 32.1535 29.188C102.823 623.639 166.763 1332.39 214.133 1984.62C250.033 2478.99 276.423 2940.9 288.993 3295.96C295.653 3483.84 301.693 3716.55 298.503 3758.89C296.713 3782.67 279.243 3809.9 242.053 3795.26C218.593 2665.33 154.433 1433.27 33.8134 302.34Z" fill="#6B7280"/>
<path fill-rule="evenodd" clip-rule="evenodd" d="M862.853 302.34C869.453 233.238 874.553 191.196 879.763 146.969C884.393 107.631 889.023 66.542 896.643 3.538C896.753 2.641 896.473 1.74 895.873 1.064C895.273 0.387003 894.413 0 893.513 0H887.723C876.463 0 866.993 8.414 865.663 19.589C865.273 22.785 864.893 25.985 864.513 29.188C793.843 623.639 729.903 1332.39 682.533 1984.62C646.633 2478.99 620.243 2940.9 607.673 3295.96C601.013 3483.84 594.973 3716.55 598.163 3758.89C599.953 3782.67 617.773 3806.16 662.943 3795.25C663.163 3784.58 655.053 3773.91 655.283 3763.22C679.293 2642.07 743.373 1422.59 862.853 302.34Z" fill="#6B7280"/>
<path fill-rule="evenodd" clip-rule="evenodd" d="M243.464 3795.73C253.414 3799.07 264.354 3797.32 272.764 3791.05C281.164 3784.77 285.954 3774.77 285.564 3764.29C271.804 3385.57 262.254 3024.47 240.064 2668.96C222.864 2393.28 200.604 2081.52 174.754 1759C129.324 1192.15 70.8141 591.721 10.6641 93.3555C52.0141 453.931 83.394 858.751 99.614 1256.4C118.514 1719.67 121.104 2172.98 110.484 2533.9C99.854 2895.12 86.394 3244.43 50.774 3607.74C45.324 3662.38 72.664 3715.09 120.464 3742.11C164.424 3767 206.084 3783.26 243.464 3795.73Z" fill="#374151"/>
<path fill-rule="evenodd" clip-rule="evenodd" d="M663.654 3795.23C650.634 3797.81 637.144 3794.29 627.034 3785.68C616.924 3777.07 611.314 3764.31 611.794 3751.04C625.274 3374.24 631.974 3023.48 654.104 2668.96C671.304 2393.28 693.564 2081.52 719.414 1759C764.844 1192.15 825.854 591.721 886.004 93.3555C869.934 233.512 859.444 380.029 843.044 531.016C818.124 760.51 827.374 1011.72 832.414 1259.74C840.774 1671.64 966.224 2208.39 988.754 2517.47C1016.67 2900.35 1014.23 3363.95 1014.18 3760.72C1014.17 3764.36 1012.71 3767.84 1010.11 3770.38C1007.51 3772.92 1004 3774.3 1000.37 3774.22C886.574 3772.13 731.884 3781.72 663.654 3795.23Z" fill="#374151"/>
<path fill-rule="evenodd" clip-rule="evenodd" d="M776.974 2329.35C776.914 2323.03 771.774 2317.94 765.454 2317.94H743.374C737.074 2317.94 731.944 2322.99 731.844 2329.28C725.494 2727.37 725.734 3125.47 731.854 3523.56C731.944 3529.85 737.074 3534.9 743.374 3534.9H765.454C771.764 3534.9 776.914 3529.81 776.964 3523.49C780.694 3125.44 780.834 2727.4 776.974 2329.35Z" fill="#6B7280"/>
</svg>
