<svg width="707" height="465" viewBox="0 0 707 465" fill="none" xmlns="http://www.w3.org/2000/svg">
<path d="M75 42.5L88 35.5L93 23.5L106 17L129.5 8.5L154 4.5L175.5 8.5L174.5 17L224 23.5L275.5 14L325.5 11.5H421.5L514.5 23.5L528.5 18.5L527.5 6.5L549.5 4.5L571 7.5L606.5 18.5L626 44.5L635.5 63L656 109.5L672 159.5L686.5 208L694.5 258L701.5 314.5L698.5 371.5L694.5 406.5L679.5 437.5L664 451L645.5 458L612 460.5L594.5 453.5L581 432L574 409.5L561 369.5L545 332L517 305.5L347.5 303L190.5 305.5L167 323L148.5 353.5L145.5 369.5L133.5 395.5L109.5 449L99.5 458.5H55L34 449L22 430.5L8 391.5L4 345L11 250L37 143.5L75 42.5Z" fill="#6B7280"/>
<path fill-rule="evenodd" clip-rule="evenodd" d="M246.305 15.2871C273.985 9.0815 328.926 6.02025 359.34 6.02025C391.089 6.02025 433.213 7.86838 466.301 15.2871C480.376 18.4434 487.91 23.6809 491.374 30.3753C494.749 36.8971 493.769 44.0134 493.004 49.4121C489.964 70.8802 485.712 96.6252 480.861 125.989L480.847 126.076C478.313 141.413 471.914 152.102 463.487 158.938C455.091 165.748 444.944 168.52 435.253 168.52H271.281C258.609 168.52 248.781 165.318 241.664 159.827C234.537 154.328 230.387 146.73 228.741 138.43C225.571 122.439 220.979 96.9309 215.823 68.2896C215.076 64.1377 214.316 59.9196 213.548 55.6559C210.952 41.2515 213.232 31.919 219.956 25.7559C223.185 22.7977 227.228 20.779 231.654 19.2103C236.073 17.644 241.074 16.4603 246.305 15.2871ZM359.34 12.2702C329.024 12.2702 274.651 15.3371 247.673 21.3859C242.423 22.5627 237.763 23.6759 233.741 25.1015C229.726 26.5246 226.549 28.1928 224.179 30.364C219.709 34.4609 217.286 41.1609 219.699 54.5471C220.468 58.8134 221.227 63.0315 221.974 67.1821C227.133 95.839 231.714 121.282 234.872 137.214C236.264 144.233 239.705 150.422 245.483 154.879C251.271 159.345 259.661 162.27 271.281 162.27H435.253C443.78 162.27 452.46 159.835 459.55 154.083C466.609 148.358 472.356 139.132 474.681 125.058L474.685 125.03C479.543 95.6177 483.786 69.9315 486.816 48.5359C487.615 42.8896 488.153 37.7509 485.823 33.2471C483.582 28.9159 478.188 24.3577 464.934 21.3859C432.541 14.1227 390.978 12.2702 359.34 12.2702Z" fill="#374151"/>
<path fill-rule="evenodd" clip-rule="evenodd" d="M153.121 21.5481C180.224 18.5044 205.94 18.042 221.389 18.5552C222.944 18.6072 224.225 19.7858 224.39 21.3197C224.556 22.8535 223.555 24.2735 222.046 24.6499C219.009 25.4069 216.842 28.5657 215.69 33.8922C214.596 38.9488 214.715 44.7742 215.186 48.6201C217.251 58.9277 222.545 87.1578 227.433 118.825C232.488 151.577 219.061 174.721 211.253 182.502L211.247 182.509C200.82 192.902 190.006 203.68 174.848 224.832C159.417 246.364 137.354 294.83 117.507 342.092C102.597 377.599 89.0554 412.131 80.6509 433.563C77.8969 440.586 75.6945 446.203 74.1763 449.986C74.1445 450.065 74.1095 450.143 74.0707 450.22C73.9227 450.515 73.7652 450.844 73.5947 451.199C73.0398 452.358 72.3507 453.797 71.4229 455.252L90.9223 457.864C94.3104 457.839 96.8877 457.19 99.0469 456.007C101.268 454.796 103.269 452.904 105.294 450.091C108.795 445.227 111.984 438.209 116.41 428.469C117.262 426.595 118.159 424.62 119.113 422.54C126.66 406.09 134.39 386.404 141.075 369.377L141.656 367.899C145.056 359.241 148.176 351.318 150.83 344.985C153.442 338.756 155.723 333.763 157.451 331.18C161.829 324.634 168.251 315.104 179.27 308.419C190.354 301.696 205.732 298.045 227.713 302.332H478.059C495.589 298.034 511.049 300.135 523.801 307.347C536.597 314.586 546.369 326.804 552.815 342.163C560.246 359.867 564.955 373.09 569.363 385.731C569.781 386.929 570.196 388.122 570.61 389.313C574.563 400.674 578.446 411.833 584.069 425.766C584.656 427.213 585.218 428.652 585.781 430.075C588.673 437.438 591.404 444.378 595.602 449.646C598.032 452.694 600.881 455.054 604.43 456.515C607.966 457.963 612.421 458.607 618.2 457.895L634.738 455.116C633.857 453.705 633.195 452.321 632.658 451.199C632.483 450.844 632.327 450.515 632.177 450.22C632.139 450.143 632.108 450.065 632.077 449.986C630.558 446.203 628.353 440.587 625.598 433.565C617.194 412.133 603.655 377.6 588.742 342.092C568.896 294.83 546.834 246.364 531.402 224.832C516.244 203.68 505.431 192.902 495.004 182.509L494.997 182.502C487.19 174.721 473.762 151.577 478.817 118.825C483.705 87.1584 488.999 58.9277 491.065 48.6201C491.536 44.7742 491.654 38.9488 490.56 33.8922C489.408 28.5657 487.242 25.4069 484.205 24.6499C482.695 24.2735 481.695 22.8535 481.86 21.3197C482.026 19.7858 483.306 18.6072 484.862 18.5552C500.311 18.042 526.027 18.5044 553.13 21.5481C580.17 24.5855 608.904 30.2252 630.19 40.2109C630.802 40.4963 631.296 40.9692 631.614 41.5585C648.077 72.321 684.539 157.48 699.297 253.086C708.512 312.821 707.781 359.741 700.796 393.771C693.849 427.621 680.553 449.428 663.934 457.71C653.163 463.076 645.815 463.627 640.555 460.829C640.361 460.724 640.174 460.619 639.993 460.507L619.181 464.011C619.137 464.017 619.088 464.023 619.044 464.03C612.365 464.859 606.773 464.172 602.037 462.228C597.308 460.291 593.646 457.177 590.704 453.484C585.862 447.416 582.732 439.427 579.858 432.085C579.327 430.717 578.796 429.372 578.271 428.065C572.585 413.986 568.656 402.692 564.705 391.334C564.29 390.142 563.875 388.949 563.458 387.752C559.067 375.158 554.405 362.073 547.046 344.539C540.996 330.123 532.025 319.128 520.702 312.723C509.426 306.345 495.522 304.349 479.208 308.428C478.958 308.491 478.701 308.522 478.443 308.522H227.406C227.201 308.522 226.996 308.503 226.794 308.462C205.967 304.342 192.141 307.87 182.532 313.698C172.81 319.596 167.041 328.048 162.659 334.6C161.325 336.594 159.266 341.001 156.6 347.359C153.978 353.615 150.885 361.469 147.479 370.143L146.871 371.691C140.205 388.666 132.421 408.492 124.801 425.101C123.888 427.091 123.017 429.01 122.179 430.857C117.775 440.561 114.273 448.278 110.38 453.685C108.001 456.991 105.347 459.635 102.062 461.43C98.7589 463.231 95.0383 464.054 90.718 464.054C90.578 464.054 90.4381 464.048 90.2994 464.03L65.8355 460.749C65.7887 460.78 65.7418 460.805 65.6949 460.829C60.4362 463.627 53.0882 463.076 42.317 457.71C25.6978 449.428 12.3994 427.621 5.4528 393.771C-1.53073 359.741 -2.26329 312.821 6.95696 253.086C21.7142 157.48 58.1757 72.321 74.6362 41.5585C74.9517 40.9692 75.4509 40.4963 76.06 40.2109C97.3494 30.2252 126.079 24.5855 153.121 21.5481ZM63.4689 454.928C63.4164 454.962 63.3645 454.996 63.3139 455.035C63.1284 455.153 62.9359 455.271 62.7354 455.376C60.2263 456.713 55.3286 457.264 45.1247 452.18C31.1284 445.205 18.4048 425.818 11.5753 392.538C4.78254 359.438 3.98457 313.29 13.1329 254.022C27.6209 160.158 63.2483 76.3946 79.6706 45.3709C99.931 36.0934 127.396 30.6672 153.825 27.6991C176.084 25.1989 197.397 24.4636 212.667 24.5762C211.12 27.0306 210.165 29.8947 209.581 32.5954C208.286 38.5774 208.461 45.2001 208.999 49.4928C209.009 49.5671 209.021 49.6408 209.036 49.7145C211.068 59.8444 216.367 88.0751 221.257 119.761C225.998 150.477 213.302 171.68 206.823 178.139C196.3 188.627 185.207 199.685 169.754 221.248C153.834 243.462 131.507 292.64 111.739 339.714C96.794 375.303 83.1925 409.989 74.7936 431.408C72.0833 438.318 69.9153 443.848 68.4177 447.581C68.2503 447.916 68.0872 448.246 67.9273 448.571C66.6065 451.251 65.4838 453.529 63.4689 454.928ZM642.679 454.857C642.942 455.048 643.223 455.221 643.516 455.376C646.022 456.713 650.92 457.264 661.129 452.18C675.124 445.205 687.844 425.818 694.673 392.538C701.471 359.438 702.264 313.29 693.118 254.022C678.629 160.158 643.004 76.3946 626.579 45.3709C606.317 36.0934 578.852 30.6672 552.425 27.6991C530.166 25.1989 508.853 24.4636 493.583 24.5762C495.13 27.0306 496.085 29.8947 496.669 32.5954C497.964 38.5774 497.789 45.2001 497.251 49.4928C497.247 49.5287 497.241 49.5646 497.236 49.5999C497.229 49.6383 497.222 49.6767 497.215 49.7145C495.183 59.8444 489.884 88.0751 484.993 119.761C480.252 150.477 492.948 171.68 499.428 178.139C509.95 188.627 521.043 199.685 536.497 221.248C552.416 243.462 574.744 292.64 594.509 339.714C609.453 375.303 623.055 409.988 631.458 431.407C634.17 438.318 636.338 443.848 637.831 447.581C638 447.916 638.162 448.247 638.324 448.571C639.574 451.112 640.649 453.292 642.473 454.704C642.548 454.752 642.617 454.803 642.679 454.857Z" fill="#374151"/>
<path fill-rule="evenodd" clip-rule="evenodd" d="M571.875 68.5202C563.246 68.5202 556.25 75.5159 556.25 84.1452C556.25 92.7746 563.246 99.7702 571.875 99.7702C580.506 99.7702 587.5 92.7746 587.5 84.1452C587.5 75.5159 580.506 68.5202 571.875 68.5202ZM550 84.1452C550 72.064 559.794 62.2702 571.875 62.2702C583.956 62.2702 593.75 72.064 593.75 84.1452C593.75 96.2265 583.956 106.02 571.875 106.02C559.794 106.02 550 96.2265 550 84.1452Z" fill="#374151"/>
<path fill-rule="evenodd" clip-rule="evenodd" d="M571.875 168.52C563.246 168.52 556.25 175.516 556.25 184.145C556.25 192.775 563.246 199.77 571.875 199.77C580.506 199.77 587.5 192.775 587.5 184.145C587.5 175.516 580.506 168.52 571.875 168.52ZM550 184.145C550 172.064 559.794 162.27 571.875 162.27C583.956 162.27 593.75 172.064 593.75 184.145C593.75 196.226 583.956 206.02 571.875 206.02C559.794 206.02 550 196.226 550 184.145Z" fill="#374151"/>
<path fill-rule="evenodd" clip-rule="evenodd" d="M521.875 118.52C513.246 118.52 506.25 125.516 506.25 134.145C506.25 142.775 513.246 149.77 521.875 149.77C530.504 149.77 537.5 142.775 537.5 134.145C537.5 125.516 530.504 118.52 521.875 118.52ZM500 134.145C500 122.064 509.794 112.27 521.875 112.27C533.956 112.27 543.75 122.064 543.75 134.145C543.75 146.226 533.956 156.02 521.875 156.02C509.794 156.02 500 146.226 500 134.145Z" fill="#374151"/>
<path fill-rule="evenodd" clip-rule="evenodd" d="M468.75 193.52C444.587 193.52 425 213.108 425 237.27C425 261.433 444.587 281.02 468.75 281.02C492.913 281.02 512.5 261.433 512.5 237.27C512.5 213.108 492.913 193.52 468.75 193.52ZM418.75 237.27C418.75 209.656 441.136 187.27 468.75 187.27C496.364 187.27 518.75 209.656 518.75 237.27C518.75 264.885 496.364 287.27 468.75 287.27C441.136 287.27 418.75 264.885 418.75 237.27Z" fill="#374151"/>
<path fill-rule="evenodd" clip-rule="evenodd" d="M237.5 193.52C213.338 193.52 193.75 213.108 193.75 237.27C193.75 261.433 213.338 281.02 237.5 281.02C261.663 281.02 281.25 261.433 281.25 237.27C281.25 213.108 261.663 193.52 237.5 193.52ZM187.5 237.27C187.5 209.656 209.886 187.27 237.5 187.27C265.114 187.27 287.5 209.656 287.5 237.27C287.5 264.885 265.114 287.27 237.5 287.27C209.886 287.27 187.5 264.885 187.5 237.27Z" fill="#374151"/>
<path fill-rule="evenodd" clip-rule="evenodd" d="M237.5 206.02C220.241 206.02 206.25 220.012 206.25 237.27C206.25 254.53 220.241 268.52 237.5 268.52C254.759 268.52 268.75 254.53 268.75 237.27C268.75 220.012 254.759 206.02 237.5 206.02ZM200 237.27C200 216.56 216.789 199.77 237.5 199.77C258.211 199.77 275 216.56 275 237.27C275 257.981 258.211 274.77 237.5 274.77C216.789 274.77 200 257.981 200 237.27Z" fill="#374151"/>
<path fill-rule="evenodd" clip-rule="evenodd" d="M468.75 206.02C451.491 206.02 437.5 220.012 437.5 237.27C437.5 254.53 451.491 268.52 468.75 268.52C486.009 268.52 500 254.53 500 237.27C500 220.012 486.009 206.02 468.75 206.02ZM431.25 237.27C431.25 216.56 448.039 199.77 468.75 199.77C489.461 199.77 506.25 216.56 506.25 237.27C506.25 257.981 489.461 274.77 468.75 274.77C448.039 274.77 431.25 257.981 431.25 237.27Z" fill="#374151"/>
<path fill-rule="evenodd" clip-rule="evenodd" d="M612.05 25.9652V31.4309C581.494 22.044 546.731 19.1771 529.486 18.8627V8.39712C546.402 4.4415 563.534 6.399 578.325 10.6459C592.869 14.8202 604.95 21.1515 612.05 25.9652ZM580.05 4.63837C563.874 -0.0053792 544.642 -2.15163 525.555 2.93837C524.188 3.30337 523.236 4.54212 523.236 5.95774V21.9578C523.236 23.6834 524.634 25.0828 526.361 25.0828C542.506 25.0828 581.606 27.8796 614.188 38.674C615.144 38.9896 616.188 38.829 617 38.2415C617.819 37.654 618.3 36.7115 618.3 35.7077V24.3327C618.3 23.324 617.812 22.3765 616.987 21.7902C609.556 16.4821 596.219 9.28087 580.05 4.63837Z" fill="#374151"/>
<path fill-rule="evenodd" clip-rule="evenodd" d="M91.9863 25.9652V31.4309C122.543 22.044 157.303 19.1771 174.549 18.8627V8.39712C157.633 4.4415 140.501 6.399 125.708 10.6459C111.168 14.8202 99.0844 21.1515 91.9863 25.9652ZM123.983 4.63837C140.16 -0.0053792 159.393 -2.15163 178.479 2.93837C179.847 3.30337 180.799 4.54212 180.799 5.95774V21.9578C180.799 23.6834 179.4 25.0828 177.674 25.0828C161.528 25.0828 122.427 27.8796 89.8438 38.674C88.8913 38.9896 87.845 38.829 87.0313 38.2415C86.2181 37.654 85.7363 36.7115 85.7363 35.7077V24.3327C85.7363 23.324 86.2238 22.3765 87.045 21.7902C94.4763 16.4821 107.814 9.28087 123.983 4.63837Z" fill="#374151"/>
<path fill-rule="evenodd" clip-rule="evenodd" d="M551.331 21.6896C523.888 18.649 497.85 18.1877 482.209 18.7002C480.649 18.7515 479.366 19.9459 479.204 21.499C479.041 23.0515 480.05 24.4859 481.566 24.8584C484.68 25.624 486.859 28.7921 488.018 34.0771C489.122 39.1127 489.002 44.9184 488.527 48.7527C486.434 59.0546 481.074 87.2565 476.124 118.891C470.997 151.651 484.615 174.797 492.522 182.571L492.529 182.577C503.089 192.96 514.041 203.728 529.391 224.858C545.015 246.365 567.356 294.777 587.456 341.995C602.556 377.466 616.269 411.963 624.781 433.375C627.569 440.391 629.8 446.003 631.337 449.783C631.369 449.865 631.406 449.944 631.45 450.022C631.6 450.317 631.756 450.647 631.931 451.002C633.294 453.813 635.462 458.276 639.925 460.625C645.212 463.4 652.612 462.869 663.519 457.507C680.331 449.24 693.812 427.451 700.85 393.608C707.925 359.596 708.669 312.707 699.331 253.022C684.381 157.495 647.45 72.4096 630.781 41.6727C630.456 41.0815 629.956 40.609 629.344 40.3265C607.794 30.3559 578.713 24.724 551.331 21.6896ZM625.781 45.569C642.412 76.5609 678.487 160.232 693.156 253.988C702.419 313.193 701.612 359.282 694.731 392.335C687.819 425.558 674.95 444.923 660.756 451.898C650.419 456.981 645.419 456.448 642.837 455.091C640.306 453.76 639.062 451.277 637.575 448.297C637.413 447.973 637.25 447.643 637.081 447.308C635.562 443.579 633.369 438.057 630.625 431.155C622.119 409.757 608.344 375.103 593.206 339.547C573.188 292.519 550.572 243.381 534.447 221.184C518.796 199.64 507.561 188.592 496.904 178.115C490.343 171.663 477.503 150.503 482.299 119.857C487.251 88.2034 492.617 60.0009 494.675 49.8828C494.691 49.8065 494.703 49.7302 494.713 49.6534C495.259 45.3571 495.436 38.729 494.123 32.7384C493.534 30.0521 492.575 27.2165 491.037 24.7815C506.506 24.669 528.096 25.4034 550.642 27.9015C577.417 30.8684 605.25 36.2921 625.781 45.569Z" fill="#374151"/>
<path fill-rule="evenodd" clip-rule="evenodd" d="M154.919 21.6896C182.362 18.649 208.4 18.1877 224.041 18.7002C225.601 18.7515 226.884 19.9459 227.046 21.499C227.209 23.0515 226.2 24.4859 224.684 24.8584C221.57 25.624 219.391 28.7921 218.232 34.0771C217.128 39.1127 217.247 44.9177 217.723 48.7527C219.816 59.054 225.176 87.2559 230.126 118.891C235.253 151.651 221.635 174.797 213.727 182.571L213.722 182.577C203.161 192.96 192.209 203.728 176.859 224.858C161.235 246.365 138.894 294.777 118.794 341.995C103.694 377.466 89.9806 411.963 81.4694 433.374C78.68 440.391 76.4488 446.003 74.9113 449.783C74.8781 449.865 74.8419 449.944 74.8019 450.022C74.6519 450.317 74.4925 450.647 74.3194 451.002C72.9538 453.813 70.7856 458.276 66.3219 460.625C61.0375 463.4 53.6381 462.869 42.7338 457.507C25.9175 449.24 12.4382 427.451 5.39776 393.608C-1.67793 359.596 -2.41874 312.707 6.9202 253.022C21.8675 157.495 58.7981 72.4096 75.4706 41.6727C75.7913 41.0815 76.2944 40.609 76.905 40.3265C98.4538 30.3559 127.537 24.724 154.919 21.6896ZM80.47 45.569C63.84 76.5609 27.765 160.232 13.0951 253.988C3.83132 313.193 4.64057 359.282 11.5168 392.335C18.4281 425.558 31.3025 444.923 45.4913 451.898C55.83 456.981 60.8325 456.448 63.4138 455.091C65.945 453.76 67.185 451.278 68.6738 448.298C68.8363 447.973 69.0013 447.643 69.1706 447.308C70.6869 443.579 72.8819 438.057 75.6256 431.155C84.1319 409.757 97.9075 375.103 113.043 339.547C133.063 292.519 155.678 243.381 171.803 221.184C187.454 199.64 198.689 188.592 209.346 178.115C215.907 171.663 228.747 150.504 223.951 119.857C218.999 88.2034 213.633 60.0009 211.575 49.8828C211.559 49.8065 211.547 49.7302 211.537 49.6534C210.991 45.3571 210.814 38.729 212.127 32.7384C212.716 30.0521 213.675 27.2165 215.213 24.7815C199.744 24.669 178.154 25.4034 155.608 27.9015C128.833 30.8684 101.002 36.2921 80.47 45.569Z" fill="#374151"/>
<path fill-rule="evenodd" clip-rule="evenodd" d="M621.875 118.52C613.244 118.52 606.25 125.516 606.25 134.145C606.25 142.775 613.244 149.77 621.875 149.77C630.506 149.77 637.5 142.775 637.5 134.145C637.5 125.516 630.506 118.52 621.875 118.52ZM600 134.145C600 122.064 609.794 112.27 621.875 112.27C633.956 112.27 643.75 122.064 643.75 134.145C643.75 146.226 633.956 156.02 621.875 156.02C609.794 156.02 600 146.226 600 134.145Z" fill="#374151"/>
<path fill-rule="evenodd" clip-rule="evenodd" d="M331.25 271.645C331.25 269.92 332.649 268.52 334.375 268.52H371.875C373.601 268.52 375 269.92 375 271.645C375 273.371 373.601 274.77 371.875 274.77H334.375C332.649 274.77 331.25 273.371 331.25 271.645Z" fill="#374151"/>
<path fill-rule="evenodd" clip-rule="evenodd" d="M136.655 159.896C135.42 158.579 133.33 158.579 132.095 159.896L119.595 173.23C119.053 173.809 118.75 174.573 118.75 175.367V196.645C118.75 198.371 120.149 199.77 121.875 199.77H146.875C148.601 199.77 150 198.371 150 196.645V175.367C150 174.573 149.698 173.809 149.155 173.23L136.655 159.896ZM127.536 155.621C131.239 151.671 137.511 151.671 141.214 155.621L153.714 168.955C155.343 170.693 156.25 172.985 156.25 175.367V196.645C156.25 201.823 152.053 206.02 146.875 206.02H121.875C116.698 206.02 112.5 201.823 112.5 196.645V175.367C112.5 172.985 113.407 170.693 115.036 168.955L127.536 155.621Z" fill="#374151"/>
<path fill-rule="evenodd" clip-rule="evenodd" d="M132.095 120.894C133.33 122.211 135.42 122.211 136.655 120.894L149.155 107.561C149.698 106.982 150 106.218 150 105.423V84.1452C150 82.419 148.601 81.0202 146.875 81.0202H121.875C120.149 81.0202 118.75 82.419 118.75 84.1452V105.423C118.75 106.218 119.053 106.982 119.595 107.561L132.095 120.894ZM141.214 125.169C137.511 129.12 131.239 129.12 127.536 125.169L115.036 111.835C113.407 110.098 112.5 107.805 112.5 105.423V84.1452C112.5 78.9678 116.698 74.7702 121.875 74.7702H146.875C152.053 74.7702 156.25 78.9678 156.25 84.1452V105.423C156.25 107.805 155.343 110.098 153.714 111.835L141.214 125.169Z" fill="#374151"/>
<path fill-rule="evenodd" clip-rule="evenodd" d="M114.874 142.675C116.191 141.44 116.191 139.35 114.874 138.115L101.541 125.615C100.961 125.072 100.198 124.77 99.4031 124.77H78.125C76.3988 124.77 75 126.17 75 127.895V152.895C75 154.621 76.3988 156.02 78.125 156.02H99.4031C100.198 156.02 100.961 155.718 101.541 155.175L114.874 142.675ZM119.149 133.556C123.099 137.26 123.099 143.531 119.149 147.235L105.816 159.735C104.078 161.363 101.785 162.27 99.4031 162.27H78.125C72.9475 162.27 68.75 158.073 68.75 152.895V127.895C68.75 122.718 72.9475 118.52 78.125 118.52H99.4031C101.785 118.52 104.078 119.426 105.816 121.056L119.149 133.556Z" fill="#374151"/>
<path fill-rule="evenodd" clip-rule="evenodd" d="M153.876 138.115C152.559 139.35 152.559 141.44 153.876 142.675L167.209 155.175C167.789 155.718 168.553 156.02 169.347 156.02H190.625C192.351 156.02 193.75 154.621 193.75 152.895V127.895C193.75 126.17 192.351 124.77 190.625 124.77H169.347C168.553 124.77 167.789 125.072 167.209 125.615L153.876 138.115ZM149.601 147.235C145.651 143.531 145.651 137.26 149.601 133.556L162.934 121.056C164.673 119.426 166.965 118.52 169.347 118.52H190.625C195.803 118.52 200 122.718 200 127.895V152.895C200 158.073 195.803 162.27 190.625 162.27H169.347C166.965 162.27 164.673 161.363 162.934 159.735L149.601 147.235Z" fill="#374151"/>
<path fill-rule="evenodd" clip-rule="evenodd" d="M523.391 40.5821C520.042 39.7446 516.649 41.7809 515.812 45.1296L509.562 70.1296C508.724 73.4784 510.761 76.8715 514.109 77.709C517.458 78.5459 520.851 76.5096 521.689 73.1615L527.939 48.1615C528.776 44.8127 526.739 41.419 523.391 40.5821Z" fill="#374151"/>
<path fill-rule="evenodd" clip-rule="evenodd" d="M182.859 40.5821C186.208 39.7446 189.601 41.7809 190.438 45.1296L196.688 70.1296C197.526 73.4784 195.489 76.8715 192.141 77.709C188.792 78.5459 185.399 76.5096 184.561 73.1615L178.311 48.1615C177.474 44.8127 179.511 41.419 182.859 40.5821Z" fill="#374151"/>
<path fill-rule="evenodd" clip-rule="evenodd" d="M325 196.645C325 194.92 326.399 193.52 328.125 193.52H378.125C379.851 193.52 381.25 194.92 381.25 196.645C381.25 198.371 379.851 199.77 378.125 199.77H328.125C326.399 199.77 325 198.371 325 196.645Z" fill="#374151"/>
<path fill-rule="evenodd" clip-rule="evenodd" d="M312.5 184.145C312.5 182.42 313.899 181.02 315.625 181.02H390.625C392.351 181.02 393.75 182.42 393.75 184.145C393.75 185.871 392.351 187.27 390.625 187.27H315.625C313.899 187.27 312.5 185.871 312.5 184.145Z" fill="#374151"/>
</svg>
