<svg width="313" height="384" viewBox="0 0 313 384" fill="none" xmlns="http://www.w3.org/2000/svg">
<path fill-rule="evenodd" clip-rule="evenodd" d="M163.549 185.414H133.018C132.407 185.414 131.912 185.847 131.912 186.382V193.953C131.912 194.488 132.407 194.921 133.018 194.921H163.549C164.16 194.921 164.656 194.488 164.656 193.953V186.382C164.656 185.847 164.16 185.414 163.549 185.414ZM133.018 184.155C131.613 184.155 130.474 185.152 130.474 186.382V193.953C130.474 195.183 131.613 196.18 133.018 196.18H163.549C164.955 196.18 166.094 195.183 166.094 193.953V186.382C166.094 185.152 164.955 184.155 163.549 184.155H133.018Z" fill="#E1EFFE"/>
<path fill-rule="evenodd" clip-rule="evenodd" d="M203.242 185.414H172.711C172.1 185.414 171.604 185.847 171.604 186.382V193.953C171.604 194.488 172.1 194.921 172.711 194.921H203.242C203.853 194.921 204.348 194.488 204.348 193.953V186.382C204.348 185.847 203.853 185.414 203.242 185.414ZM172.711 184.155C171.305 184.155 170.166 185.152 170.166 186.382V193.953C170.166 195.183 171.305 196.18 172.711 196.18H203.242C204.647 196.18 205.786 195.183 205.786 193.953V186.382C205.786 185.152 204.647 184.155 203.242 184.155H172.711Z" fill="#E1EFFE"/>
<path fill-rule="evenodd" clip-rule="evenodd" d="M183.396 201H152.864C152.253 201 151.758 201.433 151.758 201.968V209.539C151.758 210.073 152.253 210.507 152.864 210.507H183.396C184.007 210.507 184.502 210.073 184.502 209.539V201.968C184.502 201.433 184.007 201 183.396 201ZM152.864 199.741C151.459 199.741 150.32 200.738 150.32 201.968V209.539C150.32 210.769 151.459 211.766 152.864 211.766H183.396C184.801 211.766 185.94 210.769 185.94 209.539V201.968C185.94 200.738 184.801 199.741 183.396 199.741H152.864Z" fill="#E1EFFE"/>
<path fill-rule="evenodd" clip-rule="evenodd" d="M237.843 1.25867H207.312C206.701 1.25867 206.206 1.69211 206.206 2.22677V9.7978C206.206 10.3325 206.701 10.7659 207.312 10.7659H237.843C238.454 10.7659 238.95 10.3325 238.95 9.7978V2.22677C238.95 1.69211 238.454 1.25867 237.843 1.25867ZM207.312 0C205.907 0 204.768 0.996957 204.768 2.22677V9.7978C204.768 11.0276 205.907 12.0246 207.312 12.0246H237.843C239.249 12.0246 240.388 11.0276 240.388 9.7978V2.22677C240.388 0.99696 239.249 0 237.843 0H207.312Z" fill="#E1EFFE"/>
<path fill-rule="evenodd" clip-rule="evenodd" d="M217.997 16.8446H187.466C186.855 16.8446 186.36 17.278 186.36 17.8127V25.3837C186.36 25.9184 186.855 26.3518 187.466 26.3518H217.997C218.608 26.3518 219.104 25.9184 219.104 25.3837V17.8127C219.104 17.278 218.608 16.8446 217.997 16.8446ZM187.466 15.5859C186.061 15.5859 184.922 16.5829 184.922 17.8127V25.3837C184.922 26.6136 186.061 27.6105 187.466 27.6105H217.997C219.403 27.6105 220.542 26.6136 220.542 25.3837V17.8127C220.542 16.5829 219.403 15.5859 217.997 15.5859H187.466Z" fill="#E1EFFE"/>
<path fill-rule="evenodd" clip-rule="evenodd" d="M257.688 16.8446H227.157C226.546 16.8446 226.051 17.278 226.051 17.8127V25.3837C226.051 25.9184 226.546 26.3518 227.157 26.3518H257.688C258.299 26.3518 258.794 25.9184 258.794 25.3837V17.8127C258.794 17.278 258.299 16.8446 257.688 16.8446ZM227.157 15.5859C225.752 15.5859 224.613 16.5829 224.613 17.8127V25.3837C224.613 26.6136 225.752 27.6105 227.157 27.6105H257.688C259.093 27.6105 260.232 26.6136 260.232 25.3837V17.8127C260.232 16.5829 259.093 15.5859 257.688 15.5859H227.157Z" fill="#E1EFFE"/>
<path d="M89.7661 39.8488C89.7661 37.7633 91.6977 36.0728 94.0805 36.0728H219.535C221.918 36.0728 223.849 37.7633 223.849 39.8488V171.47C223.849 173.556 221.918 175.246 219.535 175.246H94.0805C91.6977 175.246 89.7661 173.556 89.7661 171.47V39.8488Z" fill="#E1EFFE"/>
<path d="M97.3999 47.2088C97.3999 45.3641 99.1086 43.8687 101.216 43.8687H212.401C214.509 43.8687 216.217 45.3641 216.217 47.2088V164.114C216.217 165.959 214.509 167.454 212.401 167.454H101.216C99.1086 167.454 97.3999 165.959 97.3999 164.114V47.2088Z" fill="white"/>
<path d="M84.6765 39.0425C84.6765 37.3007 83.3153 35.7849 81.3815 35.3734L6.30379 19.3956C3.58758 18.8175 0.969978 20.6181 0.969978 23.0647V188.258C0.969978 190.704 3.58757 192.505 6.30379 191.927L81.3815 175.949C83.3153 175.538 84.6765 174.022 84.6765 172.28V39.0425Z" fill="#E1EFFE"/>
<path d="M84.6765 39.0425C84.6765 37.3007 83.3153 35.7849 81.3815 35.3734L6.30379 19.3956C3.58758 18.8175 0.969978 20.6181 0.969978 23.0647V188.258C0.969978 190.704 3.58757 192.505 6.30379 191.927L81.3815 175.949C83.3153 175.538 84.6765 174.022 84.6765 172.28V39.0425Z" fill="url(#paint0_linear_5523_48346)"/>
<path fill-rule="evenodd" clip-rule="evenodd" d="M184.102 96.2554L168.836 145.69L170.225 146.018L185.49 96.5838L184.102 96.2554Z" fill="#E1EFFE"/>
<path fill-rule="evenodd" clip-rule="evenodd" d="M129.77 96.2554L145.036 145.69L143.647 146.018L128.382 96.5838L129.77 96.2554Z" fill="#E1EFFE"/>
<path d="M170.419 143.403C170.419 149.921 164.381 155.205 156.934 155.205C149.487 155.205 143.449 149.921 143.449 143.403C143.449 136.885 149.487 131.601 156.934 131.601C164.381 131.601 170.419 136.885 170.419 143.403Z" fill="#C3DDFD"/>
<path d="M186.448 89.5168C186.448 103.783 173.235 115.347 156.935 115.347C140.635 115.347 127.421 103.783 127.421 89.5168C127.421 75.251 140.635 63.6863 156.935 63.6863C173.235 63.6863 186.448 75.251 186.448 89.5168Z" fill="#C3DDFD"/>
<path fill-rule="evenodd" clip-rule="evenodd" d="M156.935 104.513C166.398 104.513 174.07 97.7989 174.07 89.5164C174.07 81.2339 166.398 74.5197 156.935 74.5197C147.471 74.5197 139.799 81.2339 139.799 89.5164C139.799 97.7989 147.471 104.513 156.935 104.513ZM156.935 105.772C167.192 105.772 175.508 98.494 175.508 89.5164C175.508 80.5388 167.192 73.261 156.935 73.261C146.677 73.261 138.361 80.5388 138.361 89.5164C138.361 98.494 146.677 105.772 156.935 105.772Z" fill="#E1EFFE"/>
<path d="M163.296 143.403C163.296 146.478 160.448 148.97 156.935 148.97C153.422 148.97 150.574 146.478 150.574 143.403C150.574 140.329 153.422 137.836 156.935 137.836C160.448 137.836 163.296 140.329 163.296 143.403Z" fill="white"/>
<path d="M167.621 89.5153C167.621 94.6805 162.837 98.8677 156.935 98.8677C151.033 98.8677 146.249 94.6805 146.249 89.5153C146.249 84.3501 151.033 80.1628 156.935 80.1628C162.837 80.1628 167.621 84.3501 167.621 89.5153Z" fill="white"/>
<path d="M156.935 84.8389L161.563 87.177V91.8532L156.935 94.1913L152.308 91.8532V87.177L156.935 84.8389Z" fill="#C3DDFD"/>
<path fill-rule="evenodd" clip-rule="evenodd" d="M102.545 317.315L111.708 342.269V383.894H86.5402C85.7459 383.894 85.1021 383.331 85.1021 382.635V342.269L94.265 317.315C94.8448 315.737 96.5171 314.667 98.4048 314.667C100.293 314.667 101.965 315.737 102.545 317.315Z" fill="#E1EFFE"/>
<path fill-rule="evenodd" clip-rule="evenodd" d="M102.545 317.315L111.708 342.269V383.894H86.5402C85.7459 383.894 85.1021 383.331 85.1021 382.635V342.269L94.265 317.315C94.8448 315.737 96.5171 314.667 98.4048 314.667C100.293 314.667 101.965 315.737 102.545 317.315Z" fill="url(#paint1_linear_5523_48346)"/>
<path d="M98.4158 321.88C98.4158 320.712 99.4979 319.764 100.833 319.764H176.907C178.241 319.764 179.324 320.712 179.324 321.88C179.324 323.048 178.241 323.995 176.907 323.995H100.833C99.4979 323.995 98.4158 323.048 98.4158 321.88Z" fill="#E1EFFE"/>
<path fill-rule="evenodd" clip-rule="evenodd" d="M183.607 317.291L192.807 342.254V382.636C192.807 383.331 192.164 383.895 191.369 383.895H166.093V342.254L175.293 317.291C175.875 315.712 177.554 314.642 179.45 314.642C181.345 314.642 183.025 315.712 183.607 317.291Z" fill="#E1EFFE"/>
<path fill-rule="evenodd" clip-rule="evenodd" d="M183.607 317.291L192.807 342.254V382.636C192.807 383.331 192.164 383.895 191.369 383.895H166.093V342.254L175.293 317.291C175.875 315.712 177.554 314.642 179.45 314.642C181.345 314.642 183.025 315.712 183.607 317.291Z" fill="url(#paint2_linear_5523_48346)"/>
<path d="M113.917 314.541L119.398 313.387L132.264 360.214L126.782 361.368L113.917 314.541Z" fill="#76A9FA"/>
<path fill-rule="evenodd" clip-rule="evenodd" d="M136.315 367.124C136.38 367.363 136.655 367.51 136.928 367.453L136.983 367.441C137.214 367.393 137.376 367.211 137.373 367.003L137.368 366.643C137.339 364.593 137.36 362.376 135.867 360.797C134.263 359.1 131.637 358.238 129.004 358.792C126.559 359.307 124.754 360.906 124.07 362.853C123.277 365.109 124.737 367.391 126.058 369.45C126.155 369.602 126.355 369.678 126.548 369.637L126.672 369.611C126.945 369.554 127.113 369.314 127.048 369.074L125.894 364.874L129.884 361.558L135.161 362.924L136.315 367.124Z" fill="#76A9FA"/>
<path fill-rule="evenodd" clip-rule="evenodd" d="M109.867 307.419C109.801 307.18 109.526 307.033 109.253 307.091L109.198 307.102C108.967 307.151 108.805 307.333 108.808 307.541L108.813 307.9C108.842 309.95 108.821 312.167 110.315 313.747C111.919 315.444 114.544 316.305 117.178 315.751C119.623 315.237 121.427 313.638 122.111 311.691C122.904 309.434 121.444 307.153 120.124 305.094C120.026 304.942 119.826 304.865 119.633 304.906L119.51 304.932C119.236 304.989 119.068 305.23 119.134 305.469L120.288 309.669L116.297 312.986L111.021 311.619L109.867 307.419Z" fill="#76A9FA"/>
<path d="M128.762 320.198L133.471 320.172L133.759 360.402L129.049 360.428L128.762 320.198Z" fill="#76A9FA"/>
<path fill-rule="evenodd" clip-rule="evenodd" d="M135.551 366.677C135.552 366.895 135.756 367.071 136.005 367.069C136.216 367.068 136.398 366.938 136.443 366.758C136.909 364.911 137.483 362.887 136.417 361.241C135.435 359.723 133.567 358.694 131.415 358.706C129.315 358.717 127.499 359.718 126.52 361.187C125.384 362.891 126.076 364.99 126.703 366.884C126.749 367.024 126.895 367.119 127.061 367.118L127.13 367.118C127.385 367.117 127.591 366.935 127.589 366.711L127.564 363.135L131.53 361.102L135.525 363.092L135.551 366.677Z" fill="#76A9FA"/>
<path fill-rule="evenodd" clip-rule="evenodd" d="M127.014 313.757C127.012 313.539 126.809 313.363 126.559 313.364C126.349 313.365 126.167 313.495 126.121 313.675C125.655 315.522 125.081 317.547 126.147 319.192C127.13 320.71 128.998 321.739 131.149 321.728C133.25 321.716 135.065 320.716 136.045 319.246C137.18 317.543 136.488 315.444 135.862 313.549C135.816 313.41 135.669 313.314 135.503 313.315L135.434 313.316C135.179 313.317 134.974 313.499 134.975 313.722L135.001 317.298L131.034 319.332L127.039 317.342L127.014 313.757Z" fill="#76A9FA"/>
<path d="M149.121 313.499L154.143 314.214L143.278 372.678L138.256 371.963L149.121 313.499Z" fill="#76A9FA"/>
<path d="M141.82 308.398C141.887 308.034 142.279 307.787 142.696 307.846L158.588 310.109C158.738 310.13 158.877 310.19 158.988 310.281L163.621 314.085C163.806 314.237 163.892 314.46 163.852 314.679L163.563 316.231C163.496 316.596 163.103 316.843 162.687 316.784L141.593 313.781C141.177 313.721 140.894 313.378 140.962 313.014L141.82 308.398Z" fill="#76A9FA"/>
<path d="M85.1021 342.359H166.264V384H86.5402C85.7459 384 85.1021 383.436 85.1021 382.741V342.359Z" fill="#E1EFFE"/>
<path d="M286.691 350.716C280.885 360.805 268.643 370.031 260.845 373.858C258.598 374.961 256.923 376.964 256.923 379.219H312.134L309.462 347.376L286.691 350.716Z" fill="#1F2A37"/>
<path d="M256.924 379.22H312.134L312.493 382.518C312.574 383.257 311.91 383.896 311.062 383.896H258.362C257.567 383.896 256.924 383.332 256.924 382.637V379.22Z" fill="#1A56DB"/>
<path fill-rule="evenodd" clip-rule="evenodd" d="M301.703 369.884C303.438 369.884 304.845 368.653 304.845 367.135C304.845 365.616 303.438 364.385 301.703 364.385C299.968 364.385 298.562 365.616 298.562 367.135C298.562 368.653 299.968 369.884 301.703 369.884ZM301.703 371.143C304.233 371.143 306.283 369.349 306.283 367.135C306.283 364.921 304.233 363.127 301.703 363.127C299.174 363.127 297.124 364.921 297.124 367.135C297.124 369.349 299.174 371.143 301.703 371.143Z" fill="#374151"/>
<path d="M259.976 354.726C254.211 364.744 242.629 371.13 235.001 374.077C232.644 374.987 230.971 376.966 230.971 379.221H286.182V354.726H259.976Z" fill="#374151"/>
<path d="M230.971 379.22H286.182V382.638C286.182 383.333 285.538 383.896 284.744 383.896H232.41C231.615 383.896 230.971 383.333 230.971 382.638V379.22Z" fill="#1C64F2"/>
<path fill-rule="evenodd" clip-rule="evenodd" d="M273.715 369.943C275.45 369.943 276.857 368.712 276.857 367.194C276.857 365.675 275.45 364.444 273.715 364.444C271.98 364.444 270.574 365.675 270.574 367.194C270.574 368.712 271.98 369.943 273.715 369.943ZM273.715 371.202C276.245 371.202 278.295 369.407 278.295 367.194C278.295 364.98 276.245 363.186 273.715 363.186C271.186 363.186 269.136 364.98 269.136 367.194C269.136 369.407 271.186 371.202 273.715 371.202Z" fill="#6B7280"/>
<path d="M173.726 118.911C181.7 120.307 210.236 120.878 222.831 121.249C230.718 119.765 244.711 118.911 240.132 129.6C234.407 142.961 199.042 127.708 176.527 128.821C164.437 129.419 159.3 123.433 160.88 120.582C163.04 116.685 166.093 117.575 173.726 118.911Z" fill="#FDBA8C"/>
<path d="M173.726 118.911C181.7 120.307 210.236 120.878 222.831 121.249C230.718 119.765 244.711 118.911 240.132 129.6C234.407 142.961 199.042 127.708 176.527 128.821C164.437 129.419 159.3 123.433 160.88 120.582C163.04 116.685 166.093 117.575 173.726 118.911Z" fill="url(#paint3_linear_5523_48346)"/>
<path d="M239.625 130.266L222.705 121.248C233.101 107.272 253.185 74.5738 261.76 81.3887C270.335 88.2037 251.265 118.148 239.625 130.266Z" fill="#F9FAFB"/>
<path d="M239.625 130.266L222.705 121.248C233.101 107.272 253.185 74.5738 261.76 81.3887C270.335 88.2037 251.265 118.148 239.625 130.266Z" fill="url(#paint4_linear_5523_48346)"/>
<path d="M310.709 350.405L276.967 353.584C276.162 353.659 275.444 353.139 275.38 352.432L259.468 177.473L290.508 169.902L311.985 349.022C312.068 349.712 311.497 350.331 310.709 350.405Z" fill="#1C64F2"/>
<path d="M310.709 350.405L276.967 353.584C276.162 353.659 275.444 353.139 275.38 352.432L259.468 177.473L290.508 169.902L311.985 349.022C312.068 349.712 311.497 350.331 310.709 350.405Z" fill="url(#paint5_linear_5523_48346)"/>
<path d="M276.004 88.4033C274.478 80.5651 268.668 78.3086 265.955 78.1602L257.177 80.7209C245.066 84.2838 247.169 126.37 250.053 146.856C268.575 146.856 281.263 140.473 285.291 137.281C282.832 124.254 277.531 96.2416 276.004 88.4033Z" fill="#F9FAFB"/>
<path d="M276.004 88.4033C274.478 80.5651 268.668 78.3086 265.955 78.1602L257.177 80.7209C245.066 84.2838 247.169 126.37 250.053 146.856C268.575 146.856 281.263 140.473 285.291 137.281C282.832 124.254 277.531 96.2416 276.004 88.4033Z" fill="url(#paint6_linear_5523_48346)"/>
<path d="M258.198 80.4978C251.481 84.506 249.124 101.541 248.784 108.667L245.477 115.904C245.646 112.192 246.545 102.654 248.784 94.1925C251.023 85.7308 254.636 81.2401 256.544 80.0525L258.198 80.4978Z" fill="#1C64F2"/>
<path d="M258.198 80.4978C251.481 84.506 249.124 101.541 248.784 108.667L245.477 115.904C245.646 112.192 246.545 102.654 248.784 94.1925C251.023 85.7308 254.636 81.2401 256.544 80.0525L258.198 80.4978Z" fill="url(#paint7_linear_5523_48346)"/>
<path d="M278.806 108.89C278.908 118.865 267.23 123.735 261.378 124.922L248.402 129.153L245.492 356.013C245.483 356.714 246.13 357.286 246.93 357.286H289.464C290.254 357.286 290.896 356.759 290.901 356.067C291.367 299.556 292.003 183.277 290.891 160.551C289.492 131.937 277.788 88.96 276.262 86.0652C274.735 83.1704 272.064 76.8243 263.031 82.2799C255.806 86.6444 253.914 96.7539 254.381 99.8714L256.798 96.1969C257.307 87.6238 266.975 80.3868 271.046 81.8342C275.117 83.2816 278.679 96.4196 278.806 108.89Z" fill="#1C64F2"/>
<path d="M278.806 108.89C278.908 118.865 267.23 123.735 261.378 124.922L248.402 129.153L245.492 356.013C245.483 356.714 246.13 357.286 246.93 357.286H289.464C290.254 357.286 290.896 356.759 290.901 356.067C291.367 299.556 292.003 183.277 290.891 160.551C289.492 131.937 277.788 88.96 276.262 86.0652C274.735 83.1704 272.064 76.8243 263.031 82.2799C255.806 86.6444 253.914 96.7539 254.381 99.8714L256.798 96.1969C257.307 87.6238 266.975 80.3868 271.046 81.8342C275.117 83.2816 278.679 96.4196 278.806 108.89Z" fill="url(#paint8_linear_5523_48346)"/>
<path fill-rule="evenodd" clip-rule="evenodd" d="M291.02 348.008H245.477V346.749H291.02V348.008Z" fill="#E1EFFE"/>
<path fill-rule="evenodd" clip-rule="evenodd" d="M277.684 166.379C267.394 165.938 261.89 161.031 260.355 158.384L261.638 157.814C262.937 160.055 267.976 164.703 277.755 165.122C278.922 165.172 279.903 166.01 279.879 167.076L275.964 347.275L274.526 347.251L278.442 167.052C278.449 166.71 278.125 166.398 277.684 166.379Z" fill="#E1EFFE"/>
<path fill-rule="evenodd" clip-rule="evenodd" d="M246.752 257.635C246.835 257.636 246.918 257.637 247.001 257.637C254.729 257.637 260.994 252.154 260.994 245.39C260.994 238.645 254.765 233.174 247.066 233.143L246.752 257.635Z" fill="url(#paint9_linear_5523_48346)"/>
<path d="M236.945 54.9182C235.345 56.0383 236.279 57.0961 236.945 57.485L245.745 62.735C250.59 63.7851 258.641 65.2225 258.706 64.1315C258.812 62.3501 259.079 61.685 258.812 57.2516C258.599 53.7049 256.501 50.5626 255.479 49.4348C249.967 50.7959 238.545 53.7982 236.945 54.9182Z" fill="#111928"/>
<path d="M156.206 98.1211L162.162 96.8677L176.141 147.747L170.185 149L156.206 98.1211Z" fill="#76A9FA"/>
<path fill-rule="evenodd" clip-rule="evenodd" d="M180.552 155.292C180.618 155.531 180.892 155.678 181.166 155.621L181.302 155.592C181.533 155.543 181.695 155.361 181.692 155.153L181.682 154.466C181.653 152.416 181.662 150.22 180.244 148.588C178.523 146.607 175.565 145.577 172.598 146.202C169.942 146.761 167.981 148.498 167.238 150.613C166.376 153.065 167.962 155.544 169.397 157.781C169.503 157.946 169.721 158.029 169.93 157.985L170.107 157.948C170.38 157.89 170.549 157.65 170.483 157.411L169.219 152.81L173.554 149.207L179.288 150.691L180.552 155.292Z" fill="#76A9FA"/>
<path fill-rule="evenodd" clip-rule="evenodd" d="M151.794 90.3455C151.728 90.1063 151.454 89.9591 151.18 90.0166L151.044 90.0453C150.813 90.0939 150.651 90.276 150.654 90.4839L150.664 91.1716C150.693 93.2217 150.684 95.4168 152.102 97.0488C153.823 99.0298 156.781 100.06 159.748 99.4357C162.404 98.8767 164.365 97.1392 165.108 95.0241C165.97 92.5718 164.384 90.093 162.949 87.8558C162.843 87.6911 162.625 87.6079 162.416 87.6521L162.239 87.6893C161.966 87.7468 161.797 87.9873 161.863 88.2264L163.127 92.8272L158.791 96.4306L153.058 94.9462L151.794 90.3455Z" fill="#76A9FA"/>
<path d="M160.368 121.136C159.656 116.148 164.99 116.163 167.747 116.794L166.856 113.677C168.892 114.233 175.252 120.468 179.705 121.136C183.267 121.671 220.286 128.485 238.35 131.825L238.986 130.266L263.666 128.707C261.249 134.163 255.066 145.876 249.672 149.082C242.93 153.09 189.627 133.161 177.288 130.489C164.948 127.817 161.259 127.371 160.368 121.136Z" fill="#FDBA8C"/>
<path d="M160.368 121.136C159.656 116.148 164.99 116.163 167.747 116.794L166.856 113.677C168.892 114.233 175.252 120.468 179.705 121.136C183.267 121.671 220.286 128.485 238.35 131.825L238.986 130.266L263.666 128.707C261.249 134.163 255.066 145.876 249.672 149.082C242.93 153.09 189.627 133.161 177.288 130.489C164.948 127.817 161.259 127.371 160.368 121.136Z" fill="url(#paint10_linear_5523_48346)"/>
<path d="M259.468 137.229L238.988 130.264C245.307 113.044 260.742 79.8502 271.937 84.8382C282.778 89.6689 270.313 120.231 262.044 136.312C261.603 137.17 260.47 137.57 259.468 137.229Z" fill="#F9FAFB"/>
<path d="M265.831 78.1769L258.707 64.1482C255.758 65.8978 250.18 70.0173 251.455 72.4986L257.18 83.6324C260.818 82.9956 263.981 80.9918 265.831 78.1769Z" fill="#FDBA8C"/>
<path d="M265.831 78.1769L258.707 64.1482C255.758 65.8978 250.18 70.0173 251.455 72.4986L257.18 83.6324C260.818 82.9956 263.981 80.9918 265.831 78.1769Z" fill="url(#paint11_linear_5523_48346)"/>
<path d="M244.564 56.8726C241.896 55.465 238.294 56.7553 236.826 57.5764C237.049 59.375 238.027 64.4738 240.162 70.4796C242.296 76.4855 248.345 74.6243 251.102 72.943C252.97 71.7364 257.106 68.2877 258.707 64.1453C257.551 63.9498 255.772 63.207 254.704 61.7993C253.37 60.0398 255.995 56.795 253.504 55.6996C251.903 54.9958 250.435 55.8169 249.768 57.5764C249.101 59.3358 247.9 58.6321 244.564 56.8726Z" fill="#FDBA8C"/>
<path d="M244.564 56.8726C241.896 55.465 238.294 56.7553 236.826 57.5764C237.049 59.375 238.027 64.4738 240.162 70.4796C242.296 76.4855 248.345 74.6243 251.102 72.943C252.97 71.7364 257.106 68.2877 258.707 64.1453C257.551 63.9498 255.772 63.207 254.704 61.7993C253.37 60.0398 255.995 56.795 253.504 55.6996C251.903 54.9958 250.435 55.8169 249.768 57.5764C249.101 59.3358 247.9 58.6321 244.564 56.8726Z" fill="url(#paint12_linear_5523_48346)"/>
<path d="M247.069 69.6652L240.622 70.9737C240.436 71.0113 240.237 70.9911 240.085 70.8908C239.101 70.2413 239.337 69.175 239.601 68.692C241.906 68.3632 245.124 68.843 247.076 69.2548C247.331 69.3086 247.325 69.6133 247.069 69.6652Z" fill="#111928"/>
<path d="M243.212 62.5736C243.212 63.0655 242.807 63.4643 242.307 63.4643C241.808 63.4643 241.403 63.0655 241.403 62.5736C241.403 62.0816 241.808 61.6829 242.307 61.6829C242.807 61.6829 243.212 62.0816 243.212 62.5736Z" fill="#111928"/>
<path fill-rule="evenodd" clip-rule="evenodd" d="M241.54 59.8231C240.846 59.9533 240.341 60.3177 239.898 60.7739C239.769 60.9063 239.542 60.9223 239.391 60.8096C239.239 60.697 239.221 60.4984 239.35 60.3661C239.844 59.8581 240.477 59.3789 241.39 59.2078C242.299 59.0372 243.422 59.1845 244.87 59.8052C245.049 59.8816 245.122 60.0701 245.035 60.2262C244.948 60.3822 244.732 60.4468 244.554 60.3704C243.191 59.7861 242.238 59.6924 241.54 59.8231Z" fill="#111928"/>
<path fill-rule="evenodd" clip-rule="evenodd" d="M253.04 58.4328C253.071 57.9593 252.873 57.5616 252.581 57.1799C252.47 57.0355 252.514 56.84 252.679 56.7433C252.844 56.6466 253.068 56.6853 253.178 56.8297C253.515 57.2693 253.801 57.8036 253.758 58.4682C253.716 59.1294 253.351 59.8648 252.519 60.7187C252.39 60.8509 252.163 60.8667 252.012 60.7539C251.861 60.6411 251.843 60.4425 251.972 60.3103C252.743 59.5184 253.01 58.9096 253.04 58.4328Z" fill="#111928"/>
<path fill-rule="evenodd" clip-rule="evenodd" d="M243.056 71.8732C243.388 71.7452 243.697 71.5308 244.057 71.1626C244.187 71.0306 244.414 71.0153 244.564 71.1284C244.715 71.2415 244.733 71.4402 244.603 71.5721C244.201 71.9832 243.81 72.2704 243.346 72.4491C242.884 72.6272 242.382 72.6852 241.784 72.6852C241.585 72.6852 241.424 72.5444 241.424 72.3706C241.424 72.1968 241.585 72.0559 241.784 72.0559C242.333 72.0559 242.723 72.0019 243.056 71.8732Z" fill="#111928"/>
<path fill-rule="evenodd" clip-rule="evenodd" d="M238.387 62.1048C238.584 62.0825 238.764 62.2041 238.79 62.3765L239.438 66.7592C239.45 66.8416 239.546 66.8932 239.636 66.8657L241.677 66.2383C241.864 66.1807 242.069 66.267 242.135 66.4309C242.201 66.5949 242.102 66.7745 241.915 66.8321L239.874 67.4595C239.353 67.6196 238.796 67.3192 238.725 66.84L238.076 62.4573C238.051 62.285 238.19 62.1271 238.387 62.1048Z" fill="#111928"/>
<path d="M242.965 46.0696C235.766 48.3867 235.351 54.9196 236.043 57.8964L256.669 50.897C255.192 48.242 250.163 43.7525 242.965 46.0696Z" fill="#E1EFFE"/>
<path d="M242.965 46.0696C235.766 48.3867 235.351 54.9196 236.043 57.8964L256.669 50.897C255.192 48.242 250.163 43.7525 242.965 46.0696Z" fill="url(#paint13_linear_5523_48346)"/>
<path fill-rule="evenodd" clip-rule="evenodd" d="M257.228 50.5574C257.371 50.8816 257.186 51.2459 256.816 51.3712L226.419 61.645C226.048 61.7702 225.632 61.6089 225.489 61.2847C225.346 60.9604 225.53 60.5961 225.901 60.4709L256.298 50.197C256.668 50.0718 257.085 50.2331 257.228 50.5574Z" fill="#111928"/>
<defs>
<linearGradient id="paint0_linear_5523_48346" x1="285.42" y1="136.856" x2="34.0455" y2="136.856" gradientUnits="userSpaceOnUse">
<stop stop-color="#76A9FA"/>
<stop offset="1" stop-color="#76A9FA" stop-opacity="0"/>
</linearGradient>
<linearGradient id="paint1_linear_5523_48346" x1="143.634" y1="361.635" x2="66.6048" y2="361.635" gradientUnits="userSpaceOnUse">
<stop stop-color="#76A9FA"/>
<stop offset="1" stop-color="#76A9FA" stop-opacity="0"/>
</linearGradient>
<linearGradient id="paint2_linear_5523_48346" x1="224.865" y1="361.627" x2="147.519" y2="361.627" gradientUnits="userSpaceOnUse">
<stop stop-color="#76A9FA"/>
<stop offset="1" stop-color="#76A9FA" stop-opacity="0"/>
</linearGradient>
<linearGradient id="paint3_linear_5523_48346" x1="245.602" y1="163.001" x2="215.815" y2="101.292" gradientUnits="userSpaceOnUse">
<stop stop-color="#7F270F"/>
<stop offset="1" stop-color="#7F270F" stop-opacity="0"/>
</linearGradient>
<linearGradient id="paint4_linear_5523_48346" x1="262.141" y1="125.924" x2="250.173" y2="92.9948" gradientUnits="userSpaceOnUse">
<stop stop-color="#A4CAFE"/>
<stop offset="1" stop-color="#A4CAFE" stop-opacity="0"/>
</linearGradient>
<linearGradient id="paint5_linear_5523_48346" x1="203.24" y1="261.868" x2="339.771" y2="345.176" gradientUnits="userSpaceOnUse">
<stop stop-color="#111928"/>
<stop offset="1" stop-color="#111928" stop-opacity="0"/>
</linearGradient>
<linearGradient id="paint6_linear_5523_48346" x1="272.188" y1="129.376" x2="285.093" y2="100.265" gradientUnits="userSpaceOnUse">
<stop stop-color="#A4CAFE"/>
<stop offset="1" stop-color="#A4CAFE" stop-opacity="0"/>
</linearGradient>
<linearGradient id="paint7_linear_5523_48346" x1="250.891" y1="77.6795" x2="246.166" y2="134.476" gradientUnits="userSpaceOnUse">
<stop stop-color="#111928"/>
<stop offset="1" stop-color="#111928" stop-opacity="0"/>
</linearGradient>
<linearGradient id="paint8_linear_5523_48346" x1="265.067" y1="61.7934" x2="272.185" y2="215.43" gradientUnits="userSpaceOnUse">
<stop stop-color="#111928"/>
<stop offset="1" stop-color="#111928" stop-opacity="0"/>
</linearGradient>
<linearGradient id="paint9_linear_5523_48346" x1="253.873" y1="206.198" x2="253.873" y2="270.218" gradientUnits="userSpaceOnUse">
<stop stop-color="#E1EFFE"/>
<stop offset="1" stop-color="#E1EFFE" stop-opacity="0"/>
</linearGradient>
<linearGradient id="paint10_linear_5523_48346" x1="272.235" y1="206.009" x2="254.064" y2="114.08" gradientUnits="userSpaceOnUse">
<stop stop-color="#7F270F"/>
<stop offset="1" stop-color="#7F270F" stop-opacity="0"/>
</linearGradient>
<linearGradient id="paint11_linear_5523_48346" x1="240.133" y1="72.7054" x2="260.548" y2="68.5298" gradientUnits="userSpaceOnUse">
<stop stop-color="#7F270F"/>
<stop offset="1" stop-color="#7F270F" stop-opacity="0"/>
</linearGradient>
<linearGradient id="paint12_linear_5523_48346" x1="263.541" y1="45.0938" x2="251.16" y2="68.5006" gradientUnits="userSpaceOnUse">
<stop stop-color="#7F270F"/>
<stop offset="1" stop-color="#7F270F" stop-opacity="0"/>
</linearGradient>
<linearGradient id="paint13_linear_5523_48346" x1="276.997" y1="32.0155" x2="238.481" y2="32.0155" gradientUnits="userSpaceOnUse">
<stop stop-color="#1C64F2"/>
<stop offset="1" stop-color="#1C64F2" stop-opacity="0"/>
</linearGradient>
</defs>
</svg>
