<svg width="274" height="384" viewBox="0 0 274 384" fill="none" xmlns="http://www.w3.org/2000/svg">
<path fill-rule="evenodd" clip-rule="evenodd" d="M143.101 185.464H116.373C115.838 185.464 115.404 185.897 115.404 186.432V194.005C115.404 194.54 115.838 194.973 116.373 194.973H143.101C143.636 194.973 144.07 194.54 144.07 194.005V186.432C144.07 185.897 143.636 185.464 143.101 185.464ZM116.373 184.205C115.142 184.205 114.145 185.202 114.145 186.432V194.005C114.145 195.235 115.142 196.232 116.373 196.232H143.101C144.331 196.232 145.329 195.235 145.329 194.005V186.432C145.329 185.202 144.331 184.205 143.101 184.205H116.373Z" fill="#1F2A37"/>
<path fill-rule="evenodd" clip-rule="evenodd" d="M177.848 185.464H151.12C150.585 185.464 150.151 185.897 150.151 186.432V194.005C150.151 194.54 150.585 194.973 151.12 194.973H177.848C178.383 194.973 178.817 194.54 178.817 194.005V186.432C178.817 185.897 178.383 185.464 177.848 185.464ZM151.12 184.205C149.89 184.205 148.892 185.202 148.892 186.432V194.005C148.892 195.235 149.89 196.232 151.12 196.232H177.848C179.079 196.232 180.076 195.235 180.076 194.005V186.432C180.076 185.202 179.079 184.205 177.848 184.205H151.12Z" fill="#1F2A37"/>
<path fill-rule="evenodd" clip-rule="evenodd" d="M160.475 201.055H133.746C133.211 201.055 132.778 201.489 132.778 202.024V209.597C132.778 210.132 133.211 210.565 133.746 210.565H160.475C161.01 210.565 161.443 210.132 161.443 209.597V202.024C161.443 201.489 161.01 201.055 160.475 201.055ZM133.746 199.796C132.516 199.796 131.519 200.794 131.519 202.024V209.597C131.519 210.827 132.516 211.824 133.746 211.824H160.475C161.705 211.824 162.702 210.827 162.702 209.597V202.024C162.702 200.794 161.705 199.796 160.475 199.796H133.746Z" fill="#1F2A37"/>
<path fill-rule="evenodd" clip-rule="evenodd" d="M208.14 1.25902H181.412C180.877 1.25902 180.443 1.69257 180.443 2.22738V9.80046C180.443 10.3353 180.877 10.7688 181.412 10.7688H208.14C208.675 10.7688 209.109 10.3353 209.109 9.80047V2.22738C209.109 1.69257 208.675 1.25902 208.14 1.25902ZM181.412 0C180.182 0 179.184 0.997228 179.184 2.22738V9.80046C179.184 11.0306 180.182 12.0278 181.412 12.0278H208.14C209.37 12.0278 210.368 11.0306 210.368 9.80047V2.22738C210.368 0.997231 209.37 0 208.14 0H181.412Z" fill="#1F2A37"/>
<path fill-rule="evenodd" clip-rule="evenodd" d="M190.767 16.8508H164.038C163.503 16.8508 163.07 17.2844 163.07 17.8192V25.3923C163.07 25.9271 163.503 26.3606 164.038 26.3606H190.767C191.302 26.3606 191.735 25.9271 191.735 25.3923V17.8192C191.735 17.2844 191.302 16.8508 190.767 16.8508ZM164.038 15.5918C162.808 15.5918 161.811 16.589 161.811 17.8192V25.3923C161.811 26.6224 162.808 27.6196 164.038 27.6196H190.767C191.997 27.6196 192.994 26.6224 192.994 25.3923V17.8192C192.994 16.589 191.997 15.5918 190.767 15.5918H164.038Z" fill="#1F2A37"/>
<path fill-rule="evenodd" clip-rule="evenodd" d="M225.514 16.8508H198.785C198.25 16.8508 197.817 17.2844 197.817 17.8192V25.3923C197.817 25.9271 198.25 26.3606 198.785 26.3606H225.514C226.049 26.3606 226.482 25.9271 226.482 25.3923V17.8192C226.482 17.2844 226.049 16.8508 225.514 16.8508ZM198.785 15.5918C197.555 15.5918 196.558 16.589 196.558 17.8192V25.3923C196.558 26.6224 197.555 27.6196 198.785 27.6196H225.514C226.744 27.6196 227.741 26.6224 227.741 25.3923V17.8192C227.741 16.589 226.744 15.5918 225.514 15.5918H198.785Z" fill="#1F2A37"/>
<path d="M78.5076 41.1193C78.5076 39.0333 80.1986 37.3423 82.2846 37.3423H192.113C194.199 37.3423 195.89 39.0333 195.89 41.1193V172.776C195.89 174.862 194.199 176.553 192.113 176.553H82.2846C80.1986 176.553 78.5076 174.862 78.5076 172.776V41.1193Z" fill="#374151"/>
<path d="M85.1893 48.4797C85.1893 46.6345 86.6852 45.1387 88.5304 45.1387H185.867C187.712 45.1387 189.208 46.6345 189.208 48.4797V165.417C189.208 167.262 187.712 168.758 185.867 168.758H88.5304C86.6852 168.758 85.1893 167.262 85.1893 165.417V48.4797Z" fill="#111928"/>
<path d="M74.0525 40.3113C74.0525 38.569 72.8608 37.0528 71.1679 36.6412L5.44122 20.659C3.06332 20.0808 0.771744 21.8819 0.771744 24.3291V189.567C0.771744 192.014 3.06332 193.816 5.44122 193.237L71.1679 177.255C72.8608 176.844 74.0525 175.327 74.0525 173.585V40.3113Z" fill="#374151"/>
<path fill-rule="evenodd" clip-rule="evenodd" d="M161.092 97.54L147.728 146.988L148.943 147.316L162.307 97.8685L161.092 97.54Z" fill="#374151"/>
<path fill-rule="evenodd" clip-rule="evenodd" d="M113.528 97.54L126.892 146.988L125.677 147.316L112.312 97.8685L113.528 97.54Z" fill="#374151"/>
<path d="M149.115 144.702C149.115 151.222 143.83 156.507 137.31 156.507C130.79 156.507 125.505 151.222 125.505 144.702C125.505 138.182 130.79 132.897 137.31 132.897C143.83 132.897 149.115 138.182 149.115 144.702Z" fill="#374151"/>
<path d="M163.148 90.7995C163.148 105.069 151.58 116.637 137.31 116.637C123.04 116.637 111.473 105.069 111.473 90.7995C111.473 76.5298 123.04 64.9619 137.31 64.9619C151.58 64.9619 163.148 76.5298 163.148 90.7995Z" fill="#374151"/>
<path fill-rule="evenodd" clip-rule="evenodd" d="M137.31 105.8C145.595 105.8 152.311 99.0841 152.311 90.7994C152.311 82.5147 145.595 75.7986 137.31 75.7986C129.026 75.7986 122.309 82.5147 122.309 90.7994C122.309 99.0841 129.026 105.8 137.31 105.8ZM137.31 107.059C146.29 107.059 153.57 99.7795 153.57 90.7994C153.57 81.8193 146.29 74.5396 137.31 74.5396C128.33 74.5396 121.05 81.8193 121.05 90.7994C121.05 99.7795 128.33 107.059 137.31 107.059Z" fill="#111928"/>
<path d="M142.879 144.702C142.879 147.777 140.386 150.27 137.31 150.27C134.235 150.27 131.742 147.777 131.742 144.702C131.742 141.627 134.235 139.134 137.31 139.134C140.386 139.134 142.879 141.627 142.879 144.702Z" fill="#111928"/>
<path d="M146.665 90.7996C146.665 95.9662 142.477 100.155 137.31 100.155C132.144 100.155 127.955 95.9662 127.955 90.7996C127.955 85.633 132.144 81.4446 137.31 81.4446C142.477 81.4446 146.665 85.633 146.665 90.7996Z" fill="#111928"/>
<path d="M137.31 86.1221L141.361 88.4608V93.1383L137.31 95.4771L133.259 93.1383V88.4608L137.31 86.1221Z" fill="#374151"/>
<path fill-rule="evenodd" clip-rule="evenodd" d="M89.6082 317.379L97.6629 342.348V384H75.5344C74.8391 384 74.2754 383.437 74.2754 382.741V342.348L82.3301 317.379C82.8397 315.799 84.3097 314.729 85.9691 314.729C87.6286 314.729 89.0985 315.799 89.6082 317.379Z" fill="#1F2A37"/>
<path d="M86.0806 321.968C86.0806 320.799 87.0279 319.852 88.1966 319.852H154.795C155.964 319.852 156.911 320.799 156.911 321.968C156.911 323.136 155.964 324.084 154.795 324.084H88.1966C87.0279 324.084 86.0806 323.136 86.0806 321.968Z" fill="#374151"/>
<path fill-rule="evenodd" clip-rule="evenodd" d="M160.661 317.379L168.716 342.348V382.741C168.716 383.437 168.152 384 167.457 384H145.329V342.348L153.383 317.379C153.893 315.799 155.363 314.729 157.022 314.729C158.682 314.729 160.152 315.799 160.661 317.379Z" fill="#1F2A37"/>
<path d="M99.6503 314.626L104.449 313.473L115.712 360.313L110.913 361.466L99.6503 314.626Z" fill="#6B7280"/>
<path fill-rule="evenodd" clip-rule="evenodd" d="M119.259 367.225C119.316 367.464 119.557 367.611 119.796 367.554L119.844 367.542C120.046 367.494 120.188 367.312 120.185 367.104L120.181 366.744C120.155 364.694 120.174 362.476 118.867 360.896C117.462 359.199 115.164 358.336 112.858 358.891C110.718 359.405 109.138 361.005 108.539 362.952C107.845 365.21 109.123 367.492 110.279 369.551L-nan -nanL110.279 369.551C110.364 369.703 110.54 369.78 110.709 369.739L110.817 369.713C111.056 369.655 111.203 369.415 111.146 369.176L110.136 364.975L113.629 361.657L118.249 363.024L119.259 367.225Z" fill="#6B7280"/>
<path fill-rule="evenodd" clip-rule="evenodd" d="M96.1051 307.504C96.0476 307.264 95.8071 307.117 95.5679 307.175L95.5198 307.186C95.3176 307.235 95.176 307.417 95.1785 307.625L95.183 307.984C95.2085 310.035 95.1899 312.253 96.4972 313.833C97.9018 315.53 100.2 316.392 102.506 315.838C104.646 315.323 106.226 313.724 106.825 311.776C107.519 309.519 106.241 307.237 105.085 305.177L-nan -nanL105.085 305.177C105 305.026 104.824 304.949 104.655 304.99L104.547 305.016C104.308 305.073 104.161 305.314 104.218 305.553L105.228 309.754L101.735 313.071L97.1153 311.705L96.1051 307.504Z" fill="#6B7280"/>
<path d="M112.645 320.287L116.768 320.261L117.019 360.502L112.897 360.528L112.645 320.287Z" fill="#6B7280"/>
<path fill-rule="evenodd" clip-rule="evenodd" d="M118.589 366.777C118.59 366.995 118.768 367.171 118.987 367.169L-nan -nanL118.987 367.169C119.171 367.168 119.33 367.038 119.37 366.858L-nan -nanL119.37 366.858C119.778 365.01 120.281 362.986 119.348 361.34C118.487 359.821 116.852 358.792 114.968 358.803C113.13 358.815 111.54 359.815 110.683 361.285C109.689 362.99 110.294 365.089 110.843 366.984L-nan -nanL110.843 366.984C110.883 367.124 111.012 367.219 111.157 367.218L111.217 367.218C111.441 367.217 111.62 367.034 111.619 366.811L111.597 363.234L115.069 361.2L118.567 363.19L118.589 366.777Z" fill="#6B7280"/>
<path fill-rule="evenodd" clip-rule="evenodd" d="M111.116 313.843C111.115 313.624 110.937 313.449 110.719 313.45L-nan -nanL110.719 313.45C110.534 313.451 110.375 313.581 110.335 313.761L-nan -nanL110.335 313.761C109.927 315.609 109.425 317.634 110.358 319.28C111.218 320.798 112.853 321.828 114.737 321.816C116.576 321.804 118.165 320.804 119.022 319.334C120.016 317.63 119.411 315.53 118.862 313.635L-nan -nanL118.862 313.635C118.822 313.496 118.694 313.4 118.548 313.401L118.488 313.401C118.265 313.403 118.085 313.585 118.086 313.808L118.109 317.385L114.636 319.419L111.139 317.429L111.116 313.843Z" fill="#6B7280"/>
<path d="M130.47 313.585L134.867 314.3L125.355 372.78L120.958 372.064L130.47 313.585Z" fill="#6B7280"/>
<path d="M124.078 308.483C124.137 308.119 124.481 307.872 124.845 307.931L138.758 310.194C138.889 310.215 139.011 310.275 139.108 310.366L143.164 314.171C143.326 314.323 143.402 314.546 143.366 314.766L143.114 316.318C143.054 316.683 142.711 316.93 142.347 316.871L123.879 313.867C123.515 313.808 123.268 313.464 123.327 313.1L124.078 308.483Z" fill="#6B7280"/>
<path d="M74.2754 343.607C74.2754 342.912 74.8391 342.348 75.5344 342.348H145.329V384H75.5344C74.8391 384 74.2754 383.437 74.2754 382.741V343.607Z" fill="#374151"/>
<path d="M250.906 350.812C245.823 360.903 235.106 370.132 228.279 373.96C226.312 375.063 224.846 377.067 224.846 379.322H273.18L270.841 347.471L250.906 350.812Z" fill="#1F2A37"/>
<path d="M224.846 379.322H273.18L273.494 382.621C273.565 383.361 272.983 384 272.241 384H226.105C225.41 384 224.846 383.436 224.846 382.741V379.322Z" fill="#1A56DB"/>
<path fill-rule="evenodd" clip-rule="evenodd" d="M264.048 369.985C265.567 369.985 266.798 368.754 266.798 367.235C266.798 365.716 265.567 364.484 264.048 364.484C262.529 364.484 261.298 365.716 261.298 367.235C261.298 368.754 262.529 369.985 264.048 369.985ZM264.048 371.244C266.262 371.244 268.057 369.449 268.057 367.235C268.057 365.02 266.262 363.225 264.048 363.225C261.834 363.225 260.039 365.02 260.039 367.235C260.039 369.449 261.834 371.244 264.048 371.244Z" fill="#374151"/>
<path d="M227.519 354.821C222.471 364.842 212.332 371.229 205.654 374.177C203.591 375.087 202.126 377.067 202.126 379.322H250.461V354.821H227.519Z" fill="#374151"/>
<path d="M202.126 379.323H250.461V382.741C250.461 383.436 249.897 384 249.202 384H203.385C202.69 384 202.126 383.436 202.126 382.741V379.323Z" fill="#1C64F2"/>
<path fill-rule="evenodd" clip-rule="evenodd" d="M239.546 370.044C241.065 370.044 242.297 368.813 242.297 367.294C242.297 365.775 241.065 364.544 239.546 364.544C238.027 364.544 236.796 365.775 236.796 367.294C236.796 368.813 238.027 370.044 239.546 370.044ZM239.546 371.303C241.761 371.303 243.556 369.508 243.556 367.294C243.556 365.08 241.761 363.285 239.546 363.285C237.332 363.285 235.537 365.08 235.537 367.294C235.537 369.508 237.332 371.303 239.546 371.303Z" fill="#6B7280"/>
<path d="M152.01 118.942C158.991 120.338 183.973 120.909 194.999 121.28C201.904 119.796 214.154 118.942 210.145 129.633C205.133 142.997 174.173 127.74 154.463 128.854C143.878 129.452 139.381 123.464 140.764 120.613C142.655 116.715 145.328 117.605 152.01 118.942Z" fill="#FDBA8C"/>
<path d="M152.01 118.942C158.991 120.338 183.973 120.909 194.999 121.28C201.904 119.796 214.154 118.942 210.145 129.633C205.133 142.997 174.173 127.74 154.463 128.854C143.878 129.452 139.381 123.464 140.764 120.613C142.655 116.715 145.328 117.605 152.01 118.942Z" fill="url(#paint0_linear_5746_16907)"/>
<path d="M209.7 130.302L194.888 121.281C203.989 107.301 221.571 74.5941 229.078 81.4109C236.585 88.2277 219.891 118.18 209.7 130.302Z" fill="#F9FAFB"/>
<path d="M209.7 130.302L194.888 121.281C203.989 107.301 221.571 74.5941 229.078 81.4109C236.585 88.2277 219.891 118.18 209.7 130.302Z" fill="url(#paint1_linear_5746_16907)"/>
<path d="M271.931 350.501L242.393 353.68C241.688 353.756 241.059 353.235 241.003 352.528L227.073 177.522L254.247 169.948L273.049 349.117C273.121 349.808 272.621 350.426 271.931 350.501Z" fill="#1C64F2"/>
<path d="M271.931 350.501L242.393 353.68C241.688 353.756 241.059 353.235 241.003 352.528L227.073 177.522L254.247 169.948L273.049 349.117C273.121 349.808 272.621 350.426 271.931 350.501Z" fill="url(#paint2_linear_5746_16907)"/>
<path d="M241.551 88.4268C240.214 80.5865 235.129 78.3294 232.753 78.1809L225.068 80.7424C214.466 84.3062 216.307 126.404 218.832 146.896C235.047 146.896 246.154 140.51 249.681 137.318C247.528 124.288 242.887 96.2672 241.551 88.4268Z" fill="#F9FAFB"/>
<path d="M241.551 88.4268C240.214 80.5865 235.129 78.3294 232.753 78.1809L225.068 80.7424C214.466 84.3062 216.307 126.404 218.832 146.896C235.047 146.896 246.154 140.51 249.681 137.318C247.528 124.288 242.887 96.2672 241.551 88.4268Z" fill="url(#paint3_linear_5746_16907)"/>
<path d="M225.96 80.5195C220.08 84.5287 218.016 101.568 217.719 108.696L214.823 115.935C214.971 112.222 215.758 102.682 217.719 94.2178C219.679 85.7538 222.842 81.2619 224.512 80.074L225.96 80.5195Z" fill="#1C64F2"/>
<path d="M225.96 80.5195C220.08 84.5287 218.016 101.568 217.719 108.696L214.823 115.935C214.971 112.222 215.758 102.682 217.719 94.2178C219.679 85.7538 222.842 81.2619 224.512 80.074L225.96 80.5195Z" fill="url(#paint4_linear_5746_16907)"/>
<path d="M244.002 108.919C244.091 118.897 233.867 123.768 228.744 124.956L217.384 129.188L214.837 356.11C214.829 356.811 215.395 357.383 216.096 357.383H253.332C254.024 357.383 254.585 356.856 254.59 356.164C254.998 299.637 255.555 183.327 254.582 160.594C253.357 131.972 243.111 88.9839 241.774 86.0883C240.438 83.1927 238.099 76.8449 230.192 82.302C223.866 86.6676 222.21 96.7799 222.619 99.8982L224.735 96.2228C225.18 87.6474 233.644 80.4084 237.208 81.8562C240.772 83.304 243.89 96.4455 244.002 108.919Z" fill="#1C64F2"/>
<path d="M244.002 108.919C244.091 118.897 233.867 123.768 228.744 124.956L217.384 129.188L214.837 356.11C214.829 356.811 215.395 357.383 216.096 357.383H253.332C254.024 357.383 254.585 356.856 254.59 356.164C254.998 299.637 255.555 183.327 254.582 160.594C253.357 131.972 243.111 88.9839 241.774 86.0883C240.438 83.1927 238.099 76.8449 230.192 82.302C223.866 86.6676 222.21 96.7799 222.619 99.8982L224.735 96.2228C225.18 87.6474 233.644 80.4084 237.208 81.8562C240.772 83.304 243.89 96.4455 244.002 108.919Z" fill="url(#paint5_linear_5746_16907)"/>
<path fill-rule="evenodd" clip-rule="evenodd" d="M254.693 348.1H214.823V346.841H254.693V348.1Z" fill="#E1EFFE"/>
<path fill-rule="evenodd" clip-rule="evenodd" d="M243.019 166.425C234.01 165.984 229.192 161.076 227.848 158.428L228.971 157.858C230.108 160.1 234.52 164.749 243.08 165.168C244.102 165.218 244.961 166.056 244.941 167.123L241.513 347.371L240.254 347.347L243.682 167.099C243.688 166.756 243.405 166.444 243.019 166.425Z" fill="#E1EFFE"/>
<path fill-rule="evenodd" clip-rule="evenodd" d="M215.941 257.706C216.014 257.707 216.086 257.708 216.159 257.708C222.925 257.708 228.409 252.223 228.409 245.457C228.409 238.71 222.956 233.237 216.216 233.207L215.941 257.706Z" fill="url(#paint6_linear_5746_16907)"/>
<path d="M207.355 54.9324C205.954 56.0528 206.771 57.1108 207.355 57.4998L215.059 62.7514C219.3 63.8017 226.348 65.2395 226.405 64.1482C226.498 62.3663 226.732 61.701 226.498 57.2664C226.311 53.7187 224.475 50.5756 223.58 49.4475C218.755 50.809 208.756 53.8121 207.355 54.9324Z" fill="#111928"/>
<path d="M136.671 98.1465L141.885 96.8927L154.123 147.785L148.909 149.039L136.671 98.1465Z" fill="#76A9FA"/>
<path fill-rule="evenodd" clip-rule="evenodd" d="M157.985 155.333C158.043 155.572 158.283 155.719 158.522 155.662L158.642 155.633C158.844 155.585 158.986 155.403 158.983 155.195L158.975 154.507C158.949 152.456 158.957 150.26 157.716 148.628C156.209 146.646 153.619 145.616 151.022 146.24C148.696 146.799 146.98 148.537 146.329 150.653C145.575 153.106 146.963 155.586 148.22 157.823C148.312 157.988 148.503 158.071 148.686 158.027L148.841 157.99C149.08 157.932 149.228 157.692 149.17 157.453L148.064 152.851L151.859 149.246L156.878 150.731L157.985 155.333Z" fill="#76A9FA"/>
<path fill-rule="evenodd" clip-rule="evenodd" d="M132.81 90.3696C132.753 90.1304 132.512 89.9831 132.273 90.0407L132.153 90.0694C131.951 90.118 131.81 90.3001 131.812 90.5081L131.821 91.196C131.846 93.2466 131.838 95.4424 133.08 97.0748C134.586 99.0563 137.176 100.087 139.774 99.4623C142.099 98.9032 143.816 97.1652 144.466 95.0495C145.221 92.5966 143.832 90.1171 142.576 87.8793C142.483 87.7146 142.293 87.6314 142.109 87.6755L141.954 87.7127C141.715 87.7703 141.568 88.0108 141.625 88.25L142.732 92.852L138.936 96.4565L133.917 94.9716L132.81 90.3696Z" fill="#76A9FA"/>
<path d="M140.317 121.169C139.693 116.18 144.363 116.195 146.776 116.826L145.997 113.707C147.778 114.264 153.347 120.501 157.245 121.169C160.363 121.704 192.772 128.519 208.586 131.86L209.143 130.301L230.748 128.742C228.632 134.199 223.22 145.915 218.498 149.123C212.595 153.132 165.932 133.197 155.129 130.524C144.326 127.851 141.096 127.406 140.317 121.169Z" fill="#FDBA8C"/>
<path d="M140.317 121.169C139.693 116.18 144.363 116.195 146.776 116.826L145.997 113.707C147.778 114.264 153.347 120.501 157.245 121.169C160.363 121.704 192.772 128.519 208.586 131.86L209.143 130.301L230.748 128.742C228.632 134.199 223.22 145.915 218.498 149.123C212.595 153.132 165.932 133.197 155.129 130.524C144.326 127.851 141.096 127.406 140.317 121.169Z" fill="url(#paint7_linear_5746_16907)"/>
<path d="M227.071 137.267L209.143 130.301C214.674 113.076 228.187 79.873 237.987 84.8623C247.479 89.6943 236.566 120.265 229.327 136.351C228.94 137.209 227.949 137.608 227.071 137.267Z" fill="#F9FAFB"/>
<path d="M232.641 78.1958L226.405 64.1633C223.823 65.9134 218.94 70.034 220.057 72.516L225.068 83.6529C228.253 83.0159 231.022 81.0115 232.641 78.1958Z" fill="#FDBA8C"/>
<path d="M232.641 78.1958L226.405 64.1633C223.823 65.9134 218.94 70.034 220.057 72.516L225.068 83.6529C228.253 83.0159 231.022 81.0115 232.641 78.1958Z" fill="url(#paint8_linear_5746_16907)"/>
<path d="M214.024 56.8859C211.688 55.4779 208.535 56.7686 207.25 57.5899C207.444 59.389 208.301 64.4892 210.17 70.4967C212.039 76.5042 217.334 74.6425 219.748 72.9607C221.383 71.7538 225.004 68.3042 226.405 64.1606C225.393 63.9651 223.836 63.222 222.901 61.814C221.733 60.054 224.031 56.8083 221.85 55.7126C220.448 55.0086 219.164 55.83 218.58 57.5899C217.995 59.3498 216.944 58.6459 214.024 56.8859Z" fill="#FDBA8C"/>
<path d="M214.024 56.8859C211.688 55.4779 208.535 56.7686 207.25 57.5899C207.444 59.389 208.301 64.4892 210.17 70.4967C212.039 76.5042 217.334 74.6425 219.748 72.9607C221.383 71.7538 225.004 68.3042 226.405 64.1606C225.393 63.9651 223.836 63.222 222.901 61.814C221.733 60.054 224.031 56.8083 221.85 55.7126C220.448 55.0086 219.164 55.83 218.58 57.5899C217.995 59.3498 216.944 58.6459 214.024 56.8859Z" fill="url(#paint9_linear_5746_16907)"/>
<path d="M216.217 69.6857L210.573 70.9946C210.41 71.0323 210.236 71.012 210.103 70.9117C209.241 70.262 209.448 69.1955 209.68 68.7123C211.697 68.3834 214.514 68.8633 216.223 69.2753C216.446 69.3291 216.441 69.6339 216.217 69.6857Z" fill="#111928"/>
<path d="M212.843 62.5889C212.843 63.081 212.488 63.4799 212.051 63.4799C211.613 63.4799 211.259 63.081 211.259 62.5889C211.259 62.0969 211.613 61.698 212.051 61.698C212.488 61.698 212.843 62.0969 212.843 62.5889Z" fill="#111928"/>
<path fill-rule="evenodd" clip-rule="evenodd" d="M211.378 59.8375C210.77 59.9677 210.328 60.3321 209.939 60.7885C209.827 60.9209 209.628 60.9369 209.496 60.8242C209.363 60.7116 209.347 60.5129 209.46 60.3806C209.892 59.8725 210.447 59.3931 211.246 59.2219C212.042 59.0513 213.025 59.1987 214.293 59.8195C214.449 59.896 214.514 60.0845 214.437 60.2406C214.361 60.3967 214.172 60.4613 214.016 60.3849C212.822 59.8004 211.988 59.7067 211.378 59.8375Z" fill="#111928"/>
<path fill-rule="evenodd" clip-rule="evenodd" d="M221.447 58.4493C221.473 57.9757 221.3 57.5779 221.044 57.196C220.948 57.0516 220.986 56.8561 221.131 56.7594C221.275 56.6626 221.471 56.7013 221.567 56.8457C221.862 57.2855 222.113 57.8199 222.075 58.4847C222.038 59.1461 221.718 59.8817 220.99 60.7358C220.877 60.8681 220.678 60.8838 220.546 60.771C220.414 60.6582 220.398 60.4595 220.511 60.3273C221.187 59.5352 221.42 58.9263 221.447 58.4493Z" fill="#111928"/>
<path fill-rule="evenodd" clip-rule="evenodd" d="M212.705 71.8933C212.996 71.7653 213.266 71.5508 213.582 71.1825C213.695 71.0505 213.893 71.0352 214.025 71.1483C214.157 71.2614 214.173 71.4601 214.059 71.5921C213.707 72.0033 213.365 72.2906 212.959 72.4694C212.554 72.6475 212.115 72.7055 211.591 72.7055C211.417 72.7055 211.276 72.5646 211.276 72.3908C211.276 72.2169 211.417 72.076 211.591 72.076C212.072 72.076 212.413 72.022 212.705 71.8933Z" fill="#111928"/>
<path fill-rule="evenodd" clip-rule="evenodd" d="M208.617 62.1199C208.789 62.0976 208.947 62.2192 208.969 62.3916L209.537 66.7755C209.548 66.8579 209.632 66.9096 209.71 66.8821L211.497 66.2545C211.661 66.1969 211.841 66.2832 211.898 66.4472C211.956 66.6112 211.87 66.7909 211.706 66.8485L209.919 67.476C209.463 67.6362 208.975 67.3357 208.913 66.8564L208.345 62.4725C208.323 62.3001 208.444 62.1422 208.617 62.1199Z" fill="#111928"/>
<path d="M212.625 46.081C206.324 48.3988 205.96 54.9334 206.566 57.9111L224.623 50.9097C223.33 48.254 218.927 43.7633 212.625 46.081Z" fill="#374151"/>
<path fill-rule="evenodd" clip-rule="evenodd" d="M225.112 50.5707C225.238 50.895 225.076 51.2595 224.752 51.3847L198.141 61.6614C197.816 61.7867 197.452 61.6253 197.327 61.301C197.201 60.9766 197.363 60.6122 197.687 60.4869L224.298 50.2103C224.623 50.085 224.987 50.2464 225.112 50.5707Z" fill="#1F2A37"/>
<defs>
<linearGradient id="paint0_linear_5746_16907" x1="214.934" y1="163.044" x2="182.748" y2="104.686" gradientUnits="userSpaceOnUse">
<stop stop-color="#7F270F"/>
<stop offset="1" stop-color="#7F270F" stop-opacity="0"/>
</linearGradient>
<linearGradient id="paint1_linear_5746_16907" x1="229.412" y1="125.958" x2="216.205" y2="94.1538" gradientUnits="userSpaceOnUse">
<stop stop-color="#A4CAFE"/>
<stop offset="1" stop-color="#A4CAFE" stop-opacity="0"/>
</linearGradient>
<linearGradient id="paint2_linear_5746_16907" x1="177.848" y1="261.939" x2="305.477" y2="330.097" gradientUnits="userSpaceOnUse">
<stop stop-color="#111928"/>
<stop offset="1" stop-color="#111928" stop-opacity="0"/>
</linearGradient>
<linearGradient id="paint3_linear_5746_16907" x1="238.21" y1="129.411" x2="252.254" y2="101.683" gradientUnits="userSpaceOnUse">
<stop stop-color="#A4CAFE"/>
<stop offset="1" stop-color="#A4CAFE" stop-opacity="0"/>
</linearGradient>
<linearGradient id="paint4_linear_5746_16907" x1="219.563" y1="77.7003" x2="214.174" y2="134.393" gradientUnits="userSpaceOnUse">
<stop stop-color="#111928"/>
<stop offset="1" stop-color="#111928" stop-opacity="0"/>
</linearGradient>
<linearGradient id="paint5_linear_5746_16907" x1="231.974" y1="61.8099" x2="240.104" y2="215.388" gradientUnits="userSpaceOnUse">
<stop stop-color="#111928"/>
<stop offset="1" stop-color="#111928" stop-opacity="0"/>
</linearGradient>
<linearGradient id="paint6_linear_5746_16907" x1="222.175" y1="206.255" x2="222.175" y2="270.292" gradientUnits="userSpaceOnUse">
<stop stop-color="#E1EFFE"/>
<stop offset="1" stop-color="#E1EFFE" stop-opacity="0"/>
</linearGradient>
<linearGradient id="paint7_linear_5746_16907" x1="238.25" y1="206.065" x2="217.718" y2="115.155" gradientUnits="userSpaceOnUse">
<stop stop-color="#7F270F"/>
<stop offset="1" stop-color="#7F270F" stop-opacity="0"/>
</linearGradient>
<linearGradient id="paint8_linear_5746_16907" x1="210.145" y1="72.7229" x2="228.187" y2="69.4932" gradientUnits="userSpaceOnUse">
<stop stop-color="#7F270F"/>
<stop offset="1" stop-color="#7F270F" stop-opacity="0"/>
</linearGradient>
<linearGradient id="paint9_linear_5746_16907" x1="230.637" y1="45.1039" x2="217.373" y2="67.0514" gradientUnits="userSpaceOnUse">
<stop stop-color="#7F270F"/>
<stop offset="1" stop-color="#7F270F" stop-opacity="0"/>
</linearGradient>
</defs>
</svg>
