<svg width="609" height="643" viewBox="0 0 609 643" fill="none" xmlns="http://www.w3.org/2000/svg">
<path d="M31.757 106.5C31.757 103.186 34.4656 100.5 37.8068 100.5H583.293C586.634 100.5 589.342 103.186 589.342 106.5V459.5C589.342 462.814 586.634 465.5 583.293 465.5H37.8068C34.4656 465.5 31.757 462.814 31.757 459.5V106.5Z" fill="#1F2A37"/>
<path d="M432.049 373L219.299 162H206.696L432.049 385.5V373Z" fill="url(#paint0_linear_5330_57461)" fill-opacity="0.1"/>
<path d="M432.049 260L332.732 161.5H358.948L432.049 234V260Z" fill="url(#paint1_linear_5330_57461)" fill-opacity="0.1"/>
<path d="M388.692 465.5L189.05 267.5V306.5L349.369 465.5H388.692Z" fill="url(#paint2_linear_5330_57461)" fill-opacity="0.1"/>
<path d="M284.838 465.5L189.05 370.5V384.5L270.722 465.5H284.838Z" fill="url(#paint3_linear_5330_57461)" fill-opacity="0.1"/>
<path fill-rule="evenodd" clip-rule="evenodd" d="M96.0827 161.5L171.91 236.671V216.829L116.098 161.5H96.0827ZM31.757 193.507V183.968L171.91 322.908V332.447L31.757 193.507ZM31.757 317.139V287.375L138.807 393.5H108.785L31.757 317.139ZM31.757 376.665V365.981L59.5164 393.5H48.739L31.757 376.665Z" fill="url(#paint4_linear_5330_57461)" fill-opacity="0.1"/>
<path fill-rule="evenodd" clip-rule="evenodd" d="M578.904 161.5H558.889L589.342 191.69V171.848L578.904 161.5ZM589.342 277.927L472.284 161.882H462.662L589.342 287.467V277.927ZM589.342 381.335L449.19 242.395V272.158L571.591 393.5H586.317C587.988 393.5 589.342 392.157 589.342 390.5V381.335ZM522.322 393.5L449.19 321V331.684L511.545 393.5H522.322Z" fill="url(#paint5_linear_5330_57461)" fill-opacity="0.1"/>
<path d="M31.7569 393.5L171.909 393.5L171.909 309.5L31.7569 309.5L31.7569 393.5Z" fill="#374151" fill-opacity="0.2"/>
<path d="M449.19 393.5L589.342 393.5L589.342 309.5L449.19 309.5L449.19 393.5Z" fill="#374151" fill-opacity="0.2"/>
<path fill-rule="evenodd" clip-rule="evenodd" d="M452.215 162.5H589.342V160.5H452.215C449.987 160.5 448.181 162.291 448.181 164.5V390.5C448.181 392.709 449.987 394.5 452.215 394.5H589.342V392.5H452.215C451.101 392.5 450.198 391.605 450.198 390.5V164.5C450.198 163.395 451.101 162.5 452.215 162.5Z" fill="#182230"/>
<path fill-rule="evenodd" clip-rule="evenodd" d="M192.075 162.5C190.962 162.5 190.059 163.395 190.059 164.5V465.5H188.042V164.5C188.042 162.291 189.848 160.5 192.075 160.5H429.024C431.251 160.5 433.057 162.291 433.057 164.5V465.5H431.041V164.5C431.041 163.395 430.138 162.5 429.024 162.5H192.075Z" fill="#182230"/>
<path fill-rule="evenodd" clip-rule="evenodd" d="M309.037 465.5V161.5H311.054V465.5H309.037Z" fill="#374151"/>
<path fill-rule="evenodd" clip-rule="evenodd" d="M168.885 162.5H31.757V160.5H168.885C171.112 160.5 172.918 162.291 172.918 164.5V390.5C172.918 392.709 171.112 394.5 168.885 394.5H31.757V392.5H168.885C169.998 392.5 170.901 391.605 170.901 390.5V164.5C170.901 163.395 169.998 162.5 168.885 162.5Z" fill="#182230"/>
<path d="M60.9973 237.5C60.9973 215.409 79.0544 197.5 101.329 197.5C123.604 197.5 141.661 215.409 141.661 237.5C141.661 259.591 123.604 277.5 101.329 277.5C79.0544 277.5 60.9973 259.591 60.9973 237.5Z" fill="#374151" fill-opacity="0.5"/>
<path d="M478.43 237.5C478.43 215.409 496.487 197.5 518.762 197.5C541.037 197.5 559.094 215.409 559.094 237.5C559.094 259.591 541.037 277.5 518.762 277.5C496.487 277.5 478.43 259.591 478.43 237.5Z" fill="#374151" fill-opacity="0.5"/>
<path fill-rule="evenodd" clip-rule="evenodd" d="M0.5 117.5L20.6324 19.5H588.367L608.5 117.5C602.791 121.333 587.444 129 571.728 129C556.279 129 544.756 121.592 540.701 117.699C534.769 121.592 519.677 129 504.228 129C488.779 129 477.257 121.592 473.201 117.699C467.269 121.592 452.177 129 436.729 129C421.28 129 409.757 121.592 405.701 117.699C399.77 121.592 384.678 129 369.229 129C353.78 129 342.258 121.592 338.202 117.699C332.27 121.592 317.178 129 301.729 129C286.281 129 274.758 121.592 270.702 117.699C264.771 121.592 249.679 129 234.23 129C218.781 129 207.258 121.592 203.203 117.699C197.271 121.592 182.179 129 166.73 129C151.281 129 139.759 121.592 135.703 117.699C129.771 121.592 114.68 129 99.2307 129C83.7819 129 72.2593 121.592 68.2035 117.699C62.2719 121.592 47.18 129 31.7311 129C16.0148 129 4.36192 121.333 0.5 117.5Z" fill="#1F2A37"/>
<path fill-rule="evenodd" clip-rule="evenodd" d="M0.5 117.5L20.6324 19.5H588.367L608.5 117.5C602.791 121.333 587.444 129 571.728 129C556.279 129 544.756 121.592 540.701 117.699C534.769 121.592 519.677 129 504.228 129C488.779 129 477.257 121.592 473.201 117.699C467.269 121.592 452.177 129 436.729 129C421.28 129 409.757 121.592 405.701 117.699C399.77 121.592 384.678 129 369.229 129C353.78 129 342.258 121.592 338.202 117.699C332.27 121.592 317.178 129 301.729 129C286.281 129 274.758 121.592 270.702 117.699C264.771 121.592 249.679 129 234.23 129C218.781 129 207.258 121.592 203.203 117.699C197.271 121.592 182.179 129 166.73 129C151.281 129 139.759 121.592 135.703 117.699C129.771 121.592 114.68 129 99.2307 129C83.7819 129 72.2593 121.592 68.2035 117.699C62.2719 121.592 47.18 129 31.7311 129C16.0148 129 4.36192 121.333 0.5 117.5Z" fill="url(#paint6_linear_5330_57461)"/>
<path fill-rule="evenodd" clip-rule="evenodd" d="M0.5 117.5L20.6324 19.5H588.367L608.5 117.5C602.791 121.333 587.444 129 571.728 129C556.279 129 544.756 121.592 540.701 117.699C534.769 121.592 519.677 129 504.228 129C488.779 129 477.257 121.592 473.201 117.699C467.269 121.592 452.177 129 436.729 129C421.28 129 409.757 121.592 405.701 117.699C399.77 121.592 384.678 129 369.229 129C353.78 129 342.258 121.592 338.202 117.699C332.27 121.592 317.178 129 301.729 129C286.281 129 274.758 121.592 270.702 117.699C264.771 121.592 249.679 129 234.23 129C218.781 129 207.258 121.592 203.203 117.699C197.271 121.592 182.179 129 166.73 129C151.281 129 139.759 121.592 135.703 117.699C129.771 121.592 114.68 129 99.2307 129C83.7819 129 72.2593 121.592 68.2035 117.699C62.2719 121.592 47.18 129 31.7311 129C16.0148 129 4.36192 121.333 0.5 117.5Z" fill="url(#paint7_linear_5330_57461)"/>
<path fill-rule="evenodd" clip-rule="evenodd" d="M607.492 113.5H1.50833V111.5H607.492V113.5Z" fill="#1F2A37"/>
<path fill-rule="evenodd" clip-rule="evenodd" d="M531.864 20.3904L541.947 111.39L539.942 111.609L529.859 20.6089L531.864 20.3904Z" fill="#1F2A37"/>
<path fill-rule="evenodd" clip-rule="evenodd" d="M466.327 20.4122L474.393 111.412L472.385 111.587L464.318 20.5874L466.327 20.4122Z" fill="#1F2A37"/>
<path fill-rule="evenodd" clip-rule="evenodd" d="M78.1447 20.3904L68.0618 111.39L70.0663 111.609L80.1492 20.6089L78.1447 20.3904Z" fill="#1F2A37"/>
<path fill-rule="evenodd" clip-rule="evenodd" d="M143.681 20.4122L135.615 111.412L137.624 111.587L145.69 20.5874L143.681 20.4122Z" fill="#1F2A37"/>
<path fill-rule="evenodd" clip-rule="evenodd" d="M209.219 20.4343L203.169 111.434L205.181 111.566L211.231 20.5659L209.219 20.4343Z" fill="#1F2A37"/>
<path fill-rule="evenodd" clip-rule="evenodd" d="M273.747 20.4668L270.722 111.467L272.738 111.533L275.763 20.5327L273.747 20.4668Z" fill="#1F2A37"/>
<path fill-rule="evenodd" clip-rule="evenodd" d="M400.79 20.4343L406.839 111.434L404.827 111.566L398.777 20.5659L400.79 20.4343Z" fill="#1F2A37"/>
<path fill-rule="evenodd" clip-rule="evenodd" d="M336.261 20.4668L339.286 111.467L337.27 111.533L334.246 20.5327L336.261 20.4668Z" fill="#1F2A37"/>
<path d="M20.6658 3.5C20.6658 1.84315 22.0201 0.5 23.6907 0.5H585.309C586.98 0.5 588.334 1.84315 588.334 3.5V19.5H20.6658V3.5Z" fill="#1F2A37"/>
<path d="M35.7902 10C35.7902 11.933 34.2102 13.5 32.2612 13.5C30.3121 13.5 28.7321 11.933 28.7321 10C28.7321 8.067 30.3121 6.5 32.2612 6.5C34.2102 6.5 35.7902 8.067 35.7902 10Z" fill="#374151"/>
<path d="M45.8732 10C45.8732 11.933 44.2932 13.5 42.3441 13.5C40.3951 13.5 38.8151 11.933 38.8151 10C38.8151 8.067 40.3951 6.5 42.3441 6.5C44.2932 6.5 45.8732 8.067 45.8732 10Z" fill="#6B7280"/>
<path d="M55.956 10C55.956 11.933 54.376 13.5 52.427 13.5C50.4779 13.5 48.8979 11.933 48.8979 10C48.8979 8.067 50.4779 6.5 52.427 6.5C54.376 6.5 55.956 8.067 55.956 10Z" fill="#374151"/>
<path fill-rule="evenodd" clip-rule="evenodd" d="M283.326 392.5C292.514 392.5 299.963 385.113 299.963 376C299.963 366.887 292.514 359.5 283.326 359.5C274.138 359.5 266.689 366.887 266.689 376C266.689 385.113 274.138 392.5 283.326 392.5ZM283.326 394.5C293.628 394.5 301.979 386.217 301.979 376C301.979 365.783 293.628 357.5 283.326 357.5C273.024 357.5 264.672 365.783 264.672 376C264.672 386.217 273.024 394.5 283.326 394.5Z" fill="#F4F7FB"/>
<path d="M255.965 378.818C256.284 377.46 257.504 376.5 258.91 376.5H340.878C342.303 376.5 343.534 377.485 343.835 378.866L366.726 483.866C367.133 485.735 365.697 487.5 363.769 487.5H234.203C232.254 487.5 230.814 485.7 231.257 483.818L255.965 378.818Z" fill="#E1EFFE"/>
<path d="M255.965 378.818C256.284 377.46 257.504 376.5 258.91 376.5H340.878C342.303 376.5 343.534 377.485 343.835 378.866L366.726 483.866C367.133 485.735 365.697 487.5 363.769 487.5H234.203C232.254 487.5 230.814 485.7 231.257 483.818L255.965 378.818Z" fill="url(#paint8_linear_5330_57461)"/>
<path d="M238.777 378.845C239.086 377.474 240.312 376.5 241.728 376.5H321.863C323.444 376.5 324.759 377.708 324.88 379.271L332.987 484.271C333.121 486.013 331.732 487.5 329.971 487.5H218.034C216.097 487.5 214.659 485.72 215.082 483.845L238.777 378.845Z" fill="#E1EFFE"/>
<path d="M238.777 378.845C239.086 377.474 240.312 376.5 241.728 376.5H321.863C323.444 376.5 324.759 377.708 324.88 379.271L332.987 484.271C333.121 486.013 331.732 487.5 329.971 487.5H218.034C216.097 487.5 214.659 485.72 215.082 483.845L238.777 378.845Z" fill="url(#paint9_linear_5330_57461)"/>
<path d="M283.325 418.5C264.37 418.5 261.647 411.167 262.656 407.5L265.177 402.5L280.805 396L336.765 391.5L372.055 397.5C377.097 409.5 352.898 417.5 332.228 416C311.558 414.5 307.02 418.5 283.325 418.5Z" fill="#111928"/>
<path d="M476.918 620C468.448 629.6 463.81 633 456.752 633C456.248 626 460.785 619 462.298 614.5C465.486 605.013 468.347 595.5 445.157 568.5C421.966 541.5 379.114 514 353.906 482.5C333.74 457.3 318.952 412.667 314.079 393.5L353.906 384L379.114 464.5C404.321 481 476.918 577 485.993 584C493.252 589.6 494.731 594 494.563 595.5C492.21 599.667 485.388 610.4 476.918 620Z" fill="#FDBA8C"/>
<path d="M476.918 620C468.448 629.6 463.81 633 456.752 633C456.248 626 460.785 619 462.298 614.5C465.486 605.013 468.347 595.5 445.157 568.5C421.966 541.5 379.114 514 353.906 482.5C333.74 457.3 318.952 412.667 314.079 393.5L353.906 384L379.114 464.5C404.321 481 476.918 577 485.993 584C493.252 589.6 494.731 594 494.563 595.5C492.21 599.667 485.388 610.4 476.918 620Z" fill="url(#paint10_linear_5330_57461)"/>
<path d="M457.47 622.657L469.356 628.5L484.403 611.443L463.815 606.145L457.47 622.657Z" fill="#374151"/>
<path fill-rule="evenodd" clip-rule="evenodd" d="M500.397 593.401C501.888 594.148 502.469 595.939 501.649 597.383C499.218 601.663 494.193 610.169 487.186 621.598C477.264 637.781 463.533 642.5 456.705 642.5C455.339 642.5 454.231 641.402 454.231 640.047V634.953C454.231 633.598 455.339 632.5 456.705 632.5C459.764 632.5 470.346 629.819 478.571 616.402C485.471 605.148 490.307 596.957 492.64 592.871C493.463 591.43 495.305 590.852 496.796 591.599L500.397 593.401Z" fill="#374151"/>
<path d="M265.089 633H216.779C215.266 623 244.623 623.5 255.094 605.5C262.656 592.5 282.318 486.5 283.326 467C284.133 451.4 287.359 409.833 288.872 391H336.766C331.556 405.167 320.532 440.6 318.112 469C315.087 504.5 272.754 605.105 274.251 615.5C274.955 620.388 274.712 624.121 274.133 626.899C273.295 630.917 269.226 633 265.089 633Z" fill="#FDBA8C"/>
<path d="M265.089 633H216.779C215.266 623 244.623 623.5 255.094 605.5C262.656 592.5 282.318 486.5 283.326 467C284.133 451.4 287.359 409.833 288.872 391H336.766C331.556 405.167 320.532 440.6 318.112 469C315.087 504.5 272.754 605.105 274.251 615.5C274.955 620.388 274.712 624.121 274.133 626.899C273.295 630.917 269.226 633 265.089 633Z" fill="url(#paint11_linear_5330_57461)"/>
<path d="M214.258 635.5C214.258 633.843 215.612 632.5 217.283 632.5H271.731C273.401 632.5 274.755 633.843 274.755 635.5V639.5C274.755 641.157 273.401 642.5 271.731 642.5H217.283C215.612 642.5 214.258 641.157 214.258 639.5V635.5Z" fill="#374151"/>
<path d="M225.853 624.5L229.382 633.5L253.077 635L241.986 617L225.853 624.5Z" fill="#374151"/>
<path d="M296.938 268V262.5H347.352C348.697 269.667 353.906 289.8 351.89 313C349.873 336.2 364.493 379 372.056 397.5C364.493 397.5 346.445 399.4 334.749 407C320.129 416.5 302.483 411.5 290.384 404.5C280.704 398.9 267.865 403.833 262.656 407L296.938 268Z" fill="#1C64F2"/>
<path d="M296.938 268V262.5H347.352C348.697 269.667 353.906 289.8 351.89 313C349.873 336.2 364.493 379 372.056 397.5C364.493 397.5 346.445 399.4 334.749 407C320.129 416.5 302.483 411.5 290.384 404.5C280.704 398.9 267.865 403.833 262.656 407L296.938 268Z" fill="url(#paint12_linear_5330_57461)"/>
<path fill-rule="evenodd" clip-rule="evenodd" d="M291.007 292.044L291.487 290.101C299.745 292.294 307.474 292.136 312.357 287.293C323.861 275.884 336.718 273.65 341.876 274.002L341.737 275.998C337.148 275.684 324.865 277.716 313.783 288.707C308.114 294.329 299.452 294.277 291.007 292.044ZM271.997 369.124L272.484 367.148C275.692 367.313 278.995 367.172 282.02 366.534C285.355 365.832 288.276 364.543 290.378 362.476C292.459 360.43 293.818 357.546 293.913 353.477C294.038 348.162 293.633 343.18 293.239 338.609L293.184 337.968L293.184 337.968C292.812 333.672 292.469 329.705 292.654 326.26C292.848 322.635 293.63 319.431 295.702 316.935C297.785 314.426 301.042 312.786 305.851 312.013C310.181 311.317 312.964 309.045 315.244 305.977C316.395 304.429 317.41 302.687 318.429 300.839C318.697 300.355 318.965 299.862 319.236 299.364L319.236 299.364C319.988 297.981 320.762 296.558 321.594 295.175C323.868 291.395 326.677 287.732 331.124 285.333C335.579 282.929 341.545 281.865 350.009 283.009L349.737 284.991C341.564 283.886 336.061 284.946 332.087 287.09C328.106 289.237 325.526 292.543 323.326 296.2C322.518 297.543 321.775 298.909 321.029 300.28L321.028 300.282C320.753 300.787 320.478 301.293 320.199 301.799C319.172 303.661 318.103 305.501 316.867 307.164C314.374 310.518 311.17 313.184 306.174 313.987C301.656 314.714 298.926 316.199 297.259 318.206C295.582 320.226 294.852 322.928 294.668 326.366C294.491 329.668 294.822 333.506 295.199 337.867L295.248 338.438C295.642 343.008 296.057 348.088 295.929 353.523C295.823 358.054 294.287 361.449 291.798 363.896C289.331 366.322 286.006 367.739 282.439 368.491C279.097 369.195 275.474 369.329 271.997 369.124ZM272.78 402.906C271.995 403.099 271.23 403.314 270.489 403.546C271.298 400.661 272.27 398.294 273.375 396.333C275.962 391.741 279.238 389.439 282.67 387.901C284.247 387.195 285.862 386.648 287.421 386.12L287.422 386.12L287.763 386.004C289.444 385.434 291.058 384.872 292.601 384.125C295.638 382.655 298.418 380.462 300.568 376.064C304.63 367.753 308.492 362.226 313.577 358.217C318.657 354.213 324.869 351.795 333.482 349.533C339.998 347.823 346.042 342.18 350.994 335.614C351.698 334.68 352.377 333.732 353.03 332.778C353.175 333.713 353.331 334.658 353.496 335.61C353.205 336.013 352.909 336.413 352.609 336.812C347.587 343.47 341.195 349.577 333.998 351.467C325.471 353.706 319.583 356.038 314.832 359.783C310.086 363.524 306.386 368.747 302.382 376.936C300.01 381.788 296.874 384.283 293.486 385.922C291.816 386.73 290.091 387.328 288.415 387.896L288.093 388.006L288.093 388.006C286.515 388.54 284.986 389.058 283.5 389.724C280.375 391.124 277.469 393.165 275.136 397.308C274.268 398.849 273.474 400.688 272.78 402.906ZM366.636 383.203C366.895 383.935 367.154 384.657 367.41 385.366C362.294 384.453 356.252 383.82 349.902 384C345.297 384.13 341.997 382.858 339.98 380.545C337.975 378.244 337.412 375.11 337.845 371.869C338.708 365.418 343.568 358.03 350.377 354.134C352.47 352.936 354.489 351.292 356.4 349.364C356.584 350.117 356.771 350.87 356.962 351.624C355.196 353.299 353.332 354.752 351.385 355.866C345.087 359.47 340.62 366.332 339.844 372.132C339.459 375.015 339.998 377.506 341.506 379.237C343.003 380.954 345.627 382.12 349.844 382.001C355.881 381.829 361.643 382.374 366.636 383.203Z" fill="#A4CAFE"/>
<path fill-rule="evenodd" clip-rule="evenodd" d="M336.765 269H296.938V267H336.765V269Z" fill="#A4CAFE"/>
<path fill-rule="evenodd" clip-rule="evenodd" d="M318.616 424.5C327.804 424.5 335.253 417.113 335.253 408C335.253 398.887 327.804 391.5 318.616 391.5C309.428 391.5 301.979 398.887 301.979 408C301.979 417.113 309.428 424.5 318.616 424.5ZM318.616 426.5C328.918 426.5 337.269 418.217 337.269 408C337.269 397.783 328.918 389.5 318.616 389.5C308.314 389.5 299.963 397.783 299.963 408C299.963 418.217 308.314 426.5 318.616 426.5Z" fill="#F4F7FB"/>
<path d="M291.255 410.818C291.574 409.46 292.795 408.5 294.2 408.5H376.168C377.593 408.5 378.824 409.485 379.125 410.866L402.016 515.866C402.423 517.735 400.987 519.5 399.059 519.5H269.493C267.544 519.5 266.104 517.7 266.547 515.818L291.255 410.818Z" fill="#E1EFFE"/>
<path d="M291.255 410.818C291.574 409.46 292.795 408.5 294.2 408.5H376.168C377.593 408.5 378.824 409.485 379.125 410.866L402.016 515.866C402.423 517.735 400.987 519.5 399.059 519.5H269.493C267.544 519.5 266.104 517.7 266.547 515.818L291.255 410.818Z" fill="url(#paint13_linear_5330_57461)"/>
<path d="M274.067 410.845C274.376 409.474 275.603 408.5 277.019 408.5H357.154C358.735 408.5 360.049 409.708 360.17 411.271L368.277 516.271C368.411 518.013 367.022 519.5 365.261 519.5H253.324C251.387 519.5 249.95 517.72 250.373 515.845L274.067 410.845Z" fill="#E1EFFE"/>
<path d="M284.573 427.844C284.883 426.474 286.109 425.5 287.525 425.5H341.619C343.2 425.5 344.514 426.707 344.635 428.271L350.127 499.271C350.261 501.013 348.872 502.5 347.111 502.5H271.475C269.537 502.5 268.099 500.719 268.523 498.844L284.573 427.844Z" fill="url(#paint14_linear_5330_57461)"/>
<path d="M310.55 383.5C311.356 373.5 314.247 361.667 315.591 357L328.195 361.5C325.506 366.167 320.734 376.9 323.153 382.5C326.178 389.5 324.666 398.5 319.624 398.5C314.583 398.5 309.541 396 310.55 383.5Z" fill="#FDBA8C"/>
<path d="M310.55 383.5C311.356 373.5 314.247 361.667 315.591 357L328.195 361.5C325.506 366.167 320.734 376.9 323.153 382.5C326.178 389.5 324.666 398.5 319.624 398.5C314.583 398.5 309.541 396 310.55 383.5Z" fill="url(#paint15_linear_5330_57461)"/>
<path d="M291.393 215C294.216 194.2 302.988 184.333 307.021 182L315.087 179C339.286 182 353.402 228.5 363.485 258C371.313 280.903 346.855 337.051 332.501 364.569C331.781 365.95 330.111 366.537 328.666 365.934L314.513 360.023C313.112 359.438 312.366 357.912 312.772 356.458L336.479 271.527C336.664 270.863 336.613 270.155 336.335 269.524L333.236 262.5H296.938C293.913 255.333 288.569 235.8 291.393 215Z" fill="#F9FAFB"/>
<path d="M315.087 224.5L333.236 262.5H315.087V224.5Z" fill="url(#paint16_linear_5330_57461)"/>
<path d="M305.452 186.297L300.658 169.005L309.375 160.792L317.221 180.677C314.78 183.789 308.358 185.72 305.452 186.297Z" fill="#FDBA8C"/>
<path d="M305.452 186.297L300.658 169.005L309.375 160.792L317.221 180.677C314.78 183.789 308.358 185.72 305.452 186.297Z" fill="url(#paint17_linear_5330_57461)"/>
<path d="M336.085 126.892C332.301 134.432 323.909 137.916 317.343 134.674C310.776 131.431 308.521 122.691 312.305 115.152C316.09 107.612 324.481 104.128 331.048 107.37C337.614 110.612 339.87 119.353 336.085 126.892Z" fill="#F9FAFB"/>
<path d="M336.085 126.892C332.301 134.432 323.909 137.916 317.343 134.674C310.776 131.431 308.521 122.691 312.305 115.152C316.09 107.612 324.481 104.128 331.048 107.37C337.614 110.612 339.87 119.353 336.085 126.892Z" fill="url(#paint18_linear_5330_57461)"/>
<path d="M311.991 130.1C297.694 126.987 291.795 135.72 290.633 140.475C293.394 150.273 301.355 169.006 311.119 165.547C323.323 161.224 329.861 133.99 311.991 130.1Z" fill="#F9FAFB"/>
<path d="M311.991 130.1C297.694 126.987 291.795 135.72 290.633 140.475C293.394 150.273 301.355 169.006 311.119 165.547C323.323 161.224 329.861 133.99 311.991 130.1Z" fill="url(#paint19_linear_5330_57461)"/>
<path d="M312.862 152.146C315.041 153.875 308.503 172.031 296.299 170.734C292.08 170.286 290.043 166.379 289.264 161.307C289.206 160.929 288.86 161.39 288.815 161C288.772 160.62 289.031 159.39 289 159C288.5 152.736 289.533 145.344 290.632 140.475C292.521 141.627 296.647 145.057 298.042 149.553C299.786 155.172 304.145 156.901 306.324 154.74C308.671 152.412 310.683 150.417 312.862 152.146Z" fill="#FDBA8C"/>
<path d="M294.701 153.802C294.797 154.368 294.413 154.904 293.842 155C293.271 155.096 292.73 154.715 292.633 154.148C292.537 153.582 292.921 153.045 293.492 152.95C294.063 152.854 294.604 153.235 294.701 153.802Z" fill="#111928"/>
<path fill-rule="evenodd" clip-rule="evenodd" d="M292.864 150.113C292.135 150.245 291.594 150.65 291.106 151.176C290.917 151.379 290.599 151.392 290.394 151.205C290.189 151.018 290.176 150.701 290.364 150.498C290.928 149.892 291.653 149.315 292.684 149.129C293.71 148.944 294.951 149.161 296.523 149.952C296.771 150.077 296.87 150.378 296.744 150.625C296.618 150.871 296.315 150.969 296.066 150.844C294.611 150.111 293.599 149.981 292.864 150.113Z" fill="#111928"/>
<path fill-rule="evenodd" clip-rule="evenodd" d="M289.54 153.263C289.815 153.304 290.005 153.558 289.964 153.831L288.937 160.635C288.919 160.756 289.018 160.863 289.142 160.856L292.108 160.678C292.386 160.661 292.625 160.871 292.642 161.147C292.658 161.423 292.447 161.66 292.169 161.676L289.203 161.854C288.439 161.9 287.827 161.237 287.94 160.487L288.967 153.683C289.008 153.41 289.265 153.222 289.54 153.263Z" fill="#111928"/>
<path fill-rule="evenodd" clip-rule="evenodd" d="M293.163 164.714C293.788 164.567 294.434 164.305 295.416 163.878C295.671 163.767 295.968 163.882 296.08 164.135C296.192 164.388 296.075 164.683 295.82 164.793C294.847 165.217 294.122 165.516 293.396 165.687C292.657 165.861 291.937 165.898 290.967 165.832C290.689 165.814 290.479 165.575 290.498 165.3C290.517 165.024 290.758 164.816 291.035 164.835C291.941 164.896 292.552 164.858 293.163 164.714Z" fill="#111928"/>
<path fill-rule="evenodd" clip-rule="evenodd" d="M310.313 156.85C310.601 156.173 310.555 155.502 310.379 154.809C310.311 154.542 310.474 154.27 310.744 154.202C311.014 154.134 311.288 154.297 311.356 154.564C311.56 155.364 311.65 156.281 311.242 157.239C310.837 158.191 309.975 159.104 308.447 159.975C308.206 160.113 307.898 160.031 307.759 159.791C307.62 159.552 307.703 159.246 307.944 159.108C309.359 158.302 310.023 157.532 310.313 156.85Z" fill="#111928"/>
<defs>
<linearGradient id="paint0_linear_5330_57461" x1="140.148" y1="167.5" x2="502.425" y2="559.484" gradientUnits="userSpaceOnUse">
<stop stop-color="white"/>
<stop offset="1" stop-color="#F9FAFB" stop-opacity="0"/>
</linearGradient>
<linearGradient id="paint1_linear_5330_57461" x1="140.148" y1="167.5" x2="502.425" y2="559.484" gradientUnits="userSpaceOnUse">
<stop stop-color="white"/>
<stop offset="1" stop-color="#F9FAFB" stop-opacity="0"/>
</linearGradient>
<linearGradient id="paint2_linear_5330_57461" x1="140.148" y1="167.5" x2="502.425" y2="559.484" gradientUnits="userSpaceOnUse">
<stop stop-color="white"/>
<stop offset="1" stop-color="#F9FAFB" stop-opacity="0"/>
</linearGradient>
<linearGradient id="paint3_linear_5330_57461" x1="140.148" y1="167.5" x2="502.425" y2="559.484" gradientUnits="userSpaceOnUse">
<stop stop-color="white"/>
<stop offset="1" stop-color="#F9FAFB" stop-opacity="0"/>
</linearGradient>
<linearGradient id="paint4_linear_5330_57461" x1="3.55204" y1="166.079" x2="275.364" y2="388.349" gradientUnits="userSpaceOnUse">
<stop stop-color="white"/>
<stop offset="1" stop-color="#F9FAFB" stop-opacity="0"/>
</linearGradient>
<linearGradient id="paint5_linear_5330_57461" x1="420.985" y1="166.079" x2="692.797" y2="388.349" gradientUnits="userSpaceOnUse">
<stop stop-color="white"/>
<stop offset="1" stop-color="#F9FAFB" stop-opacity="0"/>
</linearGradient>
<linearGradient id="paint6_linear_5330_57461" x1="304.5" y1="129.5" x2="304.5" y2="59.5" gradientUnits="userSpaceOnUse">
<stop stop-color="#374151"/>
<stop offset="1" stop-color="#374151" stop-opacity="0"/>
</linearGradient>
<linearGradient id="paint7_linear_5330_57461" x1="304.5" y1="34.5" x2="304.5" y2="103.5" gradientUnits="userSpaceOnUse">
<stop stop-color="#374151"/>
<stop offset="1" stop-color="#374151" stop-opacity="0"/>
</linearGradient>
<linearGradient id="paint8_linear_5330_57461" x1="332.545" y1="581.233" x2="332.545" y2="356.767" gradientUnits="userSpaceOnUse">
<stop stop-color="#76A9FA"/>
<stop offset="0.830726" stop-color="#76A9FA" stop-opacity="0"/>
</linearGradient>
<linearGradient id="paint9_linear_5330_57461" x1="306.516" y1="610.5" x2="306.516" y2="389" gradientUnits="userSpaceOnUse">
<stop stop-color="#76A9FA"/>
<stop offset="0.830726" stop-color="#76A9FA" stop-opacity="0"/>
</linearGradient>
<linearGradient id="paint10_linear_5330_57461" x1="350.377" y1="128" x2="404.406" y2="579.95" gradientUnits="userSpaceOnUse">
<stop stop-color="#7F270F"/>
<stop offset="1" stop-color="#7F270F" stop-opacity="0"/>
</linearGradient>
<linearGradient id="paint11_linear_5330_57461" x1="326.682" y1="271.5" x2="278.175" y2="581.462" gradientUnits="userSpaceOnUse">
<stop stop-color="#7F270F"/>
<stop offset="1" stop-color="#7F270F" stop-opacity="0"/>
</linearGradient>
<linearGradient id="paint12_linear_5330_57461" x1="440.619" y1="43.5" x2="355.478" y2="359.054" gradientUnits="userSpaceOnUse">
<stop stop-color="#111928"/>
<stop offset="1" stop-color="#111928" stop-opacity="0"/>
</linearGradient>
<linearGradient id="paint13_linear_5330_57461" x1="367.835" y1="613.233" x2="367.835" y2="388.767" gradientUnits="userSpaceOnUse">
<stop stop-color="#76A9FA"/>
<stop offset="0.830726" stop-color="#76A9FA" stop-opacity="0"/>
</linearGradient>
<linearGradient id="paint14_linear_5330_57461" x1="309.037" y1="564.5" x2="309.037" y2="450" gradientUnits="userSpaceOnUse">
<stop stop-color="#76A9FA"/>
<stop offset="1" stop-color="#76A9FA" stop-opacity="0"/>
</linearGradient>
<linearGradient id="paint15_linear_5330_57461" x1="338.278" y1="308" x2="319.697" y2="389.708" gradientUnits="userSpaceOnUse">
<stop stop-color="#7F270F"/>
<stop offset="1" stop-color="#7F270F" stop-opacity="0"/>
</linearGradient>
<linearGradient id="paint16_linear_5330_57461" x1="327.139" y1="197.112" x2="304.282" y2="262.868" gradientUnits="userSpaceOnUse">
<stop stop-color="#A4CAFE"/>
<stop offset="1" stop-color="#A4CAFE" stop-opacity="0"/>
</linearGradient>
<linearGradient id="paint17_linear_5330_57461" x1="309.028" y1="156.195" x2="309.028" y2="180.852" gradientUnits="userSpaceOnUse">
<stop stop-color="#7F270F"/>
<stop offset="1" stop-color="#7F270F" stop-opacity="0"/>
</linearGradient>
<linearGradient id="paint18_linear_5330_57461" x1="313.769" y1="145.275" x2="326.392" y2="119.709" gradientUnits="userSpaceOnUse">
<stop stop-color="#A4CAFE"/>
<stop offset="1" stop-color="#A4CAFE" stop-opacity="0"/>
</linearGradient>
<linearGradient id="paint19_linear_5330_57461" x1="308.723" y1="179.224" x2="308.723" y2="145.136" gradientUnits="userSpaceOnUse">
<stop stop-color="#A4CAFE"/>
<stop offset="1" stop-color="#A4CAFE" stop-opacity="0"/>
</linearGradient>
</defs>
</svg>
