<svg width="454" height="863" viewBox="0 0 454 863" fill="none" xmlns="http://www.w3.org/2000/svg">
<path d="M396.833 745.613C397.824 744.744 398.896 743.547 399.72 742.047C400.544 743.547 401.616 744.744 402.607 745.613C403.102 746.047 403.496 746.589 403.755 747.203C404.131 748.095 404.202 749.086 403.956 750.021C403.71 750.957 403.161 751.785 402.394 752.376C401.628 752.966 400.688 753.287 399.72 753.287C398.752 753.287 397.812 752.966 397.046 752.376C396.279 751.785 395.73 750.957 395.484 750.021C395.238 749.086 395.309 748.095 395.685 747.203C395.944 746.589 396.338 746.047 396.833 745.613ZM435.19 7H18C11.9248 7 7 11.9249 7 18V844.8C7 850.875 11.9249 855.8 18 855.8H46.45C52.5251 855.8 57.45 850.875 57.45 844.8V448.32C57.45 447.339 57.8398 446.398 58.5337 445.704C59.2276 445.01 60.1687 444.62 61.15 444.62C62.1312 444.62 63.0724 445.01 63.7663 445.704C64.4602 446.398 64.85 447.339 64.85 448.32V844.8C64.85 850.875 69.7748 855.8 75.85 855.8H435.19C441.265 855.8 446.19 850.875 446.19 844.8V18C446.19 11.9248 441.265 7 435.19 7ZM395.51 816.06V787H403.71V816.06H395.51ZM73.16 74C73.16 76.3734 72.4562 78.6934 71.1376 80.6668C69.819 82.6402 67.9449 84.1783 65.7522 85.0866C63.5595 85.9948 61.1467 86.2324 58.8189 85.7694C56.4911 85.3064 54.3529 84.1635 52.6747 82.4853C50.9964 80.8071 49.8535 78.6689 49.3905 76.3411C48.9275 74.0133 49.1652 71.6005 50.0734 69.4078C50.9817 67.2151 52.5197 65.3409 54.4931 64.0224C56.4665 62.7038 58.7866 62 61.16 62C64.3426 62 67.3949 63.2643 69.6453 65.5147C71.8957 67.7651 73.16 70.8174 73.16 74ZM63.83 412.419C63.8282 412.948 63.6702 413.464 63.3758 413.903C63.0808 414.343 62.662 414.685 62.1724 414.887C61.6827 415.089 61.1442 415.142 60.6248 415.038C60.1054 414.934 59.6284 414.679 59.254 414.304C58.8796 413.929 58.6247 413.452 58.5214 412.932C58.4182 412.413 58.4712 411.874 58.6737 411.385C58.8763 410.896 59.2194 410.477 59.6596 410.183C60.0991 409.889 60.6158 409.731 61.1446 409.73C61.4966 409.731 61.8449 409.8 62.17 409.935C62.4966 410.07 62.7933 410.269 63.0431 410.519C63.2929 410.769 63.4909 411.066 63.626 411.392C63.7606 411.718 63.8299 412.067 63.83 412.419Z" fill="#6B7280" stroke="#374151" stroke-width="14" stroke-miterlimit="10"/>
</svg>
