<svg width="488" height="341" viewBox="0 0 488 341" fill="none" xmlns="http://www.w3.org/2000/svg">
<path d="M461.811 160.544L461.411 159.344C440.011 96.4444 434.311 81.5444 426.311 62.5444C421.011 49.9444 416.811 44.4444 412.311 40.2444C410.811 38.8444 409.311 37.5444 407.711 36.2444C406.411 35.0444 404.911 33.9444 403.411 32.6444C392.111 22.7444 380.011 16.1444 318.811 12.8444C309.911 12.3444 299.911 11.9444 288.711 11.5444C247.311 10.2444 236.911 10.5444 225.811 10.8444C219.211 11.0444 212.311 11.1444 198.511 11.1444C196.111 11.1444 193.511 11.1444 190.811 11.0444C184.111 10.9444 176.411 10.7444 167.711 11.0444C155.911 11.3444 142.711 12.4444 128.211 15.3444C123.211 16.3444 110.111 19.4444 95.1108 26.9444C86.6108 31.1444 79.7108 35.6444 75.1108 40.0444C74.0108 41.0444 73.1108 42.0444 72.2108 43.0444C65.6108 51.0444 63.1108 59.1444 62.0108 63.0444L61.9108 63.2444C58.4108 75.0444 52.6108 91.5444 45.9108 110.744C31.2108 152.544 13.0108 204.444 7.51079 237.444C-1.48921 291.644 11.4108 309.544 15.7108 315.444C19.1108 320.044 23.3108 324.544 27.4108 327.944C35.4108 334.644 43.1108 337.344 50.2108 336.244C60.6108 334.544 63.6108 330.844 70.7108 322.044C73.0108 319.244 75.5108 316.044 78.8108 312.344C86.7108 303.344 91.3108 296.944 95.9108 290.744C99.9108 285.144 103.811 279.844 109.711 272.944C118.111 263.244 127.411 254.144 137.511 245.944C139.311 244.544 143.911 240.844 220.711 240.344C261.411 240.044 305.811 240.744 327.011 241.144C331.511 241.244 335.011 241.344 336.911 241.344C342.111 241.344 351.611 246.144 360.711 253.144C365.411 256.744 367.111 259.044 370.411 263.644C373.011 267.244 376.611 272.244 383.711 280.544C389.911 287.944 396.711 296.844 402.211 304.044C406.311 309.544 409.911 314.244 411.811 316.244C416.911 321.944 430.511 337.144 439.111 335.644C457.411 332.544 465.911 322.044 466.011 321.944L466.211 321.744C477.511 310.744 480.411 297.344 482.011 290.144C483.611 282.944 483.611 276.644 483.611 264.044C483.611 263.944 483.611 250.044 482.311 237.644C479.911 213.444 470.311 185.244 461.811 160.544ZM119.311 124.744C101.911 124.744 87.9108 110.644 87.9108 93.2444C87.9108 75.8444 102.011 61.7444 119.311 61.7444C136.611 61.7444 150.711 75.8444 150.711 93.2444C150.711 110.644 136.611 124.744 119.311 124.744ZM217.011 175.144C217.011 180.144 212.911 184.244 207.911 184.244H193.511V198.944C193.511 203.944 189.411 208.044 184.411 208.044H177.311C172.311 208.044 168.211 203.944 168.211 198.944V184.244H153.611C148.611 184.244 144.511 180.144 144.511 175.144V168.244C144.511 163.244 148.611 159.144 153.611 159.144H168.211V145.744C168.211 140.744 172.311 136.644 177.311 136.644H184.411C189.411 136.644 193.511 140.744 193.511 145.744V159.144H208.011C213.011 159.144 217.111 163.244 217.111 168.244V175.144H217.011ZM209.011 104.244C202.411 104.244 197.211 98.9444 197.211 92.3444C197.211 85.7444 202.511 80.4445 209.011 80.4445C215.611 80.4445 220.811 85.7444 220.811 92.3444C220.811 98.9444 215.511 104.244 209.011 104.244ZM353.011 54.4444C356.911 45.2444 367.611 41.0444 376.811 45.1444C386.011 49.1444 390.211 59.8444 386.111 68.9444C382.211 78.1444 371.511 82.3444 362.311 78.2444C353.111 74.1444 348.911 63.6444 353.011 54.4444ZM249.611 127.644H238.811C234.111 127.644 230.111 123.644 230.111 118.944C230.111 114.244 234.011 110.244 238.811 110.244H249.611C254.311 110.244 258.311 114.244 258.311 118.944C258.311 123.744 254.411 127.644 249.611 127.644ZM268.711 87.6444C271.311 81.5444 278.211 78.8444 284.211 81.5444C290.211 84.1444 292.911 91.1444 290.311 97.1444C287.711 103.144 280.811 105.944 274.811 103.244C268.811 100.644 266.111 93.7444 268.711 87.6444ZM308.211 197.044C291.311 197.044 277.611 183.344 277.611 166.344C277.611 149.444 291.311 135.644 308.211 135.644C325.111 135.644 338.811 149.344 338.811 166.344C338.811 183.344 325.111 197.044 308.211 197.044ZM328.511 109.444C319.311 105.444 315.211 94.7444 319.211 85.6444C323.111 76.4445 333.811 72.2444 343.011 76.3444C352.211 80.3444 356.311 91.0444 352.311 100.144C348.311 109.344 337.711 113.544 328.511 109.444ZM386.311 133.544C382.411 142.744 371.711 146.944 362.511 142.844C353.311 138.844 349.111 128.144 353.211 119.044C357.111 109.844 367.811 105.644 377.011 109.744C386.111 113.744 390.311 124.444 386.311 133.544ZM418.811 101.344C414.911 110.544 404.211 114.744 395.011 110.644C385.811 106.644 381.611 95.9444 385.711 86.8444C389.611 77.6444 400.311 73.4444 409.511 77.5444C418.711 81.4444 422.911 92.1444 418.811 101.344Z" fill="#6B7280"/>
<path d="M486.511 237.144C484.011 212.544 474.311 184.144 465.811 159.144L465.411 157.944C443.911 94.8444 438.211 79.8444 430.111 60.8444C423.811 45.8444 418.811 40.2444 413.411 35.5444C413.011 34.3444 412.011 32.7444 410.011 30.0444C406.711 25.8444 404.111 22.6444 398.511 18.2444C396.211 16.4444 390.711 12.4444 382.511 8.74444C374.711 5.24444 368.311 3.74445 362.911 2.64445C359.011 1.84445 353.211 0.544446 345.511 0.144446C340.011 -0.155554 335.311 0.044441 331.811 0.444441C330.011 1.14444 324.611 3.34444 321.011 8.74444C311.511 8.24444 300.811 7.74444 288.711 7.44444C247.111 6.14444 236.611 6.54444 225.511 6.74444C218.911 6.94444 212.011 7.04444 198.411 7.04444C196.011 7.04444 193.411 6.94444 190.811 6.94444C183.311 6.74444 174.611 6.64444 164.811 7.04444C161.411 2.84444 157.011 1.04444 155.311 0.444441C151.811 0.144441 147.111 -0.155554 141.611 0.144446C133.911 0.544446 128.211 1.84445 124.211 2.64445C118.811 3.84445 112.411 5.24444 104.611 8.74444C96.5108 12.4444 90.9108 16.4444 88.6108 18.2444C83.0108 22.6444 80.5108 25.8444 77.1108 30.0444C75.0108 32.6444 74.1108 34.2444 73.7108 35.4444C71.9108 37.0444 70.2108 38.7444 68.8108 40.3444C61.6108 48.9444 59.0108 57.6444 57.7108 61.7444L57.6108 61.9445C54.1108 73.5444 48.3108 90.0444 41.6108 109.144C27.0108 151.144 8.71079 203.344 3.11079 236.544C-6.08921 292.544 7.61079 311.544 12.1108 317.744C16.2108 323.344 30.1108 340.544 46.8108 340.544C48.1108 340.544 49.4108 340.444 50.7108 340.244C62.7108 338.344 66.7108 333.444 73.8108 324.544C76.0108 321.744 78.5108 318.644 81.8108 315.044C89.8108 305.944 94.6108 299.444 99.1108 293.144C103.111 287.544 106.911 282.344 112.711 275.744C120.911 266.144 130.211 257.244 140.011 249.244C143.111 246.744 171.611 242.944 326.911 245.344C331.511 245.444 334.911 245.544 336.811 245.544C340.411 245.544 348.811 249.344 358.011 256.444C362.211 259.744 363.711 261.744 366.911 266.144C369.611 269.844 373.211 274.844 380.311 283.344C386.411 290.644 393.211 299.544 398.711 306.644C403.111 312.444 406.611 317.044 408.511 319.144C417.811 329.544 428.611 339.944 437.711 339.944C438.411 339.944 439.011 339.844 439.611 339.744C458.611 336.444 467.811 325.844 468.911 324.544C481.111 312.644 484.111 298.544 485.811 290.944C487.511 283.344 487.511 276.844 487.511 263.944C487.811 263.744 487.811 249.844 486.511 237.144ZM482.011 290.044C480.411 297.244 477.511 310.644 466.211 321.644L466.011 321.844C465.911 321.944 457.411 332.444 439.111 335.544C430.511 337.044 416.911 321.944 411.811 316.144C410.011 314.144 406.311 309.444 402.211 303.944C396.711 296.744 389.911 287.844 383.711 280.444C376.611 272.144 373.011 267.144 370.411 263.544C367.011 258.944 365.411 256.644 360.711 253.044C351.611 246.044 342.111 241.244 336.911 241.244C335.011 241.244 331.511 241.144 327.011 241.044C305.711 240.744 261.411 240.044 220.711 240.244C143.811 240.744 139.211 244.344 137.511 245.844C127.411 254.144 118.111 263.144 109.711 272.844C103.811 279.644 100.011 284.944 95.9108 290.644C91.4108 296.844 86.7108 303.244 78.8108 312.244C75.5108 315.944 73.0108 319.144 70.7108 321.944C63.6108 330.744 60.6108 334.444 50.2108 336.144C43.1108 337.344 35.3108 334.544 27.4108 327.844C23.3108 324.344 19.2108 319.944 15.7108 315.344C11.4108 309.444 -1.48921 291.544 7.51079 237.344C13.0108 204.444 31.2108 152.444 45.8108 110.744C52.5108 91.5444 58.3108 75.0444 61.8108 63.2444L61.9108 63.0444C63.1108 59.1444 65.5108 51.0444 72.1108 43.0444C72.9108 42.0444 73.9108 41.0444 75.0108 40.0444C79.6108 35.5444 86.5108 31.1444 95.0108 26.9444C110.011 19.4444 123.111 16.3444 128.111 15.3444C142.511 12.4444 155.811 11.3444 167.611 11.0444C176.311 10.7444 184.011 10.9444 190.711 11.0444C193.511 11.1444 196.111 11.1444 198.411 11.1444C212.211 11.2444 219.111 11.0444 225.711 10.8444C236.811 10.5444 247.211 10.2444 288.611 11.5444C299.811 11.8444 309.811 12.3444 318.711 12.8444C379.911 16.1444 392.011 22.7444 403.311 32.6444C404.811 33.9444 406.211 35.0444 407.611 36.2444C409.211 37.5444 410.711 38.7444 412.211 40.2444C416.711 44.4444 420.911 49.9444 426.211 62.5444C434.211 81.4444 439.911 96.4444 461.311 159.344L461.711 160.544C470.211 185.344 479.811 213.444 482.211 237.644C483.511 250.044 483.511 263.944 483.511 264.044C483.611 276.544 483.611 282.944 482.011 290.044Z" fill="#374151"/>
<path d="M343.011 76.3444C333.811 72.3444 323.211 76.5444 319.211 85.6444C315.311 94.8444 319.411 105.544 328.511 109.444C337.711 113.444 348.311 109.244 352.311 100.144C356.211 90.9445 352.111 80.3444 343.011 76.3444Z" fill="#374151"/>
<path d="M119.311 124.744C136.653 124.744 150.711 110.641 150.711 93.2444C150.711 75.8475 136.653 61.7444 119.311 61.7444C101.969 61.7444 87.9108 75.8475 87.9108 93.2444C87.9108 110.641 101.969 124.744 119.311 124.744Z" fill="#374151"/>
<path d="M308.211 197.144C325.111 197.144 338.811 183.4 338.811 166.444C338.811 149.489 325.111 135.744 308.211 135.744C291.311 135.744 277.611 149.489 277.611 166.444C277.611 183.4 291.311 197.144 308.211 197.144Z" fill="#374151"/>
<path d="M409.511 77.4445C400.311 73.4445 389.711 77.6444 385.711 86.7444C381.711 95.9444 385.911 106.644 395.011 110.544C404.211 114.544 414.811 110.344 418.811 101.244C422.911 92.1444 418.711 81.4445 409.511 77.4445Z" fill="#374151"/>
<path d="M377.011 109.744C367.811 105.744 357.211 109.944 353.211 119.044C349.211 128.244 353.411 138.944 362.511 142.844C371.711 146.844 382.311 142.644 386.311 133.544C390.311 124.444 386.111 113.744 377.011 109.744Z" fill="#374151"/>
<path d="M290.411 97.1445C293.011 91.1445 290.311 84.1444 284.311 81.5444C278.311 78.9445 271.411 81.6445 268.811 87.6445C266.211 93.7445 268.911 100.644 274.911 103.244C280.911 105.844 287.811 103.044 290.411 97.1445Z" fill="#374151"/>
<path d="M209.011 104.244C215.528 104.244 220.811 98.9166 220.811 92.3444C220.811 85.7723 215.528 80.4445 209.011 80.4445C202.494 80.4445 197.211 85.7723 197.211 92.3444C197.211 98.9166 202.494 104.244 209.011 104.244Z" fill="#374151"/>
<path d="M208.011 159.144H193.611V145.744C193.611 140.744 189.511 136.644 184.511 136.644H177.411C172.411 136.644 168.311 140.744 168.311 145.744V159.144H153.711C148.711 159.144 144.611 163.244 144.611 168.244V175.144C144.611 180.144 148.711 184.244 153.711 184.244H168.311V198.944C168.311 203.944 172.411 208.044 177.411 208.044H184.511C189.511 208.044 193.611 203.944 193.611 198.944V184.244H208.011C213.011 184.244 217.111 180.144 217.111 175.144V168.244C217.011 163.244 213.011 159.144 208.011 159.144Z" fill="#374151"/>
<path d="M249.611 110.344H238.811C234.011 110.344 230.111 114.344 230.111 119.044C230.111 123.744 234.011 127.744 238.811 127.744H249.611C254.411 127.744 258.311 123.744 258.311 119.044C258.311 114.244 254.311 110.344 249.611 110.344Z" fill="#374151"/>
<path d="M362.311 78.3444C371.511 82.3444 382.111 78.1444 386.111 69.0444C390.111 59.8444 385.911 49.1444 376.811 45.2444C367.611 41.2444 357.011 45.4444 353.011 54.5444C348.911 63.6444 353.111 74.2444 362.311 78.3444Z" fill="#374151"/>
</svg>
