<svg width="139" height="139" viewBox="0 0 139 139" fill="none" xmlns="http://www.w3.org/2000/svg">
<circle cx="69.5" cy="69.5" r="69.5" fill="#141414"/>
<g clip-path="url(#clip0_136_381)">
<path d="M69.5471 105.777L39.5471 88.2775C39.2696 88.115 39.0996 87.82 39.0996 87.5V52.5H40.8996V86.9825L70.4521 104.222L69.5471 105.777ZM92.4996 98.4C92.1271 98.4 91.7896 98.1675 91.6571 97.815L84.9721 79.9925L80.8346 90.3525C80.6971 90.695 80.3671 90.92 79.9996 90.92H72.4996V89.1175H79.3896L84.1646 77.1675C84.3046 76.8225 84.6371 76.6625 85.0096 76.6C85.3796 76.605 85.7121 76.8375 85.8421 77.185L92.3846 94.63L96.6346 79.755C96.7446 79.3675 97.0971 79.1 97.4996 79.1H105V80.9025H98.1771L93.3621 97.7475C93.2571 98.12 92.9221 98.385 92.5346 98.4C92.5246 98.4 92.5121 98.4 92.4996 98.4ZM50.8996 70H49.0996V45H50.8996V70ZM100.9 67.5H99.0996V53.0175L69.9996 36.0425L60.8996 41.3325V62.5H59.0996V40.8125C59.0996 40.4925 59.2696 40.195 59.5471 40.035L69.5471 34.2225C69.8271 34.06 70.1746 34.06 70.4521 34.2225L100.452 51.7225C100.73 51.8825 100.9 52.18 100.9 52.5V67.5Z" fill="#08FFAE"/>
</g>
<defs>
<clipPath id="clip0_136_381">
<rect width="80" height="80" fill="white" transform="translate(30 30)"/>
</clipPath>
</defs>
</svg>
