<svg width="139" height="139" viewBox="0 0 139 139" fill="none" xmlns="http://www.w3.org/2000/svg">
<circle cx="69.5" cy="69.5" r="69.5" fill="#141414"/>
<g clip-path="url(#clip0_136_382)">
<path d="M107.42 101.125H105.643V79.1876C105.643 71.0024 100.332 63.8581 92.4249 61.4133C92.0842 61.3085 91.8423 61.0111 91.8052 60.6626C91.7707 60.3116 91.9509 59.9752 92.262 59.807C95.9453 57.8082 98.2363 54.0252 98.2363 49.9376C98.2363 43.7 93.0989 38.6276 86.7813 38.6276C80.4638 38.6276 75.3263 43.7 75.3263 49.9376C75.3263 54.0252 77.6173 57.8082 81.3032 59.807C81.6142 59.9752 81.792 60.314 81.7599 60.6626C81.7229 61.0136 81.4809 61.3085 81.1402 61.4133C73.2328 63.8581 67.9201 71.0024 67.9201 79.1876V101.125H66.1426V79.1876C66.1426 75.8019 66.9721 72.5795 68.4731 69.7374C67.0733 67.3901 65.1995 65.4035 62.9826 63.8849V69.4376C62.9826 75.0024 58.6277 79.5824 53.1076 80.0309V85.7079C55.2159 86.1174 56.8107 87.9577 56.8107 90.1563C56.8107 92.6547 54.7518 94.6901 52.2188 94.6901C49.6859 94.6901 47.627 92.6547 47.627 90.1563C47.627 87.9577 49.2218 86.1174 51.3301 85.7079V80.0309C45.81 79.5824 41.4551 75.0048 41.4551 69.4376V63.8776C36.4608 67.2828 33.3576 72.9305 33.3576 79.1876V101.125H31.5801V79.1876C31.5801 70.8367 36.6287 63.4803 44.3213 60.353C40.9934 57.9057 38.9863 54.0569 38.9863 49.9376C38.9863 44.9285 41.8822 40.3801 46.4099 38.1961C46.4 38.0499 46.3926 37.9012 46.3926 37.7501C46.3926 34.5789 49.007 31.9976 52.2188 31.9976C55.4307 31.9976 58.0451 34.5789 58.0451 37.7501C58.0451 37.9012 58.0401 38.0499 58.0278 38.1961C62.5555 40.3801 65.4513 44.9285 65.4513 49.9376C65.4513 54.0569 63.4467 57.9057 60.1139 60.3554C63.9528 61.9203 67.2041 64.5772 69.4877 68.0238C71.717 64.6527 74.956 61.952 78.8863 60.3554C75.5535 57.9057 73.5488 54.0569 73.5488 49.9376C73.5488 42.7323 79.4862 36.8726 86.7813 36.8726C94.0765 36.8726 100.014 42.7323 100.014 49.9376C100.014 54.0569 98.0092 57.9057 94.6764 60.353C102.369 63.4803 107.42 70.8391 107.42 79.1876V101.125ZM52.2188 87.3776C50.6685 87.3776 49.4045 88.6231 49.4045 90.1563C49.4045 91.6895 50.6685 92.9351 52.2188 92.9351C53.7692 92.9351 55.0332 91.6895 55.0332 90.1563C55.0332 88.6231 53.7692 87.3776 52.2188 87.3776ZM43.2326 62.8027V69.4376C43.2326 74.3296 47.264 78.3101 52.2188 78.3101C57.1736 78.3101 61.2051 74.3296 61.2051 69.4376V62.8076C60.146 62.2445 59.0276 61.7765 57.8599 61.4157C57.5192 61.3109 57.2773 61.0136 57.2403 60.665C57.2057 60.314 57.3859 59.9776 57.697 59.8094C61.3828 57.8082 63.6738 54.0252 63.6738 49.9376C63.6738 45.7329 61.3162 41.9036 57.6032 39.9511C56.7243 42.0327 54.6431 43.5026 52.2188 43.5026C49.7945 43.5026 47.7134 42.0327 46.8345 39.9511C43.119 41.9036 40.7638 45.7329 40.7638 49.9376C40.7638 54.0252 43.0548 57.8082 46.7407 59.807C47.0517 59.9752 47.232 60.314 47.1974 60.6626C47.1604 61.0136 46.9184 61.3085 46.5777 61.4133C45.4026 61.7765 44.2843 62.2445 43.2326 62.8027ZM52.2188 33.7526C49.9871 33.7526 48.1701 35.5466 48.1701 37.7501C48.1701 39.9536 49.9871 41.7476 52.2188 41.7476C54.4506 41.7476 56.2676 39.9536 56.2676 37.7501C56.2676 35.5466 54.4506 33.7526 52.2188 33.7526ZM86.7813 89.8151C86.5542 89.8151 86.3246 89.7297 86.1518 89.5591L78.8122 82.3124C77.8247 81.335 77.2766 80.0358 77.2692 78.6586C77.2643 77.2644 77.8124 75.9506 78.8122 74.9585C79.8046 73.9786 81.1254 73.4375 82.5277 73.4326C82.5326 73.4326 82.5351 73.4326 82.54 73.4326C83.9447 73.4326 85.268 73.9762 86.2654 74.9561L86.7813 75.4704L87.2973 74.9585C89.2896 73.0012 92.7582 72.9963 94.7505 74.9585C95.7701 75.9676 96.3181 77.3058 96.291 78.7317C96.2663 80.0846 95.7207 81.3569 94.7505 82.3149L87.4109 89.5616C87.238 89.7297 87.0085 89.8151 86.7813 89.8151ZM82.54 75.1901H82.5326C81.6019 75.1901 80.728 75.5484 80.0713 76.1992C79.4072 76.8549 79.0443 77.7251 79.0492 78.6489C79.0517 79.5629 79.4146 80.4258 80.0713 81.0693L86.7813 87.6969L93.4914 81.0693C94.1357 80.4356 94.4962 79.5946 94.511 78.6976C94.5307 77.7519 94.1678 76.8646 93.4914 76.1992C92.1731 74.8927 89.8697 74.8951 88.5564 76.1992L87.4109 77.3302C87.0628 77.6739 86.4999 77.6739 86.1518 77.3302L85.0063 76.1992C84.3496 75.5484 83.4707 75.1901 82.54 75.1901Z" fill="#08FFAE"/>
</g>
<defs>
<clipPath id="clip0_136_382">
<rect width="79" height="78" fill="white" transform="translate(30 28)"/>
</clipPath>
</defs>
</svg>
