<svg width="139" height="139" viewBox="0 0 139 139" fill="none" xmlns="http://www.w3.org/2000/svg">
<circle cx="69.5" cy="69.5" r="69.5" fill="#141414"/>
<g clip-path="url(#clip0_136_383)">
<path d="M68.813 97.4688C67.4675 97.4688 66.3755 96.3768 66.3755 95.0313C66.3755 93.6858 67.4675 92.5938 68.813 92.5938C70.1585 92.5938 71.2505 93.6858 71.2505 95.0313C71.2505 96.3768 70.1585 97.4688 68.813 97.4688ZM91.628 103.563V67.8776H110.251C113.424 67.8776 116.003 65.2962 116.003 62.1251V42.6251C116.003 39.4539 113.422 36.8726 110.251 36.8726H91.628V30.4376C91.628 29.9525 91.2356 29.5601 90.7505 29.5601H46.8755C46.3905 29.5601 45.998 29.9525 45.998 30.4376V103.563C45.998 104.048 46.3905 104.44 46.8755 104.44H90.7505C91.2356 104.44 91.628 104.048 91.628 103.563ZM47.753 87.3776H89.873V102.683H47.753V87.3776ZM47.753 31.3151H89.873V36.8726H83.438C80.2669 36.8726 77.6855 39.4539 77.6855 42.6251V76.7501C77.6855 77.1059 77.8976 77.4252 78.2267 77.5617C78.5533 77.6909 78.9335 77.6202 79.1822 77.3716L88.6762 67.8776H89.8706V85.6226H47.753V31.3151ZM110.251 38.6276C112.454 38.6276 114.248 40.4216 114.248 42.6251V62.1251C114.248 64.3286 112.456 66.1226 110.251 66.1226H88.313C88.079 66.1226 87.8548 66.2152 87.6915 66.3785L79.4405 74.6294V42.6251C79.4405 40.4216 81.2345 38.6276 83.438 38.6276H110.251ZM100.159 62.1251V55.6901H106.594C107.079 55.6901 107.472 55.2976 107.472 54.8126V49.9376C107.472 49.4525 107.079 49.0601 106.594 49.0601H100.159V42.6251C100.159 42.14 99.7669 41.7476 99.2818 41.7476H94.4068C93.9217 41.7476 93.5293 42.14 93.5293 42.6251V49.0601H87.0943C86.6092 49.0601 86.2168 49.4525 86.2168 49.9376V54.8126C86.2168 55.2976 86.6092 55.6901 87.0943 55.6901H93.5293V62.1251C93.5293 62.6101 93.9217 63.0026 94.4068 63.0026H99.2818C99.7669 63.0026 100.159 62.6101 100.159 62.1251ZM95.2843 54.8126C95.2843 54.3275 94.8919 53.9351 94.4068 53.9351H87.9718V50.8151H94.4068C94.8919 50.8151 95.2843 50.4226 95.2843 49.9376V43.5026H98.4019V49.9376C98.4019 50.4226 98.7943 50.8151 99.2794 50.8151H105.714V53.9351H99.2818C98.7967 53.9351 98.4043 54.3275 98.4043 54.8126V61.2476H95.2843V54.8126Z" fill="#08FFAE"/>
</g>
<defs>
<clipPath id="clip0_136_383">
<rect width="78" height="78" fill="white" transform="translate(42 28)"/>
</clipPath>
</defs>
</svg>
