<svg width="32" height="32" viewBox="0 0 32 32" fill="none" xmlns="http://www.w3.org/2000/svg">
<path fill-rule="evenodd" clip-rule="evenodd" d="M26.8478 8.06348H5.14168C3.76802 8.06348 2.656 9.18639 2.66683 10.5492V18.8348C2.66683 20.2084 3.77892 21.3204 5.15259 21.3204H15.4332L20.1321 23.9369L19.0637 21.3204H26.8478C28.2215 21.3204 29.3334 20.2084 29.3334 18.8348V10.5492C29.3334 9.17549 28.2215 8.06348 26.8478 8.06348ZM4.68384 9.98224C4.37858 10.004 4.14963 10.1131 3.99701 10.3202C3.84438 10.5164 3.78987 10.7672 3.82257 11.0506C4.4658 15.139 5.06541 17.8972 5.62142 19.3253C5.83947 19.8486 6.09021 20.0994 6.38457 20.0776C6.84245 20.0449 7.38756 19.4126 8.03078 18.1806C8.36875 17.4829 8.89205 16.4363 9.60069 15.0408C10.1894 17.1013 10.9961 18.6494 12.0101 19.6851C12.2935 19.9795 12.5879 20.1103 12.8713 20.0885C13.1221 20.0667 13.3183 19.9358 13.4491 19.696C13.5581 19.4889 13.6018 19.249 13.5799 18.9765C13.5145 17.9844 13.6127 16.5998 13.8852 14.8228C14.1686 12.9912 14.5175 11.6721 14.9427 10.8871C15.0299 10.7236 15.0626 10.56 15.0517 10.3638C15.0299 10.1131 14.9209 9.90593 14.7138 9.7424C14.5067 9.57887 14.2777 9.50255 14.0269 9.52435C13.7108 9.54616 13.4709 9.69879 13.3074 10.004C12.6315 11.236 12.1518 13.2311 11.8684 16.0002C11.454 14.9536 11.1052 13.7217 10.8326 12.2717C10.7127 11.6285 10.4184 11.3232 9.93864 11.3559C9.61159 11.3777 9.33904 11.5958 9.121 12.01L6.73344 16.5562C6.34096 14.9754 5.97029 13.0457 5.63232 10.7672C5.55601 10.2003 5.23985 9.93863 4.68384 9.98224ZM25.6922 10.7672C26.4663 10.9308 27.0441 11.345 27.4365 12.0319C27.7854 12.6206 27.9598 13.3292 27.9598 14.1796C27.9598 15.3025 27.6764 16.3273 27.1094 17.2649C26.4553 18.3551 25.605 18.9002 24.5475 18.9002C24.3622 18.9002 24.1659 18.8784 23.9587 18.8348C23.1847 18.6712 22.6069 18.257 22.2144 17.5701C21.8656 16.9705 21.6911 16.251 21.6911 15.4115C21.6911 14.2886 21.9746 13.2638 22.5415 12.3371C23.2065 11.2469 24.0569 10.7018 25.1035 10.7018C25.2888 10.7018 25.4851 10.7236 25.6922 10.7672ZM25.2343 16.6652C25.6377 16.3055 25.9102 15.7713 26.0629 15.0517C26.1065 14.801 26.1392 14.5285 26.1392 14.245C26.1392 13.9288 26.0737 13.5909 25.9429 13.2529C25.7794 12.8277 25.5613 12.5988 25.2997 12.5443C24.9072 12.468 24.5257 12.686 24.1659 13.2202C23.8716 13.6345 23.6862 14.0706 23.5881 14.5175C23.5335 14.7683 23.5117 15.0409 23.5117 15.3134C23.5117 15.6296 23.5771 15.9675 23.708 16.3055C23.8716 16.7307 24.0896 16.9596 24.3512 17.0141C24.6238 17.0686 24.9181 16.9487 25.2343 16.6652ZM20.6009 12.0319C20.2084 11.345 19.6197 10.9308 18.8566 10.7672C18.6494 10.7236 18.4532 10.7018 18.2678 10.7018C17.2213 10.7018 16.3709 11.2469 15.7058 12.3371C15.1389 13.2638 14.8555 14.2886 14.8555 15.4115C14.8555 16.251 15.0299 16.9705 15.3788 17.5701C15.7713 18.257 16.3491 18.6712 17.1231 18.8348C17.3302 18.8784 17.5265 18.9002 17.7118 18.9002C18.7693 18.9002 19.6197 18.3551 20.2738 17.2649C20.8408 16.3273 21.1242 15.3025 21.1242 14.1796C21.1242 13.3292 20.9497 12.6206 20.6009 12.0319ZM19.2272 15.0517C19.0746 15.7713 18.802 16.3055 18.3986 16.6652C18.0825 16.9487 17.7881 17.0686 17.5156 17.0141C17.2539 16.9596 17.0359 16.7307 16.8724 16.3055C16.7415 15.9675 16.6761 15.6296 16.6761 15.3134C16.6761 15.0409 16.6979 14.7683 16.7525 14.5175C16.8506 14.0706 17.0359 13.6345 17.3302 13.2202C17.69 12.686 18.0716 12.468 18.464 12.5443C18.7257 12.5988 18.9438 12.8277 19.1073 13.2529C19.2381 13.5909 19.3035 13.9288 19.3035 14.245C19.3035 14.5285 19.2817 14.801 19.2272 15.0517Z" fill="#7F54B3"/>
</svg>
