<svg width="24" height="24" viewBox="0 0 24 24" fill="none" xmlns="http://www.w3.org/2000/svg">
<path fill-rule="evenodd" clip-rule="evenodd" d="M5.77443 14.7262L4.83279 15.0702L4.78223 17.8715L8.04188 16.6807C6.92386 16.3052 6.10741 15.6444 5.77443 14.7262" fill="#FDBD39"/>
<path fill-rule="evenodd" clip-rule="evenodd" d="M6.26719 11.7633L3 12.9569L4.83276 15.0702L5.7744 14.7262C5.4424 13.8106 5.64714 12.7757 6.26719 11.7633" fill="#F69833"/>
<path fill-rule="evenodd" clip-rule="evenodd" d="M11.7654 7.72114C7.60491 9.241 4.92269 12.3773 5.77448 14.7262L20.8408 9.22222C19.9891 6.87331 15.9258 6.20126 11.7654 7.72114Z" fill="#FECF33"/>
<path fill-rule="evenodd" clip-rule="evenodd" d="M14.8499 16.2273C19.0104 14.7074 21.6976 11.5851 20.8408 9.22229L5.77441 14.7262C6.63124 17.089 10.6894 17.7472 14.8499 16.2273Z" fill="#EE6723"/>
<path fill-rule="evenodd" clip-rule="evenodd" d="M20.8408 9.22229L5.77441 14.7262C6.06943 15.5398 7.19447 15.9406 8.77301 15.9406C10.312 15.9406 12.282 15.5599 14.3358 14.8096C18.4963 13.2898 21.4234 10.829 20.8408 9.22229" fill="#F69833"/>
<path fill-rule="evenodd" clip-rule="evenodd" d="M17.8421 8.00793C16.3031 8.00793 14.3331 8.38862 12.2793 9.1389C8.11886 10.6588 5.19169 13.1195 5.77434 14.7262L20.8407 9.22231C20.5457 8.40874 19.4207 8.00793 17.8421 8.00793" fill="#FDBD39"/>
<path fill-rule="evenodd" clip-rule="evenodd" d="M17.0101 18.0199H17.01C16.5667 18.0199 15.9128 17.6195 15.0662 16.8298C14.0648 15.8956 12.9176 14.5272 11.8359 12.9768C10.7544 11.4264 9.8656 9.87643 9.33341 8.6123C8.75356 7.23471 8.67089 6.38769 9.08767 6.09472C9.17906 6.03056 9.28922 5.99805 9.41507 5.99805C9.7541 5.99805 10.4147 6.25046 11.6362 7.453L11.6629 7.47928L11.6593 7.51666C11.6509 7.60305 11.6432 7.69021 11.6364 7.77576L11.6228 7.94564L11.5029 7.8249C10.1868 6.49894 9.60742 6.35579 9.41939 6.35579C9.36577 6.35579 9.32307 6.3667 9.29246 6.38822C9.11168 6.51525 9.10004 7.13741 9.6622 8.47283C10.1849 9.71443 11.0607 11.241 12.1283 12.7713C13.196 14.3017 14.3257 15.6498 15.3092 16.5674C16.3699 17.5568 16.8478 17.6636 17.0041 17.6636C17.058 17.6636 17.1019 17.652 17.1344 17.6292C17.3251 17.4952 17.3253 16.8287 16.6984 15.3913L16.6697 15.3253L16.7327 15.2908C16.7957 15.2563 16.8566 15.2224 16.9137 15.1899L16.9892 15.147L17.024 15.2267C17.4685 16.2452 17.884 17.5396 17.3392 17.9227C17.2473 17.9872 17.1366 18.0199 17.0101 18.0199V18.0199ZM17.01 17.8628H17.0101L17.01 17.9413L17.01 17.8628Z" fill="#EE6723"/>
<path fill-rule="evenodd" clip-rule="evenodd" d="M14.9509 16.1843L14.9446 16.2626C14.8394 17.5641 14.5624 19.1288 13.8404 19.1922C13.8258 19.1934 13.8108 19.1941 13.7957 19.1941C13.3051 19.1941 12.8411 18.4913 12.4163 17.1051C12.0145 15.7937 11.7026 14.0329 11.5383 12.1471C11.3739 10.2618 11.3764 8.4734 11.5452 7.11152C11.7292 5.62749 12.0796 4.85249 12.5866 4.808C12.6015 4.80662 12.6171 4.80591 12.6324 4.80591C12.9883 4.80591 13.5246 5.20885 14.0736 7.0857L13.7151 7.15489C13.5318 6.5277 13.3321 6.01759 13.1337 5.66707C12.9503 5.34285 12.7719 5.1643 12.6314 5.1643C12.6268 5.1643 12.6221 5.16449 12.6176 5.16489C12.3978 5.18419 12.0778 5.71718 11.8994 7.15578C11.7336 8.49322 11.7316 10.2548 11.8938 12.116C12.0561 13.9774 12.3628 15.7119 12.7575 16.9998C12.9342 17.5766 13.1281 18.052 13.3181 18.3746C13.4933 18.672 13.6629 18.8359 13.7956 18.8359C13.8001 18.8359 13.8047 18.8357 13.8092 18.8353C14.0195 18.8168 14.4157 18.2622 14.5824 16.3108L14.9509 16.1843" fill="#EE6723"/>
</svg>
