<svg width="32" height="32" viewBox="0 0 32 32" fill="none" xmlns="http://www.w3.org/2000/svg">
<path d="M22.3897 13.707C22.3341 14.0899 22.0817 14.61 21.7921 15.0622C21.4267 15.6327 20.8468 16.0324 20.1832 16.1711L17.2599 16.7824C16.7901 16.8807 16.3641 17.1266 16.0442 17.4841L14.1274 19.6267C13.7672 20.0293 13.5154 19.9333 13.5154 19.3932C13.511 19.4133 12.5641 21.8553 15.0736 23.3028C16.0378 23.8589 17.4258 23.6591 18.39 23.103L23.4989 20.1561C25.4096 19.054 26.7586 17.1897 27.207 15.0315C27.2247 14.9462 27.2384 14.8605 27.2532 14.7749L22.3897 13.707Z" fill="url(#paint0_linear_132_266337)"/>
<path d="M21.0651 10.7635C22.0293 11.3196 22.4233 12.1476 22.4233 13.26C22.4233 13.411 22.4114 13.5602 22.3901 13.7071L24.4486 14.5913L27.2536 14.7749C27.6127 12.6963 26.9089 10.5567 25.647 8.85599C24.6975 7.57615 23.4756 6.46549 22.0066 5.61817C20.8133 4.92987 19.5732 4.47638 18.3274 4.22754L16.9275 6.04031L16.4854 8.12184L21.0651 10.7635Z" fill="url(#paint1_linear_132_266337)"/>
<path d="M4.58776 12.2889C4.58723 12.2906 4.58869 12.291 4.58923 12.2894C4.69725 11.9654 4.8327 11.604 5.00179 11.2178C5.88508 9.20076 7.58723 7.85549 9.68128 7.16958C11.7753 6.48369 14.0618 6.72411 15.9702 7.82494L16.485 8.12186L18.327 4.22756C12.4683 3.05742 6.48053 6.49942 4.59521 12.2663C4.59431 12.2691 4.59103 12.2787 4.58776 12.2889Z" fill="url(#paint2_linear_132_266337)"/>
<path d="M18.1899 23.1028C17.2257 23.659 16.0377 23.659 15.0735 23.1028C14.9426 23.0273 14.8192 22.9424 14.7025 22.8505L13.0068 24.0164L11.5452 26.3782C13.1675 27.7283 15.2741 28.1623 17.3792 27.9209C18.9634 27.7393 20.5372 27.2374 22.0061 26.3901C23.1994 25.7018 24.2126 24.8557 25.0512 23.9021L24.1797 21.7846L22.7697 20.4612L18.1899 23.1028Z" fill="url(#paint3_linear_132_266337)"/>
<path d="M14.7026 22.8506C13.9597 22.2654 13.5153 21.3679 13.5153 20.4065V20.3106V12.3042C13.5153 11.8514 13.6487 11.7745 14.0412 12.0009C13.4367 11.6522 12.0402 10.4551 10.3158 11.4497C9.35162 12.0059 8.55762 13.2336 8.55762 14.3459V20.2396C8.55762 22.4437 9.69924 24.7429 11.3458 26.2099C11.4109 26.268 11.4784 26.3227 11.5452 26.3783L14.7026 22.8506Z" fill="url(#paint4_linear_132_266337)"/>
<path d="M24.9328 7.98423C24.9316 7.98295 24.9305 7.98398 24.9316 7.98526C25.1584 8.24072 25.404 8.53863 25.6542 8.878C26.9611 10.6508 27.4493 12.896 26.9969 15.0508C26.5444 17.2055 25.1928 19.0635 23.2843 20.1643L22.7695 20.4613L25.0511 23.9022C28.9948 19.4183 29.005 12.5166 24.9486 8.00196C24.9467 7.9998 24.94 7.99215 24.9328 7.98423Z" fill="url(#paint5_linear_132_266337)"/>
<path d="M8.75769 14.3462C8.75769 13.2339 9.35167 12.206 10.3159 11.6499C10.4468 11.5744 10.5821 11.51 10.7201 11.455L10.5573 9.4049L9.414 7.05933C7.43256 7.78791 5.82979 9.29362 4.98647 11.2357C4.35183 12.6972 4.00001 14.3097 4 16.0044C4 17.381 4.22691 18.6806 4.63415 19.883L6.90545 20.1877L8.75769 19.6295V14.3462V14.3462Z" fill="url(#paint6_linear_132_266337)"/>
<path d="M10.7201 11.455C11.5988 11.1049 12.599 11.1692 13.4323 11.6499L13.5155 11.6978L20.187 15.546C20.655 15.8159 20.6125 16.0816 20.0836 16.1922L20.4684 16.1117C20.9748 16.0058 21.4375 15.747 21.7913 15.3699C22.3997 14.7214 22.623 13.9391 22.623 13.2601C22.623 12.1478 22.029 11.12 21.0648 10.5638L15.9559 7.61694C14.0452 6.51487 11.7546 6.27987 9.65967 6.97099C9.57679 6.99832 9.49567 7.02932 9.41406 7.05933L10.7201 11.455Z" fill="url(#paint7_linear_132_266337)"/>
<path d="M18.4916 27.7395C18.4933 27.7392 18.493 27.7377 18.4913 27.738C18.1564 27.8066 17.7754 27.8701 17.3561 27.9169C15.166 28.1612 12.9756 27.461 11.334 25.9922C9.69237 24.5233 8.75757 22.4249 8.75758 20.2233L8.75757 19.6294L4.63403 19.8829C6.54906 25.537 12.5266 28.9967 18.4683 27.7444C18.4712 27.7438 18.4812 27.7418 18.4916 27.7395Z" fill="url(#paint8_linear_132_266337)"/>
<defs>
<linearGradient id="paint0_linear_132_266337" x1="19.0451" y1="21.8275" x2="21.4058" y2="13.6051" gradientUnits="userSpaceOnUse">
<stop stop-color="#1724C9"/>
<stop offset="1" stop-color="#1C64F2"/>
</linearGradient>
<linearGradient id="paint1_linear_132_266337" x1="24.4825" y1="11.8003" x2="18.2727" y2="5.61235" gradientUnits="userSpaceOnUse">
<stop stop-color="#1C64F2"/>
<stop offset="1" stop-color="#0092FF"/>
</linearGradient>
<linearGradient id="paint2_linear_132_266337" x1="16.1235" y1="7.76589" x2="6.75581" y2="8.35783" gradientUnits="userSpaceOnUse">
<stop stop-color="#0092FF"/>
<stop offset="1" stop-color="#45B2FF"/>
</linearGradient>
<linearGradient id="paint3_linear_132_266337" x1="15.4898" y1="25.497" x2="23.9025" y2="23.2269" gradientUnits="userSpaceOnUse">
<stop stop-color="#1C64F2"/>
<stop offset="1" stop-color="#0092FF"/>
</linearGradient>
<linearGradient id="paint4_linear_132_266337" x1="9.45156" y1="15.762" x2="15.4243" y2="21.951" gradientUnits="userSpaceOnUse">
<stop stop-color="#1724C9"/>
<stop offset="1" stop-color="#1C64F2"/>
</linearGradient>
<linearGradient id="paint5_linear_132_266337" x1="23.0877" y1="20.2268" x2="27.2551" y2="11.8259" gradientUnits="userSpaceOnUse">
<stop stop-color="#0092FF"/>
<stop offset="1" stop-color="#45B2FF"/>
</linearGradient>
<linearGradient id="paint6_linear_132_266337" x1="8.02293" y1="10.8484" x2="5.79292" y2="19.2301" gradientUnits="userSpaceOnUse">
<stop stop-color="#1C64F2"/>
<stop offset="1" stop-color="#0092FF"/>
</linearGradient>
<linearGradient id="paint7_linear_132_266337" x1="19.4075" y1="10.4497" x2="11.2584" y2="12.4787" gradientUnits="userSpaceOnUse">
<stop stop-color="#1724C9"/>
<stop offset="1" stop-color="#1C64F2"/>
</linearGradient>
<linearGradient id="paint8_linear_132_266337" x1="8.80497" y1="20.0177" x2="13.9993" y2="27.8312" gradientUnits="userSpaceOnUse">
<stop stop-color="#0092FF"/>
<stop offset="1" stop-color="#45B2FF"/>
</linearGradient>
</defs>
</svg>
