<svg width="24" height="24" viewBox="0 0 24 24" fill="none" xmlns="http://www.w3.org/2000/svg">
<path d="M21 3H3V21H21V3Z" fill="#FF0066"/>
<path d="M10.1444 7.74775C10.15 8.31716 9.69433 8.784 9.12496 8.79233C8.84823 8.7954 8.58173 8.68786 8.38463 8.4936C8.18753 8.29934 8.07614 8.03443 8.0752 7.75769C8.07526 7.18825 8.53544 6.7259 9.10487 6.72316C9.6743 6.72044 10.1389 7.17835 10.1444 7.74775Z" fill="white"/>
<path d="M6.85575 15.1082C6.85787 14.8466 6.88902 14.586 6.94863 14.3313L7.73703 11.115H6.51807L6.88815 9.74705H9.81999L8.66223 14.3399C8.5971 14.57 8.56082 14.8072 8.55423 15.0462C8.55423 15.3414 8.69823 15.4271 8.92431 15.4782C9.06183 15.5092 10.1591 15.4876 10.7567 14.1599L11.517 11.1186H10.2815L10.6523 9.75065H13.2911L12.952 11.303C13.4149 10.4382 14.3409 9.61673 15.2517 9.61673C16.2244 9.61673 17.0272 10.3094 17.0272 11.637C17.0256 12.0184 16.9683 12.3975 16.8573 12.7624L16.3626 14.5372C16.3181 14.6932 16.2923 14.8539 16.2856 15.016C16.2856 15.3249 16.4101 15.479 16.6413 15.479C16.8724 15.479 17.1654 15.309 17.5053 14.3673L18.1842 14.6301C17.7832 16.0348 17.0574 16.6209 16.1466 16.6209C15.0817 16.6209 14.5727 15.9873 14.5727 15.1233C14.5715 14.8622 14.6079 14.6022 14.6807 14.3514L15.1897 12.5306C15.2436 12.3503 15.2696 12.1629 15.2668 11.9747C15.2668 11.3879 14.9118 11.033 14.3409 11.033C13.6151 11.033 13.137 11.5535 12.8901 12.5572L11.9015 16.5172H10.1735L10.4838 15.2716C9.97623 16.1068 9.26991 16.6238 8.39943 16.6238C7.34967 16.6238 6.85575 16.019 6.85575 15.1082Z" fill="white"/>
</svg>
