<svg width="32" height="32" viewBox="0 0 32 32" fill="none" xmlns="http://www.w3.org/2000/svg">
<path d="M28 16C28 22.6274 22.6274 28 16 28C9.37258 28 4 22.6274 4 16C4 9.37258 9.37258 4 16 4C22.6274 4 28 9.37258 28 16Z" fill="#028CB0"/>
<path d="M7.8189 16C7.8189 19.242 9.70462 22.0343 12.4316 23.3615L8.52967 12.671C8.06113 13.7183 7.81892 14.8527 7.8189 16ZM16 24.1811C16.9501 24.1811 17.864 24.0143 18.7198 23.7169L18.6618 23.6081L16.1451 16.718L13.6936 23.8475C14.4189 24.0651 15.1949 24.1811 16 24.1811ZM17.1242 12.1633L20.0833 20.9609L20.9029 18.2338C21.251 17.1024 21.5193 16.2901 21.5193 15.5866C21.5193 14.5712 21.1567 13.8749 20.8521 13.3382C20.4314 12.6565 20.047 12.0835 20.047 11.4163C20.047 10.662 20.6127 9.96571 21.4251 9.96571H21.5266C20.0191 8.58183 18.0464 7.81549 16 7.8189C14.6451 7.81865 13.3113 8.15523 12.1187 8.79837C10.9261 9.4415 9.91211 10.371 9.16791 11.5033L9.69011 11.5178C10.5459 11.5178 11.8659 11.409 11.8659 11.409C12.3156 11.3873 12.3664 12.0327 11.924 12.0835C11.924 12.0835 11.4815 12.1415 10.9811 12.1633L13.9692 21.0262L15.7607 15.6591L14.4842 12.1633C14.1983 12.1475 13.9129 12.1233 13.6284 12.0908C13.1859 12.0618 13.2367 11.3873 13.6791 11.409C13.6791 11.409 15.0281 11.5178 15.8332 11.5178C16.689 11.5178 18.009 11.409 18.009 11.409C18.4514 11.3873 18.5095 12.0327 18.067 12.0835C18.067 12.0835 17.6246 12.1343 17.1242 12.1633ZM20.1123 23.0714C21.3499 22.3518 22.3771 21.32 23.0911 20.0791C23.8051 18.8382 24.1809 17.4316 24.1811 16C24.1811 14.5785 23.8185 13.244 23.1802 12.0763C23.3098 13.3609 23.1153 14.6576 22.6145 15.8477L20.1123 23.0714ZM16 25.4286C13.4994 25.4286 11.1012 24.4352 9.33299 22.667C7.56479 20.8988 6.57143 18.5006 6.57143 16C6.57143 13.4994 7.56479 11.1012 9.33299 9.33299C11.1012 7.56479 13.4994 6.57143 16 6.57143C18.5006 6.57143 20.8988 7.56479 22.667 9.33299C24.4352 11.1012 25.4286 13.4994 25.4286 16C25.4286 18.5006 24.4352 20.8988 22.667 22.667C20.8988 24.4352 18.5006 25.4286 16 25.4286Z" fill="white"/>
</svg>
