<svg width="97" height="48" viewBox="0 0 97 48" fill="none" xmlns="http://www.w3.org/2000/svg">
<path d="M48.7338 6C22.0911 6 0.734131 13.9859 0.734131 23.9984C0.734131 33.95 22.267 41.9976 48.7338 41.9976C75.2011 41.9976 96.7341 33.923 96.7341 23.9984C96.7341 14.0739 75.2011 6 48.7338 6Z" fill="#003478"/>
<path d="M67.6405 27.8111C67.6534 27.8936 67.7616 27.9725 67.8664 28.0099C67.905 28.0228 67.9239 28.0486 67.8835 28.1361C67.5847 28.7768 67.3099 29.1461 66.9352 29.7027C66.5905 30.2171 66.2022 30.6183 65.7323 31.0043C65.0233 31.591 64.0387 32.2296 63.2248 31.8003C62.8633 31.6127 62.7068 31.1066 62.7138 30.697C62.731 29.545 63.2434 28.3624 64.1897 27.2002C65.3433 25.7799 66.6186 25.0433 67.4556 25.4459C68.3215 25.8589 68.0452 26.8615 67.6574 27.6485C67.6273 27.7094 67.6277 27.7613 67.6405 27.8111ZM76.9327 18.8352C76.9949 18.7253 76.9294 18.645 76.7906 18.645C76.0673 18.645 75.1183 18.6467 74.3647 18.6467C74.1852 18.6467 74.0925 18.6681 74.0079 18.8355C73.7297 19.3685 70.3398 24.449 69.7088 25.4356C69.6024 25.5858 69.4727 25.5648 69.4577 25.3926C69.3937 24.8066 68.8876 24.133 68.0904 23.8107C67.4827 23.5643 66.8887 23.5196 66.2711 23.6016C65.1562 23.7514 64.1629 24.3396 63.2896 25.0029C61.9733 26.0035 60.8377 27.3005 59.3718 28.2587C58.5715 28.7804 57.4756 29.2353 56.7423 28.5562C56.0786 27.9409 56.1536 26.5744 57.169 25.5174C57.2759 25.4066 57.4043 25.5002 57.3841 25.5985C57.2884 26.0765 57.4056 26.5519 57.7688 26.8852C58.2118 27.2823 58.8458 27.3271 59.3884 27.0621C60.0287 26.7448 60.405 26.1321 60.5146 25.4368C60.6842 24.3582 59.854 23.4069 58.8151 23.3306C57.9711 23.2713 57.1618 23.565 56.3732 24.2158C55.9778 24.5439 55.7532 24.7862 55.4113 25.2725C55.328 25.3923 55.2 25.4043 55.2038 25.2274C55.2425 23.8464 54.6719 23.0695 53.5302 23.0441C52.644 23.0227 51.6974 23.5038 50.9594 24.0921C50.1505 24.7417 49.4432 25.6027 48.6849 26.4116C48.5904 26.5113 48.5084 26.5065 48.4818 26.3133C48.4603 25.3983 48.2289 24.5121 47.8055 23.8828C47.6556 23.6638 47.3402 23.5556 47.0752 23.7033C46.9528 23.7703 46.5272 23.966 46.2172 24.2156C46.0635 24.3422 46.0034 24.5256 46.0717 24.7606C46.4804 26.1275 46.3907 27.6817 45.836 28.9944C45.3267 30.1966 44.337 31.2809 43.1738 31.6479C42.4075 31.8909 41.6109 31.772 41.1179 31.0926C40.4409 30.155 40.7143 28.5244 41.7235 27.1704C42.6141 25.9782 43.9024 25.2209 45.1874 24.7332C45.3385 24.6748 45.3699 24.5778 45.3269 24.4494C45.2574 24.2382 45.1457 23.9505 45.1006 23.8192C44.9826 23.5053 44.6527 23.4546 44.2497 23.4984C43.316 23.607 42.4738 23.9269 41.6418 24.3724C39.4632 25.539 38.371 27.7969 37.8923 29.0048C37.6618 29.5851 37.4647 29.9471 37.21 30.2681C36.8665 30.6997 36.4354 31.0928 35.6471 31.7851C35.5758 31.8486 35.5226 31.9808 35.5827 32.1041C35.663 32.2706 36.073 32.8497 36.1887 32.9014C36.317 32.9645 36.466 32.8756 36.5257 32.8335C37.0773 32.4595 37.7373 31.8668 38.0602 31.4649C38.1736 31.327 38.29 31.385 38.3501 31.5941C38.6515 32.6694 39.4407 33.5474 40.532 33.9147C42.5295 34.5883 44.6014 33.6133 46.1654 31.9158C47.1593 30.8368 47.518 30.1429 47.899 29.6712C48.5446 28.8713 49.8182 27.0817 51.3351 25.9327C51.8914 25.509 52.5497 25.1858 52.8807 25.4005C53.1465 25.5726 53.2323 25.9727 52.806 26.748C51.2594 29.5722 48.9839 32.8904 48.5665 33.695C48.4901 33.8346 48.5579 33.9445 48.7031 33.9445C49.5124 33.9405 50.3146 33.9425 51.0493 33.9425C51.1716 33.9382 51.2262 33.8807 51.2876 33.7944C52.4745 31.9365 53.5915 30.1682 54.7888 28.3399C54.8557 28.2322 54.9175 28.3141 54.9201 28.3614C54.9459 28.7856 55.0489 29.3657 55.3009 29.7467C55.7535 30.451 56.3948 30.7537 57.1061 30.7583C57.6721 30.7669 57.9585 30.6788 58.5688 30.4508C59.0654 30.2667 59.464 30.0249 59.77 29.8062C59.9486 29.6817 59.98 29.8899 59.9757 29.9217C59.7009 31.3966 60.0401 33.1442 61.506 33.8688C63.2602 34.7338 65.1875 33.518 66.2964 32.4206C66.405 32.3149 66.5214 32.3261 66.5325 32.5541C66.5583 32.9731 66.7455 33.4704 67.0921 33.8183C68.0215 34.751 69.8967 34.3813 71.7786 32.9247C72.9869 31.9921 74.2511 30.6745 75.3931 29.2793C75.436 29.2252 75.4669 29.1385 75.3845 29.0504C75.2106 28.8684 74.959 28.6602 74.7866 28.4998C74.708 28.4328 74.5925 28.4521 74.5264 28.5021C73.3558 29.6154 72.3021 30.885 70.7792 31.9349C70.2655 32.2934 69.4469 32.5826 69.0793 32.0848C68.9359 31.8916 68.9522 31.6244 69.0922 31.2738C69.5362 30.1665 76.5662 19.4633 76.9311 18.8321" fill="white"/>
<path d="M43.8577 20.1267C43.8877 20.2856 43.9496 20.3165 44.0217 20.3032C44.3798 20.2315 44.7717 19.937 45.0037 19.5956C45.2149 19.286 45.3141 18.8393 45.1041 18.6603C44.9169 18.4993 44.6121 18.5448 44.3862 18.7444C43.9362 19.142 43.7997 19.7058 43.8577 20.1267ZM25.94 33.9044C23.3188 33.9215 21.0096 32.3028 20.7446 29.4986C20.5973 27.9446 21.0366 26.5598 21.9159 25.4188C22.6962 24.4022 24.0165 23.5576 25.1341 23.3512C25.4977 23.2847 25.9864 23.3255 26.1884 23.5676C26.5052 23.9364 26.4142 24.3416 26.0973 24.5032C25.2447 24.9385 24.2187 25.6838 23.7111 26.7014C23.2993 27.532 23.2162 28.533 23.8451 29.4866C24.8977 31.0759 27.8319 31.1196 30.5601 28.5851C31.2357 27.9647 31.8403 27.3687 32.455 26.6628C33.6566 25.2889 34.0562 24.7882 35.6535 22.5727C35.6707 22.5469 35.6792 22.5134 35.6707 22.4971C35.6578 22.467 35.6364 22.4627 35.5887 22.4584C34.5224 22.4885 33.5928 22.8058 32.6892 23.4811C32.429 23.6708 32.0545 23.6442 31.8905 23.3943C31.708 23.1118 31.839 22.7441 32.1391 22.5364C33.5927 21.5254 35.1806 21.3421 36.8022 21.0684C36.8009 21.0684 36.9147 21.0727 37.0074 20.9508C37.6731 20.0965 38.1757 19.3258 38.8854 18.4619C39.6004 17.5853 40.5239 16.7803 41.2296 16.1757C42.2145 15.3287 42.8462 15.0437 43.4882 14.6944C43.6573 14.606 43.4667 14.5004 43.4152 14.5004C39.831 13.8267 36.1055 12.955 32.546 14.2728C30.0808 15.1927 29.0005 17.1477 29.5201 18.4539C29.8898 19.3806 31.1084 19.5312 32.2494 18.9729C33.197 18.5086 34.0739 17.7603 34.6956 16.797C35.0433 16.262 35.7762 16.648 35.3802 17.5769C34.3386 20.0251 32.3487 21.9671 29.9248 22.0491C27.8619 22.1161 26.5309 20.5985 26.5353 18.7262C26.5439 15.0334 30.6548 12.6009 34.9752 12.2372C40.1783 11.8072 45.1064 13.1932 50.2725 13.8198C54.2306 14.2991 58.0255 14.3091 62.0039 13.3952C62.4743 13.293 62.8042 13.5931 62.7736 14.0681C62.735 14.7548 62.2029 15.4161 60.8926 16.1307C59.4024 16.948 57.8434 17.196 56.2152 17.2093C52.278 17.2437 48.6106 15.7074 44.8154 14.8828C44.8197 15.0489 44.8635 15.2468 44.7244 15.3517C42.6222 16.9023 40.722 18.4769 39.4494 20.6885C39.4064 20.7396 39.4279 20.7881 39.5039 20.783C40.6088 20.7242 41.6025 20.6958 42.6341 20.6134C42.8144 20.5962 42.8212 20.5533 42.8053 20.4219C42.7139 19.6596 42.9367 18.7903 43.6073 18.1923C44.2936 17.577 45.1529 17.507 45.7226 17.9502C46.3702 18.4549 46.3128 19.3624 45.9587 20.0431C45.598 20.7337 45.0024 21.1031 44.4308 21.2824C44.4308 21.2824 44.3105 21.3082 44.3286 21.4172C44.35 21.5915 45.1299 22.0231 45.1966 22.1381C45.261 22.2476 45.2266 22.4172 45.1094 22.5473C45.027 22.6418 44.8978 22.7302 44.7325 22.7272C44.5989 22.7246 44.5178 22.6783 44.3469 22.586C43.9974 22.3966 43.5606 22.0853 43.2693 21.7183C43.1701 21.5942 43.1194 21.5917 42.8717 21.6054C41.7554 21.6698 40.0149 21.8381 38.8356 21.9854C38.5496 22.0198 38.5075 22.0743 38.4487 22.1734C36.5685 25.274 34.5609 28.6175 32.3567 30.8561C29.9925 33.2563 28.0272 33.8882 25.941 33.9046" fill="white"/>
<path d="M48.7327 8.94315C24.2223 8.94315 4.35459 15.7162 4.35459 24.0042C4.35459 32.2928 24.2223 39.0664 48.7327 39.0664C73.2429 39.0664 93.1093 32.2928 93.1093 24.0042C93.1093 15.7162 73.2429 8.94315 48.7327 8.94315ZM48.7327 40.4314C23.33 40.4314 2.73734 33.0767 2.73734 24.0042C2.73734 14.9303 23.33 7.57694 48.7327 7.57694C74.1332 7.57694 94.7246 14.9303 94.7246 24.0042C94.7246 33.0767 74.1332 40.4314 48.7327 40.4314Z" fill="white"/>
</svg>
