<svg width="116" height="48" viewBox="0 0 116 48" fill="none" xmlns="http://www.w3.org/2000/svg">
<path d="M61.8252 16.0251C61.6668 16.2167 61.5771 16.4307 61.5771 16.8029V27.0349H61.5203C61.5203 27.0349 55.9095 17.0504 55.6383 16.5889C55.4462 16.2614 55.2318 16.0362 54.9494 15.8669C54.667 15.7096 54.3734 15.6082 53.8093 15.6082H51.958C51.5283 15.6082 51.2579 15.7543 51.0659 15.9803C50.9075 16.1712 50.8171 16.386 50.8171 16.7574V31.261C50.8171 31.6331 50.9075 31.8471 51.0659 32.0388C51.2579 32.264 51.5283 32.4101 51.958 32.4101H53.0076C53.4365 32.4101 53.7077 32.264 53.8997 32.0388C54.0573 31.8471 54.1477 31.6331 54.1477 31.261V20.7805H54.2045C54.2045 20.7805 60.0298 31.0805 60.2674 31.4638C60.5947 32.0044 61.1475 32.4101 61.938 32.4101H63.7333C64.1622 32.4101 64.4334 32.264 64.6254 32.0388C64.783 31.8471 64.8734 31.6331 64.8734 31.261V18.1772H88.4585C88.6962 18.1772 88.8762 18.1101 89.0122 17.9975C89.1586 17.8618 89.2266 17.6813 89.2266 17.4114V16.4196C89.2266 16.1488 89.1586 15.9684 89.0122 15.8334C88.8762 15.7208 88.6962 15.6529 88.4585 15.6529H62.7172C62.2884 15.6529 62.0172 15.7999 61.8252 16.0251ZM72.122 19.9013C68.2041 19.9013 66.0023 22.9558 66.0023 26.1789C66.0023 29.6159 68.3625 32.6361 72.1444 32.6361C74.0302 32.6361 75.8815 31.9262 76.9424 30.6748C77.4056 30.1342 77.7785 29.3787 77.7785 28.9172C77.7785 28.759 77.7441 28.6241 77.6545 28.5227C77.5641 28.4101 77.428 28.3422 77.1912 28.3422H75.3735C75.0118 28.3422 74.7638 28.4772 74.583 28.7479C74.0526 29.5257 73.2845 29.9313 72.1556 29.9313C70.4619 29.9313 69.3674 28.6464 69.2882 27.2378H77.1464C77.496 27.2378 77.7441 27.1587 77.9137 26.9902C78.1057 26.8097 78.1961 26.5502 78.1961 26.0655C78.1961 24.5897 77.7329 23.0573 76.7624 21.885C75.7687 20.7015 74.2558 19.9013 72.122 19.9013ZM84.2358 19.9013C81.1428 19.9013 79.1106 21.3667 79.1106 23.7105C79.1106 24.5442 79.4154 25.2206 79.9122 25.75C80.4883 26.3705 81.3124 26.7986 82.5093 27.1028L85.0943 27.756C85.8055 27.9365 86.4376 28.1505 86.4376 28.7702C86.4376 29.7285 85.4215 30.0551 84.3382 30.0551C83.807 30.0551 83.2541 29.9537 82.8021 29.7285C82.4861 29.5704 82.2156 29.3452 82.0236 29.0409C81.854 28.7814 81.798 28.5898 81.538 28.4436C81.3796 28.3534 81.1876 28.3422 80.9283 28.3422H79.5282C79.2234 28.3422 79.077 28.4324 78.9754 28.5562C78.8738 28.68 78.8394 28.8605 78.8394 29.0409C78.8394 29.4913 78.9978 30.0551 79.3706 30.5622C80.2283 31.7114 82.0236 32.6361 84.315 32.6361C86.5736 32.6361 89.701 31.7002 89.701 28.68C89.701 27.903 89.4746 27.2378 89.057 26.6971C88.5266 26.0096 87.7705 25.536 86.4832 25.2094L83.9206 24.5554C82.8589 24.2855 82.362 24.0938 82.362 23.4398C82.362 22.8089 82.9269 22.3018 84.2358 22.3018C85.0039 22.3018 85.7039 22.4711 86.156 22.9447C86.528 23.3392 86.4608 23.542 86.7544 23.6993C86.9344 23.7896 87.1376 23.7896 87.4545 23.7896H88.7298C88.933 23.7896 89.0802 23.756 89.1922 23.6314C89.2834 23.53 89.3394 23.3727 89.3394 23.1132C89.3394 22.527 88.9554 21.7724 88.2785 21.1974C87.3753 20.4196 85.9527 19.9013 84.2358 19.9013ZM91.27 20.3301H90.6379C90.4011 20.3301 90.2203 20.3972 90.0851 20.5098C89.9379 20.6456 89.8699 20.8261 89.8699 21.096V21.8738C89.8699 22.1445 89.9379 22.3242 90.0851 22.4599C90.2203 22.5725 90.4011 22.6404 90.6379 22.6404H91.27V28.2631C91.27 29.7054 91.6652 30.6069 92.3989 31.3288C93.0765 31.9933 93.9574 32.4101 95.4927 32.4101H96.452C96.6896 32.4101 96.8696 32.343 97.0056 32.2304C97.1521 32.0947 97.2425 31.9142 97.2425 31.6443V30.6636C97.2425 30.3929 97.1521 30.2132 97.0056 30.0775C96.8696 29.9649 96.6896 29.897 96.452 29.897H96.3168C95.7071 29.897 95.2895 29.7397 95.0071 29.469C94.6686 29.1535 94.499 28.6688 94.499 28.0379V22.6404H96.5544C96.7912 22.6404 96.972 22.5725 97.1073 22.4599C97.2537 22.3242 97.3217 22.1445 97.3217 21.8738V21.096C97.3217 20.8261 97.2537 20.6456 97.1073 20.5098C96.972 20.3972 96.7912 20.3301 96.5544 20.3301H94.5102V16.6559C94.5102 16.3629 94.4198 16.1488 94.2846 15.9803C94.115 15.7775 93.8782 15.6529 93.5286 15.6529H92.2525C91.902 15.6529 91.6652 15.7775 91.4956 15.9803C91.3604 16.1488 91.27 16.3629 91.27 16.6559V20.3301ZM98.1801 31.4071C98.1801 31.7002 98.2698 31.9142 98.4058 32.0835C98.5746 32.2863 98.8122 32.4101 99.1618 32.4101H100.505C100.856 32.4101 101.092 32.2863 101.262 32.0835C101.397 31.9142 101.488 31.7002 101.488 31.4071V16.6567C101.488 16.3637 101.397 16.1496 101.262 15.9803C101.092 15.7775 100.856 15.6529 100.505 15.6529H99.1618C98.8122 15.6529 98.5746 15.7775 98.4058 15.9803C98.2698 16.1496 98.1801 16.3637 98.1801 16.6567V31.4071ZM69.3106 24.8373C69.457 23.451 70.5187 22.4144 72.1332 22.4144C73.7141 22.4144 74.8086 23.451 74.9558 24.8373H69.3106ZM113.715 18.1772C113.952 18.1772 114.133 18.1101 114.268 17.9975C114.415 17.8618 114.483 17.6813 114.483 17.4114V16.3629C114.483 15.9572 114.404 15.7543 114.268 15.6082C114.144 15.4725 113.941 15.3942 113.715 15.3942C113.534 15.3942 113.354 15.4166 113.049 15.4501L104.039 16.3405C103.78 16.3629 103.656 16.4419 103.565 16.5433C103.464 16.6559 103.418 16.8029 103.418 17.0057V17.5911C103.418 17.8171 103.464 17.9185 103.543 18.0087C103.644 18.1213 103.791 18.1772 103.994 18.1772H113.715ZM108.736 19.9013C104.818 19.9013 102.617 22.9558 102.617 26.1789C102.617 29.6159 104.977 32.6361 108.759 32.6361C110.644 32.6361 112.496 31.9262 113.557 30.6748C114.02 30.1342 114.393 29.3787 114.393 28.9172C114.393 28.759 114.358 28.6241 114.268 28.5227C114.178 28.4101 114.042 28.3422 113.805 28.3422H111.988C111.626 28.3422 111.378 28.4772 111.197 28.7479C110.667 29.5257 109.899 29.9313 108.77 29.9313C107.076 29.9313 105.981 28.6464 105.902 27.2378H113.783C114.133 27.2378 114.381 27.1587 114.55 26.9902C114.742 26.8097 114.833 26.5502 114.833 26.0655C114.833 24.5897 114.369 23.0573 113.399 21.885C112.405 20.7015 110.87 19.9013 108.736 19.9013ZM105.925 24.8373C106.072 23.451 107.133 22.4144 108.747 22.4144C110.328 22.4144 111.423 23.451 111.57 24.8373H105.925Z" fill="#939CA1"/>
<path d="M38.0836 18.3123C35.161 13.9609 32.5928 12.4947 31.8703 11.8047C31.0766 11.0437 30.4718 10.1813 30.087 9.766C29.2309 8.83247 28.1228 7.68014 26.3003 7.68014C24.5409 7.68014 23.3784 8.82449 23.0008 9.81312C22.8912 10.095 22.8048 10.44 22.7264 10.5654C22.5535 10.8481 21.7759 12.1729 21.4535 12.6983H22.9072L22.1999 14.0312C23.0248 13.8507 23.6136 13.7173 24.3993 13.7173C25.0986 13.7173 25.601 13.8826 25.821 14.321C26.2299 15.1372 26.2299 17.6064 26.9211 19.4654C27.5652 21.2127 29.1365 22.9224 30.9038 24.2321C30.927 24.2473 30.951 24.2552 30.9822 24.2552C31.0686 24.2552 31.1238 24.193 31.1238 24.1299C31.1238 24.0827 31.1078 24.0516 31.0686 24.0125C29.5917 22.5383 28.39 20.9076 27.746 19.1204C27.1091 17.3796 27.2115 14.9327 26.6539 13.8427C26.2843 13.1216 25.4994 12.9339 24.7761 12.9339C24.1953 12.9339 23.6528 13.0513 23.4016 13.1056L24.0377 12.0315H22.9616C23.1896 11.6323 23.4248 11.2633 23.5432 11.0437C23.6448 10.8552 23.6848 10.6205 23.8105 10.2994C24.2185 9.27169 25.1218 8.62085 26.3003 8.62085C27.7772 8.62085 28.6412 9.56955 29.4973 10.5183C29.8901 10.9575 30.5342 11.875 31.2807 12.557C31.7911 13.0274 32.7656 13.5528 34.2657 15.098C35.1298 15.9916 36.1355 17.152 37.1955 18.7044C40.9903 24.2473 43.4801 29.1321 44.8706 32.9429L44.8474 32.9588C40.8646 30.2613 37.4156 27.713 34.6353 24.5691C32.6632 22.3347 30.951 19.7473 29.4581 16.446C29.3557 16.2264 29.2701 16.0228 29.1757 15.8112C29.1365 15.7249 29.0973 15.701 29.0341 15.701C28.9557 15.701 28.9005 15.7561 28.9005 15.8343C28.9005 15.9206 28.9397 16.109 29.0261 16.4852C29.8197 19.9038 32.0191 22.9695 34.3681 25.5178C36.7091 28.0508 39.3557 30.2301 41.5319 31.8145L43.2288 36.6594C43.268 36.7776 43.3152 36.903 43.3152 37.0204C43.3152 37.1066 43.2912 37.1769 43.2368 37.224C43.1896 37.2711 43.1272 37.2951 42.9856 37.2951H42.4752C42.2552 37.2951 42.168 37.2631 42.0895 37.2008C42.0111 37.1378 41.9567 37.0435 41.9167 36.9341C41.7679 36.4789 40.8718 33.9307 40.6998 33.4132C40.6678 33.3198 40.6126 33.2879 40.5502 33.2879C40.4718 33.2879 40.4166 33.3509 40.4166 33.4212C40.4166 33.4843 40.4398 33.5546 40.4798 33.7742C40.707 34.9345 40.9743 36.2362 41.0839 36.7305C41.1319 36.9573 41.1863 37.1697 41.1863 37.3262C41.1863 37.4668 41.1551 37.5458 41.0375 37.6632L40.511 38.1967C40.3854 38.322 40.3142 38.3532 40.2126 38.3532C40.087 38.3532 39.9846 38.2669 39.9374 38.0473C39.3405 35.2635 38.4373 31.8145 38.2012 30.857C38.146 30.6462 38.1068 30.528 37.9812 30.528C37.8716 30.528 37.8324 30.6063 37.8324 30.7005C37.8324 30.7708 37.8476 30.857 37.8556 30.9201C37.9972 31.9079 38.5709 35.5071 39.1909 38.7924C39.3013 39.357 39.5133 39.67 40.0006 39.67C40.2206 39.67 40.4318 39.5838 40.6286 39.3961C40.9511 39.0743 41.0447 38.988 41.4303 38.6119C41.7047 38.3452 41.8935 38.2358 42.3648 38.2358H43.5273C43.8025 38.2358 43.9513 38.1655 44.0849 38.0393C44.2105 37.922 44.2889 37.7574 44.2889 37.5219C44.2889 37.2791 44.2265 37.0835 44.1401 36.8399C43.8417 36.0405 42.8832 33.335 42.6 32.5747L42.624 32.5588C43.6057 33.3038 45.0354 34.2525 45.6642 34.2525C45.8603 34.2525 45.9787 34.1663 45.9787 33.8604C45.9787 32.4182 43.5745 26.4824 38.0836 18.3123Z" fill="#939CA1"/>
<path d="M11.1159 9.20121C11.2807 8.84025 11.6423 8.5895 12.0744 8.5895C12.6632 8.5895 13.1345 9.04469 13.1345 9.6484C13.1345 10.0006 12.9696 10.3072 12.7104 10.4949C12.7656 10.6993 12.8048 10.879 12.8048 11.0515C12.8048 11.7103 12.412 12.1727 11.6895 12.4162C11.5951 12.8155 11.4223 13.1765 11.1391 13.4432C10.6679 13.8976 10.1886 13.8976 10.1886 14.0861C10.1886 14.1883 10.2598 14.2506 10.4558 14.2506C11.3279 14.2506 12.184 13.765 12.2864 12.9569C13.1193 12.675 13.6217 11.8357 13.6217 11.1697C13.6217 10.9964 13.6057 10.8479 13.5353 10.7073C13.7633 10.4869 14.0305 10.1108 14.0305 9.55417C14.0305 9.06784 13.8177 8.57433 13.4409 8.21338C13.1113 7.89155 12.6472 7.67993 12.1056 7.67993C11.3199 7.67993 10.8095 8.10397 10.519 8.51923C9.66217 8.51923 8.55488 9.46793 8.55488 10.8247H8.43727C8.35807 10.3543 7.87163 10.0397 7.46279 10.0165C7.13317 9.02871 6.38671 8.18223 5.161 8.18223C5.02019 8.18223 4.84738 8.19022 4.69777 8.21338C4.33694 7.88357 3.9361 7.67993 3.37846 7.67993C2.30957 7.67993 1.4375 8.5352 1.4375 9.61646C1.4375 10.2913 1.74392 10.7536 2.32557 11.1617C2.32557 11.1617 2.31757 11.2479 2.31757 11.2871C2.31757 12.1495 3.26005 13.4983 4.65856 13.4983C4.65856 13.7171 4.93379 14.0158 5.24021 14.0701V14.1803H5.1218C3.19764 14.1803 2.38078 15.1058 2.38078 15.7247C1.80713 15.9603 1.4375 16.5952 1.4375 17.1829C1.4375 18.3512 2.29437 19.1825 3.42566 19.1825C3.80249 19.1825 4.18732 19.034 4.45455 18.8296C4.65056 18.8998 4.90178 18.939 5.161 18.939C5.70345 18.939 6.3083 18.7513 6.73233 18.1316C6.79554 18.1396 6.84994 18.1396 6.91315 18.1396C7.6044 18.1396 8.20125 17.6844 8.51568 17.0887C8.59409 16.9401 8.62529 16.8228 8.62529 16.7357C8.62529 16.6503 8.58608 16.5792 8.49968 16.5792C8.39007 16.5792 8.37407 16.6814 8.17805 16.8619C7.73802 17.262 7.06196 17.4105 6.3707 17.4105C6.03308 17.9048 5.61704 18.1635 5.1378 18.1635C4.78417 18.1635 4.50975 18.0693 4.22653 17.8809C3.99851 18.1316 3.71609 18.2338 3.44086 18.2338C2.82081 18.2338 2.38078 17.8026 2.38078 17.1749C2.38078 16.7357 2.6632 16.3444 3.05603 16.1951C3.12644 15.4189 3.95931 14.8934 4.99619 14.8934C5.1298 14.8934 5.26341 14.9014 5.40502 14.9174C5.56184 14.6666 5.93867 14.3999 6.47311 14.3288C6.58352 14.3136 6.66913 14.3057 6.73233 14.2745C6.79554 14.2426 6.82674 14.1803 6.82674 14.1092C6.82674 14.0469 6.80274 13.9918 6.74033 13.9527C6.68513 13.9215 6.59072 13.9064 6.48111 13.8824C5.98587 13.7882 5.39702 13.4823 5.0986 12.7373C3.9121 12.7373 3.04003 11.7886 3.04003 10.7225V10.6522C2.6472 10.4949 2.38078 10.1188 2.38078 9.67156C2.38078 9.08382 2.84402 8.61346 3.43286 8.61346C3.78649 8.61346 4.09292 8.78595 4.28973 9.04469C4.45455 8.99757 4.64256 8.9816 4.82338 8.9816C5.70345 8.9816 6.64593 9.5382 6.82674 10.6203C7.95803 10.7225 8.22526 11.6792 8.29566 12.0792C8.33486 12.2829 8.36607 12.4554 8.49968 12.4554C8.64129 12.4554 8.67249 12.2981 8.7197 12.0864C8.8061 11.6872 8.95572 11.3653 9.25414 11.1146C9.25414 10.0868 10.0238 9.20121 11.1159 9.20121Z" fill="#939CA1"/>
<path d="M13.4017 15.3482C13.0321 15.8737 12.7657 16.1324 11.9248 17.1203C10.8175 18.4299 10.2359 19.4888 9.26937 21.8406C9.42699 21.8246 9.655 21.8095 9.90623 21.8095C10.0318 21.8095 10.1334 21.8095 10.2991 21.8166L10.4167 21.5659C10.9591 20.4056 11.6888 18.8372 12.7105 17.6297L13.0641 17.2145C14.1162 15.9839 14.7682 15.254 15.1771 13.5762C15.3187 12.9805 15.4363 12.4478 15.8371 12.0629C16.1979 11.7179 16.654 11.5694 17.1172 11.5694C17.51 11.5694 17.8013 11.6636 18.2253 11.8433C18.6101 12.0078 18.7509 12.0398 19.1598 12.0398C19.3014 12.0398 19.403 12.0318 19.4974 12.0238L18.9478 12.7609L19.6942 13.2863C18.7589 13.5602 18.2645 14.4626 18.0989 14.8779C18.0677 14.9641 18.0525 15.0192 18.0525 15.0743C18.0525 15.1374 18.0837 15.1997 18.1781 15.1997C18.2797 15.1997 18.3581 15.1214 18.4917 14.9641C18.9478 14.4155 19.3094 14.0386 20.9895 13.5139L19.8038 12.6195L20.6991 11.3107H19.859C19.3246 11.3107 18.971 11.3027 18.5077 11.0911C17.8789 10.8012 17.5573 10.6758 16.9996 10.6758C16.3164 10.6758 15.6955 10.9186 15.1851 11.3889C14.5954 11.9296 14.4146 12.6515 14.2034 13.4436C14.0378 14.0546 13.8417 14.7293 13.4017 15.3482Z" fill="#939CA1"/>
<path d="M15.2084 20.6878C14.7604 21.2915 14.1475 22.0829 13.6763 22.9222C13.8259 22.9933 14.3211 23.26 14.4939 23.3534C15.0356 22.5381 15.79 21.5351 16.2845 20.7741C16.7325 20.0841 16.9133 19.7862 16.9445 18.8607C16.9525 18.7042 16.9525 18.5548 16.9677 18.4063C17.0069 17.928 17.1334 17.4416 17.5886 16.9952C17.9262 16.6574 18.4135 16.4857 18.9007 16.4857C19.3719 16.4857 19.6464 16.6183 20.0552 16.6183C20.3456 16.6183 20.5576 16.548 20.7465 16.4778L20.8961 16.4227L20.5344 17.2859L21.3825 17.6301C20.8409 17.9671 19.6544 19.4181 19.6544 21.135C19.6544 21.7547 19.7488 22.3265 19.8824 22.836C19.8984 22.8911 19.9296 22.9462 20.016 22.9462C20.0944 22.9462 20.1496 22.8991 20.1576 22.8128L20.1656 22.6323C20.1888 22.1069 20.228 21.2764 20.44 20.5313C20.7937 19.2767 21.7441 18.1004 22.6946 17.5359L21.3433 16.9481L21.925 15.5291L21.2889 15.6624C20.9041 15.7407 20.6208 15.811 20.2832 15.811C20.0632 15.811 19.812 15.7798 19.5136 15.7087C19.2855 15.6544 19.0415 15.6073 18.6967 15.6073C18.0758 15.6073 17.4078 15.8421 16.9525 16.2813C16.1197 17.0735 16.0725 17.928 16.0173 18.689C15.9469 19.7 15.758 19.9507 15.2084 20.6878Z" fill="#939CA1"/>
<path d="M35.3656 21.166C35.3104 21.0957 35.2631 21.0638 35.2007 21.0638C35.1063 21.0638 35.0591 21.1269 35.0591 21.1972C35.0591 21.3074 35.1375 21.4407 35.3344 21.7705C35.9312 22.7815 36.6697 23.8005 37.5809 24.758C38.5626 25.8001 39.7171 26.772 40.9508 27.6424L41.3356 27.9091C41.3909 27.9491 41.4301 27.9722 41.4773 27.9722C41.5557 27.9722 41.6109 27.894 41.6109 27.8309C41.6109 27.7917 41.5949 27.7518 41.5477 27.7127C40.4012 26.6706 39.1675 25.4 38.013 24.1774C37.1089 23.2127 36.1824 22.1938 35.3656 21.166Z" fill="#939CA1"/>
<path d="M10.0867 17.6144C10.2043 17.4187 10.558 16.9404 10.6996 16.791C10.0947 15.5684 9.10503 14.4001 8.673 13.9369L8.31137 14.2899C8.7282 14.8936 9.42666 16.0619 10.0867 17.6144Z" fill="#939CA1"/>
<path d="M4.32871 10.5343C4.25751 10.4712 4.24231 10.4321 4.24231 10.385C4.24231 10.3307 4.28151 10.2676 4.36792 10.2676C4.39912 10.2676 4.43032 10.2756 4.47032 10.2916C5.05117 10.5263 5.54641 10.801 5.98645 11.138C6.35528 11.4199 6.71691 11.7657 7.06974 12.181L6.74011 12.5571C6.33208 12.2193 5.01197 11.1149 4.32871 10.5343Z" fill="#939CA1"/>
<path d="M9.89823 13.1609L9.4742 12.9022C9.74862 12.2513 10.087 11.6556 10.4871 11.2084C10.7703 10.8874 11.0375 10.6279 11.336 10.3699C11.4064 10.3148 11.4456 10.2677 11.516 10.2677C11.5952 10.2677 11.6504 10.3308 11.6504 10.3931C11.6504 10.4242 11.6344 10.4634 11.6032 10.5105C11.1239 11.2555 10.1887 12.7297 9.89823 13.1609Z" fill="#939CA1"/>
<path d="M4.57231 16.7988C4.4699 16.8379 4.4227 16.8619 4.3683 16.8619C4.28189 16.8619 4.24189 16.7908 4.24189 16.7357C4.24189 16.6814 4.26589 16.6503 4.32109 16.6024C5.28677 15.8501 6.13564 15.5522 7.30614 15.3558L7.44695 15.8269L4.57231 16.7988Z" fill="#939CA1"/>
<path d="M24.7213 10.7148C24.7213 10.4401 24.8629 9.94577 25.3734 9.94577C25.5462 9.94577 25.711 9.9849 25.8446 10.048C26.0334 10.1342 26.1591 10.2596 26.1591 10.393C26.1591 10.5343 26.0174 10.6757 25.8054 10.8482C25.5854 11.0278 25.303 11.1931 25.075 11.1931C24.8005 11.1931 24.7213 10.9336 24.7213 10.7148Z" fill="#939CA1"/>
<path d="M16.7481 13.0041C16.7481 12.6671 16.9521 12.2981 17.345 12.2981C17.5178 12.2981 17.7218 12.3684 17.8714 12.5106C17.9578 12.5888 17.997 12.6743 17.997 12.7613C17.997 12.9498 17.8162 13.1294 17.6042 13.2548C17.4394 13.3491 17.2666 13.4121 17.1178 13.4121C16.8737 13.4121 16.7481 13.262 16.7481 13.0041Z" fill="#939CA1"/>
<path d="M18.5942 17.8419C18.5942 17.7636 18.6022 17.6694 18.6334 17.5752C18.6966 17.3715 18.8294 17.1751 19.1598 17.1751C19.3095 17.1751 19.4735 17.2142 19.6071 17.3093C19.7255 17.3875 19.7727 17.4889 19.7727 17.5911C19.7727 17.9281 19.207 18.3202 18.9238 18.3202C18.7198 18.3202 18.5942 18.1238 18.5942 17.8419Z" fill="#939CA1"/>
<path d="M15.4991 27.7366C14.439 27.7366 13.967 27.2351 13.967 26.6002C13.967 25.4862 15.9232 24.397 17.6825 23.7222L18.1385 24.3107C17.0544 24.7412 14.8711 25.6675 14.8711 26.4669C14.8711 26.7488 15.0359 26.9532 15.6951 26.9532C16.8424 26.9532 18.0761 26.3958 19.2146 25.8392C19.301 25.8001 19.4034 25.7609 19.4978 25.7609C19.6467 25.7609 19.7411 25.808 19.8507 25.9646L20.0395 26.2233C18.7122 26.9532 17.0544 27.7366 15.4991 27.7366Z" fill="#939CA1"/>
<path d="M18.4215 28.0349C17.3846 28.6146 16.3085 28.9995 15.358 28.9995C14.2971 28.9995 13.3547 28.5444 12.569 27.3601C12.2394 26.8586 11.9802 26.2317 11.6657 25.6751C11.2889 25.0163 10.8801 24.6633 10.1656 24.6633C9.51356 24.6633 8.8767 24.93 8.20145 25.2199L8.23265 25.3693C8.28786 25.612 8.38226 25.7845 8.60948 25.7845C8.71189 25.7845 8.8143 25.7382 8.8695 25.7222C9.24633 25.604 9.52076 25.5018 9.90639 25.5018C10.4952 25.5018 10.7777 25.8476 11.1785 26.6941L11.3281 27.0079C10.9193 27.1493 9.96079 27.2195 9.24633 27.2195H8.90871L8.96391 27.5565C8.98711 27.6979 9.04232 27.8153 9.15993 27.8704C9.30074 27.9406 9.50556 27.9486 9.85918 27.9486C10.7545 27.9486 11.4065 27.8392 11.7833 27.7442C12.7498 29.18 14.0771 29.7286 15.358 29.7286C16.4493 29.7286 17.5574 29.3286 18.6183 28.7488L18.4215 28.0349Z" fill="#939CA1"/>
<path d="M19.4896 28.3877L19.3016 27.6658C20.9193 26.7962 22.3962 26.0982 24.7532 25.8706C24.8004 26.7722 24.7372 27.9094 25.4053 27.9094C26.0173 27.9094 27.3526 26.333 28.8927 24.3573C29.0344 24.4907 29.2616 24.632 29.4664 24.7886L29.0736 25.298C27.5726 27.2274 26.2925 28.874 25.2396 28.874C24.258 28.874 23.8883 27.7209 23.8731 26.8584C22.373 27.0078 20.9585 27.5093 19.4896 28.3877Z" fill="#939CA1"/>
<path d="M40.2753 12.6512C39.6625 12.6512 39.4897 12.3134 39.4897 11.8359C39.4897 10.8481 40.1105 9.42902 40.5033 8.62086H39.5521C39.0576 9.57755 37.1095 12.6433 36.0566 13.9138L36.6614 14.5638C37.2271 13.9369 37.8479 12.8709 38.5232 11.8199H38.6488C38.6488 11.875 38.6416 11.9373 38.6416 11.9924C38.6416 12.8788 39.0968 13.5369 40.2201 13.5369C40.9114 13.5369 41.9955 13.1919 43.0171 12.8469C43.8652 12.557 44.6429 12.2591 45.0277 12.1497V11.209C44.5877 11.3416 43.6924 11.6866 42.7651 12.0084C41.7914 12.3454 40.833 12.6512 40.2753 12.6512Z" fill="#939CA1"/>
<path d="M42.3726 15.4973C43.315 15.098 45.004 14.4232 45.9784 14.0702V13.1135C44.0223 13.8354 40.5892 15.2545 38.2482 16.525C38.3114 16.6025 38.7203 17.175 38.7667 17.2461C39.7563 16.8381 40.6444 16.5713 41.4453 16.5713C42.5694 16.5713 43.4878 16.5713 45.028 16.2104V15.4893C44.1639 15.6466 43.2446 15.8343 42.6478 15.8343C42.2941 15.8343 42.1917 15.7871 42.1917 15.6697C42.1917 15.5995 42.2389 15.5524 42.3726 15.4973Z" fill="#939CA1"/>
<path d="M22.2468 19.9037L21.8692 20.6256H25.8839L25.5855 19.9037H22.2468Z" fill="#939CA1"/>
<path d="M7.78498 24.2084C8.20901 24.2084 8.55464 24.067 8.88507 23.9345C9.19869 23.8083 9.51312 23.6829 9.93716 23.6829C10.9428 23.6829 12.1837 24.1692 13.2758 24.6316C13.339 24.6556 13.4094 24.6707 13.4798 24.6707C13.6535 24.6707 13.7871 24.5925 13.8727 24.428L14.0143 24.1692C12.8126 23.4713 10.8956 22.7262 9.89795 22.7262C9.44271 22.7262 9.11229 22.8444 8.79866 22.969C8.44503 23.1111 8.13861 23.2597 7.81618 23.2597C7.02332 23.2597 4.98875 22.4755 4.98875 21.7152C4.98875 20.8216 8.22501 20.4767 8.57864 20.4767L8.90027 19.7468C6.55208 19.7468 3.75505 20.5701 3.75505 21.6601C3.75505 21.974 3.93586 22.1305 3.93586 22.4204C3.93586 22.8125 3.75505 23.0792 3.75505 23.5184C3.75505 23.8083 3.92786 24.1772 4.13188 24.4991C4.3519 24.836 4.61112 25.0549 4.61112 25.3375C4.61112 25.5492 4.47031 25.7999 4.47031 26.2942C4.47031 27.3523 5.07516 27.996 6.25285 29.2577L6.48887 29.5085C5.51519 29.8854 3.69984 30.6696 3.27581 30.8493C1.80689 31.461 1.43806 32.206 1.43806 33.3823C1.43806 33.8367 1.43806 34.3542 1.46926 34.8166H1.75169C2.34133 34.8166 2.41174 34.4644 2.41174 34.1274C2.41174 33.8998 2.40374 33.6411 2.40374 33.3584C2.41174 32.7083 2.43574 32.1278 3.48783 31.6574C3.91266 31.469 5.99363 30.6225 7.54176 29.9637C7.997 29.7672 8.42103 29.6027 8.89227 29.6027C9.41871 29.6027 10.0236 29.8303 10.778 30.2775C11.4141 30.6536 12.0821 31.1631 12.6086 31.7509L13.2758 31.2414C12.7022 30.5674 11.9093 29.9637 11.1157 29.4933C10.322 29.0229 9.61553 28.7482 9.01868 28.7482C8.75946 28.7482 8.54744 28.7954 8.36663 28.8425C8.15461 28.8976 7.95779 28.9599 7.70657 28.9599C7.41615 28.9599 7.17213 28.8896 6.8185 28.4815C6.68489 28.333 5.83682 27.3683 5.65601 27.0864C5.5696 26.9531 5.41279 26.6863 5.41279 26.3725C5.41279 26.2391 5.43599 26.0826 5.51519 25.9413C6.24485 26.5059 7.14893 26.8508 8.24822 26.9842L8.0994 26.2391C6.52008 25.8239 4.83914 24.436 4.83914 23.5424C4.83914 23.3539 4.88634 23.2205 4.95755 23.056C5.5696 23.6206 7.00732 24.2084 7.78498 24.2084Z" fill="#939CA1"/>
<path d="M19.0892 24.3498C20.0789 23.6518 21.0998 23.5736 21.9246 23.5736C22.4199 23.5736 23.0007 23.6438 23.6136 23.7221C24.1088 23.7852 24.5561 23.8323 25.0905 23.8323C26.1666 23.8323 27.2507 23.4402 27.7219 23.2358C27.8555 23.4011 28.0836 23.6207 28.2644 23.7772C28.0363 23.9186 26.5914 24.7019 25.1145 24.7019C24.4625 24.7019 23.8416 24.6245 23.3072 24.5534C22.8359 24.4911 22.3255 24.436 21.8302 24.436C21.2886 24.436 20.1965 24.5925 19.5213 24.9144L19.0892 24.3498Z" fill="#939CA1"/>
<path d="M33.6766 27.1489C32.4981 29.6269 30.7068 31.43 28.869 32.473C27.9969 32.9665 27.2113 33.2883 25.5151 33.2883H21.846C20.5347 33.2883 19.7099 33.4608 19.0658 33.6253C18.3738 33.8058 17.9345 33.9854 17.2353 33.9854C16.1984 33.9854 15.2399 33.476 14.7767 32.9904L15.6407 32.3084L15.2087 31.7351C14.9575 31.9164 11.886 34.1819 11.2412 34.6914L11.202 34.6682C11.218 34.5117 11.218 34.3704 11.218 34.229C11.218 32.5041 10.4163 32.088 9.19941 31.6025L8.37454 32.088C10.0475 32.6454 10.4635 33.0918 10.4635 34.3384C10.4635 35.327 10.1099 35.7183 9.59944 36.017C9.073 36.3229 8.42094 36.4634 7.8481 36.4634C7.60408 36.4634 7.49447 36.5105 7.40806 36.5968C7.31365 36.691 7.26645 36.8323 7.26645 37.028V37.3027H7.46326C8.51535 37.3027 9.48983 37.1382 10.5579 36.2989L14.0382 33.5862C14.5326 34.1507 15.7823 34.9349 17.2585 34.9349C18.0913 34.9349 18.6258 34.7305 19.3954 34.5349C19.9923 34.3855 20.5739 34.2522 21.846 34.2522H25.5303C27.4161 34.2522 28.3274 33.8601 29.3323 33.2963C31.5164 32.0729 33.3782 30.003 34.4311 27.6264C34.1559 27.4547 33.8966 27.2974 33.6766 27.1489Z" fill="#939CA1"/>
<path d="M27.7615 30.0971C28.712 28.5758 29.56 27.227 31.6418 26.1298C31.4218 25.9964 31.1082 25.7928 30.9426 25.6826C30.1337 26.0356 29.3328 26.7407 28.6496 27.4546C27.0782 29.0853 27.219 30.026 25.5621 30.6617C25.1453 30.8182 24.6348 30.9907 23.9828 31.14C23.598 29.9557 22.6323 28.7795 21.6106 28.7795C20.9033 28.7795 20.0865 29.1476 19.144 29.5636C18.0367 30.05 17.023 30.6066 16.7014 30.8182L17.1334 31.3988C17.4631 31.2175 18.4135 30.7471 19.364 30.3399C20.1889 29.9869 20.9353 29.697 21.4378 29.697C22.2466 29.697 22.7731 30.6146 23.0643 31.3508C22.0034 31.6024 20.2593 31.6647 19.7336 31.6647C19.4896 31.6647 19.4032 31.7038 19.3168 31.7749C19.2384 31.8452 19.1752 31.9705 19.136 32.143L19.0736 32.4097H19.6384C22.5771 32.4097 25.3501 31.9474 27.1326 30.8653C27.3847 30.9364 27.6047 30.9827 27.8871 30.9827C28.908 30.9827 29.9609 30.4261 30.6209 29.9166C30.8561 29.7361 30.9114 29.5708 30.9114 29.3912C30.9114 29.3049 30.9034 29.2267 30.8954 29.1476L30.8641 28.8425C29.9217 29.5868 29.136 30.1442 28.1623 30.1442C27.9895 30.1442 27.8639 30.1282 27.7615 30.0971Z" fill="#939CA1"/>
</svg>
