<svg width="188" height="25" viewBox="0 0 188 25" fill="none" xmlns="http://www.w3.org/2000/svg">
<g clip-path="url(#clip0_5_3693)">
<path d="M81.5302 15.8524H93.8673L87.3507 5.32857L75.3697 24.3362H69.9216L84.493 1.5319C84.8107 1.07685 85.2328 0.704547 85.7239 0.446186C86.2151 0.187824 86.761 0.0509275 87.3159 0.0469636C87.8708 0.0429997 88.4187 0.172084 88.9134 0.423403C89.4082 0.674723 89.8356 1.04096 90.1597 1.49143L104.772 24.3362H99.3235L96.7573 20.0862H84.2745L81.5545 15.8524H81.5302ZM138.164 20.0862V0.277139H133.534V22.0372C133.533 22.3395 133.594 22.639 133.712 22.9173C133.83 23.1956 134.004 23.4469 134.222 23.6562C134.441 23.8804 134.703 24.0583 134.992 24.1793C135.282 24.3003 135.592 24.3619 135.906 24.3605H156.954L159.698 20.1105H138.14L138.164 20.0862ZM61.6078 16.5486C63.7655 16.5486 65.8349 15.6914 67.3606 14.1657C68.8864 12.6399 69.7435 10.5706 69.7435 8.41286C69.7435 6.25513 68.8864 4.18578 67.3606 2.66004C65.8349 1.13429 63.7655 0.277139 61.6078 0.277139H41.3697V24.3362H45.9921V4.53524H61.3245C62.3572 4.53524 63.3476 4.94548 64.0778 5.67571C64.808 6.40594 65.2183 7.39635 65.2183 8.42905C65.2183 9.46175 64.808 10.4522 64.0778 11.1824C63.3476 11.9126 62.3572 12.3229 61.3245 12.3229H48.283L62.0935 24.3362H68.8045L59.5273 16.5486H61.6078ZM12.9392 24.3362H26.9197C30.055 24.2549 33.0346 22.9522 35.2234 20.7058C37.4122 18.4595 38.6372 15.4471 38.6372 12.3107C38.6372 9.17432 37.4122 6.16195 35.2234 3.9156C33.0346 1.66926 30.055 0.366589 26.9197 0.285234H12.9392C11.3338 0.243576 9.7362 0.523814 8.24077 1.10942C6.74535 1.69503 5.38232 2.57415 4.23207 3.69494C3.08182 4.81573 2.16764 6.1555 1.54344 7.63524C0.919239 9.11497 0.597656 10.7047 0.597656 12.3107C0.597656 13.9167 0.919239 15.5065 1.54344 16.9862C2.16764 18.4659 3.08182 19.8057 4.23207 20.9265C5.38232 22.0473 6.74535 22.9264 8.24077 23.512C9.7362 24.0976 11.3338 24.3779 12.9392 24.3362V24.3362ZM26.604 20.1024H13.2468C11.226 20.0372 9.30964 19.1886 7.90315 17.736C6.49666 16.2834 5.71027 14.3408 5.71027 12.3188C5.71027 10.2969 6.49666 8.35421 7.90315 6.90162C9.30964 5.44903 11.226 4.60042 13.2468 4.53524H26.604C27.6473 4.50159 28.6866 4.67801 29.6604 5.05403C30.6341 5.43005 31.5223 5.99798 32.2722 6.72408C33.0221 7.45017 33.6184 8.31961 34.0256 9.28072C34.4328 10.2418 34.6426 11.275 34.6426 12.3188C34.6426 13.3626 34.4328 14.3958 34.0256 15.3569C33.6184 16.318 33.0221 17.1875 32.2722 17.9136C31.5223 18.6396 30.6341 19.2076 29.6604 19.5836C28.6866 19.9596 27.6473 20.136 26.604 20.1024V20.1024ZM114.429 24.3362H128.701L131.405 20.1024H114.745C113.702 20.136 112.662 19.9596 111.689 19.5836C110.715 19.2076 109.827 18.6396 109.077 17.9136C108.327 17.1875 107.731 16.318 107.323 15.3569C106.916 14.3958 106.706 13.3626 106.706 12.3188C106.706 11.275 106.916 10.2418 107.323 9.28072C107.731 8.31961 108.327 7.45017 109.077 6.72408C109.827 5.99798 110.715 5.43005 111.689 5.05403C112.662 4.67801 113.702 4.50159 114.745 4.53524H128.304L131.041 0.285234H114.429C112.824 0.243576 111.226 0.523814 109.731 1.10942C108.235 1.69503 106.872 2.57415 105.722 3.69494C104.572 4.81573 103.658 6.1555 103.033 7.63524C102.409 9.11497 102.088 10.7047 102.088 12.3107C102.088 13.9167 102.409 15.5065 103.033 16.9862C103.658 18.4659 104.572 19.8057 105.722 20.9265C106.872 22.0473 108.235 22.9264 109.731 23.512C111.226 24.0976 112.824 24.3779 114.429 24.3362V24.3362ZM170.991 20.1024C169.295 20.103 167.645 19.5499 166.292 18.5271C164.939 17.5043 163.956 16.0677 163.494 14.4357H183.263L185.983 10.1938H163.494C163.955 8.56112 164.937 7.12379 166.29 6.10078C167.644 5.07777 169.294 4.52516 170.991 4.52714H184.558L187.27 0.277139H170.675C167.54 0.358494 164.56 1.66116 162.371 3.90751C160.182 6.15385 158.957 9.16623 158.957 12.3026C158.957 15.439 160.182 18.4514 162.371 20.6977C164.56 22.9441 167.54 24.2468 170.675 24.3281H184.947L187.659 20.0943H170.983" fill="#6B7280"/>
</g>
<defs>
<clipPath id="clip0_5_3693">
<rect width="187" height="24.2857" fill="white" transform="translate(0.910156 0.0507812)"/>
</clipPath>
</defs>
</svg>
