<svg width="154" height="48" viewBox="0 0 154 48" fill="none" xmlns="http://www.w3.org/2000/svg">
<g clip-path="url(#clip0_107_370746)">
<path d="M131.531 22.9363V34.9883H135.383V26.9537H149.472V34.9883H153.324V22.9363H131.531ZM134.943 19.0291H149.802C151.893 18.6438 153.379 16.7727 153.819 15.0117H130.926C131.366 16.7727 132.907 18.5888 134.943 19.0291ZM119.809 34.9883C121.735 34.1629 122.781 32.732 123.221 31.0811H105.886V15.0668H101.979V34.9883H119.809ZM73.0872 18.974H86.8452C88.9364 18.3687 90.6424 16.7727 91.0827 15.0668H69.29V26.8436H87.1204V30.971H73.1423C70.941 31.5764 69.0699 33.0622 68.1343 34.9883H90.9726V22.9363H73.1423L73.0872 18.974ZM39.1875 19.0291H54.0462C56.1374 18.6438 57.6783 16.7727 58.0635 15.0117H35.1151C35.5554 16.7727 37.0963 18.5888 39.1875 19.0291ZM39.1875 26.8986H54.0462C56.1374 26.5134 57.6783 24.6423 58.0635 22.8813H35.1151C35.5554 24.6423 37.0963 26.4584 39.1875 26.8986ZM39.1875 34.9883H54.0462C56.1374 34.6031 57.6783 32.732 58.0635 30.971H35.1151C35.5554 32.732 37.0963 34.6031 39.1875 34.9883Z" fill="#5E5E5E"/>
<path d="M0.5 15.0668C0.940256 16.8278 2.48115 18.5888 4.51734 19.0291H10.791L11.1212 19.1391V34.9333H15.0285V19.1391L15.3586 19.0291H21.6323C23.7235 18.4787 25.2094 16.8278 25.6496 15.0668V15.0117L0.5 15.0668Z" fill="#5E5E5E"/>
</g>
<defs>
<clipPath id="clip0_107_370746">
<rect width="153" height="48" fill="white" transform="translate(0.5)"/>
</clipPath>
</defs>
</svg>
