<svg width="783" height="554" viewBox="0 0 783 554" fill="none" xmlns="http://www.w3.org/2000/svg">
<path d="M156.622 542.948H222.329V547C222.329 548.105 221.434 549 220.329 549H158.622C157.517 549 156.622 548.105 156.622 547V542.948Z" fill="#1C64F2"/>
<path d="M156.622 542.948L162.674 499.72L187.746 489.777C185.297 501.017 189.043 524.36 201.147 527.818C217.451 532.476 222.185 539.346 222.329 542.948H156.622Z" fill="#E1EFFE"/>
<path d="M156.622 542.948L162.674 499.72L187.746 489.777C185.297 501.017 189.043 524.36 201.147 527.818C217.451 532.476 222.185 539.346 222.329 542.948H156.622Z" fill="url(#paint0_linear_182_7955)"/>
<mask id="mask0_182_7955" style="mask-type:alpha" maskUnits="userSpaceOnUse" x="156" y="489" width="67" height="54">
<path d="M156.622 542.948L162.674 499.72L187.746 489.777C185.297 501.017 189.043 524.36 201.147 527.818C217.451 532.476 222.185 539.346 222.329 542.948H156.622Z" fill="#E1EFFE"/>
<path d="M156.622 542.948L162.674 499.72L187.746 489.777C185.297 501.017 189.043 524.36 201.147 527.818C217.451 532.476 222.185 539.346 222.329 542.948H156.622Z" fill="url(#paint1_linear_182_7955)"/>
</mask>
<g mask="url(#mask0_182_7955)">
<path d="M205.037 525.657H223.193V542.948H201.579L205.037 525.657Z" fill="#A4CAFE"/>
</g>
<path fill-rule="evenodd" clip-rule="evenodd" d="M171.752 527.98C174.228 527.98 176.236 525.972 176.236 523.495C176.236 521.019 174.228 519.011 171.752 519.011C169.275 519.011 167.268 521.019 167.268 523.495C167.268 525.972 169.275 527.98 171.752 527.98ZM171.752 529.98C175.333 529.98 178.236 527.077 178.236 523.495C178.236 519.914 175.333 517.011 171.752 517.011C168.171 517.011 165.268 519.914 165.268 523.495C165.268 527.077 168.171 529.98 171.752 529.98Z" fill="#A4CAFE"/>
<path d="M235.298 542.948H301.005V547C301.005 548.105 300.11 549 299.005 549H237.298C236.193 549 235.298 548.105 235.298 547V542.948Z" fill="#1C64F2"/>
<path d="M230.11 488.913L235.298 542.948H301.005C299.276 534.735 294.953 535.167 274.636 526.089C258.382 518.827 254.318 498.279 254.318 488.913H230.11Z" fill="#E1EFFE"/>
<path d="M230.11 488.913L235.298 542.948H301.005C299.276 534.735 294.953 535.167 274.636 526.089C258.382 518.827 254.318 498.279 254.318 488.913H230.11Z" fill="url(#paint2_linear_182_7955)"/>
<mask id="mask1_182_7955" style="mask-type:alpha" maskUnits="userSpaceOnUse" x="230" y="488" width="72" height="55">
<path d="M230.11 488.913L235.298 542.948H301.005C299.276 534.735 294.953 535.167 274.636 526.089C258.382 518.827 254.318 498.279 254.318 488.913H230.11Z" fill="#E1EFFE"/>
<path d="M230.11 488.913L235.298 542.948H301.005C299.276 534.735 294.953 535.167 274.636 526.089C258.382 518.827 254.318 498.279 254.318 488.913H230.11Z" fill="url(#paint3_linear_182_7955)"/>
</mask>
<g mask="url(#mask1_182_7955)">
<path d="M283.713 525.657H301.869V542.948H280.255L283.713 525.657Z" fill="#A4CAFE"/>
</g>
<path fill-rule="evenodd" clip-rule="evenodd" d="M246.97 527.98C249.446 527.98 251.454 525.972 251.454 523.495C251.454 521.019 249.446 519.011 246.97 519.011C244.493 519.011 242.485 521.019 242.485 523.495C242.485 525.972 244.493 527.98 246.97 527.98ZM246.97 529.98C250.551 529.98 253.454 527.077 253.454 523.495C253.454 519.914 250.551 517.011 246.97 517.011C243.388 517.011 240.485 519.914 240.485 523.495C240.485 527.077 243.388 529.98 246.97 529.98Z" fill="#A4CAFE"/>
<path d="M153.362 500.997L181.262 193.663L189.043 190.205L218.439 319.89L195.318 501.431C195.191 502.429 194.341 503.178 193.334 503.178H155.354C154.178 503.178 153.256 502.168 153.362 500.997Z" fill="#1C64F2"/>
<path d="M153.362 500.997L181.262 193.663L189.043 190.205L218.439 319.89L195.318 501.431C195.191 502.429 194.341 503.178 193.334 503.178H155.354C154.178 503.178 153.256 502.168 153.362 500.997Z" fill="url(#paint4_linear_182_7955)"/>
<path fill-rule="evenodd" clip-rule="evenodd" d="M197.257 488.616L154.028 488.616L154.028 486.616L197.257 486.616L197.257 488.616Z" fill="#C3DDFD"/>
<path d="M221.235 501.007L181.262 197.986L221.464 180.262L236.594 227.813L264.896 500.539C265.018 501.719 264.093 502.746 262.906 502.746H223.218C222.214 502.746 221.366 502.002 221.235 501.007Z" fill="#1C64F2"/>
<path fill-rule="evenodd" clip-rule="evenodd" d="M263.829 488.616L218.871 488.616L218.871 486.616L263.829 486.616L263.829 488.616Z" fill="#C3DDFD"/>
<path d="M176.507 158.216H186.017L195.527 165.132V195.392H178.507C177.402 195.392 176.507 194.497 176.507 193.392V158.216Z" fill="url(#paint5_linear_182_7955)"/>
<path d="M178.236 195.392H196.392V199.715H180.236C179.132 199.715 178.236 198.819 178.236 197.715V195.392Z" fill="#E1EFFE"/>
<path d="M172.541 153.893H176.507V157.351V193.392C176.507 194.497 177.402 195.392 178.507 195.392H197.689L237.459 178.101C233.857 158.216 226.392 117.235 225.355 112.394C224.058 106.342 218.006 84.2952 195.527 88.1857C178.131 91.1967 171.738 130.591 170.557 151.812C170.494 152.948 171.403 153.893 172.541 153.893Z" fill="#F9FAFB"/>
<path d="M172.541 153.893H176.507V157.351V193.392C176.507 194.497 177.402 195.392 178.507 195.392H197.689L237.459 178.101C233.857 158.216 226.392 117.235 225.355 112.394C224.058 106.342 218.006 84.2952 195.527 88.1857C178.131 91.1967 171.738 130.591 170.557 151.812C170.494 152.948 171.403 153.893 172.541 153.893Z" fill="url(#paint6_linear_182_7955)"/>
<path d="M201.58 153.893H195.528L192.069 162.539L201.58 171.184V153.893Z" fill="url(#paint7_linear_182_7955)"/>
<path fill-rule="evenodd" clip-rule="evenodd" d="M201.715 122.769V153.893H199.715V122.769H201.715Z" fill="#A4CAFE"/>
<path fill-rule="evenodd" clip-rule="evenodd" d="M146.414 242.252C157.11 234.789 171.675 232.756 186.017 232.756V242.756C172.195 242.756 160.231 244.805 152.137 250.453C144.526 255.764 139.444 264.915 140.74 281.652C140.997 284.973 141.304 288.636 141.636 292.593C143.747 317.763 146.857 354.851 144.489 391.942C141.765 434.617 131.726 478.882 103.053 504.968C58.8529 545.179 17.1125 554.011 0.712891 553.069L1.28657 543.086C14.5076 543.845 53.7115 536.337 96.3232 497.571C121.906 474.297 131.81 433.587 134.509 391.305C136.825 355.02 133.789 318.745 131.678 293.529C131.344 289.535 131.033 285.819 130.77 282.424C129.269 263.042 135.235 250.053 146.414 242.252Z" fill="url(#paint8_linear_182_7955)"/>
<path d="M186.772 251.63C184.466 252.246 180.747 245.828 178.467 237.294C176.186 228.76 176.208 221.342 178.514 220.725L200.648 214.811L208.907 245.715L186.772 251.63Z" fill="#E1EFFE"/>
<path d="M186.772 251.63C184.466 252.246 180.747 245.828 178.467 237.294C176.186 228.76 176.208 221.342 178.514 220.725L200.648 214.811L208.907 245.715L186.772 251.63Z" fill="url(#paint9_linear_182_7955)"/>
<path d="M231.883 286.486C223.58 288.705 209.804 264.14 201.113 231.618C192.423 199.096 192.109 170.933 200.412 168.714L232.152 160.233L263.623 278.005L231.883 286.486Z" fill="#E1EFFE"/>
<path d="M231.883 286.486C223.58 288.705 209.804 264.14 201.113 231.618C192.423 199.096 192.109 170.933 200.412 168.714L232.152 160.233L263.623 278.005L231.883 286.486Z" fill="url(#paint10_linear_182_7955)"/>
<path d="M231.883 286.486C223.58 288.705 209.804 264.14 201.113 231.618C192.423 199.096 192.109 170.933 200.412 168.714L232.152 160.233L263.623 278.005L231.883 286.486Z" fill="url(#paint11_linear_182_7955)"/>
<path d="M268.044 284.502C258.818 286.967 243.345 259.049 233.483 222.145C223.622 185.241 223.107 153.326 232.333 150.86L239.015 149.075L274.726 282.716L268.044 284.502Z" fill="#E1EFFE"/>
<path d="M268.044 284.502C258.818 286.967 243.345 259.049 233.483 222.145C223.622 185.241 223.107 153.326 232.333 150.86L239.015 149.075L274.726 282.716L268.044 284.502Z" fill="url(#paint12_linear_182_7955)"/>
<path d="M240.165 220.36C250.027 257.264 265.5 285.182 274.726 282.716C283.952 280.251 283.437 248.336 273.576 211.432C263.714 174.528 248.241 146.609 239.015 149.075C229.789 151.54 230.304 183.455 240.165 220.36Z" fill="#E1EFFE"/>
<path d="M277.34 275.753C269.037 277.972 255.061 252.659 246.124 219.215C237.187 185.77 236.673 156.859 244.977 154.641L290.916 142.365L323.28 263.477L277.34 275.753Z" fill="#E1EFFE"/>
<path d="M277.34 275.753C269.037 277.972 255.061 252.659 246.124 219.215C237.187 185.77 236.673 156.859 244.977 154.641L290.916 142.365L323.28 263.477L277.34 275.753Z" fill="url(#paint13_linear_182_7955)"/>
<path d="M277.34 275.753C269.037 277.972 255.061 252.659 246.124 219.215C237.187 185.77 236.673 156.859 244.977 154.641L290.916 142.365L323.28 263.477L277.34 275.753Z" fill="url(#paint14_linear_182_7955)"/>
<path d="M295.854 214.427L268.708 221.681C264.325 222.852 261.722 227.354 262.893 231.737C264.064 236.119 268.566 238.722 272.948 237.551L300.094 230.297L295.854 214.427Z" fill="url(#paint15_linear_182_7955)"/>
<path d="M292.063 206.939C301 240.383 314.976 265.697 323.279 263.478C331.583 261.259 331.069 232.348 322.132 198.904C313.195 165.46 299.219 140.146 290.916 142.365C282.612 144.584 283.126 173.495 292.063 206.939Z" fill="#E1EFFE"/>
<path d="M292.063 206.939C301 240.383 314.976 265.697 323.279 263.478C331.583 261.259 331.069 232.348 322.132 198.904C313.195 165.46 299.219 140.146 290.916 142.365C282.612 144.584 283.126 173.495 292.063 206.939Z" fill="url(#paint16_linear_182_7955)"/>
<path d="M311.581 211.91C312.993 217.217 312.455 221.966 310.378 222.519C308.302 223.072 305.474 219.218 304.062 213.911C302.65 208.605 303.188 203.855 305.265 203.303C307.341 202.75 310.169 206.604 311.581 211.91Z" fill="#A4CAFE"/>
<path d="M318.103 199.439C319.515 204.745 318.976 209.495 316.9 210.047C314.823 210.6 311.995 206.746 310.583 201.44C309.171 196.133 309.71 191.384 311.786 190.831C313.862 190.278 316.691 194.132 318.103 199.439Z" fill="#A4CAFE"/>
<path d="M221.464 30.6922C228.381 35.5337 221.176 41.067 216.709 43.2284L198.554 67.0038C193.654 65.707 183.078 61.1248 179.965 53.1708C176.075 43.2282 185.585 47.9834 185.153 36.744C184.72 25.5046 194.231 26.8016 197.689 25.937C201.147 25.0725 202.876 19.8851 209.361 20.7496C215.845 21.6142 212.819 24.6402 221.464 30.6922Z" fill="#374151"/>
<path d="M194.23 90.7797L197.256 58.3584L210.225 62.6812L209.793 90.7797H194.23Z" fill="#FDBA8C"/>
<path d="M194.23 90.7797L197.256 58.3584L210.225 62.6812L209.793 90.7797H194.23Z" fill="url(#paint17_linear_182_7955)"/>
<path d="M214.116 70.4621C222.07 68.3871 218.871 47.9834 216.278 38.0408C210.226 37.1763 205.47 53.6031 202.444 49.7125C199.418 45.8219 193.799 46.2542 193.367 51.0093C192.934 55.7645 204.174 73.0558 214.116 70.4621Z" fill="#FDBA8C"/>
<path d="M213.134 51.3016C213.039 51.8678 213.42 52.4045 213.986 52.5003C214.553 52.596 215.089 52.2146 215.185 51.6483C215.281 51.0821 214.899 50.5454 214.333 50.4497C213.767 50.3539 213.23 50.7353 213.134 51.3016Z" fill="#111928"/>
<path fill-rule="evenodd" clip-rule="evenodd" d="M214.956 47.6133C215.679 47.7449 216.216 48.1504 216.7 48.6756C216.887 48.8787 217.203 48.8917 217.406 48.7047C217.609 48.5176 217.622 48.2013 217.435 47.9982C216.877 47.3915 216.157 46.8155 215.135 46.6295C214.118 46.4445 212.886 46.6608 211.327 47.4523C211.081 47.5774 210.983 47.8783 211.108 48.1246C211.233 48.3708 211.534 48.469 211.78 48.344C213.223 47.6111 214.227 47.4808 214.956 47.6133Z" fill="#111928"/>
<path fill-rule="evenodd" clip-rule="evenodd" d="M218.253 50.7627C217.98 50.8036 217.792 51.0581 217.832 51.3312L218.85 58.1345C218.869 58.256 218.77 58.3634 218.648 58.356L215.706 58.1781C215.43 58.1615 215.193 58.3714 215.177 58.647C215.16 58.9227 215.37 59.1596 215.646 59.1763L218.587 59.3542C219.345 59.4 219.952 58.7368 219.839 57.9866L218.821 51.1832C218.781 50.9101 218.526 50.7218 218.253 50.7627Z" fill="#111928"/>
<path fill-rule="evenodd" clip-rule="evenodd" d="M214.66 62.2142C214.04 62.0671 213.4 61.8045 212.426 61.3776C212.173 61.2667 211.878 61.3819 211.767 61.6348C211.656 61.8877 211.771 62.1826 212.024 62.2934C212.99 62.7167 213.709 63.0163 214.429 63.1872C215.162 63.3613 215.875 63.3977 216.838 63.3323C217.113 63.3136 217.321 63.0751 217.303 62.7995C217.284 62.524 217.045 62.3159 216.77 62.3346C215.872 62.3956 215.266 62.3581 214.66 62.2142Z" fill="#111928"/>
<path fill-rule="evenodd" clip-rule="evenodd" d="M196.65 53.3502C196.365 52.6729 196.411 52.0017 196.585 51.3094C196.653 51.0416 196.491 50.7698 196.223 50.7021C195.955 50.6345 195.684 50.7967 195.616 51.0644C195.414 51.864 195.325 52.7811 195.729 53.7387C196.131 54.6914 196.986 55.6038 198.501 56.4754C198.741 56.613 199.046 56.5306 199.184 56.2912C199.322 56.0518 199.239 55.7462 199 55.6085C197.597 54.8015 196.938 54.0325 196.65 53.3502Z" fill="#111928"/>
<path d="M175.643 153.893H195.528V160.81C198.121 164.412 204.606 173.778 209.793 182.424C216.277 193.231 235.73 226.517 247.834 234.73C265.125 246.463 263.828 261.099 256.912 258.938C249.995 256.777 217.142 221.762 196.824 197.554C180.571 178.187 175.931 160.377 175.643 153.893Z" fill="#FDBA8C"/>
<path d="M175.643 153.893H195.528V160.81C198.121 164.412 204.606 173.778 209.793 182.424C216.277 193.231 235.73 226.517 247.834 234.73C265.125 246.463 263.828 261.099 256.912 258.938C249.995 256.777 217.142 221.762 196.824 197.554C180.571 178.187 175.931 160.377 175.643 153.893Z" fill="url(#paint18_linear_182_7955)"/>
<path d="M551.265 549L556.052 505.771H536.032C533.856 515.329 527.5 529 512 535.5C497 539.5 494.397 546.206 494.687 549H551.265Z" fill="#E1EFFE"/>
<path d="M551.265 549L556.052 505.771H536.032C533.856 515.329 527.5 529 512 535.5C497 539.5 494.397 546.206 494.687 549H551.265Z" fill="url(#paint19_linear_182_7955)"/>
<path d="M550.291 549H495.788C494.692 549 493.803 548.111 493.803 547.014C493.803 545.983 494.593 545.123 495.622 545.036L528.434 542.275L549.021 537.621C552.624 536.806 556.052 539.545 556.052 543.239C556.052 546.421 553.473 549 550.291 549Z" fill="#374151"/>
<path fill-rule="evenodd" clip-rule="evenodd" d="M554.329 521.334H529.322C532.928 516.039 534.974 510.419 536.033 505.771H556.052L554.329 521.334Z" fill="#A4CAFE"/>
<path d="M628.676 549H570.75C570.75 538.526 591.775 536.344 595.637 526.743C598.726 519.063 596.066 507.833 594.349 503.178H615.374L628.676 549Z" fill="#E1EFFE"/>
<path d="M628.676 549H570.75C570.75 538.526 591.775 536.344 595.637 526.743C598.726 519.063 596.066 507.833 594.349 503.178H615.374L628.676 549Z" fill="url(#paint20_linear_182_7955)"/>
<path d="M626.373 549H571.87C570.774 549 569.885 548.111 569.885 547.014C569.885 545.983 570.675 545.123 571.704 545.036L604.516 542.275L625.103 537.621C628.706 536.806 632.134 539.545 632.134 543.239C632.134 546.421 629.555 549 626.373 549Z" fill="#374151"/>
<path fill-rule="evenodd" clip-rule="evenodd" d="M620.645 521.334H596.905C597.516 515.436 596.174 508.926 594.932 504.907H615.877L620.645 521.334Z" fill="#A4CAFE"/>
<path d="M622.795 508.434H577.972C577.036 508.434 576.224 507.784 576.02 506.87L565.562 460.019L582.854 288.834L624.759 506.056C624.997 507.289 624.051 508.434 622.795 508.434Z" fill="#1C64F2"/>
<path d="M622.795 508.434H577.972C577.036 508.434 576.224 507.784 576.02 506.87L565.562 460.019L582.854 288.834L624.759 506.056C624.997 507.289 624.051 508.434 622.795 508.434Z" fill="url(#paint21_linear_182_7955)"/>
<path fill-rule="evenodd" clip-rule="evenodd" d="M623.489 497.261L573.344 497.261L573.344 495.261L623.489 495.261L623.489 497.261Z" fill="#C3DDFD"/>
<path d="M510.019 507.099L533.573 272.84C541.787 217.652 562.969 120.33 581.989 172.55C600.895 224.457 577.233 416.484 562.797 507.659C562.643 508.63 561.813 509.299 560.83 509.299H512.009C510.825 509.299 509.901 508.277 510.019 507.099Z" fill="#1C64F2"/>
<path fill-rule="evenodd" clip-rule="evenodd" d="M577.369 221.761C577.369 268.864 561.22 424.499 553.155 496.373L551.167 496.15C559.24 424.217 575.369 268.723 575.369 221.761H577.369Z" fill="#C3DDFD"/>
<path fill-rule="evenodd" clip-rule="evenodd" d="M564.698 497.261L511.095 497.261L511.095 495.261L564.698 495.261L564.698 497.261Z" fill="#C3DDFD"/>
<path d="M530.547 148.801C534.006 135.313 541.787 107.157 545.245 94.7651L546.542 157.879C539.769 160.472 527.089 162.288 530.547 148.801Z" fill="#F9FAFB"/>
<path d="M530.547 148.801C534.006 135.313 541.787 107.157 545.245 94.7651L546.542 157.879C539.769 160.472 527.089 162.288 530.547 148.801Z" fill="url(#paint22_linear_182_7955)"/>
<path fill-rule="evenodd" clip-rule="evenodd" d="M546.178 140.139L546.333 147.727C545.449 148.519 544.281 149 543 149C540.239 149 538 146.761 538 144C538 141.239 540.239 139 543 139C544.207 139 545.314 139.427 546.178 140.139ZM545.89 126.134L546.007 131.827C545.692 131.939 545.353 132 545 132C543.343 132 542 130.657 542 129C542 127.343 543.343 126 545 126C545.31 126 545.609 126.047 545.89 126.134ZM545.552 109.699L545.727 118.192C544.942 118.703 544.006 119 543 119C541.405 119 539.985 118.253 539.069 117.091C539.798 114.436 540.516 111.827 541.205 109.332C541.762 109.118 542.367 109 543 109C543.932 109 544.805 109.255 545.552 109.699ZM534.674 133.226C535.247 131.102 535.84 128.914 536.442 126.702C536.799 127.39 537 128.172 537 129C537 130.778 536.072 132.339 534.674 133.226ZM531.062 146.806C531.441 145.349 531.858 143.764 532.304 142.079C532.739 142.599 533 143.269 533 144C533 145.283 532.195 146.378 531.062 146.806Z" fill="#A4CAFE" fill-opacity="0.5"/>
<path d="M591.931 179.493H578.53L572.479 156.582L588.473 151.395L591.931 179.493Z" fill="#F9FAFB"/>
<path d="M591.931 179.493H578.53L572.479 156.582L588.473 151.395L591.931 179.493Z" fill="url(#paint23_linear_182_7955)"/>
<path fill-rule="evenodd" clip-rule="evenodd" d="M587.803 179.493H591.931L590.77 170.059C590.519 170.02 590.262 170 590 170C587.239 170 585 172.239 585 175C585 176.973 586.143 178.68 587.803 179.493ZM589.825 162.381L589.193 157.247C588.828 157.088 588.424 157 588 157C586.343 157 585 158.343 585 160C585 161.657 586.343 163 588 163C588.687 163 589.32 162.769 589.825 162.381Z" fill="#A4CAFE" fill-opacity="0.5"/>
<path d="M550 81.3645C541.7 95.5434 539.625 135.043 539.625 154.351H563.401V157.014H591.885C593.068 157.014 593.993 156.005 593.872 154.829C592.288 139.514 588.638 110.473 585.015 101.25C580.26 89.1456 560.375 63.6408 550 81.3645Z" fill="#F9FAFB"/>
<path d="M550 81.3645C541.7 95.5434 539.625 135.043 539.625 154.351H563.401V157.014H591.885C593.068 157.014 593.993 156.005 593.872 154.829C592.288 139.514 588.638 110.473 585.015 101.25C580.26 89.1456 560.375 63.6408 550 81.3645Z" fill="url(#paint24_linear_182_7955)"/>
<path fill-rule="evenodd" clip-rule="evenodd" d="M552.841 77.7433C551.835 78.6605 550.883 79.8559 550 81.3645C549.539 82.1524 549.097 83.0185 548.673 83.9551C551.116 83.6262 553 81.5331 553 79C553 78.566 552.945 78.1449 552.841 77.7433ZM544.725 96.7164C545.167 94.7114 545.645 92.7987 546.16 91.0042C547.742 91.0871 549 92.3967 549 94C549 95.6569 547.657 97 546 97C545.544 97 545.112 96.8983 544.725 96.7164ZM548.98 154.351H543.02C543.007 154.236 543 154.119 543 154C543 152.343 544.343 151 546 151C547.657 151 549 152.343 549 154C549 154.119 548.993 154.236 548.98 154.351ZM563.401 156.375V154.351H554.012C554.004 154.235 554 154.118 554 154C554 151.239 556.239 149 559 149C561.761 149 564 151.239 564 154C564 154.86 563.783 155.669 563.401 156.375ZM588.99 157.014H581.01C580.376 156.176 580 155.132 580 154C580 151.239 582.239 149 585 149C587.761 149 590 151.239 590 154C590 155.132 589.624 156.176 588.99 157.014ZM589.646 122.15C589.762 122.869 589.876 123.596 589.99 124.326C589.821 126.936 587.652 129 585 129C582.239 129 580 126.761 580 124C580 121.239 582.239 119 585 119C587.108 119 588.911 120.304 589.646 122.15ZM586.493 106.043C586.938 107.778 587.38 109.748 587.813 111.889C587.554 111.961 587.282 112 587 112C585.343 112 584 110.657 584 109C584 107.516 585.078 106.283 586.493 106.043ZM580.262 92.3996C581.748 94.6607 583.014 96.8879 583.981 98.896C581.708 98.4253 580 96.4121 580 94C580 93.4403 580.092 92.9021 580.262 92.3996ZM573.693 83.9907C572.201 82.3952 570.639 80.9221 569.043 79.6589C569.352 82.0093 571.294 83.8453 573.693 83.9907ZM564 79C564 80.6569 562.657 82 561 82C559.343 82 558 80.6569 558 79C558 77.3431 559.343 76 561 76C562.657 76 564 77.3431 564 79ZM548 114C550.761 114 553 111.761 553 109C553 106.239 550.761 104 548 104C545.239 104 543 106.239 543 109C543 111.761 545.239 114 548 114ZM564 109C564 110.657 562.657 112 561 112C559.343 112 558 110.657 558 109C558 107.343 559.343 106 561 106C562.657 106 564 107.343 564 109ZM574 114C576.761 114 579 111.761 579 109C579 106.239 576.761 104 574 104C571.239 104 569 106.239 569 109C569 111.761 571.239 114 574 114ZM569 124C569 125.657 570.343 127 572 127C573.657 127 575 125.657 575 124C575 122.343 573.657 121 572 121C570.343 121 569 122.343 569 124ZM559 129C556.239 129 554 126.761 554 124C554 121.239 556.239 119 559 119C561.761 119 564 121.239 564 124C564 126.761 561.761 129 559 129ZM543 124C543 125.657 544.343 127 546 127C547.657 127 549 125.657 549 124C549 122.343 547.657 121 546 121C544.343 121 543 122.343 543 124ZM548 144C550.761 144 553 141.761 553 139C553 136.239 550.761 134 548 134C545.239 134 543 136.239 543 139C543 141.761 545.239 144 548 144ZM564 139C564 140.657 562.657 142 561 142C559.343 142 558 140.657 558 139C558 137.343 559.343 136 561 136C562.657 136 564 137.343 564 139ZM574 144C576.761 144 579 141.761 579 139C579 136.239 576.761 134 574 134C571.239 134 569 136.239 569 139C569 141.761 571.239 144 574 144ZM590 139C590 140.657 588.657 142 587 142C585.343 142 584 140.657 584 139C584 137.343 585.343 136 587 136C588.657 136 590 137.343 590 139ZM569 154C569 155.657 570.343 157 572 157C573.657 157 575 155.657 575 154C575 152.343 573.657 151 572 151C570.343 151 569 152.343 569 154ZM569 94C569 95.6569 570.343 97 572 97C573.657 97 575 95.6569 575 94C575 92.3431 573.657 91 572 91C570.343 91 569 92.3431 569 94ZM559 99C556.239 99 554 96.7614 554 94C554 91.2386 556.239 89 559 89C561.761 89 564 91.2386 564 94C564 96.7614 561.761 99 559 99Z" fill="#A4CAFE" fill-opacity="0.3"/>
<path fill-rule="evenodd" clip-rule="evenodd" d="M564.833 125.82V156.945H562.833V125.82H564.833Z" fill="#A4CAFE"/>
<path d="M563.4 154.351H543.083V131.008L563.4 125.82V154.351Z" fill="url(#paint25_linear_182_7955)"/>
<path fill-rule="evenodd" clip-rule="evenodd" d="M637.624 221.007C626.924 213.044 612.33 210.871 597.983 210.871V220.871C611.735 220.871 623.609 223.042 631.654 229.03C639.286 234.71 644.45 244.599 643.141 262.628C642.884 266.167 642.577 270.068 642.246 274.281C640.141 301.066 637.042 340.479 639.401 379.896C642.115 425.238 652.105 472.18 680.629 499.856C724.699 542.618 766.389 552.075 782.874 551.064L782.262 541.083C769.196 541.884 730.13 533.954 687.592 492.679C661.985 467.833 652.08 424.355 649.384 379.298C647.07 340.637 650.103 301.987 652.209 275.158C652.543 270.911 652.853 266.96 653.115 263.352C654.596 242.949 648.737 229.278 637.624 221.007Z" fill="url(#paint26_linear_182_7955)"/>
<path d="M597.01 230.935C599.397 230.935 601.332 223.774 601.332 214.94C601.332 206.107 599.397 198.946 597.01 198.946H574.099V230.935H597.01Z" fill="#E1EFFE"/>
<path d="M597.01 230.935C599.397 230.935 601.332 223.774 601.332 214.94C601.332 206.107 599.397 198.946 597.01 198.946H574.099V230.935H597.01Z" fill="url(#paint27_linear_182_7955)"/>
<path d="M562.427 276.255C571.022 276.255 577.989 248.966 577.989 215.303C577.989 181.64 571.022 154.351 562.427 154.351H529.573V276.255H562.427Z" fill="#E1EFFE"/>
<path d="M562.427 276.255C571.022 276.255 577.989 248.966 577.989 215.303C577.989 181.64 571.022 154.351 562.427 154.351H529.573V276.255H562.427Z" fill="url(#paint28_linear_182_7955)"/>
<path d="M562.427 276.255C571.022 276.255 577.989 248.966 577.989 215.303C577.989 181.64 571.022 154.351 562.427 154.351H529.573V276.255H562.427Z" fill="url(#paint29_linear_182_7955)"/>
<path d="M526.979 283.673C536.529 283.673 544.27 252.707 544.27 214.508C544.27 176.309 536.529 145.342 526.979 145.342H520.062V283.673H526.979Z" fill="#E1EFFE"/>
<path d="M526.979 283.673C536.529 283.673 544.27 252.707 544.27 214.508C544.27 176.309 536.529 145.342 526.979 145.342H520.062V283.673H526.979Z" fill="url(#paint30_linear_182_7955)"/>
<path d="M537.354 214.508C537.354 252.707 529.613 283.673 520.063 283.673C510.513 283.673 502.771 252.707 502.771 214.508C502.771 176.309 510.513 145.342 520.063 145.342C529.613 145.342 537.354 176.309 537.354 214.508Z" fill="#E1EFFE"/>
<path d="M515.74 277.621C524.334 277.621 531.302 249.558 531.302 214.94C531.302 180.322 524.334 152.259 515.74 152.259H468.188V277.621H515.74Z" fill="#E1EFFE"/>
<path d="M515.74 277.621C524.334 277.621 531.302 249.558 531.302 214.94C531.302 180.322 524.334 152.259 515.74 152.259H468.188V277.621H515.74Z" fill="url(#paint31_linear_182_7955)"/>
<path d="M515.74 277.621C524.334 277.621 531.302 249.558 531.302 214.94C531.302 180.322 524.334 152.259 515.74 152.259H468.188V277.621H515.74Z" fill="url(#paint32_linear_182_7955)"/>
<path d="M482.021 223.153H510.12C514.656 223.153 518.333 226.831 518.333 231.367C518.333 235.903 514.656 239.58 510.12 239.58H482.021V223.153Z" fill="url(#paint33_linear_182_7955)"/>
<path d="M483.751 214.94C483.751 249.558 476.784 277.621 468.189 277.621C459.594 277.621 452.627 249.558 452.627 214.94C452.627 180.322 459.594 152.259 468.189 152.259C476.784 152.259 483.751 180.322 483.751 214.94Z" fill="#E1EFFE"/>
<path d="M483.751 214.94C483.751 249.558 476.784 277.621 468.189 277.621C459.594 277.621 452.627 249.558 452.627 214.94C452.627 180.322 459.594 152.259 468.189 152.259C476.784 152.259 483.751 180.322 483.751 214.94Z" fill="url(#paint34_linear_182_7955)"/>
<path d="M406.805 214.075C406.805 208.584 411.256 204.133 416.747 204.133H463.002C465.759 210.474 465.759 217.676 463.002 224.018H416.747C411.256 224.018 406.805 219.566 406.805 214.075Z" fill="#E1EFFE"/>
<path d="M406.805 214.075C406.805 208.584 411.256 204.133 416.747 204.133H463.002C465.759 210.474 465.759 217.676 463.002 224.018H416.747C411.256 224.018 406.805 219.566 406.805 214.075Z" fill="#1C64F2" fill-opacity="0.2"/>
<path d="M416.314 224.45C416.314 218.959 420.766 214.508 426.257 214.508H472.511C475.269 220.849 475.269 228.051 472.511 234.393H426.257C420.766 234.393 416.314 229.941 416.314 224.45Z" fill="#E1EFFE"/>
<path d="M416.314 224.45C416.314 218.959 420.766 214.508 426.257 214.508H472.511C475.269 220.849 475.269 228.051 472.511 234.393H426.257C420.766 234.393 416.314 229.941 416.314 224.45Z" fill="#1C64F2" fill-opacity="0.1"/>
<path d="M550 84.7967L545.245 67.5054L553.891 59.292L561.672 79.177C559.251 82.2895 552.882 84.2203 550 84.7967Z" fill="#FDBA8C"/>
<path d="M550 84.7967L545.245 67.5054L553.891 59.292L561.672 79.177C559.251 82.2895 552.882 84.2203 550 84.7967Z" fill="url(#paint35_linear_182_7955)"/>
<path d="M556.485 28.5999C542.306 25.4874 536.455 34.2196 535.303 38.9747C538.041 48.7732 545.937 67.5055 555.62 64.0472C567.724 59.7244 574.208 32.4904 556.485 28.5999Z" fill="#374151"/>
<path d="M580.381 25.3923C576.628 32.9319 568.305 36.4157 561.793 33.1735C555.28 29.9314 553.043 21.1911 556.797 13.6516C560.55 6.11202 568.872 2.62826 575.385 5.87037C581.897 9.11249 584.134 17.8528 580.381 25.3923Z" fill="#374151"/>
<path d="M557.349 50.6463C559.51 52.3754 553.026 70.5313 540.922 69.2345C536.738 68.7862 534.717 64.8789 533.945 59.8066C533.888 59.4288 533.544 59.8897 533.5 59.5C533.457 59.12 533.714 57.8896 533.683 57.5C533.188 51.2361 534.212 43.8442 535.302 38.9746C537.175 40.1274 541.268 43.5568 542.651 48.0526C544.381 53.6722 548.703 55.4014 550.865 53.24C553.192 50.912 555.187 48.9171 557.349 50.6463Z" fill="#FDBA8C"/>
<path d="M539.337 52.3016C539.433 52.8678 539.052 53.4045 538.485 53.5003C537.919 53.596 537.382 53.2146 537.287 52.6483C537.191 52.0821 537.572 51.5454 538.139 51.4497C538.705 51.3539 539.242 51.7353 539.337 52.3016Z" fill="#111928"/>
<path fill-rule="evenodd" clip-rule="evenodd" d="M537.516 48.6133C536.792 48.7449 536.256 49.1504 535.772 49.6756C535.585 49.8787 535.269 49.8917 535.065 49.7047C534.862 49.5176 534.849 49.2013 535.036 48.9982C535.595 48.3915 536.314 47.8155 537.337 47.6295C538.354 47.4445 539.586 47.6608 541.144 48.4523C541.39 48.5774 541.489 48.8783 541.364 49.1246C541.239 49.3708 540.938 49.469 540.691 49.344C539.248 48.6111 538.244 48.4808 537.516 48.6133Z" fill="#111928"/>
<path fill-rule="evenodd" clip-rule="evenodd" d="M534.219 51.7627C534.492 51.8036 534.68 52.0581 534.639 52.3312L533.621 59.1345C533.603 59.256 533.701 59.3634 533.824 59.356L536.766 59.1781C537.041 59.1615 537.278 59.3714 537.295 59.647C537.312 59.9227 537.102 60.1596 536.826 60.1763L533.884 60.3542C533.127 60.4 532.52 59.7368 532.632 58.9866L533.65 52.1832C533.691 51.9101 533.946 51.7218 534.219 51.7627Z" fill="#111928"/>
<path fill-rule="evenodd" clip-rule="evenodd" d="M537.812 63.2142C538.432 63.0671 539.072 62.8045 540.046 62.3776C540.299 62.2667 540.594 62.3819 540.705 62.6348C540.816 62.8877 540.701 63.1826 540.448 63.2934C539.482 63.7167 538.763 64.0163 538.043 64.1872C537.31 64.3613 536.596 64.3977 535.634 64.3323C535.359 64.3136 535.15 64.0751 535.169 63.7995C535.188 63.524 535.426 63.3159 535.702 63.3346C536.6 63.3956 537.206 63.3581 537.812 63.2142Z" fill="#111928"/>
<path fill-rule="evenodd" clip-rule="evenodd" d="M554.821 55.3502C555.107 54.6729 555.061 54.0017 554.886 53.3094C554.819 53.0416 554.981 52.7698 555.249 52.7021C555.516 52.6345 555.788 52.7967 555.856 53.0644C556.058 53.864 556.146 54.7811 555.743 55.7387C555.341 56.6914 554.486 57.6038 552.97 58.4754C552.731 58.613 552.425 58.5306 552.288 58.2912C552.15 58.0518 552.232 57.7462 552.472 57.6085C553.875 56.8015 554.533 56.0325 554.821 55.3502Z" fill="#111928"/>
<path d="M585.447 157.014H565.994C565.994 164.363 553.458 227.476 545.677 235.257C537.896 243.039 524.495 263.719 540.057 259.465C556.49 254.974 573.343 197.649 577.666 186.842C581.124 178.196 584.294 163.354 585.447 157.014Z" fill="#FDBA8C"/>
<path d="M585.447 157.014H565.994C565.994 164.363 553.458 227.476 545.677 235.257C537.896 243.039 524.495 263.719 540.057 259.465C556.49 254.974 573.343 197.649 577.666 186.842C581.124 178.196 584.294 163.354 585.447 157.014Z" fill="url(#paint36_linear_182_7955)"/>
<defs>
<linearGradient id="paint0_linear_182_7955" x1="204.674" y1="480.699" x2="204.674" y2="529.547" gradientUnits="userSpaceOnUse">
<stop stop-color="#A4CAFE"/>
<stop offset="1" stop-color="#A4CAFE" stop-opacity="0"/>
</linearGradient>
<linearGradient id="paint1_linear_182_7955" x1="204.674" y1="480.699" x2="204.674" y2="529.547" gradientUnits="userSpaceOnUse">
<stop stop-color="#A4CAFE"/>
<stop offset="1" stop-color="#A4CAFE" stop-opacity="0"/>
</linearGradient>
<linearGradient id="paint2_linear_182_7955" x1="281.956" y1="479.687" x2="281.956" y2="529.329" gradientUnits="userSpaceOnUse">
<stop stop-color="#A4CAFE"/>
<stop offset="1" stop-color="#A4CAFE" stop-opacity="0"/>
</linearGradient>
<linearGradient id="paint3_linear_182_7955" x1="281.956" y1="479.687" x2="281.956" y2="529.329" gradientUnits="userSpaceOnUse">
<stop stop-color="#A4CAFE"/>
<stop offset="1" stop-color="#A4CAFE" stop-opacity="0"/>
</linearGradient>
<linearGradient id="paint4_linear_182_7955" x1="18.3572" y1="138.971" x2="258.314" y2="446.621" gradientUnits="userSpaceOnUse">
<stop stop-color="#111928"/>
<stop offset="1" stop-color="#111928" stop-opacity="0"/>
</linearGradient>
<linearGradient id="paint5_linear_182_7955" x1="190.417" y1="138.698" x2="190.417" y2="180.522" gradientUnits="userSpaceOnUse">
<stop stop-color="#A4CAFE"/>
<stop offset="1" stop-color="#A4CAFE" stop-opacity="0"/>
</linearGradient>
<linearGradient id="paint6_linear_182_7955" x1="219.455" y1="-24.6403" x2="219.455" y2="141.789" gradientUnits="userSpaceOnUse">
<stop stop-color="#A4CAFE"/>
<stop offset="1" stop-color="#A4CAFE" stop-opacity="0"/>
</linearGradient>
<linearGradient id="paint7_linear_182_7955" x1="199.024" y1="144.815" x2="199.024" y2="164.268" gradientUnits="userSpaceOnUse">
<stop stop-color="#A4CAFE"/>
<stop offset="1" stop-color="#A4CAFE" stop-opacity="0"/>
</linearGradient>
<linearGradient id="paint8_linear_182_7955" x1="93.365" y1="232.756" x2="93.365" y2="526.674" gradientUnits="userSpaceOnUse">
<stop stop-color="#374151"/>
<stop offset="1" stop-color="#374151" stop-opacity="0"/>
</linearGradient>
<linearGradient id="paint9_linear_182_7955" x1="230.633" y1="293.532" x2="213.112" y2="227.964" gradientUnits="userSpaceOnUse">
<stop stop-color="#1C64F2"/>
<stop offset="1" stop-color="#1C64F2" stop-opacity="0"/>
</linearGradient>
<linearGradient id="paint10_linear_182_7955" x1="154.913" y1="331.664" x2="175.531" y2="192.814" gradientUnits="userSpaceOnUse">
<stop stop-color="#F9FAFB"/>
<stop offset="1" stop-color="#F9FAFB" stop-opacity="0"/>
</linearGradient>
<linearGradient id="paint11_linear_182_7955" x1="385.995" y1="310.632" x2="218.401" y2="276.218" gradientUnits="userSpaceOnUse">
<stop stop-color="#1C64F2"/>
<stop offset="1" stop-color="#1C64F2" stop-opacity="0"/>
</linearGradient>
<linearGradient id="paint12_linear_182_7955" x1="218.375" y1="118.722" x2="286.227" y2="372.641" gradientUnits="userSpaceOnUse">
<stop stop-color="#F9FAFB"/>
<stop offset="1" stop-color="#F9FAFB" stop-opacity="0"/>
</linearGradient>
<linearGradient id="paint13_linear_182_7955" x1="254.05" y1="126.64" x2="286.302" y2="247.335" gradientUnits="userSpaceOnUse">
<stop stop-color="#F9FAFB"/>
<stop offset="1" stop-color="#F9FAFB" stop-opacity="0"/>
</linearGradient>
<linearGradient id="paint14_linear_182_7955" x1="313.708" y1="366.64" x2="269.627" y2="201.676" gradientUnits="userSpaceOnUse">
<stop stop-color="#1C64F2"/>
<stop offset="1" stop-color="#1C64F2" stop-opacity="0"/>
</linearGradient>
<linearGradient id="paint15_linear_182_7955" x1="273.831" y1="202.342" x2="286.777" y2="250.787" gradientUnits="userSpaceOnUse">
<stop stop-color="white"/>
<stop offset="1" stop-color="white" stop-opacity="0"/>
</linearGradient>
<linearGradient id="paint16_linear_182_7955" x1="247.262" y1="-20.9949" x2="304.959" y2="194.92" gradientUnits="userSpaceOnUse">
<stop stop-color="#1C64F2"/>
<stop offset="1" stop-color="#1C64F2" stop-opacity="0"/>
</linearGradient>
<linearGradient id="paint17_linear_182_7955" x1="226.652" y1="50.145" x2="202.313" y2="83.8585" gradientUnits="userSpaceOnUse">
<stop stop-color="#7F270F"/>
<stop offset="1" stop-color="#7F270F" stop-opacity="0"/>
</linearGradient>
<linearGradient id="paint18_linear_182_7955" x1="218.984" y1="35.0151" x2="238.324" y2="200.58" gradientUnits="userSpaceOnUse">
<stop stop-color="#7F270F"/>
<stop offset="1" stop-color="#7F270F" stop-opacity="0"/>
</linearGradient>
<linearGradient id="paint19_linear_182_7955" x1="539.559" y1="498.391" x2="539.559" y2="538.105" gradientUnits="userSpaceOnUse">
<stop stop-color="#A4CAFE"/>
<stop offset="1" stop-color="#A4CAFE" stop-opacity="0"/>
</linearGradient>
<linearGradient id="paint20_linear_182_7955" x1="613.112" y1="495.354" x2="613.112" y2="537.451" gradientUnits="userSpaceOnUse">
<stop stop-color="#A4CAFE"/>
<stop offset="1" stop-color="#A4CAFE" stop-opacity="0"/>
</linearGradient>
<linearGradient id="paint21_linear_182_7955" x1="442.362" y1="252.886" x2="595.39" y2="508.434" gradientUnits="userSpaceOnUse">
<stop stop-color="#111928"/>
<stop offset="1" stop-color="#111928" stop-opacity="0"/>
</linearGradient>
<linearGradient id="paint22_linear_182_7955" x1="573.344" y1="172.507" x2="542.652" y2="117.607" gradientUnits="userSpaceOnUse">
<stop stop-color="#A4CAFE"/>
<stop offset="1" stop-color="#A4CAFE" stop-opacity="0"/>
</linearGradient>
<linearGradient id="paint23_linear_182_7955" x1="586.704" y1="145.273" x2="586.704" y2="174.669" gradientUnits="userSpaceOnUse">
<stop stop-color="#A4CAFE"/>
<stop offset="1" stop-color="#A4CAFE" stop-opacity="0"/>
</linearGradient>
<linearGradient id="paint24_linear_182_7955" x1="579.458" y1="-101.56" x2="579.458" y2="122.795" gradientUnits="userSpaceOnUse">
<stop stop-color="#A4CAFE"/>
<stop offset="1" stop-color="#A4CAFE" stop-opacity="0"/>
</linearGradient>
<linearGradient id="paint25_linear_182_7955" x1="577.233" y1="168.616" x2="554.322" y2="141.383" gradientUnits="userSpaceOnUse">
<stop stop-color="#A4CAFE"/>
<stop offset="1" stop-color="#A4CAFE" stop-opacity="0"/>
</linearGradient>
<linearGradient id="paint26_linear_182_7955" x1="690.429" y1="210.871" x2="690.429" y2="523.032" gradientUnits="userSpaceOnUse">
<stop stop-color="#374151"/>
<stop offset="1" stop-color="#374151" stop-opacity="0"/>
</linearGradient>
<linearGradient id="paint27_linear_182_7955" x1="565.453" y1="282.74" x2="565.453" y2="214.871" gradientUnits="userSpaceOnUse">
<stop stop-color="#1C64F2"/>
<stop offset="1" stop-color="#1C64F2" stop-opacity="0"/>
</linearGradient>
<linearGradient id="paint28_linear_182_7955" x1="648.451" y1="300.031" x2="592.687" y2="171.21" gradientUnits="userSpaceOnUse">
<stop stop-color="#F9FAFB"/>
<stop offset="1" stop-color="#F9FAFB" stop-opacity="0"/>
</linearGradient>
<linearGradient id="paint29_linear_182_7955" x1="419.773" y1="339.368" x2="572.802" y2="262.854" gradientUnits="userSpaceOnUse">
<stop stop-color="#1C64F2"/>
<stop offset="1" stop-color="#1C64F2" stop-opacity="0"/>
</linearGradient>
<linearGradient id="paint30_linear_182_7955" x1="532.166" y1="110.69" x2="532.166" y2="373.519" gradientUnits="userSpaceOnUse">
<stop stop-color="#F9FAFB"/>
<stop offset="1" stop-color="#F9FAFB" stop-opacity="0"/>
</linearGradient>
<linearGradient id="paint31_linear_182_7955" x1="499.745" y1="127.549" x2="499.745" y2="252.479" gradientUnits="userSpaceOnUse">
<stop stop-color="#F9FAFB"/>
<stop offset="1" stop-color="#F9FAFB" stop-opacity="0"/>
</linearGradient>
<linearGradient id="paint32_linear_182_7955" x1="504.068" y1="374.816" x2="504.068" y2="204.064" gradientUnits="userSpaceOnUse">
<stop stop-color="#1C64F2"/>
<stop offset="1" stop-color="#1C64F2" stop-opacity="0"/>
</linearGradient>
<linearGradient id="paint33_linear_182_7955" x1="500.177" y1="205.793" x2="500.177" y2="255.938" gradientUnits="userSpaceOnUse">
<stop stop-color="white"/>
<stop offset="1" stop-color="white" stop-opacity="0"/>
</linearGradient>
<linearGradient id="paint34_linear_182_7955" x1="468.189" y1="-16.8333" x2="468.189" y2="206.657" gradientUnits="userSpaceOnUse">
<stop stop-color="#1C64F2"/>
<stop offset="1" stop-color="#1C64F2" stop-opacity="0"/>
</linearGradient>
<linearGradient id="paint35_linear_182_7955" x1="553.546" y1="54.6948" x2="553.546" y2="79.3521" gradientUnits="userSpaceOnUse">
<stop stop-color="#7F270F"/>
<stop offset="1" stop-color="#7F270F" stop-opacity="0"/>
</linearGradient>
<linearGradient id="paint36_linear_182_7955" x1="559.819" y1="-12.5102" x2="559.819" y2="214.006" gradientUnits="userSpaceOnUse">
<stop stop-color="#7F270F"/>
<stop offset="1" stop-color="#7F270F" stop-opacity="0"/>
</linearGradient>
</defs>
</svg>
