<svg width="288" height="406" viewBox="0 0 288 406" fill="none" xmlns="http://www.w3.org/2000/svg">
<path fill-rule="evenodd" clip-rule="evenodd" d="M150.299 196.097H122.074C121.509 196.097 121.052 196.555 121.052 197.12V205.117C121.052 205.682 121.509 206.14 122.074 206.14H150.299C150.864 206.14 151.322 205.682 151.322 205.117V197.12C151.322 196.555 150.864 196.097 150.299 196.097ZM122.074 194.768C120.775 194.768 119.722 195.821 119.722 197.12V205.117C119.722 206.416 120.775 207.469 122.074 207.469H150.299C151.598 207.469 152.651 206.416 152.651 205.117V197.12C152.651 195.821 151.598 194.768 150.299 194.768H122.074Z" fill="#1F2A37"/>
<path fill-rule="evenodd" clip-rule="evenodd" d="M186.992 196.097H158.767C158.202 196.097 157.744 196.555 157.744 197.12V205.117C157.744 205.682 158.202 206.14 158.767 206.14H186.992C187.557 206.14 188.015 205.682 188.015 205.117V197.12C188.015 196.555 187.557 196.097 186.992 196.097ZM158.767 194.768C157.468 194.768 156.415 195.821 156.415 197.12V205.117C156.415 206.416 157.468 207.469 158.767 207.469H186.992C188.291 207.469 189.344 206.416 189.344 205.117V197.12C189.344 195.821 188.291 194.768 186.992 194.768H158.767Z" fill="#1F2A37"/>
<path fill-rule="evenodd" clip-rule="evenodd" d="M168.646 212.562H140.421C139.856 212.562 139.398 213.02 139.398 213.585V221.582C139.398 222.147 139.856 222.604 140.421 222.604H168.646C169.211 222.604 169.668 222.147 169.668 221.582V213.585C169.668 213.02 169.211 212.562 168.646 212.562ZM140.421 211.233C139.122 211.233 138.069 212.286 138.069 213.585V221.582C138.069 222.881 139.122 223.934 140.421 223.934H168.646C169.945 223.934 170.998 222.881 170.998 221.582V213.585C170.998 212.286 169.945 211.233 168.646 211.233H140.421Z" fill="#1F2A37"/>
<path fill-rule="evenodd" clip-rule="evenodd" d="M218.98 1.57811H190.755C190.19 1.57811 189.733 2.03594 189.733 2.6007V10.5978C189.733 11.1626 190.19 11.6204 190.755 11.6204H218.98C219.545 11.6204 220.003 11.1626 220.003 10.5979V2.6007C220.003 2.03594 219.545 1.57811 218.98 1.57811ZM190.755 0.248596C189.456 0.248596 188.403 1.30167 188.403 2.6007V10.5978C188.403 11.8969 189.456 12.95 190.755 12.95H218.98C220.279 12.95 221.332 11.8969 221.332 10.5979V2.6007C221.332 1.30167 220.279 0.248596 218.98 0.248596H190.755Z" fill="#1F2A37"/>
<path fill-rule="evenodd" clip-rule="evenodd" d="M200.634 18.0428H172.409C171.844 18.0428 171.386 18.5007 171.386 19.0654V27.0626C171.386 27.6273 171.844 28.0852 172.409 28.0852H200.634C201.199 28.0852 201.657 27.6273 201.657 27.0626V19.0654C201.657 18.5007 201.199 18.0428 200.634 18.0428ZM172.409 16.7133C171.11 16.7133 170.057 17.7664 170.057 19.0654V27.0626C170.057 28.3616 171.11 29.4147 172.409 29.4147H200.634C201.933 29.4147 202.986 28.3616 202.986 27.0626V19.0654C202.986 17.7664 201.933 16.7133 200.634 16.7133H172.409Z" fill="#1F2A37"/>
<path fill-rule="evenodd" clip-rule="evenodd" d="M237.327 18.0428H209.102C208.537 18.0428 208.079 18.5007 208.079 19.0654V27.0626C208.079 27.6273 208.537 28.0852 209.102 28.0852H237.327C237.892 28.0852 238.349 27.6273 238.349 27.0626V19.0654C238.349 18.5007 237.892 18.0428 237.327 18.0428ZM209.102 16.7133C207.802 16.7133 206.749 17.7664 206.749 19.0654V27.0626C206.749 28.3616 207.802 29.4147 209.102 29.4147H237.327C238.626 29.4147 239.679 28.3616 239.679 27.0626V19.0654C239.679 17.7664 238.626 16.7133 237.327 16.7133H209.102Z" fill="#1F2A37"/>
<path d="M82.0888 43.6707C82.0888 41.4679 83.8745 39.6821 86.0773 39.6821H202.056C204.259 39.6821 206.045 41.4679 206.045 43.6707V182.7C206.045 184.903 204.259 186.689 202.056 186.689H86.0773C83.8745 186.689 82.0888 184.903 82.0888 182.7V43.6707Z" fill="#374151"/>
<path d="M89.1447 51.4429C89.1447 49.4944 90.7243 47.9148 92.6728 47.9148H195.46C197.408 47.9148 198.988 49.4944 198.988 51.4429V174.928C198.988 176.877 197.408 178.456 195.46 178.456H92.6728C90.7243 178.456 89.1447 176.877 89.1447 174.928V51.4429Z" fill="#111928"/>
<path d="M77.3842 42.8172C77.3842 40.9774 76.1258 39.3763 74.338 38.9416L4.93096 22.0645C2.4199 21.4539 5.25334e-06 23.3559 5.25334e-06 25.9401V200.431C5.25334e-06 203.015 2.41989 204.917 4.93095 204.307L74.338 187.429C76.1258 186.995 77.3842 185.394 77.3842 183.554V42.8172Z" fill="#374151"/>
<path fill-rule="evenodd" clip-rule="evenodd" d="M169.298 103.251L155.185 155.467L156.469 155.814L170.581 103.597L169.298 103.251Z" fill="#374151"/>
<path fill-rule="evenodd" clip-rule="evenodd" d="M119.07 103.251L133.183 155.467L131.899 155.814L117.787 103.597L119.07 103.251Z" fill="#374151"/>
<path d="M156.65 153.054C156.65 159.939 151.069 165.52 144.184 165.52C137.299 165.52 131.718 159.939 131.718 153.054C131.718 146.169 137.299 140.588 144.184 140.588C151.069 140.588 156.65 146.169 156.65 153.054Z" fill="#374151"/>
<path d="M171.468 96.1328C171.468 111.202 159.253 123.417 144.184 123.417C129.115 123.417 116.9 111.202 116.9 96.1328C116.9 81.064 129.115 68.8484 144.184 68.8484C159.253 68.8484 171.468 81.064 171.468 96.1328Z" fill="#374151"/>
<path fill-rule="evenodd" clip-rule="evenodd" d="M144.184 111.973C152.933 111.973 160.025 104.881 160.025 96.1324C160.025 87.3837 152.933 80.2916 144.184 80.2916C135.436 80.2916 128.343 87.3837 128.343 96.1324C128.343 104.881 135.436 111.973 144.184 111.973ZM144.184 113.303C153.667 113.303 161.355 105.615 161.355 96.1324C161.355 86.6495 153.667 78.962 144.184 78.962C134.701 78.962 127.014 86.6495 127.014 96.1324C127.014 105.615 134.701 113.303 144.184 113.303Z" fill="#111928"/>
<path d="M150.064 153.054C150.064 156.301 147.432 158.934 144.184 158.934C140.936 158.934 138.304 156.301 138.304 153.054C138.304 149.806 140.936 147.173 144.184 147.173C147.432 147.173 150.064 149.806 150.064 153.054Z" fill="#111928"/>
<path d="M154.063 96.1325C154.063 101.588 149.64 106.011 144.184 106.011C138.728 106.011 134.305 101.588 134.305 96.1325C134.305 90.6766 138.728 86.2537 144.184 86.2537C149.64 86.2537 154.063 90.6766 154.063 96.1325Z" fill="#111928"/>
<path d="M144.184 91.1934L148.461 93.6631V98.6025L144.184 101.072L139.906 98.6025V93.6631L144.184 91.1934Z" fill="#374151"/>
<path fill-rule="evenodd" clip-rule="evenodd" d="M93.8109 335.399L102.317 361.767V405.751H78.9491C78.2148 405.751 77.6196 405.156 77.6196 404.421V361.767L86.1253 335.399C86.6634 333.731 88.2157 332.6 89.9681 332.6C91.7205 332.6 93.2728 333.731 93.8109 335.399Z" fill="#1F2A37"/>
<path d="M90.0858 340.245C90.0858 339.011 91.0862 338.01 92.3203 338.01H162.648C163.882 338.01 164.883 339.011 164.883 340.245V340.245C164.883 341.479 163.882 342.479 162.648 342.479H92.3203C91.0862 342.479 90.0858 341.479 90.0858 340.245V340.245Z" fill="#374151"/>
<path fill-rule="evenodd" clip-rule="evenodd" d="M168.843 335.399L177.349 361.767V404.421C177.349 405.156 176.753 405.751 176.019 405.751H152.652V361.767L161.157 335.399C161.695 333.731 163.248 332.6 165 332.6C166.752 332.6 168.305 333.731 168.843 335.399Z" fill="#1F2A37"/>
<path d="M104.415 332.492L109.483 331.274L121.377 380.737L116.309 381.955L104.415 332.492Z" fill="#6B7280"/>
<path fill-rule="evenodd" clip-rule="evenodd" d="M125.122 388.036C125.183 388.289 125.437 388.444 125.689 388.383L125.74 388.371C125.953 388.32 126.103 388.128 126.1 387.908L126.096 387.528C126.069 385.363 126.088 383.021 124.708 381.353C123.225 379.56 120.797 378.65 118.363 379.235C116.103 379.779 114.434 381.468 113.802 383.524C113.069 385.908 114.419 388.318 115.639 390.493Lnan nanLnan nanL115.639 390.493C115.729 390.653 115.915 390.734 116.093 390.691L116.207 390.663C116.46 390.603 116.615 390.349 116.555 390.096L115.488 385.66L119.177 382.157L124.055 383.6L125.122 388.036Z" fill="#6B7280"/>
<path fill-rule="evenodd" clip-rule="evenodd" d="M100.672 324.971C100.611 324.718 100.357 324.563 100.104 324.623L100.054 324.636C99.84 324.687 99.6904 324.879 99.6931 325.099L99.6978 325.479C99.7247 327.644 99.7051 329.986 101.086 331.654C102.569 333.447 104.996 334.357 107.43 333.772C109.691 333.228 111.359 331.539 111.991 329.483C112.724 327.099 111.375 324.689 110.154 322.514Lnan nanLnan nanL110.154 322.514C110.064 322.354 109.879 322.273 109.7 322.316L109.586 322.343C109.334 322.404 109.178 322.658 109.239 322.911L110.306 327.347L106.617 330.85L101.738 329.407L100.672 324.971Z" fill="#6B7280"/>
<path d="M118.137 338.47L122.491 338.443L122.757 380.937L118.403 380.964L118.137 338.47Z" fill="#6B7280"/>
<path fill-rule="evenodd" clip-rule="evenodd" d="M124.415 387.563C124.416 387.793 124.604 387.979 124.834 387.978Lnan nanLnan nanL124.834 387.978C125.029 387.976 125.197 387.839 125.239 387.649Lnan nanLnan nanL125.239 387.649C125.67 385.698 126.201 383.56 125.216 381.821C124.307 380.218 122.58 379.131 120.591 379.143C118.65 379.155 116.971 380.212 116.066 381.764C115.016 383.564 115.655 385.781 116.235 387.782Lnan nanLnan nanL116.235 387.782C116.277 387.929 116.413 388.03 116.566 388.029L116.63 388.029C116.866 388.027 117.056 387.835 117.054 387.599L117.031 383.822L120.698 381.674L124.391 383.776L124.415 387.563Z" fill="#6B7280"/>
<path fill-rule="evenodd" clip-rule="evenodd" d="M116.523 331.665C116.522 331.435 116.334 331.249 116.103 331.251Lnan nanLnan nanL116.103 331.251C115.909 331.252 115.74 331.389 115.698 331.579Lnan nanLnan nanL115.698 331.579C115.268 333.53 114.737 335.668 115.722 337.407C116.631 339.01 118.357 340.097 120.347 340.085C122.288 340.073 123.967 339.016 124.872 337.464C125.922 335.664 125.282 333.447 124.703 331.446Lnan nanLnan nanL124.703 331.446C124.66 331.299 124.525 331.198 124.372 331.199L124.308 331.199C124.072 331.201 123.882 331.393 123.884 331.629L123.907 335.406L120.24 337.554L116.547 335.452L116.523 331.665Z" fill="#6B7280"/>
<path d="M136.961 331.393L141.604 332.148L131.559 393.902L126.916 393.147L136.961 331.393Z" fill="#6B7280"/>
<path d="M130.211 326.006C130.274 325.621 130.636 325.36 131.021 325.422L145.713 327.812C145.852 327.835 145.98 327.898 146.083 327.994L150.365 332.012C150.537 332.173 150.617 332.408 150.579 332.64L150.312 334.279C150.25 334.664 149.887 334.925 149.503 334.863L130.001 331.691C129.617 331.628 129.356 331.266 129.418 330.881L130.211 326.006Z" fill="#6B7280"/>
<path d="M77.6196 363.096C77.6196 362.362 78.2148 361.767 78.9491 361.767H152.652V405.751H78.9491C78.2148 405.751 77.6196 405.156 77.6196 404.422V363.096Z" fill="#374151"/>
<path d="M264.141 370.705C258.773 381.361 247.456 391.107 240.247 395.15C238.17 396.315 236.621 398.43 236.621 400.812H287.662L285.192 367.177L264.141 370.705Z" fill="#1F2A37"/>
<path d="M236.621 400.812H287.662L287.994 404.296C288.068 405.076 287.454 405.751 286.67 405.751H237.951C237.217 405.751 236.621 405.156 236.621 404.422V400.812Z" fill="#1A56DB"/>
<path fill-rule="evenodd" clip-rule="evenodd" d="M278.019 390.952C279.623 390.952 280.923 389.652 280.923 388.048C280.923 386.444 279.623 385.144 278.019 385.144C276.415 385.144 275.114 386.444 275.114 388.048C275.114 389.652 276.415 390.952 278.019 390.952ZM278.019 392.282C280.357 392.282 282.253 390.386 282.253 388.048C282.253 385.71 280.357 383.814 278.019 383.814C275.68 383.814 273.785 385.71 273.785 388.048C273.785 390.386 275.68 392.282 278.019 392.282Z" fill="#374151"/>
<path d="M239.444 374.939C234.114 385.52 223.407 392.266 216.355 395.378C214.176 396.34 212.63 398.43 212.63 400.812H263.67V374.939H239.444Z" fill="#374151"/>
<path d="M212.63 400.812H263.67V404.422C263.67 405.156 263.075 405.751 262.341 405.751H213.959C213.225 405.751 212.63 405.156 212.63 404.422V400.812Z" fill="#1C64F2"/>
<path fill-rule="evenodd" clip-rule="evenodd" d="M252.145 391.015C253.749 391.015 255.049 389.714 255.049 388.11C255.049 386.506 253.749 385.206 252.145 385.206C250.541 385.206 249.241 386.506 249.241 388.11C249.241 389.714 250.541 391.015 252.145 391.015ZM252.145 392.344C254.483 392.344 256.379 390.449 256.379 388.11C256.379 385.772 254.483 383.876 252.145 383.876C249.807 383.876 247.911 385.772 247.911 388.11C247.911 390.449 249.807 392.344 252.145 392.344Z" fill="#6B7280"/>
<path d="M159.707 125.851C167.079 127.326 193.46 127.929 205.103 128.321C212.395 126.753 225.331 125.851 221.097 137.141C215.805 151.254 183.111 135.142 162.297 136.318C151.12 136.95 146.371 130.627 147.832 127.616C149.829 123.499 152.651 124.44 159.707 125.851Z" fill="#FDBA8C"/>
<path d="M159.707 125.851C167.079 127.326 193.46 127.929 205.103 128.321C212.395 126.753 225.331 125.851 221.097 137.141C215.805 151.254 183.111 135.142 162.297 136.318C151.12 136.95 146.371 130.627 147.832 127.616C149.829 123.499 152.651 124.44 159.707 125.851Z" fill="url(#paint0_linear_7753_230516)"/>
<path d="M220.628 137.847L204.986 128.321C214.596 113.558 233.164 79.02 241.091 86.2186C249.018 93.4171 231.389 125.047 220.628 137.847Z" fill="#F9FAFB"/>
<path d="M220.628 137.847L204.986 128.321C214.596 113.558 233.164 79.02 241.091 86.2186C249.018 93.4171 231.389 125.047 220.628 137.847Z" fill="url(#paint1_linear_7753_230516)"/>
<path d="M286.344 370.376L255.151 373.734C254.406 373.814 253.743 373.264 253.683 372.517L238.973 187.711L267.669 179.714L287.524 368.915C287.6 369.644 287.072 370.298 286.344 370.376Z" fill="#1C64F2"/>
<path d="M286.344 370.376L255.151 373.734C254.406 373.814 253.743 373.264 253.683 372.517L238.973 187.711L267.669 179.714L287.524 368.915C287.6 369.644 287.072 370.298 286.344 370.376Z" fill="url(#paint2_linear_7753_230516)"/>
<path d="M254.262 93.6273C252.851 85.3479 247.48 82.9644 244.971 82.8076L236.856 85.5125C225.66 89.2759 227.605 133.731 230.27 155.37C247.394 155.37 259.123 148.627 262.847 145.256C260.573 131.496 255.673 101.907 254.262 93.6273Z" fill="#F9FAFB"/>
<path d="M254.262 93.6273C252.851 85.3479 247.48 82.9644 244.971 82.8076L236.856 85.5125C225.66 89.2759 227.605 133.731 230.27 155.37C247.394 155.37 259.123 148.627 262.847 145.256C260.573 131.496 255.673 101.907 254.262 93.6273Z" fill="url(#paint3_linear_7753_230516)"/>
<path d="M237.798 85.2773C231.588 89.5111 229.409 107.505 229.095 115.031L226.037 122.676C226.194 118.756 227.025 108.681 229.095 99.7427C231.165 90.8047 234.505 86.0613 236.269 84.8069L237.798 85.2773Z" fill="#1C64F2"/>
<path d="M237.798 85.2773C231.588 89.5111 229.409 107.505 229.095 115.031L226.037 122.676C226.194 118.756 227.025 108.681 229.095 99.7427C231.165 90.8047 234.505 86.0613 236.269 84.8069L237.798 85.2773Z" fill="url(#paint4_linear_7753_230516)"/>
<path d="M256.85 115.267C256.944 125.804 246.148 130.947 240.738 132.202L228.742 136.671L226.052 376.299C226.044 377.039 226.642 377.644 227.382 377.644H266.702C267.433 377.644 268.026 377.087 268.032 376.357C268.462 316.665 269.05 193.841 268.022 169.835C266.729 139.611 255.909 94.2155 254.498 91.1577C253.086 88.1 250.617 81.3967 242.267 87.1594C235.587 91.7695 233.838 102.448 234.27 105.741L236.504 101.86C236.974 92.8041 245.912 85.1597 249.676 86.6886C253.439 88.2175 256.732 102.095 256.85 115.267Z" fill="#1C64F2"/>
<path d="M256.85 115.267C256.944 125.804 246.148 130.947 240.738 132.202L228.742 136.671L226.052 376.299C226.044 377.039 226.642 377.644 227.382 377.644H266.702C267.433 377.644 268.026 377.087 268.032 376.357C268.462 316.665 269.05 193.841 268.022 169.835C266.729 139.611 255.909 94.2155 254.498 91.1577C253.086 88.1 250.617 81.3967 242.267 87.1594C235.587 91.7695 233.838 102.448 234.27 105.741L236.504 101.86C236.974 92.8041 245.912 85.1597 249.676 86.6886C253.439 88.2175 256.732 102.095 256.85 115.267Z" fill="url(#paint5_linear_7753_230516)"/>
<path fill-rule="evenodd" clip-rule="evenodd" d="M268.14 367.842H226.037V366.512H268.14V367.842Z" fill="#E1EFFE"/>
<path fill-rule="evenodd" clip-rule="evenodd" d="M255.812 175.994C246.299 175.528 241.21 170.345 239.792 167.548L240.978 166.947C242.178 169.314 246.837 174.223 255.877 174.666C256.956 174.718 257.863 175.604 257.841 176.73L254.221 367.071L252.892 367.046L256.512 176.705C256.519 176.343 256.22 176.014 255.812 175.994Z" fill="#E1EFFE"/>
<path fill-rule="evenodd" clip-rule="evenodd" d="M227.218 272.385C227.295 272.386 227.371 272.387 227.448 272.387C234.593 272.387 240.384 266.595 240.384 259.451C240.384 252.326 234.625 246.547 227.509 246.514L227.218 272.385Z" fill="url(#paint6_linear_7753_230516)"/>
<path d="M218.151 58.2575C216.672 59.4406 217.535 60.5579 218.151 60.9687L226.286 66.5143C230.765 67.6234 238.208 69.1417 238.268 67.9893C238.366 66.1076 238.613 65.4051 238.366 60.7222C238.169 56.9759 236.23 53.6567 235.285 52.4655C230.19 53.9032 219.63 57.0744 218.151 58.2575Z" fill="#111928"/>
<path d="M143.509 103.891L149.015 102.567L161.938 156.31L156.432 157.634L143.509 103.891Z" fill="#76A9FA"/>
<path fill-rule="evenodd" clip-rule="evenodd" d="M166.017 164.28C166.077 164.532 166.331 164.688 166.584 164.627L166.71 164.597C166.924 164.545 167.073 164.353 167.071 164.134L167.062 163.407C167.035 161.242 167.043 158.923 165.732 157.199C164.141 155.107 161.407 154.018 158.663 154.678C156.208 155.268 154.395 157.104 153.708 159.338C152.911 161.928 154.378 164.546 155.704 166.91C155.802 167.084 156.003 167.171 156.197 167.125L156.361 167.085C156.613 167.025 156.769 166.771 156.708 166.518L155.54 161.658L159.548 157.852L164.848 159.42L166.017 164.28Z" fill="#76A9FA"/>
<path fill-rule="evenodd" clip-rule="evenodd" d="M139.432 95.6787C139.371 95.4261 139.117 95.2706 138.865 95.3313L138.739 95.3617C138.525 95.413 138.375 95.6053 138.378 95.8249L138.387 96.5514C138.414 98.7168 138.406 101.035 139.717 102.759C141.308 104.852 144.042 105.94 146.785 105.281C149.241 104.69 151.054 102.855 151.741 100.621C152.537 98.0304 151.071 95.412 149.744 93.0489C149.647 92.875 149.445 92.7871 149.252 92.8337L149.088 92.873C148.835 92.9338 148.68 93.1878 148.741 93.4404L149.909 98.3001L145.901 102.106L140.601 100.538L139.432 95.6787Z" fill="#76A9FA"/>
<path d="M147.359 128.203C146.7 122.935 151.632 122.95 154.18 123.617L153.357 120.324C155.239 120.912 161.119 127.498 165.235 128.203C168.528 128.768 202.751 135.965 219.451 139.493L220.039 137.847L242.854 136.2C240.62 141.963 234.904 154.335 229.918 157.722C223.685 161.956 174.408 140.905 163.001 138.082C151.593 135.259 148.182 134.789 147.359 128.203Z" fill="#FDBA8C"/>
<path d="M147.359 128.203C146.7 122.935 151.632 122.95 154.18 123.617L153.357 120.324C155.239 120.912 161.119 127.498 165.235 128.203C168.528 128.768 202.751 135.965 219.451 139.493L220.039 137.847L242.854 136.2C240.62 141.963 234.904 154.335 229.918 157.722C223.685 161.956 174.408 140.905 163.001 138.082C151.593 135.259 148.182 134.789 147.359 128.203Z" fill="url(#paint7_linear_7753_230516)"/>
<path d="M238.972 145.203L220.039 137.846C225.88 119.657 240.149 84.5949 250.499 89.8636C260.522 94.9662 248.998 127.249 241.353 144.235C240.945 145.141 239.898 145.563 238.972 145.203Z" fill="#F9FAFB"/>
<path d="M244.854 82.8236L238.268 68.0054C235.542 69.8534 230.385 74.2048 231.564 76.8258L236.856 88.5863C240.22 87.9136 243.144 85.797 244.854 82.8236Z" fill="#FDBA8C"/>
<path d="M244.854 82.8236L238.268 68.0054C235.542 69.8534 230.385 74.2048 231.564 76.8258L236.856 88.5863C240.22 87.9136 243.144 85.797 244.854 82.8236Z" fill="url(#paint8_linear_7753_230516)"/>
<path d="M225.194 60.3204C222.727 58.8336 219.397 60.1965 218.04 61.0638C218.246 62.9637 219.15 68.3494 221.124 74.6933C223.097 81.0372 228.689 79.0713 231.238 77.2953C232.964 76.0209 236.788 72.3781 238.268 68.0025C237.199 67.796 235.555 67.0113 234.568 65.5245C233.334 63.6659 235.761 60.2385 233.458 59.0815C231.978 58.338 230.621 59.2054 230.004 61.0638C229.387 62.9223 228.277 62.179 225.194 60.3204Z" fill="#FDBA8C"/>
<path d="M225.194 60.3204C222.727 58.8336 219.397 60.1965 218.04 61.0638C218.246 62.9637 219.15 68.3494 221.124 74.6933C223.097 81.0372 228.689 79.0713 231.238 77.2953C232.964 76.0209 236.788 72.3781 238.268 68.0025C237.199 67.796 235.555 67.0113 234.568 65.5245C233.334 63.6659 235.761 60.2385 233.458 59.0815C231.978 58.338 230.621 59.2054 230.004 61.0638C229.387 62.9223 228.277 62.179 225.194 60.3204Z" fill="url(#paint9_linear_7753_230516)"/>
<path d="M227.51 73.8367L221.549 75.2189C221.378 75.2586 221.194 75.2372 221.053 75.1313C220.143 74.4453 220.361 73.319 220.606 72.8088C222.736 72.4614 225.711 72.9682 227.516 73.4033C227.752 73.4601 227.746 73.7819 227.51 73.8367Z" fill="#111928"/>
<path d="M223.946 66.3426C223.946 66.8622 223.572 67.2834 223.11 67.2834C222.648 67.2834 222.273 66.8622 222.273 66.3426C222.273 65.823 222.648 65.4017 223.11 65.4017C223.572 65.4017 223.946 65.823 223.946 66.3426Z" fill="#111928"/>
<path fill-rule="evenodd" clip-rule="evenodd" d="M222.399 63.4372C221.757 63.5746 221.29 63.9595 220.88 64.4414C220.761 64.5812 220.551 64.5981 220.412 64.4792C220.272 64.3602 220.255 64.1505 220.374 64.0106C220.83 63.4741 221.416 62.9679 222.26 62.7871C223.101 62.607 224.138 62.7626 225.477 63.4182C225.642 63.4989 225.71 63.698 225.63 63.8629C225.549 64.0277 225.35 64.096 225.185 64.0152C223.924 63.398 223.043 63.2991 222.399 63.4372Z" fill="#111928"/>
<path fill-rule="evenodd" clip-rule="evenodd" d="M233.032 61.971C233.06 61.4709 232.877 61.0508 232.607 60.6476C232.505 60.4951 232.546 60.2887 232.698 60.1865C232.851 60.0844 233.057 60.1252 233.159 60.2777C233.47 60.742 233.735 61.3064 233.696 62.0085C233.656 62.7069 233.319 63.4837 232.55 64.3856C232.431 64.5253 232.221 64.5419 232.081 64.4228C231.941 64.3037 231.925 64.0939 232.044 63.9542C232.757 63.1178 233.004 62.4747 233.032 61.971Z" fill="#111928"/>
<path fill-rule="evenodd" clip-rule="evenodd" d="M223.801 76.1679C224.108 76.0327 224.393 75.8063 224.726 75.4173C224.846 75.2779 225.056 75.2618 225.195 75.3812C225.334 75.5007 225.351 75.7105 225.231 75.8499C224.859 76.2841 224.497 76.5874 224.069 76.7763C223.642 76.9644 223.178 77.0256 222.625 77.0256C222.441 77.0256 222.292 76.8768 222.292 76.6933C222.292 76.5097 222.441 76.3609 222.625 76.3609C223.132 76.3609 223.492 76.3038 223.801 76.1679Z" fill="#111928"/>
<path fill-rule="evenodd" clip-rule="evenodd" d="M219.484 65.8475C219.666 65.8239 219.832 65.9524 219.856 66.1344L220.456 70.7638C220.467 70.8508 220.555 70.9054 220.638 70.8763L222.525 70.2136C222.698 70.1528 222.888 70.2439 222.949 70.4171C223.01 70.5903 222.919 70.78 222.745 70.8408L220.859 71.5035C220.377 71.6727 219.862 71.3554 219.796 70.8492L219.197 66.2198C219.173 66.0378 219.302 65.8711 219.484 65.8475Z" fill="#111928"/>
<path d="M223.717 48.9108C217.062 51.3583 216.678 58.2589 217.318 61.4032L236.386 54.0098C235.021 51.2054 230.371 46.4633 223.717 48.9108Z" fill="#374151"/>
<path fill-rule="evenodd" clip-rule="evenodd" d="M236.903 53.6519C237.035 53.9944 236.865 54.3793 236.522 54.5115L208.421 65.3636C208.078 65.4959 207.694 65.3255 207.561 64.983C207.429 64.6405 207.599 64.2557 207.942 64.1234L236.043 53.2713C236.386 53.139 236.77 53.3094 236.903 53.6519Z" fill="#1F2A37"/>
<defs>
<linearGradient id="paint0_linear_7753_230516" x1="226.154" y1="172.423" x2="192.166" y2="110.798" gradientUnits="userSpaceOnUse">
<stop stop-color="#7F270F"/>
<stop offset="1" stop-color="#7F270F" stop-opacity="0"/>
</linearGradient>
<linearGradient id="paint1_linear_7753_230516" x1="241.443" y1="133.26" x2="227.497" y2="99.675" gradientUnits="userSpaceOnUse">
<stop stop-color="#A4CAFE"/>
<stop offset="1" stop-color="#A4CAFE" stop-opacity="0"/>
</linearGradient>
<linearGradient id="paint2_linear_7753_230516" x1="186.992" y1="276.856" x2="321.767" y2="348.83" gradientUnits="userSpaceOnUse">
<stop stop-color="#111928"/>
<stop offset="1" stop-color="#111928" stop-opacity="0"/>
</linearGradient>
<linearGradient id="paint3_linear_7753_230516" x1="250.734" y1="136.906" x2="265.565" y2="107.626" gradientUnits="userSpaceOnUse">
<stop stop-color="#A4CAFE"/>
<stop offset="1" stop-color="#A4CAFE" stop-opacity="0"/>
</linearGradient>
<linearGradient id="paint4_linear_7753_230516" x1="231.042" y1="82.3003" x2="225.352" y2="142.167" gradientUnits="userSpaceOnUse">
<stop stop-color="#111928"/>
<stop offset="1" stop-color="#111928" stop-opacity="0"/>
</linearGradient>
<linearGradient id="paint5_linear_7753_230516" x1="244.148" y1="65.5198" x2="252.734" y2="227.697" gradientUnits="userSpaceOnUse">
<stop stop-color="#111928"/>
<stop offset="1" stop-color="#111928" stop-opacity="0"/>
</linearGradient>
<linearGradient id="paint6_linear_7753_230516" x1="233.801" y1="218.053" x2="233.801" y2="285.677" gradientUnits="userSpaceOnUse">
<stop stop-color="#E1EFFE"/>
<stop offset="1" stop-color="#E1EFFE" stop-opacity="0"/>
</linearGradient>
<linearGradient id="paint7_linear_7753_230516" x1="250.776" y1="217.853" x2="229.095" y2="121.852" gradientUnits="userSpaceOnUse">
<stop stop-color="#7F270F"/>
<stop offset="1" stop-color="#7F270F" stop-opacity="0"/>
</linearGradient>
<linearGradient id="paint8_linear_7753_230516" x1="221.097" y1="77.0442" x2="240.149" y2="73.6336" gradientUnits="userSpaceOnUse">
<stop stop-color="#7F270F"/>
<stop offset="1" stop-color="#7F270F" stop-opacity="0"/>
</linearGradient>
<linearGradient id="paint9_linear_7753_230516" x1="242.737" y1="47.8786" x2="228.73" y2="71.0551" gradientUnits="userSpaceOnUse">
<stop stop-color="#7F270F"/>
<stop offset="1" stop-color="#7F270F" stop-opacity="0"/>
</linearGradient>
</defs>
</svg>
