<svg width="748" height="678" viewBox="0 0 748 678" fill="none" xmlns="http://www.w3.org/2000/svg">
<path d="M165 279V464" stroke="#212B3A" stroke-width="2" stroke-linecap="round"/>
<path d="M145 279L75 464" stroke="#212B3A" stroke-width="2" stroke-linecap="round"/>
<path d="M185 279L255 464" stroke="#212B3A" stroke-width="2" stroke-linecap="round"/>
<path d="M0 12.2174C0 5.46991 3.70484 0 8.275 0H322.725C327.295 0 331 5.46991 331 12.2174V268.783C331 275.53 327.295 281 322.725 281H8.27499C3.70484 281 0 275.53 0 268.783V12.2174Z" fill="#374151"/>
<path d="M0 12.2174C0 5.46991 3.70484 0 8.275 0H322.725C327.295 0 331 5.46991 331 12.2174V268.783C331 275.53 327.295 281 322.725 281H8.27499C3.70484 281 0 275.53 0 268.783V12.2174Z" fill="url(#paint0_linear_275_1425)" fill-opacity="0.7"/>
<rect x="83" y="180" width="164" height="18" rx="6" fill="#111928"/>
<rect x="116" y="210" width="98" height="10" rx="5" fill="#111928"/>
<path d="M154.344 95.0876C154.344 105.99 151.111 116.647 145.054 125.712C138.997 134.777 130.388 141.843 120.316 146.015C110.243 150.187 99.1597 151.279 88.4669 149.152C77.774 147.025 67.952 141.775 60.2429 134.066C52.5338 126.356 47.2838 116.534 45.1569 105.842C43.0299 95.1487 44.1215 84.0653 48.2937 73.9928C52.4658 63.9204 59.5311 55.3113 68.5961 49.2543C77.661 43.1973 88.3185 39.9644 99.2209 39.9644V64.1989C93.1117 64.1989 87.1397 66.0105 82.0601 69.4046C76.9804 72.7987 73.0214 77.6228 70.6835 83.267C68.3456 88.9111 67.7339 95.1218 68.9257 101.114C70.1176 107.105 73.0594 112.609 77.3793 116.929C81.6991 121.249 87.203 124.191 93.1948 125.383C99.1866 126.575 105.397 125.963 111.041 123.625C116.686 121.287 121.51 117.328 124.904 112.248C128.298 107.169 130.11 101.197 130.11 95.0876H154.344Z" fill="#1F2A37"/>
<path d="M99.2227 39.9644C106.462 39.9644 113.63 41.3902 120.317 44.1604C127.005 46.9306 133.082 50.9909 138.201 56.1096C143.319 61.2282 147.38 67.305 150.15 73.9928C152.92 80.6807 154.346 87.8487 154.346 95.0876L130.111 95.0876C130.111 91.0312 129.312 87.0146 127.76 83.267C126.208 79.5194 123.933 76.1143 121.064 73.246C118.196 70.3777 114.791 68.1024 111.043 66.5501C107.296 64.9978 103.279 64.1989 99.2227 64.1989V39.9644Z" fill="#6B7280"/>
<path d="M232.895 39.9644C243.797 39.9644 254.455 43.1973 263.519 49.2543C272.584 55.3113 279.65 63.9204 283.822 73.9928C287.994 84.0653 289.086 95.1487 286.959 105.842C284.832 116.534 279.582 126.356 271.873 134.066C264.164 141.775 254.342 147.025 243.649 149.152C232.956 151.279 221.872 150.187 211.8 146.015C201.728 141.843 193.118 134.777 187.061 125.712C181.004 116.647 177.771 105.99 177.771 95.0876L202.006 95.0876C202.006 101.197 203.818 107.169 207.212 112.248C210.606 117.328 215.43 121.287 221.074 123.625C226.718 125.963 232.929 126.575 238.921 125.383C244.913 124.191 250.416 121.249 254.736 116.929C259.056 112.609 261.998 107.105 263.19 101.114C264.382 95.1218 263.77 88.9111 261.432 83.267C259.094 77.6228 255.135 72.7986 250.056 69.4046C244.976 66.0105 239.004 64.1989 232.895 64.1989V39.9644Z" fill="#1F2A37"/>
<path d="M232.895 150.211C218.275 150.211 204.254 144.403 193.917 134.066C183.579 123.728 177.771 109.707 177.771 95.0876C177.771 80.468 183.579 66.4472 193.917 56.1096C204.254 45.772 218.275 39.9644 232.895 39.9644V64.1989C224.703 64.1989 216.846 67.4532 211.053 73.246C205.26 79.0387 202.006 86.8954 202.006 95.0876C202.006 103.28 205.26 111.136 211.053 116.929C216.846 122.722 224.703 125.976 232.895 125.976V150.211Z" fill="#6B7280"/>
<path d="M195.5 100L252.5 84.5" stroke="#111928" stroke-width="2" stroke-linecap="round"/>
<path d="M337.5 123.5L352 120.5C357.5 127.167 367.4 140.8 363 142C357.5 143.5 340.5 144.5 327 139C313.5 133.5 262 90.5 254.5 89.5C247 88.5 237.5 89.0002 237.5 86.5002C237.5 84.0002 244 81.5002 254.5 82.5002C262.9 83.3002 313.333 110.167 337.5 123.5Z" fill="#FDBA8C"/>
<path d="M337.5 123.5L352 120.5C357.5 127.167 367.4 140.8 363 142C357.5 143.5 340.5 144.5 327 139C313.5 133.5 262 90.5 254.5 89.5C247 88.5 237.5 89.0002 237.5 86.5002C237.5 84.0002 244 81.5002 254.5 82.5002C262.9 83.3002 313.333 110.167 337.5 123.5Z" fill="url(#paint1_linear_275_1425)"/>
<path d="M402.5 263.5L406 197.5H468C476.8 225.9 477.667 253.333 477 263.5H402.5Z" fill="#1C64F2"/>
<path d="M402.5 263.5L406 197.5H468C476.8 225.9 477.667 253.333 477 263.5H402.5Z" fill="url(#paint2_linear_275_1425)"/>
<path d="M426.5 58.4999C419.3 60.0999 419.167 67.8333 419 72.4999L431 95H455.5C454 90.1666 449.5 80.3999 447.5 71.9999C445 61.4999 435.5 56.4999 426.5 58.4999Z" fill="#374151"/>
<circle cx="449" cy="57" r="10" fill="#374151"/>
<path d="M421.695 97.899L423.501 83H431C431.4 93.4 437.834 99.6667 441.5 102C439.501 104.833 434.401 111.4 426.001 111C417.601 110.6 416.167 104.833 416.501 102L420.058 100.221C420.959 99.7709 421.573 98.8987 421.695 97.899Z" fill="#FDBA8C"/>
<path d="M421.695 97.899L423.501 83H431C431.4 93.4 437.834 99.6667 441.5 102C439.501 104.833 434.401 111.4 426.001 111C417.601 110.6 416.167 104.833 416.501 102L420.058 100.221C420.959 99.7709 421.573 98.8987 421.695 97.899Z" fill="url(#paint3_linear_275_1425)"/>
<path d="M417.501 76.5C419.101 69.3 422.501 64.8333 424.001 63.5C426.168 64 430.601 65.9 431.001 69.5C431.401 73.1 432.834 74.3333 433.501 74.5L434.993 73.8605C436.165 73.3581 437.529 73.7397 438.271 74.7776C438.994 75.7901 438.941 77.174 438.089 78.0806C430.026 86.6581 421.863 87.9448 419.501 87C417.001 86 415.501 85.5 417.501 76.5Z" fill="#FDBA8C"/>
<path d="M423.808 74.2451C423.683 74.6892 423.221 74.9479 422.777 74.8229C422.333 74.6979 422.074 74.2365 422.199 73.7924C422.324 73.3483 422.786 73.0896 423.23 73.2146C423.674 73.3396 423.933 73.801 423.808 74.2451Z" fill="#111928"/>
<path fill-rule="evenodd" clip-rule="evenodd" d="M423.795 70.89C423.248 70.6671 422.71 70.7104 422.155 70.8577C421.941 70.9146 421.721 70.787 421.664 70.5725C421.607 70.3581 421.735 70.1382 421.949 70.0812C422.589 69.9111 423.325 69.8309 424.098 70.146C424.868 70.4594 425.609 71.1374 426.324 72.3462C426.437 72.5372 426.373 72.7835 426.183 72.8965C425.992 73.0094 425.745 72.9461 425.632 72.7552C424.97 71.6358 424.346 71.1145 423.795 70.89Z" fill="#111928"/>
<path fill-rule="evenodd" clip-rule="evenodd" d="M420.27 72.1477C420.453 72.2703 420.502 72.5181 420.379 72.701L417.324 77.2596C417.27 77.341 417.304 77.452 417.395 77.4885L419.577 78.3637C419.781 78.4457 419.881 78.6779 419.799 78.8824C419.717 79.0868 419.484 79.1861 419.28 79.1041L417.098 78.2289C416.536 78.0036 416.325 77.3182 416.662 76.8155L419.717 72.257C419.839 72.074 420.087 72.025 420.27 72.1477Z" fill="#111928"/>
<path fill-rule="evenodd" clip-rule="evenodd" d="M419.652 81.9222C420.288 82.0548 420.943 81.9126 421.604 81.558C421.799 81.4532 422.043 81.5266 422.147 81.7221C422.252 81.9176 422.179 82.1611 421.983 82.266C421.208 82.6819 420.36 82.8903 419.488 82.7086C418.615 82.5268 417.781 81.9672 417.009 80.9695C416.873 80.7941 416.905 80.5418 417.08 80.406C417.256 80.2702 417.508 80.3024 417.644 80.4778C418.334 81.3699 419.016 81.7897 419.652 81.9222Z" fill="#111928"/>
<path fill-rule="evenodd" clip-rule="evenodd" d="M436.632 76.9157C436.929 76.4893 436.997 76.0181 436.978 75.5133C436.97 75.3181 437.123 75.1539 437.318 75.1466C437.513 75.1393 437.677 75.2917 437.685 75.4869C437.706 76.07 437.632 76.7176 437.212 77.3206C436.793 77.9204 436.067 78.4256 434.89 78.8049C434.704 78.8648 434.504 78.7627 434.445 78.5767C434.385 78.3908 434.487 78.1915 434.673 78.1315C435.763 77.7803 436.332 77.3454 436.632 76.9157Z" fill="#111928"/>
<path d="M467 116.5C462.2 108.5 450 103.833 445.5 102.5L438 105.5C434.5 105.833 426.9 106.4 424.5 106C422.1 105.6 415.5 103.5 412.5 102.5L350.5 119L360.5 149.5L394.5 147.5C393.3 163.1 400.667 187.333 404.5 197.5H469.5L467 170.5L490.5 166C484.667 152.833 471.8 124.5 467 116.5Z" fill="#F9FAFB"/>
<path d="M467 116.5C462.2 108.5 450 103.833 445.5 102.5L438 105.5C434.5 105.833 426.9 106.4 424.5 106C422.1 105.6 415.5 103.5 412.5 102.5L350.5 119L360.5 149.5L394.5 147.5C393.3 163.1 400.667 187.333 404.5 197.5H469.5L467 170.5L490.5 166C484.667 152.833 471.8 124.5 467 116.5Z" fill="url(#paint4_linear_275_1425)"/>
<path fill-rule="evenodd" clip-rule="evenodd" d="M468.623 170.189L450 173.5L445.5 147.5L419.5 155.5L413.375 197.5H468.828L469.222 194.495L467 170.5L468.623 170.189Z" fill="url(#paint5_linear_275_1425)"/>
<path fill-rule="evenodd" clip-rule="evenodd" d="M394.499 147.5C395.333 142.333 397.699 130.4 400.499 124L354.975 132.65L360.499 149.5L394.499 147.5Z" fill="url(#paint6_linear_275_1425)"/>
<path d="M429 104.5C423.054 104.17 418.972 102.68 416.98 101.608C416.35 101.269 415.595 101.174 414.937 101.455L412.5 102.5C414.5 104.167 420.5 107.5 428.5 107.5C436.5 107.5 442.5 104.167 445.5 102.5L443.495 101.498C442.876 101.188 442.146 101.225 441.549 101.576C439.202 102.953 435.261 104.848 429 104.5Z" fill="#76A9FA"/>
<path d="M456 172.5L475 169L481 272.5H468.5L456 172.5Z" fill="#FDBA8C"/>
<path d="M456 172.5L475 169L481 272.5H468.5L456 172.5Z" fill="url(#paint7_linear_275_1425)"/>
<path fill-rule="evenodd" clip-rule="evenodd" d="M27.427 306.568C27.427 308.25 27.7333 309.861 28.2931 311.348C28.7588 312.585 28.4398 314.033 27.4301 314.886C22.8606 318.744 19.9585 324.516 19.9585 330.965C19.9585 333.247 20.3219 335.444 20.994 337.502C21.3428 338.57 21.0489 339.76 20.2141 340.512C13.943 346.162 10.0005 354.347 10.0005 363.453C10.0005 380.502 23.8214 394.323 40.8704 394.323C57.9193 394.323 71.7402 380.502 71.7402 363.453C71.7402 354.432 67.8711 346.315 61.7018 340.671C60.8728 339.913 60.588 338.72 60.9451 337.655C61.6495 335.553 62.0312 333.304 62.0312 330.965C62.0312 324.516 59.129 318.744 54.5596 314.886C53.5499 314.033 53.2309 312.585 53.6966 311.348C54.2564 309.861 54.5626 308.25 54.5626 306.568C54.5626 299.075 48.4882 293 40.9948 293C33.5015 293 27.427 299.075 27.427 306.568Z" fill="#1F2A37"/>
<path fill-rule="evenodd" clip-rule="evenodd" d="M41.1197 305.725C40.723 305.725 40.4014 306.047 40.4014 306.443L40.4014 425.691C40.4014 426.087 40.723 426.409 41.1197 426.409C41.5163 426.409 41.8379 426.087 41.8379 425.691L41.8379 306.443C41.8379 306.047 41.5163 305.725 41.1197 305.725Z" fill="#374151"/>
<path fill-rule="evenodd" clip-rule="evenodd" d="M27.0093 359.632C26.6865 359.863 26.6118 360.311 26.8423 360.634L40.5346 379.803C40.7652 380.126 41.2137 380.201 41.5365 379.97C41.8593 379.74 41.934 379.291 41.7035 378.968L28.0112 359.799C27.7807 359.477 27.3321 359.402 27.0093 359.632Z" fill="#374151"/>
<path fill-rule="evenodd" clip-rule="evenodd" d="M55.229 330.007C55.5518 330.237 55.6265 330.686 55.396 331.009L41.7037 350.178C41.4731 350.501 41.0246 350.575 40.7018 350.345C40.379 350.114 40.3042 349.666 40.5348 349.343L54.2271 330.174C54.4576 329.851 54.9062 329.776 55.229 330.007Z" fill="#374151"/>
<path d="M60.4712 408.518C60.5071 407.701 59.8542 407.019 59.0362 407.019H22.9526C22.1346 407.019 21.4817 407.701 21.5175 408.518L23.881 462.406C23.9147 463.174 24.5473 463.78 25.3161 463.78H56.6727C57.4415 463.78 58.0741 463.174 58.1077 462.406L60.4712 408.518Z" fill="#374151"/>
<path d="M60.4712 408.518C60.5071 407.701 59.8542 407.019 59.0362 407.019H22.9526C22.1346 407.019 21.4817 407.701 21.5175 408.518L23.881 462.406C23.9147 463.174 24.5473 463.78 25.3161 463.78H56.6727C57.4415 463.78 58.0741 463.174 58.1077 462.406L60.4712 408.518Z" fill="url(#paint8_linear_275_1425)"/>
<path fill-rule="evenodd" clip-rule="evenodd" d="M703.427 306.568C703.427 308.25 703.733 309.861 704.293 311.348C704.759 312.585 704.44 314.033 703.43 314.886C698.861 318.744 695.959 324.516 695.959 330.965C695.959 333.247 696.322 335.444 696.994 337.502C697.343 338.57 697.049 339.76 696.214 340.512C689.943 346.162 686.001 354.347 686.001 363.453C686.001 380.502 699.821 394.323 716.87 394.323C733.919 394.323 747.74 380.502 747.74 363.453C747.74 354.432 743.871 346.315 737.702 340.671C736.873 339.913 736.588 338.72 736.945 337.655C737.65 335.553 738.031 333.304 738.031 330.965C738.031 324.516 735.129 318.744 730.56 314.886C729.55 314.033 729.231 312.585 729.697 311.348C730.256 309.861 730.563 308.25 730.563 306.568C730.563 299.075 724.488 293 716.995 293C709.502 293 703.427 299.075 703.427 306.568Z" fill="#1F2A37"/>
<path fill-rule="evenodd" clip-rule="evenodd" d="M717.12 305.725C716.723 305.725 716.401 306.047 716.401 306.443L716.401 425.691C716.401 426.087 716.723 426.409 717.12 426.409C717.516 426.409 717.838 426.087 717.838 425.691L717.838 306.443C717.838 306.047 717.516 305.725 717.12 305.725Z" fill="#374151"/>
<path fill-rule="evenodd" clip-rule="evenodd" d="M703.009 359.632C702.687 359.863 702.612 360.311 702.842 360.634L716.535 379.803C716.765 380.126 717.214 380.201 717.537 379.97C717.859 379.74 717.934 379.291 717.703 378.968L704.011 359.799C703.781 359.477 703.332 359.402 703.009 359.632Z" fill="#374151"/>
<path fill-rule="evenodd" clip-rule="evenodd" d="M731.229 330.007C731.552 330.237 731.627 330.686 731.396 331.009L717.704 350.178C717.473 350.501 717.025 350.575 716.702 350.345C716.379 350.114 716.304 349.666 716.535 349.343L730.227 330.174C730.458 329.851 730.906 329.776 731.229 330.007Z" fill="#374151"/>
<path d="M736.471 408.518C736.507 407.701 735.854 407.019 735.036 407.019H698.953C698.135 407.019 697.482 407.701 697.518 408.518L699.881 462.406C699.915 463.174 700.547 463.78 701.316 463.78H732.673C733.442 463.78 734.074 463.174 734.108 462.406L736.471 408.518Z" fill="#374151"/>
<path d="M736.471 408.518C736.507 407.701 735.854 407.019 735.036 407.019H698.953C698.135 407.019 697.482 407.701 697.518 408.518L699.881 462.406C699.915 463.174 700.547 463.78 701.316 463.78H732.673C733.442 463.78 734.074 463.174 734.108 462.406L736.471 408.518Z" fill="url(#paint9_linear_275_1425)"/>
<rect width="748" height="42" rx="6" transform="matrix(-1 0 0 1 748 464)" fill="#1D2735"/>
<path d="M352 253C352.5 240 357 208.7 371 187.5" stroke="#111928"/>
<rect x="376.143" y="173" width="10" height="20" rx="5" transform="rotate(37.3807 376.143 173)" fill="#111928"/>
<rect width="148" height="283" rx="6" transform="matrix(-1 0 0 1 666 251)" fill="#2D3746"/>
<rect x="260" y="251" width="293" height="283" rx="6" fill="#1D2735"/>
<rect x="260" y="251" width="293" height="283" rx="6" fill="url(#paint10_linear_275_1425)"/>
<circle cx="406" cy="393" r="97" fill="url(#paint11_linear_275_1425)"/>
<path d="M505.147 224.138C505.068 222.982 505.984 222 507.143 222H531.857C533.016 222 533.932 222.982 533.853 224.138L532 251H507L505.147 224.138Z" fill="#2D3846"/>
<path d="M508 232H531L530 251H509L508 232Z" fill="url(#paint12_linear_275_1425)"/>
<path d="M420.5 416C408.5 417.6 409.833 427.667 412 432.5L417 484L431 481C438.333 472.833 454 455 458 449C462 443 456.666 438.5 453.5 437C454.5 421.5 435.5 414 420.5 416Z" fill="#374151"/>
<path d="M408.984 442.218C408.193 444.037 407.042 445.467 405.843 446.318C404.635 447.176 403.46 447.399 402.543 447.001C401.627 446.602 400.988 445.591 400.792 444.122C400.597 442.665 400.857 440.847 401.647 439.029C402.438 437.211 403.589 435.78 404.788 434.929C405.996 434.071 407.171 433.848 408.088 434.246C409.004 434.645 409.643 435.657 409.839 437.125C410.034 438.582 409.774 440.4 408.984 442.218Z" stroke="#111928"/>
<path d="M408.501 470C390.901 464 406.167 439.167 415 428.5C420.592 429.199 419.975 437.329 419.286 442.15C419.128 443.253 419.679 444.339 420.676 444.837C421.495 445.247 422.471 445.186 423.233 444.678L425.874 442.918C428.526 441.15 432.133 442.25 433.347 445.197C434.057 446.922 433.753 448.891 432.63 450.381C429.203 454.928 424.33 462.35 423.001 468C421.401 474.8 427.667 479.5 431.001 481L432.001 495.5C420.401 499.5 413.501 497.167 411.501 495.5L408.501 470Z" fill="#FDBA8C"/>
<path fill-rule="evenodd" clip-rule="evenodd" d="M408.5 470C408.5 470 408.5 470 408.5 470L411.5 495.5C413.5 497.167 420.4 499.5 432 495.5L431 481C427.667 479.5 421.4 474.8 423 468C423.613 465.396 424.979 462.415 426.608 459.513C419.507 468.662 411.609 470.327 408.5 470L408.5 470Z" fill="url(#paint13_linear_275_1425)"/>
<path d="M403 437L424 443.5" stroke="#111928"/>
<path fill-rule="evenodd" clip-rule="evenodd" d="M400.615 456.036C400.664 455.7 400.721 455.361 400.785 455.02C402.006 454.908 403.826 454.438 405.708 453.093C405.933 452.933 406.245 452.985 406.406 453.209C406.566 453.434 406.514 453.746 406.289 453.907C404.138 455.443 402.027 455.952 400.615 456.036Z" fill="#111928"/>
<path fill-rule="evenodd" clip-rule="evenodd" d="M410.219 434.877C410.427 434.573 410.635 434.272 410.842 433.976C411.702 435.332 412.06 436.557 412.128 437.237C412.155 437.512 411.955 437.757 411.68 437.784C411.405 437.812 411.16 437.611 411.133 437.336C411.086 436.868 410.835 435.951 410.219 434.877Z" fill="#111928"/>
<path d="M405.409 440.956C405.183 441.484 405.427 442.095 405.955 442.321C406.483 442.548 407.094 442.304 407.32 441.776C407.547 441.248 407.303 440.637 406.775 440.41C406.247 440.184 405.636 440.428 405.409 440.956Z" fill="#111928"/>
<path d="M427.5 452.5C428.667 451.5 431 449.8 431 447C431 444.2 428 444.5 426.5 445.5" stroke="#111928" stroke-linecap="round"/>
<path d="M380.5 499C362.1 507 356.167 554.667 355.5 577.5H478C477.333 554.667 473.1 507 461.5 499C447 489 403.5 489 380.5 499Z" fill="#F9FAFB"/>
<path d="M380.5 499C362.1 507 356.167 554.667 355.5 577.5H478C477.333 554.667 473.1 507 461.5 499C447 489 403.5 489 380.5 499Z" fill="url(#paint14_linear_275_1425)"/>
<rect x="346" y="545" width="143" height="133" rx="16" fill="#2F3948"/>
<rect x="346" y="545" width="143" height="133" rx="16" fill="url(#paint15_linear_275_1425)"/>
<path d="M243 494C223 494 211.333 532.333 208 551.5C243.833 570.333 315.5 596.7 315.5 551.5C315.5 506.3 295.5 494.333 285.5 494H243Z" fill="#A4CAFE"/>
<path d="M243 494C223 494 211.333 532.333 208 551.5C243.833 570.333 315.5 596.7 315.5 551.5C315.5 506.3 295.5 494.333 285.5 494H243Z" fill="url(#paint16_linear_275_1425)"/>
<path d="M241.001 511.5C243.801 527.1 243.168 548 242.501 556.5H304.501C304.501 541.5 287.001 500.5 287.001 488.5C287.001 476.5 293.001 426 268.501 426C244.001 426 237.501 492 241.001 511.5Z" fill="#374151"/>
<rect x="185" y="545" width="143" height="133" rx="16" fill="#2F3948"/>
<rect x="185" y="545" width="143" height="133" rx="16" fill="url(#paint17_linear_275_1425)"/>
<path d="M91.9301 416C103.93 417.6 102.597 427.667 100.43 432.5L95.4302 484L81.4302 481C74.0968 472.833 66 464 62 458C58 452 55 437.5 62.5 435.5C62.5 424 76.9301 414 91.9301 416Z" fill="#374151"/>
<path d="M103.931 470C124.001 470 106.264 439.167 97.4311 428.5C91.8237 429.201 95.5307 438.142 96.983 443.148C97.2992 444.238 96.7404 445.345 95.7251 445.853C94.9204 446.255 93.9649 446.213 93.1989 445.741L90.7443 444.229C88.2166 442.673 84.9132 444.135 84.3661 447.053C84.1347 448.287 84.4731 449.551 85.1937 450.579C88.2393 454.925 92.0223 462.513 93.4309 468.5C95.0309 475.3 84.7642 479.5 81.4309 481L80.4309 495.5C92.0309 499.5 98.9309 497.167 100.931 495.5L103.931 470Z" fill="#FDBA8C"/>
<path fill-rule="evenodd" clip-rule="evenodd" d="M104 470C103.977 470 103.954 470 103.931 470L100.931 495.5C98.9308 497.166 92.0308 499.5 80.4308 495.5L81.4308 481C81.5854 480.93 81.7549 480.855 81.9374 480.774C85.6909 479.105 94.9566 474.984 93.4308 468.5C92.9655 466.522 92.241 464.369 91.3696 462.217C96.1438 466.414 101.579 469.714 104 470Z" fill="url(#paint18_linear_275_1425)"/>
<path fill-rule="evenodd" clip-rule="evenodd" d="M102.213 434.877C102.005 434.573 101.797 434.272 101.589 433.976C100.729 435.332 100.372 436.557 100.304 437.237C100.276 437.512 100.477 437.757 100.752 437.784C101.026 437.812 101.271 437.611 101.299 437.336C101.345 436.868 101.596 435.951 102.213 434.877Z" fill="#111928"/>
<path d="M107.02 440.956C107.247 441.484 107.003 442.095 106.475 442.321C105.947 442.548 105.336 442.304 105.109 441.776C104.883 441.248 105.127 440.637 105.655 440.41C106.183 440.184 106.794 440.428 107.02 440.956Z" fill="#111928"/>
<path fill-rule="evenodd" clip-rule="evenodd" d="M87.0849 446.157C86.7056 446.539 86.5019 447.067 86.5019 447.721C86.5019 448.982 87.1055 449.973 87.8016 450.725C88.3781 451.348 89.055 451.844 89.5491 452.205C89.6445 452.275 89.7332 452.34 89.8129 452.4C90.0338 452.566 90.3472 452.521 90.5129 452.3C90.6787 452.079 90.6339 451.766 90.413 451.6C90.32 451.53 90.2218 451.458 90.1197 451.383C89.6245 451.02 89.04 450.591 88.5355 450.046C87.9353 449.398 87.5019 448.638 87.5019 447.721C87.5019 447.285 87.6315 447.026 87.7939 446.863C87.9651 446.69 88.2258 446.572 88.5712 446.524C89.277 446.425 90.1649 446.644 90.7499 446.986C90.9884 447.125 91.2946 447.044 91.4337 446.806C91.5729 446.567 91.4924 446.261 91.2539 446.122C90.5055 445.685 89.3934 445.399 88.4325 445.533C87.9447 445.602 87.4553 445.785 87.0849 446.157Z" fill="#111928"/>
<path d="M132.5 499C150.9 507 156.833 554.667 157.5 577.5H35C35.6667 554.667 39.9 507 51.5 499C66 489 109.5 489 132.5 499Z" fill="#F9FAFB"/>
<rect x="24" y="545" width="143" height="133" rx="16" fill="#2F3948"/>
<rect x="24" y="545" width="143" height="133" rx="16" fill="url(#paint19_linear_275_1425)"/>
<defs>
<linearGradient id="paint0_linear_275_1425" x1="234.333" y1="430.532" x2="102.784" y2="113.107" gradientUnits="userSpaceOnUse">
<stop stop-color="#111928"/>
<stop offset="1" stop-color="#111928" stop-opacity="0"/>
</linearGradient>
<linearGradient id="paint1_linear_275_1425" x1="483" y1="116.5" x2="300.798" y2="143.181" gradientUnits="userSpaceOnUse">
<stop stop-color="#7F270F"/>
<stop offset="1" stop-color="#7F270F" stop-opacity="0"/>
</linearGradient>
<linearGradient id="paint2_linear_275_1425" x1="439.838" y1="147.5" x2="439.838" y2="263.5" gradientUnits="userSpaceOnUse">
<stop stop-color="#111928"/>
<stop offset="1" stop-color="#111928" stop-opacity="0"/>
</linearGradient>
<linearGradient id="paint3_linear_275_1425" x1="429.479" y1="73" x2="429.479" y2="99" gradientUnits="userSpaceOnUse">
<stop stop-color="#7F270F"/>
<stop offset="1" stop-color="#7F270F" stop-opacity="0"/>
</linearGradient>
<linearGradient id="paint4_linear_275_1425" x1="479" y1="256" x2="479" y2="137.5" gradientUnits="userSpaceOnUse">
<stop stop-color="#A4CAFE"/>
<stop offset="1" stop-color="#A4CAFE" stop-opacity="0"/>
</linearGradient>
<linearGradient id="paint5_linear_275_1425" x1="463" y1="191" x2="434.5" y2="178" gradientUnits="userSpaceOnUse">
<stop stop-color="#A4CAFE"/>
<stop offset="1" stop-color="#A4CAFE" stop-opacity="0"/>
</linearGradient>
<linearGradient id="paint6_linear_275_1425" x1="400" y1="156.5" x2="388.5" y2="133.5" gradientUnits="userSpaceOnUse">
<stop stop-color="#A4CAFE"/>
<stop offset="1" stop-color="#A4CAFE" stop-opacity="0"/>
</linearGradient>
<linearGradient id="paint7_linear_275_1425" x1="468.5" y1="84" x2="468.5" y2="218" gradientUnits="userSpaceOnUse">
<stop stop-color="#7F270F"/>
<stop offset="1" stop-color="#7F270F" stop-opacity="0"/>
</linearGradient>
<linearGradient id="paint8_linear_275_1425" x1="-25.4505" y1="445.529" x2="87.7106" y2="445.529" gradientUnits="userSpaceOnUse">
<stop stop-color="#1F2A37"/>
<stop offset="1" stop-color="#1F2A37" stop-opacity="0"/>
</linearGradient>
<linearGradient id="paint9_linear_275_1425" x1="650.55" y1="445.529" x2="763.711" y2="445.529" gradientUnits="userSpaceOnUse">
<stop stop-color="#1F2A37"/>
<stop offset="1" stop-color="#1F2A37" stop-opacity="0"/>
</linearGradient>
<linearGradient id="paint10_linear_275_1425" x1="307.5" y1="506.135" x2="307.5" y2="345.043" gradientUnits="userSpaceOnUse">
<stop stop-color="#2C3645"/>
<stop offset="1" stop-color="#2C3645" stop-opacity="0"/>
</linearGradient>
<linearGradient id="paint11_linear_275_1425" x1="406" y1="296" x2="406" y2="453.5" gradientUnits="userSpaceOnUse">
<stop stop-color="#2F3948"/>
<stop offset="1" stop-color="#2F3948" stop-opacity="0"/>
</linearGradient>
<linearGradient id="paint12_linear_275_1425" x1="519.5" y1="226" x2="519.5" y2="256.5" gradientUnits="userSpaceOnUse">
<stop stop-color="#6B7280"/>
<stop offset="1" stop-color="#111928"/>
</linearGradient>
<linearGradient id="paint13_linear_275_1425" x1="420.5" y1="450" x2="422.25" y2="488.5" gradientUnits="userSpaceOnUse">
<stop stop-color="#7F270F"/>
<stop offset="1" stop-color="#7F270F" stop-opacity="0"/>
</linearGradient>
<linearGradient id="paint14_linear_275_1425" x1="416.75" y1="416" x2="416.75" y2="577.5" gradientUnits="userSpaceOnUse">
<stop stop-color="#A4CAFE"/>
<stop offset="1" stop-color="#A4CAFE" stop-opacity="0"/>
</linearGradient>
<linearGradient id="paint15_linear_275_1425" x1="417.5" y1="508" x2="417.5" y2="678" gradientUnits="userSpaceOnUse">
<stop stop-color="#1D2735"/>
<stop offset="1" stop-color="#1D2735" stop-opacity="0"/>
</linearGradient>
<linearGradient id="paint16_linear_275_1425" x1="277" y1="607.5" x2="277" y2="494" gradientUnits="userSpaceOnUse">
<stop stop-color="#1C64F2"/>
<stop offset="1" stop-color="#1C64F2" stop-opacity="0"/>
</linearGradient>
<linearGradient id="paint17_linear_275_1425" x1="256.5" y1="508" x2="256.5" y2="678" gradientUnits="userSpaceOnUse">
<stop stop-color="#1D2735"/>
<stop offset="1" stop-color="#1D2735" stop-opacity="0"/>
</linearGradient>
<linearGradient id="paint18_linear_275_1425" x1="95.251" y1="452" x2="95.251" y2="493" gradientUnits="userSpaceOnUse">
<stop stop-color="#7F270F"/>
<stop offset="1" stop-color="#7F270F" stop-opacity="0"/>
</linearGradient>
<linearGradient id="paint19_linear_275_1425" x1="95.5" y1="508" x2="95.5" y2="678" gradientUnits="userSpaceOnUse">
<stop stop-color="#1D2735"/>
<stop offset="1" stop-color="#1D2735" stop-opacity="0"/>
</linearGradient>
</defs>
</svg>
